<svg width="230" height="16" viewBox="0 0 230 16" fill="none" xmlns="http://www.w3.org/2000/svg">
<path d="M1.25125 7.97438H9.03117V15.3442H10.2824V0.257324H9.03117V6.80994H1.25125V0.257324H0V15.3442H1.25125V7.97438ZM22.1154 9.46211C22.1154 8.41441 21.9179 7.50441 21.5227 6.7351C21.1276 5.96579 20.5918 5.38507 19.9183 4.98993C19.2418 4.5948 18.4964 4.39723 17.6762 4.39723C16.7841 4.39723 15.9879 4.61875 15.2844 5.06477C14.581 5.51079 14.0272 6.13642 13.6261 6.93865C13.225 7.74389 13.0214 8.65688 13.0214 9.67465V10.3212C13.0214 11.327 13.219 12.231 13.6141 13.0363C14.0092 13.8415 14.557 14.4701 15.2635 14.9221C15.9669 15.3741 16.7632 15.6016 17.6552 15.6016C18.676 15.6016 19.5321 15.3472 20.2296 14.8353C20.9271 14.3264 21.4599 13.611 21.8341 12.692L20.7564 12.261C20.1368 13.7397 19.1041 14.4821 17.6522 14.4821C16.9907 14.4821 16.401 14.3055 15.8861 13.9552C15.3683 13.602 14.9641 13.1141 14.6678 12.4885C14.3744 11.8628 14.2248 11.1414 14.2248 10.3212V10.1476H22.1124V9.45912L22.1154 9.46211ZM17.6762 5.51678C18.5652 5.51678 19.3136 5.83707 19.9183 6.47467C20.5229 7.11527 20.8582 8.00132 20.93 9.13583H14.2487C14.3355 8.04323 14.6828 7.16615 15.2934 6.5076C15.9041 5.84605 16.6973 5.51678 17.6762 5.51678ZM27.33 15.6046C28.9405 15.6046 30.075 14.9371 30.7365 13.599C30.7515 14.2037 30.9161 14.6886 31.2334 15.0538C31.5507 15.419 31.9878 15.6046 32.5475 15.6046C32.9786 15.6046 33.3228 15.5388 33.5833 15.4101V14.3983C33.3528 14.512 33.1103 14.5719 32.8499 14.5719C32.5326 14.5719 32.2961 14.4701 32.1374 14.2696C31.9788 14.069 31.901 13.8026 31.901 13.4733V8.1031C31.901 6.99553 31.5657 6.10349 30.8982 5.42099C30.2306 4.73849 29.3057 4.39723 28.1292 4.39723C27.1504 4.39723 26.3212 4.65168 25.6387 5.16355C24.9562 5.67243 24.4862 6.35194 24.2258 7.19908L25.2825 7.63014C25.7704 6.22323 26.7193 5.51678 28.1262 5.51678C28.9464 5.51678 29.584 5.75625 30.045 6.23819C30.506 6.72013 30.7335 7.34875 30.7335 8.12405V8.5132L27.5006 9.15978C26.4948 9.34537 25.6836 9.71057 25.064 10.2494C24.4473 10.7882 24.136 11.5306 24.136 12.4795V12.5663C24.136 13.4853 24.4294 14.2217 25.0191 14.7754C25.6088 15.3292 26.3781 15.6046 27.324 15.6046H27.33ZM27.4168 14.527C26.8002 14.527 26.3032 14.3414 25.9291 13.9672C25.5549 13.593 25.3693 13.1201 25.3693 12.5453V12.5244C25.3693 11.2462 26.1536 10.4559 27.7191 10.1536L30.7365 9.54892V10.3901C30.7365 11.7132 30.4342 12.7309 29.8325 13.4494C29.2278 14.1678 28.4256 14.527 27.4198 14.527H27.4168ZM37.6124 15.6046C38.0584 15.6046 38.4386 15.5268 38.7559 15.3681V14.2696C38.3817 14.4432 38.0584 14.527 37.786 14.527C37.4538 14.527 37.2053 14.4073 37.0317 14.1708C36.8581 13.9343 36.7743 13.608 36.7743 13.1889V0.257324H35.6098V13.168C35.6098 13.9163 35.7864 14.509 36.1367 14.9461C36.4899 15.3831 36.9808 15.6046 37.6124 15.6046ZM45.3923 4.65467H42.4618V2.04739L41.2764 2.69397V4.65467H39.2498V5.7323H41.2764V12.9315C41.2764 13.7637 41.4889 14.4192 41.911 14.8922C42.333 15.3652 42.9347 15.6046 43.71 15.6046C44.3416 15.6046 44.9014 15.4819 45.3923 15.2394V14.1408C44.8745 14.3983 44.3716 14.53 43.8836 14.53C43.3957 14.53 43.0545 14.3923 42.818 14.1199C42.5815 13.8475 42.4618 13.4583 42.4618 12.9554V5.7323H45.3923V4.65467ZM48.8198 15.3442V8.5132C48.8198 7.63612 49.0772 6.91171 49.5951 6.33698C50.113 5.76224 50.7715 5.47487 51.5768 5.47487C52.382 5.47487 53.0615 5.75625 53.5704 6.31602C54.0793 6.87579 54.3367 7.60918 54.3367 8.5132V15.3442H55.5221V8.27672C55.5221 7.14221 55.1838 6.21125 54.5103 5.48684C53.8338 4.76243 52.9448 4.39723 51.8372 4.39723C51.1188 4.39723 50.4961 4.55289 49.9723 4.86122C49.4484 5.16954 49.0623 5.55569 48.8198 6.01369V0.257324H47.6554V15.3442H48.8198ZM62.7422 15.6016C64.697 15.6016 66.0889 14.5899 66.9241 12.5633L65.8464 12.1113C65.574 12.8447 65.1789 13.4224 64.661 13.8475C64.1432 14.2726 63.5056 14.4821 62.7422 14.4821C61.7065 14.4821 60.8713 14.1019 60.2308 13.3386C59.5902 12.5783 59.2729 11.5785 59.2729 10.3422V9.65369C59.2729 8.41741 59.5932 7.4206 60.2308 6.65727C60.8684 5.89694 61.7065 5.51378 62.7422 5.51378C63.5026 5.51378 64.1462 5.72332 64.67 6.13941C65.1939 6.5555 65.58 7.13023 65.8225 7.86362L66.8343 7.39066C66.505 6.42678 65.9931 5.6874 65.3046 5.16954C64.6161 4.65168 63.76 4.39424 62.7392 4.39424C61.8352 4.39424 61.027 4.62174 60.3146 5.07375C59.6021 5.52576 59.0513 6.15438 58.6562 6.95961C58.2611 7.76484 58.0635 8.66886 58.0635 9.67465V10.3212C58.0635 11.327 58.2611 12.231 58.6562 13.0363C59.0513 13.8415 59.6051 14.4701 60.3146 14.9221C61.027 15.3741 61.8352 15.6016 62.7392 15.6016H62.7422ZM71.944 15.6016C73.5545 15.6016 74.689 14.9341 75.3506 13.596C75.3655 14.2007 75.5302 14.6856 75.8475 15.0508C76.1648 15.416 76.6018 15.6016 77.1616 15.6016C77.5926 15.6016 77.9369 15.5358 78.1973 15.4071V14.3953C77.9668 14.509 77.7243 14.5689 77.4639 14.5689C77.1466 14.5689 76.9101 14.4671 76.7515 14.2666C76.5928 14.066 76.515 13.7996 76.515 13.4703V8.1031C76.515 6.99553 76.1797 6.10349 75.5122 5.42099C74.8447 4.73849 73.9197 4.39723 72.7433 4.39723C71.7674 4.39723 70.9352 4.65168 70.2528 5.16355C69.5703 5.67243 69.1003 6.35194 68.8399 7.19908L69.8965 7.63014C70.3845 6.22323 71.3334 5.51678 72.7403 5.51678C73.5605 5.51678 74.1981 5.75625 74.6591 6.23819C75.1201 6.72013 75.3476 7.34875 75.3476 8.12405V8.5132L72.1147 9.15978C71.1089 9.34537 70.2977 9.71057 69.678 10.2494C69.0614 10.7882 68.75 11.5306 68.75 12.4795V12.5663C68.75 13.4853 69.0434 14.2217 69.6331 14.7754C70.2228 15.3292 70.9921 15.6046 71.938 15.6046L71.944 15.6016ZM72.0308 14.524C71.4142 14.524 70.9173 14.3384 70.5431 13.9642C70.1689 13.5901 69.9833 13.1171 69.9833 12.5424V12.5214C69.9833 11.2432 70.7676 10.4529 72.3332 10.1506L75.3506 9.54593V10.3871C75.3506 11.7102 75.0482 12.7279 74.4465 13.4464C73.8419 14.1648 73.0396 14.524 72.0338 14.524H72.0308ZM81.3853 15.3442V8.38448C81.3853 7.52237 81.6128 6.82191 82.0648 6.28309C82.5168 5.74428 83.0946 5.47487 83.801 5.47487C84.2321 5.47487 84.6841 5.56168 85.16 5.7323V4.58881C84.8307 4.4601 84.4476 4.39424 84.0165 4.39424C83.3849 4.39424 82.8311 4.54391 82.3582 4.84625C81.8852 5.14858 81.5619 5.52875 81.3883 5.98974V4.65467H80.2239V15.3442H81.3883H81.3853ZM95.4155 9.45912C95.4155 8.41142 95.2179 7.50142 94.8228 6.73211C94.4277 5.9628 93.8918 5.38207 93.2183 4.98694C92.5418 4.59181 91.7965 4.39424 90.9762 4.39424C90.0842 4.39424 89.288 4.61575 88.5845 5.06178C87.881 5.5078 87.3273 6.13342 86.9261 6.93566C86.522 7.74089 86.3215 8.65389 86.3215 9.67165V10.3182C86.3215 11.324 86.519 12.228 86.9142 13.0333C87.3093 13.8385 87.8571 14.4671 88.5635 14.9191C89.267 15.3711 90.0633 15.5986 90.9553 15.5986C91.9761 15.5986 92.8322 15.3442 93.5296 14.8323C94.2271 14.3234 94.7599 13.608 95.1341 12.689L94.0565 12.258C93.4368 13.7367 92.4041 14.4791 90.9523 14.4791C90.2908 14.4791 89.701 14.3025 89.1862 13.9523C88.6683 13.599 88.2612 13.1111 87.9678 12.4855C87.6745 11.8598 87.5248 11.1384 87.5248 10.3182V10.1446H95.4125V9.45613L95.4155 9.45912ZM90.9762 5.51378C91.8683 5.51378 92.6137 5.83408 93.2183 6.47168C93.823 7.11227 94.1583 7.99833 94.2301 9.13284H87.5488C87.6356 8.04024 87.9828 7.16316 88.5935 6.50461C89.2041 5.84306 89.9974 5.51378 90.9762 5.51378Z" fill="#544F4F"/>
<path d="M98.0527 0.257435V3.40652H102.214V15.3443H105.641V3.40652H109.802V0.257435H98.0557H98.0527ZM113.182 15.3443V9.99805C113.182 9.16588 113.421 8.49535 113.903 7.99245C114.385 7.48956 115.013 7.23811 115.789 7.23811C116.277 7.23811 116.759 7.34587 117.232 7.5614V4.54702C116.887 4.44524 116.498 4.39735 116.067 4.39735C115.463 4.39735 114.897 4.553 114.364 4.86133C113.831 5.16965 113.436 5.57676 113.179 6.07965V4.65777H110.074V15.3443H113.179H113.182ZM121.868 15.6017C122.716 15.6017 123.383 15.4551 123.874 15.1587C124.362 14.8654 124.766 14.4583 125.08 13.9404C125.209 14.4283 125.49 14.8264 125.922 15.1378C126.353 15.4461 126.87 15.6017 127.472 15.6017C128.074 15.6017 128.678 15.479 129.196 15.2365V12.8658C128.996 12.9675 128.756 13.0154 128.484 13.0154C127.981 13.0154 127.73 12.6981 127.73 12.0665V8.25288C127.73 7.08844 127.322 6.15449 126.511 5.45103C125.7 4.74758 124.548 4.39435 123.051 4.39435C121.988 4.39435 121.054 4.65777 120.249 5.18162C119.444 5.70547 118.863 6.41492 118.504 7.30396L121.048 8.29479C121.363 7.30396 122.033 6.80705 123.054 6.80705C123.572 6.80705 123.976 6.94774 124.272 7.22613C124.566 7.50752 124.715 7.88469 124.715 8.35765V8.48637L122.431 8.83061C121.18 9.0162 120.216 9.39338 119.534 9.96213C118.851 10.5309 118.51 11.3301 118.51 12.3658V12.3868C118.51 13.3507 118.824 14.126 119.459 14.7157C120.09 15.3054 120.896 15.5988 121.871 15.5988L121.868 15.6017ZM122.752 13.1441C122.377 13.1441 122.084 13.0603 121.868 12.8957C121.653 12.731 121.545 12.4886 121.545 12.1743C121.545 11.5696 121.94 11.1834 122.731 11.0098L124.712 10.5997V10.7733C124.712 11.4768 124.548 12.0485 124.215 12.4856C123.886 12.9226 123.395 13.1441 122.749 13.1441H122.752ZM133.893 15.3413V9.2018C133.893 8.59712 134.058 8.12117 134.39 7.76794C134.719 7.41472 135.15 7.2411 135.683 7.2411C136.216 7.2411 136.668 7.41472 136.997 7.75896C137.327 8.10321 137.494 8.58515 137.494 9.2018V15.3443H140.598V8.57916C140.598 7.25607 140.266 6.22932 139.607 5.49593C138.946 4.76254 137.976 4.39735 136.698 4.39735C136.081 4.39735 135.512 4.52606 134.995 4.78649C134.477 5.04692 134.112 5.35524 133.896 5.71445V4.65777H130.792V15.3443H133.896L133.893 15.3413ZM147.169 15.6437C148.504 15.6437 149.573 15.3084 150.369 14.6409C151.165 13.9733 151.566 13.0933 151.566 12.0007C151.566 11.0368 151.24 10.2974 150.584 9.77953C149.932 9.26166 149.007 8.89647 147.815 8.68094C147.01 8.53726 146.468 8.3816 146.187 8.21696C145.906 8.05232 145.768 7.84577 145.768 7.60331C145.768 7.38778 145.888 7.20817 146.124 7.06449C146.361 6.9208 146.681 6.84896 147.082 6.84896C147.483 6.84896 147.89 6.95972 148.256 7.18423C148.621 7.40574 148.899 7.70508 149.085 8.07926L151.369 6.7861C150.593 5.22054 149.177 4.43626 147.124 4.43626C145.918 4.43626 144.933 4.72962 144.172 5.31932C143.412 5.90903 143.029 6.69031 143.029 7.66916C143.029 8.5612 143.295 9.27364 143.825 9.81246C144.355 10.3513 145.175 10.7284 146.283 10.944C147.115 11.1176 147.708 11.2852 148.061 11.4499C148.414 11.6145 148.588 11.842 148.588 12.1294C148.588 12.6742 148.121 12.9496 147.187 12.9496C146.699 12.9496 146.241 12.8208 145.819 12.5604C145.394 12.303 145.088 11.9498 144.903 11.5037L142.424 12.9915C142.769 13.7967 143.355 14.4403 144.181 14.9192C145.008 15.4012 146.001 15.6407 147.166 15.6407L147.169 15.6437ZM159.023 2.84076C159.28 2.84076 159.508 2.86172 159.702 2.90662C159.897 2.94853 160.136 3.01438 160.424 3.10119V0.257435C159.66 0.083816 159.074 0 158.658 0C157.406 0 156.419 0.344244 155.694 1.03573C154.97 1.72421 154.605 2.70905 154.605 3.98725V4.65478H152.623V7.26206H154.605V15.3443H157.709V7.26206H160.424V4.65478H157.709V4.13692C157.709 3.7358 157.823 3.41849 158.053 3.188C158.283 2.95751 158.607 2.84376 159.023 2.84376V2.84076ZM166.608 15.5988C167.656 15.5988 168.602 15.3593 169.443 14.8773C170.284 14.3954 170.937 13.7309 171.404 12.8837C171.871 12.0366 172.104 11.0877 172.104 10.04V9.95315C172.104 8.90545 171.871 7.95653 171.404 7.10939C170.937 6.26225 170.284 5.59771 169.443 5.11577C168.602 4.63383 167.659 4.39435 166.608 4.39435C165.558 4.39435 164.618 4.63383 163.785 5.11577C162.953 5.59771 162.301 6.26225 161.834 7.10939C161.367 7.95653 161.133 8.90545 161.133 9.95315V10.04C161.133 11.0877 161.367 12.0366 161.834 12.8837C162.301 13.7309 162.95 14.3954 163.785 14.8773C164.618 15.3593 165.561 15.5988 166.608 15.5988ZM166.608 12.6682C165.905 12.6682 165.348 12.4227 164.938 11.9348C164.528 11.4469 164.324 10.8153 164.324 10.037V9.95015C164.324 9.17486 164.528 8.54324 164.938 8.05232C165.348 7.56439 165.905 7.31893 166.608 7.31893C167.312 7.31893 167.871 7.56439 168.291 8.05232C168.707 8.54025 168.916 9.17186 168.916 9.95015V10.037C168.916 10.8123 168.707 11.4439 168.291 11.9348C167.874 12.4227 167.312 12.6682 166.608 12.6682ZM177.127 15.3413V9.99505C177.127 9.16288 177.367 8.49235 177.849 7.98946C178.33 7.48656 178.959 7.23511 179.734 7.23511C180.222 7.23511 180.704 7.34288 181.177 7.5584V4.54702C180.833 4.44524 180.444 4.39735 180.013 4.39735C179.408 4.39735 178.842 4.553 178.31 4.86133C177.777 5.16965 177.382 5.57676 177.124 6.07965V4.65777H174.02V15.3443H177.124L177.127 15.3413ZM186.134 15.3413V8.92341C186.134 8.40554 186.278 7.99544 186.565 7.6961C186.853 7.39377 187.227 7.24409 187.685 7.24409C188.143 7.24409 188.496 7.39975 188.784 7.70808C189.071 8.0164 189.215 8.4235 189.215 8.9264V15.3503H192.319V8.92341C192.319 8.42051 192.462 8.01341 192.75 7.70508C193.037 7.39676 193.402 7.2411 193.848 7.2411C194.294 7.2411 194.681 7.39077 194.968 7.69311C195.255 7.99545 195.399 8.40554 195.399 8.92041V15.3443H198.482V8.25587C198.482 7.04952 198.165 6.1036 197.533 5.4211C196.902 4.7386 196.01 4.39735 194.86 4.39735C194.157 4.39735 193.534 4.53504 192.995 4.80744C192.456 5.07985 192.043 5.42409 191.756 5.84317C191.166 4.87929 190.19 4.40034 188.825 4.40034C188.236 4.40034 187.697 4.52906 187.209 4.78948C186.721 5.04692 186.362 5.35824 186.131 5.71745V4.66077H183.048V15.3443H186.131L186.134 15.3413ZM211.094 9.91124C211.094 8.71985 210.863 7.70808 210.405 6.88189C209.944 6.0557 209.324 5.43307 208.54 5.01698C207.756 4.6009 206.87 4.39136 205.879 4.39136C204.831 4.39136 203.888 4.63083 203.056 5.11277C202.224 5.59472 201.571 6.25926 201.104 7.1064C200.637 7.95354 200.404 8.90245 200.404 9.95015V10.037C200.404 11.0996 200.635 12.0515 201.093 12.8927C201.553 13.7338 202.194 14.3954 203.02 14.8743C203.846 15.3563 204.798 15.5958 205.876 15.5958C208.334 15.5958 209.977 14.6468 210.812 12.752L208.097 11.6534C207.867 12.1144 207.579 12.4557 207.235 12.6772C206.891 12.8987 206.439 13.0124 205.876 13.0124C205.214 13.0124 204.679 12.8119 204.272 12.4078C203.861 12.0066 203.607 11.4588 203.505 10.7704H211.091V9.90825L211.094 9.91124ZM205.879 6.91482C206.424 6.91482 206.888 7.07347 207.268 7.38778C207.648 7.70508 207.897 8.11219 208.01 8.61508H203.613C203.772 8.08225 204.044 7.66617 204.433 7.36383C204.822 7.0615 205.301 6.91182 205.876 6.91182L205.879 6.91482ZM216.117 15.3413V9.99505C216.117 9.16288 216.356 8.49235 216.838 7.98946C217.32 7.48656 217.948 7.23511 218.724 7.23511C219.212 7.23511 219.694 7.34288 220.167 7.5584V4.54702C219.822 4.44524 219.433 4.39735 219.002 4.39735C218.397 4.39735 217.832 4.553 217.299 4.86133C216.766 5.16965 216.371 5.57676 216.114 6.07965V4.65777H213.009V15.3443H216.114L216.117 15.3413ZM225.6 15.6437C226.935 15.6437 228.003 15.3084 228.8 14.6409C229.596 13.9733 229.997 13.0933 229.997 12.0007C229.997 11.0368 229.671 10.2974 229.015 9.77953C228.363 9.26166 227.438 8.89647 226.246 8.68094C225.441 8.53726 224.899 8.3816 224.618 8.21696C224.336 8.05232 224.199 7.84577 224.199 7.60331C224.199 7.38778 224.318 7.20817 224.555 7.06449C224.791 6.9208 225.112 6.84896 225.513 6.84896C225.914 6.84896 226.321 6.95972 226.686 7.18423C227.052 7.40574 227.33 7.70508 227.515 8.07926L229.799 6.7861C229.024 5.22054 227.608 4.43626 225.555 4.43626C224.348 4.43626 223.364 4.72962 222.603 5.31932C221.843 5.90903 221.46 6.69031 221.46 7.66916C221.46 8.5612 221.726 9.27364 222.256 9.81246C222.789 10.3513 223.606 10.7284 224.714 10.944C225.546 11.1176 226.139 11.2852 226.492 11.4499C226.845 11.6145 227.019 11.842 227.019 12.1294C227.019 12.6742 226.552 12.9496 225.618 12.9496C225.13 12.9496 224.672 12.8208 224.25 12.5604C223.825 12.303 223.519 11.9498 223.334 11.5037L220.855 12.9915C221.199 13.7967 221.786 14.4403 222.612 14.9192C223.438 15.4012 224.432 15.6407 225.597 15.6407L225.6 15.6437Z" fill="#0B41CD"/>
</svg>
