<svg width="72" height="40" viewBox="0 0 72 40" fill="none" xmlns="http://www.w3.org/2000/svg">
<path fillRule="evenodd" clipRule="evenodd" d="M16.1875 38.9167H55.875L72 19.5833L55.875 0H16.1875L0 19.5208L16.1875 38.9167ZM55 36.9375H17.0625L2.52083 19.5208L17.0625 2H55L69.4792 19.5833L55 36.9375ZM17.0417 19.25V26.0625H14.8334V10.7916H19.1042C20.2709 10.7916 21.1875 11.1458 21.8542 11.8541C22.5209 12.5625 22.8542 13.5416 22.8542 14.7708C22.8542 15.7291 22.6667 16.4791 22.3125 17.0208C21.9584 17.5625 21.4792 17.9791 20.8542 18.2916C21.2292 18.4166 21.5417 18.6666 21.7709 19.0208C22 19.375 22.1459 19.8958 22.2084 20.5416L22.8125 26.0416H20.625L20.0625 20.75C20 20.2291 19.8542 19.8333 19.6459 19.6041C19.4375 19.375 19.1042 19.25 18.6667 19.25H17.0417ZM17.0417 12.7916V17.25H18.875C19.4167 17.25 19.8542 17.0625 20.1459 16.7083C20.4584 16.3333 20.6042 15.7916 20.6042 15.0208C20.6042 14.25 20.4375 13.6875 20.1459 13.3333C19.8542 12.9791 19.4167 12.7916 18.875 12.7916H17.0417ZM30.0417 25.75C29.4584 26.125 28.7709 26.3125 28 26.3125C27.2292 26.3125 26.5625 26.125 25.9584 25.75C25.3542 25.375 24.8959 24.8333 24.5625 24.1458C24.2292 23.4583 24.0625 22.6458 24.0625 21.7083V19.625C24.0625 18.7083 24.2292 17.8958 24.5625 17.1875C24.8959 16.5 25.3542 15.9583 25.9584 15.5833C26.5417 15.2083 27.2292 15.0208 28 15.0208C28.7709 15.0208 29.4375 15.2083 30.0417 15.5833C30.6459 15.9583 31.1042 16.5 31.4375 17.1875C31.7709 17.875 31.9375 18.6875 31.9375 19.625V21.7083C31.9375 22.625 31.7709 23.4583 31.4375 24.1458C31.1042 24.8333 30.6459 25.375 30.0417 25.75ZM26.6459 23.6666C27 24.1041 27.4375 24.3333 28 24.3333C28.5625 24.3333 29.0209 24.1041 29.3542 23.6666C29.6875 23.2083 29.8542 22.5833 29.8542 21.7916V19.5C29.8542 18.7083 29.6875 18.0833 29.3542 17.6458C29 17.2083 28.5625 16.9791 28 16.9791C27.4375 16.9791 26.9792 17.2083 26.6459 17.6458C26.3125 18.0833 26.1459 18.7083 26.1459 19.5V21.7916C26.1459 22.5833 26.3125 23.2083 26.6459 23.6666ZM40.125 25.3958C39.5 26 38.6459 26.3125 37.5834 26.3125C36.3959 26.3125 35.4375 25.8958 34.75 25.0625C34.0209 24.2291 33.6667 23.0833 33.6667 21.6666V19.6458C33.6667 18.2083 34.0209 17.0833 34.75 16.25C35.4792 15.4166 36.4375 15 37.625 15C38.7084 15 39.5834 15.2916 40.2084 15.9166C40.8334 16.5416 41.2292 17.3958 41.375 18.5208L39.4792 18.9791C39.2292 17.6458 38.6042 16.9791 37.6042 16.9791C37.0417 16.9791 36.6042 17.2083 36.25 17.6458C35.8959 18.0833 35.7292 18.7083 35.7292 19.5V21.8125C35.7292 22.625 35.9167 23.25 36.25 23.6875C36.5834 24.125 37.0417 24.3333 37.6042 24.3333C38.1042 24.3333 38.5 24.1666 38.8125 23.8125C39.1042 23.4583 39.3334 22.9791 39.4375 22.3333L41.3542 22.7916C41.1667 23.9166 40.75 24.7708 40.125 25.3958ZM45 18.8541V26.0625H42.9792V10.7916H45V16.1458C45.1875 15.8333 45.5 15.5625 45.9375 15.3333C46.375 15.1041 46.8542 15 47.375 15C48.3125 15 49.0625 15.3125 49.6042 15.9166C50.1459 16.5208 50.4167 17.375 50.4167 18.4583V26.0625H48.3959V18.8541C48.3959 18.25 48.2292 17.7916 47.9167 17.4375C47.6042 17.0833 47.2084 16.9166 46.7084 16.9166C46.2084 16.9166 45.7917 17.0833 45.4792 17.4375C45.1667 17.7916 45 18.25 45 18.8541ZM58.5625 16.1875C59.25 17 59.5834 18.125 59.5834 19.5416H59.5625V21H54.0417V21.875C54.0417 22.7083 54.2084 23.3333 54.5417 23.7708C54.8959 24.2083 55.3125 24.4375 55.8334 24.4375C56.2917 24.4375 56.6875 24.2708 56.9792 23.9375C57.2709 23.625 57.4792 23.1666 57.5834 22.5833L59.4375 23.0208C59.25 24 58.8542 24.7916 58.25 25.3958C57.6459 26 56.8334 26.2916 55.8125 26.2916C54.6459 26.2916 53.7084 25.8541 53 25.0208C52.3125 24.1875 51.9584 23.0416 51.9584 21.625V19.6041C51.9584 18.6666 52.125 17.8541 52.4584 17.1458C52.7917 16.4583 53.25 15.9166 53.8334 15.5416C54.4167 15.1666 55.0625 14.9791 55.8125 14.9791C56.9792 14.9791 57.875 15.375 58.5625 16.1875ZM57.1667 17.4583C56.8334 17.0208 56.3959 16.7916 55.8334 16.7916C55.2709 16.7916 54.8542 17.0208 54.5625 17.4583C54.25 17.9166 54.0834 18.5208 54.0834 19.3125V19.5625H57.6459V19.2291C57.6459 18.5 57.4792 17.8958 57.1667 17.4583Z" fill="#0B41CD"/>
</svg>
