<svg width="24" height="24" viewBox="0 0 24 24" fill="none" xmlns="http://www.w3.org/2000/svg">
<path d="M20.85 8.7C20.85 8.7 20.7 7.425 20.1 6.9C19.425 6.15 18.675 6.15 18.3 6.15C15.75 6 12 6 12 6C12 6 8.25 6 5.7 6.15C5.325 6.225 4.575 6.225 3.9 6.9C3.375 7.425 3.15 8.7 3.15 8.7C3.15 8.7 3 10.125 3 11.625V12.975C3 14.4 3.15 15.9 3.15 15.9C3.15 15.9 3.3 17.175 3.9 17.7C4.575 18.45 5.475 18.375 5.85 18.45C7.275 18.6 12 18.6 12 18.6C12 18.6 15.75 18.6 18.3 18.375C18.675 18.3 19.425 18.3 20.1 17.625C20.625 17.1 20.85 15.825 20.85 15.825C20.85 15.825 21 14.4 21 12.9V11.55C21 10.125 20.85 8.7 20.85 8.7ZM10.125 14.625V9.6L15 12.15L10.125 14.625Z" fill="#544F4F"/>
</svg>
