<svg width="20" height="21" viewBox="0 0 20 21" fill="none" xmlns="http://www.w3.org/2000/svg">
<path d="M9.938 5.3656e-05H10.088C12.228 0.0891308 13.928 2.30333 13.938 5.02655V5.34468C13.8938 6.65438 13.4523 7.89126 12.7064 8.79539C11.9604 9.69952 10.9681 10.2005 9.938 10.193H9.788C8.75956 10.1531 7.78343 9.60685 7.06527 8.66922C6.3471 7.73159 5.94296 6.47584 5.938 5.16653V5.03928C5.948 2.23971 7.738 -0.0126717 9.938 5.3656e-05ZM20 20.3606H0L1.89 15.5377C2.22162 14.6911 2.73251 13.9792 3.36505 13.4823C3.99759 12.9854 4.72664 12.7232 5.47 12.7254H14.53C16.05 12.7254 17.43 13.8197 18.11 15.5377L20 20.3606Z" fill="black"/>
</svg>
