<svg width="14" height="20" viewBox="0 0 14 20" fill="none" xmlns="http://www.w3.org/2000/svg">
<path d="M14 0H7V5H14V0ZM4.5 20C5.09095 20 5.67611 19.8836 6.22208 19.6575C6.76804 19.4313 7.26412 19.0998 7.68198 18.682C8.09984 18.2641 8.43131 17.768 8.65746 17.2221C8.8836 16.6761 9 16.0909 9 15.5C9 14.9091 8.8836 14.3239 8.65746 13.7779C8.43131 13.232 8.09984 12.7359 7.68198 12.318C7.26412 11.9002 6.76804 11.5687 6.22208 11.3425C5.67611 11.1164 5.09095 11 4.5 11C3.30653 11 2.16193 11.4741 1.31802 12.318C0.474106 13.1619 0 14.3065 0 15.5C0 16.6935 0.474106 17.8381 1.31802 18.682C2.16193 19.5259 3.30653 20 4.5 20Z" fill="black"/>
<path d="M9 0H7V15.5H9V0Z" fill="black"/>
</svg>
