<?xml version="1.0" standalone="no"?>
<!DOCTYPE svg PUBLIC "-//W3C//DTD SVG 1.1//EN" "http://www.w3.org/Graphics/SVG/1.1/DTD/svg11.dtd" >
<svg xmlns="http://www.w3.org/2000/svg" xmlns:xlink="http://www.w3.org/1999/xlink" version="1.1">
<metadata>
Created by FontForge 20170731 at Wed Aug  3 18:21:24 2022
 By Aleksey,,,
Copyright (c) 2020 by F. Hoffmann-La Roche AG. All rights reserved.
</metadata>
<defs>
<font id="RocheSerif-Italic" horiz-adv-x="599" >
  <font-face 
    font-family="Roche Serif"
    font-weight="400"
    font-style="italic"
    font-stretch="normal"
    units-per-em="1000"
    panose-1="2 3 5 3 6 4 3 11 4 4"
    ascent="800"
    descent="-200"
    x-height="504"
    cap-height="700"
    bbox="-331 -270 1211 975"
    underline-thickness="50"
    underline-position="-150"
    slope="-17"
    unicode-range="U+000D-FB02"
  />
<missing-glyph horiz-adv-x="811" 
d="M641 123h-425l-173 200l173 200h425l173 -202zM69 321l156 -178h407l156 178l-156 182h-407z" />
    <glyph glyph-name="f_f" unicode="ff" horiz-adv-x="634" 
d="M787 743q27 -21 27 -56q0 -30 -17 -49t-46 -19q-27 0 -44 16t-17 40q0 36 28 54q-46 0 -82.5 -40.5t-67.5 -136.5l-18 -58h129l-11 -34h-129l-101 -319q-55 -176 -121 -251t-152 -75q-35 0 -56 16.5t-21 42.5q0 24 16 39t38 15q28 0 44.5 -21.5t14.5 -54.5q27 6 49 31.5
t45.5 86.5t52.5 171l86 319h-180l-101 -319q-61 -191 -130.5 -272t-162.5 -81q-34 0 -55.5 16.5t-21.5 42.5q0 24 16.5 39t37.5 15q29 0 45 -21.5t14 -54.5q44 10 84 81.5t83 234.5l85 319h-73l12 34h71l3 13q30 111 105 170.5t173 59.5q39 0 65 -13.5t36 -36.5
q36 38 81.5 57.5t95.5 19.5q43 0 70 -21zM449 516q10 41 27 76q-24 2 -39.5 18t-15.5 38q0 36 27 55q-5 1 -14 1q-47 0 -88 -43t-72 -138l-9 -29h178z" />
    <glyph glyph-name="f_f_i" unicode="ffi" horiz-adv-x="832" 
d="M872 740.5q39 -23.5 39 -60.5q0 -30 -18.5 -49.5t-48.5 -19.5q-27 0 -46 17.5t-19 43.5q0 34 22 54q-23 7 -42 7q-62 0 -113 -47t-89 -168l-8 -24h218q47 0 47 -34q0 -17 -12 -43l-151 -348l101 42l10 -17l-96 -69q-50 -35 -85 -35q-19 0 -29.5 11t-10.5 30q0 22 11 45
l168 384h-181l-101 -319q-55 -176 -121 -251t-152 -75q-35 0 -56 16.5t-21 42.5q0 24 16 39t38 15q28 0 44.5 -21.5t14.5 -54.5q27 6 49 31.5t45.5 86.5t52.5 171l86 319h-180l-101 -319q-61 -191 -130.5 -272t-162.5 -81q-34 0 -55.5 16.5t-21.5 42.5q0 24 16.5 39t37.5 15
q29 0 45 -21.5t14 -54.5q44 10 84 81.5t83 234.5l85 319h-73l12 34h71l3 13q30 111 105 170.5t173 59.5q40 0 66.5 -14t35.5 -39q80 80 220 80q72 0 111 -23.5zM265 494h178l3 12q15 52 31 86q-25 1 -40.5 17t-15.5 39q0 36 27 55q-5 1 -14 1q-47 0 -88 -43t-72 -138z" />
    <glyph glyph-name="f_f_l" unicode="ffl" horiz-adv-x="844" 
d="M663 69l101 42l10 -17l-95 -69q-50 -36 -85 -36q-19 0 -29 11.5t-10 31.5q0 19 9 44l207 547q-15 7 -23.5 20t-8.5 30t7.5 32t18.5 24q-7 3 -17 3q-54 0 -103.5 -46t-84.5 -158l-11 -34h105l-12 -34h-103l-101 -319q-56 -177 -122 -251.5t-152 -74.5q-34 0 -55.5 16.5
t-21.5 42.5q0 24 16.5 39t37.5 15q29 0 45 -21.5t14 -54.5q28 6 49.5 31.5t45 86t53.5 171.5l85 319h-179l-101 -319q-61 -191 -130.5 -272t-162.5 -81q-34 0 -55.5 16.5t-21.5 42.5q0 24 16.5 39t37.5 15q29 0 45 -21.5t14 -54.5q44 10 84 81.5t83 234.5l85 319h-73l12 34
h71l3 13q30 111 105 170.5t173 59.5q40 0 66.5 -14t35.5 -39q82 80 206 80q54 0 86 -24l86 30l7 -10zM448 516q9 37 28 76q-24 2 -39.5 18t-15.5 38q0 36 27 55q-5 1 -14 1q-47 0 -88 -43t-72 -138l-9 -29h177z" />
    <glyph glyph-name="f_i" unicode="fi" horiz-adv-x="547" 
d="M587 740.5q39 -23.5 39 -60.5q0 -30 -18.5 -49.5t-48.5 -19.5q-27 0 -46 17.5t-19 43.5q0 34 22 54q-23 7 -42 7q-63 0 -113.5 -47t-88.5 -168l-8 -24h218q47 0 47 -34q0 -17 -12 -43l-151 -348l101 42l10 -17l-96 -69q-50 -35 -85 -35q-19 0 -30 11t-11 30q0 20 12 45
l168 384h-181l-101 -319q-60 -191 -130 -272t-163 -81q-34 0 -55.5 16.5t-21.5 42.5q0 24 16.5 39t37.5 15q29 0 45 -21.5t14 -54.5q44 10 84 81.5t83 234.5l86 319h-74l12 34h71l3 12q35 133 113.5 195.5t201.5 62.5q72 0 111 -23.5z" />
    <glyph glyph-name="f_l" unicode="fl" horiz-adv-x="559" 
d="M378 69l101 42l10 -17l-95 -69q-50 -36 -85 -36q-19 0 -29 11.5t-10 31.5q0 19 9 44l207 547q-15 8 -23.5 21t-8.5 29q0 17 7.5 32t18.5 24q-7 3 -17 3q-53 0 -102.5 -46t-85.5 -158l-11 -34h105l-12 -34h-103l-101 -319q-61 -191 -130.5 -272t-162.5 -81
q-34 0 -55.5 16.5t-21.5 42.5q0 24 16.5 39t37.5 15q29 0 45 -21.5t14 -54.5q44 10 84 81.5t83 234.5l86 319h-74l12 34h71l6 22q33 121 110.5 184.5t187.5 63.5q54 0 86 -24l86 30l7 -10z" />
    <glyph glyph-name=".notdef" horiz-adv-x="811" 
d="M641 123h-425l-173 200l173 200h425l173 -202zM69 321l156 -178h407l156 178l-156 182h-407z" />
    <glyph glyph-name=".null" horiz-adv-x="0" 
 />
    <glyph glyph-name="nonmarkingreturn" unicode="&#xd;" horiz-adv-x="600" 
 />
    <glyph glyph-name="space" unicode=" " horiz-adv-x="201" 
 />
    <glyph glyph-name="exclam" unicode="!" horiz-adv-x="267" 
d="M160 551q10 86 30 123.5t69 37.5q27 0 45.5 -14.5t18.5 -38.5q0 -21 -9.5 -44.5t-36.5 -77.5l-146 -317h-23zM26.5 12.5q-21.5 21.5 -21.5 53.5t21.5 54t53.5 22t54 -22t22 -54t-22 -53.5t-54 -21.5t-53.5 21.5z" />
    <glyph glyph-name="quotedbl" unicode="&#x22;" horiz-adv-x="411" 
d="M181 627q0 5 2 30.5t7 42.5q15 60 71 60q24 0 38.5 -13t14.5 -33q0 -18 -8 -36.5t-26 -52.5l-89 -163h-23zM366 627q0 5 2 30.5t7 42.5q15 60 71 60q24 0 38.5 -13t14.5 -33q0 -18 -8 -36.5t-26 -52.5l-89 -163h-23z" />
    <glyph glyph-name="numbersign" unicode="#" horiz-adv-x="590" 
d="M603 498v-36h-107l-48 -224h115v-36h-123l-43 -202h-42l43 202h-206l-43 -202h-42l43 202h-99v36h107l48 224h-115v36h123l43 202h42l-43 -202h206l43 202h42l-43 -202h99zM200 238h206l48 224h-206z" />
    <glyph glyph-name="dollar" unicode="$" horiz-adv-x="506" 
d="M405 692q73 -8 136 -45l-47 -153h-16l-10 100q-26 49 -74 62l-75 -248l16 -12q50 -38 77 -79t27 -99q0 -61 -31 -109.5t-86 -75.5t-125 -27h-1l-26 -86h-32l27 88q-51 5 -95 24t-74 45l63 186h16l4 -121q11 -38 36 -64.5t61 -34.5l80 266l-11 9q-54 40 -80.5 82t-26.5 98
q0 59 31 103.5t83 68.5t112 24h10l26 86h32zM363 660h-6q-51 0 -88.5 -31.5t-37.5 -80.5q0 -35 15.5 -62.5t46.5 -55.5zM321.5 234q-12.5 27 -39.5 53l-75 -247q60 1 93.5 37t33.5 92q0 38 -12.5 65z" />
    <glyph glyph-name="percent" unicode="%" horiz-adv-x="821" 
d="M166 405q-34 37 -34 94q0 56 25.5 105t72 78.5t106.5 29.5q61 0 95.5 -36.5t34.5 -93.5q0 -56 -26 -105t-73 -79t-107 -30t-94 37zM137 0h-61l672 700h61zM324.5 426q28.5 32 45.5 81.5t17 97.5q0 38 -13.5 59.5t-38.5 21.5q-34 0 -62.5 -32t-45.5 -81.5t-17 -97.5
q0 -38 14 -59.5t38 -21.5q34 0 62.5 32zM453 25q-34 37 -34 94q0 56 25.5 104.5t72.5 78.5t107 30t94.5 -36.5t34.5 -93.5q0 -56 -26 -105t-73 -79t-107 -30t-94 37zM612.5 46q28.5 32 45.5 81.5t17 97.5q0 38 -14 59.5t-39 21.5q-34 0 -62.5 -32t-45 -81.5t-16.5 -97.5
q0 -38 14 -59.5t38 -21.5q34 0 62.5 32z" />
    <glyph glyph-name="ampersand" unicode="&#x26;" horiz-adv-x="654" 
d="M655 376q-36 -30 -100 -47q11 -41 11 -80q0 -68 -31.5 -127.5t-96.5 -96.5t-161 -37q-76 0 -133.5 27t-88.5 75t-31 110q0 70 39 125.5t106 86.5q-23 25 -35.5 55.5t-12.5 59.5q0 53 27 95t78.5 66t121.5 24q43 0 85 -8.5t75 -23.5l-50 -160h-18l-6 91q-19 33 -42 48.5
t-56 15.5q-40 0 -72.5 -19t-51.5 -52t-19 -73q0 -33 7.5 -57t23.5 -43q44 11 90 11q24 0 37.5 -13.5t13.5 -31.5t-14.5 -31.5t-39.5 -13.5q-58 0 -106 30q-35 -28 -57.5 -70t-22.5 -97q0 -53 24 -93.5t65.5 -62.5t93.5 -22q60 0 104.5 24.5t67.5 67t23 94.5q0 42 -17 90
q-43 -9 -69 -18t-44 -23q23 -2 38.5 -18.5t15.5 -39.5q0 -25 -17 -42t-41 -17q-25 0 -42 17t-17 42q0 45 27.5 72.5t66 41.5t103.5 31q53 12 84.5 23t50.5 28q-2 -1 -8 -1q-24 0 -40.5 17t-16.5 41t16.5 40.5t40.5 16.5t40.5 -17t16.5 -42q0 -59 -36 -89z" />
    <glyph glyph-name="quotesingle" unicode="'" horiz-adv-x="226" 
d="M181 627q0 5 2 30.5t7 42.5q15 60 71 60q24 0 38.5 -13t14.5 -33q0 -18 -8 -36.5t-26 -52.5l-89 -163h-23z" />
    <glyph glyph-name="parenleft" unicode="(" horiz-adv-x="358" 
d="M177 -145q-54 61 -84.5 146t-30.5 188q0 125 47 236.5t134.5 199t207.5 140.5l11 -19q-97 -61 -167.5 -155.5t-107 -207t-36.5 -228.5q0 -85 11 -153.5t33 -135.5z" />
    <glyph glyph-name="parenright" unicode=")" horiz-adv-x="358" 
d="M-66 -126q98 61 168.5 155.5t107 207t36.5 228.5q0 85 -11 153.5t-34 135.5l18 11q54 -62 85 -146.5t31 -187.5q0 -125 -47 -236.5t-135 -199t-207 -140.5z" />
    <glyph glyph-name="asterisk" unicode="*" horiz-adv-x="407" 
d="M454 598l15 -74l-154 -12l122 -97l-55 -50l-88 128l-24 -155l-71 22l66 141l-144 -57l-16 74l155 11l-122 98l54 50l88 -127l24 153l71 -22l-66 -140z" />
    <glyph glyph-name="plus" unicode="+" horiz-adv-x="484" 
d="M297 338h185l-16 -53h-185l-57 -185h-54l57 185h-185l16 53h185l57 186h54z" />
    <glyph glyph-name="comma" unicode="," horiz-adv-x="268" 
d="M-71 -140q52 21 91 55t55 76q-27 -1 -49.5 19.5t-22.5 55.5q0 33 22 54.5t57 21.5q29 0 50.5 -22t21.5 -55q0 -74 -62.5 -135t-157.5 -90z" />
    <glyph glyph-name="hyphen" unicode="-" horiz-adv-x="416" 
d="M374 286h-309l16 52h310z" />
    <glyph glyph-name="period" unicode="." horiz-adv-x="268" 
d="M25 12.5q-22 21.5 -22 53.5t22 54t54 22t53.5 -22t21.5 -54t-21.5 -53.5t-53.5 -21.5t-54 21.5z" />
    <glyph glyph-name="slash" unicode="/" horiz-adv-x="348" 
d="M-31 -140h-67l516 900h67z" />
    <glyph glyph-name="zero" unicode="0" horiz-adv-x="643" 
d="M159 19q-46 31 -70.5 87.5t-24.5 130.5q0 115 52.5 225.5t140.5 180t188 69.5q59 0 103.5 -31t68.5 -87.5t24 -130.5q0 -115 -52 -225.5t-138.5 -180t-184.5 -69.5q-61 0 -107 31zM400.5 96.5q64.5 74.5 104 188.5t39.5 225q0 78 -27 123t-74 45q-71 0 -136.5 -75
t-106 -189.5t-40.5 -225.5q0 -77 28.5 -121.5t78.5 -44.5q69 0 133.5 74.5z" />
    <glyph glyph-name="one" unicode="1" horiz-adv-x="321" 
d="M353 702l-199 -649h1l66 -39l-4 -14h-264l4 14l91 39l168 551l-69 30l4 14l195 64z" />
    <glyph glyph-name="two" unicode="2" horiz-adv-x="485" 
d="M498 439.5q-21 -44.5 -60 -83t-109 -92.5l-242 -188h250l78 96h14l-52 -172h-403l3 10l299 281q72 66 101 117t29 110q0 51 -31 83t-84 32q-52 0 -91 -28.5t-67 -88.5l-16 5q22 86 77 138.5t144 52.5q84 0 132.5 -46.5t48.5 -123.5q0 -58 -21 -102.5z" />
    <glyph glyph-name="three" unicode="3" horiz-adv-x="520" 
d="M90.5 4q-42.5 16 -66.5 43t-24 57q0 33 19.5 53.5t52.5 20.5q27 0 43.5 -16t16.5 -39q0 -24 -10.5 -40.5t-29.5 -29.5q31 -31 91 -31q51 0 90.5 26t61 71t21.5 100q0 68 -40.5 112.5t-102.5 65.5l239 227h-239l-82 -93h-13l51 169h383l-14 -46l-209 -199q57 -22 100 -75
t43 -125q0 -77 -34.5 -137.5t-99.5 -95t-153 -34.5q-52 0 -94.5 16z" />
    <glyph glyph-name="four" unicode="4" horiz-adv-x="551" 
d="M431 0h-264l4 14l91 39l42 138h-299l9 32l498 477h54l-136 -447h79l-20 -62h-79l-42 -138l67 -39zM419 565l-317 -312h222z" />
    <glyph glyph-name="five" unicode="5" horiz-adv-x="497" 
d="M30 14.5q-44 26.5 -44 67.5q0 32 19.5 52.5t50.5 20.5q26 0 42.5 -16t16.5 -39q0 -22 -8 -37t-25 -27q10 -7 28.5 -11.5t37.5 -4.5q60 0 106 32.5t71.5 88.5t25.5 124q0 64 -34 101.5t-94 37.5q-40 0 -78 -15.5t-67 -41.5h-13l129 353h347l-48 -156h-13l-27 80h-245
l-79 -206q64 51 150 51q53 0 93.5 -25t62 -68.5t21.5 -95.5q0 -86 -38.5 -152t-109 -103t-165.5 -37q-69 0 -113 26.5z" />
    <glyph glyph-name="six" unicode="6" horiz-adv-x="572" 
d="M466 374q49 -48 49 -124q0 -74 -35 -133.5t-96 -94t-137 -34.5q-55 0 -99.5 27.5t-70 77.5t-25.5 115q0 117 62.5 219.5t176.5 176.5t262 108l2 -18q-134 -49 -231 -140t-142 -203q30 31 71 51t85 20q79 0 128 -48zM332.5 50q36.5 30 58.5 82t22 116q0 62 -27.5 96.5
t-75.5 34.5q-80 0 -144 -76q-18 -60 -18 -122q0 -81 28 -121t76 -40q44 0 80.5 30z" />
    <glyph glyph-name="seven" unicode="7" horiz-adv-x="477" 
d="M191 0h-112l419 624h-284l-80 -90h-14l51 166h400l-3 -10z" />
    <glyph glyph-name="eight" unicode="8" horiz-adv-x="505" 
d="M478 465.5q-45 -44.5 -131 -74.5q47 -41 73.5 -83t26.5 -93q0 -61 -31 -113t-85.5 -83t-121.5 -31q-56 0 -100 21t-68.5 57t-24.5 81q0 75 51 134t139 89q-66 69 -66 149q0 55 27.5 99t76 69t108.5 25q79 0 125 -37.5t46 -99.5q0 -65 -45 -109.5zM418.5 482
q27.5 40 27.5 92q0 50 -27 79t-70 29q-48 0 -82.5 -32.5t-34.5 -81.5q0 -43 22 -81t70 -77l5 -4q62 36 89.5 76zM307.5 60.5q37.5 40.5 37.5 108.5q0 48 -26.5 86.5t-76.5 80.5l-18 16q-63 -36 -97 -87t-34 -111t33.5 -97t84.5 -37q59 0 96.5 40.5z" />
    <glyph glyph-name="nine" unicode="9" horiz-adv-x="572" 
d="M486.5 684.5q44.5 -27.5 70.5 -77.5t26 -115q0 -117 -62.5 -219.5t-176.5 -176.5t-262 -108l-2 18q134 49 231 140t142 203q-30 -31 -71 -51t-85 -20q-79 0 -128 48t-49 124q0 74 35 133.5t96 94t136 34.5q55 0 99.5 -27.5zM469 397q18 60 18 122q0 81 -28 121t-76 40
q-43 0 -80 -30.5t-59 -83t-22 -116.5q0 -62 27 -95.5t76 -33.5q80 0 144 76z" />
    <glyph glyph-name="colon" unicode=":" horiz-adv-x="268" 
d="M25 12.5q-22 21.5 -22 53.5t22 54t54 22t53.5 -22t21.5 -54t-21.5 -53.5t-53.5 -21.5t-54 21.5zM136 374.5q-22 21.5 -22 53.5t22 54t54 22t53.5 -22t21.5 -54t-21.5 -53.5t-53.5 -21.5t-54 21.5z" />
    <glyph glyph-name="semicolon" unicode=";" horiz-adv-x="268" 
d="M136 374.5q-22 21.5 -22 53.5t22 54t54 22t53.5 -22t21.5 -54t-21.5 -53.5t-53.5 -21.5t-54 21.5zM-71 -140q52 21 91 55t55 76q-27 -1 -49.5 19.5t-22.5 55.5q0 33 22 54.5t57 21.5q29 0 50.5 -22t21.5 -55q0 -74 -62.5 -135t-157.5 -90z" />
    <glyph glyph-name="less" unicode="&#x3c;" horiz-adv-x="486" 
d="M427 157l-16 -50l-370 175l18 59l478 175l-19 -62l-411 -149z" />
    <glyph glyph-name="equal" unicode="=" horiz-adv-x="485" 
d="M500 395h-424l16 53h424zM433 175h-424l16 53h424z" />
    <glyph glyph-name="greater" unicode="&#x3e;" horiz-adv-x="485" 
d="M465 282l-477 -175l19 62l410 149l-320 148l17 50l370 -175z" />
    <glyph glyph-name="question" unicode="?" horiz-adv-x="429" 
d="M149 262q8 73 40.5 112.5t105.5 58.5q69 19 100.5 43t31.5 58q0 43 -44.5 65t-108.5 22q-34 0 -68 -7t-60 -19q9 58 44 87.5t99 29.5q52 0 93 -20.5t64.5 -57t23.5 -82.5q0 -72 -45 -119t-142 -84q-45 -18 -65.5 -40t-38.5 -65l-12 -31h-25zM71.5 12.5
q-21.5 21.5 -21.5 53.5t21.5 54t53.5 22t54 -22t22 -54t-22 -53.5t-54 -21.5t-53.5 21.5z" />
    <glyph glyph-name="at" unicode="@" horiz-adv-x="850" 
d="M226.5 -57q-73.5 40 -117 116.5t-43.5 180.5q0 122 61 230.5t171.5 175t251.5 66.5q86 0 153.5 -33t105 -93.5t37.5 -140.5q0 -98 -44.5 -180t-117.5 -129.5t-154 -47.5q-32 0 -51 17t-19 44q0 11 3 21q-67 -82 -137 -82q-46 0 -73 32.5t-27 83.5q0 72 42.5 148
t112.5 126t145 50q37 0 63 -14.5t40 -38.5l47 41h32l-152 -336q-6 -13 -6 -24q0 -10 7 -16t19 -6q58 0 112 42t88 112t34 150q0 71 -35 125t-96 83t-137 29q-122 0 -219 -61t-151 -159t-54 -206q0 -96 36 -166.5t99.5 -108t143.5 -37.5q78 0 136.5 22t118.5 70l12 -16
q-55 -53 -121.5 -81.5t-154.5 -28.5t-161.5 40zM441.5 185.5q40.5 41.5 71.5 110.5l56 129q6 12 6 26q0 19 -12 32t-35 13q-48 0 -97.5 -46t-81.5 -113.5t-32 -124.5q0 -32 13 -50t38 -18q33 0 73.5 41.5z" />
    <glyph glyph-name="A" unicode="A" horiz-adv-x="676" 
d="M577 700l-44 -652l62 -34l-4 -14h-250l4 14l82 33l12 145h-258l-113 -147l58 -31l-4 -14h-188l4 14l84 34l504 652h51zM470 570l-263 -344h235z" />
    <glyph glyph-name="B" unicode="B" horiz-adv-x="629" 
d="M-47 0l4 14l91 39l182 594l-67 39l4 14h279q95 0 149.5 -39.5t54.5 -105.5q0 -48 -26.5 -85t-71.5 -58.5t-99 -24.5q59 -12 97 -52t38 -106q0 -70 -39.5 -122t-113.5 -79.5t-174 -27.5h-308zM371 400q80 0 130.5 41.5t50.5 107.5q0 117 -124 117h-85l-82 -266h110z
M257 34q110 0 166 54.5t56 149.5q0 63 -32.5 95.5t-93.5 32.5h-102l-102 -332h108z" />
    <glyph glyph-name="C" unicode="C" horiz-adv-x="660" 
d="M206.5 23q-62.5 35 -98 98.5t-35.5 145.5q0 121 57 223t162.5 162t246.5 60q62 0 115 -14t90 -36l-49 -159h-14l-3 98q-35 77 -142 77q-100 0 -181 -58.5t-126.5 -156t-45.5 -208.5q0 -106 47.5 -169.5t127.5 -63.5q52 0 89.5 18t79.5 60l62 97h14l-49 -161
q-40 -23 -89.5 -35.5t-117.5 -12.5q-78 0 -140.5 35z" />
    <glyph glyph-name="D" unicode="D" horiz-adv-x="715" 
d="M620 622.5q80 -77.5 80 -215.5q0 -113 -54 -205.5t-161 -147t-260 -54.5h-272l4 14l91 39l182 594l-67 39l4 14h230q143 0 223 -77.5zM212 34q125 0 210 52.5t126.5 139t41.5 187.5q0 117 -54.5 185t-154.5 68h-36l-194 -632h61z" />
    <glyph glyph-name="E" unicode="E" horiz-adv-x="603" 
d="M689 700l-52 -169h-14l-23 135h-255l-87 -282h168l76 90h13l-66 -214h-13l-20 90h-168l-97 -316h270l123 173h14l-64 -207h-541l4 14l91 39l182 594l-67 39l4 14h522z" />
    <glyph glyph-name="F" unicode="F" horiz-adv-x="582" 
d="M683 700l-54 -178h-14l-24 144h-246l-93 -302h158l76 90h14l-66 -214h-13l-21 90h-158l-85 -278l78 -38l-4 -14h-278l4 14l91 39l182 594l-67 39l4 14h516z" />
    <glyph glyph-name="G" unicode="G" horiz-adv-x="710" 
d="M662 323l44 -3l-25 -13l-28 -14l-55 -179l5 -45q-43 -35 -109.5 -58t-139.5 -23q-80 0 -143.5 35t-100 101t-36.5 155q0 115 56.5 214.5t157.5 159t227 59.5q131 0 221 -48l-55 -179h-14l-7 113q-19 38 -58 59t-92 21q-94 0 -169 -57.5t-116.5 -152.5t-41.5 -203
q0 -114 47 -178.5t127 -64.5q36 0 66 10.5t58 32.5l66 218l-40 2l-26 38l80 5h103z" />
    <glyph glyph-name="H" unicode="H" horiz-adv-x="764" 
d="M874 700l-3 -14l-92 -39l-182 -594l67 -39l-4 -14h-267l4 14l91 39l95 311h-331l-95 -311l67 -39l-4 -14h-267l4 14l91 39l182 594l-67 39l4 14h267l-4 -14l-91 -39l-76 -249h331l76 249l-67 39l4 14h267z" />
    <glyph glyph-name="I" unicode="I" horiz-adv-x="324" 
d="M434 700l-4 -14l-91 -39l-182 -594l67 -39l-4 -14h-267l4 14l91 39l182 594l-67 39l4 14h267z" />
    <glyph glyph-name="J" unicode="J" horiz-adv-x="324" 
d="M430 686l-91 -39l-169 -552q-18 -59 -39.5 -96t-53 -63.5t-84.5 -56.5l-86 -49l-12 20l56 46q37 31 59 68t45 110l175 573l-67 39l4 14h267z" />
    <glyph glyph-name="K" unicode="K" horiz-adv-x="676" 
d="M552 686l4 14h206l-4 -14l-103 -37l-290 -255l158 -342l67 -38l-4 -14h-168l-148 333h-27l-86 -280l67 -39l-4 -14h-267l4 14l91 39l182 594l-67 39l4 14h267l-4 -14l-91 -39l-86 -280h26l325 284z" />
    <glyph glyph-name="L" unicode="L" horiz-adv-x="608" 
d="M410 34l142 184h14l-66 -218h-547l4 14l91 39l182 594l-67 39l4 14h267l-4 -14l-91 -39l-188 -613h259z" />
    <glyph glyph-name="M" unicode="M" horiz-adv-x="883" 
d="M993 700l-4 -14l-91 -39l-182 -595l67 -38l-4 -14h-269l4 14l91 39l173 565l-434 -618h-32l-56 596l-166 -543l67 -39l-4 -14h-200l4 14l91 39l182 594l-67 39l4 14h186l48 -552l389 552h203z" />
    <glyph glyph-name="N" unicode="N" horiz-adv-x="719" 
d="M829 700l-4 -14l-91 -39l-198 -647h-42l-245 572l-159 -520l67 -38l-4 -14h-200l4 14l91 39l177 577l-24 60l3 10h121l220 -534l149 481h-1l-68 39l4 14h200z" />
    <glyph glyph-name="O" unicode="O" horiz-adv-x="796" 
d="M223.5 27q-67.5 39 -105.5 109.5t-38 161.5q0 108 51.5 203t143.5 153t207 58q86 0 154 -39t106 -109.5t38 -161.5q0 -108 -51.5 -203t-143.5 -153t-207 -58q-87 0 -154.5 39zM530 77.5q67 53.5 105 145.5t38 203q0 74 -24 131t-68 88t-101 31q-84 0 -151 -53.5
t-105 -145t-38 -203.5q0 -74 24.5 -131t68.5 -88t101 -31q83 0 150 53.5z" />
    <glyph glyph-name="P" unicode="P" horiz-adv-x="625" 
d="M614.5 655q59.5 -45 59.5 -120q0 -103 -84.5 -159t-238.5 -56h-112l-82 -267l67 -39l-4 -14h-267l4 14l91 38l182 595l-67 39l4 14h282q106 0 165.5 -45zM347 354q111 0 166.5 50t55.5 136q0 60 -33.5 93t-96.5 33h-94l-96 -312h98z" />
    <glyph glyph-name="Q" unicode="Q" horiz-adv-x="796" 
d="M734 209q-46 -91 -129 -150t-189 -69q3 -49 34 -77.5t79 -28.5q38 0 79 19l36 16l8 -25l-45 -27q-63 -38 -127 -38q-73 0 -124 47t-58 121q-99 25 -158.5 105.5t-59.5 195.5q0 108 51.5 203t143.5 153t207 58q86 0 154 -39t106 -109.5t38 -161.5q0 -102 -46 -193z
M530 77.5q67 53.5 105 145.5t38 203q0 74 -24 131t-68 88t-101 31q-84 0 -151 -53.5t-105 -145t-38 -203.5q0 -74 24.5 -131t68.5 -88t101 -31q83 0 150 53.5z" />
    <glyph glyph-name="R" unicode="R" horiz-adv-x="670" 
d="M596 409q-69 -52 -174 -58l94 -298l63 -39l-4 -14h-161l-97 340h-70l-88 -287l67 -39l-4 -14h-269l4 14l91 39l182 594l-67 39l4 14h275q108 0 165.5 -41.5t57.5 -112.5q0 -85 -69 -137zM358 374q56 0 102 21.5t73 61t27 91.5q0 57 -34 87.5t-96 30.5h-83l-90 -292h101z
" />
    <glyph glyph-name="S" unicode="S" horiz-adv-x="522" 
d="M92 10q-58 22 -94 54l63 196h16l5 -134q13 -50 45 -77t82 -27q63 0 100.5 38.5t37.5 98.5q0 48 -23 83.5t-76 79.5q-54 43 -82.5 86t-28.5 103q0 62 31 107.5t81.5 69.5t106.5 24q111 0 192 -52l-46 -153h-16l-13 100q-23 35 -51 53t-71 18q-48 0 -84 -32t-36 -81
t27 -86.5t83 -82.5q55 -44 83.5 -85t28.5 -98q0 -65 -32 -116t-88 -80t-126 -29q-57 0 -115 22z" />
    <glyph glyph-name="T" unicode="T" horiz-adv-x="613" 
d="M726 700l-60 -198h-14l-13 164h-149l-188 -613l70 -39l-4 -14h-274l4 14l94 39l188 613h-143l-120 -164h-14l61 198h562z" />
    <glyph glyph-name="U" unicode="U" horiz-adv-x="712" 
d="M209.5 12.5q-50.5 24.5 -79 70t-28.5 107.5q0 43 15 92l111 365l-66 39l4 14h268l-5 -14l-91 -39l-122 -400q-11 -38 -11 -69q0 -64 38.5 -103.5t103.5 -39.5q80 0 131.5 47.5t81.5 147.5l127 417l-67 39l5 14h197l-4 -14l-92 -39l-132 -432q-33 -109 -94 -168t-176 -59
q-64 0 -114.5 24.5z" />
    <glyph glyph-name="V" unicode="V" horiz-adv-x="659" 
d="M595 686l4 14h189l-4 -14l-90 -39h-12l-219 -320l-251 -327h-24l12 652l-57 34l4 14h243l-4 -14l-79 -37l-15 -507l180 250l204 255h-13z" />
    <glyph glyph-name="W" unicode="W" horiz-adv-x="945" 
d="M886 686l4 14h180l-4 -14l-91 -39h-8l-194 -320l-219 -312l-10 -15h-23l25 505l-155 -238l-194 -267h-23l29 651l-57 35l5 14h244l-5 -14l-79 -37l-25 -487l110 164l151 192l7 133l-55 35l5 14h239l-4 -14l-76 -35l-31 -477l140 220l188 253h-13z" />
    <glyph glyph-name="X" unicode="X" horiz-adv-x="711" 
d="M731 686l-85 -34l-221 -267l113 -337l79 -34l-4 -14h-273l4 14l81 31l-91 269l-221 -266l58 -34l-4 -14h-199l4 14l93 37l255 304l-100 297l-65 34l4 14h246l-4 -14l-67 -30l78 -232l186 229l-50 33l4 14h183z" />
    <glyph glyph-name="Y" unicode="Y" horiz-adv-x="633" 
d="M759 700l-4 -14l-83 -33l-269 -336l-80 -264l72 -39l-4 -14h-277l4 14l96 39l76 248l-80 353l-65 32l4 14h250l-4 -14l-68 -31l64 -300l239 297l-49 34l4 14h174z" />
    <glyph glyph-name="Z" unicode="Z" horiz-adv-x="579" 
d="M460 0h-468l10 34l502 632h-246l-131 -175h-13l63 209h458l-10 -34l-496 -632h245l135 175h14z" />
    <glyph glyph-name="bracketleft" unicode="[" horiz-adv-x="304" 
d="M159 -140h-226l276 900h226l-10 -32h-124l-254 -836h123z" />
    <glyph glyph-name="backslash" unicode="\" horiz-adv-x="348" 
d="M210 -140h-60l27 900h60z" />
    <glyph glyph-name="bracketright" unicode="]" horiz-adv-x="304" 
d="M135 -140h-227l11 32h123l255 836h-123l10 32h227z" />
    <glyph glyph-name="asciicircum" unicode="^" horiz-adv-x="501" 
d="M153 414h-72l274 286h65l102 -286h-59l-83 237z" />
    <glyph glyph-name="underscore" unicode="_" horiz-adv-x="615" 
d="M459 -66h-495l16 52h494z" />
    <glyph glyph-name="grave" unicode="`" horiz-adv-x="185" 
d="M287 580h-27l-113 149l3 10h110l30 -149z" />
    <glyph glyph-name="a" unicode="a" horiz-adv-x="578" 
d="M47 26.5q-33 38.5 -33 99.5q0 87 47 175.5t127 146.5t174 58q61 0 90 -40l11 28h102l-170 -428l102 45l11 -17l-95 -69q-46 -34 -81 -34q-20 0 -31 11.5t-11 32.5q0 15 8 39l13 34q-41 -56 -81 -88t-98 -32q-52 0 -85 38.5zM293 126.5q56 69.5 102 192.5l23 62q6 18 6 34
q0 26 -16 42t-46 16q-60 0 -117.5 -51.5t-93.5 -129.5t-36 -152q0 -39 17 -61t48 -22q57 0 113 69.5z" />
    <glyph glyph-name="b" unicode="b" horiz-adv-x="531" 
d="M50 19q-33 31 -33 79q0 28 10 54l209 550l-62 23v15l181 30l7 -10l-118 -307q21 21 56 37t72 16q65 0 102.5 -42t37.5 -114q0 -84 -47.5 -168.5t-131 -139t-186.5 -54.5q-64 0 -97 31zM282.5 77.5q55.5 51.5 89.5 128.5t34 145q0 50 -19.5 77t-55.5 27q-51 0 -106 -55
l-107 -279q-9 -22 -9 -42q0 -24 14.5 -38.5t44.5 -14.5q59 0 114.5 51.5z" />
    <glyph glyph-name="c" unicode="c" horiz-adv-x="468" 
d="M115.5 12q-39.5 24 -62 68.5t-22.5 102.5q0 87 42.5 161.5t112.5 118t149 43.5q55 0 87.5 -22.5t32.5 -59.5q0 -29 -15.5 -46t-40.5 -17q-23 0 -38.5 15.5t-15.5 36.5q0 15 6 28.5t16 23.5q-13 4 -35 4q-54 0 -101 -35.5t-75.5 -96.5t-28.5 -133q0 -62 30.5 -99.5
t82.5 -37.5q85 0 146 92l21 -12q-68 -159 -202 -159q-50 0 -89.5 24z" />
    <glyph glyph-name="d" unicode="d" horiz-adv-x="583" 
d="M50 26q-35 38 -35 102q0 89 48.5 177.5t126.5 144.5t162 56q66 0 100 -37l89 233l-61 23v15l180 30l7 -10l-267 -694l103 45l10 -17l-94 -69q-50 -35 -82 -35q-19 0 -29.5 11.5t-10.5 33.5q0 16 6 37l12 34q-39 -58 -81.5 -88t-94.5 -30q-54 0 -89 38zM295 119.5
q51 62.5 85 156.5l38 101q6 18 6 34q0 27 -17 44t-46 17q-60 0 -117 -49.5t-92.5 -127.5t-35.5 -156q0 -36 18.5 -59t48.5 -23q61 0 112 62.5z" />
    <glyph glyph-name="e" unicode="e" horiz-adv-x="447" 
d="M365 305q-84 -49 -240 -67q-4 -19 -4 -44q0 -59 28 -93t73 -34q42 0 75.5 21.5t67.5 70.5l21 -13q-76 -158 -202 -158q-71 0 -115.5 49.5t-44.5 128.5q0 77 42 156.5t113.5 131.5t155.5 52q53 0 83.5 -23t30.5 -63q0 -66 -84 -115zM246.5 442.5q-38.5 -27.5 -69 -73.5
t-45.5 -98q109 16 173.5 58.5t64.5 97.5q0 20 -12.5 31.5t-33.5 11.5q-39 0 -77.5 -27.5z" />
    <glyph glyph-name="f" unicode="f" horiz-adv-x="349" 
d="M502 743q27 -21 27 -56q0 -30 -17 -49t-47 -19q-26 0 -43 16t-17 40q0 36 28 54q-46 0 -82.5 -40.5t-67.5 -136.5l-18 -58h129l-12 -34h-128l-101 -319q-61 -191 -130.5 -272t-162.5 -81q-34 0 -55.5 16.5t-21.5 42.5q0 24 16.5 39t37.5 15q29 0 45 -21.5t14 -54.5
q44 10 84 81.5t83 234.5l86 319h-74l12 34h71l6 22q32 119 104 183.5t164 64.5q43 0 70 -21z" />
    <glyph glyph-name="g" unicode="g" horiz-adv-x="487" 
d="M519 527l-23 -68l-86 -4q22 -32 22 -76q0 -57 -27.5 -105.5t-77.5 -77t-113 -28.5q-35 0 -62 12q-28 -16 -28 -35q0 -14 19.5 -26t60.5 -31q47 -21 78.5 -39.5t54 -45.5t22.5 -62q0 -42 -29 -77t-82.5 -55.5t-125.5 -20.5q-90 0 -141 36t-51 94q0 41 38.5 76t105.5 58
q-36 31 -36 64q0 51 88 79q-22 17 -34 43.5t-12 58.5q0 54 26 102t76 77.5t117 29.5q49 0 82 -22l128 54zM275 231q30 32 49 81t19 96q0 31 -11.5 49t-34.5 18q-31 0 -61 -32t-48.5 -81t-18.5 -96q0 -31 11.5 -49t33.5 -18q31 0 61 32zM230.5 -44.5q-24.5 19.5 -75.5 46.5
q-40 21 -62 36q-36 -21 -58.5 -50.5t-22.5 -63.5q0 -45 33.5 -72.5t85.5 -27.5q57 0 90.5 25t33.5 62q0 25 -24.5 44.5z" />
    <glyph glyph-name="h" unicode="h" horiz-adv-x="563" 
d="M-28 0l264 702l-62 23v15l181 30l7 -10l-170 -454q55 91 120 145.5t128 54.5q45 0 69 -23.5t24 -64.5q0 -40 -23 -85l-133 -266l106 45l10 -17l-94 -69q-48 -35 -85 -35q-20 0 -32 11.5t-12 30.5q0 20 12 44l136 281q12 26 12 44t-11 27.5t-31 9.5q-43 0 -94 -47.5
t-100 -127.5t-87 -176l-33 -88h-102z" />
    <glyph glyph-name="i" unicode="i" horiz-adv-x="309" 
d="M275.5 613.5q-19.5 19.5 -19.5 48.5t19.5 48.5t48.5 19.5t48.5 -19.5t19.5 -48.5t-19.5 -48.5t-48.5 -19.5t-48.5 19.5zM144 25q-50 -35 -86 -35q-19 0 -29.5 11t-10.5 30q0 22 11 45l152 348l-101 -42l-10 17l95 69q50 35 85 35q19 0 30 -11t11 -30t-12 -45l-151 -348
l101 42l10 -17z" />
    <glyph glyph-name="j" unicode="j" horiz-adv-x="309" 
d="M275.5 613.5q-19.5 19.5 -19.5 48.5t19.5 48.5t48.5 19.5t48.5 -19.5t19.5 -48.5t-19.5 -48.5t-48.5 -19.5t-48.5 19.5zM-184.5 -194.5q-21.5 17.5 -21.5 44.5q0 24 15.5 40t42.5 16q22 0 35.5 -13t13.5 -34q0 -26 -14 -42q31 8 51.5 35t48.5 96l192 476l-99 -42l-11 17
l96 69q50 35 84 35q19 0 29.5 -11t10.5 -30q0 -17 -11 -45l-175 -431q-38 -95 -96 -146.5t-131 -51.5q-39 0 -60.5 17.5z" />
    <glyph glyph-name="k" unicode="k" horiz-adv-x="512" 
d="M-28 0l264 702l-62 23v15l181 30l7 -10l-161 -423q50 69 112 119t122 50q40 0 61 -20.5t21 -53.5q0 -72 -73.5 -124.5t-198.5 -69.5l181 -238h-131l-136 221l-85 -221h-102zM299 288.5q58 24.5 91.5 56t33.5 63.5q0 16 -8.5 25.5t-25.5 9.5q-42 0 -102 -52t-116 -137
q69 10 127 34.5z" />
    <glyph glyph-name="l" unicode="l" horiz-adv-x="280" 
d="M114 25q-49 -36 -84 -36q-19 0 -29 11.5t-10 31.5q0 19 9 44l236 626l-62 23v15l181 30l7 -10l-263 -691l101 42l10 -17z" />
    <glyph glyph-name="m" unicode="m" horiz-adv-x="842" 
d="M795 484.5q23 -21.5 23 -60.5q0 -42 -29 -99l-130 -255l103 42l10 -17l-95 -69q-50 -36 -86 -36q-19 0 -29.5 11t-10.5 30t12 46l136 277q15 32 15 51q0 16 -10 25t-28 9q-51 0 -113 -77.5t-141 -240.5l-59 -121h-99l169 354q14 31 14 49q0 36 -38 36q-59 0 -130.5 -99.5
t-138.5 -260.5l-34 -79h-104l179 424l-101 -42l-10 17l95 69q51 35 85 35q19 0 29 -10.5t10 -29.5q0 -21 -11 -46l-42 -105q50 86 109.5 140t121.5 54q38 0 59.5 -22.5t21.5 -61.5q0 -22 -7 -46q95 130 193 130q38 0 61 -21.5z" />
    <glyph glyph-name="n" unicode="n" 
d="M2 0l179 424l-101 -42l-10 17l95 69q51 35 85 35q19 0 29.5 -10.5t10.5 -29.5t-12 -46l-46 -113q53 87 120.5 144.5t133.5 57.5q39 0 61.5 -21.5t22.5 -61.5q0 -44 -27 -98l-127 -255l103 42l10 -17l-95 -69q-50 -36 -87 -36q-19 0 -30 10.5t-11 29.5q0 21 13 47l133 277
q14 31 14 50q0 17 -10 26t-28 9q-42 0 -93 -47t-102 -129t-93 -184l-34 -79h-104z" />
    <glyph glyph-name="o" unicode="o" horiz-adv-x="523" 
d="M74.5 38q-45.5 50 -45.5 136q0 80 37.5 157t106.5 126t158 49q71 0 116.5 -50t45.5 -136q0 -80 -37.5 -157t-106.5 -126t-158 -49q-71 0 -116.5 50zM290.5 77.5q46.5 57.5 75.5 141.5t29 157q0 48 -17.5 73t-50.5 25q-49 0 -95 -57.5t-75 -141.5t-29 -157q0 -48 17.5 -73
t49.5 -25q49 0 95.5 57.5z" />
    <glyph glyph-name="p" unicode="p" horiz-adv-x="561" 
d="M440.5 481.5q44.5 -24.5 67.5 -67.5t23 -97q0 -79 -38 -155t-107.5 -125t-158.5 -49q-64 0 -103 28l-67 -169l66 -32l-7 -15h-249l6 15l82 32l233 596q-54 -26 -110 -72l-16 24q74 63 141 88l27 68l109 27l-28 -73q8 1 24 1q61 0 105.5 -24.5zM327.5 67q46.5 44 73 114.5
t26.5 145.5q0 69 -31.5 107.5t-88.5 38.5h-8l-156 -407q11 -19 33 -31t48 -12q57 0 103.5 44z" />
    <glyph glyph-name="q" unicode="q" horiz-adv-x="542" 
d="M125 -200l6 15l82 32l87 227q-26 -38 -65 -62t-85 -24q-60 0 -96.5 41t-36.5 110q0 89 48.5 174t125.5 139t158 54q68 0 102 -36l9 24h103l-247 -647l65 -32l-6 -15h-250zM283 98.5q41 40.5 77 133.5l60 154q6 17 6 29q0 25 -18.5 40.5t-47.5 15.5q-61 0 -116.5 -47.5
t-89 -121.5t-33.5 -148q0 -45 19.5 -70.5t54.5 -25.5q47 0 88 40.5z" />
    <glyph glyph-name="r" unicode="r" horiz-adv-x="507" 
d="M2 0l179 424l-101 -42l-10 17l95 69q51 35 84 35q38 0 38 -42q0 -18 -9 -44l-22 -58q40 67 91 107t106 40q36 0 56 -19.5t20 -52.5q0 -30 -18 -48.5t-45 -18.5q-25 0 -41.5 16t-16.5 40q0 21 14 42q-64 -4 -133 -97t-137 -257l-46 -111h-104z" />
    <glyph glyph-name="s" unicode="s" horiz-adv-x="391" 
d="M47.5 2q-41.5 14 -66.5 36l45 138h15l13 -101q10 -23 32.5 -39.5t51.5 -16.5q38 0 62.5 24t24.5 62q0 29 -16 56t-52 61q-38 35 -57.5 68t-19.5 68q0 65 46 106.5t123 41.5q39 0 75 -10t62 -28l-37 -119h-12l-20 85q-26 39 -73 39q-30 0 -52.5 -18.5t-22.5 -47.5
q0 -25 16 -50.5t51 -55.5q44 -38 63.5 -69.5t19.5 -78.5q0 -48 -23.5 -85.5t-65.5 -58.5t-96 -21q-45 0 -86.5 14z" />
    <glyph glyph-name="t" unicode="t" horiz-adv-x="351" 
d="M394 460h-127l-144 -392l133 69l11 -16l-123 -93q-49 -37 -84 -37q-20 0 -31.5 12.5t-11.5 34.5q0 19 9 43l137 379h-69l13 34h68l37 101l122 49l-55 -150h128z" />
    <glyph glyph-name="u" unicode="u" 
d="M52 11.5q-23 21.5 -23 61.5q0 42 28 99l127 254l-103 -42l-10 18l95 68q52 37 87 37q20 0 30.5 -10.5t10.5 -30.5q0 -21 -13 -47l-133 -277q-14 -31 -14 -50q0 -34 38 -34q42 0 93 47t102.5 129t92.5 183l33 77h104l-178 -421l101 42l10 -18l-95 -68q-49 -36 -85 -36
q-19 0 -29.5 11t-10.5 30q0 23 11 46l47 113q-54 -87 -121 -145t-133 -58q-39 0 -62 21.5z" />
    <glyph glyph-name="v" unicode="v" horiz-adv-x="537" 
d="M62 0l113 426l-103 -42l-10 18l97 69q46 32 75 32q20 0 30.5 -12.5t10.5 -37.5q0 -18 -6 -41l-98 -384q99 71 188 166.5t124 179.5q-27 5 -45.5 23.5t-18.5 41.5q0 30 19 48.5t46 18.5q25 0 43.5 -18.5t18.5 -48.5q0 -19 -11 -46q-46 -110 -138 -209t-218 -184h-117z" />
    <glyph glyph-name="w" unicode="w" horiz-adv-x="773" 
d="M763.5 487.5q17.5 -18.5 17.5 -49.5q0 -19 -9 -45q-93 -238 -327 -393h-116l50 190q-81 -103 -200 -190h-117l113 426l-103 -42l-10 18l97 69q46 32 75 32q20 0 30.5 -12.5t10.5 -37.5q0 -18 -6 -41l-98 -384q59 45 123 111.5t106 128.5l42 158l-103 -42l-10 18l97 69
q46 32 75 32q19 0 30 -13.5t11 -37.5q0 -17 -6 -40l-98 -384q92 61 170 156t112 190q-27 5 -45.5 23.5t-18.5 41.5q0 30 19 48.5t46 18.5q25 0 42.5 -18.5z" />
    <glyph glyph-name="x" unicode="x" horiz-adv-x="544" 
d="M532 490q16 -16 16 -43q0 -26 -15.5 -42t-39.5 -16q-21 0 -37.5 15t-19.5 37l-124 -156l61 -224l86 53l12 -17l-57 -63q-36 -40 -75 -40q-22 0 -38.5 14t-23.5 40l-40 143l-90 -138q-22 -35 -44.5 -48.5t-52.5 -13.5q-28 0 -47 17t-19 44q0 28 16 44.5t43 16.5
q22 0 39 -15t21 -41l123 174l-56 200l-87 -41l-11 16l67 62q38 35 69 35q44 0 62 -64l32 -116l92 122q25 34 46.5 47.5t46.5 13.5q29 0 45 -16z" />
    <glyph glyph-name="y" unicode="y" horiz-adv-x="500" 
d="M488 487q17 -19 17 -52q0 -22 -7 -46q-40 -145 -125.5 -283.5t-195.5 -226.5t-219 -88q-36 0 -58 20.5t-22 48.5t17.5 46t42.5 18q27 0 44.5 -18.5t17.5 -48.5q0 -14 -3 -27q123 27 242 159h-69l-27 440l-94 -39l-11 16l81 64q40 31 69 31q26 0 41.5 -19t17.5 -57
l22 -400q62 78 109.5 171t71.5 178q-32 4 -50.5 23.5t-18.5 44.5q0 28 17.5 46t45.5 18q27 0 44 -19z" />
    <glyph glyph-name="z" unicode="z" horiz-adv-x="445" 
d="M305 92l47 86h22l-14 -130q-4 -29 -19 -43.5t-39 -14.5t-56 16l-164 82l-93 -95l-28 28l376 389l-185 16l-68 -93h-21l19 111q11 60 57 60q15 0 36 -6l193 -56l58 60l30 -30l-341 -350z" />
    <glyph glyph-name="braceleft" unicode="{" horiz-adv-x="369" 
d="M148 -140q-49 0 -76 26t-27 69q0 25 7 47l65 213q6 20 6 34q0 22 -12 33.5t-34 11.5h-42l10 32h42q37 0 56 17t31 58l68 223q24 78 66 107t117 29h74l-10 -32h-42q-34 0 -57.5 -18.5t-34.5 -52.5l-66 -217q-22 -72 -57.5 -100.5t-96.5 -32.5q38 -5 59.5 -27.5t21.5 -58.5
q0 -19 -8 -46l-64 -212q-5 -17 -5 -26q0 -22 13.5 -33.5t38.5 -11.5h43l-11 -32h-75z" />
    <glyph glyph-name="bar" unicode="|" horiz-adv-x="153" 
d="M-36 -200h-49l300 980h49z" />
    <glyph glyph-name="braceright" unicode="}" horiz-adv-x="369" 
d="M-92 -140l11 32h41q35 0 58.5 18.5t34.5 52.5l65 217q22 72 58 100.5t97 32.5q-38 5 -59.5 27.5t-21.5 58.5q0 19 8 46l64 212q5 17 5 26q0 22 -13.5 33.5t-39.5 11.5h-42l10 32h76q50 0 76.5 -26.5t26.5 -69.5q0 -24 -7 -46l-65 -213q-6 -19 -6 -35q0 -44 45 -44h42
l-10 -32h-42q-36 0 -55 -17t-32 -58l-67 -223q-24 -78 -66 -107t-117 -29h-75z" />
    <glyph glyph-name="asciitilde" unicode="~" horiz-adv-x="500" 
d="M313.5 255q-19.5 9 -50.5 28q-29 20 -51 30t-50 10q-64 0 -111 -73l-18 6q26 61 60 91t91 30q29 0 53 -10.5t55 -31.5q27 -18 46 -26.5t40 -8.5q62 0 111 73l18 -6q-25 -62 -59 -91.5t-91 -29.5q-24 0 -43.5 9z" />
    <glyph glyph-name="uni00A0" unicode="&#xa0;" horiz-adv-x="201" 
 />
    <glyph glyph-name="exclamdown" unicode="&#xa1;" horiz-adv-x="267" 
d="M241 484.5q22 -21.5 22 -53.5t-22 -54t-54 -22t-53.5 22t-21.5 54t21.5 53.5t53.5 21.5t54 -21.5zM108 -55q-10 -85 -30 -122.5t-69 -37.5q-27 0 -45.5 14.5t-18.5 38.5q0 19 8.5 41t27.5 61l9 20l147 316h23z" />
    <glyph glyph-name="cent" unicode="&#xa2;" horiz-adv-x="474" 
d="M375 609q57 -2 95.5 -28.5t38.5 -65.5q0 -29 -16 -45.5t-41 -16.5q-23 0 -38 15t-15 36q0 31 22 53q-10 7 -25.5 11t-31.5 4l-122 -397q18 -5 35 -5q48 0 82 22.5t65 69.5l21 -12q-33 -77 -82 -118t-124 -41q-15 0 -22 1l-28 -92h-32l30 98q-56 17 -89.5 67.5
t-33.5 126.5q0 80 37.5 150.5t101.5 115t140 50.5l28 92h32zM174 237.5q14 -32.5 40 -49.5l117 381q-49 -9 -88 -46t-61 -92t-22 -118q0 -43 14 -75.5z" />
    <glyph glyph-name="sterling" unicode="&#xa3;" horiz-adv-x="484" 
d="M465.5 700.5q44.5 -11.5 71.5 -29.5l-48 -159h-14l-2 94q-14 35 -42.5 54.5t-66.5 19.5q-64 0 -103.5 -44t-39.5 -120q0 -32 5 -85q1 -13 3 -41t3 -49h175l-11 -32h-164q-2 -80 -39.5 -134.5t-111.5 -98.5h246l87 103h10l-55 -179h-393l15 48q80 51 114 101t34 121
q0 13 -2 39h-94l10 32h81l-7 46q-13 71 -13 110q0 65 31.5 113.5t89.5 75t133 26.5q53 0 97.5 -11.5z" />
    <glyph glyph-name="currency" unicode="&#xa4;" horiz-adv-x="677" 
d="M528 218l88 -88l-25 -26l-89 88q-57 -47 -132 -47t-132 47l-88 -88l-26 26l88 88q-47 57 -47 132t47 132l-88 88l26 26l88 -88q57 47 132 47t132 -47l89 88l25 -26l-88 -88q47 -57 47 -132t-47 -132zM453 205q38 22 60 60.5t22 84.5t-22 84.5t-60 60.5t-83 22t-83 -22
t-60 -60.5t-22 -84.5t22 -84.5t60 -60.5t83 -22t83 22z" />
    <glyph glyph-name="yen" unicode="&#xa5;" horiz-adv-x="645" 
d="M772 700l-4 -14l-86 -35l-256 -302h132l-10 -32h-141l-24 -79h141l-10 -32h-141l-47 -153l72 -39l-4 -14h-277l4 14l96 39l46 153h-143l10 32h143l24 79h-143l10 32h125l-79 304l-65 33l4 14h259l-4 -14l-74 -32l68 -283l241 282l-46 33l4 14h175z" />
    <glyph glyph-name="brokenbar" unicode="&#xa6;" horiz-adv-x="154" 
d="M138 364h-49l127 416h49zM-35 -200h-49l127 416h49z" />
    <glyph glyph-name="section" unicode="&#xa7;" horiz-adv-x="523" 
d="M485.5 697.5q51.5 -14.5 85.5 -38.5l-47 -155h-16l-11 90q-22 43 -54 63.5t-70 20.5q-63 0 -100.5 -34.5t-37.5 -85.5q0 -43 26.5 -76t84.5 -65q71 -39 100 -72t29 -86t-33 -94.5t-87 -65.5q30 -39 30 -96q0 -60 -31 -109t-86.5 -77t-125.5 -28q-57 0 -107.5 15.5
t-82.5 40.5l48 162h16l14 -110q14 -35 45 -54.5t72 -19.5q44 0 77 17.5t51 46.5t18 63q0 48 -25.5 76.5t-88.5 58.5q-65 31 -97 68.5t-32 93.5q0 53 32.5 94t92.5 66q-32 44 -32 103q0 58 30.5 104t84.5 72t123 26q53 0 104.5 -14.5zM190 389q-27 -15 -42.5 -40t-15.5 -52
q0 -36 28 -66t97 -60q54 -24 81 -53q27 16 40.5 39.5t13.5 50.5q0 39 -29.5 64.5t-100.5 63.5q-45 23 -72 53z" />
    <glyph glyph-name="dieresis" unicode="&#xa8;" horiz-adv-x="327" 
d="M150 620q-19 19 -19 46t19 46t46 19t46 -19t19 -46t-19 -46t-46 -19t-46 19zM341 620q-19 19 -19 46t19 46t47 19q27 0 46 -19t19 -46t-19 -46t-46 -19q-28 0 -47 19z" />
    <glyph glyph-name="copyright" unicode="&#xa9;" horiz-adv-x="831" 
d="M618.5 668.5q80.5 -43.5 130 -125.5t49.5 -193t-49.5 -193t-130 -125.5t-171.5 -43.5t-171.5 43.5t-130 125.5t-49.5 193t49.5 193t130 125.5t171.5 43.5t171.5 -43.5zM595 64.5q70 38.5 113.5 112t43.5 173.5t-43.5 173.5t-113.5 112t-148 38.5q-79 0 -149 -38.5
t-113.5 -112t-43.5 -173.5t43.5 -173.5t113.5 -112t149 -38.5q78 0 148 38.5zM277 461.5q28 47.5 75.5 72t103.5 24.5q79 0 125 -26v-98h-16l-15 73q-36 23 -90 23q-43 0 -81 -22t-61 -63t-23 -95t23 -95t61 -63t81 -22q47 0 90 24l15 72h16v-94q-60 -30 -125 -30
q-56 0 -103.5 24.5t-75.5 72t-28 111.5t28 111.5z" />
    <glyph glyph-name="ordfeminine" unicode="&#xaa;" horiz-adv-x="379" 
d="M120.5 399q-21.5 25 -21.5 65q0 55 30 111.5t81.5 93.5t113.5 37q38 0 58 -25l7 17h73l-110 -272l66 29l7 -12l-61 -44q-31 -22 -55 -22q-14 0 -22 8t-8 23t5 27l6 17q-26 -36 -51.5 -57t-62.5 -21q-34 0 -55.5 25zM281 466q35 43 64 121l14 40q4 9 4 21q0 16 -10 26
t-28 10q-37 0 -73 -32.5t-58.5 -81.5t-22.5 -95q0 -25 10.5 -38.5t29.5 -13.5q35 0 70 43z" />
    <glyph glyph-name="guillemotleft" unicode="&#xab;" horiz-adv-x="429" 
d="M173 106h-33l-93 192l4 10l199 178h39l-137 -196zM354 106h-33l-93 192l4 10l199 178h39l-137 -196z" />
    <glyph glyph-name="logicalnot" unicode="&#xac;" horiz-adv-x="484" 
d="M409 100h-55l55 181h-369l16 53h424z" />
    <glyph glyph-name="uni00AD" unicode="&#xad;" horiz-adv-x="416" 
d="M374 286h-309l16 52h310z" />
    <glyph glyph-name="registered" unicode="&#xae;" horiz-adv-x="388" 
d="M215.5 422.5q-34.5 18.5 -55.5 53.5t-21 82t21 82t55.5 53.5t73.5 18.5t73.5 -18.5t55.5 -53.5t21 -82t-21 -82t-55.5 -53.5t-73.5 -18.5t-73.5 18.5zM353.5 435.5q30.5 16.5 49.5 48t19 74.5t-19 74.5t-49.5 48t-64.5 16.5t-64.5 -16.5t-49.5 -48t-19 -74.5t19 -74.5
t49.5 -48t64.5 -16.5t64.5 16.5zM221 471v7l19 6v148l-19 8v5h73q27 0 41 -12t14 -33q0 -19 -10.5 -30t-25.5 -14l36 -72l16 -6v-7h-30l-41 84h-38v-71l19 -6v-7h-54zM299 568q15 0 24.5 8t9.5 24t-9.5 24t-24.5 8h-43v-64h43z" />
    <glyph glyph-name="macron" unicode="&#xaf;" horiz-adv-x="264" 
d="M378 629h-258l13 44h258z" />
    <glyph glyph-name="degree" unicode="&#xb0;" horiz-adv-x="298" 
d="M157.5 500q-29.5 28 -29.5 71q0 60 40.5 100.5t106.5 40.5q45 0 75 -28t30 -71q0 -60 -41 -100.5t-106 -40.5q-46 0 -75.5 28zM297.5 533.5q24.5 33.5 24.5 82.5q0 31 -14 49.5t-38 18.5q-36 0 -60 -34t-24 -82q0 -31 13 -49.5t37 -18.5q37 0 61.5 33.5z" />
    <glyph glyph-name="plusminus" unicode="&#xb1;" horiz-adv-x="484" 
d="M358 537l-52 -169h185l-16 -53h-185l-52 -168h-54l52 168h-185l16 53h185l52 169h54zM377 -2h-424l15 53h424z" />
    <glyph glyph-name="uni00B2" unicode="&#xb2;" horiz-adv-x="248" 
d="M241 397l45 46h6l-29 -93h-210l2 5l150 140q29 27 42.5 53t13.5 55q0 24 -14 39t-40 15q-46 0 -74 -55l-10 3q10 47 39.5 74.5t76.5 27.5q45 0 70 -24.5t25 -66.5q0 -41 -24 -71t-70 -65l-115 -83h116z" />
    <glyph glyph-name="uni00B3" unicode="&#xb3;" horiz-adv-x="271" 
d="M96.5 362.5q-27.5 18.5 -27.5 42.5q0 19 11 30.5t30 11.5q16 0 25.5 -9.5t9.5 -22.5q0 -25 -23 -39q13 -15 43 -15q36 0 58 26.5t22 68.5q0 33 -20 55t-51 34l119 108h-114l-46 -42h-6l27 89h199l-8 -27l-102 -93q29 -10 52 -38t23 -64q0 -61 -40 -97.5t-111 -36.5
q-43 0 -70.5 18.5z" />
    <glyph glyph-name="acute" unicode="&#xb4;" horiz-adv-x="170" 
d="M134 580h-32l3 10l96 149h119l-3 -10z" />
    <glyph glyph-name="uni00B5" unicode="&#xb5;" horiz-adv-x="630" 
d="M-110 -200l312 626l-102 -42l-10 18l94 68q52 37 87 37q20 0 31 -11t11 -30q0 -21 -13 -47l-133 -277q-14 -28 -14 -50q0 -34 37 -34q42 0 93.5 47t102.5 128.5t93 183.5l32 77h104l-177 -421l100 42l11 -18l-96 -68q-49 -36 -84 -36q-19 0 -29.5 11t-10.5 30q0 23 11 46
l47 113q-54 -87 -121.5 -145t-132.5 -58q-27 0 -46 16t-23 46l-37 -252h-137z" />
    <glyph glyph-name="paragraph" unicode="&#xb6;" horiz-adv-x="572" 
d="M127 -200l168 548h-24q-39 0 -75 18t-58.5 51t-22.5 77q0 59 28.5 105.5t85.5 73.5t139 27h88l-276 -900h-53zM327 -200h-53l276 900h132l-4 -14l-91 -39z" />
    <glyph glyph-name="periodcentered" unicode="&#xb7;" horiz-adv-x="268" 
d="M112 296.5q-22 21.5 -22 53.5t22 54t54 22t53.5 -22t21.5 -54t-21.5 -53.5t-53.5 -21.5t-54 21.5z" />
    <glyph glyph-name="cedilla" unicode="&#xb8;" horiz-adv-x="173" 
d="M-9 -43q30 -2 48.5 -22t18.5 -48q0 -44 -28.5 -71.5t-85.5 -27.5q-24 0 -44.5 6.5t-32.5 16.5l9 29q24 -12 57 -12q29 0 45 14t16 37q0 16 -10 26t-29 10q-15 0 -30 -6l-6 8l5 13l96 87h20l-6 -17z" />
    <glyph glyph-name="uni00B9" unicode="&#xb9;" horiz-adv-x="174" 
d="M261 703l-99 -322l33 -27l-2 -5h-149l1 5l49 27l80 260l-34 20l1 7l116 40z" />
    <glyph glyph-name="ordmasculine" unicode="&#xba;" horiz-adv-x="341" 
d="M139 407q-30 33 -30 89q0 50 24 99t68.5 80t102.5 31q46 0 76.5 -33t30.5 -89q0 -50 -24 -99t-68.5 -80t-102.5 -31q-47 0 -77 33zM275.5 432.5q28.5 37.5 47 92.5t18.5 102q0 28 -10 43t-29 15q-30 0 -58.5 -37.5t-47 -92.5t-18.5 -102q0 -28 10.5 -43t29.5 -15
q29 0 57.5 37.5z" />
    <glyph glyph-name="guillemotright" unicode="&#xbb;" horiz-adv-x="429" 
d="M28 106h-39l137 196l-21 184h33l93 -192l-4 -10zM209 106h-39l137 196l-21 184h33l93 -192l-4 -10z" />
    <glyph glyph-name="onequarter" unicode="&#xbc;" horiz-adv-x="605" 
d="M261 703l-99 -322l33 -27l-2 -5h-149l1 5l49 27l80 260l-34 20l1 7l116 40zM58 0h-48l576 700h49zM512 0h-147l1 5l48 27l20 62h-148l5 19l252 237h36l-66 -219h40l-12 -37h-40l-20 -62l33 -27zM490 275l-149 -144h104z" />
    <glyph glyph-name="onehalf" unicode="&#xbd;" horiz-adv-x="637" 
d="M261 703l-99 -322l33 -27l-2 -5h-149l1 5l49 27l80 260l-34 20l1 7l116 40zM58 0h-48l576 700h49zM523 47l45 46h6l-29 -93h-210l2 5l150 140q29 27 42.5 53t13.5 55q0 24 -14 39t-40 15q-46 0 -74 -55l-10 3q10 47 39.5 74.5t76.5 27.5q45 0 70 -24.5t25 -66.5
q0 -41 -24 -71t-70 -65l-115 -83h116z" />
    <glyph glyph-name="threequarters" unicode="&#xbe;" horiz-adv-x="668" 
d="M96.5 362.5q-27.5 18.5 -27.5 42.5q0 19 11 30.5t30 11.5q16 0 25.5 -9.5t9.5 -22.5q0 -25 -23 -39q13 -15 43 -15q36 0 58 26.5t22 68.5q0 33 -20 55t-51 34l119 108h-114l-46 -42h-6l27 89h199l-8 -27l-102 -93q29 -10 52 -38t23 -64q0 -61 -40 -97.5t-111 -36.5
q-43 0 -70.5 18.5zM121 0h-48l576 700h49zM575 0h-147l1 5l48 27l20 62h-148l5 19l252 237h36l-66 -219h40l-12 -37h-40l-20 -62l33 -27zM553 275l-149 -144h104z" />
    <glyph glyph-name="questiondown" unicode="&#xbf;" horiz-adv-x="429" 
d="M359 484.5q22 -21.5 22 -53.5t-22 -54t-54 -22t-53.5 22t-21.5 54t21.5 53.5t53.5 21.5t54 -21.5zM282 235q-8 -73 -41 -112.5t-106 -58.5q-69 -19 -100.5 -43t-31.5 -58q0 -43 44.5 -65t108.5 -22q34 0 68 7t60 19q-9 -59 -44 -88t-99 -29q-52 0 -93 20.5t-64.5 57
t-23.5 82.5q0 72 45 118.5t142 84.5q46 18 66 40t38 65l12 30h25z" />
    <glyph glyph-name="Agrave" unicode="&#xc0;" horiz-adv-x="676" 
d="M577 700l-44 -652l62 -34l-4 -14h-250l4 14l82 33l12 145h-258l-113 -147l58 -31l-4 -14h-188l4 14l84 34l504 652h51zM470 570l-263 -344h235zM585 786h-27l-113 149l3 10h110l30 -149z" />
    <glyph glyph-name="Aacute" unicode="&#xc1;" horiz-adv-x="676" 
d="M577 700l-44 -652l62 -34l-4 -14h-250l4 14l82 33l12 145h-258l-113 -147l58 -31l-4 -14h-188l4 14l84 34l504 652h51zM470 570l-263 -344h235zM566 786h-32l3 10l96 149h119l-3 -10z" />
    <glyph glyph-name="Acircumflex" unicode="&#xc2;" horiz-adv-x="676" 
d="M577 700l-44 -652l62 -34l-4 -14h-250l4 14l82 33l12 145h-258l-113 -147l58 -31l-4 -14h-188l4 14l84 34l504 652h51zM470 570l-263 -344h235zM480 786h-30l3 10l130 149h69l47 -149l-3 -10h-27l-65 92z" />
    <glyph glyph-name="Atilde" unicode="&#xc3;" horiz-adv-x="676" 
d="M577 700l-44 -652l62 -34l-4 -14h-250l4 14l82 33l12 145h-258l-113 -147l58 -31l-4 -14h-188l4 14l84 34l504 652h51zM470 570l-263 -344h235zM619.5 813q-16.5 7 -37.5 20q-19 12 -33.5 18.5t-30.5 6.5q-20 0 -36.5 -12t-32.5 -35l-18 9q21 55 45.5 81t62.5 26
q20 0 36 -7t38 -21q19 -13 33 -19t30 -6q20 0 36.5 12t32.5 36l18 -9q-21 -55 -45 -81t-63 -26q-19 0 -35.5 7z" />
    <glyph glyph-name="Adieresis" unicode="&#xc4;" horiz-adv-x="676" 
d="M577 700l-44 -652l62 -34l-4 -14h-250l4 14l82 33l12 145h-258l-113 -147l58 -31l-4 -14h-188l4 14l84 34l504 652h51zM470 570l-263 -344h235zM457 826q-19 19 -19 46t19 46t46 19t46 -19t19 -46t-19 -46t-46 -19t-46 19zM648 826q-19 19 -19 46t19 46t47 19
q27 0 46 -19t19 -46t-19 -46t-46 -19q-28 0 -47 19z" />
    <glyph glyph-name="Aring" unicode="&#xc5;" horiz-adv-x="676" 
d="M577 700l-44 -652l62 -34l-4 -14h-250l4 14l82 33l12 145h-258l-113 -147l58 -31l-4 -14h-188l4 14l84 34l504 652h51zM470 570l-263 -344h235zM519.5 790.5q-23.5 21.5 -23.5 55.5q0 46 33 80t87 34q34 0 57.5 -21.5t23.5 -56.5q0 -46 -32.5 -79.5t-87.5 -33.5
q-34 0 -57.5 21.5zM632.5 819.5q20.5 28.5 20.5 66.5q0 22 -11.5 36.5t-29.5 14.5q-31 0 -51 -28.5t-20 -65.5q0 -23 11 -37.5t29 -14.5q31 0 51.5 28.5z" />
    <glyph glyph-name="AE" unicode="&#xc6;" horiz-adv-x="964" 
d="M1050 700l-52 -169h-14l-23 135h-255l-87 -282h168l76 90h13l-66 -214h-13l-20 90h-168l-97 -316h270l123 173h14l-64 -207h-541l4 14l91 39l43 139h-258l-125 -147l58 -31l-4 -14h-189l4 14l84 34l527 614l-71 24l4 14h568zM582 647l-359 -421h239l129 421h-9z" />
    <glyph glyph-name="Ccedilla" unicode="&#xc7;" horiz-adv-x="660" 
d="M654 698q53 -14 90 -36l-49 -159h-14l-3 98q-35 77 -142 77q-100 0 -181 -58.5t-126.5 -156t-45.5 -208.5q0 -106 47.5 -169.5t127.5 -63.5q52 0 89.5 18t79.5 60l62 97h14l-49 -161q-40 -23 -89.5 -35.5t-117.5 -12.5h-1l-31 -31q30 -2 48.5 -22t18.5 -48
q0 -44 -28.5 -71.5t-85.5 -27.5q-24 0 -44.5 6.5t-32.5 16.5l9 29q24 -12 57 -12q29 0 45 14t16 37q0 16 -10 26t-29 10q-15 0 -30 -6l-6 8l5 13l66 60q-70 7 -124.5 43.5t-85.5 97t-31 136.5q0 121 57 223t162.5 162t246.5 60q62 0 115 -14z" />
    <glyph glyph-name="Egrave" unicode="&#xc8;" horiz-adv-x="603" 
d="M689 700l-52 -169h-14l-23 135h-255l-87 -282h168l76 90h13l-66 -214h-13l-20 90h-168l-97 -316h270l123 173h14l-64 -207h-541l4 14l91 39l182 594l-67 39l4 14h522zM475 786h-27l-113 149l3 10h110l30 -149z" />
    <glyph glyph-name="Eacute" unicode="&#xc9;" horiz-adv-x="603" 
d="M689 700l-52 -169h-14l-23 135h-255l-87 -282h168l76 90h13l-66 -214h-13l-20 90h-168l-97 -316h270l123 173h14l-64 -207h-541l4 14l91 39l182 594l-67 39l4 14h522zM456 786h-32l3 10l96 149h119l-3 -10z" />
    <glyph glyph-name="Ecircumflex" unicode="&#xca;" horiz-adv-x="603" 
d="M689 700l-52 -169h-14l-23 135h-255l-87 -282h168l76 90h13l-66 -214h-13l-20 90h-168l-97 -316h270l123 173h14l-64 -207h-541l4 14l91 39l182 594l-67 39l4 14h522zM370 786h-30l3 10l130 149h69l47 -149l-3 -10h-27l-65 92z" />
    <glyph glyph-name="Edieresis" unicode="&#xcb;" horiz-adv-x="603" 
d="M689 700l-52 -169h-14l-23 135h-255l-87 -282h168l76 90h13l-66 -214h-13l-20 90h-168l-97 -316h270l123 173h14l-64 -207h-541l4 14l91 39l182 594l-67 39l4 14h522zM348 826q-19 19 -19 46t19 46t46 19t46 -19t19 -46t-19 -46t-46 -19t-46 19zM539 826q-19 19 -19 46
t19 46t47 19q27 0 46 -19t19 -46t-19 -46t-46 -19q-28 0 -47 19z" />
    <glyph glyph-name="Igrave" unicode="&#xcc;" horiz-adv-x="324" 
d="M434 700l-4 -14l-91 -39l-182 -594l67 -39l-4 -14h-267l4 14l91 39l182 594l-67 39l4 14h267zM340 786h-27l-113 149l3 10h110l30 -149z" />
    <glyph glyph-name="Iacute" unicode="&#xcd;" horiz-adv-x="324" 
d="M434 700l-4 -14l-91 -39l-182 -594l67 -39l-4 -14h-267l4 14l91 39l182 594l-67 39l4 14h267zM321 786h-32l3 10l96 149h119l-3 -10z" />
    <glyph glyph-name="Icircumflex" unicode="&#xce;" horiz-adv-x="324" 
d="M434 700l-4 -14l-91 -39l-182 -594l67 -39l-4 -14h-267l4 14l91 39l182 594l-67 39l4 14h267zM235 786h-30l3 10l130 149h69l47 -149l-3 -10h-27l-65 92z" />
    <glyph glyph-name="Idieresis" unicode="&#xcf;" horiz-adv-x="324" 
d="M434 700l-4 -14l-91 -39l-182 -594l67 -39l-4 -14h-267l4 14l91 39l182 594l-67 39l4 14h267zM213 826q-19 19 -19 46t19 46t46 19t46 -19t19 -46t-19 -46t-46 -19t-46 19zM404 826q-19 19 -19 46t19 46t47 19q27 0 46 -19t19 -46t-19 -46t-46 -19q-28 0 -47 19z" />
    <glyph glyph-name="Eth" unicode="&#xd0;" horiz-adv-x="715" 
d="M620 622.5q80 -77.5 80 -215.5q0 -113 -54 -205.5t-161 -147t-260 -54.5h-272l4 14l91 39l86 280h-79l10 34h79l86 280l-67 39l4 14h230q143 0 223 -77.5zM212 34q125 0 210 52.5t126.5 139t41.5 187.5q0 117 -54.5 185t-154.5 68h-36l-92 -299h145l-10 -34h-145
l-92 -299h61z" />
    <glyph glyph-name="Ntilde" unicode="&#xd1;" horiz-adv-x="719" 
d="M829 700l-4 -14l-91 -39l-198 -647h-42l-245 572l-159 -520l67 -38l-4 -14h-200l4 14l91 39l177 577l-24 60l3 10h121l220 -534l149 481h-1l-68 39l4 14h200zM561.5 813q-16.5 7 -37.5 20q-19 12 -33.5 18.5t-30.5 6.5q-20 0 -36.5 -12t-32.5 -35l-18 9q21 55 45.5 81
t62.5 26q20 0 36 -7t38 -21q19 -13 33 -19t30 -6q20 0 36.5 12t32.5 36l18 -9q-21 -55 -45 -81t-63 -26q-19 0 -35.5 7z" />
    <glyph glyph-name="Ograve" unicode="&#xd2;" horiz-adv-x="796" 
d="M223.5 27q-67.5 39 -105.5 109.5t-38 161.5q0 108 51.5 203t143.5 153t207 58q86 0 154 -39t106 -109.5t38 -161.5q0 -108 -51.5 -203t-143.5 -153t-207 -58q-87 0 -154.5 39zM530 77.5q67 53.5 105 145.5t38 203q0 74 -24 131t-68 88t-101 31q-84 0 -151 -53.5
t-105 -145t-38 -203.5q0 -74 24.5 -131t68.5 -88t101 -31q83 0 150 53.5zM534 786h-27l-113 149l3 10h110l30 -149z" />
    <glyph glyph-name="Oacute" unicode="&#xd3;" horiz-adv-x="796" 
d="M223.5 27q-67.5 39 -105.5 109.5t-38 161.5q0 108 51.5 203t143.5 153t207 58q86 0 154 -39t106 -109.5t38 -161.5q0 -108 -51.5 -203t-143.5 -153t-207 -58q-87 0 -154.5 39zM530 77.5q67 53.5 105 145.5t38 203q0 74 -24 131t-68 88t-101 31q-84 0 -151 -53.5
t-105 -145t-38 -203.5q0 -74 24.5 -131t68.5 -88t101 -31q83 0 150 53.5zM515 786h-32l3 10l96 149h119l-3 -10z" />
    <glyph glyph-name="Ocircumflex" unicode="&#xd4;" horiz-adv-x="796" 
d="M223.5 27q-67.5 39 -105.5 109.5t-38 161.5q0 108 51.5 203t143.5 153t207 58q86 0 154 -39t106 -109.5t38 -161.5q0 -108 -51.5 -203t-143.5 -153t-207 -58q-87 0 -154.5 39zM530 77.5q67 53.5 105 145.5t38 203q0 74 -24 131t-68 88t-101 31q-84 0 -151 -53.5
t-105 -145t-38 -203.5q0 -74 24.5 -131t68.5 -88t101 -31q83 0 150 53.5zM429 786h-30l3 10l130 149h69l47 -149l-3 -10h-27l-65 92z" />
    <glyph glyph-name="Otilde" unicode="&#xd5;" horiz-adv-x="796" 
d="M223.5 27q-67.5 39 -105.5 109.5t-38 161.5q0 108 51.5 203t143.5 153t207 58q86 0 154 -39t106 -109.5t38 -161.5q0 -108 -51.5 -203t-143.5 -153t-207 -58q-87 0 -154.5 39zM530 77.5q67 53.5 105 145.5t38 203q0 74 -24 131t-68 88t-101 31q-84 0 -151 -53.5
t-105 -145t-38 -203.5q0 -74 24.5 -131t68.5 -88t101 -31q83 0 150 53.5zM569.5 813q-16.5 7 -37.5 20q-19 12 -33.5 18.5t-30.5 6.5q-20 0 -36.5 -12t-32.5 -35l-18 9q21 55 45.5 81t62.5 26q20 0 36 -7t38 -21q19 -13 33 -19t30 -6q20 0 36.5 12t32.5 36l18 -9
q-21 -55 -45 -81t-63 -26q-19 0 -35.5 7z" />
    <glyph glyph-name="Odieresis" unicode="&#xd6;" horiz-adv-x="796" 
d="M223.5 27q-67.5 39 -105.5 109.5t-38 161.5q0 108 51.5 203t143.5 153t207 58q86 0 154 -39t106 -109.5t38 -161.5q0 -108 -51.5 -203t-143.5 -153t-207 -58q-87 0 -154.5 39zM530 77.5q67 53.5 105 145.5t38 203q0 74 -24 131t-68 88t-101 31q-84 0 -151 -53.5
t-105 -145t-38 -203.5q0 -74 24.5 -131t68.5 -88t101 -31q83 0 150 53.5zM407 826q-19 19 -19 46t19 46t46 19t46 -19t19 -46t-19 -46t-46 -19t-46 19zM598 826q-19 19 -19 46t19 46t47 19q27 0 46 -19t19 -46t-19 -46t-46 -19q-28 0 -47 19z" />
    <glyph glyph-name="multiply" unicode="&#xd7;" horiz-adv-x="484" 
d="M288 335l156 10v-39l-166 -11l-38 -159l-39 -1l37 157l-157 -10v40l167 11l38 159h40z" />
    <glyph glyph-name="Oslash" unicode="&#xd8;" horiz-adv-x="796" 
d="M672 649q51 -42 79.5 -105.5t28.5 -141.5q0 -108 -51.5 -203t-143.5 -153t-207 -58q-88 0 -156 40l-79 -108h-51l96 132q-52 41 -80 104.5t-28 141.5q0 108 51.5 203t143.5 153t207 58q87 0 156 -40l78 108h51zM229 108l375 517q-51 51 -124 51q-84 0 -151 -53.5
t-105 -145t-38 -203.5q0 -100 43 -166zM530 77.5q67 53.5 105 145.5t38 203q0 100 -43 166l-375 -517q51 -51 125 -51q83 0 150 53.5z" />
    <glyph glyph-name="Ugrave" unicode="&#xd9;" horiz-adv-x="712" 
d="M209.5 12.5q-50.5 24.5 -79 70t-28.5 107.5q0 43 15 92l111 365l-66 39l4 14h268l-5 -14l-91 -39l-122 -400q-11 -38 -11 -69q0 -64 38.5 -103.5t103.5 -39.5q80 0 131.5 47.5t81.5 147.5l127 417l-67 39l5 14h197l-4 -14l-92 -39l-132 -432q-33 -109 -94 -168t-176 -59
q-64 0 -114.5 24.5zM557 786h-27l-113 149l3 10h110l30 -149z" />
    <glyph glyph-name="Uacute" unicode="&#xda;" horiz-adv-x="712" 
d="M209.5 12.5q-50.5 24.5 -79 70t-28.5 107.5q0 43 15 92l111 365l-66 39l4 14h268l-5 -14l-91 -39l-122 -400q-11 -38 -11 -69q0 -64 38.5 -103.5t103.5 -39.5q80 0 131.5 47.5t81.5 147.5l127 417l-67 39l5 14h197l-4 -14l-92 -39l-132 -432q-33 -109 -94 -168t-176 -59
q-64 0 -114.5 24.5zM538 786h-32l3 10l96 149h119l-3 -10z" />
    <glyph glyph-name="Ucircumflex" unicode="&#xdb;" horiz-adv-x="712" 
d="M209.5 12.5q-50.5 24.5 -79 70t-28.5 107.5q0 43 15 92l111 365l-66 39l4 14h268l-5 -14l-91 -39l-122 -400q-11 -38 -11 -69q0 -64 38.5 -103.5t103.5 -39.5q80 0 131.5 47.5t81.5 147.5l127 417l-67 39l5 14h197l-4 -14l-92 -39l-132 -432q-33 -109 -94 -168t-176 -59
q-64 0 -114.5 24.5zM452 786h-30l3 10l130 149h69l47 -149l-3 -10h-27l-65 92z" />
    <glyph glyph-name="Udieresis" unicode="&#xdc;" horiz-adv-x="712" 
d="M209.5 12.5q-50.5 24.5 -79 70t-28.5 107.5q0 43 15 92l111 365l-66 39l4 14h268l-5 -14l-91 -39l-122 -400q-11 -38 -11 -69q0 -64 38.5 -103.5t103.5 -39.5q80 0 131.5 47.5t81.5 147.5l127 417l-67 39l5 14h197l-4 -14l-92 -39l-132 -432q-33 -109 -94 -168t-176 -59
q-64 0 -114.5 24.5zM430 826q-19 19 -19 46t19 46t46 19t46 -19t19 -46t-19 -46t-46 -19t-46 19zM621 826q-19 19 -19 46t19 46t47 19q27 0 46 -19t19 -46t-19 -46t-46 -19q-28 0 -47 19z" />
    <glyph glyph-name="Yacute" unicode="&#xdd;" horiz-adv-x="633" 
d="M759 700l-4 -14l-83 -33l-269 -336l-80 -264l72 -39l-4 -14h-277l4 14l96 39l76 248l-80 353l-65 32l4 14h250l-4 -14l-68 -31l64 -300l239 297l-49 34l4 14h174zM508 786h-32l3 10l96 149h119l-3 -10z" />
    <glyph glyph-name="Thorn" unicode="&#xde;" horiz-adv-x="625" 
d="M-47 0l4 14l91 39l182 594l-67 39l4 14h267l-4 -14l-91 -39l-33 -107h94q106 0 165.5 -45t59.5 -120q0 -103 -84.5 -159t-238.5 -56h-112l-33 -107l67 -39l-4 -14h-267zM298 194q111 0 166.5 50t55.5 136q0 60 -33.5 93t-96.5 33h-94l-96 -312h98z" />
    <glyph glyph-name="germandbls" unicode="&#xdf;" horiz-adv-x="612" 
d="M-195.5 -195.5q-21.5 16.5 -21.5 42.5q0 24 16.5 39t37.5 15q29 0 45 -21.5t14 -54.5q44 10 85 79.5t89 230.5l94 315q26 86 78.5 145t119.5 88t139 29q58 0 89 -21.5t31 -61.5q0 -45 -35.5 -81t-99.5 -81q-38 -27 -56 -43t-18 -29q0 -9 9 -21.5t30 -33.5
q41 -44 63.5 -80t22.5 -83q0 -51 -28 -94.5t-77 -69t-110 -25.5q-51 0 -85 23t-34 58q0 27 15.5 43t39.5 16t38.5 -14t14.5 -36q0 -16 -10 -30t-25 -22q6 -6 18.5 -10t27.5 -4q49 0 84 35.5t35 92.5q0 31 -15 58t-45 65q-26 33 -38.5 54.5t-12.5 44.5q0 30 21.5 53.5
t67.5 58.5q37 28 58 48t36.5 46.5t15.5 58.5q0 23 -14.5 36t-39.5 13q-59 0 -112 -53t-90 -158l-112 -326q-66 -190 -137 -270.5t-164 -80.5q-34 0 -55.5 16.5z" />
    <glyph glyph-name="agrave" unicode="&#xe0;" horiz-adv-x="578" 
d="M47 26.5q-33 38.5 -33 99.5q0 87 47 175.5t127 146.5t174 58q61 0 90 -40l11 28h102l-170 -428l102 45l11 -17l-95 -69q-46 -34 -81 -34q-20 0 -31 11.5t-11 32.5q0 15 8 39l13 34q-41 -56 -81 -88t-98 -32q-52 0 -85 38.5zM293 126.5q56 69.5 102 192.5l23 62q6 18 6 34
q0 26 -16 42t-46 16q-60 0 -117.5 -51.5t-93.5 -129.5t-36 -152q0 -39 17 -61t48 -22q57 0 113 69.5zM402 580h-27l-113 149l3 10h110l30 -149z" />
    <glyph glyph-name="aacute" unicode="&#xe1;" horiz-adv-x="578" 
d="M47 26.5q-33 38.5 -33 99.5q0 87 47 175.5t127 146.5t174 58q61 0 90 -40l11 28h102l-170 -428l102 45l11 -17l-95 -69q-46 -34 -81 -34q-20 0 -31 11.5t-11 32.5q0 15 8 39l13 34q-41 -56 -81 -88t-98 -32q-52 0 -85 38.5zM293 126.5q56 69.5 102 192.5l23 62q6 18 6 34
q0 26 -16 42t-46 16q-60 0 -117.5 -51.5t-93.5 -129.5t-36 -152q0 -39 17 -61t48 -22q57 0 113 69.5zM383 580h-32l3 10l96 149h119l-3 -10z" />
    <glyph glyph-name="acircumflex" unicode="&#xe2;" horiz-adv-x="578" 
d="M47 26.5q-33 38.5 -33 99.5q0 87 47 175.5t127 146.5t174 58q61 0 90 -40l11 28h102l-170 -428l102 45l11 -17l-95 -69q-46 -34 -81 -34q-20 0 -31 11.5t-11 32.5q0 15 8 39l13 34q-41 -56 -81 -88t-98 -32q-52 0 -85 38.5zM293 126.5q56 69.5 102 192.5l23 62q6 18 6 34
q0 26 -16 42t-46 16q-60 0 -117.5 -51.5t-93.5 -129.5t-36 -152q0 -39 17 -61t48 -22q57 0 113 69.5zM297 580h-30l3 10l130 149h69l47 -149l-3 -10h-27l-65 92z" />
    <glyph glyph-name="atilde" unicode="&#xe3;" horiz-adv-x="578" 
d="M47 26.5q-33 38.5 -33 99.5q0 87 47 175.5t127 146.5t174 58q61 0 90 -40l11 28h102l-170 -428l102 45l11 -17l-95 -69q-46 -34 -81 -34q-20 0 -31 11.5t-11 32.5q0 15 8 39l13 34q-41 -56 -81 -88t-98 -32q-52 0 -85 38.5zM293 126.5q56 69.5 102 192.5l23 62q6 18 6 34
q0 26 -16 42t-46 16q-60 0 -117.5 -51.5t-93.5 -129.5t-36 -152q0 -39 17 -61t48 -22q57 0 113 69.5zM437.5 607q-16.5 7 -37.5 20q-19 12 -33.5 18.5t-30.5 6.5q-20 0 -36.5 -12t-32.5 -35l-18 9q21 55 45.5 81t62.5 26q20 0 36 -7t38 -21q19 -13 33 -19t30 -6
q20 0 36.5 12t32.5 36l18 -9q-21 -55 -45 -81t-63 -26q-19 0 -35.5 7z" />
    <glyph glyph-name="adieresis" unicode="&#xe4;" horiz-adv-x="578" 
d="M47 26.5q-33 38.5 -33 99.5q0 87 47 175.5t127 146.5t174 58q61 0 90 -40l11 28h102l-170 -428l102 45l11 -17l-95 -69q-46 -34 -81 -34q-20 0 -31 11.5t-11 32.5q0 15 8 39l13 34q-41 -56 -81 -88t-98 -32q-52 0 -85 38.5zM293 126.5q56 69.5 102 192.5l23 62q6 18 6 34
q0 26 -16 42t-46 16q-60 0 -117.5 -51.5t-93.5 -129.5t-36 -152q0 -39 17 -61t48 -22q57 0 113 69.5zM275 620q-19 19 -19 46t19 46t46 19t46 -19t19 -46t-19 -46t-46 -19t-46 19zM466 620q-19 19 -19 46t19 46t47 19q27 0 46 -19t19 -46t-19 -46t-46 -19q-28 0 -47 19z" />
    <glyph glyph-name="aring" unicode="&#xe5;" horiz-adv-x="578" 
d="M47 26.5q-33 38.5 -33 99.5q0 87 47 175.5t127 146.5t174 58q61 0 90 -40l11 28h102l-170 -428l102 45l11 -17l-95 -69q-46 -34 -81 -34q-20 0 -31 11.5t-11 32.5q0 15 8 39l13 34q-41 -56 -81 -88t-98 -32q-52 0 -85 38.5zM293 126.5q56 69.5 102 192.5l23 62q6 18 6 34
q0 26 -16 42t-46 16q-60 0 -117.5 -51.5t-93.5 -129.5t-36 -152q0 -39 17 -61t48 -22q57 0 113 69.5zM337.5 584.5q-23.5 21.5 -23.5 55.5q0 46 33 80t87 34q34 0 57.5 -21.5t23.5 -56.5q0 -46 -32.5 -79.5t-87.5 -33.5q-34 0 -57.5 21.5zM450.5 613.5q20.5 28.5 20.5 66.5
q0 22 -11.5 36.5t-29.5 14.5q-31 0 -51 -28.5t-20 -65.5q0 -23 11 -37.5t29 -14.5q31 0 51.5 28.5z" />
    <glyph glyph-name="ae" unicode="&#xe6;" horiz-adv-x="770" 
d="M689 305q-84 -49 -240 -66q-4 -20 -4 -45q0 -59 28 -93t73 -34q42 0 75 21.5t67 70.5l22 -13q-35 -73 -85.5 -115.5t-117.5 -42.5q-40 0 -76 22.5t-59 62.5t-24 90q-34 -74 -89.5 -124.5t-121.5 -50.5q-55 0 -89 38t-34 100q0 87 46 175.5t124 146.5t169 58q89 0 148 -51
q69 51 157 51q54 0 84.5 -23t30.5 -63q0 -66 -84 -115zM444 401q-13 34 -36.5 53t-54.5 19q-57 0 -112.5 -51.5t-90.5 -129.5t-35 -152q0 -39 17.5 -61t48.5 -22q49 0 93.5 54t92.5 163q33 76 77 127zM570 442.5q-39 -27.5 -69 -73.5t-45 -98q108 17 173 59t65 97
q0 20 -12.5 31.5t-33.5 11.5q-39 0 -78 -27.5z" />
    <glyph glyph-name="ccedilla" unicode="&#xe7;" horiz-adv-x="468" 
d="M360.5 376.5q-15.5 15.5 -15.5 36.5q0 15 6 28.5t16 23.5q-13 4 -35 4q-54 0 -101 -35.5t-75.5 -96.5t-28.5 -133q0 -62 30.5 -99.5t82.5 -37.5q85 0 146 92l21 -12q-68 -159 -202 -159h-5l-31 -31q30 -2 48.5 -22t18.5 -48q0 -44 -28.5 -71.5t-85.5 -27.5
q-24 0 -44.5 6.5t-32.5 16.5l9 29q24 -12 57 -12q29 0 45 14t16 37q0 16 -10 26t-29 10q-15 0 -30 -6l-6 8l5 13l68 61q-63 12 -101 63.5t-38 128.5q0 87 42.5 161.5t112.5 118t149 43.5q55 0 87.5 -22.5t32.5 -59.5q0 -29 -15.5 -46t-40.5 -17q-23 0 -38.5 15.5z" />
    <glyph glyph-name="egrave" unicode="&#xe8;" horiz-adv-x="447" 
d="M365 305q-84 -49 -240 -67q-4 -19 -4 -44q0 -59 28 -93t73 -34q42 0 75.5 21.5t67.5 70.5l21 -13q-76 -158 -202 -158q-71 0 -115.5 49.5t-44.5 128.5q0 77 42 156.5t113.5 131.5t155.5 52q53 0 83.5 -23t30.5 -63q0 -66 -84 -115zM246.5 442.5q-38.5 -27.5 -69 -73.5
t-45.5 -98q109 16 173.5 58.5t64.5 97.5q0 20 -12.5 31.5t-33.5 11.5q-39 0 -77.5 -27.5zM372 580h-27l-113 149l3 10h110l30 -149z" />
    <glyph glyph-name="eacute" unicode="&#xe9;" horiz-adv-x="447" 
d="M365 305q-84 -49 -240 -67q-4 -19 -4 -44q0 -59 28 -93t73 -34q42 0 75.5 21.5t67.5 70.5l21 -13q-76 -158 -202 -158q-71 0 -115.5 49.5t-44.5 128.5q0 77 42 156.5t113.5 131.5t155.5 52q53 0 83.5 -23t30.5 -63q0 -66 -84 -115zM246.5 442.5q-38.5 -27.5 -69 -73.5
t-45.5 -98q109 16 173.5 58.5t64.5 97.5q0 20 -12.5 31.5t-33.5 11.5q-39 0 -77.5 -27.5zM353 580h-32l3 10l96 149h119l-3 -10z" />
    <glyph glyph-name="ecircumflex" unicode="&#xea;" horiz-adv-x="447" 
d="M365 305q-84 -49 -240 -67q-4 -19 -4 -44q0 -59 28 -93t73 -34q42 0 75.5 21.5t67.5 70.5l21 -13q-76 -158 -202 -158q-71 0 -115.5 49.5t-44.5 128.5q0 77 42 156.5t113.5 131.5t155.5 52q53 0 83.5 -23t30.5 -63q0 -66 -84 -115zM246.5 442.5q-38.5 -27.5 -69 -73.5
t-45.5 -98q109 16 173.5 58.5t64.5 97.5q0 20 -12.5 31.5t-33.5 11.5q-39 0 -77.5 -27.5zM267 580h-30l3 10l130 149h69l47 -149l-3 -10h-27l-65 92z" />
    <glyph glyph-name="edieresis" unicode="&#xeb;" horiz-adv-x="447" 
d="M365 305q-84 -49 -240 -67q-4 -19 -4 -44q0 -59 28 -93t73 -34q42 0 75.5 21.5t67.5 70.5l21 -13q-76 -158 -202 -158q-71 0 -115.5 49.5t-44.5 128.5q0 77 42 156.5t113.5 131.5t155.5 52q53 0 83.5 -23t30.5 -63q0 -66 -84 -115zM246.5 442.5q-38.5 -27.5 -69 -73.5
t-45.5 -98q109 16 173.5 58.5t64.5 97.5q0 20 -12.5 31.5t-33.5 11.5q-39 0 -77.5 -27.5zM244 620q-19 19 -19 46t19 46t46 19t46 -19t19 -46t-19 -46t-46 -19t-46 19zM435 620q-19 19 -19 46t19 46t47 19q27 0 46 -19t19 -46t-19 -46t-46 -19q-28 0 -47 19z" />
    <glyph glyph-name="igrave" unicode="&#xec;" horiz-adv-x="309" 
d="M144 25q-50 -35 -86 -35q-19 0 -29.5 11t-10.5 30q0 22 11 45l152 348l-101 -42l-10 17l95 69q50 35 85 35q19 0 30 -11t11 -30t-12 -45l-151 -348l101 42l10 -17zM296 580h-27l-113 149l3 10h110l30 -149z" />
    <glyph glyph-name="iacute" unicode="&#xed;" horiz-adv-x="309" 
d="M144 25q-50 -35 -86 -35q-19 0 -29.5 11t-10.5 30q0 22 11 45l152 348l-101 -42l-10 17l95 69q50 35 85 35q19 0 30 -11t11 -30t-12 -45l-151 -348l101 42l10 -17zM277 580h-32l3 10l96 149h119l-3 -10z" />
    <glyph glyph-name="icircumflex" unicode="&#xee;" horiz-adv-x="309" 
d="M144 25q-50 -35 -86 -35q-19 0 -29.5 11t-10.5 30q0 22 11 45l152 348l-101 -42l-10 17l95 69q50 35 85 35q19 0 30 -11t11 -30t-12 -45l-151 -348l101 42l10 -17zM191 580h-30l3 10l130 149h69l47 -149l-3 -10h-27l-65 92z" />
    <glyph glyph-name="idieresis" unicode="&#xef;" horiz-adv-x="309" 
d="M144 25q-50 -35 -86 -35q-19 0 -29.5 11t-10.5 30q0 22 11 45l152 348l-101 -42l-10 17l95 69q50 35 85 35q19 0 30 -11t11 -30t-12 -45l-151 -348l101 42l10 -17zM169 620q-19 19 -19 46t19 46t46 19t46 -19t19 -46t-19 -46t-46 -19t-46 19zM360 620q-19 19 -19 46
t19 46t47 19q27 0 46 -19t19 -46t-19 -46t-46 -19q-28 0 -47 19z" />
    <glyph glyph-name="eth" unicode="&#xf0;" horiz-adv-x="522" 
d="M534 681l-120 -70q43 -51 65 -114.5t22 -132.5q0 -93 -37.5 -179.5t-106.5 -141.5t-160 -55q-49 0 -88.5 22.5t-62 63t-22.5 91.5q0 76 36 142t97 105.5t131 39.5q63 0 111 -41q-8 93 -42 166l-117 -68l-16 26l118 69q-29 51 -73 87l15 21q61 -29 110 -78l125 73z
M305 68.5q45 48.5 71 126t26 157.5v11q-39 49 -102 49q-48 0 -89 -34.5t-65 -95t-24 -133.5q0 -57 22.5 -93t61.5 -36q54 0 99 48.5z" />
    <glyph glyph-name="ntilde" unicode="&#xf1;" 
d="M2 0l179 424l-101 -42l-10 17l95 69q51 35 85 35q19 0 29.5 -10.5t10.5 -29.5t-12 -46l-46 -113q53 87 120.5 144.5t133.5 57.5q39 0 61.5 -21.5t22.5 -61.5q0 -44 -27 -98l-127 -255l103 42l10 -17l-95 -69q-50 -36 -87 -36q-19 0 -30 10.5t-11 29.5q0 21 13 47l133 277
q14 31 14 50q0 17 -10 26t-28 9q-42 0 -93 -47t-102 -129t-93 -184l-34 -79h-104zM454.5 607q-16.5 7 -37.5 20q-19 12 -33.5 18.5t-30.5 6.5q-20 0 -36.5 -12t-32.5 -35l-18 9q21 55 45.5 81t62.5 26q20 0 36 -7t38 -21q19 -13 33 -19t30 -6q20 0 36.5 12t32.5 36l18 -9
q-21 -55 -45 -81t-63 -26q-19 0 -35.5 7z" />
    <glyph glyph-name="ograve" unicode="&#xf2;" horiz-adv-x="523" 
d="M74.5 38q-45.5 50 -45.5 136q0 80 37.5 157t106.5 126t158 49q71 0 116.5 -50t45.5 -136q0 -80 -37.5 -157t-106.5 -126t-158 -49q-71 0 -116.5 50zM290.5 77.5q46.5 57.5 75.5 141.5t29 157q0 48 -17.5 73t-50.5 25q-49 0 -95 -57.5t-75 -141.5t-29 -157q0 -48 17.5 -73
t49.5 -25q49 0 95.5 57.5zM375 580h-27l-113 149l3 10h110l30 -149z" />
    <glyph glyph-name="oacute" unicode="&#xf3;" horiz-adv-x="523" 
d="M74.5 38q-45.5 50 -45.5 136q0 80 37.5 157t106.5 126t158 49q71 0 116.5 -50t45.5 -136q0 -80 -37.5 -157t-106.5 -126t-158 -49q-71 0 -116.5 50zM290.5 77.5q46.5 57.5 75.5 141.5t29 157q0 48 -17.5 73t-50.5 25q-49 0 -95 -57.5t-75 -141.5t-29 -157q0 -48 17.5 -73
t49.5 -25q49 0 95.5 57.5zM356 580h-32l3 10l96 149h119l-3 -10z" />
    <glyph glyph-name="ocircumflex" unicode="&#xf4;" horiz-adv-x="523" 
d="M74.5 38q-45.5 50 -45.5 136q0 80 37.5 157t106.5 126t158 49q71 0 116.5 -50t45.5 -136q0 -80 -37.5 -157t-106.5 -126t-158 -49q-71 0 -116.5 50zM290.5 77.5q46.5 57.5 75.5 141.5t29 157q0 48 -17.5 73t-50.5 25q-49 0 -95 -57.5t-75 -141.5t-29 -157q0 -48 17.5 -73
t49.5 -25q49 0 95.5 57.5zM270 580h-30l3 10l130 149h69l47 -149l-3 -10h-27l-65 92z" />
    <glyph glyph-name="otilde" unicode="&#xf5;" horiz-adv-x="523" 
d="M74.5 38q-45.5 50 -45.5 136q0 80 37.5 157t106.5 126t158 49q71 0 116.5 -50t45.5 -136q0 -80 -37.5 -157t-106.5 -126t-158 -49q-71 0 -116.5 50zM290.5 77.5q46.5 57.5 75.5 141.5t29 157q0 48 -17.5 73t-50.5 25q-49 0 -95 -57.5t-75 -141.5t-29 -157q0 -48 17.5 -73
t49.5 -25q49 0 95.5 57.5zM410.5 607q-16.5 7 -37.5 20q-19 12 -33.5 18.5t-30.5 6.5q-20 0 -36.5 -12t-32.5 -35l-18 9q21 55 45.5 81t62.5 26q20 0 36 -7t38 -21q19 -13 33 -19t30 -6q20 0 36.5 12t32.5 36l18 -9q-21 -55 -45 -81t-63 -26q-19 0 -35.5 7z" />
    <glyph glyph-name="odieresis" unicode="&#xf6;" horiz-adv-x="523" 
d="M74.5 38q-45.5 50 -45.5 136q0 80 37.5 157t106.5 126t158 49q71 0 116.5 -50t45.5 -136q0 -80 -37.5 -157t-106.5 -126t-158 -49q-71 0 -116.5 50zM290.5 77.5q46.5 57.5 75.5 141.5t29 157q0 48 -17.5 73t-50.5 25q-49 0 -95 -57.5t-75 -141.5t-29 -157q0 -48 17.5 -73
t49.5 -25q49 0 95.5 57.5zM248 620q-19 19 -19 46t19 46t46 19t46 -19t19 -46t-19 -46t-46 -19t-46 19zM439 620q-19 19 -19 46t19 46t47 19q27 0 46 -19t19 -46t-19 -46t-46 -19q-28 0 -47 19z" />
    <glyph glyph-name="divide" unicode="&#xf7;" horiz-adv-x="485" 
d="M276.5 456.5q-17.5 17.5 -17.5 44.5q0 26 17.5 43.5t43.5 17.5q27 0 44.5 -17.5t17.5 -43.5q0 -27 -17.5 -44.5t-44.5 -17.5q-26 0 -43.5 17.5zM467 286h-424l15 51h424zM160.5 79q-17.5 18 -17.5 44t17.5 44t43.5 18q27 0 44.5 -18t17.5 -44t-17.5 -44t-44.5 -18
q-26 0 -43.5 18z" />
    <glyph glyph-name="oslash" unicode="&#xf8;" horiz-adv-x="523" 
d="M430 473q30 -25 46.5 -63.5t16.5 -89.5q0 -80 -37.5 -157t-106.5 -126t-158 -49q-37 0 -68 14l-46 -70h-44l59 90q-30 24 -46.5 62.5t-16.5 89.5q0 80 37.5 157t106.5 126t158 49q36 0 69 -14l47 72h43zM131 82l243 371q-16 21 -47 21q-49 0 -95 -57.5t-75 -141.5
t-29 -157q0 -19 3 -36zM290.5 77.5q46.5 57.5 75.5 141.5t29 157q0 21 -3 37l-244 -372q18 -21 47 -21q49 0 95.5 57.5z" />
    <glyph glyph-name="ugrave" unicode="&#xf9;" 
d="M52 11.5q-23 21.5 -23 61.5q0 42 28 99l127 254l-103 -42l-10 18l95 68q52 37 87 37q20 0 30.5 -10.5t10.5 -30.5q0 -21 -13 -47l-133 -277q-14 -31 -14 -50q0 -34 38 -34q42 0 93 47t102.5 129t92.5 183l33 77h104l-178 -421l101 42l10 -18l-95 -68q-49 -36 -85 -36
q-19 0 -29.5 11t-10.5 30q0 23 11 46l47 113q-54 -87 -121 -145t-133 -58q-39 0 -62 21.5zM427 580h-27l-113 149l3 10h110l30 -149z" />
    <glyph glyph-name="uacute" unicode="&#xfa;" 
d="M52 11.5q-23 21.5 -23 61.5q0 42 28 99l127 254l-103 -42l-10 18l95 68q52 37 87 37q20 0 30.5 -10.5t10.5 -30.5q0 -21 -13 -47l-133 -277q-14 -31 -14 -50q0 -34 38 -34q42 0 93 47t102.5 129t92.5 183l33 77h104l-178 -421l101 42l10 -18l-95 -68q-49 -36 -85 -36
q-19 0 -29.5 11t-10.5 30q0 23 11 46l47 113q-54 -87 -121 -145t-133 -58q-39 0 -62 21.5zM408 580h-32l3 10l96 149h119l-3 -10z" />
    <glyph glyph-name="ucircumflex" unicode="&#xfb;" 
d="M52 11.5q-23 21.5 -23 61.5q0 42 28 99l127 254l-103 -42l-10 18l95 68q52 37 87 37q20 0 30.5 -10.5t10.5 -30.5q0 -21 -13 -47l-133 -277q-14 -31 -14 -50q0 -34 38 -34q42 0 93 47t102.5 129t92.5 183l33 77h104l-178 -421l101 42l10 -18l-95 -68q-49 -36 -85 -36
q-19 0 -29.5 11t-10.5 30q0 23 11 46l47 113q-54 -87 -121 -145t-133 -58q-39 0 -62 21.5zM322 580h-30l3 10l130 149h69l47 -149l-3 -10h-27l-65 92z" />
    <glyph glyph-name="udieresis" unicode="&#xfc;" 
d="M52 11.5q-23 21.5 -23 61.5q0 42 28 99l127 254l-103 -42l-10 18l95 68q52 37 87 37q20 0 30.5 -10.5t10.5 -30.5q0 -21 -13 -47l-133 -277q-14 -31 -14 -50q0 -34 38 -34q42 0 93 47t102.5 129t92.5 183l33 77h104l-178 -421l101 42l10 -18l-95 -68q-49 -36 -85 -36
q-19 0 -29.5 11t-10.5 30q0 23 11 46l47 113q-54 -87 -121 -145t-133 -58q-39 0 -62 21.5zM300 620q-19 19 -19 46t19 46t46 19t46 -19t19 -46t-19 -46t-46 -19t-46 19zM491 620q-19 19 -19 46t19 46t47 19q27 0 46 -19t19 -46t-19 -46t-46 -19q-28 0 -47 19z" />
    <glyph glyph-name="yacute" unicode="&#xfd;" horiz-adv-x="500" 
d="M488 487q17 -19 17 -52q0 -22 -7 -46q-40 -145 -125.5 -283.5t-195.5 -226.5t-219 -88q-36 0 -58 20.5t-22 48.5t17.5 46t42.5 18q27 0 44.5 -18.5t17.5 -48.5q0 -14 -3 -27q123 27 242 159h-69l-27 440l-94 -39l-11 16l81 64q40 31 69 31q26 0 41.5 -19t17.5 -57
l22 -400q62 78 109.5 171t71.5 178q-32 4 -50.5 23.5t-18.5 44.5q0 28 17.5 46t45.5 18q27 0 44 -19zM337 580h-32l3 10l96 149h119l-3 -10z" />
    <glyph glyph-name="thorn" unicode="&#xfe;" horiz-adv-x="563" 
d="M440.5 481.5q44.5 -24.5 68 -67.5t23.5 -97q0 -79 -36 -155.5t-103 -125t-156 -48.5q-35 0 -65.5 8t-47.5 20l-67 -169l66 -32l-7 -15h-249l6 15l82 32l232 595q-53 -26 -108 -71l-16 24q74 62 139 86l86 221l-63 23l2 15l176 30l7 -10l-97 -255q7 1 22 1
q61 0 105.5 -24.5zM335.5 67q44.5 44 68.5 114.5t24 145.5q0 69 -31.5 107.5t-88.5 38.5h-8l-153 -400q11 -22 34.5 -36t52.5 -14q57 0 101.5 44z" />
    <glyph glyph-name="ydieresis" unicode="&#xff;" horiz-adv-x="500" 
d="M488 487q17 -19 17 -52q0 -22 -7 -46q-40 -145 -125.5 -283.5t-195.5 -226.5t-219 -88q-36 0 -58 20.5t-22 48.5t17.5 46t42.5 18q27 0 44.5 -18.5t17.5 -48.5q0 -14 -3 -27q123 27 242 159h-69l-27 440l-94 -39l-11 16l81 64q40 31 69 31q26 0 41.5 -19t17.5 -57
l22 -400q62 78 109.5 171t71.5 178q-32 4 -50.5 23.5t-18.5 44.5q0 28 17.5 46t45.5 18q27 0 44 -19zM228 620q-19 19 -19 46t19 46t46 19t46 -19t19 -46t-19 -46t-46 -19t-46 19zM419 620q-19 19 -19 46t19 46t47 19q27 0 46 -19t19 -46t-19 -46t-46 -19q-28 0 -47 19z" />
    <glyph glyph-name="Amacron" unicode="&#x100;" horiz-adv-x="676" 
d="M577 700l-44 -652l62 -34l-4 -14h-250l4 14l82 33l12 145h-258l-113 -147l58 -31l-4 -14h-188l4 14l84 34l504 652h51zM470 570l-263 -344h235zM717 835h-258l13 44h258z" />
    <glyph glyph-name="amacron" unicode="&#x101;" horiz-adv-x="578" 
d="M47 26.5q-33 38.5 -33 99.5q0 87 47 175.5t127 146.5t174 58q61 0 90 -40l11 28h102l-170 -428l102 45l11 -17l-95 -69q-46 -34 -81 -34q-20 0 -31 11.5t-11 32.5q0 15 8 39l13 34q-41 -56 -81 -88t-98 -32q-52 0 -85 38.5zM293 126.5q56 69.5 102 192.5l23 62q6 18 6 34
q0 26 -16 42t-46 16q-60 0 -117.5 -51.5t-93.5 -129.5t-36 -152q0 -39 17 -61t48 -22q57 0 113 69.5zM535 629h-258l13 44h258z" />
    <glyph glyph-name="Abreve" unicode="&#x102;" horiz-adv-x="676" 
d="M577 700l-44 -652l62 -34l-4 -14h-250l4 14l82 33l12 145h-258l-113 -147l58 -31l-4 -14h-188l4 14l84 34l504 652h51zM470 570l-263 -344h235zM517.5 814.5q-26.5 27.5 -26.5 74.5q0 26 9 56h26q-1 -6 -1 -17q0 -32 17 -53t51 -21q46 0 77 26t46 65h26
q-25 -82 -59.5 -120t-96.5 -38q-42 0 -68.5 27.5z" />
    <glyph glyph-name="abreve" unicode="&#x103;" horiz-adv-x="578" 
d="M47 26.5q-33 38.5 -33 99.5q0 87 47 175.5t127 146.5t174 58q61 0 90 -40l11 28h102l-170 -428l102 45l11 -17l-95 -69q-46 -34 -81 -34q-20 0 -31 11.5t-11 32.5q0 15 8 39l13 34q-41 -56 -81 -88t-98 -32q-52 0 -85 38.5zM293 126.5q56 69.5 102 192.5l23 62q6 18 6 34
q0 26 -16 42t-46 16q-60 0 -117.5 -51.5t-93.5 -129.5t-36 -152q0 -39 17 -61t48 -22q57 0 113 69.5zM335.5 608.5q-26.5 27.5 -26.5 74.5q0 26 9 56h26q-1 -6 -1 -17q0 -32 17 -53t51 -21q46 0 77 26t46 65h26q-25 -82 -59.5 -120t-96.5 -38q-42 0 -68.5 27.5z" />
    <glyph glyph-name="Aogonek" unicode="&#x104;" horiz-adv-x="676" 
d="M533 48l62 -34l-4 -14h-70l-18 -12q-54 -37 -80 -61.5t-26 -51.5q0 -18 10.5 -29t28.5 -11q15 0 39 11l-11 -32q-28 -26 -62 -26q-33 0 -53 20t-20 54q0 72 141 138h-129l4 14l82 33l12 145h-258l-113 -147l58 -31l-4 -14h-188l4 14l84 34l504 652h51zM470 570l-263 -344
h235z" />
    <glyph glyph-name="aogonek" unicode="&#x105;" horiz-adv-x="578" 
d="M395 66l102 45l11 -17l-95 -69q-15 -10 -17 -11q-55 -38 -81 -62t-26 -52q0 -18 10.5 -29t28.5 -11q15 0 39 11l-11 -32q-28 -26 -62 -26q-33 0 -53 20t-20 54q0 56 88 110q-19 11 -19 38q0 15 8 39l13 34q-41 -56 -81 -88t-98 -32q-52 0 -85 38.5t-33 99.5
q0 87 47 175.5t127 146.5t174 58q61 0 90 -40l11 28h102zM293 126.5q56 69.5 102 192.5l23 62q6 18 6 34q0 26 -16 42t-46 16q-60 0 -117.5 -51.5t-93.5 -129.5t-36 -152q0 -39 17 -61t48 -22q57 0 113 69.5z" />
    <glyph glyph-name="Cacute" unicode="&#x106;" horiz-adv-x="660" 
d="M206.5 23q-62.5 35 -98 98.5t-35.5 145.5q0 121 57 223t162.5 162t246.5 60q62 0 115 -14t90 -36l-49 -159h-14l-3 98q-35 77 -142 77q-100 0 -181 -58.5t-126.5 -156t-45.5 -208.5q0 -106 47.5 -169.5t127.5 -63.5q52 0 89.5 18t79.5 60l62 97h14l-49 -161
q-40 -23 -89.5 -35.5t-117.5 -12.5q-78 0 -140.5 35zM560 786h-32l3 10l96 149h119l-3 -10z" />
    <glyph glyph-name="cacute" unicode="&#x107;" horiz-adv-x="468" 
d="M115.5 12q-39.5 24 -62 68.5t-22.5 102.5q0 87 42.5 161.5t112.5 118t149 43.5q55 0 87.5 -22.5t32.5 -59.5q0 -29 -15.5 -46t-40.5 -17q-23 0 -38.5 15.5t-15.5 36.5q0 15 6 28.5t16 23.5q-13 4 -35 4q-54 0 -101 -35.5t-75.5 -96.5t-28.5 -133q0 -62 30.5 -99.5
t82.5 -37.5q85 0 146 92l21 -12q-68 -159 -202 -159q-50 0 -89.5 24zM356 580h-32l3 10l96 149h119l-3 -10z" />
    <glyph glyph-name="Ccircumflex" unicode="&#x108;" horiz-adv-x="660" 
d="M206.5 23q-62.5 35 -98 98.5t-35.5 145.5q0 121 57 223t162.5 162t246.5 60q62 0 115 -14t90 -36l-49 -159h-14l-3 98q-35 77 -142 77q-100 0 -181 -58.5t-126.5 -156t-45.5 -208.5q0 -106 47.5 -169.5t127.5 -63.5q52 0 89.5 18t79.5 60l62 97h14l-49 -161
q-40 -23 -89.5 -35.5t-117.5 -12.5q-78 0 -140.5 35zM474 786h-30l3 10l130 149h69l47 -149l-3 -10h-27l-65 92z" />
    <glyph glyph-name="ccircumflex" unicode="&#x109;" horiz-adv-x="468" 
d="M115.5 12q-39.5 24 -62 68.5t-22.5 102.5q0 87 42.5 161.5t112.5 118t149 43.5q55 0 87.5 -22.5t32.5 -59.5q0 -29 -15.5 -46t-40.5 -17q-23 0 -38.5 15.5t-15.5 36.5q0 15 6 28.5t16 23.5q-13 4 -35 4q-54 0 -101 -35.5t-75.5 -96.5t-28.5 -133q0 -62 30.5 -99.5
t82.5 -37.5q85 0 146 92l21 -12q-68 -159 -202 -159q-50 0 -89.5 24zM270 580h-30l3 10l130 149h69l47 -149l-3 -10h-27l-65 92z" />
    <glyph glyph-name="Cdotaccent" unicode="&#x10a;" horiz-adv-x="660" 
d="M206.5 23q-62.5 35 -98 98.5t-35.5 145.5q0 121 57 223t162.5 162t246.5 60q62 0 115 -14t90 -36l-49 -159h-14l-3 98q-35 77 -142 77q-100 0 -181 -58.5t-126.5 -156t-45.5 -208.5q0 -106 47.5 -169.5t127.5 -63.5q52 0 89.5 18t79.5 60l62 97h14l-49 -161
q-40 -23 -89.5 -35.5t-117.5 -12.5q-78 0 -140.5 35zM543.5 819.5q-19.5 19.5 -19.5 48.5t19.5 48.5t48.5 19.5t48.5 -19.5t19.5 -48.5t-19.5 -48.5t-48.5 -19.5t-48.5 19.5z" />
    <glyph glyph-name="cdotaccent" unicode="&#x10b;" horiz-adv-x="468" 
d="M115.5 12q-39.5 24 -62 68.5t-22.5 102.5q0 87 42.5 161.5t112.5 118t149 43.5q55 0 87.5 -22.5t32.5 -59.5q0 -29 -15.5 -46t-40.5 -17q-23 0 -38.5 15.5t-15.5 36.5q0 15 6 28.5t16 23.5q-13 4 -35 4q-54 0 -101 -35.5t-75.5 -96.5t-28.5 -133q0 -62 30.5 -99.5
t82.5 -37.5q85 0 146 92l21 -12q-68 -159 -202 -159q-50 0 -89.5 24zM339.5 613.5q-19.5 19.5 -19.5 48.5t19.5 48.5t48.5 19.5t48.5 -19.5t19.5 -48.5t-19.5 -48.5t-48.5 -19.5t-48.5 19.5z" />
    <glyph glyph-name="Ccaron" unicode="&#x10c;" horiz-adv-x="660" 
d="M206.5 23q-62.5 35 -98 98.5t-35.5 145.5q0 121 57 223t162.5 162t246.5 60q62 0 115 -14t90 -36l-49 -159h-14l-3 98q-35 77 -142 77q-100 0 -181 -58.5t-126.5 -156t-45.5 -208.5q0 -106 47.5 -169.5t127.5 -63.5q52 0 89.5 18t79.5 60l62 97h14l-49 -161
q-40 -23 -89.5 -35.5t-117.5 -12.5q-78 0 -140.5 35zM606 786h-70l-46 149l3 10h27l65 -93l124 93h30l-3 -10z" />
    <glyph glyph-name="ccaron" unicode="&#x10d;" horiz-adv-x="468" 
d="M115.5 12q-39.5 24 -62 68.5t-22.5 102.5q0 87 42.5 161.5t112.5 118t149 43.5q55 0 87.5 -22.5t32.5 -59.5q0 -29 -15.5 -46t-40.5 -17q-23 0 -38.5 15.5t-15.5 36.5q0 15 6 28.5t16 23.5q-13 4 -35 4q-54 0 -101 -35.5t-75.5 -96.5t-28.5 -133q0 -62 30.5 -99.5
t82.5 -37.5q85 0 146 92l21 -12q-68 -159 -202 -159q-50 0 -89.5 24zM402 580h-70l-46 149l3 10h27l65 -93l124 93h30l-3 -10z" />
    <glyph glyph-name="Dcaron" unicode="&#x10e;" horiz-adv-x="715" 
d="M620 622.5q80 -77.5 80 -215.5q0 -113 -54 -205.5t-161 -147t-260 -54.5h-272l4 14l91 39l182 594l-67 39l4 14h230q143 0 223 -77.5zM212 34q125 0 210 52.5t126.5 139t41.5 187.5q0 117 -54.5 185t-154.5 68h-36l-194 -632h61zM416 786h-70l-46 149l3 10h27l65 -93
l124 93h30l-3 -10z" />
    <glyph glyph-name="dcaron" unicode="&#x10f;" horiz-adv-x="726" 
d="M50 26q-35 38 -35 102q0 89 48.5 177.5t126.5 144.5t162 56q66 0 100 -37l89 233l-61 23v15l180 30l7 -10l-267 -694l103 45l10 -17l-94 -69q-50 -35 -82 -35q-19 0 -29.5 11.5t-10.5 33.5q0 16 6 37l12 34q-39 -58 -81.5 -88t-94.5 -30q-54 0 -89 38zM295 119.5
q51 62.5 85 156.5l38 101q6 18 6 34q0 27 -17 44t-46 17q-60 0 -117 -49.5t-92.5 -127.5t-35.5 -156q0 -36 18.5 -59t48.5 -23q61 0 112 62.5zM658 516q50 20 79.5 49.5t43.5 75.5q-6 -2 -10 -2q-22 0 -37.5 17t-15.5 41q0 32 21 53.5t56 21.5q27 0 45 -19t18 -49
q0 -74 -57 -130.5t-141 -77.5z" />
    <glyph glyph-name="Dcroat" unicode="&#x110;" horiz-adv-x="715" 
d="M620 622.5q80 -77.5 80 -215.5q0 -113 -54 -205.5t-161 -147t-260 -54.5h-272l4 14l91 39l86 280h-79l10 34h79l86 280l-67 39l4 14h230q143 0 223 -77.5zM212 34q125 0 210 52.5t126.5 139t41.5 187.5q0 117 -54.5 185t-154.5 68h-36l-92 -299h145l-10 -34h-145
l-92 -299h61z" />
    <glyph glyph-name="dcroat" unicode="&#x111;" horiz-adv-x="583" 
d="M666 593h-63l-203 -527l103 45l10 -17l-94 -69q-50 -35 -82 -35q-19 0 -29.5 11.5t-10.5 33.5q0 16 6 37l12 34q-39 -58 -81.5 -88t-94.5 -30q-54 0 -89 38t-35 102q0 89 48.5 177.5t126.5 144.5t162 56q66 0 100 -37l47 124h-179l13 34h179l29 75l-61 23v15l180 30
l7 -10l-51 -133h63zM418 377q6 18 6 34q0 27 -17 44t-46 17q-60 0 -117 -49.5t-92.5 -127.5t-35.5 -156q0 -36 18.5 -59t48.5 -23q61 0 112 62.5t85 156.5z" />
    <glyph glyph-name="Emacron" unicode="&#x112;" horiz-adv-x="603" 
d="M689 700l-52 -169h-14l-23 135h-255l-87 -282h168l76 90h13l-66 -214h-13l-20 90h-168l-97 -316h270l123 173h14l-64 -207h-541l4 14l91 39l182 594l-67 39l4 14h522zM608 835h-258l13 44h258z" />
    <glyph glyph-name="emacron" unicode="&#x113;" horiz-adv-x="447" 
d="M365 305q-84 -49 -240 -67q-4 -19 -4 -44q0 -59 28 -93t73 -34q42 0 75.5 21.5t67.5 70.5l21 -13q-76 -158 -202 -158q-71 0 -115.5 49.5t-44.5 128.5q0 77 42 156.5t113.5 131.5t155.5 52q53 0 83.5 -23t30.5 -63q0 -66 -84 -115zM246.5 442.5q-38.5 -27.5 -69 -73.5
t-45.5 -98q109 16 173.5 58.5t64.5 97.5q0 20 -12.5 31.5t-33.5 11.5q-39 0 -77.5 -27.5zM504 629h-258l13 44h258z" />
    <glyph glyph-name="Ebreve" unicode="&#x114;" horiz-adv-x="603" 
d="M689 700l-52 -169h-14l-23 135h-255l-87 -282h168l76 90h13l-66 -214h-13l-20 90h-168l-97 -316h270l123 173h14l-64 -207h-541l4 14l91 39l182 594l-67 39l4 14h522zM408.5 814.5q-26.5 27.5 -26.5 74.5q0 26 9 56h26q-1 -6 -1 -17q0 -32 17 -53t51 -21q46 0 77 26
t46 65h26q-25 -82 -59.5 -120t-96.5 -38q-42 0 -68.5 27.5z" />
    <glyph glyph-name="ebreve" unicode="&#x115;" horiz-adv-x="447" 
d="M365 305q-84 -49 -240 -67q-4 -19 -4 -44q0 -59 28 -93t73 -34q42 0 75.5 21.5t67.5 70.5l21 -13q-76 -158 -202 -158q-71 0 -115.5 49.5t-44.5 128.5q0 77 42 156.5t113.5 131.5t155.5 52q53 0 83.5 -23t30.5 -63q0 -66 -84 -115zM246.5 442.5q-38.5 -27.5 -69 -73.5
t-45.5 -98q109 16 173.5 58.5t64.5 97.5q0 20 -12.5 31.5t-33.5 11.5q-39 0 -77.5 -27.5zM304.5 608.5q-26.5 27.5 -26.5 74.5q0 26 9 56h26q-1 -6 -1 -17q0 -32 17 -53t51 -21q46 0 77 26t46 65h26q-25 -82 -59.5 -120t-96.5 -38q-42 0 -68.5 27.5z" />
    <glyph glyph-name="Edotaccent" unicode="&#x116;" horiz-adv-x="603" 
d="M689 700l-52 -169h-14l-23 135h-255l-87 -282h168l76 90h13l-66 -214h-13l-20 90h-168l-97 -316h270l123 173h14l-64 -207h-541l4 14l91 39l182 594l-67 39l4 14h522zM439.5 819.5q-19.5 19.5 -19.5 48.5t19.5 48.5t48.5 19.5t48.5 -19.5t19.5 -48.5t-19.5 -48.5
t-48.5 -19.5t-48.5 19.5z" />
    <glyph glyph-name="edotaccent" unicode="&#x117;" horiz-adv-x="447" 
d="M365 305q-84 -49 -240 -67q-4 -19 -4 -44q0 -59 28 -93t73 -34q42 0 75.5 21.5t67.5 70.5l21 -13q-76 -158 -202 -158q-71 0 -115.5 49.5t-44.5 128.5q0 77 42 156.5t113.5 131.5t155.5 52q53 0 83.5 -23t30.5 -63q0 -66 -84 -115zM246.5 442.5q-38.5 -27.5 -69 -73.5
t-45.5 -98q109 16 173.5 58.5t64.5 97.5q0 20 -12.5 31.5t-33.5 11.5q-39 0 -77.5 -27.5zM335.5 613.5q-19.5 19.5 -19.5 48.5t19.5 48.5t48.5 19.5t48.5 -19.5t19.5 -48.5t-19.5 -48.5t-48.5 -19.5t-48.5 19.5z" />
    <glyph glyph-name="Eogonek" unicode="&#x118;" horiz-adv-x="603" 
d="M637 531h-14l-23 135h-255l-87 -282h168l76 90h13l-66 -214h-13l-20 90h-168l-97 -316h270l123 173h14l-59 -190h1l-6 -17l-18 -12q-54 -37 -80 -61.5t-26 -51.5q0 -18 10.5 -29t28.5 -11q15 0 39 11l-11 -32q-28 -26 -62 -26q-33 0 -53 20t-20 54q0 72 141 138h-490
l4 14l91 39l182 594l-67 39l4 14h522z" />
    <glyph glyph-name="eogonek" unicode="&#x119;" horiz-adv-x="447" 
d="M365 305q-84 -49 -240 -67q-4 -19 -4 -44q0 -59 28 -93t73 -34q42 0 75.5 21.5t67.5 70.5l21 -13q-56 -116 -139 -147l-19 -13q-52 -35 -78 -59.5t-26 -51.5q0 -18 10.5 -29t28.5 -11q15 0 39 11l-11 -32q-28 -26 -62 -26q-33 0 -53 20t-20 54q0 66 117 126
q-67 5 -108 53.5t-41 124.5q0 77 42 156.5t113.5 131.5t155.5 52q53 0 83.5 -23t30.5 -63q0 -66 -84 -115zM246.5 442.5q-38.5 -27.5 -69 -73.5t-45.5 -98q109 16 173.5 58.5t64.5 97.5q0 20 -12.5 31.5t-33.5 11.5q-39 0 -77.5 -27.5z" />
    <glyph glyph-name="Ecaron" unicode="&#x11a;" horiz-adv-x="603" 
d="M689 700l-52 -169h-14l-23 135h-255l-87 -282h168l76 90h13l-66 -214h-13l-20 90h-168l-97 -316h270l123 173h14l-64 -207h-541l4 14l91 39l182 594l-67 39l4 14h522zM502 786h-70l-46 149l3 10h27l65 -93l124 93h30l-3 -10z" />
    <glyph glyph-name="ecaron" unicode="&#x11b;" horiz-adv-x="447" 
d="M365 305q-84 -49 -240 -67q-4 -19 -4 -44q0 -59 28 -93t73 -34q42 0 75.5 21.5t67.5 70.5l21 -13q-76 -158 -202 -158q-71 0 -115.5 49.5t-44.5 128.5q0 77 42 156.5t113.5 131.5t155.5 52q53 0 83.5 -23t30.5 -63q0 -66 -84 -115zM246.5 442.5q-38.5 -27.5 -69 -73.5
t-45.5 -98q109 16 173.5 58.5t64.5 97.5q0 20 -12.5 31.5t-33.5 11.5q-39 0 -77.5 -27.5zM399 580h-70l-46 149l3 10h27l65 -93l124 93h30l-3 -10z" />
    <glyph glyph-name="Gcircumflex" unicode="&#x11c;" horiz-adv-x="710" 
d="M662 323l44 -3l-25 -13l-28 -14l-55 -179l5 -45q-43 -35 -109.5 -58t-139.5 -23q-80 0 -143.5 35t-100 101t-36.5 155q0 115 56.5 214.5t157.5 159t227 59.5q131 0 221 -48l-55 -179h-14l-7 113q-19 38 -58 59t-92 21q-94 0 -169 -57.5t-116.5 -152.5t-41.5 -203
q0 -114 47 -178.5t127 -64.5q36 0 66 10.5t58 32.5l66 218l-40 2l-26 38l80 5h103zM456 786h-30l3 10l130 149h69l47 -149l-3 -10h-27l-65 92z" />
    <glyph glyph-name="gcircumflex" unicode="&#x11d;" horiz-adv-x="487" 
d="M519 527l-23 -68l-86 -4q22 -32 22 -76q0 -57 -27.5 -105.5t-77.5 -77t-113 -28.5q-35 0 -62 12q-28 -16 -28 -35q0 -14 19.5 -26t60.5 -31q47 -21 78.5 -39.5t54 -45.5t22.5 -62q0 -42 -29 -77t-82.5 -55.5t-125.5 -20.5q-90 0 -141 36t-51 94q0 41 38.5 76t105.5 58
q-36 31 -36 64q0 51 88 79q-22 17 -34 43.5t-12 58.5q0 54 26 102t76 77.5t117 29.5q49 0 82 -22l128 54zM275 231q30 32 49 81t19 96q0 31 -11.5 49t-34.5 18q-31 0 -61 -32t-48.5 -81t-18.5 -96q0 -31 11.5 -49t33.5 -18q31 0 61 32zM230.5 -44.5q-24.5 19.5 -75.5 46.5
q-40 21 -62 36q-36 -21 -58.5 -50.5t-22.5 -63.5q0 -45 33.5 -72.5t85.5 -27.5q57 0 90.5 25t33.5 62q0 25 -24.5 44.5zM238 580h-30l3 10l130 149h69l47 -149l-3 -10h-27l-65 92z" />
    <glyph glyph-name="Gbreve" unicode="&#x11e;" horiz-adv-x="710" 
d="M662 323l44 -3l-25 -13l-28 -14l-55 -179l5 -45q-43 -35 -109.5 -58t-139.5 -23q-80 0 -143.5 35t-100 101t-36.5 155q0 115 56.5 214.5t157.5 159t227 59.5q131 0 221 -48l-55 -179h-14l-7 113q-19 38 -58 59t-92 21q-94 0 -169 -57.5t-116.5 -152.5t-41.5 -203
q0 -114 47 -178.5t127 -64.5q36 0 66 10.5t58 32.5l66 218l-40 2l-26 38l80 5h103zM493.5 814.5q-26.5 27.5 -26.5 74.5q0 26 9 56h26q-1 -6 -1 -17q0 -32 17 -53t51 -21q46 0 77 26t46 65h26q-25 -82 -59.5 -120t-96.5 -38q-42 0 -68.5 27.5z" />
    <glyph glyph-name="gbreve" unicode="&#x11f;" horiz-adv-x="487" 
d="M519 527l-23 -68l-86 -4q22 -32 22 -76q0 -57 -27.5 -105.5t-77.5 -77t-113 -28.5q-35 0 -62 12q-28 -16 -28 -35q0 -14 19.5 -26t60.5 -31q47 -21 78.5 -39.5t54 -45.5t22.5 -62q0 -42 -29 -77t-82.5 -55.5t-125.5 -20.5q-90 0 -141 36t-51 94q0 41 38.5 76t105.5 58
q-36 31 -36 64q0 51 88 79q-22 17 -34 43.5t-12 58.5q0 54 26 102t76 77.5t117 29.5q49 0 82 -22l128 54zM275 231q30 32 49 81t19 96q0 31 -11.5 49t-34.5 18q-31 0 -61 -32t-48.5 -81t-18.5 -96q0 -31 11.5 -49t33.5 -18q31 0 61 32zM230.5 -44.5q-24.5 19.5 -75.5 46.5
q-40 21 -62 36q-36 -21 -58.5 -50.5t-22.5 -63.5q0 -45 33.5 -72.5t85.5 -27.5q57 0 90.5 25t33.5 62q0 25 -24.5 44.5zM276.5 608.5q-26.5 27.5 -26.5 74.5q0 26 9 56h26q-1 -6 -1 -17q0 -32 17 -53t51 -21q46 0 77 26t46 65h26q-25 -82 -59.5 -120t-96.5 -38
q-42 0 -68.5 27.5z" />
    <glyph glyph-name="Gdotaccent" unicode="&#x120;" horiz-adv-x="710" 
d="M662 323l44 -3l-25 -13l-28 -14l-55 -179l5 -45q-43 -35 -109.5 -58t-139.5 -23q-80 0 -143.5 35t-100 101t-36.5 155q0 115 56.5 214.5t157.5 159t227 59.5q131 0 221 -48l-55 -179h-14l-7 113q-19 38 -58 59t-92 21q-94 0 -169 -57.5t-116.5 -152.5t-41.5 -203
q0 -114 47 -178.5t127 -64.5q36 0 66 10.5t58 32.5l66 218l-40 2l-26 38l80 5h103zM524.5 819.5q-19.5 19.5 -19.5 48.5t19.5 48.5t48.5 19.5t48.5 -19.5t19.5 -48.5t-19.5 -48.5t-48.5 -19.5t-48.5 19.5z" />
    <glyph glyph-name="gdotaccent" unicode="&#x121;" horiz-adv-x="487" 
d="M519 527l-23 -68l-86 -4q22 -32 22 -76q0 -57 -27.5 -105.5t-77.5 -77t-113 -28.5q-35 0 -62 12q-28 -16 -28 -35q0 -14 19.5 -26t60.5 -31q47 -21 78.5 -39.5t54 -45.5t22.5 -62q0 -42 -29 -77t-82.5 -55.5t-125.5 -20.5q-90 0 -141 36t-51 94q0 41 38.5 76t105.5 58
q-36 31 -36 64q0 51 88 79q-22 17 -34 43.5t-12 58.5q0 54 26 102t76 77.5t117 29.5q49 0 82 -22l128 54zM275 231q30 32 49 81t19 96q0 31 -11.5 49t-34.5 18q-31 0 -61 -32t-48.5 -81t-18.5 -96q0 -31 11.5 -49t33.5 -18q31 0 61 32zM230.5 -44.5q-24.5 19.5 -75.5 46.5
q-40 21 -62 36q-36 -21 -58.5 -50.5t-22.5 -63.5q0 -45 33.5 -72.5t85.5 -27.5q57 0 90.5 25t33.5 62q0 25 -24.5 44.5zM307.5 613.5q-19.5 19.5 -19.5 48.5t19.5 48.5t48.5 19.5t48.5 -19.5t19.5 -48.5t-19.5 -48.5t-48.5 -19.5t-48.5 19.5z" />
    <glyph glyph-name="uni0122" unicode="&#x122;" horiz-adv-x="710" 
d="M662 323l44 -3l-25 -13l-28 -14l-55 -179l5 -45q-43 -35 -109.5 -58t-139.5 -23q-80 0 -143.5 35t-100 101t-36.5 155q0 115 56.5 214.5t157.5 159t227 59.5q131 0 221 -48l-55 -179h-14l-7 113q-19 38 -58 59t-92 21q-94 0 -169 -57.5t-116.5 -152.5t-41.5 -203
q0 -114 47 -178.5t127 -64.5q36 0 66 10.5t58 32.5l66 218l-40 2l-26 38l80 5h103zM202 -247q45 6 75.5 25.5t43.5 47.5q-5 -2 -16 -2q-22 0 -39 16.5t-17 39.5q0 29 20 48t51 19q29 0 48 -18.5t19 -47.5q0 -68 -52.5 -108.5t-139.5 -42.5z" />
    <glyph glyph-name="uni0123" unicode="&#x123;" horiz-adv-x="487" 
d="M519 527l-23 -68l-86 -4q22 -32 22 -76q0 -57 -27.5 -105.5t-77.5 -77t-113 -28.5q-35 0 -62 12q-28 -16 -28 -35q0 -14 19.5 -26t60.5 -31q47 -21 78.5 -39.5t54 -45.5t22.5 -62q0 -42 -29 -77t-82.5 -55.5t-125.5 -20.5q-90 0 -141 36t-51 94q0 41 38.5 76t105.5 58
q-36 31 -36 64q0 51 88 79q-22 17 -34 43.5t-12 58.5q0 54 26 102t76 77.5t117 29.5q49 0 82 -22l128 54zM275 231q30 32 49 81t19 96q0 31 -11.5 49t-34.5 18q-31 0 -61 -32t-48.5 -81t-18.5 -96q0 -31 11.5 -49t33.5 -18q31 0 61 32zM230.5 -44.5q-24.5 19.5 -75.5 46.5
q-40 21 -62 36q-36 -21 -58.5 -50.5t-22.5 -63.5q0 -45 33.5 -72.5t85.5 -27.5q57 0 90.5 25t33.5 62q0 25 -24.5 44.5zM289 573.5q-18 20.5 -18 53.5q0 41 25 74.5t69 52t98 18.5l-7 -23q-47 -2 -78 -23t-42 -51q10 2 16 2q23 0 39.5 -15.5t16.5 -39.5q0 -31 -20.5 -50
t-52.5 -19q-28 0 -46 20.5z" />
    <glyph glyph-name="Hcircumflex" unicode="&#x124;" horiz-adv-x="764" 
d="M874 700l-3 -14l-92 -39l-182 -594l67 -39l-4 -14h-267l4 14l91 39l95 311h-331l-95 -311l67 -39l-4 -14h-267l4 14l91 39l182 594l-67 39l4 14h267l-4 -14l-91 -39l-76 -249h331l76 249l-67 39l4 14h267zM454 786h-30l3 10l130 149h69l47 -149l-3 -10h-27l-65 92z" />
    <glyph glyph-name="hcircumflex" unicode="&#x125;" horiz-adv-x="563" 
d="M-28 0l264 702l-62 23v15l181 30l7 -10l-170 -454q55 91 120 145.5t128 54.5q45 0 69 -23.5t24 -64.5q0 -40 -23 -85l-133 -266l106 45l10 -17l-94 -69q-48 -35 -85 -35q-20 0 -32 11.5t-12 30.5q0 20 12 44l136 281q12 26 12 44t-11 27.5t-31 9.5q-43 0 -94 -47.5
t-100 -127.5t-87 -176l-33 -88h-102zM231 816h-30l3 10l130 149h69l47 -149l-3 -10h-27l-65 92z" />
    <glyph glyph-name="Hbar" unicode="&#x126;" horiz-adv-x="764" 
d="M871 686l-92 -39l-34 -110h79l-10 -34h-79l-138 -450l67 -39l-4 -14h-267l4 14l91 39l95 311h-331l-95 -311l67 -39l-4 -14h-267l4 14l91 39l138 450h-80l10 34h80l34 110l-67 39l4 14h267l-4 -14l-91 -39l-34 -110h331l34 110l-67 39l4 14h267zM263 398h331l32 105h-331
z" />
    <glyph glyph-name="hbar" unicode="&#x127;" horiz-adv-x="563" 
d="M509 482.5q24 -23.5 24 -64.5q0 -40 -23 -85l-133 -266l106 45l10 -17l-94 -69q-48 -35 -85 -35q-20 0 -32 11.5t-12 30.5q0 20 12 44l136 281q12 26 12 44t-11 27.5t-31 9.5q-43 0 -94 -47.5t-100 -127.5t-87 -176l-33 -88h-102l223 593h-66l13 34h66l28 75l-62 23v15
l181 30l7 -10l-50 -133h175l-13 -34h-175l-107 -287q55 91 120 145.5t128 54.5q45 0 69 -23.5z" />
    <glyph glyph-name="Itilde" unicode="&#x128;" horiz-adv-x="324" 
d="M434 700l-4 -14l-91 -39l-182 -594l67 -39l-4 -14h-267l4 14l91 39l182 594l-67 39l4 14h267zM375.5 813q-16.5 7 -37.5 20q-19 12 -33.5 18.5t-30.5 6.5q-20 0 -36.5 -12t-32.5 -35l-18 9q21 55 45.5 81t62.5 26q20 0 36 -7t38 -21q19 -13 33 -19t30 -6q20 0 36.5 12
t32.5 36l18 -9q-21 -55 -45 -81t-63 -26q-19 0 -35.5 7z" />
    <glyph glyph-name="itilde" unicode="&#x129;" horiz-adv-x="309" 
d="M144 25q-50 -35 -86 -35q-19 0 -29.5 11t-10.5 30q0 22 11 45l152 348l-101 -42l-10 17l95 69q50 35 85 35q19 0 30 -11t11 -30t-12 -45l-151 -348l101 42l10 -17zM331.5 607q-16.5 7 -37.5 20q-19 12 -33.5 18.5t-30.5 6.5q-20 0 -36.5 -12t-32.5 -35l-18 9
q21 55 45.5 81t62.5 26q20 0 36 -7t38 -21q19 -13 33 -19t30 -6q20 0 36.5 12t32.5 36l18 -9q-21 -55 -45 -81t-63 -26q-19 0 -35.5 7z" />
    <glyph glyph-name="Imacron" unicode="&#x12a;" horiz-adv-x="324" 
d="M434 700l-4 -14l-91 -39l-182 -594l67 -39l-4 -14h-267l4 14l91 39l182 594l-67 39l4 14h267zM473 835h-258l13 44h258z" />
    <glyph glyph-name="imacron" unicode="&#x12b;" horiz-adv-x="309" 
d="M144 25q-50 -35 -86 -35q-19 0 -29.5 11t-10.5 30q0 22 11 45l152 348l-101 -42l-10 17l95 69q50 35 85 35q19 0 30 -11t11 -30t-12 -45l-151 -348l101 42l10 -17zM429 629h-258l13 44h258z" />
    <glyph glyph-name="Ibreve" unicode="&#x12c;" horiz-adv-x="324" 
d="M434 700l-4 -14l-91 -39l-182 -594l67 -39l-4 -14h-267l4 14l91 39l182 594l-67 39l4 14h267zM273.5 814.5q-26.5 27.5 -26.5 74.5q0 26 9 56h26q-1 -6 -1 -17q0 -32 17 -53t51 -21q46 0 77 26t46 65h26q-25 -82 -59.5 -120t-96.5 -38q-42 0 -68.5 27.5z" />
    <glyph glyph-name="ibreve" unicode="&#x12d;" horiz-adv-x="309" 
d="M144 25q-50 -35 -86 -35q-19 0 -29.5 11t-10.5 30q0 22 11 45l152 348l-101 -42l-10 17l95 69q50 35 85 35q19 0 30 -11t11 -30t-12 -45l-151 -348l101 42l10 -17zM229.5 608.5q-26.5 27.5 -26.5 74.5q0 26 9 56h26q-1 -6 -1 -17q0 -32 17 -53t51 -21q46 0 77 26t46 65
h26q-25 -82 -59.5 -120t-96.5 -38q-42 0 -68.5 27.5z" />
    <glyph glyph-name="Iogonek" unicode="&#x12e;" horiz-adv-x="324" 
d="M430 686l-91 -39l-182 -594l67 -39l-4 -14h-77l-18 -12q-54 -37 -80 -61.5t-26 -51.5q0 -18 10.5 -29t28.5 -11q15 0 39 11l-11 -32q-28 -26 -62 -26q-33 0 -53 20t-20 54q0 72 141 138h-139l4 14l91 39l182 594l-67 39l4 14h267z" />
    <glyph glyph-name="iogonek" unicode="&#x12f;" horiz-adv-x="309" 
d="M357.5 710.5q19.5 -19.5 19.5 -48.5t-19.5 -48.5t-48.5 -19.5t-48.5 19.5t-19.5 48.5t19.5 48.5t48.5 19.5t48.5 -19.5zM165 468q50 35 85 35q19 0 30 -11t11 -30t-12 -45l-151 -348l101 42l10 -17l-95 -69q-5 -4 -23 -15q-51 -34 -76.5 -58.5t-25.5 -51.5
q0 -18 10.5 -29t28.5 -11q15 0 39 11l-11 -32q-28 -26 -62 -26q-33 0 -53 20t-20 54q0 56 84 108q-17 9 -17 35q0 21 11 46l152 348l-101 -42l-10 17z" />
    <glyph glyph-name="Idotaccent" unicode="&#x130;" horiz-adv-x="324" 
d="M434 700l-4 -14l-91 -39l-182 -594l67 -39l-4 -14h-267l4 14l91 39l182 594l-67 39l4 14h267zM304.5 819.5q-19.5 19.5 -19.5 48.5t19.5 48.5t48.5 19.5t48.5 -19.5t19.5 -48.5t-19.5 -48.5t-48.5 -19.5t-48.5 19.5z" />
    <glyph glyph-name="dotlessi" unicode="&#x131;" horiz-adv-x="309" 
d="M144 25q-50 -35 -86 -35q-19 0 -29.5 11t-10.5 30q0 22 11 45l152 348l-101 -42l-10 17l95 69q50 35 85 35q19 0 30 -11t11 -30t-12 -45l-151 -348l101 42l10 -17z" />
    <glyph glyph-name="IJ" unicode="&#x132;" horiz-adv-x="648" 
d="M434 700l-4 -14l-91 -39l-182 -594l67 -39l-4 -14h-267l4 14l91 39l182 594l-67 39l4 14h267zM754 686l-91 -39l-169 -552q-18 -59 -39.5 -96t-53 -63.5t-84.5 -56.5l-86 -49l-12 20l56 46q37 31 59 68t45 110l175 573l-67 39l4 14h267z" />
    <glyph glyph-name="ij" unicode="&#x133;" horiz-adv-x="604" 
d="M275.5 613.5q-19.5 19.5 -19.5 48.5t19.5 48.5t48.5 19.5t48.5 -19.5t19.5 -48.5t-19.5 -48.5t-48.5 -19.5t-48.5 19.5zM144 25q-50 -35 -86 -35q-19 0 -29.5 11t-10.5 30q0 22 11 45l152 348l-101 -42l-10 17l95 69q50 35 85 35q19 0 30 -11t11 -30t-12 -45l-151 -348
l101 42l10 -17zM570.5 613.5q-19.5 19.5 -19.5 48.5t19.5 48.5t48.5 19.5t48.5 -19.5t19.5 -48.5t-19.5 -48.5t-48.5 -19.5t-48.5 19.5zM110.5 -194.5q-21.5 17.5 -21.5 44.5q0 24 15.5 40t42.5 16q22 0 35.5 -13t13.5 -34q0 -26 -14 -42q31 8 51.5 35t48.5 96l192 476
l-99 -42l-11 17l96 69q50 35 84 35q19 0 29.5 -11t10.5 -30q0 -17 -11 -45l-175 -431q-38 -95 -96 -146.5t-131 -51.5q-39 0 -60.5 17.5z" />
    <glyph glyph-name="Jcircumflex" unicode="&#x134;" horiz-adv-x="324" 
d="M430 686l-91 -39l-169 -552q-18 -59 -39.5 -96t-53 -63.5t-84.5 -56.5l-86 -49l-12 20l56 46q37 31 59 68t45 110l175 573l-67 39l4 14h267zM239 786h-30l3 10l130 149h69l47 -149l-3 -10h-27l-65 92z" />
    <glyph glyph-name="jcircumflex" unicode="&#x135;" horiz-adv-x="298" 
d="M-189.5 -194.5q-21.5 17.5 -21.5 44.5q0 25 15.5 40.5t41.5 15.5q22 0 35.5 -13t13.5 -34q0 -26 -14 -42q31 8 52 35.5t48 95.5l192 476l-99 -42l-10 17l96 69q49 35 83 35q20 0 30.5 -10.5t10.5 -30.5q0 -14 -12 -45l-175 -431q-38 -95 -95.5 -146.5t-130.5 -51.5
q-39 0 -60.5 17.5zM189 580h-30l3 10l130 149h69l47 -149l-3 -10h-27l-65 92z" />
    <glyph glyph-name="uni0136" unicode="&#x136;" horiz-adv-x="676" 
d="M552 686l4 14h206l-4 -14l-103 -37l-290 -255l158 -342l67 -38l-4 -14h-168l-148 333h-27l-86 -280l67 -39l-4 -14h-267l4 14l91 39l182 594l-67 39l4 14h267l-4 -14l-91 -39l-86 -280h26l325 284zM172 -247q45 6 75.5 25.5t43.5 47.5q-5 -2 -16 -2q-22 0 -39 16.5
t-17 39.5q0 29 20 48t51 19q29 0 48 -18.5t19 -47.5q0 -68 -52.5 -108.5t-139.5 -42.5z" />
    <glyph glyph-name="uni0137" unicode="&#x137;" horiz-adv-x="512" 
d="M-28 0l264 702l-62 23v15l181 30l7 -10l-161 -423q50 69 112 119t122 50q40 0 61 -20.5t21 -53.5q0 -72 -73.5 -124.5t-198.5 -69.5l181 -238h-131l-136 221l-85 -221h-102zM299 288.5q58 24.5 91.5 56t33.5 63.5q0 16 -8.5 25.5t-25.5 9.5q-42 0 -102 -52t-116 -137
q69 10 127 34.5zM28 -247q45 6 75.5 25.5t43.5 47.5q-5 -2 -16 -2q-22 0 -39 16.5t-17 39.5q0 29 20 48t51 19q29 0 48 -18.5t19 -47.5q0 -68 -52.5 -108.5t-139.5 -42.5z" />
    <glyph glyph-name="kgreenlandic" unicode="&#x138;" horiz-adv-x="557" 
d="M13 0l168 424l-101 -42l-10 17l95 69q51 35 85 35q19 0 29 -10.5t10 -29.5q0 -18 -11 -46l-31 -80q50 69 111.5 119t121.5 50q40 0 60.5 -20t20.5 -54q0 -73 -73 -125t-198 -69l181 -238h-132l-136 221l-87 -221h-103zM344 288.5q58 24.5 91.5 56t33.5 63.5q0 16 -9 25.5
t-25 9.5q-42 0 -102 -52t-116 -137q69 10 127 34.5z" />
    <glyph glyph-name="Lacute" unicode="&#x139;" horiz-adv-x="608" 
d="M410 34l142 184h14l-66 -218h-547l4 14l91 39l182 594l-67 39l4 14h267l-4 -14l-91 -39l-188 -613h259zM320 786h-32l3 10l96 149h119l-3 -10z" />
    <glyph glyph-name="lacute" unicode="&#x13a;" horiz-adv-x="280" 
d="M114 25q-49 -36 -84 -36q-19 0 -29 11.5t-10 31.5q0 19 9 44l236 626l-62 23v15l181 30l7 -10l-263 -691l101 42l10 -17zM321 816h-32l3 10l96 149h119l-3 -10z" />
    <glyph glyph-name="uni013B" unicode="&#x13b;" horiz-adv-x="608" 
d="M410 34l142 184h14l-66 -218h-547l4 14l91 39l182 594l-67 39l4 14h267l-4 -14l-91 -39l-188 -613h259zM126 -247q45 6 75.5 25.5t43.5 47.5q-5 -2 -16 -2q-22 0 -39 16.5t-17 39.5q0 29 20 48t51 19q29 0 48 -18.5t19 -47.5q0 -68 -52.5 -108.5t-139.5 -42.5z" />
    <glyph glyph-name="uni013C" unicode="&#x13c;" horiz-adv-x="280" 
d="M114 25q-49 -36 -84 -36q-19 0 -29 11.5t-10 31.5q0 19 9 44l236 626l-62 23v15l181 30l7 -10l-263 -691l101 42l10 -17zM-106 -247q45 6 75.5 25.5t43.5 47.5q-5 -2 -16 -2q-22 0 -39 16.5t-17 39.5q0 29 20 48t51 19q29 0 48 -18.5t19 -47.5q0 -68 -52.5 -108.5
t-139.5 -42.5z" />
    <glyph glyph-name="Lcaron" unicode="&#x13d;" horiz-adv-x="608" 
d="M410 34l142 184h14l-66 -218h-547l4 14l91 39l182 594l-67 39l4 14h267l-4 -14l-91 -39l-188 -613h259zM486 456q50 20 79.5 49.5t43.5 75.5q-6 -2 -10 -2q-22 0 -37.5 17t-15.5 41q0 32 21 53.5t56 21.5q27 0 45 -19t18 -49q0 -74 -57 -130.5t-141 -77.5z" />
    <glyph glyph-name="lcaron" unicode="&#x13e;" horiz-adv-x="416" 
d="M114 25q-49 -36 -84 -36q-19 0 -29 11.5t-10 31.5q0 19 9 44l236 626l-62 23v15l181 30l7 -10l-263 -691l101 42l10 -17zM348 516q50 20 79.5 49.5t43.5 75.5q-6 -2 -10 -2q-22 0 -37.5 17t-15.5 41q0 32 21 53.5t56 21.5q27 0 45 -19t18 -49q0 -74 -57 -130.5
t-141 -77.5z" />
    <glyph glyph-name="Ldot" unicode="&#x13f;" horiz-adv-x="608" 
d="M410 34l142 184h14l-66 -218h-547l4 14l91 39l182 594l-67 39l4 14h267l-4 -14l-91 -39l-188 -613h259zM412 296.5q-22 21.5 -22 53.5t22 54t54 22t53.5 -22t21.5 -54t-21.5 -53.5t-53.5 -21.5t-54 21.5z" />
    <glyph glyph-name="ldot" unicode="&#x140;" horiz-adv-x="404" 
d="M114 25q-49 -36 -84 -36q-19 0 -29 11.5t-10 31.5q0 19 9 44l236 626l-62 23v15l181 30l7 -10l-263 -691l101 42l10 -17zM307 296.5q-22 21.5 -22 53.5t22 54t54 22t53.5 -22t21.5 -54t-21.5 -53.5t-53.5 -21.5t-54 21.5z" />
    <glyph glyph-name="Lslash" unicode="&#x141;" horiz-adv-x="608" 
d="M410 34l142 184h14l-66 -218h-547l4 14l91 39l55 178l-97 -58l15 52l98 59l111 363l-67 39l4 14h267l-4 -14l-91 -39l-87 -282l170 102l-15 -52l-171 -103l-85 -278h259z" />
    <glyph glyph-name="lslash" unicode="&#x142;" horiz-adv-x="280" 
d="M362 760l-143 -375l93 46l-17 -50l-95 -47l-101 -265l101 42l10 -17l-96 -69q-49 -36 -84 -36q-19 0 -29 11.5t-10 31.5q0 19 9 44l74 196l-87 -43l17 50l89 44l143 379l-62 23v15l181 30z" />
    <glyph glyph-name="Nacute" unicode="&#x143;" horiz-adv-x="719" 
d="M829 700l-4 -14l-91 -39l-198 -647h-42l-245 572l-159 -520l67 -38l-4 -14h-200l4 14l91 39l177 577l-24 60l3 10h121l220 -534l149 481h-1l-68 39l4 14h200zM507 786h-32l3 10l96 149h119l-3 -10z" />
    <glyph glyph-name="nacute" unicode="&#x144;" 
d="M2 0l179 424l-101 -42l-10 17l95 69q51 35 85 35q19 0 29.5 -10.5t10.5 -29.5t-12 -46l-46 -113q53 87 120.5 144.5t133.5 57.5q39 0 61.5 -21.5t22.5 -61.5q0 -44 -27 -98l-127 -255l103 42l10 -17l-95 -69q-50 -36 -87 -36q-19 0 -30 10.5t-11 29.5q0 21 13 47l133 277
q14 31 14 50q0 17 -10 26t-28 9q-42 0 -93 -47t-102 -129t-93 -184l-34 -79h-104zM401 580h-32l3 10l96 149h119l-3 -10z" />
    <glyph glyph-name="uni0145" unicode="&#x145;" horiz-adv-x="719" 
d="M829 700l-4 -14l-91 -39l-198 -647h-42l-245 572l-159 -520l67 -38l-4 -14h-200l4 14l91 39l177 577l-24 60l3 10h121l220 -534l149 481h-1l-68 39l4 14h200zM133 -247q45 6 75.5 25.5t43.5 47.5q-5 -2 -16 -2q-22 0 -39 16.5t-17 39.5q0 29 20 48t51 19q29 0 48 -18.5
t19 -47.5q0 -68 -52.5 -108.5t-139.5 -42.5z" />
    <glyph glyph-name="uni0146" unicode="&#x146;" 
d="M2 0l179 424l-101 -42l-10 17l95 69q51 35 85 35q19 0 29.5 -10.5t10.5 -29.5t-12 -46l-46 -113q53 87 120.5 144.5t133.5 57.5q39 0 61.5 -21.5t22.5 -61.5q0 -44 -27 -98l-127 -255l103 42l10 -17l-95 -69q-50 -36 -87 -36q-19 0 -30 10.5t-11 29.5q0 21 13 47l133 277
q14 31 14 50q0 17 -10 26t-28 9q-42 0 -93 -47t-102 -129t-93 -184l-34 -79h-104zM58 -247q45 6 75.5 25.5t43.5 47.5q-5 -2 -16 -2q-22 0 -39 16.5t-17 39.5q0 29 20 48t51 19q29 0 48 -18.5t19 -47.5q0 -68 -52.5 -108.5t-139.5 -42.5z" />
    <glyph glyph-name="Ncaron" unicode="&#x147;" horiz-adv-x="719" 
d="M829 700l-4 -14l-91 -39l-198 -647h-42l-245 572l-159 -520l67 -38l-4 -14h-200l4 14l91 39l177 577l-24 60l3 10h121l220 -534l149 481h-1l-68 39l4 14h200zM553 786h-70l-46 149l3 10h27l65 -93l124 93h30l-3 -10z" />
    <glyph glyph-name="ncaron" unicode="&#x148;" 
d="M2 0l179 424l-101 -42l-10 17l95 69q51 35 85 35q19 0 29.5 -10.5t10.5 -29.5t-12 -46l-46 -113q53 87 120.5 144.5t133.5 57.5q39 0 61.5 -21.5t22.5 -61.5q0 -44 -27 -98l-127 -255l103 42l10 -17l-95 -69q-50 -36 -87 -36q-19 0 -30 10.5t-11 29.5q0 21 13 47l133 277
q14 31 14 50q0 17 -10 26t-28 9q-42 0 -93 -47t-102 -129t-93 -184l-34 -79h-104zM447 580h-70l-46 149l3 10h27l65 -93l124 93h30l-3 -10z" />
    <glyph glyph-name="Eng" unicode="&#x14a;" horiz-adv-x="719" 
d="M302 -170l-12 22l56 38q38 26 62.5 60.5t43.5 96.5l8 27l-210 501l-160 -522l67 -39l-4 -14h-200l4 14l91 39l176 575l-61 58l4 14h158l220 -534l149 481l-69 39l4 14h200l-4 -14l-91 -39l-198 -647q-12 -39 -45 -67.5t-103 -61.5z" />
    <glyph glyph-name="eng" unicode="&#x14b;" 
d="M105.5 -194.5q-21.5 17.5 -21.5 44.5q0 24 15.5 40t41.5 16q22 0 36 -13t14 -34q0 -25 -15 -42q30 8 50.5 35t49.5 96l176 406q13 30 13 51q0 34 -37 34q-42 0 -93 -47t-102 -129t-93 -184l-34 -79h-104l179 424l-101 -42l-10 17l95 69q51 35 85 35q19 0 29.5 -10.5
t10.5 -29.5t-12 -46l-46 -113q53 87 120.5 144.5t133.5 57.5q39 0 61 -21t22 -60q0 -42 -26 -100l-150 -339q-41 -94 -98 -146t-129 -52q-39 0 -60.5 17.5z" />
    <glyph glyph-name="Omacron" unicode="&#x14c;" horiz-adv-x="796" 
d="M223.5 27q-67.5 39 -105.5 109.5t-38 161.5q0 108 51.5 203t143.5 153t207 58q86 0 154 -39t106 -109.5t38 -161.5q0 -108 -51.5 -203t-143.5 -153t-207 -58q-87 0 -154.5 39zM530 77.5q67 53.5 105 145.5t38 203q0 74 -24 131t-68 88t-101 31q-84 0 -151 -53.5
t-105 -145t-38 -203.5q0 -74 24.5 -131t68.5 -88t101 -31q83 0 150 53.5zM667 835h-258l13 44h258z" />
    <glyph glyph-name="omacron" unicode="&#x14d;" horiz-adv-x="523" 
d="M74.5 38q-45.5 50 -45.5 136q0 80 37.5 157t106.5 126t158 49q71 0 116.5 -50t45.5 -136q0 -80 -37.5 -157t-106.5 -126t-158 -49q-71 0 -116.5 50zM290.5 77.5q46.5 57.5 75.5 141.5t29 157q0 48 -17.5 73t-50.5 25q-49 0 -95 -57.5t-75 -141.5t-29 -157q0 -48 17.5 -73
t49.5 -25q49 0 95.5 57.5zM508 629h-258l13 44h258z" />
    <glyph glyph-name="Obreve" unicode="&#x14e;" horiz-adv-x="796" 
d="M223.5 27q-67.5 39 -105.5 109.5t-38 161.5q0 108 51.5 203t143.5 153t207 58q86 0 154 -39t106 -109.5t38 -161.5q0 -108 -51.5 -203t-143.5 -153t-207 -58q-87 0 -154.5 39zM530 77.5q67 53.5 105 145.5t38 203q0 74 -24 131t-68 88t-101 31q-84 0 -151 -53.5
t-105 -145t-38 -203.5q0 -74 24.5 -131t68.5 -88t101 -31q83 0 150 53.5zM467.5 814.5q-26.5 27.5 -26.5 74.5q0 26 9 56h26q-1 -6 -1 -17q0 -32 17 -53t51 -21q46 0 77 26t46 65h26q-25 -82 -59.5 -120t-96.5 -38q-42 0 -68.5 27.5z" />
    <glyph glyph-name="obreve" unicode="&#x14f;" horiz-adv-x="523" 
d="M74.5 38q-45.5 50 -45.5 136q0 80 37.5 157t106.5 126t158 49q71 0 116.5 -50t45.5 -136q0 -80 -37.5 -157t-106.5 -126t-158 -49q-71 0 -116.5 50zM290.5 77.5q46.5 57.5 75.5 141.5t29 157q0 48 -17.5 73t-50.5 25q-49 0 -95 -57.5t-75 -141.5t-29 -157q0 -48 17.5 -73
t49.5 -25q49 0 95.5 57.5zM308.5 608.5q-26.5 27.5 -26.5 74.5q0 26 9 56h26q-1 -6 -1 -17q0 -32 17 -53t51 -21q46 0 77 26t46 65h26q-25 -82 -59.5 -120t-96.5 -38q-42 0 -68.5 27.5z" />
    <glyph glyph-name="Ohungarumlaut" unicode="&#x150;" horiz-adv-x="796" 
d="M223.5 27q-67.5 39 -105.5 109.5t-38 161.5q0 108 51.5 203t143.5 153t207 58q86 0 154 -39t106 -109.5t38 -161.5q0 -108 -51.5 -203t-143.5 -153t-207 -58q-87 0 -154.5 39zM530 77.5q67 53.5 105 145.5t38 203q0 74 -24 131t-68 88t-101 31q-84 0 -151 -53.5
t-105 -145t-38 -203.5q0 -74 24.5 -131t68.5 -88t101 -31q83 0 150 53.5zM467 786h-30l3 10l83 149h100l-3 -10zM610 786h-30l3 10l83 149h100l-3 -10z" />
    <glyph glyph-name="ohungarumlaut" unicode="&#x151;" horiz-adv-x="523" 
d="M74.5 38q-45.5 50 -45.5 136q0 80 37.5 157t106.5 126t158 49q71 0 116.5 -50t45.5 -136q0 -80 -37.5 -157t-106.5 -126t-158 -49q-71 0 -116.5 50zM290.5 77.5q46.5 57.5 75.5 141.5t29 157q0 48 -17.5 73t-50.5 25q-49 0 -95 -57.5t-75 -141.5t-29 -157q0 -48 17.5 -73
t49.5 -25q49 0 95.5 57.5zM308 580h-30l3 10l83 149h100l-3 -10zM451 580h-30l3 10l83 149h100l-3 -10z" />
    <glyph glyph-name="OE" unicode="&#x152;" horiz-adv-x="1002" 
d="M223.5 27q-67.5 39 -105.5 109.5t-38 161.5q0 108 51.5 203.5t144.5 153t210 57.5q82 0 151 -12h451l-51 -169h-14l-23 135h-255l-87 -282h168l76 90h13l-66 -214h-13l-20 90h-168l-97 -316h269l124 173h13l-63 -207h-418q-48 -12 -98 -12q-87 0 -154.5 39zM443 37
l182 596q-58 43 -145 43q-84 0 -151 -53.5t-105 -145t-38 -203.5q0 -74 24.5 -131t68.5 -88t101 -31q34 0 63 13z" />
    <glyph glyph-name="oe" unicode="&#x153;" horiz-adv-x="804" 
d="M481 231q-3 -18 -3 -37q0 -59 28.5 -93t73.5 -34q42 0 75 21.5t67 70.5l21 -13q-76 -158 -202 -158q-49 0 -86.5 24.5t-56.5 67.5q-40 -43 -92.5 -67.5t-114.5 -24.5q-46 0 -83 22.5t-58 64.5t-21 99q0 78 37.5 155.5t106.5 127t158 49.5q50 0 89.5 -27t58.5 -76
q44 48 98.5 75.5t114.5 27.5q53 0 83.5 -23t30.5 -63q0 -66 -83.5 -115t-239.5 -66zM293 77q46 57 74 141t28 158q0 47 -18 72.5t-51 25.5q-51 0 -97.5 -57t-74.5 -141.5t-28 -157.5q0 -47 18.5 -72.5t50.5 -25.5q52 0 98 57zM604 442.5q-39 -27.5 -69.5 -73.5t-45.5 -98
q109 16 173.5 58.5t64.5 97.5q0 20 -12.5 31.5t-32.5 11.5q-39 0 -78 -27.5z" />
    <glyph glyph-name="Racute" unicode="&#x154;" horiz-adv-x="670" 
d="M596 409q-69 -52 -174 -58l94 -298l63 -39l-4 -14h-161l-97 340h-70l-88 -287l67 -39l-4 -14h-269l4 14l91 39l182 594l-67 39l4 14h275q108 0 165.5 -41.5t57.5 -112.5q0 -85 -69 -137zM358 374q56 0 102 21.5t73 61t27 91.5q0 57 -34 87.5t-96 30.5h-83l-90 -292h101z
M438 786h-32l3 10l96 149h119l-3 -10z" />
    <glyph glyph-name="racute" unicode="&#x155;" horiz-adv-x="507" 
d="M2 0l179 424l-101 -42l-10 17l95 69q51 35 84 35q38 0 38 -42q0 -18 -9 -44l-22 -58q40 67 91 107t106 40q36 0 56 -19.5t20 -52.5q0 -30 -18 -48.5t-45 -18.5q-25 0 -41.5 16t-16.5 40q0 21 14 42q-64 -4 -133 -97t-137 -257l-46 -111h-104zM383 580h-32l3 10l96 149
h119l-3 -10z" />
    <glyph glyph-name="uni0156" unicode="&#x156;" horiz-adv-x="670" 
d="M596 409q-69 -52 -174 -58l94 -298l63 -39l-4 -14h-161l-97 340h-70l-88 -287l67 -39l-4 -14h-269l4 14l91 39l182 594l-67 39l4 14h275q108 0 165.5 -41.5t57.5 -112.5q0 -85 -69 -137zM358 374q56 0 102 21.5t73 61t27 91.5q0 57 -34 87.5t-96 30.5h-83l-90 -292h101z
M175 -247q45 6 75.5 25.5t43.5 47.5q-5 -2 -16 -2q-22 0 -39 16.5t-17 39.5q0 29 20 48t51 19q29 0 48 -18.5t19 -47.5q0 -68 -52.5 -108.5t-139.5 -42.5z" />
    <glyph glyph-name="uni0157" unicode="&#x157;" horiz-adv-x="507" 
d="M2 0l179 424l-101 -42l-10 17l95 69q51 35 84 35q38 0 38 -42q0 -18 -9 -44l-22 -58q40 67 91 107t106 40q36 0 56 -19.5t20 -52.5q0 -30 -18 -48.5t-45 -18.5q-25 0 -41.5 16t-16.5 40q0 21 14 42q-64 -4 -133 -97t-137 -257l-46 -111h-104zM-94 -247q45 6 75.5 25.5
t43.5 47.5q-5 -2 -16 -2q-22 0 -39 16.5t-17 39.5q0 29 20 48t51 19q29 0 48 -18.5t19 -47.5q0 -68 -52.5 -108.5t-139.5 -42.5z" />
    <glyph glyph-name="Rcaron" unicode="&#x158;" horiz-adv-x="670" 
d="M596 409q-69 -52 -174 -58l94 -298l63 -39l-4 -14h-161l-97 340h-70l-88 -287l67 -39l-4 -14h-269l4 14l91 39l182 594l-67 39l4 14h275q108 0 165.5 -41.5t57.5 -112.5q0 -85 -69 -137zM358 374q56 0 102 21.5t73 61t27 91.5q0 57 -34 87.5t-96 30.5h-83l-90 -292h101z
M484 786h-70l-46 149l3 10h27l65 -93l124 93h30l-3 -10z" />
    <glyph glyph-name="rcaron" unicode="&#x159;" horiz-adv-x="507" 
d="M2 0l179 424l-101 -42l-10 17l95 69q51 35 84 35q38 0 38 -42q0 -18 -9 -44l-22 -58q40 67 91 107t106 40q36 0 56 -19.5t20 -52.5q0 -30 -18 -48.5t-45 -18.5q-25 0 -41.5 16t-16.5 40q0 21 14 42q-64 -4 -133 -97t-137 -257l-46 -111h-104zM429 580h-70l-46 149l3 10
h27l65 -93l124 93h30l-3 -10z" />
    <glyph glyph-name="Sacute" unicode="&#x15a;" horiz-adv-x="522" 
d="M92 10q-58 22 -94 54l63 196h16l5 -134q13 -50 45 -77t82 -27q63 0 100.5 38.5t37.5 98.5q0 48 -23 83.5t-76 79.5q-54 43 -82.5 86t-28.5 103q0 62 31 107.5t81.5 69.5t106.5 24q111 0 192 -52l-46 -153h-16l-13 100q-23 35 -51 53t-71 18q-48 0 -84 -32t-36 -81
t27 -86.5t83 -82.5q55 -44 83.5 -85t28.5 -98q0 -65 -32 -116t-88 -80t-126 -29q-57 0 -115 22zM400 786h-32l3 10l96 149h119l-3 -10z" />
    <glyph glyph-name="sacute" unicode="&#x15b;" horiz-adv-x="391" 
d="M47.5 2q-41.5 14 -66.5 36l45 138h15l13 -101q10 -23 32.5 -39.5t51.5 -16.5q38 0 62.5 24t24.5 62q0 29 -16 56t-52 61q-38 35 -57.5 68t-19.5 68q0 65 46 106.5t123 41.5q39 0 75 -10t62 -28l-37 -119h-12l-20 85q-26 39 -73 39q-30 0 -52.5 -18.5t-22.5 -47.5
q0 -25 16 -50.5t51 -55.5q44 -38 63.5 -69.5t19.5 -78.5q0 -48 -23.5 -85.5t-65.5 -58.5t-96 -21q-45 0 -86.5 14zM280 580h-32l3 10l96 149h119l-3 -10z" />
    <glyph glyph-name="Scircumflex" unicode="&#x15c;" horiz-adv-x="522" 
d="M92 10q-58 22 -94 54l63 196h16l5 -134q13 -50 45 -77t82 -27q63 0 100.5 38.5t37.5 98.5q0 48 -23 83.5t-76 79.5q-54 43 -82.5 86t-28.5 103q0 62 31 107.5t81.5 69.5t106.5 24q111 0 192 -52l-46 -153h-16l-13 100q-23 35 -51 53t-71 18q-48 0 -84 -32t-36 -81
t27 -86.5t83 -82.5q55 -44 83.5 -85t28.5 -98q0 -65 -32 -116t-88 -80t-126 -29q-57 0 -115 22zM314 786h-30l3 10l130 149h69l47 -149l-3 -10h-27l-65 92z" />
    <glyph glyph-name="scircumflex" unicode="&#x15d;" horiz-adv-x="391" 
d="M47.5 2q-41.5 14 -66.5 36l45 138h15l13 -101q10 -23 32.5 -39.5t51.5 -16.5q38 0 62.5 24t24.5 62q0 29 -16 56t-52 61q-38 35 -57.5 68t-19.5 68q0 65 46 106.5t123 41.5q39 0 75 -10t62 -28l-37 -119h-12l-20 85q-26 39 -73 39q-30 0 -52.5 -18.5t-22.5 -47.5
q0 -25 16 -50.5t51 -55.5q44 -38 63.5 -69.5t19.5 -78.5q0 -48 -23.5 -85.5t-65.5 -58.5t-96 -21q-45 0 -86.5 14zM194 580h-30l3 10l130 149h69l47 -149l-3 -10h-27l-65 92z" />
    <glyph glyph-name="Scedilla" unicode="&#x15e;" horiz-adv-x="522" 
d="M548 660l-46 -153h-16l-13 100q-23 35 -51 53t-71 18q-48 0 -84 -32t-36 -81t27 -86.5t83 -82.5q55 -44 83.5 -85t28.5 -98q0 -65 -32 -116t-88 -80t-126 -29h-2l-31 -31q30 -2 48.5 -22t18.5 -48q0 -44 -28.5 -71.5t-85.5 -27.5q-24 0 -44.5 6.5t-32.5 16.5l9 29
q24 -12 57 -12q29 0 45 14t16 37q0 16 -10 26t-29 10q-15 0 -30 -6l-6 8l5 13l66 60q-49 6 -96.5 26.5t-78.5 47.5l63 196h16l5 -134q13 -50 45 -77t82 -27q63 0 100.5 38.5t37.5 98.5q0 48 -23 83.5t-76 79.5q-54 43 -82.5 86t-28.5 103q0 62 31 107.5t81.5 69.5t106.5 24
q111 0 192 -52z" />
    <glyph glyph-name="scedilla" unicode="&#x15f;" horiz-adv-x="391" 
d="M324 496q36 -10 62 -28l-37 -119h-12l-20 85q-26 39 -73 39q-30 0 -52.5 -18.5t-22.5 -47.5q0 -25 16 -50.5t51 -55.5q44 -38 63.5 -69.5t19.5 -78.5q0 -48 -23.5 -85.5t-65.5 -58.5t-96 -21h-15l-31 -31q30 -2 48.5 -22t18.5 -48q0 -44 -28.5 -71.5t-85.5 -27.5
q-24 0 -44.5 6.5t-32.5 16.5l9 29q24 -12 57 -12q29 0 45 14t16 37q0 16 -10 26t-29 10q-15 0 -30 -6l-6 8l5 13l68 62q-33 5 -61 17t-47 29l45 138h15l13 -101q10 -23 32.5 -39.5t51.5 -16.5q38 0 62.5 24t24.5 62q0 29 -16 56t-52 61q-38 35 -57.5 68t-19.5 68
q0 65 46 106.5t123 41.5q39 0 75 -10z" />
    <glyph glyph-name="Scaron" unicode="&#x160;" horiz-adv-x="522" 
d="M92 10q-58 22 -94 54l63 196h16l5 -134q13 -50 45 -77t82 -27q63 0 100.5 38.5t37.5 98.5q0 48 -23 83.5t-76 79.5q-54 43 -82.5 86t-28.5 103q0 62 31 107.5t81.5 69.5t106.5 24q111 0 192 -52l-46 -153h-16l-13 100q-23 35 -51 53t-71 18q-48 0 -84 -32t-36 -81
t27 -86.5t83 -82.5q55 -44 83.5 -85t28.5 -98q0 -65 -32 -116t-88 -80t-126 -29q-57 0 -115 22zM446 786h-70l-46 149l3 10h27l65 -93l124 93h30l-3 -10z" />
    <glyph glyph-name="scaron" unicode="&#x161;" horiz-adv-x="391" 
d="M47.5 2q-41.5 14 -66.5 36l45 138h15l13 -101q10 -23 32.5 -39.5t51.5 -16.5q38 0 62.5 24t24.5 62q0 29 -16 56t-52 61q-38 35 -57.5 68t-19.5 68q0 65 46 106.5t123 41.5q39 0 75 -10t62 -28l-37 -119h-12l-20 85q-26 39 -73 39q-30 0 -52.5 -18.5t-22.5 -47.5
q0 -25 16 -50.5t51 -55.5q44 -38 63.5 -69.5t19.5 -78.5q0 -48 -23.5 -85.5t-65.5 -58.5t-96 -21q-45 0 -86.5 14zM326 580h-70l-46 149l3 10h27l65 -93l124 93h30l-3 -10z" />
    <glyph glyph-name="uni0162" unicode="&#x162;" horiz-adv-x="613" 
d="M666 502h-14l-13 164h-149l-188 -613l70 -39l-4 -14h-132l-43 -43q30 -2 48.5 -22t18.5 -48q0 -44 -28.5 -71.5t-85.5 -27.5q-24 0 -44.5 6.5t-32.5 16.5l9 29q24 -12 57 -12q29 0 45 14t16 37q0 16 -10 26t-29 10q-15 0 -30 -6l-6 8l5 13l77 70h-109l4 14l94 39l188 613
h-143l-120 -164h-14l61 198h562z" />
    <glyph glyph-name="uni0163" unicode="&#x163;" horiz-adv-x="351" 
d="M394 460h-127l-144 -392l133 69l11 -16l-123 -93q-43 -33 -75 -36l-35 -35q30 -2 48.5 -22t18.5 -48q0 -44 -28.5 -71.5t-85.5 -27.5q-24 0 -44.5 6.5t-32.5 16.5l9 29q24 -12 57 -12q29 0 45 14t16 37q0 16 -10 26t-29 10q-15 0 -30 -6l-6 8l5 13l72 66q-22 9 -22 41
q0 19 9 44l137 379h-69l13 34h68l37 101l122 49l-55 -150h128z" />
    <glyph glyph-name="Tcaron" unicode="&#x164;" horiz-adv-x="613" 
d="M726 700l-60 -198h-14l-13 164h-149l-188 -613l70 -39l-4 -14h-274l4 14l94 39l188 613h-143l-120 -164h-14l61 198h562zM510 786h-70l-46 149l3 10h27l65 -93l124 93h30l-3 -10z" />
    <glyph glyph-name="tcaron" unicode="&#x165;" horiz-adv-x="351" 
d="M394 460h-127l-144 -392l133 69l11 -16l-123 -93q-49 -37 -84 -37q-20 0 -31.5 12.5t-11.5 34.5q0 19 9 43l137 379h-69l13 34h68l37 101l122 49l-55 -150h128zM379 560q50 20 79.5 49.5t43.5 75.5q-6 -2 -10 -2q-22 0 -37.5 17t-15.5 41q0 32 21 53.5t56 21.5
q27 0 45 -19t18 -49q0 -74 -57 -130.5t-141 -77.5z" />
    <glyph glyph-name="Tbar" unicode="&#x166;" horiz-adv-x="613" 
d="M726 700l-60 -198h-14l-13 164h-149l-92 -299h125l-10 -34h-125l-86 -280l70 -39l-4 -14h-274l4 14l94 39l86 280h-129l10 34h129l92 299h-143l-120 -164h-14l61 198h562z" />
    <glyph glyph-name="tbar" unicode="&#x167;" horiz-adv-x="351" 
d="M394 460h-127l-72 -195h117l-13 -34h-116l-60 -163l133 69l11 -16l-123 -93q-49 -37 -84 -37q-20 0 -31.5 12.5t-11.5 34.5q0 19 9 43l54 150h-56l13 34h56l70 195h-69l13 34h68l37 101l122 49l-55 -150h128z" />
    <glyph glyph-name="Utilde" unicode="&#x168;" horiz-adv-x="712" 
d="M209.5 12.5q-50.5 24.5 -79 70t-28.5 107.5q0 43 15 92l111 365l-66 39l4 14h268l-5 -14l-91 -39l-122 -400q-11 -38 -11 -69q0 -64 38.5 -103.5t103.5 -39.5q80 0 131.5 47.5t81.5 147.5l127 417l-67 39l5 14h197l-4 -14l-92 -39l-132 -432q-33 -109 -94 -168t-176 -59
q-64 0 -114.5 24.5zM592.5 813q-16.5 7 -37.5 20q-19 12 -33.5 18.5t-30.5 6.5q-20 0 -36.5 -12t-32.5 -35l-18 9q21 55 45.5 81t62.5 26q20 0 36 -7t38 -21q19 -13 33 -19t30 -6q20 0 36.5 12t32.5 36l18 -9q-21 -55 -45 -81t-63 -26q-19 0 -35.5 7z" />
    <glyph glyph-name="utilde" unicode="&#x169;" 
d="M52 11.5q-23 21.5 -23 61.5q0 42 28 99l127 254l-103 -42l-10 18l95 68q52 37 87 37q20 0 30.5 -10.5t10.5 -30.5q0 -21 -13 -47l-133 -277q-14 -31 -14 -50q0 -34 38 -34q42 0 93 47t102.5 129t92.5 183l33 77h104l-178 -421l101 42l10 -18l-95 -68q-49 -36 -85 -36
q-19 0 -29.5 11t-10.5 30q0 23 11 46l47 113q-54 -87 -121 -145t-133 -58q-39 0 -62 21.5zM462.5 607q-16.5 7 -37.5 20q-19 12 -33.5 18.5t-30.5 6.5q-20 0 -36.5 -12t-32.5 -35l-18 9q21 55 45.5 81t62.5 26q20 0 36 -7t38 -21q19 -13 33 -19t30 -6q20 0 36.5 12t32.5 36
l18 -9q-21 -55 -45 -81t-63 -26q-19 0 -35.5 7z" />
    <glyph glyph-name="Umacron" unicode="&#x16a;" horiz-adv-x="712" 
d="M209.5 12.5q-50.5 24.5 -79 70t-28.5 107.5q0 43 15 92l111 365l-66 39l4 14h268l-5 -14l-91 -39l-122 -400q-11 -38 -11 -69q0 -64 38.5 -103.5t103.5 -39.5q80 0 131.5 47.5t81.5 147.5l127 417l-67 39l5 14h197l-4 -14l-92 -39l-132 -432q-33 -109 -94 -168t-176 -59
q-64 0 -114.5 24.5zM690 835h-258l13 44h258z" />
    <glyph glyph-name="umacron" unicode="&#x16b;" 
d="M52 11.5q-23 21.5 -23 61.5q0 42 28 99l127 254l-103 -42l-10 18l95 68q52 37 87 37q20 0 30.5 -10.5t10.5 -30.5q0 -21 -13 -47l-133 -277q-14 -31 -14 -50q0 -34 38 -34q42 0 93 47t102.5 129t92.5 183l33 77h104l-178 -421l101 42l10 -18l-95 -68q-49 -36 -85 -36
q-19 0 -29.5 11t-10.5 30q0 23 11 46l47 113q-54 -87 -121 -145t-133 -58q-39 0 -62 21.5zM560 629h-258l13 44h258z" />
    <glyph glyph-name="Ubreve" unicode="&#x16c;" horiz-adv-x="712" 
d="M209.5 12.5q-50.5 24.5 -79 70t-28.5 107.5q0 43 15 92l111 365l-66 39l4 14h268l-5 -14l-91 -39l-122 -400q-11 -38 -11 -69q0 -64 38.5 -103.5t103.5 -39.5q80 0 131.5 47.5t81.5 147.5l127 417l-67 39l5 14h197l-4 -14l-92 -39l-132 -432q-33 -109 -94 -168t-176 -59
q-64 0 -114.5 24.5zM490.5 814.5q-26.5 27.5 -26.5 74.5q0 26 9 56h26q-1 -6 -1 -17q0 -32 17 -53t51 -21q46 0 77 26t46 65h26q-25 -82 -59.5 -120t-96.5 -38q-42 0 -68.5 27.5z" />
    <glyph glyph-name="ubreve" unicode="&#x16d;" 
d="M52 11.5q-23 21.5 -23 61.5q0 42 28 99l127 254l-103 -42l-10 18l95 68q52 37 87 37q20 0 30.5 -10.5t10.5 -30.5q0 -21 -13 -47l-133 -277q-14 -31 -14 -50q0 -34 38 -34q42 0 93 47t102.5 129t92.5 183l33 77h104l-178 -421l101 42l10 -18l-95 -68q-49 -36 -85 -36
q-19 0 -29.5 11t-10.5 30q0 23 11 46l47 113q-54 -87 -121 -145t-133 -58q-39 0 -62 21.5zM360.5 608.5q-26.5 27.5 -26.5 74.5q0 26 9 56h26q-1 -6 -1 -17q0 -32 17 -53t51 -21q46 0 77 26t46 65h26q-25 -82 -59.5 -120t-96.5 -38q-42 0 -68.5 27.5z" />
    <glyph glyph-name="Uring" unicode="&#x16e;" horiz-adv-x="712" 
d="M209.5 12.5q-50.5 24.5 -79 70t-28.5 107.5q0 43 15 92l111 365l-66 39l4 14h268l-5 -14l-91 -39l-122 -400q-11 -38 -11 -69q0 -64 38.5 -103.5t103.5 -39.5q80 0 131.5 47.5t81.5 147.5l127 417l-67 39l5 14h197l-4 -14l-92 -39l-132 -432q-33 -109 -94 -168t-176 -59
q-64 0 -114.5 24.5zM491.5 790.5q-23.5 21.5 -23.5 55.5q0 46 33 80t87 34q34 0 57.5 -21.5t23.5 -56.5q0 -46 -32.5 -79.5t-87.5 -33.5q-34 0 -57.5 21.5zM604.5 819.5q20.5 28.5 20.5 66.5q0 22 -11.5 36.5t-29.5 14.5q-31 0 -51 -28.5t-20 -65.5q0 -23 11 -37.5t29 -14.5
q31 0 51.5 28.5z" />
    <glyph glyph-name="uring" unicode="&#x16f;" 
d="M52 11.5q-23 21.5 -23 61.5q0 42 28 99l127 254l-103 -42l-10 18l95 68q52 37 87 37q20 0 30.5 -10.5t10.5 -30.5q0 -21 -13 -47l-133 -277q-14 -31 -14 -50q0 -34 38 -34q42 0 93 47t102.5 129t92.5 183l33 77h104l-178 -421l101 42l10 -18l-95 -68q-49 -36 -85 -36
q-19 0 -29.5 11t-10.5 30q0 23 11 46l47 113q-54 -87 -121 -145t-133 -58q-39 0 -62 21.5zM361.5 584.5q-23.5 21.5 -23.5 55.5q0 46 33 80t87 34q34 0 57.5 -21.5t23.5 -56.5q0 -46 -32.5 -79.5t-87.5 -33.5q-34 0 -57.5 21.5zM474.5 613.5q20.5 28.5 20.5 66.5
q0 22 -11.5 36.5t-29.5 14.5q-31 0 -51 -28.5t-20 -65.5q0 -23 11 -37.5t29 -14.5q31 0 51.5 28.5z" />
    <glyph glyph-name="Uhungarumlaut" unicode="&#x170;" horiz-adv-x="712" 
d="M209.5 12.5q-50.5 24.5 -79 70t-28.5 107.5q0 43 15 92l111 365l-66 39l4 14h268l-5 -14l-91 -39l-122 -400q-11 -38 -11 -69q0 -64 38.5 -103.5t103.5 -39.5q80 0 131.5 47.5t81.5 147.5l127 417l-67 39l5 14h197l-4 -14l-92 -39l-132 -432q-33 -109 -94 -168t-176 -59
q-64 0 -114.5 24.5zM490 786h-30l3 10l83 149h100l-3 -10zM633 786h-30l3 10l83 149h100l-3 -10z" />
    <glyph glyph-name="uhungarumlaut" unicode="&#x171;" 
d="M52 11.5q-23 21.5 -23 61.5q0 42 28 99l127 254l-103 -42l-10 18l95 68q52 37 87 37q20 0 30.5 -10.5t10.5 -30.5q0 -21 -13 -47l-133 -277q-14 -31 -14 -50q0 -34 38 -34q42 0 93 47t102.5 129t92.5 183l33 77h104l-178 -421l101 42l10 -18l-95 -68q-49 -36 -85 -36
q-19 0 -29.5 11t-10.5 30q0 23 11 46l47 113q-54 -87 -121 -145t-133 -58q-39 0 -62 21.5zM360 580h-30l3 10l83 149h100l-3 -10zM503 580h-30l3 10l83 149h100l-3 -10z" />
    <glyph glyph-name="Uogonek" unicode="&#x172;" horiz-adv-x="712" 
d="M625 700h197l-4 -14l-92 -39l-132 -432q-26 -85 -68 -140t-112 -75l-18 -12q-54 -37 -80 -61.5t-26 -51.5q0 -18 10.5 -29t28.5 -11q15 0 39 11l-11 -32q-28 -26 -62 -26q-33 0 -53 20t-20 54q0 66 117 126h-15q-64 0 -114.5 24.5t-79 70t-28.5 107.5q0 43 15 92l111 365
l-66 39l4 14h268l-5 -14l-91 -39l-122 -400q-11 -38 -11 -69q0 -64 38.5 -103.5t103.5 -39.5q80 0 131.5 47.5t81.5 147.5l127 417l-67 39z" />
    <glyph glyph-name="uogonek" unicode="&#x173;" 
d="M419 73l101 42l10 -18l-95 -68q-12 -9 -24 -15q-51 -35 -76 -59t-25 -51q0 -18 10.5 -29t28.5 -11q15 0 39 11l-11 -32q-28 -26 -62 -26q-33 0 -53 20t-20 54q0 57 85 108q-17 11 -17 35q0 18 11 46l47 113q-54 -87 -121 -145t-133 -58q-39 0 -62 21.5t-23 61.5
q0 42 28 99l127 254l-103 -42l-10 18l95 68q52 37 87 37q20 0 30.5 -10.5t10.5 -30.5q0 -21 -13 -47l-133 -277q-14 -31 -14 -50q0 -34 38 -34q42 0 93 47t102.5 129t92.5 183l33 77h104z" />
    <glyph glyph-name="Wcircumflex" unicode="&#x174;" horiz-adv-x="945" 
d="M886 686l4 14h180l-4 -14l-91 -39h-8l-194 -320l-219 -312l-10 -15h-23l25 505l-155 -238l-194 -267h-23l29 651l-57 35l5 14h244l-5 -14l-79 -37l-25 -487l110 164l151 192l7 133l-55 35l5 14h239l-4 -14l-76 -35l-31 -477l140 220l188 253h-13zM558 786h-30l3 10
l130 149h69l47 -149l-3 -10h-27l-65 92z" />
    <glyph glyph-name="wcircumflex" unicode="&#x175;" horiz-adv-x="773" 
d="M763.5 487.5q17.5 -18.5 17.5 -49.5q0 -19 -9 -45q-93 -238 -327 -393h-116l50 190q-81 -103 -200 -190h-117l113 426l-103 -42l-10 18l97 69q46 32 75 32q20 0 30.5 -12.5t10.5 -37.5q0 -18 -6 -41l-98 -384q59 45 123 111.5t106 128.5l42 158l-103 -42l-10 18l97 69
q46 32 75 32q19 0 30 -13.5t11 -37.5q0 -17 -6 -40l-98 -384q92 61 170 156t112 190q-27 5 -45.5 23.5t-18.5 41.5q0 30 19 48.5t46 18.5q25 0 42.5 -18.5zM429 580h-30l3 10l130 149h69l47 -149l-3 -10h-27l-65 92z" />
    <glyph glyph-name="Ycircumflex" unicode="&#x176;" horiz-adv-x="633" 
d="M759 700l-4 -14l-83 -33l-269 -336l-80 -264l72 -39l-4 -14h-277l4 14l96 39l76 248l-80 353l-65 32l4 14h250l-4 -14l-68 -31l64 -300l239 297l-49 34l4 14h174zM422 786h-30l3 10l130 149h69l47 -149l-3 -10h-27l-65 92z" />
    <glyph glyph-name="ycircumflex" unicode="&#x177;" horiz-adv-x="500" 
d="M488 487q17 -19 17 -52q0 -22 -7 -46q-40 -145 -125.5 -283.5t-195.5 -226.5t-219 -88q-36 0 -58 20.5t-22 48.5t17.5 46t42.5 18q27 0 44.5 -18.5t17.5 -48.5q0 -14 -3 -27q123 27 242 159h-69l-27 440l-94 -39l-11 16l81 64q40 31 69 31q26 0 41.5 -19t17.5 -57
l22 -400q62 78 109.5 171t71.5 178q-32 4 -50.5 23.5t-18.5 44.5q0 28 17.5 46t45.5 18q27 0 44 -19zM251 580h-30l3 10l130 149h69l47 -149l-3 -10h-27l-65 92z" />
    <glyph glyph-name="Ydieresis" unicode="&#x178;" horiz-adv-x="633" 
d="M759 700l-4 -14l-83 -33l-269 -336l-80 -264l72 -39l-4 -14h-277l4 14l96 39l76 248l-80 353l-65 32l4 14h250l-4 -14l-68 -31l64 -300l239 297l-49 34l4 14h174zM399 826q-19 19 -19 46t19 46t46 19t46 -19t19 -46t-19 -46t-46 -19t-46 19zM590 826q-19 19 -19 46t19 46
t47 19q27 0 46 -19t19 -46t-19 -46t-46 -19q-28 0 -47 19z" />
    <glyph glyph-name="Zacute" unicode="&#x179;" horiz-adv-x="579" 
d="M460 0h-468l10 34l502 632h-246l-131 -175h-13l63 209h458l-10 -34l-496 -632h245l135 175h14zM425 786h-32l3 10l96 149h119l-3 -10z" />
    <glyph glyph-name="zacute" unicode="&#x17a;" horiz-adv-x="445" 
d="M305 92l47 86h22l-14 -130q-4 -29 -19 -43.5t-39 -14.5t-56 16l-164 82l-93 -95l-28 28l376 389l-185 16l-68 -93h-21l19 111q11 60 57 60q15 0 36 -6l193 -56l58 60l30 -30l-341 -350zM307 580h-32l3 10l96 149h119l-3 -10z" />
    <glyph glyph-name="Zdotaccent" unicode="&#x17b;" horiz-adv-x="579" 
d="M460 0h-468l10 34l502 632h-246l-131 -175h-13l63 209h458l-10 -34l-496 -632h245l135 175h14zM408.5 819.5q-19.5 19.5 -19.5 48.5t19.5 48.5t48.5 19.5t48.5 -19.5t19.5 -48.5t-19.5 -48.5t-48.5 -19.5t-48.5 19.5z" />
    <glyph glyph-name="zdotaccent" unicode="&#x17c;" horiz-adv-x="445" 
d="M305 92l47 86h22l-14 -130q-4 -29 -19 -43.5t-39 -14.5t-56 16l-164 82l-93 -95l-28 28l376 389l-185 16l-68 -93h-21l19 111q11 60 57 60q15 0 36 -6l193 -56l58 60l30 -30l-341 -350zM289.5 613.5q-19.5 19.5 -19.5 48.5t19.5 48.5t48.5 19.5t48.5 -19.5t19.5 -48.5
t-19.5 -48.5t-48.5 -19.5t-48.5 19.5z" />
    <glyph glyph-name="Zcaron" unicode="&#x17d;" horiz-adv-x="579" 
d="M460 0h-468l10 34l502 632h-246l-131 -175h-13l63 209h458l-10 -34l-496 -632h245l135 175h14zM471 786h-70l-46 149l3 10h27l65 -93l124 93h30l-3 -10z" />
    <glyph glyph-name="zcaron" unicode="&#x17e;" horiz-adv-x="445" 
d="M305 92l47 86h22l-14 -130q-4 -29 -19 -43.5t-39 -14.5t-56 16l-164 82l-93 -95l-28 28l376 389l-185 16l-68 -93h-21l19 111q11 60 57 60q15 0 36 -6l193 -56l58 60l30 -30l-341 -350zM353 580h-70l-46 149l3 10h27l65 -93l124 93h30l-3 -10z" />
    <glyph glyph-name="florin" unicode="&#x192;" horiz-adv-x="349" 
d="M502 743q27 -21 27 -56q0 -30 -17 -49t-47 -19q-26 0 -43 16t-17 40q0 36 28 54q-46 0 -82.5 -40.5t-67.5 -136.5l-18 -58h129l-12 -34h-128l-101 -319q-61 -191 -130.5 -272t-162.5 -81q-34 0 -55.5 16.5t-21.5 42.5q0 24 16.5 39t37.5 15q29 0 45 -21.5t14 -54.5
q44 10 84 81.5t83 234.5l86 319h-74l12 34h71l6 22q32 119 104 183.5t164 64.5q43 0 70 -21z" />
    <glyph glyph-name="uni01B5" unicode="&#x1b5;" horiz-adv-x="579" 
d="M177 700h458l-10 -34l-235 -299h111l-10 -34h-127l-235 -299h245l135 175h14l-63 -209h-468l10 34l237 299h-112l10 34h130l237 299h-246l-131 -175h-13z" />
    <glyph glyph-name="uni01B6" unicode="&#x1b6;" horiz-adv-x="445" 
d="M305 88l46 87h22l-14 -131q-7 -57 -58 -57q-26 0 -56 15l-164 82l-93 -95l-28 28l207 214h-95l8 34h120l136 141l-184 16l-69 -92h-21l19 110q11 61 57 61q17 0 36 -6l193 -57l58 60l30 -30l-198 -203h89l-8 -34h-114l-110 -113z" />
    <glyph glyph-name="AEacute" unicode="&#x1fc;" horiz-adv-x="964" 
d="M1050 700l-52 -169h-14l-23 135h-255l-87 -282h168l76 90h13l-66 -214h-13l-20 90h-168l-97 -316h270l123 173h14l-64 -207h-541l4 14l91 39l43 139h-258l-125 -147l58 -31l-4 -14h-189l4 14l84 34l527 614l-71 24l4 14h568zM582 647l-359 -421h239l129 421h-9zM816 786
h-32l3 10l96 149h119l-3 -10z" />
    <glyph glyph-name="aeacute" unicode="&#x1fd;" horiz-adv-x="770" 
d="M689 305q-84 -49 -240 -66q-4 -20 -4 -45q0 -59 28 -93t73 -34q42 0 75 21.5t67 70.5l22 -13q-35 -73 -85.5 -115.5t-117.5 -42.5q-40 0 -76 22.5t-59 62.5t-24 90q-34 -74 -89.5 -124.5t-121.5 -50.5q-55 0 -89 38t-34 100q0 87 46 175.5t124 146.5t169 58q89 0 148 -51
q69 51 157 51q54 0 84.5 -23t30.5 -63q0 -66 -84 -115zM444 401q-13 34 -36.5 53t-54.5 19q-57 0 -112.5 -51.5t-90.5 -129.5t-35 -152q0 -39 17.5 -61t48.5 -22q49 0 93.5 54t92.5 163q33 76 77 127zM570 442.5q-39 -27.5 -69 -73.5t-45 -98q108 17 173 59t65 97
q0 20 -12.5 31.5t-33.5 11.5q-39 0 -78 -27.5zM511 580h-32l3 10l96 149h119l-3 -10z" />
    <glyph glyph-name="uni0218" unicode="&#x218;" horiz-adv-x="522" 
d="M92 10q-58 22 -94 54l63 196h16l5 -134q13 -50 45 -77t82 -27q63 0 100.5 38.5t37.5 98.5q0 48 -23 83.5t-76 79.5q-54 43 -82.5 86t-28.5 103q0 62 31 107.5t81.5 69.5t106.5 24q111 0 192 -52l-46 -153h-16l-13 100q-23 35 -51 53t-71 18q-48 0 -84 -32t-36 -81
t27 -86.5t83 -82.5q55 -44 83.5 -85t28.5 -98q0 -65 -32 -116t-88 -80t-126 -29q-57 0 -115 22zM58 -247q45 6 75.5 25.5t43.5 47.5q-5 -2 -16 -2q-22 0 -39 16.5t-17 39.5q0 29 20 48t51 19q29 0 48 -18.5t19 -47.5q0 -68 -52.5 -108.5t-139.5 -42.5z" />
    <glyph glyph-name="uni0219" unicode="&#x219;" horiz-adv-x="391" 
d="M47.5 2q-41.5 14 -66.5 36l45 138h15l13 -101q10 -23 32.5 -39.5t51.5 -16.5q38 0 62.5 24t24.5 62q0 29 -16 56t-52 61q-38 35 -57.5 68t-19.5 68q0 65 46 106.5t123 41.5q39 0 75 -10t62 -28l-37 -119h-12l-20 85q-26 39 -73 39q-30 0 -52.5 -18.5t-22.5 -47.5
q0 -25 16 -50.5t51 -55.5q44 -38 63.5 -69.5t19.5 -78.5q0 -48 -23.5 -85.5t-65.5 -58.5t-96 -21q-45 0 -86.5 14zM-28 -247q45 6 75.5 25.5t43.5 47.5q-5 -2 -16 -2q-22 0 -39 16.5t-17 39.5q0 29 20 48t51 19q29 0 48 -18.5t19 -47.5q0 -68 -52.5 -108.5t-139.5 -42.5z
" />
    <glyph glyph-name="uni021A" unicode="&#x21a;" horiz-adv-x="613" 
d="M726 700l-60 -198h-14l-13 164h-149l-188 -613l70 -39l-4 -14h-274l4 14l94 39l188 613h-143l-120 -164h-14l61 198h562zM77 -247q45 6 75.5 25.5t43.5 47.5q-5 -2 -16 -2q-22 0 -39 16.5t-17 39.5q0 29 20 48t51 19q29 0 48 -18.5t19 -47.5q0 -68 -52.5 -108.5
t-139.5 -42.5z" />
    <glyph glyph-name="uni021B" unicode="&#x21b;" horiz-adv-x="351" 
d="M394 460h-127l-144 -392l133 69l11 -16l-123 -93q-49 -37 -84 -37q-20 0 -31.5 12.5t-11.5 34.5q0 19 9 43l137 379h-69l13 34h68l37 101l122 49l-55 -150h128zM-82 -247q45 6 75.5 25.5t43.5 47.5q-5 -2 -16 -2q-22 0 -39 16.5t-17 39.5q0 29 20 48t51 19q29 0 48 -18.5
t19 -47.5q0 -68 -52.5 -108.5t-139.5 -42.5z" />
    <glyph glyph-name="uni0237" unicode="&#x237;" horiz-adv-x="298" 
d="M-189.5 -194.5q-21.5 17.5 -21.5 44.5q0 25 15.5 40.5t41.5 15.5q22 0 35.5 -13t13.5 -34q0 -26 -14 -42q31 8 52 35.5t48 95.5l192 476l-99 -42l-10 17l96 69q49 35 83 35q20 0 30.5 -10.5t10.5 -30.5q0 -14 -12 -45l-175 -431q-38 -95 -95.5 -146.5t-130.5 -51.5
q-39 0 -60.5 17.5z" />
    <glyph glyph-name="circumflex" unicode="&#x2c6;" horiz-adv-x="277" 
d="M147 580h-30l3 10l130 149h69l47 -149l-3 -10h-27l-65 92z" />
    <glyph glyph-name="caron" unicode="&#x2c7;" horiz-adv-x="277" 
d="M279 580h-70l-46 149l3 10h27l65 -93l124 93h30l-3 -10z" />
    <glyph glyph-name="breve" unicode="&#x2d8;" horiz-adv-x="266" 
d="M179.5 608.5q-26.5 27.5 -26.5 74.5q0 26 9 56h26q-1 -6 -1 -17q0 -32 17 -53t51 -21q46 0 77 26t46 65h26q-25 -82 -59.5 -120t-96.5 -38q-42 0 -68.5 27.5z" />
    <glyph glyph-name="dotaccent" unicode="&#x2d9;" horiz-adv-x="148" 
d="M152.5 613.5q-19.5 19.5 -19.5 48.5t19.5 48.5t48.5 19.5t48.5 -19.5t19.5 -48.5t-19.5 -48.5t-48.5 -19.5t-48.5 19.5z" />
    <glyph glyph-name="ring" unicode="&#x2da;" horiz-adv-x="206" 
d="M151.5 584.5q-23.5 21.5 -23.5 55.5q0 46 33 80t87 34q34 0 57.5 -21.5t23.5 -56.5q0 -46 -32.5 -79.5t-87.5 -33.5q-34 0 -57.5 21.5zM264.5 613.5q20.5 28.5 20.5 66.5q0 22 -11.5 36.5t-29.5 14.5q-31 0 -51 -28.5t-20 -65.5q0 -23 11 -37.5t29 -14.5q31 0 51.5 28.5z
" />
    <glyph glyph-name="ogonek" unicode="&#x2db;" horiz-adv-x="151" 
d="M-96 -192q-20 20 -20 54q0 47 53 86.5t128 68.5h17l-6 -17l-18 -12q-54 -37 -80 -61.5t-26 -51.5q0 -18 10.5 -29t28.5 -11q15 0 39 11l-11 -32q-28 -26 -62 -26q-33 0 -53 20z" />
    <glyph glyph-name="tilde" unicode="&#x2dc;" horiz-adv-x="309" 
d="M303.5 607q-16.5 7 -37.5 20q-19 12 -33.5 18.5t-30.5 6.5q-20 0 -36.5 -12t-32.5 -35l-18 9q21 55 45.5 81t62.5 26q20 0 36 -7t38 -21q19 -13 33 -19t30 -6q20 0 36.5 12t32.5 36l18 -9q-21 -55 -45 -81t-63 -26q-19 0 -35.5 7z" />
    <glyph glyph-name="hungarumlaut" unicode="&#x2dd;" horiz-adv-x="281" 
d="M132 580h-30l3 10l83 149h100l-3 -10zM275 580h-30l3 10l83 149h100l-3 -10z" />
    <glyph glyph-name="gravecomb" unicode="&#x300;" horiz-adv-x="0" 
d="M102 580h-27l-113 149l3 10h110l30 -149z" />
    <glyph glyph-name="acutecomb" unicode="&#x301;" horiz-adv-x="0" 
d="M-39 580h-32l3 10l96 149h119l-3 -10z" />
    <glyph glyph-name="uni0302" unicode="&#x302;" horiz-adv-x="0" 
d="M-130 580h-30l3 10l130 149h69l47 -149l-3 -10h-27l-65 92z" />
    <glyph glyph-name="tildecomb" unicode="&#x303;" horiz-adv-x="0" 
d="M-5.5 607q-16.5 7 -37.5 20q-19 12 -33.5 18.5t-30.5 6.5q-20 0 -36.5 -12t-32.5 -35l-18 9q21 55 45.5 81t62.5 26q20 0 36 -7t38 -21q19 -13 33 -19t30 -6q20 0 36.5 12t32.5 36l18 -9q-21 -55 -45 -81t-63 -26q-19 0 -35.5 7z" />
    <glyph glyph-name="uni0304" unicode="&#x304;" horiz-adv-x="0" 
d="M114 629h-258l13 44h258z" />
    <glyph glyph-name="uni0306" unicode="&#x306;" horiz-adv-x="0" 
d="M-86.5 608.5q-26.5 27.5 -26.5 74.5q0 26 9 56h26q-1 -6 -1 -17q0 -32 17 -53t51 -21q46 0 77 26t46 65h26q-25 -82 -59.5 -120t-96.5 -38q-42 0 -68.5 27.5z" />
    <glyph glyph-name="uni0307" unicode="&#x307;" horiz-adv-x="0" 
d="M3.5 613.5q-19.5 19.5 -19.5 48.5t19.5 48.5t48.5 19.5t48.5 -19.5t19.5 -48.5t-19.5 -48.5t-48.5 -19.5t-48.5 19.5z" />
    <glyph glyph-name="uni0308" unicode="&#x308;" horiz-adv-x="0" 
d="M-177 620q-19 19 -19 46t19 46t46 19t46 -19t19 -46t-19 -46t-46 -19t-46 19zM14 620q-19 19 -19 46t19 46t47 19q27 0 46 -19t19 -46t-19 -46t-46 -19q-28 0 -47 19z" />
    <glyph glyph-name="uni030A" unicode="&#x30a;" horiz-adv-x="0" 
d="M-54.5 584.5q-23.5 21.5 -23.5 55.5q0 46 33 80t87 34q34 0 57.5 -21.5t23.5 -56.5q0 -46 -32.5 -79.5t-87.5 -33.5q-34 0 -57.5 21.5zM58.5 613.5q20.5 28.5 20.5 66.5q0 22 -11.5 36.5t-29.5 14.5q-31 0 -51 -28.5t-20 -65.5q0 -23 11 -37.5t29 -14.5q31 0 51.5 28.5z
" />
    <glyph glyph-name="uni030B" unicode="&#x30b;" horiz-adv-x="0" 
d="M-151 580h-30l3 10l83 149h100l-3 -10zM-8 580h-30l3 10l83 149h100l-3 -10z" />
    <glyph glyph-name="uni030C" unicode="&#x30c;" horiz-adv-x="0" 
d="M2 580h-70l-46 149l3 10h27l65 -93l124 93h30l-3 -10z" />
    <glyph glyph-name="uni0312" unicode="&#x312;" horiz-adv-x="0" 
d="M-16 573.5q-18 20.5 -18 53.5q0 41 25 74.5t69 52t98 18.5l-7 -23q-47 -2 -78 -23t-42 -51q10 2 16 2q23 0 39.5 -15.5t16.5 -39.5q0 -31 -20.5 -50t-52.5 -19q-28 0 -46 20.5z" />
    <glyph glyph-name="uni0326" unicode="&#x326;" horiz-adv-x="0" 
d="M-324 -247q45 6 75.5 25.5t43.5 47.5q-5 -2 -16 -2q-22 0 -39 16.5t-17 39.5q0 29 20 48t51 19q29 0 48 -18.5t19 -47.5q0 -68 -52.5 -108.5t-139.5 -42.5z" />
    <glyph glyph-name="uni0327" unicode="&#x327;" horiz-adv-x="0" 
d="M-180 -43q30 -2 48.5 -22t18.5 -48q0 -44 -28.5 -71.5t-85.5 -27.5q-24 0 -44.5 6.5t-32.5 16.5l9 29q24 -12 57 -12q29 0 45 14t16 37q0 16 -10 26t-29 10q-15 0 -30 -6l-6 8l5 13l96 87h20l-6 -17z" />
    <glyph glyph-name="uni0328" unicode="&#x328;" horiz-adv-x="0" 
d="M-248 -192q-20 20 -20 54q0 47 53 86.5t128 68.5h17l-6 -17l-18 -12q-54 -37 -80 -61.5t-26 -51.5q0 -18 10.5 -29t28.5 -11q15 0 39 11l-11 -32q-28 -26 -62 -26q-33 0 -53 20z" />
    <glyph glyph-name="uni0400" unicode="&#x400;" horiz-adv-x="603" 
d="M689 700l-52 -169h-14l-23 135h-255l-87 -282h168l76 90h13l-66 -214h-13l-20 90h-168l-97 -316h270l123 173h14l-64 -207h-541l4 14l91 39l182 594l-67 39l4 14h522zM475 786h-27l-113 149l3 10h110l30 -149z" />
    <glyph glyph-name="uni0401" unicode="&#x401;" horiz-adv-x="603" 
d="M689 700l-52 -169h-14l-23 135h-255l-87 -282h168l76 90h13l-66 -214h-13l-20 90h-168l-97 -316h270l123 173h14l-64 -207h-541l4 14l91 39l182 594l-67 39l4 14h522zM348 826q-19 19 -19 46t19 46t46 19t46 -19t19 -46t-19 -46t-46 -19t-46 19zM539 826q-19 19 -19 46
t19 46t47 19q27 0 46 -19t19 -46t-19 -46t-46 -19q-28 0 -47 19z" />
    <glyph glyph-name="uni0402" unicode="&#x402;" horiz-adv-x="802" 
d="M371 -115q120 68 196 160.5t76 193.5q0 63 -27 96t-79 33q-37 0 -71.5 -12.5t-74.5 -36.5l-82 -266l73 -39l-5 -14h-277l5 14l95 39l188 613h-156l-115 -164h-14l61 198h606l-61 -198h-13l-17 164h-182l-91 -299q34 25 81.5 42t99.5 17q80 0 124.5 -46t44.5 -126
q0 -83 -50.5 -158.5t-136 -133t-190.5 -92.5z" />
    <glyph glyph-name="uni0403" unicode="&#x403;" horiz-adv-x="578" 
d="M680 700l-55 -178h-14l-26 144h-240l-188 -614l78 -38l-4 -14h-278l4 14l91 39l182 594l-67 39l4 14h513zM456 786h-32l3 10l96 149h119l-3 -10z" />
    <glyph glyph-name="uni0404" unicode="&#x404;" horiz-adv-x="660" 
d="M654 698q53 -14 90 -36l-49 -159h-14l-3 98q-35 77 -142 77q-83 0 -153.5 -41t-118.5 -111.5t-68 -158.5h291l-10 -34h-288q-6 -37 -6 -78q0 -106 47.5 -169.5t127.5 -63.5q52 0 89.5 18t79.5 60l62 97h14l-49 -161q-40 -23 -89.5 -35.5t-117.5 -12.5q-78 0 -140.5 35
t-98 98.5t-35.5 145.5q0 121 57 223t162.5 162t246.5 60q62 0 115 -14z" />
    <glyph glyph-name="uni0405" unicode="&#x405;" horiz-adv-x="522" 
d="M92 10q-58 22 -94 54l63 196h16l5 -134q13 -50 45 -77t82 -27q63 0 100.5 38.5t37.5 98.5q0 48 -23 83.5t-76 79.5q-54 43 -82.5 86t-28.5 103q0 62 31 107.5t81.5 69.5t106.5 24q111 0 192 -52l-46 -153h-16l-13 100q-23 35 -51 53t-71 18q-48 0 -84 -32t-36 -81
t27 -86.5t83 -82.5q55 -44 83.5 -85t28.5 -98q0 -65 -32 -116t-88 -80t-126 -29q-57 0 -115 22z" />
    <glyph glyph-name="uni0406" unicode="&#x406;" horiz-adv-x="324" 
d="M434 700l-4 -14l-91 -39l-182 -594l67 -39l-4 -14h-267l4 14l91 39l182 594l-67 39l4 14h267z" />
    <glyph glyph-name="uni0407" unicode="&#x407;" horiz-adv-x="324" 
d="M434 700l-4 -14l-91 -39l-182 -594l67 -39l-4 -14h-267l4 14l91 39l182 594l-67 39l4 14h267zM213 826q-19 19 -19 46t19 46t46 19t46 -19t19 -46t-19 -46t-46 -19t-46 19zM404 826q-19 19 -19 46t19 46t47 19q27 0 46 -19t19 -46t-19 -46t-46 -19q-28 0 -47 19z" />
    <glyph glyph-name="uni0408" unicode="&#x408;" horiz-adv-x="324" 
d="M430 686l-91 -39l-169 -552q-18 -59 -39.5 -96t-53 -63.5t-84.5 -56.5l-86 -49l-12 20l56 46q37 31 59 68t45 110l175 573l-67 39l4 14h267z" />
    <glyph glyph-name="uni0409" unicode="&#x409;" horiz-adv-x="1027" 
d="M-18.5 7q-19.5 18 -19.5 45q0 33 22.5 55t58.5 22q37 0 59 -30q144 201 238 508l12 40l-66 39l4 14h526l-4 -14l-91 -39l-77 -247h117q107 0 164 -45t57 -127q0 -69 -40 -120.5t-115 -79.5t-178 -28h-315l4 14l91 39l188 613h-219l-26 -85q-53 -177 -118.5 -310.5
t-131.5 -219.5q-26 -34 -46 -48t-48 -14q-27 0 -46.5 18zM643 34q111 0 171.5 52.5t60.5 139.5q0 140 -130 140h-111l-102 -332h111z" />
    <glyph glyph-name="uni040A" unicode="&#x40a;" horiz-adv-x="1086" 
d="M-47 0l4 14l91 39l182 594l-67 39l4 14h267l-4 -14l-91 -39l-76 -249h331l76 249l-67 39l4 14h267l-3 -14l-91 -39l-77 -248h117q108 0 164.5 -44.5t56.5 -126.5q0 -69 -40 -120.5t-115 -79.5t-178 -28h-315l4 14l91 39l95 311h-331l-95 -311l67 -39l-4 -14h-267zM702 34
q111 0 171.5 52.5t60.5 139.5q0 70 -31 104.5t-99 34.5h-111l-102 -331h111z" />
    <glyph glyph-name="uni040B" unicode="&#x40b;" horiz-adv-x="831" 
d="M101 0l3 14l96 39l188 613h-156l-115 -164h-14l61 198h606l-61 -198h-13l-14 164h-184l-92 -297q36 25 81.5 41t97.5 16q72 0 112 -38.5t40 -99.5q0 -27 -9 -57l-56 -184l63 -32l-4 -15h-256l4 15l83 32l56 184q9 29 9 54q0 38 -23.5 60.5t-70.5 22.5q-74 0 -140 -44
l-84 -271l72 -39l-4 -14h-276z" />
    <glyph glyph-name="uni040C" unicode="&#x40c;" horiz-adv-x="676" 
d="M552 686l4 14h206l-4 -14l-103 -37l-290 -255l158 -342l67 -38l-4 -14h-168l-148 333h-27l-86 -280l67 -39l-4 -14h-267l4 14l91 39l182 594l-67 39l4 14h267l-4 -14l-91 -39l-86 -280h26l325 284zM520 786h-32l3 10l96 149h119l-3 -10z" />
    <glyph glyph-name="uni040D" unicode="&#x40d;" horiz-adv-x="764" 
d="M220 0h-267l4 14l91 39l182 594l-67 39l4 14h267l-4 -14l-91 -39l-150 -490l471 460l10 30l-67 39l4 14h267l-3 -14l-91 -39l-183 -594l67 -39l-4 -14h-267l4 14l91 39l150 490l-471 -460l-10 -30l67 -39zM559 786h-27l-113 149l3 10h110l30 -149z" />
    <glyph glyph-name="uni040E" unicode="&#x40e;" horiz-adv-x="660" 
d="M46.5 7q-22.5 19 -22.5 49q0 31 21 51t54 20q29 0 46.5 -17t17.5 -43q0 -12 -3 -21q22 7 44 26.5t51 58.5l14 19l-64 503l-52 32l5 15h227l-5 -15l-64 -32l42 -390l293 390l-48 32l5 15h170l-4 -15l-78 -32l-405 -540q-52 -68 -92.5 -96.5t-96.5 -28.5q-33 0 -55.5 19z
M458 815q-25 28 -25 75q0 29 9 60h26q-2 -8 -2 -23q0 -33 20 -53t59 -20q46 0 82 27t54 69h26q-25 -81 -66.5 -122t-113.5 -41q-44 0 -69 28z" />
    <glyph glyph-name="uni040F" unicode="&#x40f;" horiz-adv-x="736" 
d="M284 -138h-67l42 138h-307l5 14l90 39l182 594l-67 39l4 14h268l-4 -14l-91 -39l-188 -613h303l188 613l-67 39l4 14h267l-4 -14l-91 -39l-182 -594l67 -39l-4 -14h-306z" />
    <glyph glyph-name="uni0410" unicode="&#x410;" horiz-adv-x="676" 
d="M577 700l-44 -652l62 -34l-4 -14h-250l4 14l82 33l12 145h-258l-113 -147l58 -31l-4 -14h-188l4 14l84 34l504 652h51zM470 570l-263 -344h235z" />
    <glyph glyph-name="uni0411" unicode="&#x411;" horiz-adv-x="626" 
d="M-47 0l4 14l91 39l182 594l-67 39l4 14h519l-55 -178h-14l-29 144h-243l-88 -286h104q218 0 218 -154q0 -69 -37.5 -120t-108 -78.5t-165.5 -27.5h-315zM255 34q104 0 161 51t57 135q0 64 -33 95t-98 31h-95l-96 -312h104z" />
    <glyph glyph-name="uni0412" unicode="&#x412;" horiz-adv-x="629" 
d="M-47 0l4 14l91 39l182 594l-67 39l4 14h279q95 0 149.5 -39.5t54.5 -105.5q0 -48 -26.5 -85t-71.5 -58.5t-99 -24.5q59 -12 97 -52t38 -106q0 -70 -39.5 -122t-113.5 -79.5t-174 -27.5h-308zM371 400q80 0 130.5 41.5t50.5 107.5q0 117 -124 117h-85l-82 -266h110z
M257 34q110 0 166 54.5t56 149.5q0 63 -32.5 95.5t-93.5 32.5h-102l-102 -332h108z" />
    <glyph glyph-name="uni0413" unicode="&#x413;" horiz-adv-x="578" 
d="M680 700l-55 -178h-14l-26 144h-240l-188 -614l78 -38l-4 -14h-278l4 14l91 39l182 594l-67 39l4 14h513z" />
    <glyph glyph-name="uni0414" unicode="&#x414;" horiz-adv-x="761" 
d="M-93 -144l54 178h90q87 112 167 261.5t129 311.5l12 40l-67 39l4 14h554l-4 -14l-91 -39l-188 -613h101l-55 -178h-13l-21 144h-545l-114 -144h-13zM457 34l194 632h-245l-19 -62q-50 -166 -126.5 -312.5t-160.5 -257.5h357z" />
    <glyph glyph-name="uni0415" unicode="&#x415;" horiz-adv-x="603" 
d="M689 700l-52 -169h-14l-23 135h-255l-87 -282h168l76 90h13l-66 -214h-13l-20 90h-168l-97 -316h270l123 173h14l-64 -207h-541l4 14l91 39l182 594l-67 39l4 14h522z" />
    <glyph glyph-name="uni0416" unicode="&#x416;" horiz-adv-x="978" 
d="M117 0h-178l4 14l89 39l341 369l-140 227l-79 37l4 14h203l-4 -14l-73 -35l164 -268h28l81 264l-67 39l4 14h267l-4 -14l-91 -39l-81 -264h28l323 268l-52 35l4 14h209l-4 -14l-103 -37l-289 -241l127 -355l64 -39l-4 -14h-165l-122 349h-26l-91 -296l67 -39l-4 -14h-267
l4 14l90 39l91 296h-28z" />
    <glyph glyph-name="uni0417" unicode="&#x417;" horiz-adv-x="529" 
d="M64 5.5q-56 17.5 -86 41.5l55 182h14l4 -123q16 -38 52.5 -61t83.5 -23q51 0 91.5 27.5t63.5 73.5t23 101q0 63 -30.5 98.5t-80.5 35.5h-40l11 34h40q51 0 94.5 24t69 65.5t25.5 91.5t-29 77.5t-74 27.5q-40 0 -73.5 -19t-67.5 -51l-75 -113h-14l51 168q87 49 190 49
q87 0 135 -35t48 -98q0 -80 -55 -132.5t-136 -66.5q55 -10 88.5 -51t33.5 -102q0 -68 -35 -122t-101.5 -85.5t-158.5 -31.5q-61 0 -117 17.5z" />
    <glyph glyph-name="uni0418" unicode="&#x418;" horiz-adv-x="764" 
d="M220 0h-267l4 14l91 39l182 594l-67 39l4 14h267l-4 -14l-91 -39l-150 -490l471 460l10 30l-67 39l4 14h267l-3 -14l-91 -39l-183 -594l67 -39l-4 -14h-267l4 14l91 39l150 490l-471 -460l-10 -30l67 -39z" />
    <glyph glyph-name="uni0419" unicode="&#x419;" horiz-adv-x="764" 
d="M220 0h-267l4 14l91 39l182 594l-67 39l4 14h267l-4 -14l-91 -39l-150 -490l471 460l10 30l-67 39l4 14h267l-3 -14l-91 -39l-183 -594l67 -39l-4 -14h-267l4 14l91 39l150 490l-471 -460l-10 -30l67 -39zM481 815q-25 28 -25 75q0 29 9 60h26q-2 -8 -2 -23q0 -33 20 -53
t59 -20q46 0 82 27t54 69h26q-25 -81 -66.5 -122t-113.5 -41q-44 0 -69 28z" />
    <glyph glyph-name="uni041A" unicode="&#x41a;" horiz-adv-x="676" 
d="M552 686l4 14h206l-4 -14l-103 -37l-290 -255l158 -342l67 -38l-4 -14h-168l-148 333h-27l-86 -280l67 -39l-4 -14h-267l4 14l91 39l182 594l-67 39l4 14h267l-4 -14l-91 -39l-86 -280h26l325 284z" />
    <glyph glyph-name="uni041B" unicode="&#x41b;" horiz-adv-x="715" 
d="M-18.5 7q-19.5 18 -19.5 45q0 33 22.5 55t58.5 22q37 0 59 -30q147 211 238 508l12 40l-66 39l4 14h535l-4 -14l-92 -39l-181 -594l67 -39l-4 -14h-267l4 14l91 39l187 613h-228l-26 -85q-100 -329 -250 -530q-25 -33 -45.5 -47.5t-48.5 -14.5q-27 0 -46.5 18z" />
    <glyph glyph-name="uni041C" unicode="&#x41c;" horiz-adv-x="883" 
d="M993 700l-4 -14l-91 -39l-182 -595l67 -38l-4 -14h-269l4 14l91 39l173 565l-434 -618h-32l-56 596l-166 -543l67 -39l-4 -14h-200l4 14l91 39l182 594l-67 39l4 14h186l48 -552l389 552h203z" />
    <glyph glyph-name="uni041D" unicode="&#x41d;" horiz-adv-x="764" 
d="M874 700l-3 -14l-92 -39l-182 -594l67 -39l-4 -14h-267l4 14l91 39l95 311h-331l-95 -311l67 -39l-4 -14h-267l4 14l91 39l182 594l-67 39l4 14h267l-4 -14l-91 -39l-76 -249h331l76 249l-67 39l4 14h267z" />
    <glyph glyph-name="uni041E" unicode="&#x41e;" horiz-adv-x="796" 
d="M223.5 27q-67.5 39 -105.5 109.5t-38 161.5q0 108 51.5 203t143.5 153t207 58q86 0 154 -39t106 -109.5t38 -161.5q0 -108 -51.5 -203t-143.5 -153t-207 -58q-87 0 -154.5 39zM530 77.5q67 53.5 105 145.5t38 203q0 74 -24 131t-68 88t-101 31q-84 0 -151 -53.5
t-105 -145t-38 -203.5q0 -74 24.5 -131t68.5 -88t101 -31q83 0 150 53.5z" />
    <glyph glyph-name="uni041F" unicode="&#x41f;" horiz-adv-x="764" 
d="M220 0h-267l4 14l91 39l182 594l-67 39l4 14h707l-3 -14l-91 -39l-183 -594l67 -39l-4 -14h-267l4 14l91 39l188 613h-331l-188 -613l67 -39z" />
    <glyph glyph-name="uni0420" unicode="&#x420;" horiz-adv-x="625" 
d="M614.5 655q59.5 -45 59.5 -120q0 -103 -84.5 -159t-238.5 -56h-112l-82 -267l67 -39l-4 -14h-267l4 14l91 38l182 595l-67 39l4 14h282q106 0 165.5 -45zM347 354q111 0 166.5 50t55.5 136q0 60 -33.5 93t-96.5 33h-94l-96 -312h98z" />
    <glyph glyph-name="uni0421" unicode="&#x421;" horiz-adv-x="660" 
d="M206.5 23q-62.5 35 -98 98.5t-35.5 145.5q0 121 57 223t162.5 162t246.5 60q62 0 115 -14t90 -36l-49 -159h-14l-3 98q-35 77 -142 77q-100 0 -181 -58.5t-126.5 -156t-45.5 -208.5q0 -106 47.5 -169.5t127.5 -63.5q52 0 89.5 18t79.5 60l62 97h14l-49 -161
q-40 -23 -89.5 -35.5t-117.5 -12.5q-78 0 -140.5 35z" />
    <glyph glyph-name="uni0422" unicode="&#x422;" horiz-adv-x="613" 
d="M726 700l-60 -198h-14l-13 164h-149l-188 -613l70 -39l-4 -14h-274l4 14l94 39l188 613h-143l-120 -164h-14l61 198h562z" />
    <glyph glyph-name="uni0423" unicode="&#x423;" horiz-adv-x="660" 
d="M46.5 7q-22.5 19 -22.5 49q0 31 21 51t54 20q29 0 46.5 -17t17.5 -43q0 -12 -3 -21q22 7 44 26.5t51 58.5l14 19l-64 503l-52 32l5 15h227l-5 -15l-64 -32l42 -390l293 390l-48 32l5 15h170l-4 -15l-78 -32l-405 -540q-52 -68 -92.5 -96.5t-96.5 -28.5q-33 0 -55.5 19z
" />
    <glyph glyph-name="uni0424" unicode="&#x424;" horiz-adv-x="845" 
d="M214 0l4 14l91 39l16 50q-111 10 -179.5 65.5t-68.5 144.5q0 84 49 147t139 98.5t211 38.5l15 50l-67 39l4 14h266l-4 -14l-91 -39l-16 -50q110 -10 179 -65.5t69 -144.5q0 -84 -49 -147t-139 -98.5t-211 -38.5l-16 -50l67 -39l-3 -14h-266zM464 559q-138 -10 -208 -77.5
t-70 -171.5q0 -76 40 -117.5t110 -51.5zM444 141q138 10 207.5 77.5t69.5 171.5q0 76 -40 118t-110 51z" />
    <glyph glyph-name="uni0425" unicode="&#x425;" horiz-adv-x="711" 
d="M731 686l-85 -34l-221 -267l113 -337l79 -34l-4 -14h-273l4 14l81 31l-91 269l-221 -266l58 -34l-4 -14h-199l4 14l93 37l255 304l-100 297l-65 34l4 14h246l-4 -14l-67 -30l78 -232l186 229l-50 33l4 14h183z" />
    <glyph glyph-name="uni0426" unicode="&#x426;" horiz-adv-x="757" 
d="M610 -144h-14l-23 144h-621l5 14l90 39l182 594l-67 39l4 14h268l-4 -14l-91 -39l-188 -613h303l188 613l-67 39l4 14h267l-4 -14l-91 -39l-188 -613h101z" />
    <glyph glyph-name="uni0427" unicode="&#x427;" horiz-adv-x="709" 
d="M338 0l4 14l90 39l82 265q-45 -29 -89.5 -44.5t-100.5 -15.5q-73 0 -118 42.5t-45 111.5q0 33 12 72l52 168l-63 33l4 15h255l-5 -15l-82 -33l-57 -183q-8 -24 -8 -51q0 -45 27 -72.5t71 -27.5q41 0 83.5 12.5t77.5 35.5l88 286l-62 33l4 15h255l-5 -15l-82 -33
l-184 -599l67 -39l-4 -14h-267z" />
    <glyph glyph-name="uni0428" unicode="&#x428;" horiz-adv-x="1043" 
d="M940 0h-987l4 14l91 39l182 594l-67 39l4 14h267l-4 -14l-91 -39l-188 -613h251l188 613l-67 39l4 14h267l-4 -14l-91 -39l-188 -613h250l188 613l-67 39l4 14h268l-4 -14l-91 -39l-182 -594l67 -39z" />
    <glyph glyph-name="uni0429" unicode="&#x429;" horiz-adv-x="1065" 
d="M917 -144h-13l-23 144h-928l4 14l91 39l182 594l-67 39l4 14h267l-4 -14l-91 -39l-188 -613h251l188 613l-67 39l4 14h267l-4 -14l-91 -39l-188 -613h250l188 613l-67 39l4 14h268l-4 -14l-91 -39l-188 -613h101z" />
    <glyph glyph-name="uni042A" unicode="&#x42a;" horiz-adv-x="803" 
d="M108 0l4 14l91 39l188 613h-154l-118 -144h-13l54 178h430l-4 -14l-91 -39l-76 -247h118q108 0 164.5 -45t56.5 -127q0 -69 -40 -120.5t-115 -79.5t-178 -28h-317zM419 34q111 0 171.5 52.5t60.5 139.5q0 70 -31 105t-99 35h-112l-102 -332h112z" />
    <glyph glyph-name="uni042B" unicode="&#x42b;" horiz-adv-x="924" 
d="M-47 0l4 14l91 39l182 594l-67 39l4 14h267l-4 -14l-91 -39l-76 -247h116q108 0 164.5 -44.5t56.5 -127.5q0 -69 -39.5 -120.5t-114.5 -79.5t-178 -28h-315zM262 34q111 0 171.5 52.5t60.5 139.5q0 70 -31 105t-99 35h-111l-102 -332h111zM1035 700l-4 -14l-91 -39
l-182 -594l67 -39l-4 -14h-267l4 14l91 39l182 594l-67 39l4 14h267z" />
    <glyph glyph-name="uni042C" unicode="&#x42c;" horiz-adv-x="646" 
d="M-47 0l4 14l91 39l182 594l-67 39l4 14h267l-4 -14l-91 -39l-76 -247h116q108 0 164.5 -44.5t56.5 -127.5q0 -69 -39.5 -120.5t-114.5 -79.5t-178 -28h-315zM262 34q111 0 171.5 52.5t60.5 139.5q0 70 -31 105t-99 35h-111l-102 -332h111z" />
    <glyph glyph-name="uni042D" unicode="&#x42d;" horiz-adv-x="661" 
d="M516 675q62 -37 96.5 -104t34.5 -154q0 -117 -52.5 -215t-152 -156t-232.5 -58q-68 0 -128 18t-98 46l49 159h14l1 -89q22 -47 65 -73.5t100 -26.5q79 0 145 41t109.5 112t60.5 158h-292l10 34h287q4 27 4 62q0 114 -46 181.5t-126 67.5q-51 0 -89 -18t-79 -60l-63 -97
h-13l50 164q86 45 205 45q78 0 140 -37z" />
    <glyph glyph-name="uni042E" unicode="&#x42e;" horiz-adv-x="1073" 
d="M920 673q64 -39 100 -109t36 -162q0 -108 -51 -203t-142 -153t-205 -58q-81 0 -145 39t-100 109t-36 162q0 29 5 66h-130l-95 -311l67 -39l-4 -14h-267l4 14l91 39l182 594l-67 39l4 14h267l-4 -14l-91 -39l-76 -249h126q21 87 75 159t134.5 113.5t176.5 41.5
q81 0 145 -39zM804 78.5q67 54.5 106.5 148t39.5 204.5q0 113 -47.5 179t-127.5 66q-79 0 -146 -54.5t-106 -148t-39 -204.5q0 -113 47 -179t127 -66q79 0 146 54.5z" />
    <glyph glyph-name="uni042F" unicode="&#x42f;" horiz-adv-x="660" 
d="M-56 0l4 14l84 39l240 299q-51 15 -81 54t-30 93q0 93 76.5 147t222.5 54h310l-4 -14l-91 -39l-182 -594l67 -39l-4 -14h-267l4 14l91 39l88 287h-92l-265 -340h-171zM482 374l90 292h-108q-91 0 -143 -47t-52 -125q0 -56 31 -88t80 -32h102z" />
    <glyph glyph-name="uni0430" unicode="&#x430;" horiz-adv-x="578" 
d="M47 26.5q-33 38.5 -33 99.5q0 87 47 175.5t127 146.5t174 58q61 0 90 -40l11 28h102l-170 -428l102 45l11 -17l-95 -69q-46 -34 -81 -34q-20 0 -31 11.5t-11 32.5q0 15 8 39l13 34q-41 -56 -81 -88t-98 -32q-52 0 -85 38.5zM293 126.5q56 69.5 102 192.5l23 62q6 18 6 34
q0 26 -16 42t-46 16q-60 0 -117.5 -51.5t-93.5 -129.5t-36 -152q0 -39 17 -61t48 -22q57 0 113 69.5z" />
    <glyph glyph-name="uni0431" unicode="&#x431;" horiz-adv-x="490" 
d="M84.5 42.5q-43.5 54.5 -43.5 146.5q0 102 38 189t108.5 150t164.5 92q89 28 131 52t72 73l20 -4q-24 -94 -60.5 -134t-104.5 -43q-52 -2 -90 -10.5t-70 -27.5q-49 -28 -88 -86t-59 -151q31 69 89.5 111t121.5 42q64 0 102 -41.5t38 -109.5q0 -72 -34.5 -142.5t-93 -115.5
t-125.5 -45q-73 0 -116.5 54.5zM277.5 65q37.5 47 60 113.5t22.5 119.5q0 52 -16.5 79t-46.5 27q-42 0 -80.5 -44t-62 -107.5t-23.5 -118.5q0 -57 17 -86.5t49 -29.5q43 0 80.5 47z" />
    <glyph glyph-name="uni0432" unicode="&#x432;" horiz-adv-x="469" 
d="M393 316.5q-48 -35.5 -115 -43.5q55 -8 90 -38t35 -76q0 -50 -27 -89t-76.5 -60.5t-116.5 -21.5q-74 0 -118 49t-44 126q0 89 37 168t102 127t145 48q65 0 100.5 -27t35.5 -71q0 -56 -48 -91.5zM171 288q79 0 131.5 33.5t52.5 89.5q0 30 -14.5 46.5t-43.5 16.5
q-49 0 -95 -54t-75 -132h44zM273 230.5q-31 25.5 -97 25.5h-59q-16 -56 -16 -100q0 -68 24.5 -102t67.5 -34q30 0 55.5 17.5t40.5 48t15 68.5q0 51 -31 76.5z" />
    <glyph glyph-name="uni0433" unicode="&#x433;" horiz-adv-x="388" 
d="M40.5 23.5q-40.5 35.5 -40.5 95.5q0 74 49.5 118t141.5 69q67 18 93 41t26 58q0 28 -19 44t-51 16q-45 0 -79 -25.5t-53 -77.5l-23 6q44 138 171 138q60 0 96.5 -31t36.5 -83q0 -69 -44 -110t-130 -63q-69 -18 -103.5 -46.5t-34.5 -72.5q0 -32 21 -50.5t52 -18.5
q56 0 90 31.5t68 101.5l24 -8q-58 -168 -191 -168q-60 0 -100.5 35.5z" />
    <glyph glyph-name="uni0434" unicode="&#x434;" horiz-adv-x="514" 
d="M459.5 654.5q43.5 -97.5 43.5 -249.5q0 -98 -39.5 -195t-110 -159.5t-160.5 -62.5q-45 0 -81.5 25t-57 69t-20.5 99q0 90 39.5 164.5t105.5 117.5t142 43q48 0 81 -25q-5 111 -31.5 171t-80.5 60q-45 0 -79.5 -20.5t-63.5 -61.5l-15 13q26 49 73 79t112 30
q99 0 142.5 -97.5zM304.5 77q46.5 57 73 147.5t26.5 184.5v17q-29 40 -78 40q-52 0 -97 -41.5t-72.5 -113.5t-27.5 -157q0 -59 19.5 -96.5t53.5 -37.5q56 0 102.5 57z" />
    <glyph glyph-name="uni0435" unicode="&#x435;" horiz-adv-x="447" 
d="M365 305q-84 -49 -240 -67q-4 -19 -4 -44q0 -59 28 -93t73 -34q42 0 75.5 21.5t67.5 70.5l21 -13q-76 -158 -202 -158q-71 0 -115.5 49.5t-44.5 128.5q0 77 42 156.5t113.5 131.5t155.5 52q53 0 83.5 -23t30.5 -63q0 -66 -84 -115zM246.5 442.5q-38.5 -27.5 -69 -73.5
t-45.5 -98q109 16 173.5 58.5t64.5 97.5q0 20 -12.5 31.5t-33.5 11.5q-39 0 -77.5 -27.5z" />
    <glyph glyph-name="uni0436" unicode="&#x436;" horiz-adv-x="955" 
d="M923.5 483q28.5 -23 28.5 -61q0 -28 -15.5 -43t-40.5 -15q-22 0 -36.5 15t-14.5 36q0 28 19 49q-10 5 -28 5q-37 0 -74 -37t-60.5 -98t-23.5 -130q0 -63 23.5 -100t66.5 -37q33 0 59 23.5t47 68.5l21 -12q-27 -76 -68.5 -117.5t-101.5 -41.5q-40 0 -72 23.5t-50 66.5
t-18 100q0 35 6 66h-70l-89 -244h-92l89 244h-66q-13 -72 -50.5 -130.5t-90 -92t-109.5 -33.5q-49 0 -79.5 23.5t-30.5 60.5q0 28 15.5 43t40.5 15q23 0 37.5 -15t14.5 -36q0 -27 -20 -49q13 -5 28 -5q37 0 74 37t61 98.5t24 129.5q0 62 -24 99.5t-64 37.5q-64 0 -108 -92
l-21 12q58 159 168 159q41 0 73 -23.5t50 -66.5t18 -100q0 -13 -2 -37h74l78 215h92l-78 -215h64q18 65 56 117t88.5 81t104.5 29q48 0 76.5 -23z" />
    <glyph glyph-name="uni0437" unicode="&#x437;" horiz-adv-x="417" 
d="M34 3q-42 15 -66 35l46 142h15l5 -93q12 -32 35 -49.5t63 -17.5q54 0 85 37t31 96q0 47 -20 71.5t-57 24.5h-26l13 32h30q61 0 98.5 34t37.5 90q0 33 -17.5 53t-46.5 20q-57 0 -104 -57l-54 -76h-15l43 129q62 32 137 32q67 0 106 -27t39 -75q0 -56 -38.5 -93t-104.5 -45
q38 -8 60.5 -36t22.5 -69q0 -52 -29 -91t-80.5 -60.5t-117.5 -21.5q-49 0 -91 15z" />
    <glyph glyph-name="uni0438" unicode="&#x438;" 
d="M52 11.5q-23 21.5 -23 61.5q0 42 28 99l127 254l-103 -42l-10 18l95 68q52 37 87 37q20 0 30.5 -10.5t10.5 -30.5q0 -21 -13 -47l-133 -277q-14 -31 -14 -50q0 -34 38 -34q42 0 93 47t102.5 129t92.5 183l33 77h104l-178 -421l101 42l10 -18l-95 -68q-49 -36 -85 -36
q-19 0 -29.5 11t-10.5 30q0 23 11 46l47 113q-54 -87 -121 -145t-133 -58q-39 0 -62 21.5z" />
    <glyph glyph-name="uni0439" unicode="&#x439;" 
d="M52 11.5q-23 21.5 -23 61.5q0 42 28 99l127 254l-103 -42l-10 18l95 68q52 37 87 37q20 0 30.5 -10.5t10.5 -30.5q0 -21 -13 -47l-133 -277q-14 -31 -14 -50q0 -34 38 -34q42 0 93 47t102.5 129t92.5 183l33 77h104l-178 -421l101 42l10 -18l-95 -68q-49 -36 -85 -36
q-19 0 -29.5 11t-10.5 30q0 23 11 46l47 113q-54 -87 -121 -145t-133 -58q-39 0 -62 21.5zM349 609q-25 28 -25 75q0 29 9 60h26q-2 -8 -2 -23q0 -33 20 -53t59 -20q46 0 82 27t54 69h26q-25 -81 -66.5 -122t-113.5 -41q-44 0 -69 28z" />
    <glyph glyph-name="uni043A" unicode="&#x43a;" horiz-adv-x="565" 
d="M-5 0l165 426l-98 -42l-12 17l95 69q50 36 85 36q19 0 29.5 -11t10.5 -31q0 -21 -10 -45l-60 -155q33 22 60.5 51.5t61.5 71.5q48 60 83 89.5t79 29.5q38 0 59.5 -19t21.5 -54q0 -30 -17.5 -48t-44.5 -18q-24 0 -40 16t-16 39q0 17 10 32q-21 -4 -44 -26t-58 -63
q-32 -38 -56 -63t-50 -42l193 -260h-131l-128 217l-86 -217h-102z" />
    <glyph glyph-name="uni043B" unicode="&#x43b;" horiz-adv-x="611" 
d="M-22.5 7q-16.5 16 -16.5 40q0 31 18.5 49.5t50.5 18.5q18 0 33 -9.5t21 -24.5q54 61 106 147.5t82 167.5l19 51l-62 32l6 15h438l-6 -15l-86 -32l-150 -375l100 42l10 -17l-95 -69q-49 -35 -86 -35q-19 0 -29 11t-10 31t10 44l152 383h-148l-24 -67q-41 -114 -99 -208.5
t-115 -154.5q-21 -24 -38 -32.5t-42 -8.5q-23 0 -39.5 16z" />
    <glyph glyph-name="uni043C" unicode="&#x43c;" horiz-adv-x="756" 
d="M-22.5 8q-16.5 17 -16.5 40q0 30 19 48.5t50 18.5q18 0 34 -11.5t22 -27.5q36 49 71 128.5t85 242.5l-55 32l6 15h157l14 -354l266 354h117l-171 -422l100 42l10 -17l-95 -69q-50 -36 -85 -36q-18 0 -28 10.5t-10 29.5t11 47l140 345l-315 -424h-28l-14 411
q-49 -164 -86 -247.5t-77 -131.5q-19 -24 -38 -32.5t-44 -8.5q-23 0 -39.5 17z" />
    <glyph glyph-name="uni043D" unicode="&#x43d;" horiz-adv-x="614" 
d="M434 72l101 42l10 -17l-96 -69q-49 -36 -85 -36q-18 0 -28 11t-10 30q0 20 10 46l66 164h-197l-101 -243h-104l180 426l-99 -43l-11 17l94 68q51 35 85 35q19 0 29 -10.5t10 -29.5q0 -21 -11 -46l-58 -140h196l87 217h104z" />
    <glyph glyph-name="uni043E" unicode="&#x43e;" horiz-adv-x="523" 
d="M74.5 38q-45.5 50 -45.5 136q0 80 37.5 157t106.5 126t158 49q71 0 116.5 -50t45.5 -136q0 -80 -37.5 -157t-106.5 -126t-158 -49q-71 0 -116.5 50zM290.5 77.5q46.5 57.5 75.5 141.5t29 157q0 48 -17.5 73t-50.5 25q-49 0 -95 -57.5t-75 -141.5t-29 -157q0 -48 17.5 -73
t49.5 -25q49 0 95.5 57.5z" />
    <glyph glyph-name="uni043F" unicode="&#x43f;" 
d="M2 0l179 424l-101 -42l-10 17l95 69q51 35 85 35q19 0 29.5 -10.5t10.5 -29.5t-12 -46l-46 -113q53 87 120.5 144.5t133.5 57.5q39 0 61.5 -21.5t22.5 -61.5q0 -44 -27 -98l-127 -255l103 42l10 -17l-95 -69q-50 -36 -87 -36q-19 0 -30 10.5t-11 29.5q0 21 13 47l133 277
q14 31 14 50q0 17 -10 26t-28 9q-42 0 -93 -47t-102 -129t-93 -184l-34 -79h-104z" />
    <glyph glyph-name="uni0440" unicode="&#x440;" horiz-adv-x="561" 
d="M440.5 481.5q44.5 -24.5 67.5 -67.5t23 -97q0 -79 -38 -155t-107.5 -125t-158.5 -49q-64 0 -103 28l-67 -169l66 -32l-7 -15h-249l6 15l82 32l233 596q-54 -26 -110 -72l-16 24q74 63 141 88l27 68l109 27l-28 -73q8 1 24 1q61 0 105.5 -24.5zM327.5 67q46.5 44 73 114.5
t26.5 145.5q0 69 -31.5 107.5t-88.5 38.5h-8l-156 -407q11 -19 33 -31t48 -12q57 0 103.5 44z" />
    <glyph glyph-name="uni0441" unicode="&#x441;" horiz-adv-x="468" 
d="M115.5 12q-39.5 24 -62 68.5t-22.5 102.5q0 87 42.5 161.5t112.5 118t149 43.5q55 0 87.5 -22.5t32.5 -59.5q0 -29 -15.5 -46t-40.5 -17q-23 0 -38.5 15.5t-15.5 36.5q0 15 6 28.5t16 23.5q-13 4 -35 4q-54 0 -101 -35.5t-75.5 -96.5t-28.5 -133q0 -62 30.5 -99.5
t82.5 -37.5q85 0 146 92l21 -12q-68 -159 -202 -159q-50 0 -89.5 24z" />
    <glyph glyph-name="uni0442" unicode="&#x442;" horiz-adv-x="842" 
d="M795 484.5q23 -21.5 23 -60.5q0 -42 -29 -99l-130 -255l103 42l10 -17l-95 -69q-50 -36 -86 -36q-19 0 -29.5 11t-10.5 30t12 46l136 277q15 32 15 51q0 16 -10 25t-28 9q-51 0 -113 -77.5t-141 -240.5l-59 -121h-99l169 354q14 31 14 49q0 36 -38 36q-59 0 -130.5 -99.5
t-138.5 -260.5l-34 -79h-104l179 424l-101 -42l-10 17l95 69q51 35 85 35q19 0 29 -10.5t10 -29.5q0 -21 -11 -46l-42 -105q50 86 109.5 140t121.5 54q38 0 59.5 -22.5t21.5 -61.5q0 -22 -7 -46q95 130 193 130q38 0 61 -21.5z" />
    <glyph glyph-name="uni0443" unicode="&#x443;" horiz-adv-x="500" 
d="M488 487q17 -19 17 -52q0 -22 -7 -46q-40 -145 -125.5 -283.5t-195.5 -226.5t-219 -88q-36 0 -58 20.5t-22 48.5t17.5 46t42.5 18q27 0 44.5 -18.5t17.5 -48.5q0 -14 -3 -27q123 27 242 159h-69l-27 440l-94 -39l-11 16l81 64q40 31 69 31q26 0 41.5 -19t17.5 -57
l22 -400q62 78 109.5 171t71.5 178q-32 4 -50.5 23.5t-18.5 44.5q0 28 17.5 46t45.5 18q27 0 44 -19z" />
    <glyph glyph-name="uni0444" unicode="&#x444;" horiz-adv-x="834" 
d="M125 -200l6 15l82 32l87 227q-26 -38 -65 -62t-85 -24q-60 0 -96.5 41t-36.5 110q0 89 48.5 174t125.5 139t158 54q68 0 102 -36l89 232l-62 23v15l181 30l6 -10l-118 -307q21 21 56 37t72 16q65 0 103 -42t38 -114q0 -84 -47.5 -168.5t-131 -139t-186.5 -54.5
q-46 0 -74 20l-61 -161l65 -32l-6 -15h-250zM283 98.5q41 40.5 77 133.5l61 158q5 11 5 26q0 25 -18.5 40t-47.5 15q-61 0 -116.5 -47.5t-89 -121.5t-33.5 -148q0 -45 19.5 -70.5t54.5 -25.5q47 0 88 40.5zM586.5 77.5q55.5 51.5 89.5 128.5t34 145q0 50 -19.5 77t-55.5 27
q-51 0 -106 -55l-108 -279q-9 -22 -9 -42q0 -24 15 -38.5t45 -14.5q59 0 114.5 51.5z" />
    <glyph glyph-name="uni0445" unicode="&#x445;" horiz-adv-x="544" 
d="M532 490q16 -16 16 -43q0 -26 -15.5 -42t-39.5 -16q-21 0 -37.5 15t-19.5 37l-124 -156l61 -224l86 53l12 -17l-57 -63q-36 -40 -75 -40q-22 0 -38.5 14t-23.5 40l-40 143l-90 -138q-22 -35 -44.5 -48.5t-52.5 -13.5q-28 0 -47 17t-19 44q0 28 16 44.5t43 16.5
q22 0 39 -15t21 -41l123 174l-56 200l-87 -41l-11 16l67 62q38 35 69 35q44 0 62 -64l32 -116l92 122q25 34 46.5 47.5t46.5 13.5q29 0 45 -16z" />
    <glyph glyph-name="uni0446" unicode="&#x446;" 
d="M419 73l101 42l10 -18q-35 -37 -47 -71t-12 -95q0 -59 -33 -95t-86 -36q-24 0 -46.5 12.5t-33.5 34.5l11 11q23 -21 50 -21q24 0 42.5 18.5t24.5 54.5q14 77 59 136l-24 -17q-49 -36 -85 -36q-19 0 -29.5 11t-10.5 30q0 23 11 46l47 113q-54 -87 -121 -145t-133 -58
q-39 0 -62 21.5t-23 61.5q0 42 28 99l127 254l-103 -42l-10 18l95 68q52 37 87 37q20 0 30.5 -10.5t10.5 -30.5q0 -21 -13 -47l-133 -277q-14 -31 -14 -50q0 -34 38 -34q42 0 93 47t102.5 129t92.5 183l33 77h104z" />
    <glyph glyph-name="uni0447" unicode="&#x447;" horiz-adv-x="606" 
d="M425 70l101 42l10 -17l-95 -69q-48 -34 -83 -34q-19 0 -30 11t-11 31t10 43l62 149q-65 -52 -135 -52q-54 0 -85.5 30.5t-31.5 79.5q0 29 14 65l32 75l-103 -42l-10 17l95 69q49 36 85 36q19 0 29 -10.5t10 -29.5q0 -22 -11 -47l-32 -79q-14 -34 -14 -59q0 -27 15 -42
t44 -15q27 0 51.5 9.5t62.5 33.5l96 229h103z" />
    <glyph glyph-name="uni0448" unicode="&#x448;" horiz-adv-x="842" 
d="M661 70l101 42l10 -17l-96 -69q-50 -35 -85 -35q-19 0 -29 10.5t-10 29.5q0 21 11 46l43 105q-51 -87 -110 -140.5t-121 -53.5q-38 0 -59.5 22.5t-21.5 61.5q0 22 7 46q-97 -130 -193 -130q-38 0 -61 21.5t-23 60.5q0 42 29 99l130 255l-103 -42l-10 17l95 69
q50 36 86 36q19 0 29 -10.5t10 -29.5q0 -20 -12 -47l-136 -277q-14 -28 -14 -50q0 -17 10 -26t28 -9q51 0 112.5 77.5t141.5 240.5l58 121h100l-169 -354q-14 -31 -14 -49t9.5 -27t27.5 -9q60 0 131 99t139 261l34 79h104z" />
    <glyph glyph-name="uni0449" unicode="&#x449;" horiz-adv-x="843" 
d="M661 70l101 42l10 -17q-35 -37 -47 -70.5t-12 -93.5q-1 -59 -33.5 -95t-85.5 -36q-24 0 -46.5 12.5t-33.5 34.5l11 11q23 -21 50 -21q24 0 42.5 18.5t24.5 54.5q12 74 56 131l-22 -15q-50 -35 -85 -35q-19 0 -29 10.5t-10 29.5q0 21 11 46l43 105q-51 -87 -110 -140.5
t-121 -53.5q-38 0 -59.5 22.5t-21.5 61.5q0 22 7 46q-97 -130 -193 -130q-38 0 -61 21.5t-23 60.5q0 42 29 99l130 255l-103 -42l-10 17l95 69q49 36 86 36q19 0 29.5 -10.5t10.5 -29.5q0 -21 -13 -47l-136 -277q-14 -28 -14 -50q0 -17 10 -26t28 -9q51 0 112.5 77.5
t141.5 240.5l58 121h100l-169 -354q-14 -31 -14 -49t9.5 -27t27.5 -9q60 0 131 99t139 261l34 79h104z" />
    <glyph glyph-name="uni044A" unicode="&#x44a;" horiz-adv-x="535" 
d="M142.5 24q-32.5 36 -32.5 95q0 42 18 90q22 59 74.5 119.5t133.5 130.5q-68 -46 -125 -46q-38 0 -73 19l-43 -68h-22l49 135q41 -12 69.5 -18.5t60.5 -6.5q36 0 66.5 6.5t62.5 24.5l16 -16q-68 -76 -104 -124t-65 -116q29 40 65 59.5t73 19.5q52 0 81.5 -33.5t29.5 -89.5
q0 -59 -34 -109t-91 -79t-122 -29q-55 0 -87.5 36zM301.5 47q33.5 30 55.5 76.5t22 92.5q0 76 -48 76q-37 0 -70 -33.5t-54 -88.5q-20 -50 -20 -91q0 -62 50 -62q31 0 64.5 30z" />
    <glyph glyph-name="uni044B" unicode="&#x44b;" horiz-adv-x="747" 
d="M416 294.5q29 -33.5 29 -89.5q0 -59 -34.5 -109t-91.5 -79t-121 -29q-58 0 -91.5 35.5t-33.5 93.5q0 47 22 98l88 209l-103 -42l-10 17l95 69q50 36 85 36q40 0 40 -40q0 -20 -12 -47l-58 -140q24 25 53.5 38t61.5 13q52 0 81 -33.5zM272 46q33 29 54 74.5t21 92.5
q0 79 -47 79q-50 0 -101 -68l-23 -55q-22 -52 -22 -91q0 -61 53 -61q32 0 65 29zM581 25q-50 -35 -86 -35q-19 0 -29.5 11t-10.5 30q0 22 11 45l152 348l-101 -42l-10 17l95 69q50 35 85 35q19 0 30 -11t11 -30t-12 -45l-151 -348l101 42l10 -17z" />
    <glyph glyph-name="uni044C" unicode="&#x44c;" horiz-adv-x="503" 
d="M416 294.5q29 -33.5 29 -89.5q0 -59 -34.5 -109t-91.5 -79t-121 -29q-58 0 -91.5 35.5t-33.5 93.5q0 47 22 98l88 209l-103 -42l-10 17l95 69q50 36 85 36q40 0 40 -40q0 -20 -12 -47l-58 -140q24 25 53.5 38t61.5 13q52 0 81 -33.5zM272 46q33 29 54 74.5t21 92.5
q0 79 -47 79q-50 0 -101 -68l-23 -55q-22 -52 -22 -91q0 -61 53 -61q32 0 65 29z" />
    <glyph glyph-name="uni044D" unicode="&#x44d;" horiz-adv-x="455" 
d="M337.5 480.5q39.5 -25.5 62 -72t22.5 -106.5q0 -84 -42 -156.5t-110 -115t-142 -42.5q-62 0 -96 22t-34 61q0 29 16 45.5t42 16.5q23 0 37.5 -15t14.5 -37q0 -15 -6 -28.5t-16 -23.5q13 -4 35 -4q46 0 88 26t72 71.5t40 101.5h-187l10 32h181q1 8 1 23q0 71 -29.5 112.5
t-80.5 41.5q-77 0 -130 -83l-20 12q27 67 73 105.5t109 38.5q50 0 89.5 -25.5z" />
    <glyph glyph-name="uni044E" unicode="&#x44e;" horiz-adv-x="784" 
d="M709.5 456q45.5 -50 45.5 -136q0 -80 -37.5 -157t-106.5 -126t-158 -49q-71 0 -116.5 50t-45.5 136q0 37 7 69h-93l-101 -243h-104l180 426l-99 -43l-11 17l94 68q50 36 85 36q19 0 29 -10.5t10 -30.5q0 -18 -11 -46l-58 -140h88q20 63 60 115t98 83t128 31
q71 0 116.5 -50zM552 77.5q46 57.5 75 141.5t29 157q0 48 -17.5 73t-50.5 25q-49 0 -95 -57.5t-74.5 -141.5t-28.5 -157q0 -48 17.5 -73t49.5 -25q49 0 95 57.5z" />
    <glyph glyph-name="uni044F" unicode="&#x44f;" horiz-adv-x="547" 
d="M266 3.5q-10 11.5 -10 30.5q0 21 11 46l54 130h-59l-163 -210h-158l7 15l80 32l137 173q-66 40 -66 111q0 75 60.5 119t180.5 44h203l-177 -421l102 42l9 -18l-95 -68q-50 -37 -86 -37q-20 0 -30 11.5zM334 242l91 220h-76q-70 0 -107 -36t-37 -92q0 -42 24 -67t64 -25
h41z" />
    <glyph glyph-name="uni0450" unicode="&#x450;" horiz-adv-x="447" 
d="M365 305q-84 -49 -240 -67q-4 -19 -4 -44q0 -59 28 -93t73 -34q42 0 75.5 21.5t67.5 70.5l21 -13q-76 -158 -202 -158q-71 0 -115.5 49.5t-44.5 128.5q0 77 42 156.5t113.5 131.5t155.5 52q53 0 83.5 -23t30.5 -63q0 -66 -84 -115zM246.5 442.5q-38.5 -27.5 -69 -73.5
t-45.5 -98q109 16 173.5 58.5t64.5 97.5q0 20 -12.5 31.5t-33.5 11.5q-39 0 -77.5 -27.5zM372 580h-27l-113 149l3 10h110l30 -149z" />
    <glyph glyph-name="uni0451" unicode="&#x451;" horiz-adv-x="447" 
d="M365 305q-84 -49 -240 -67q-4 -19 -4 -44q0 -59 28 -93t73 -34q42 0 75.5 21.5t67.5 70.5l21 -13q-76 -158 -202 -158q-71 0 -115.5 49.5t-44.5 128.5q0 77 42 156.5t113.5 131.5t155.5 52q53 0 83.5 -23t30.5 -63q0 -66 -84 -115zM246.5 442.5q-38.5 -27.5 -69 -73.5
t-45.5 -98q109 16 173.5 58.5t64.5 97.5q0 20 -12.5 31.5t-33.5 11.5q-39 0 -77.5 -27.5zM244 620q-19 19 -19 46t19 46t46 19t46 -19t19 -46t-19 -46t-46 -19t-46 19zM435 620q-19 19 -19 46t19 46t47 19q27 0 46 -19t19 -46t-19 -46t-46 -19q-28 0 -47 19z" />
    <glyph glyph-name="uni0452" unicode="&#x452;" horiz-adv-x="529" 
d="M508.5 482q23.5 -24 23.5 -64t-22 -85l-166 -347q-45 -96 -100 -147t-126 -51q-39 0 -60.5 17.5t-21.5 44.5q0 24 16 40t41 16q22 0 36 -13t14 -34q0 -26 -14 -42q28 8 47 33.5t53 97.5l189 410q12 26 12 44t-11 27.5t-31 9.5q-43 0 -94 -47.5t-100 -128t-87 -175.5
l-33 -88h-102l223 593h-66l13 34h66l28 75l-62 23v15l181 30l7 -10l-50 -133h175l-13 -34h-175l-107 -287q55 91 120 145.5t128 54.5q45 0 68.5 -24z" />
    <glyph glyph-name="uni0453" unicode="&#x453;" horiz-adv-x="388" 
d="M40.5 23.5q-40.5 35.5 -40.5 95.5q0 74 49.5 118t141.5 69q67 18 93 41t26 58q0 28 -19 44t-51 16q-45 0 -79 -25.5t-53 -77.5l-23 6q44 138 171 138q60 0 96.5 -31t36.5 -83q0 -69 -44 -110t-130 -63q-69 -18 -103.5 -46.5t-34.5 -72.5q0 -32 21 -50.5t52 -18.5
q56 0 90 31.5t68 101.5l24 -8q-58 -168 -191 -168q-60 0 -100.5 35.5zM285 580h-32l3 10l96 149h119l-3 -10z" />
    <glyph glyph-name="uni0454" unicode="&#x454;" horiz-adv-x="468" 
d="M360.5 376.5q-15.5 15.5 -15.5 36.5q0 15 6 28.5t16 23.5q-13 4 -35 4q-45 0 -86.5 -25.5t-71 -71t-40.5 -102.5h185l-10 -32h-180q-2 -22 -2 -34q0 -62 30.5 -99.5t82.5 -37.5q85 0 146 92l21 -12q-68 -159 -202 -159q-50 0 -89.5 24t-62 68.5t-22.5 102.5
q0 87 42.5 161.5t112.5 118t149 43.5q55 0 87.5 -22.5t32.5 -59.5q0 -29 -15.5 -46t-40.5 -17q-23 0 -38.5 15.5z" />
    <glyph glyph-name="uni0455" unicode="&#x455;" horiz-adv-x="391" 
d="M47.5 2q-41.5 14 -66.5 36l45 138h15l13 -101q10 -23 32.5 -39.5t51.5 -16.5q38 0 62.5 24t24.5 62q0 29 -16 56t-52 61q-38 35 -57.5 68t-19.5 68q0 65 46 106.5t123 41.5q39 0 75 -10t62 -28l-37 -119h-12l-20 85q-26 39 -73 39q-30 0 -52.5 -18.5t-22.5 -47.5
q0 -25 16 -50.5t51 -55.5q44 -38 63.5 -69.5t19.5 -78.5q0 -48 -23.5 -85.5t-65.5 -58.5t-96 -21q-45 0 -86.5 14z" />
    <glyph glyph-name="uni0456" unicode="&#x456;" horiz-adv-x="309" 
d="M275.5 613.5q-19.5 19.5 -19.5 48.5t19.5 48.5t48.5 19.5t48.5 -19.5t19.5 -48.5t-19.5 -48.5t-48.5 -19.5t-48.5 19.5zM144 25q-50 -35 -86 -35q-19 0 -29.5 11t-10.5 30q0 22 11 45l152 348l-101 -42l-10 17l95 69q50 35 85 35q19 0 30 -11t11 -30t-12 -45l-151 -348
l101 42l10 -17z" />
    <glyph glyph-name="uni0457" unicode="&#x457;" horiz-adv-x="309" 
d="M144 25q-50 -35 -86 -35q-19 0 -29.5 11t-10.5 30q0 22 11 45l152 348l-101 -42l-10 17l95 69q50 35 85 35q19 0 30 -11t11 -30t-12 -45l-151 -348l101 42l10 -17zM169 620q-19 19 -19 46t19 46t46 19t46 -19t19 -46t-19 -46t-46 -19t-46 19zM360 620q-19 19 -19 46
t19 46t47 19q27 0 46 -19t19 -46t-19 -46t-46 -19q-28 0 -47 19z" />
    <glyph glyph-name="uni0458" unicode="&#x458;" horiz-adv-x="309" 
d="M275.5 613.5q-19.5 19.5 -19.5 48.5t19.5 48.5t48.5 19.5t48.5 -19.5t19.5 -48.5t-19.5 -48.5t-48.5 -19.5t-48.5 19.5zM-184.5 -194.5q-21.5 17.5 -21.5 44.5q0 24 15.5 40t42.5 16q22 0 35.5 -13t13.5 -34q0 -26 -14 -42q31 8 51.5 35t48.5 96l192 476l-99 -42l-11 17
l96 69q50 35 84 35q19 0 29.5 -11t10.5 -30q0 -17 -11 -45l-175 -431q-38 -95 -96 -146.5t-131 -51.5q-39 0 -60.5 17.5z" />
    <glyph glyph-name="uni0459" unicode="&#x459;" horiz-adv-x="791" 
d="M395 23.5q-33 35.5 -33 93.5q0 46 21 98l103 247h-151l-24 -67q-41 -114 -99 -208.5t-115 -154.5q-21 -24 -38 -32.5t-42 -8.5q-23 0 -39.5 16t-16.5 40q0 31 18.5 49.5t50.5 18.5q18 0 33 -9.5t21 -24.5q53 56 105 143t83 172l19 51l-62 32l6 15h365l-92 -220
q48 54 115 54q52 0 81.5 -33.5t29.5 -89.5q0 -59 -34.5 -109t-91.5 -79t-122 -29q-58 0 -91 35.5zM560 46q33 29 54.5 74.5t21.5 92.5q0 40 -11.5 59.5t-36.5 19.5q-46 0 -102 -69l-21 -54q-22 -52 -22 -91q0 -28 12.5 -44.5t39.5 -16.5q32 0 65 29z" />
    <glyph glyph-name="uni045A" unicode="&#x45a;" horiz-adv-x="773" 
d="M686.5 294.5q29.5 -33.5 29.5 -89.5q0 -59 -34.5 -109t-91.5 -79t-121 -29q-59 0 -92.5 35.5t-33.5 93.5q0 47 22 98l12 28h-172l-101 -243h-104l180 426l-99 -43l-11 17l94 68q51 35 85 35q19 0 29 -10.5t10 -29.5q0 -21 -11 -46l-58 -140h172l91 217h98l-89 -217
q48 51 114 51q52 0 81.5 -33.5zM542 46q33 29 54.5 74.5t21.5 92.5q0 40 -11.5 59.5t-36.5 19.5q-49 0 -100 -67l-23 -56q-22 -52 -22 -91q0 -28 12.5 -44.5t39.5 -16.5q32 0 65 29z" />
    <glyph glyph-name="uni045B" unicode="&#x45b;" horiz-adv-x="563" 
d="M509 482.5q24 -23.5 24 -64.5q0 -40 -23 -85l-133 -266l106 45l10 -17l-94 -69q-48 -35 -85 -35q-20 0 -32 11.5t-12 30.5q0 20 12 44l136 281q12 26 12 44t-11 27.5t-31 9.5q-43 0 -94 -47.5t-100 -127.5t-87 -176l-33 -88h-102l223 593h-66l13 34h66l28 75l-62 23v15
l181 30l7 -10l-50 -133h175l-13 -34h-175l-107 -287q55 91 120 145.5t128 54.5q45 0 69 -23.5z" />
    <glyph glyph-name="uni045C" unicode="&#x45c;" horiz-adv-x="565" 
d="M-5 0l165 426l-98 -42l-12 17l95 69q50 36 85 36q19 0 29.5 -11t10.5 -31q0 -21 -10 -45l-60 -155q33 22 60.5 51.5t61.5 71.5q48 60 83 89.5t79 29.5q38 0 59.5 -19t21.5 -54q0 -30 -17.5 -48t-44.5 -18q-24 0 -40 16t-16 39q0 17 10 32q-21 -4 -44 -26t-58 -63
q-32 -38 -56 -63t-50 -42l193 -260h-131l-128 217l-86 -217h-102zM370 580h-32l3 10l96 149h119l-3 -10z" />
    <glyph glyph-name="uni045D" unicode="&#x45d;" 
d="M52 11.5q-23 21.5 -23 61.5q0 42 28 99l127 254l-103 -42l-10 18l95 68q52 37 87 37q20 0 30.5 -10.5t10.5 -30.5q0 -21 -13 -47l-133 -277q-14 -31 -14 -50q0 -34 38 -34q42 0 93 47t102.5 129t92.5 183l33 77h104l-178 -421l101 42l10 -18l-95 -68q-49 -36 -85 -36
q-19 0 -29.5 11t-10.5 30q0 23 11 46l47 113q-54 -87 -121 -145t-133 -58q-39 0 -62 21.5zM427 580h-27l-113 149l3 10h110l30 -149z" />
    <glyph glyph-name="uni045E" unicode="&#x45e;" horiz-adv-x="500" 
d="M488 487q17 -19 17 -52q0 -22 -7 -46q-40 -145 -125.5 -283.5t-195.5 -226.5t-219 -88q-36 0 -58 20.5t-22 48.5t17.5 46t42.5 18q27 0 44.5 -18.5t17.5 -48.5q0 -14 -3 -27q123 27 242 159h-69l-27 440l-94 -39l-11 16l81 64q40 31 69 31q26 0 41.5 -19t17.5 -57
l22 -400q62 78 109.5 171t71.5 178q-32 4 -50.5 23.5t-18.5 44.5q0 28 17.5 46t45.5 18q27 0 44 -19zM278 609q-25 28 -25 75q0 29 9 60h26q-2 -8 -2 -23q0 -33 20 -53t59 -20q46 0 82 27t54 69h26q-25 -81 -66.5 -122t-113.5 -41q-44 0 -69 28z" />
    <glyph glyph-name="uni045F" unicode="&#x45f;" 
d="M52 11.5q-23 21.5 -23 61.5q0 42 28 99l127 254l-103 -42l-10 18l95 68q52 37 87 37q20 0 30.5 -10.5t10.5 -30.5q0 -21 -13 -47l-133 -277q-14 -31 -14 -50q0 -34 38 -34q42 0 93 47t102.5 129t92.5 183l33 77h104l-178 -421l101 42l10 -18l-95 -68q-49 -36 -85 -36
q-19 0 -29.5 11t-10.5 30q0 23 11 46l47 113q-54 -87 -121 -145t-133 -58q-39 0 -62 21.5zM70 -247q45 6 75.5 25.5t43.5 47.5q-5 -2 -16 -2q-22 0 -39 16.5t-17 39.5q0 29 20 48t51 19q29 0 48 -18.5t19 -47.5q0 -68 -52.5 -108.5t-139.5 -42.5z" />
    <glyph glyph-name="uni0462" unicode="&#x462;" horiz-adv-x="761" 
d="M495 380q111 0 164 -41.5t53 -119.5q0 -104 -84.5 -161.5t-231.5 -57.5h-328l4 14l91 39l153 498h-128l-91 -114h-13l45 148h197l19 62l-67 39l4 14h267l-4 -14l-91 -39l-19 -62h237l-45 -148h-14l-20 114h-168l-53 -171h123zM389 34q105 0 160.5 52t55.5 137
q0 59 -31.5 91t-93.5 32h-118l-96 -312h123z" />
    <glyph glyph-name="uni0463" unicode="&#x463;" horiz-adv-x="535" 
d="M455 462h-133l-74 -193q24 29 55 44t64 15q52 0 81 -33.5t29 -89.5q0 -59 -34.5 -109t-91.5 -79t-121 -29q-59 0 -92 35.5t-33 94.5q0 43 20 97l94 247h-64l-96 -113h-16l52 145h136l79 208l-62 23v15l181 30l7 -10l-102 -266h198l-52 -145h-15zM228 219l-20 -50
q-22 -52 -22 -91q0 -61 53 -61q32 0 65 29t54 74.5t21 92.5q0 79 -47 79q-50 0 -104 -73z" />
    <glyph glyph-name="uni0472" unicode="&#x472;" horiz-adv-x="796" 
d="M636 673q68 -39 106 -109.5t38 -161.5q0 -108 -51.5 -203t-143.5 -153t-207 -58q-87 0 -154.5 39t-105.5 109.5t-38 161.5q0 108 51.5 203t143.5 153t207 58q86 0 154 -39zM347.5 636q-60.5 -40 -100.5 -111t-54 -161q52 47 126 47q36 0 63.5 -9t68.5 -28q34 -17 58 -25
t52 -8q31 0 59 10t51 27q2 32 2 48q0 74 -24 131t-68 88t-101 31q-72 0 -132.5 -40zM512.5 64q60.5 40 100.5 111.5t53 161.5q-51 -48 -127 -48q-36 0 -63.5 9t-68.5 28q-34 17 -58 25t-52 8q-59 0 -109 -37q-2 -32 -2 -48q0 -74 24.5 -131t68.5 -88t101 -31q72 0 132.5 40z
" />
    <glyph glyph-name="uni0473" unicode="&#x473;" horiz-adv-x="523" 
d="M447.5 456q45.5 -50 45.5 -136q0 -80 -37.5 -157t-106.5 -126t-158 -49q-71 0 -116.5 50t-45.5 136q0 80 37.5 157t106.5 126t158 49q71 0 116.5 -50zM233.5 418q-45.5 -56 -75.5 -139q26 18 52 18q19 0 33 -6.5t32 -19.5q16 -12 28 -18t28 -6q25 0 48 13q16 64 16 116
q0 48 -17.5 73t-50.5 25q-48 0 -93.5 -56zM289 76.5q46 56.5 76 139.5q-25 -18 -52 -18q-19 0 -33 6.5t-32 19.5q-16 12 -28 18t-29 6q-25 0 -46 -13q-17 -62 -17 -117q0 -48 17.5 -73t49.5 -25q48 0 94 56.5z" />
    <glyph glyph-name="uni0474" unicode="&#x474;" horiz-adv-x="679" 
d="M228 0h-40l12 651l-57 35l4 14h243l-4 -14l-79 -37l-14 -498l398 549h111l-26 -83h-99z" />
    <glyph glyph-name="uni0475" unicode="&#x475;" horiz-adv-x="592" 
d="M660 494l-27 -81h-88q-63 -130 -150.5 -228.5t-214.5 -184.5h-118l113 426l-103 -42l-10 18l97 69q46 32 75 32q20 0 30.5 -12.5t10.5 -37.5q0 -18 -6 -41l-98 -384q118 89 207 194.5t151 271.5h131z" />
    <glyph glyph-name="uni0490" unicode="&#x490;" horiz-adv-x="576" 
d="M231 0h-278l4 14l91 39l182 594l-68 39l5 14h426l115 144h14l-54 -178h-323l-188 -613l78 -39z" />
    <glyph glyph-name="uni0491" unicode="&#x491;" horiz-adv-x="371" 
d="M144 28q-49 -37 -84 -37q-20 0 -31.5 12.5t-11.5 34.5q0 19 9 43l138 381h-69l12 32h232l110 137h15l-54 -169h-143l-144 -394l133 69l11 -16z" />
    <glyph glyph-name="Wgrave" unicode="&#x1e80;" horiz-adv-x="945" 
d="M886 686l4 14h180l-4 -14l-91 -39h-8l-194 -320l-219 -312l-10 -15h-23l25 505l-155 -238l-194 -267h-23l29 651l-57 35l5 14h244l-5 -14l-79 -37l-25 -487l110 164l151 192l7 133l-55 35l5 14h239l-4 -14l-76 -35l-31 -477l140 220l188 253h-13zM663 786h-27l-113 149
l3 10h110l30 -149z" />
    <glyph glyph-name="wgrave" unicode="&#x1e81;" horiz-adv-x="773" 
d="M763.5 487.5q17.5 -18.5 17.5 -49.5q0 -19 -9 -45q-93 -238 -327 -393h-116l50 190q-81 -103 -200 -190h-117l113 426l-103 -42l-10 18l97 69q46 32 75 32q20 0 30.5 -12.5t10.5 -37.5q0 -18 -6 -41l-98 -384q59 45 123 111.5t106 128.5l42 158l-103 -42l-10 18l97 69
q46 32 75 32q19 0 30 -13.5t11 -37.5q0 -17 -6 -40l-98 -384q92 61 170 156t112 190q-27 5 -45.5 23.5t-18.5 41.5q0 30 19 48.5t46 18.5q25 0 42.5 -18.5zM534 580h-27l-113 149l3 10h110l30 -149z" />
    <glyph glyph-name="Wacute" unicode="&#x1e82;" horiz-adv-x="945" 
d="M886 686l4 14h180l-4 -14l-91 -39h-8l-194 -320l-219 -312l-10 -15h-23l25 505l-155 -238l-194 -267h-23l29 651l-57 35l5 14h244l-5 -14l-79 -37l-25 -487l110 164l151 192l7 133l-55 35l5 14h239l-4 -14l-76 -35l-31 -477l140 220l188 253h-13zM644 786h-32l3 10
l96 149h119l-3 -10z" />
    <glyph glyph-name="wacute" unicode="&#x1e83;" horiz-adv-x="773" 
d="M763.5 487.5q17.5 -18.5 17.5 -49.5q0 -19 -9 -45q-93 -238 -327 -393h-116l50 190q-81 -103 -200 -190h-117l113 426l-103 -42l-10 18l97 69q46 32 75 32q20 0 30.5 -12.5t10.5 -37.5q0 -18 -6 -41l-98 -384q59 45 123 111.5t106 128.5l42 158l-103 -42l-10 18l97 69
q46 32 75 32q19 0 30 -13.5t11 -37.5q0 -17 -6 -40l-98 -384q92 61 170 156t112 190q-27 5 -45.5 23.5t-18.5 41.5q0 30 19 48.5t46 18.5q25 0 42.5 -18.5zM515 580h-32l3 10l96 149h119l-3 -10z" />
    <glyph glyph-name="Wdieresis" unicode="&#x1e84;" horiz-adv-x="945" 
d="M886 686l4 14h180l-4 -14l-91 -39h-8l-194 -320l-219 -312l-10 -15h-23l25 505l-155 -238l-194 -267h-23l29 651l-57 35l5 14h244l-5 -14l-79 -37l-25 -487l110 164l151 192l7 133l-55 35l5 14h239l-4 -14l-76 -35l-31 -477l140 220l188 253h-13zM535 826q-19 19 -19 46
t19 46t46 19t46 -19t19 -46t-19 -46t-46 -19t-46 19zM726 826q-19 19 -19 46t19 46t47 19q27 0 46 -19t19 -46t-19 -46t-46 -19q-28 0 -47 19z" />
    <glyph glyph-name="wdieresis" unicode="&#x1e85;" horiz-adv-x="773" 
d="M763.5 487.5q17.5 -18.5 17.5 -49.5q0 -19 -9 -45q-93 -238 -327 -393h-116l50 190q-81 -103 -200 -190h-117l113 426l-103 -42l-10 18l97 69q46 32 75 32q20 0 30.5 -12.5t10.5 -37.5q0 -18 -6 -41l-98 -384q59 45 123 111.5t106 128.5l42 158l-103 -42l-10 18l97 69
q46 32 75 32q19 0 30 -13.5t11 -37.5q0 -17 -6 -40l-98 -384q92 61 170 156t112 190q-27 5 -45.5 23.5t-18.5 41.5q0 30 19 48.5t46 18.5q25 0 42.5 -18.5zM406 620q-19 19 -19 46t19 46t46 19t46 -19t19 -46t-19 -46t-46 -19t-46 19zM597 620q-19 19 -19 46t19 46t47 19
q27 0 46 -19t19 -46t-19 -46t-46 -19q-28 0 -47 19z" />
    <glyph glyph-name="uni1E9E" unicode="&#x1e9e;" horiz-adv-x="687" 
d="M289.5 13.5q-34.5 25.5 -34.5 60.5q0 32 18.5 52.5t48.5 20.5q25 0 41.5 -14.5t16.5 -35.5q0 -19 -9.5 -36t-27.5 -29q16 -10 41 -10q47 0 82 27.5t53.5 74t18.5 101.5q0 74 -40 126.5t-113 76.5l270 238h-157q-82 0 -130 -41t-78 -138l-133 -434l67 -39l-4 -14h-267
l4 14l91 39l128 420q27 87 64 135.5t96 70t153 21.5h233l-12 -37l-207 -183q60 -32 99 -87.5t39 -134.5q0 -74 -32.5 -135.5t-92 -98t-138.5 -36.5q-54 0 -88.5 25.5z" />
    <glyph glyph-name="Ygrave" unicode="&#x1ef2;" horiz-adv-x="633" 
d="M759 700l-4 -14l-83 -33l-269 -336l-80 -264l72 -39l-4 -14h-277l4 14l96 39l76 248l-80 353l-65 32l4 14h250l-4 -14l-68 -31l64 -300l239 297l-49 34l4 14h174zM527 786h-27l-113 149l3 10h110l30 -149z" />
    <glyph glyph-name="ygrave" unicode="&#x1ef3;" horiz-adv-x="500" 
d="M488 487q17 -19 17 -52q0 -22 -7 -46q-40 -145 -125.5 -283.5t-195.5 -226.5t-219 -88q-36 0 -58 20.5t-22 48.5t17.5 46t42.5 18q27 0 44.5 -18.5t17.5 -48.5q0 -14 -3 -27q123 27 242 159h-69l-27 440l-94 -39l-11 16l81 64q40 31 69 31q26 0 41.5 -19t17.5 -57
l22 -400q62 78 109.5 171t71.5 178q-32 4 -50.5 23.5t-18.5 44.5q0 28 17.5 46t45.5 18q27 0 44 -19zM356 580h-27l-113 149l3 10h110l30 -149z" />
    <glyph glyph-name="endash" unicode="&#x2013;" horiz-adv-x="601" 
d="M560 286h-495l16 52h494z" />
    <glyph glyph-name="emdash" unicode="&#x2014;" horiz-adv-x="831" 
d="M790 286h-725l16 52h725z" />
    <glyph glyph-name="quoteleft" unicode="&#x2018;" horiz-adv-x="277" 
d="M177 489.5q-22 25.5 -22 61.5q0 82 61.5 133.5t168.5 75.5l5 -22q-146 -46 -167 -130q5 1 14 1q29 0 49.5 -20.5t20.5 -48.5q0 -34 -21 -55t-54 -21t-55 25.5z" />
    <glyph glyph-name="quoteright" unicode="&#x2019;" horiz-adv-x="277" 
d="M110 486q148 49 167 130q-4 -1 -13 -1q-29 0 -50 20t-21 49q0 34 21 55t54 21t55 -25.5t22 -61.5q0 -82 -61.5 -133.5t-168.5 -75.5z" />
    <glyph glyph-name="quotesinglbase" unicode="&#x201a;" horiz-adv-x="277" 
d="M-79 -134q148 49 167 130q-4 -1 -13 -1q-29 0 -50 20t-21 49q0 34 21 55t54 21t55 -25.5t22 -61.5q0 -82 -61.5 -133.5t-168.5 -75.5z" />
    <glyph glyph-name="quotedblleft" unicode="&#x201c;" horiz-adv-x="484" 
d="M384 489.5q-22 25.5 -22 61.5q0 82 61.5 133.5t168.5 75.5l5 -22q-146 -46 -167 -130q5 1 14 1q29 0 49.5 -20.5t20.5 -48.5q0 -34 -21 -55t-54 -21t-55 25.5zM177 489.5q-22 25.5 -22 61.5q0 82 61.5 133.5t168.5 75.5l5 -22q-146 -46 -167 -130q5 1 14 1
q29 0 49.5 -20.5t20.5 -48.5q0 -34 -21 -55t-54 -21t-55 25.5z" />
    <glyph glyph-name="quotedblright" unicode="&#x201d;" horiz-adv-x="484" 
d="M317 486q148 49 167 130q-4 -1 -13 -1q-29 0 -50 20t-21 49q0 34 21 55t54 21t55 -25.5t22 -61.5q0 -82 -61.5 -133.5t-168.5 -75.5zM110 486q148 49 167 130q-4 -1 -13 -1q-29 0 -50 20t-21 49q0 34 21 55t54 21t55 -25.5t22 -61.5q0 -82 -61.5 -133.5t-168.5 -75.5z
" />
    <glyph glyph-name="quotedblbase" unicode="&#x201e;" horiz-adv-x="485" 
d="M-79 -134q148 49 167 130q-4 -1 -13 -1q-29 0 -50 20t-21 49q0 34 21 55t54 21t55 -25.5t22 -61.5q0 -82 -61.5 -133.5t-168.5 -75.5zM128 -134q148 49 167 130q-4 -1 -13 -1q-29 0 -50 20t-21 49q0 34 21 55t54 21t55 -25.5t22 -61.5q0 -82 -61.5 -133.5t-168.5 -75.5z
" />
    <glyph glyph-name="dagger" unicode="&#x2020;" horiz-adv-x="321" 
d="M282 583h103l-10 -32h-102l-7 -97l-107 -226h-10l32 226l54 97h-103l10 32h104l12 117h82z" />
    <glyph glyph-name="daggerdbl" unicode="&#x2021;" horiz-adv-x="322" 
d="M376 551h-102l-4 -87l-50 -88h102l-10 -32h-103l-13 -116h-82l59 116h-104l10 32h103l3 88l51 87h-103l10 32h104l12 117h82l-58 -117h103z" />
    <glyph glyph-name="bullet" unicode="&#x2022;" horiz-adv-x="322" 
d="M120.5 277.5q-29.5 29.5 -29.5 72.5t29.5 72.5t72.5 29.5t72.5 -29.5t29.5 -72.5t-29.5 -72.5t-72.5 -29.5t-72.5 29.5z" />
    <glyph glyph-name="ellipsis" unicode="&#x2026;" horiz-adv-x="820" 
d="M301 12.5q-22 21.5 -22 53.5t22 54t54 22t53.5 -22t21.5 -54t-21.5 -53.5t-53.5 -21.5t-54 21.5zM577 12.5q-22 21.5 -22 53.5t22 54t54 22t53.5 -22t21.5 -54t-21.5 -53.5t-53.5 -21.5t-54 21.5zM25 12.5q-22 21.5 -22 53.5t22 54t54 22t53.5 -22t21.5 -54t-21.5 -53.5
t-53.5 -21.5t-54 21.5z" />
    <glyph glyph-name="perthousand" unicode="&#x2030;" horiz-adv-x="1067" 
d="M166 405q-34 37 -34 94q0 56 25.5 105t72 78.5t106.5 29.5q61 0 95.5 -36.5t34.5 -93.5q0 -56 -26 -105t-73 -79t-107 -30t-94 37zM137 0h-61l672 700h61zM324.5 426q28.5 32 45.5 81.5t17 97.5q0 38 -13.5 59.5t-38.5 21.5q-34 0 -62.5 -32t-45.5 -81.5t-17 -97.5
q0 -38 14 -59.5t38 -21.5q34 0 62.5 32zM453 25q-34 37 -34 94q0 56 25 105t71.5 78.5t106.5 29.5q37 0 64.5 -17.5t43.5 -49.5q25 32 61 49.5t78 17.5q61 0 95.5 -36.5t34.5 -93.5q0 -56 -26 -105t-73 -79t-107 -30q-39 0 -66.5 18t-41.5 50q-25 -32 -60 -50t-78 -18
q-60 0 -94 37zM612.5 46q28.5 32 45.5 81.5t17 97.5q0 38 -14 59.5t-39 21.5q-34 0 -62.5 -32t-45 -81.5t-16.5 -97.5q0 -38 14 -59.5t38 -21.5q34 0 62.5 32zM857.5 46q28.5 32 45.5 81.5t17 97.5q0 38 -13.5 59.5t-38.5 21.5q-34 0 -62.5 -32t-45.5 -81.5t-17 -97.5
q0 -38 14 -59.5t38 -21.5q34 0 62.5 32z" />
    <glyph glyph-name="guilsinglleft" unicode="&#x2039;" horiz-adv-x="248" 
d="M173 106h-33l-93 192l4 10l199 178h39l-137 -196z" />
    <glyph glyph-name="guilsinglright" unicode="&#x203a;" horiz-adv-x="248" 
d="M28 106h-39l137 196l-21 184h33l93 -192l-4 -10z" />
    <glyph glyph-name="fraction" unicode="&#x2044;" horiz-adv-x="234" 
d="M-116 0h-48l576 700h49z" />
    <glyph glyph-name="uni2070" unicode="&#x2070;" horiz-adv-x="334" 
d="M129.5 378.5q-28.5 35.5 -28.5 92.5t26.5 112.5t72 90t98.5 34.5q47 0 75.5 -36t28.5 -92q0 -58 -26.5 -113t-71.5 -89.5t-97 -34.5q-49 0 -77.5 35.5zM270.5 400.5q31.5 39.5 51 98t19.5 112.5q0 39 -11.5 58.5t-32.5 19.5q-33 0 -64 -39.5t-50.5 -98t-19.5 -112.5
q0 -78 44 -78q32 0 63.5 39.5z" />
    <glyph glyph-name="uni2074" unicode="&#x2074;" horiz-adv-x="282" 
d="M296 350h-147l1 5l48 27l20 62h-148l5 19l252 237h36l-66 -219h40l-12 -37h-40l-20 -62l33 -27zM274 625l-149 -144h104z" />
    <glyph glyph-name="uni2075" unicode="&#x2075;" horiz-adv-x="258" 
d="M84 357.5q-23 13.5 -23 34.5q0 18 11 29t28 11q15 0 25 -9.5t10 -21.5t-4.5 -19.5t-13.5 -15.5q10 -5 29 -5q40 0 67 33t27 83q0 31 -17.5 50t-45.5 19q-39 0 -69 -25h-6l66 179h182l-24 -81h-6l-20 34h-126l-36 -92q34 24 75 24q43 0 68 -28t25 -69q0 -66 -44 -105
t-118 -39q-37 0 -60 13.5z" />
    <glyph glyph-name="uni2076" unicode="&#x2076;" horiz-adv-x="292" 
d="M309.5 538q26.5 -24 26.5 -63q0 -57 -39 -94t-101 -37q-46 0 -76 31.5t-30 82.5q0 59 31.5 110.5t90 88t138.5 51.5l1 -11q-68 -21 -114.5 -65.5t-68.5 -101.5q15 14 34.5 23t40.5 9q40 0 66.5 -24zM249.5 394.5q22.5 32.5 22.5 81.5q0 30 -12.5 46t-33.5 16
q-37 0 -66 -35q-9 -31 -9 -63q0 -78 45 -78q31 0 53.5 32.5z" />
    <glyph glyph-name="uni2077" unicode="&#x2077;" horiz-adv-x="239" 
d="M177 350h-72l214 303h-145l-45 -42h-6l27 89h212l-2 -5z" />
    <glyph glyph-name="uni2078" unicode="&#x2078;" horiz-adv-x="260" 
d="M256 549q23 -22 36 -42.5t13 -45.5q0 -53 -34.5 -85t-91.5 -32q-46 0 -74 23t-28 58q0 36 25.5 65t68.5 43q-32 34 -32 75t31.5 68.5t79.5 27.5q42 0 66 -18.5t24 -49.5q0 -59 -84 -87zM283.5 594q11.5 19 11.5 44q0 24 -12 36.5t-35 12.5q-22 0 -37 -14.5t-15 -37.5
q0 -19 11 -37t36 -38l3 -3q26 18 37.5 37zM223.5 380.5q17.5 19.5 17.5 48.5q0 25 -13 44.5t-37 41.5l-10 8q-27 -17 -43 -42.5t-16 -54.5t16 -47t41 -18q27 0 44.5 19.5z" />
    <glyph glyph-name="uni2079" unicode="&#x2079;" horiz-adv-x="292" 
d="M342.5 674.5q30.5 -31.5 30.5 -81.5q0 -58 -32 -109t-91 -88t-137 -53l-2 11q68 23 114.5 67.5t68.5 99.5q-15 -15 -34 -24t-40 -9q-41 0 -67.5 24.5t-26.5 63.5q0 56 39 93t101 37q46 0 76.5 -31.5zM303 547q9 32 9 63q0 79 -47 79q-31 0 -53 -33.5t-22 -82.5
q0 -30 12 -46t35 -16q35 0 66 36z" />
    <glyph glyph-name="uni2080" unicode="&#x2080;" horiz-adv-x="334" 
d="M-11.5 -81.5q-28.5 35.5 -28.5 92.5t26.5 112.5t72 90t98.5 34.5q47 0 75.5 -36t28.5 -92q0 -58 -26.5 -113t-71.5 -89.5t-97 -34.5q-49 0 -77.5 35.5zM129.5 -59.5q31.5 39.5 51 98t19.5 112.5q0 39 -11.5 58.5t-32.5 19.5q-33 0 -64 -39.5t-50.5 -98t-19.5 -112.5
q0 -78 44 -78q32 0 63.5 39.5z" />
    <glyph glyph-name="uni2081" unicode="&#x2081;" horiz-adv-x="174" 
d="M120 243l-99 -322l33 -27l-2 -5h-149l1 5l49 27l80 260l-34 20l1 7l116 40z" />
    <glyph glyph-name="uni2082" unicode="&#x2082;" horiz-adv-x="248" 
d="M100 -63l45 46h6l-29 -93h-210l2 5l150 140q29 27 42.5 53t13.5 55q0 24 -14 39t-40 15q-46 0 -74 -55l-10 3q10 47 39.5 74.5t76.5 27.5q45 0 70 -24.5t25 -66.5q0 -41 -24 -71t-70 -65l-115 -83h116z" />
    <glyph glyph-name="uni2083" unicode="&#x2083;" horiz-adv-x="271" 
d="M-44.5 -97.5q-27.5 18.5 -27.5 42.5q0 19 11 30.5t30 11.5q16 0 25.5 -9.5t9.5 -22.5q0 -25 -23 -39q13 -15 43 -15q36 0 58 26.5t22 68.5q0 33 -20 55t-51 34l119 108h-114l-46 -42h-6l27 89h199l-8 -27l-102 -93q29 -10 52 -38t23 -64q0 -61 -40 -97.5t-111 -36.5
q-43 0 -70.5 18.5z" />
    <glyph glyph-name="uni2084" unicode="&#x2084;" horiz-adv-x="282" 
d="M155 -110h-147l1 5l48 27l20 62h-148l5 19l252 237h36l-66 -219h40l-12 -37h-40l-20 -62l33 -27zM133 165l-149 -144h104z" />
    <glyph glyph-name="uni2085" unicode="&#x2085;" horiz-adv-x="258" 
d="M-57 -102.5q-23 13.5 -23 34.5q0 18 11 29t28 11q15 0 25 -9.5t10 -21.5t-4.5 -19.5t-13.5 -15.5q10 -5 29 -5q40 0 67 33t27 83q0 31 -17.5 50t-45.5 19q-39 0 -69 -25h-6l66 179h182l-24 -81h-6l-20 34h-126l-36 -92q34 24 75 24q43 0 68 -28t25 -69q0 -66 -44 -105
t-118 -39q-37 0 -60 13.5z" />
    <glyph glyph-name="uni2086" unicode="&#x2086;" horiz-adv-x="292" 
d="M168.5 78q26.5 -24 26.5 -63q0 -57 -39 -94t-101 -37q-46 0 -76 31.5t-30 82.5q0 59 31.5 110.5t90 88t138.5 51.5l1 -11q-68 -21 -114.5 -65.5t-68.5 -101.5q15 14 34.5 23t40.5 9q40 0 66.5 -24zM108.5 -65.5q22.5 32.5 22.5 81.5q0 30 -12.5 46t-33.5 16
q-37 0 -66 -35q-9 -31 -9 -63q0 -78 45 -78q31 0 53.5 32.5z" />
    <glyph glyph-name="uni2087" unicode="&#x2087;" horiz-adv-x="239" 
d="M36 -110h-72l214 303h-145l-45 -42h-6l27 89h212l-2 -5z" />
    <glyph glyph-name="uni2088" unicode="&#x2088;" horiz-adv-x="260" 
d="M115 89q23 -22 36 -42.5t13 -45.5q0 -53 -34.5 -85t-91.5 -32q-46 0 -74 23t-28 58q0 36 25.5 65t68.5 43q-32 34 -32 75t31.5 68.5t79.5 27.5q42 0 66 -18.5t24 -49.5q0 -59 -84 -87zM142.5 134q11.5 19 11.5 44q0 24 -12 36.5t-35 12.5q-22 0 -37 -14.5t-15 -37.5
q0 -19 11 -37t36 -38l3 -3q26 18 37.5 37zM82.5 -79.5q17.5 19.5 17.5 48.5q0 25 -13 44.5t-37 41.5l-10 8q-27 -17 -43 -42.5t-16 -54.5t16 -47t41 -18q27 0 44.5 19.5z" />
    <glyph glyph-name="uni2089" unicode="&#x2089;" horiz-adv-x="292" 
d="M201.5 214.5q30.5 -31.5 30.5 -81.5q0 -58 -32 -109t-91 -88t-137 -53l-2 11q68 23 114.5 67.5t68.5 99.5q-15 -15 -34 -24t-40 -9q-41 0 -67.5 24.5t-26.5 63.5q0 56 39 93t101 37q46 0 76.5 -31.5zM162 87q9 32 9 63q0 79 -47 79q-31 0 -53 -33.5t-22 -82.5
q0 -30 12 -46t35 -16q35 0 66 36z" />
    <glyph glyph-name="Euro" unicode="&#x20ac;" horiz-adv-x="650" 
d="M646.5 699q53.5 -13 86.5 -34l-48 -156h-14l-1 92q-17 37 -53 57t-87 20q-106 0 -183 -67t-114 -175h247l-19 -32h-238q-15 -52 -18 -107h201l-19 -33h-183v-1q0 -111 38.5 -176t107.5 -65q51 0 88.5 18.5t80.5 60.5l58 90h14l-49 -160q-83 -43 -200 -43q-73 0 -128.5 35
t-86 97.5t-31.5 143.5h-79l10 33h70q1 54 17 107h-54l10 32h54q45 124 152 200t257 76q60 0 113.5 -13z" />
    <glyph glyph-name="uni20B4" unicode="&#x20b4;" horiz-adv-x="536" 
d="M556.5 495q-19.5 -36 -57.5 -60h68l-9 -30h-483l9 30h278q70 34 109.5 71t39.5 84q0 37 -31 62.5t-79 25.5q-40 0 -71 -15t-72 -51l-80 -105h-15l47 157q79 48 200 48q75 0 120.5 -38.5t45.5 -99.5q0 -43 -19.5 -79zM41 295l9 30h483l-9 -30h-259q-77 -34 -118 -76.5
t-41 -100.5q0 -43 28.5 -69.5t74.5 -26.5q50 0 86.5 18t70.5 52l93 131h16l-59 -188q-36 -22 -90 -34.5t-120 -12.5q-74 0 -123 43t-49 114q0 46 19 81.5t61 68.5h-73z" />
    <glyph glyph-name="uni20BA" unicode="&#x20ba;" 
d="M558 268q-31 -105 -68 -161t-99.5 -81.5t-170.5 -25.5h-267l4 14l91 39l38 123l-94 -50l11 41l96 51l27 88l-95 -50l12 41l95 50l92 300l-67 39l4 14h267l-4 -14l-91 -39l-71 -231l173 92l-12 -41l-173 -92l-27 -88l172 91l-12 -41l-173 -92l-65 -211h66q66 0 111 25
t75.5 75.5t55.5 133.5h99z" />
    <glyph glyph-name="uni20BD" unicode="&#x20bd;" horiz-adv-x="625" 
d="M239 320l-37 -119h203l-10 -32h-202l-36 -116l67 -39l-4 -14h-267l4 14l91 39l36 116h-80l10 32h79l137 446l-67 39l4 14h282q106 0 165.5 -45t59.5 -120q0 -103 -84.5 -159t-238.5 -56h-112zM345 666l-96 -312h98q111 0 166.5 50t55.5 136q0 60 -33.5 93t-96.5 33h-94z
" />
    <glyph glyph-name="uni2113" unicode="&#x2113;" horiz-adv-x="501" 
d="M499.5 462.5q-49.5 -81.5 -136 -156t-193.5 -126.5q-2 -22 -2 -31q0 -51 16.5 -79t46.5 -28q39 0 69 27t64 79l16 -12q-35 -71 -78 -109.5t-101 -38.5q-61 0 -94 39.5t-34 113.5q-36 -12 -70 -21v19q41 12 71 25q5 104 62.5 234.5t144 222t176.5 91.5q44 0 68 -26t24 -70
q0 -72 -49.5 -153.5zM336 599q-57 -77 -101 -186.5t-60 -198.5q89 53 158.5 124t108 146t38.5 139q0 53 -34 53q-53 0 -110 -77z" />
    <glyph glyph-name="uni2116" unicode="&#x2116;" horiz-adv-x="1175" 
d="M1167.5 661q43.5 -50 43.5 -136q0 -66 -32 -129t-92 -103t-139 -40q-70 0 -114 50t-44 136q0 66 32.5 129t92.5 103t138 40q71 0 114.5 -50zM829 700l-4 -14l-91 -39l-198 -647h-42l-245 572l-159 -520l67 -38l-4 -14h-200l4 14l91 39l177 577l-17 42l-7 1l3 10l-3 7
l3 10h121l220 -534l149 481h-1l-68 39l4 14h200zM1030.5 333q38.5 48 62.5 118t24 131q0 48 -17.5 73t-50.5 25q-40 0 -78 -48t-62 -118t-24 -131q0 -48 17.5 -73t49.5 -25q40 0 78.5 48zM1088 163h-345l10 34h345z" />
    <glyph glyph-name="trademark" unicode="&#x2122;" horiz-adv-x="609" 
d="M238 420h-119l3 7l38 20l73 237h-51l-53 -65h-7l25 81h235l-25 -81h-8l-8 65h-54l-72 -237l26 -20zM396 420h-80l2 7l37 20l69 226l-25 20l3 7h80l20 -203l142 203h94l-2 -7l-38 -20l-69 -226l25 -20l-2 -7h-118l3 7l38 20l65 213l-170 -240h-13l-22 231l-62 -204l26 -20
z" />
    <glyph glyph-name="uni2126" unicode="&#x2126;" horiz-adv-x="716" 
d="M-26 0l50 163h14l9 -93h166q-6 11 -28 48q-33 56 -51.5 92.5t-31 78.5t-12.5 89q0 95 45.5 171t129 119.5t195.5 43.5q82 0 146 -29t99.5 -81t35.5 -121q0 -80 -40 -146.5t-97.5 -117.5t-152.5 -120l-36 -27h154l70 93h14l-50 -163h-256l21 70q87 76 142.5 135t91.5 131
t36 156t-52.5 134t-136.5 50q-79 0 -137.5 -44t-89.5 -118t-31 -161q0 -71 15 -138t46 -145l-21 -70h-257z" />
    <glyph glyph-name="estimated" unicode="&#x212e;" horiz-adv-x="820" 
d="M246 87q83 -67 196 -67q100 0 178 50.5t118 134.5h34q-40 -99 -127.5 -159t-202.5 -60q-102 0 -184 48.5t-128 132t-46 183.5t46 183.5t128 132t184 48.5t184 -48.5t128 -132t46 -183.5h-554v-263zM637 614q-40 32 -89.5 49t-105.5 17q-113 0 -196 -67v-235h391v236z" />
    <glyph glyph-name="partialdiff" unicode="&#x2202;" horiz-adv-x="532" 
d="M277 712q72 -27 124.5 -83t79.5 -129.5t27 -152.5q0 -86 -36 -169.5t-103 -136.5t-155 -53q-85 0 -137.5 49.5t-52.5 133.5q0 66 32.5 123.5t92 92.5t136.5 35q70 0 120 -36q-5 101 -40.5 185t-101.5 123zM319 64.5q41 44.5 63 118t24 159.5q-45 37 -109 37
q-53 0 -93 -30.5t-61.5 -80.5t-21.5 -107q0 -66 25.5 -103.5t77.5 -37.5q54 0 95 44.5z" />
    <glyph glyph-name="uni2206" unicode="&#x2206;" horiz-adv-x="628" 
d="M533 0h-590l482 700h39zM371 559l-361 -525h409z" />
    <glyph glyph-name="product" unicode="&#x220f;" horiz-adv-x="698" 
d="M189 -100h-267l4 14l91 39l218 713h-79l10 34h638l-10 -34h-75l-218 -713l67 -39l-4 -14h-267l4 14l91 39l218 713h-266l-218 -713l67 -39z" />
    <glyph glyph-name="summation" unicode="&#x2211;" horiz-adv-x="581" 
d="M421 -128h-491l11 34l348 387l-120 373l11 34h492l-64 -209h-14l-18 175h-294l101 -322l-397 -438h350l136 175h13z" />
    <glyph glyph-name="minus" unicode="&#x2212;" horiz-adv-x="485" 
d="M466 285h-424l16 53h424z" />
    <glyph glyph-name="uni2215" unicode="&#x2215;" horiz-adv-x="484" 
d="M55 0h-61l497 700h61z" />
    <glyph glyph-name="uni2219" unicode="&#x2219;" horiz-adv-x="484" 
d="M200.5 277.5q-29.5 29.5 -29.5 72.5t29.5 72.5t72.5 29.5t72.5 -29.5t29.5 -72.5t-29.5 -72.5t-72.5 -29.5t-72.5 29.5z" />
    <glyph glyph-name="radical" unicode="&#x221a;" horiz-adv-x="566" 
d="M203 0h-31l-31 340h-92l9 30h174l17 -248l393 578h36z" />
    <glyph glyph-name="infinity" unicode="&#x221e;" horiz-adv-x="720" 
d="M661 423q42 -47 42 -123q0 -50 -20 -89t-54.5 -60t-76.5 -21q-59 0 -101.5 29t-83.5 90q-36 -59 -75.5 -89t-87.5 -30q-43 0 -78.5 21t-56 60t-20.5 89t21.5 89t59.5 60t84 21q55 0 96.5 -27t77.5 -81q35 53 75 80.5t90 27.5q66 0 108 -47zM628.5 222q28.5 29 28.5 78
q0 53 -30.5 84t-77.5 31q-44 0 -76 -20.5t-65 -64.5q32 -53 51 -80t43 -42t58 -15q40 0 68.5 29zM279 209.5q33 23.5 67 73.5l-3 4q-37 62 -69.5 90t-79.5 28q-43 0 -71 -28t-28 -77q0 -53 30.5 -83.5t77.5 -30.5q43 0 76 23.5z" />
    <glyph glyph-name="integral" unicode="&#x222b;" horiz-adv-x="352" 
d="M-193.5 -195.5q-21.5 16.5 -21.5 42.5q0 24 16.5 39t37.5 15q29 0 45 -21.5t14 -54.5q44 10 84 81.5t83 234.5l101 375q32 119 104 183.5t164 64.5q43 0 70 -21t27 -56q0 -30 -17 -49t-47 -19q-26 0 -43 16t-17 40q0 36 28 54q-46 0 -82.5 -40.5t-67.5 -136.5l-130 -411
q-61 -191 -130.5 -272t-162.5 -81q-34 0 -55.5 16.5z" />
    <glyph glyph-name="approxequal" unicode="&#x2248;" horiz-adv-x="501" 
d="M283.5 155q-19.5 9 -50.5 28q-29 20 -51 30t-50 10q-64 0 -111 -73l-18 6q26 61 60 91t91 30q29 0 53 -10.5t55 -31.5q27 -18 46 -26.5t40 -8.5q62 0 111 73l18 -6q-25 -62 -59 -91.5t-91 -29.5q-24 0 -43.5 9zM344.5 355q-19.5 9 -50.5 28q-29 20 -51 30t-50 10
q-64 0 -111 -73l-18 6q26 61 60 91t91 30q29 0 53 -10.5t55 -31.5q27 -18 46 -26.5t40 -8.5q62 0 111 73l18 -6q-25 -62 -59 -91.5t-91 -29.5q-24 0 -43.5 9z" />
    <glyph glyph-name="notequal" unicode="&#x2260;" horiz-adv-x="484" 
d="M489 603l37 -34l-108 -121h97l-16 -53h-129l-149 -167h227l-16 -53h-258l-139 -155l-37 34l108 121h-98l16 53h130l149 167h-228l16 53h259z" />
    <glyph glyph-name="lessequal" unicode="&#x2264;" horiz-adv-x="484" 
d="M439 196l-16 -50l-375 159l17 57l473 160l-18 -61l-405 -133zM379 0h-424l15 53h424z" />
    <glyph glyph-name="greaterequal" unicode="&#x2265;" horiz-adv-x="484" 
d="M471 305l-472 -159l17 60l406 134l-324 132l15 50l376 -159zM379 0h-424l15 53h424z" />
    <glyph glyph-name="lozenge" unicode="&#x25ca;" horiz-adv-x="498" 
d="M188 0h-38l-109 350l331 350h38l109 -350zM110 376l99 -306l241 254l-99 306z" />
    <glyph glyph-name="fi" unicode="&#xfb01;" horiz-adv-x="547" 
d="M587 740.5q39 -23.5 39 -60.5q0 -30 -18.5 -49.5t-48.5 -19.5q-27 0 -46 17.5t-19 43.5q0 34 22 54q-23 7 -42 7q-63 0 -113.5 -47t-88.5 -168l-8 -24h218q47 0 47 -34q0 -17 -12 -43l-151 -348l101 42l10 -17l-96 -69q-50 -35 -85 -35q-19 0 -30 11t-11 30q0 20 12 45
l168 384h-181l-101 -319q-60 -191 -130 -272t-163 -81q-34 0 -55.5 16.5t-21.5 42.5q0 24 16.5 39t37.5 15q29 0 45 -21.5t14 -54.5q44 10 84 81.5t83 234.5l86 319h-74l12 34h71l3 12q35 133 113.5 195.5t201.5 62.5q72 0 111 -23.5z" />
    <glyph glyph-name="fl" unicode="&#xfb02;" horiz-adv-x="559" 
d="M378 69l101 42l10 -17l-95 -69q-50 -36 -85 -36q-19 0 -29 11.5t-10 31.5q0 19 9 44l207 547q-15 8 -23.5 21t-8.5 29q0 17 7.5 32t18.5 24q-7 3 -17 3q-53 0 -102.5 -46t-85.5 -158l-11 -34h105l-12 -34h-103l-101 -319q-61 -191 -130.5 -272t-162.5 -81
q-34 0 -55.5 16.5t-21.5 42.5q0 24 16.5 39t37.5 15q29 0 45 -21.5t14 -54.5q44 10 84 81.5t83 234.5l86 319h-74l12 34h71l6 22q33 121 110.5 184.5t187.5 63.5q54 0 86 -24l86 30l7 -10z" />
    <glyph glyph-name="NULL" horiz-adv-x="600" 
 />
    <glyph glyph-name="i.loclTRK" horiz-adv-x="309" 
d="M144 25q-50 -35 -86 -35q-19 0 -29.5 11t-10.5 30q0 22 11 45l152 348l-101 -42l-10 17l95 69q50 35 85 35q19 0 30 -11t11 -30t-12 -45l-151 -348l101 42l10 -17zM260.5 613.5q-19.5 19.5 -19.5 48.5t19.5 48.5t48.5 19.5t48.5 -19.5t19.5 -48.5t-19.5 -48.5
t-48.5 -19.5t-48.5 19.5z" />
    <glyph glyph-name="f_b" horiz-adv-x="812" 
d="M755.5 464q37.5 -42 37.5 -114q0 -84 -47.5 -168.5t-131 -139t-186.5 -54.5q-64 0 -97 31t-33 79q0 28 10 54l178 471q-15 8 -23.5 21t-8.5 29q0 17 7.5 32t18.5 24q-7 3 -17 3q-53 0 -102.5 -46t-85.5 -158l-11 -34h105l-12 -34h-103l-101 -319q-61 -191 -130.5 -272
t-162.5 -81q-34 0 -55.5 16.5t-21.5 42.5q0 24 16.5 39t37.5 15q29 0 45 -21.5t14 -54.5q44 10 84 81.5t83 234.5l86 319h-74l12 34h71l6 22q33 121 110.5 184.5t187.5 63.5q54 0 86 -24l86 30l7 -10l-116 -307q20 21 55.5 37t72.5 16q65 0 102.5 -42zM563.5 77.5
q55.5 51.5 89.5 128.5t34 145q0 50 -19.5 77t-55.5 27q-54 0 -107 -55l-107 -279q-9 -22 -9 -41q0 -25 15 -39.5t45 -14.5q59 0 114.5 51.5z" />
    <glyph glyph-name="f_f_b" horiz-adv-x="1097" 
d="M1040.5 464q37.5 -42 37.5 -114q0 -84 -47.5 -168.5t-131 -139t-186.5 -54.5q-64 0 -97 31t-33 79q0 28 10 54l178 471q-14 8 -22.5 21t-8.5 29q0 17 7 32t18 24q-7 3 -17 3q-53 0 -102.5 -46t-85.5 -158l-11 -34h105l-12 -34h-103l-101 -319q-55 -176 -121 -251
t-152 -75q-35 0 -56 16.5t-21 42.5q0 24 16 39t38 15q28 0 44.5 -21.5t14.5 -54.5q27 6 49 31.5t45.5 86.5t52.5 171l86 319h-180l-101 -319q-61 -191 -130.5 -272t-162.5 -81q-34 0 -55.5 16.5t-21.5 42.5q0 24 16.5 39t37.5 15q29 0 45 -21.5t14 -54.5q44 10 84 81.5
t83 234.5l85 319h-73l12 34h71l3 13q30 111 105 170.5t173 59.5q40 0 66.5 -14t35.5 -39q80 80 206 80q54 0 86 -24l86 30l7 -10l-116 -307q21 21 56 37t72 16q65 0 102.5 -42zM449 516q9 37 28 76q-25 2 -40.5 18t-15.5 38q0 36 27 55q-5 1 -14 1q-47 0 -88 -43t-72 -138
l-9 -29h178zM848.5 77.5q55.5 51.5 89.5 128.5t34 145q0 50 -19.5 77t-55.5 27q-54 0 -107 -55l-107 -279q-9 -22 -9 -41q0 -25 15 -39.5t45 -14.5q59 0 114.5 51.5z" />
    <glyph glyph-name="f_f_h" horiz-adv-x="1128" 
d="M1074 482.5q24 -23.5 24 -64.5q0 -40 -23 -85l-134 -266l107 45l10 -17l-95 -69q-48 -35 -84 -35q-21 0 -33 11.5t-12 31.5q0 19 12 43l136 281q12 26 12 44t-11 27.5t-30 9.5q-43 0 -94.5 -47.5t-100.5 -127.5t-86 -176l-34 -88h-102l235 623q-14 8 -22.5 21t-8.5 29
q0 17 7 32t18 24q-7 3 -17 3q-53 0 -102.5 -46t-85.5 -158l-11 -34h105l-12 -34h-103l-101 -319q-55 -176 -121 -251t-152 -75q-35 0 -56 16.5t-21 42.5q0 24 16 39t38 15q28 0 44.5 -21.5t14.5 -54.5q27 6 49 31.5t45.5 86.5t52.5 171l86 319h-180l-101 -319
q-61 -191 -130.5 -272t-162.5 -81q-34 0 -55.5 16.5t-21.5 42.5q0 24 16.5 39t37.5 15q29 0 45 -21.5t14 -54.5q44 10 84 81.5t83 234.5l85 319h-73l12 34h71l3 13q30 111 105 170.5t173 59.5q40 0 66.5 -14t35.5 -39q80 80 206 80q54 0 86 -24l86 30l7 -10l-170 -454
q55 91 120 145.5t129 54.5q45 0 69 -23.5zM449 516q9 37 28 76q-25 2 -40.5 18t-15.5 38q0 36 27 55q-5 1 -14 1q-47 0 -88 -43t-72 -138l-9 -29h178z" />
    <glyph glyph-name="f_f_k" horiz-adv-x="1076" 
d="M1007.5 307.5q-73.5 -52.5 -198.5 -69.5l181 -238h-131l-136 221l-85 -221h-102l235 623q-14 8 -22.5 21t-8.5 29q0 17 7 32t18 24q-7 3 -17 3q-53 0 -102.5 -46t-85.5 -158l-11 -34h105l-12 -34h-103l-101 -319q-55 -176 -121 -251t-152 -75q-35 0 -56 16.5t-21 42.5
q0 24 16 39t38 15q28 0 44.5 -21.5t14.5 -54.5q27 6 49 31.5t45.5 86.5t52.5 171l86 319h-180l-101 -319q-61 -191 -130.5 -272t-162.5 -81q-34 0 -55.5 16.5t-21.5 42.5q0 24 16.5 39t37.5 15q29 0 45 -21.5t14 -54.5q44 10 84 81.5t83 234.5l85 319h-73l12 34h71l3 13
q30 111 105 170.5t173 59.5q40 0 66.5 -14t35.5 -39q80 80 206 80q54 0 86 -24l86 30l7 -10l-161 -423q51 69 113 119t121 50q40 0 61 -20.5t21 -53.5q0 -72 -73.5 -124.5zM449 516q9 37 28 76q-25 2 -40.5 18t-15.5 38q0 36 27 55q-5 1 -14 1q-47 0 -88 -43t-72 -138
l-9 -29h178zM863.5 288.5q57.5 24.5 91 56t33.5 63.5q0 16 -8.5 25.5t-25.5 9.5q-42 0 -102 -52t-115 -137q69 10 126.5 34.5z" />
    <glyph glyph-name="f_h" horiz-adv-x="843" 
d="M788.5 482.5q24.5 -23.5 24.5 -63.5q0 -39 -24 -86l-133 -266l107 45l10 -17l-95 -69q-48 -35 -85 -35q-20 0 -32 11.5t-12 30.5q0 20 12 44l136 281q12 26 12 44t-11 27.5t-30 9.5q-43 0 -94.5 -47.5t-100.5 -127.5t-86 -176l-34 -88h-102l235 623q-15 8 -23.5 21
t-8.5 29q0 17 7.5 32t18.5 24q-7 3 -17 3q-53 0 -102.5 -46t-85.5 -158l-11 -34h105l-12 -34h-103l-101 -319q-61 -191 -130.5 -272t-162.5 -81q-34 0 -55.5 16.5t-21.5 42.5q0 24 16.5 39t37.5 15q29 0 45 -21.5t14 -54.5q44 10 84 81.5t83 234.5l86 319h-74l12 34h71l6 22
q33 121 110.5 184.5t187.5 63.5q54 0 86 -24l86 30l7 -10l-170 -454q55 91 120 145.5t129 54.5q44 0 68.5 -23.5z" />
    <glyph glyph-name="f_k" horiz-adv-x="791" 
d="M722.5 307.5q-73.5 -52.5 -198.5 -69.5l181 -238h-131l-136 221l-85 -221h-102l235 623q-15 8 -23.5 21t-8.5 29q0 17 7.5 32t18.5 24q-7 3 -17 3q-53 0 -102.5 -46t-85.5 -158l-11 -34h105l-12 -34h-103l-101 -319q-61 -191 -130.5 -272t-162.5 -81q-34 0 -55.5 16.5
t-21.5 42.5q0 24 16.5 39t37.5 15q29 0 45 -21.5t14 -54.5q44 10 84 81.5t83 234.5l86 319h-74l12 34h71l6 22q33 121 110.5 184.5t187.5 63.5q54 0 86 -24l86 30l7 -10l-161 -423q51 69 113 119t121 50q40 0 61 -20.5t21 -53.5q0 -72 -73.5 -124.5zM578.5 288.5
q57.5 24.5 91 56t33.5 63.5q0 16 -8.5 25.5t-25.5 9.5q-42 0 -102 -52t-115 -137q69 10 126.5 34.5z" />
    <glyph glyph-name="uni0414.loclBGR" horiz-adv-x="753" 
d="M-80 -144h-13l54 178h96l470 666h50l-13 -666h96l-55 -178h-13l-21 144h-537zM474 553l-368 -519h351z" />
    <glyph glyph-name="uni0416.loclBGR" horiz-adv-x="978" 
d="M117 0h-178l4 14l89 39l341 369l-140 227l-79 37l4 14h203l-4 -14l-73 -35l164 -268h28l81 264l-67 39l4 14h267l-4 -14l-91 -39l-81 -264h28l323 268l-52 35l4 14h209l-4 -14l-103 -37l-289 -241l127 -355l64 -39l-4 -14h-165l-122 349h-26l-91 -296l67 -39l-4 -14h-267
l4 14l90 39l91 296h-28z" />
    <glyph glyph-name="uni041A.loclBGR" horiz-adv-x="676" 
d="M552 686l4 14h206l-4 -14l-103 -37l-290 -255l158 -342l67 -38l-4 -14h-168l-148 333h-27l-86 -280l67 -39l-4 -14h-267l4 14l91 39l182 594l-67 39l4 14h267l-4 -14l-91 -39l-86 -280h26l325 284z" />
    <glyph glyph-name="uni041B.loclBGR" horiz-adv-x="659" 
d="M533 700l-11 -652l57 -34l-4 -14h-243l4 14l79 37l14 497l-363 -499l61 -35l-4 -14h-189l4 14l81 36l475 650h39z" />
    <glyph glyph-name="uni041D.loclBGR" horiz-adv-x="764" 
d="M220 0h-267l4 14l91 39l182 594l-67 39l4 14h188l-92 -302h331l76 249l-67 39l4 14h188l-198 -647l67 -39l-4 -14h-267l4 14l91 39l95 311h-331l-95 -311l67 -39z" />
    <glyph glyph-name="uni0424.loclBGR" horiz-adv-x="885" 
d="M200 -102l4 14l91 39l17 58q-106 28 -169.5 100t-63.5 189q0 118 58 207.5t159.5 139.5t227.5 53l15 49l-67 39l4 14h266l-4 -14l-91 -39l-18 -58q105 -20 171.5 -94.5t66.5 -196.5q0 -118 -59 -207t-161.5 -138t-229.5 -52l-15 -50l67 -39l-4 -14h-265zM512 659
q-96 -8 -169.5 -58t-113.5 -129.5t-40 -176.5q0 -108 35 -165t100 -85zM429 37q96 8 171 58.5t116.5 130.5t41.5 175q0 110 -36 168t-104 84z" />
    <glyph glyph-name="uni0431.loclBGR" horiz-adv-x="474" 
d="M54.5 31.5q-38.5 43.5 -38.5 114.5q0 58 29 119.5t81 107.5t117 61q-37 17 -60.5 46.5t-23.5 68.5q0 58 44 92.5t121 34.5h86q43 0 67.5 13.5t43.5 50.5l22 -6q-14 -73 -49 -105t-102 -32h-87q-89 0 -89 -61q0 -31 26.5 -53t78.5 -40q119 -41 119 -155q0 -68 -41 -138.5
t-107 -116t-138 -45.5q-61 0 -99.5 43.5zM254 66q45 47 73.5 115t28.5 124q0 102 -62 102q-47 0 -92 -47.5t-73 -116t-28 -126.5q0 -47 16 -72.5t45 -25.5q47 0 92 47z" />
    <glyph glyph-name="uni0432.loclBGR" horiz-adv-x="520" 
d="M493 483.5q-34 -45.5 -83 -72.5t-92 -32q66 -14 107 -57t41 -115q0 -60 -33 -110.5t-89.5 -79.5t-125.5 -29q-76 0 -125 56t-49 160q0 122 47 240t127.5 193t176.5 75q63 0 97.5 -34t34.5 -90q0 -59 -34 -104.5zM213 391q59 0 111.5 25.5t84.5 71t32 103.5q0 87 -60 87
q-56 0 -115 -84.5t-98 -202.5h45zM330.5 320q-36.5 39 -122.5 39h-50q-29 -100 -29 -170q0 -84 27.5 -126.5t68.5 -42.5t73.5 24.5t50.5 65.5t18 87q0 84 -36.5 123z" />
    <glyph glyph-name="uni0433.loclBGR" horiz-adv-x="391" 
d="M47.5 2q-41.5 14 -66.5 36l45 138h15l13 -101q10 -23 32.5 -39.5t51.5 -16.5q38 0 62.5 24t24.5 62q0 29 -16 56t-52 61q-38 35 -57.5 68t-19.5 68q0 65 46 106.5t123 41.5q39 0 75 -10t62 -28l-37 -119h-12l-20 85q-26 39 -73 39q-30 0 -52.5 -18.5t-22.5 -47.5
q0 -25 16 -50.5t51 -55.5q44 -38 63.5 -69.5t19.5 -78.5q0 -48 -23.5 -85.5t-65.5 -58.5t-96 -21q-45 0 -86.5 14z" />
    <glyph glyph-name="uni0434.loclBGR" horiz-adv-x="542" 
d="M24.5 -196.5q-34.5 15.5 -54.5 43.5t-20 62q0 27 17.5 44.5t42.5 17.5q24 0 39.5 -14.5t15.5 -34.5q0 -19 -12 -35.5t-32 -23.5q22 -46 82 -46q48 0 86.5 36t70.5 118l40 103q-26 -38 -65 -62t-85 -24q-60 0 -96.5 41t-36.5 110q0 89 48.5 174t125.5 139t158 54
q68 0 102 -36l9 24h103l-194 -510q-38 -101 -101.5 -148.5t-168.5 -47.5q-40 0 -74.5 15.5zM283 98.5q41 40.5 77 133.5l60 154q6 15 6 29q0 25 -18.5 40.5t-47.5 15.5q-61 0 -116.5 -47.5t-89 -121.5t-33.5 -148q0 -45 19.5 -70.5t54.5 -25.5q47 0 88 40.5z" />
    </font>
</defs>
</svg>
