<?xml version="1.0" standalone="no"?>
<!DOCTYPE svg PUBLIC "-//W3C//DTD SVG 1.1//EN" "http://www.w3.org/Graphics/SVG/1.1/DTD/svg11.dtd" >
<svg xmlns="http://www.w3.org/2000/svg" xmlns:xlink="http://www.w3.org/1999/xlink" version="1.1">
<metadata>
Created by FontForge 20170731 at Mon Sep  6 17:59:07 2021
 By Aleksey,,,
Copyright (c) 2020 by F. Hoffmann-La Roche AG. All rights reserved.
</metadata>
<defs>
<font id="RocheSans-BoldItalic" horiz-adv-x="565" >
  <font-face 
    font-family="Roche Sans"
    font-weight="700"
    font-style="italic"
    font-stretch="normal"
    units-per-em="1000"
    panose-1="2 11 8 4 3 2 1 4 1 1"
    ascent="800"
    descent="-200"
    x-height="496"
    cap-height="700"
    bbox="-349 -268 1248 972"
    underline-thickness="50"
    underline-position="-150"
    slope="-10"
    unicode-range="U+000D-FB02"
  />
<missing-glyph horiz-adv-x="791" 
d="M621 123h-425l-173 200l173 200h425l173 -202zM49 321l156 -178h407l156 178l-156 182h-407z" />
    <glyph glyph-name="f_i" unicode="fi" horiz-adv-x="652" 
d="M302 520l-4 -24h126l-22 -121h-126l-66 -375h-144l66 375h-92l22 121h92l5 31q17 96 68.5 140.5t145.5 44.5q47 0 87 -12l-24 -132q-34 12 -63 12q-60 0 -71 -60zM530 579q-27 27 -27 64q0 38 27 64.5t64 26.5q38 0 64.5 -26.5t26.5 -64.5q0 -37 -26.5 -64t-64.5 -27
q-37 0 -64 27zM552 0h-144l88 496h144z" />
    <glyph glyph-name="f_l" unicode="fl" horiz-adv-x="694" 
d="M302 520l-4 -24h126l-22 -121h-126l-66 -375h-144l66 375h-92l22 121h92l5 31q17 96 68.5 140.5t145.5 44.5q47 0 87 -12l-24 -132q-34 12 -63 12q-60 0 -71 -60zM471 25.5q-35 37.5 -35 101.5q0 23 4 44l93 529h144l-94 -532q-1 -4 -1 -11q0 -16 9 -26t25 -10
q23 0 47 10l-23 -132q-31 -11 -76 -11q-58 0 -93 37.5z" />
    <glyph glyph-name=".notdef" horiz-adv-x="791" 
d="M621 123h-425l-173 200l173 200h425l173 -202zM49 321l156 -178h407l156 178l-156 182h-407z" />
    <glyph glyph-name=".null" horiz-adv-x="0" 
 />
    <glyph glyph-name="nonmarkingreturn" unicode="&#xd;" horiz-adv-x="600" 
 />
    <glyph glyph-name="space" unicode=" " horiz-adv-x="206" 
 />
    <glyph glyph-name="exclam" unicode="!" horiz-adv-x="266" 
d="M195 258h-120l54 442h168zM38 19.5q-28 27.5 -28 66.5q0 38 28 66t66 28t66 -28t28 -66q0 -39 -28 -66.5t-66 -27.5t-66 27.5z" />
    <glyph glyph-name="quotedbl" unicode="&#x22;" horiz-adv-x="447" 
d="M210 385h-129l56 315h129zM414 385h-129l56 315h129z" />
    <glyph glyph-name="numbersign" unicode="#" horiz-adv-x="640" 
d="M672 530l-21 -120h-109l-39 -120h88l-21 -120h-106l-56 -170h-125l55 170h-118l-56 -170h-126l56 170h-90l21 120h108l39 120h-88l21 120h106l56 170h126l-56 -170h119l55 170h126l-56 -170h91zM259 290h118l40 120h-119z" />
    <glyph glyph-name="dollar" unicode="$" horiz-adv-x="629" 
d="M533 358.5q50 -46.5 50 -126.5q0 -102 -66.5 -168t-184.5 -76l-14 -76h-128l15 84q-73 17 -120.5 62t-64.5 106l140 68q36 -100 140 -100q50 0 85.5 23t35.5 57q0 32 -31 51.5t-102 36.5q-86 21 -134 72t-48 125q0 90 59.5 146t165.5 67l13 76h128l-15 -83
q115 -28 166 -139l-138 -77q-17 38 -48.5 59.5t-74.5 21.5q-47 0 -73.5 -15t-26.5 -41q0 -29 27 -47t103 -37q91 -23 141 -69.5z" />
    <glyph glyph-name="percent" unicode="%" horiz-adv-x="912" 
d="M128.5 405q-41.5 45 -41.5 113q0 18 3 36q12 69 62 113.5t132 44.5q68 0 109 -45t41 -115q0 -19 -3 -39q-12 -68 -61 -110.5t-132 -42.5q-68 0 -109.5 45zM279 0h-142l532 700h141zM301.5 484q20.5 27 20.5 66q0 28 -14 46.5t-37 18.5q-30 0 -50.5 -26t-20.5 -65
q0 -29 13.5 -48t37.5 -19q30 0 50.5 27zM554.5 33q-41.5 45 -41.5 113q0 18 3 36q12 69 62 113.5t132 44.5q68 0 109 -45t41 -115q0 -19 -3 -39q-12 -68 -61 -110.5t-132 -42.5q-68 0 -109.5 45zM727.5 112q20.5 27 20.5 66q0 28 -14 46.5t-37 18.5q-30 0 -50.5 -26
t-20.5 -65q0 -29 13.5 -48t37.5 -19q30 0 50.5 27z" />
    <glyph glyph-name="ampersand" unicode="&#x26;" horiz-adv-x="644" 
d="M586 298q-28 -91 -87 -164l78 -134h-146l-25 43q-32 -27 -74 -41t-107 -14q-59 0 -104 26t-69.5 70t-24.5 98q0 81 42 132t126 88q-27 54 -27 106q0 92 55.5 148t150.5 56q49 0 87 -20.5t59 -55.5t21 -77q0 -54 -19 -90.5t-55.5 -63t-96.5 -52.5l63 -106q27 44 51 101z
M314.5 575q-17.5 -19 -17.5 -56q0 -35 18 -71q44 17 68.5 42t24.5 56q0 21 -13.5 34.5t-35.5 13.5q-27 0 -44.5 -19zM346 144l-95 161q-40 -19 -59.5 -43t-19.5 -59q0 -39 24 -62.5t63 -23.5q48 0 87 27z" />
    <glyph glyph-name="quotesingle" unicode="'" horiz-adv-x="243" 
d="M210 385h-129l56 315h129z" />
    <glyph glyph-name="parenleft" unicode="(" horiz-adv-x="331" 
d="M101 -140q-29 65 -48 144.5t-19 162.5q0 170 59.5 326.5t165.5 266.5h133q-99 -126 -152 -274.5t-53 -315.5q0 -146 47 -310h-133z" />
    <glyph glyph-name="parenright" unicode=")" horiz-adv-x="331" 
d="M-39 -140q99 126 152 274.5t53 315.5q0 146 -47 310h133q29 -65 48 -144.5t19 -162.5q0 -170 -59.5 -326.5t-165.5 -266.5h-133z" />
    <glyph glyph-name="asterisk" unicode="*" horiz-adv-x="424" 
d="M419 642l40 -80l-127 -57l107 -57l-56 -80l-100 74l-14 -131h-91l30 127l-112 -70l-40 82l127 56l-107 58l56 78l99 -72l15 130h91l-31 -128z" />
    <glyph glyph-name="plus" unicode="+" horiz-adv-x="519" 
d="M346 377h165l-22 -124h-165l-30 -168h-128l30 168h-164l22 124h164l30 168h128z" />
    <glyph glyph-name="comma" unicode="," horiz-adv-x="234" 
d="M11 -171l-34 28l60 84q23 34 30 54q-31 8 -51 33.5t-20 57.5q0 38 28 66t66 28t66 -28t28 -66q0 -48 -20.5 -83t-81.5 -99z" />
    <glyph glyph-name="hyphen" unicode="-" horiz-adv-x="378" 
d="M346 255h-313l22 120h313z" />
    <glyph glyph-name="period" unicode="." horiz-adv-x="234" 
d="M22 19.5q-28 27.5 -28 66.5q0 38 28 66t66 28t66 -28t28 -66q0 -39 -28 -66.5t-66 -27.5t-66 27.5z" />
    <glyph glyph-name="slash" unicode="/" horiz-adv-x="417" 
d="M113 -140h-165l378 900h166z" />
    <glyph glyph-name="zero" unicode="0" horiz-adv-x="560" 
d="M91 61.5q-53 75.5 -53 199.5q0 62 12 126q17 94 57 168t100 116.5t135 42.5q110 0 163.5 -77t53.5 -202q0 -59 -12 -124q-17 -92 -57 -166t-100.5 -116.5t-135.5 -42.5q-110 0 -163 75.5zM341.5 187q35.5 61 51.5 148q9 50 9 102q0 61 -16.5 99t-52.5 38
q-45 0 -80.5 -63.5t-50.5 -152.5q-9 -58 -9 -98q0 -60 16.5 -97t53.5 -37q43 0 78.5 61z" />
    <glyph glyph-name="one" unicode="1" horiz-adv-x="560" 
d="M388 0h-154l95 539l-210 -98l28 161l211 98h154z" />
    <glyph glyph-name="two" unicode="2" horiz-adv-x="560" 
d="M24 0l23 131l248 208q56 47 83 84t27 84q0 34 -21.5 55t-55.5 21q-82 0 -116 -106l-124 36q21 96 86.5 147.5t172.5 51.5q100 0 155.5 -52.5t55.5 -139.5q0 -55 -18 -98t-50.5 -79t-88.5 -83l-154 -129h247l-23 -131h-447z" />
    <glyph glyph-name="three" unicode="3" horiz-adv-x="560" 
d="M84.5 44q-58.5 56 -61.5 150l138 28q3 -45 27 -73t65 -28q53 0 84 32t31 85q0 50 -36 75.5t-97 25.5l20 114l131 124h-268l22 123h432l-22 -122l-152 -138q62 -20 92.5 -69.5t30.5 -116.5q0 -25 -5 -57q-17 -98 -87.5 -153.5t-184.5 -55.5q-101 0 -159.5 56z" />
    <glyph glyph-name="four" unicode="4" horiz-adv-x="560" 
d="M405 0h-143l25 141h-278l23 131l348 428h149l-76 -429h75l-23 -130h-75zM348 486l-163 -215h125z" />
    <glyph glyph-name="five" unicode="5" horiz-adv-x="560" 
d="M134 13.5q-50 25.5 -80.5 71t-35.5 103.5l147 33q5 -41 31.5 -67.5t66.5 -26.5q52 0 82.5 30.5t30.5 86.5q0 42 -23.5 67t-63.5 25q-58 0 -100 -51l-124 43l98 372h409l-23 -127h-288l-45 -147q49 38 124 38q87 0 136.5 -56t49.5 -146q0 -28 -6 -60q-18 -102 -89.5 -158
t-184.5 -56q-62 0 -112 25.5z" />
    <glyph glyph-name="six" unicode="6" horiz-adv-x="560" 
d="M135 15q-49 27 -75.5 76t-26.5 112q0 22 5 54q10 57 39 103.5t90 118.5l187 221h160l-221 -258q9 4 27 4q59 0 103 -27t67.5 -74t23.5 -105q0 -24 -5 -54q-16 -93 -86.5 -145.5t-172.5 -52.5q-66 0 -115 27zM345 145q33 34 33 83q0 42 -26.5 68.5t-66.5 26.5
q-44 0 -75 -26t-39 -71q-2 -16 -2 -24q0 -41 25 -66t66 -25q52 0 85 34z" />
    <glyph glyph-name="seven" unicode="7" horiz-adv-x="560" 
d="M225 0h-156l358 573h-330l23 127h478l-23 -127z" />
    <glyph glyph-name="eight" unicode="8" horiz-adv-x="560" 
d="M137.5 13.5q-49.5 25.5 -77 70t-27.5 99.5q0 22 4 41q10 55 46 96.5t84 61.5q-53 47 -53 121q0 13 4 39q13 77 76.5 121.5t159.5 44.5q56 0 98.5 -23.5t65.5 -64.5t23 -92q0 -19 -3 -39q-7 -42 -33.5 -74t-66.5 -53q34 -20 52.5 -59t18.5 -85q0 -13 -4 -41
q-15 -87 -81.5 -138t-174.5 -51q-62 0 -111.5 25.5zM384.5 443q27.5 27 27.5 69q0 33 -20.5 55.5t-54.5 22.5q-43 0 -71 -26.5t-28 -68.5q0 -35 21 -57t55 -22q43 0 70.5 27zM339.5 144.5q31.5 30.5 31.5 75.5q0 37 -25 61t-61 24q-42 0 -71 -22t-36 -63q-2 -14 -2 -20
q0 -38 24.5 -62t61.5 -24q46 0 77.5 30.5z" />
    <glyph glyph-name="nine" unicode="9" horiz-adv-x="560" 
d="M301 258q-9 -4 -27 -4q-59 0 -103 27t-67.5 74t-23.5 105q0 24 5 54q16 93 86.5 145.5t172.5 52.5q66 0 115 -27t75.5 -76t26.5 -112q0 -22 -5 -54q-10 -57 -39 -103.5t-90 -118.5l-187 -221h-160zM384 403q31 26 39 71q2 16 2 24q0 41 -25 66t-66 25q-52 0 -85 -34
t-33 -83q0 -42 26.5 -68.5t66.5 -26.5q44 0 75 26z" />
    <glyph glyph-name="colon" unicode=":" horiz-adv-x="237" 
d="M22 19.5q-28 27.5 -28 66.5q0 38 28 66t66 28t66 -28t28 -66q0 -39 -28 -66.5t-66 -27.5t-66 27.5zM80 347.5q-28 27.5 -28 66.5q0 38 28 66t66 28t66 -28t28 -66q0 -39 -28 -66.5t-66 -27.5t-66 27.5z" />
    <glyph glyph-name="semicolon" unicode=";" horiz-adv-x="234" 
d="M11 -171l-34 28l60 84q23 34 30 54q-31 8 -51 33.5t-20 57.5q0 38 28 66t66 28t66 -28t28 -66q0 -48 -20.5 -83t-81.5 -99zM80 347.5q-28 27.5 -28 66.5q0 38 28 66t66 28t66 -28t28 -66q0 -39 -28 -66.5t-66 -27.5t-66 27.5z" />
    <glyph glyph-name="less" unicode="&#x3c;" horiz-adv-x="519" 
d="M474 174l-24 -135l-420 208l24 135l494 208l-26 -149l-335 -131z" />
    <glyph glyph-name="equal" unicode="=" horiz-adv-x="520" 
d="M511 374h-457l22 124h457zM468 132h-457l22 124h457z" />
    <glyph glyph-name="greater" unicode="&#x3e;" horiz-adv-x="518" 
d="M488 247l-494 -208l26 149l335 131l-287 136l24 135l420 -208z" />
    <glyph glyph-name="question" unicode="?" horiz-adv-x="539" 
d="M204 260q10 61 33.5 98t76.5 70q42 26 62.5 47.5t20.5 48.5q0 26 -22 43.5t-57 17.5q-93 0 -132 -95l-114 49q28 84 98 129.5t167 45.5q98 0 155 -48.5t57 -129.5q0 -43 -14 -74t-39.5 -54t-68.5 -50q-44 -28 -63 -53.5t-25 -62.5l-1 -6h-138zM180 19.5
q-28 27.5 -28 66.5q0 38 28 66t66 28t66 -28t28 -66q0 -39 -28 -66.5t-66 -27.5t-66 27.5z" />
    <glyph glyph-name="at" unicode="@" horiz-adv-x="876" 
d="M204 -49.5q-79 47.5 -122.5 130.5t-43.5 185q0 39 8 85q19 107 79.5 188.5t157 127t219.5 45.5q107 0 189 -42t127 -117t45 -171q0 -30 -7 -74q-17 -101 -75 -160.5t-143 -59.5q-43 0 -70 24.5t-32 61.5q-21 -38 -58.5 -62t-87.5 -24q-52 0 -90.5 25t-59.5 68.5t-21 97.5
q0 26 4 47q16 88 77 145t152 57q35 0 62.5 -15.5t41.5 -39.5l8 43h103l-47 -266q-2 -12 -2 -18q0 -22 10.5 -35t27.5 -13q27 0 49 35.5t31 89.5q6 35 6 65q0 107 -67.5 169t-186.5 62q-86 0 -154 -32.5t-111.5 -92t-57.5 -139.5q-6 -36 -6 -71q0 -75 28.5 -134.5t83 -93
t127.5 -33.5q58 0 101 12t86 38l40 -100q-58 -30 -111.5 -43t-126.5 -13q-104 0 -183 47.5zM495.5 218q30.5 33 39.5 84q3 18 3 34q0 43 -20.5 69t-60.5 26q-49 0 -80.5 -31.5t-40.5 -81.5q-3 -16 -3 -32q0 -44 22 -72.5t63 -28.5q47 0 77.5 33z" />
    <glyph glyph-name="A" unicode="A" horiz-adv-x="740" 
d="M681 0h-171l-23 125h-267l-66 -125h-183l392 700h172zM418 497l-125 -236h169z" />
    <glyph glyph-name="B" unicode="B" horiz-adv-x="650" 
d="M15 0l124 700h302q89 0 141.5 -43.5t52.5 -115.5q0 -62 -33 -104t-87 -59q40 -16 64 -53t24 -89q0 -73 -33.5 -126t-94 -81.5t-140.5 -28.5h-320zM274 560l-22 -127h152q40 0 62 18.5t22 51.5q0 27 -17 42t-47 15h-150zM229 303l-28 -157h148q48 0 74.5 23t26.5 66
q0 33 -19.5 50.5t-55.5 17.5h-146z" />
    <glyph glyph-name="C" unicode="C" horiz-adv-x="714" 
d="M199 27q-68 41 -104.5 113.5t-36.5 162.5q0 38 8 84q17 95 68 169t134 116t190 42q193 0 272 -164l-130 -80q-26 47 -60.5 71t-88.5 24q-91 0 -149 -55t-73 -141q-5 -28 -5 -51q0 -78 42.5 -130.5t113.5 -52.5q57 0 96.5 24.5t72.5 72.5l115 -88q-49 -82 -120 -120
t-185 -38q-92 0 -160 41z" />
    <glyph glyph-name="D" unicode="D" horiz-adv-x="710" 
d="M15 0l124 700h248q94 0 162 -40t103.5 -109.5t35.5 -158.5q0 -38 -8 -84q-16 -91 -68.5 -160.5t-140.5 -108.5t-206 -39h-250zM292 146q90 0 148.5 50.5t73.5 134.5q5 32 5 54q0 76 -40 122.5t-115 46.5h-91l-72 -408h91z" />
    <glyph glyph-name="E" unicode="E" horiz-adv-x="614" 
d="M528 0h-513l124 700h513l-26 -146h-353l-22 -123h287l-25 -142h-287l-25 -143h353z" />
    <glyph glyph-name="F" unicode="F" horiz-adv-x="578" 
d="M175 0h-160l124 700h489l-26 -146h-329l-26 -149h277l-26 -145h-277z" />
    <glyph glyph-name="G" unicode="G" horiz-adv-x="724" 
d="M198.5 28.5q-67.5 42.5 -103.5 116.5t-36 165q0 38 8 84q16 92 67 164.5t135 114t197 41.5q99 0 166.5 -41t104.5 -118l-137 -87q-24 46 -63.5 71.5t-93.5 25.5q-91 0 -144.5 -54.5t-68.5 -140.5q-4 -23 -4 -50q0 -78 40.5 -131.5t111.5 -53.5q48 0 79 13t60 43l9 52
h-146l23 132h304l-44 -251q-60 -69 -130 -103.5t-178 -34.5q-89 0 -156.5 42.5z" />
    <glyph glyph-name="H" unicode="H" horiz-adv-x="743" 
d="M175 0h-160l124 700h160l-45 -256h305l45 256h160l-124 -700h-160l52 294h-305z" />
    <glyph glyph-name="I" unicode="I" horiz-adv-x="278" 
d="M175 0h-160l124 700h160z" />
    <glyph glyph-name="J" unicode="J" horiz-adv-x="584" 
d="M93 33q-61 47 -82 123l149 62q12 -37 37 -59.5t59 -22.5q94 0 116 124l78 440h159l-76 -429q-18 -99 -52 -161t-93 -93t-150 -31q-84 0 -145 47z" />
    <glyph glyph-name="K" unicode="K" horiz-adv-x="625" 
d="M395 346l164 -346h-172l-132 280h-30l-50 -280h-160l124 700h160l-51 -290h21l226 290h188z" />
    <glyph glyph-name="L" unicode="L" horiz-adv-x="578" 
d="M502 0h-487l124 700h160l-98 -554h327z" />
    <glyph glyph-name="M" unicode="M" horiz-adv-x="808" 
d="M167 0h-152l124 700h167l103 -393l241 393h179l-124 -700h-152l71 402l-162 -262h-147l-77 262z" />
    <glyph glyph-name="N" unicode="N" horiz-adv-x="711" 
d="M167 0h-152l124 700h162l202 -436l77 436h152l-124 -700h-146l-214 457z" />
    <glyph glyph-name="O" unicode="O" horiz-adv-x="785" 
d="M202.5 26.5q-69.5 40.5 -107 112.5t-37.5 163q0 42 7 81q17 98 67.5 172.5t133 116.5t191.5 42q92 0 161.5 -40.5t107 -112.5t37.5 -163q0 -42 -7 -81q-17 -97 -67 -172t-132.5 -117t-191.5 -42q-93 0 -162.5 40.5zM521.5 189.5q56.5 54.5 71.5 140.5q5 24 5 56
q0 79 -40.5 129t-114.5 50q-85 0 -142 -52.5t-73 -137.5q-6 -30 -6 -60q0 -79 41 -129.5t116 -50.5q86 0 142.5 54.5z" />
    <glyph glyph-name="P" unicode="P" horiz-adv-x="613" 
d="M15 0l124 700h275q93 0 147.5 -48.5t54.5 -136.5q0 -107 -71 -167.5t-194 -60.5h-125l-51 -287h-160zM367 424q44 0 66 21t22 60q0 29 -17 44t-48 15h-115l-25 -140h117z" />
    <glyph glyph-name="Q" unicode="Q" horiz-adv-x="785" 
d="M710 180q-33 -62 -85 -106l78 -146h-156l-43 79q-61 -21 -139 -21q-93 0 -162.5 40.5t-107 112.5t-37.5 163q0 42 7 81q17 98 67.5 172.5t133 116.5t191.5 42q92 0 161.5 -40.5t107 -112.5t37.5 -163q0 -42 -7 -81q-13 -75 -46 -137zM222 315q0 -79 41 -129.5t116 -50.5
q86 0 142.5 54.5t71.5 140.5q5 24 5 56q0 79 -40.5 129t-114.5 50q-85 0 -142 -52.5t-73 -137.5q-6 -30 -6 -60z" />
    <glyph glyph-name="R" unicode="R" horiz-adv-x="628" 
d="M15 0l124 700h299q86 0 137 -45t51 -126q0 -70 -41.5 -115t-108.5 -62q79 -14 76 -130l-6 -222h-157l12 225q3 62 -58 62h-117l-51 -287h-160zM374 423q39 0 63.5 21t24.5 58q0 29 -17.5 45.5t-45.5 16.5h-124l-25 -141h124z" />
    <glyph glyph-name="S" unicode="S" horiz-adv-x="629" 
d="M112.5 36q-70.5 50 -92.5 128l140 68q36 -100 140 -100q50 0 85.5 23t35.5 57q0 32 -31 51.5t-102 36.5q-86 21 -134 72t-48 125q0 100 73.5 157.5t200.5 57.5q88 0 149.5 -39t93.5 -109l-138 -77q-17 38 -48.5 59.5t-74.5 21.5q-47 0 -73.5 -15t-26.5 -41q0 -29 27 -47
t103 -37q91 -23 141 -69.5t50 -126.5q0 -73 -35 -128.5t-101 -86.5t-156 -31q-108 0 -178.5 50z" />
    <glyph glyph-name="T" unicode="T" horiz-adv-x="587" 
d="M646 700l-26 -146h-193l-98 -554h-159l98 554h-193l26 146h545z" />
    <glyph glyph-name="U" unicode="U" horiz-adv-x="669" 
d="M172 15q-55 29 -85.5 82.5t-30.5 125.5q0 31 6 64l73 413h160l-75 -426q-3 -16 -3 -32q0 -48 26 -77t73 -29q59 0 95 35.5t48 102.5l75 426h160l-73 -413q-25 -142 -103 -221.5t-219 -79.5q-72 0 -127 29z" />
    <glyph glyph-name="V" unicode="V" horiz-adv-x="720" 
d="M404 0h-173l-136 700h175l80 -487l251 487h184z" />
    <glyph glyph-name="W" unicode="W" horiz-adv-x="980" 
d="M331 0h-185l-47 700h161l17 -485l205 472h161l40 -472l188 485h170l-293 -700h-186l-34 466z" />
    <glyph glyph-name="X" unicode="X" horiz-adv-x="681" 
d="M180 0h-204l288 370l-152 330h191l79 -200l156 200h199l-280 -344l160 -356h-188l-94 215z" />
    <glyph glyph-name="Y" unicode="Y" horiz-adv-x="659" 
d="M365 0h-159l50 280l-166 420h180l90 -256l176 256h193l-314 -420z" />
    <glyph glyph-name="Z" unicode="Z" horiz-adv-x="593" 
d="M513 0h-524l26 146l389 408h-303l26 146h492l-26 -146l-389 -408h335z" />
    <glyph glyph-name="bracketleft" unicode="[" horiz-adv-x="355" 
d="M265 -140h-274l158 900h274l-22 -129h-131l-114 -642h131z" />
    <glyph glyph-name="backslash" unicode="\" horiz-adv-x="416" 
d="M333 -140h-156l-72 900h155z" />
    <glyph glyph-name="bracketright" unicode="]" horiz-adv-x="355" 
d="M228 -140h-274l22 129h131l114 642h-131l22 129h274z" />
    <glyph glyph-name="asciicircum" unicode="^" horiz-adv-x="518" 
d="M196 384h-150l217 316h150l107 -316h-139l-61 193z" />
    <glyph glyph-name="underscore" unicode="_" horiz-adv-x="519" 
d="M421 -125h-455l22 120h455z" />
    <glyph glyph-name="grave" unicode="`" horiz-adv-x="269" 
d="M313 566h-108l-110 166h156z" />
    <glyph glyph-name="a" unicode="a" horiz-adv-x="595" 
d="M122.5 18.5q-43.5 30.5 -65 82.5t-21.5 116q0 35 6 69q18 101 87 161.5t174 60.5q42 0 76 -17t52 -43l9 48h144l-88 -496h-144l9 47q-50 -59 -134 -59q-61 0 -104.5 30.5zM361 153q31 29 40 79q3 18 3 36q0 47 -23.5 75.5t-69.5 28.5q-49 0 -80.5 -30t-40.5 -78
q-3 -16 -3 -32q0 -47 25 -77.5t69 -30.5q49 0 80 29z" />
    <glyph glyph-name="b" unicode="b" horiz-adv-x="594" 
d="M215 5q-36 17 -51 44l-9 -49h-144l124 700h144l-44 -246q21 25 58.5 39.5t81.5 14.5q88 0 135.5 -63.5t47.5 -162.5q0 -34 -6 -72q-18 -99 -84 -160.5t-175 -61.5q-42 0 -78 17zM364 155.5q32 31.5 41 82.5q3 17 3 32q0 46 -24.5 74t-68.5 28q-49 0 -81 -32t-41 -81
q-3 -16 -3 -31q0 -47 26 -75.5t67 -28.5q49 0 81 31.5z" />
    <glyph glyph-name="c" unicode="c" horiz-adv-x="550" 
d="M139 18q-50 30 -76.5 83t-26.5 120q0 32 6 66q19 104 96 162.5t195 58.5q77 0 129 -36t75 -101l-129 -64q-28 65 -94 65q-49 0 -83 -29.5t-42 -77.5q-3 -16 -3 -33q0 -47 24.5 -77.5t66.5 -30.5q37 0 61 17.5t44 52.5l116 -69q-37 -70 -93.5 -103.5t-147.5 -33.5
q-68 0 -118 30z" />
    <glyph glyph-name="d" unicode="d" horiz-adv-x="595" 
d="M122.5 18.5q-43.5 30.5 -65 82.5t-21.5 116q0 35 6 69q18 101 87 161.5t174 60.5q42 0 76 -17t52 -43l45 252h144l-124 -700h-144l9 47q-50 -59 -134 -59q-61 0 -104.5 30.5zM361 153q31 29 40 79q3 18 3 36q0 47 -23.5 75.5t-69.5 28.5q-49 0 -80.5 -30t-40.5 -78
q-3 -16 -3 -32q0 -47 25 -77.5t69 -30.5q49 0 80 29z" />
    <glyph glyph-name="e" unicode="e" horiz-adv-x="571" 
d="M441.5 481.5q48.5 -26.5 74 -73.5t25.5 -107q0 -26 -4 -49l-7 -40h-352q4 -47 28.5 -75.5t66.5 -28.5q38 0 64 15.5t46 47.5l117 -51q-38 -67 -94.5 -99.5t-145.5 -32.5q-68 0 -119 29.5t-78.5 82t-27.5 118.5q0 34 5 59q19 105 94.5 168t193.5 63q65 0 113.5 -26.5z
M239.5 370q-29.5 -21 -45.5 -58h210q-3 34 -28.5 56.5t-62.5 22.5q-44 0 -73.5 -21z" />
    <glyph glyph-name="f" unicode="f" horiz-adv-x="398" 
d="M302 520l-4 -24h126l-22 -121h-126l-66 -375h-144l66 375h-92l22 121h92l5 31q17 96 68.5 140.5t145.5 44.5q47 0 87 -12l-24 -132q-34 12 -63 12q-60 0 -71 -60z" />
    <glyph glyph-name="g" unicode="g" horiz-adv-x="589" 
d="M74 -185.5q-55 30.5 -85 85.5l127 81q33 -62 111 -62q54 0 85.5 31t40.5 89l3 19q-44 -57 -134 -57q-57 0 -99 30t-64.5 81.5t-22.5 113.5q0 31 6 62q18 99 84.5 159.5t169.5 60.5q44 0 78 -17t51 -43l9 48h144l-79 -449q-24 -138 -93.5 -200.5t-199.5 -62.5
q-77 0 -132 30.5zM368.5 180.5q30.5 38.5 30.5 92.5q0 44 -25 71.5t-67 27.5q-54 0 -87 -35t-33 -91q0 -46 26 -75t68 -29q57 0 87.5 38.5z" />
    <glyph glyph-name="h" unicode="h" horiz-adv-x="573" 
d="M11 0l124 700h144l-45 -253q21 27 58 44t81 17q74 0 116 -43.5t42 -115.5q0 -25 -4 -46l-53 -303h-144l50 281q2 14 2 21q0 33 -20 53.5t-55 20.5q-39 0 -67 -26t-35 -69l-50 -281h-144z" />
    <glyph glyph-name="i" unicode="i" horiz-adv-x="254" 
d="M132 579q-27 27 -27 64q0 38 27 64.5t64 26.5q38 0 64.5 -26.5t26.5 -64.5q0 -37 -26.5 -64t-64.5 -27q-37 0 -64 27zM154 0h-144l88 496h144z" />
    <glyph glyph-name="j" unicode="j" horiz-adv-x="254" 
d="M132 579q-27 27 -27 64q0 38 27 64.5t64 26.5q38 0 64.5 -26.5t26.5 -64.5q0 -37 -26.5 -64t-64.5 -27q-37 0 -64 27zM-117 -201l24 133q21 -12 46 -12q20 0 34.5 14t19.5 43l92 519h144l-93 -521q-17 -97 -60.5 -142t-129.5 -45q-49 0 -77 11z" />
    <glyph glyph-name="k" unicode="k" horiz-adv-x="525" 
d="M373 496h170l-195 -250l107 -246h-155l-85 204h-24l-36 -204h-144l124 700h144l-72 -408h16z" />
    <glyph glyph-name="l" unicode="l" horiz-adv-x="296" 
d="M73 25.5q-35 37.5 -35 101.5q0 23 4 44l93 529h144l-94 -532q-1 -4 -1 -11q0 -16 9 -26t25 -10q23 0 47 10l-23 -132q-31 -11 -76 -11q-58 0 -93 37.5z" />
    <glyph glyph-name="m" unicode="m" horiz-adv-x="826" 
d="M11 0l88 496h143l-9 -49q20 28 55 44.5t77 16.5q43 0 74.5 -17t48.5 -50q22 29 59.5 48t89.5 19q68 0 108.5 -43t40.5 -112q0 -22 -4 -42l-55 -311h-143l53 298q1 5 1 16q0 27 -17 44.5t-44 17.5q-33 0 -54.5 -20.5t-28.5 -57.5l-53 -298h-144l53 298q1 5 1 16
q0 27 -16.5 44.5t-43.5 17.5q-34 0 -55.5 -20.5t-28.5 -57.5l-53 -298h-143z" />
    <glyph glyph-name="n" unicode="n" 
d="M11 0l88 496h144l-9 -49q20 28 54 44.5t77 16.5q76 0 117.5 -43.5t41.5 -115.5q0 -26 -4 -47l-54 -302h-144l50 285q2 12 2 19q0 32 -20 52t-55 20q-37 0 -61.5 -24t-32.5 -67l-50 -285h-144z" />
    <glyph glyph-name="o" unicode="o" horiz-adv-x="588" 
d="M143 17.5q-52 29.5 -80.5 82t-28.5 119.5q0 29 6 59q18 102 92 166t191 64q68 0 120.5 -29.5t81 -82t28.5 -119.5q0 -24 -5 -56q-18 -104 -92.5 -168.5t-192.5 -64.5q-68 0 -120 29.5zM357.5 155q33.5 31 42.5 81q3 17 3 33q0 46 -25 74.5t-71 28.5q-45 0 -78 -31
t-42 -81q-3 -16 -3 -32q0 -46 25 -75t70 -29t78.5 31z" />
    <glyph glyph-name="p" unicode="p" horiz-adv-x="594" 
d="M-25 -204l124 700h144l-9 -47q21 27 58 43t80 16q59 0 101 -30t64 -81.5t22 -115.5q0 -32 -6 -67q-18 -100 -82.5 -163t-170.5 -63q-49 0 -83 16.5t-54 43.5l-44 -252h-144zM365.5 154.5q30.5 30.5 39.5 80.5q3 15 3 29q0 48 -25.5 78t-67.5 30q-58 0 -91.5 -40.5
t-33.5 -98.5q0 -48 26 -78.5t68 -30.5q51 0 81.5 30.5z" />
    <glyph glyph-name="q" unicode="q" horiz-adv-x="592" 
d="M356 43q-41 -55 -131 -55q-60 0 -103 30.5t-65.5 82t-22.5 114.5q0 32 6 63q18 105 86 167.5t177 62.5q44 0 76 -16.5t49 -44.5l9 49h144l-124 -700h-144zM359 155.5q31 31.5 39 78.5q3 17 3 31q0 47 -25.5 77t-68.5 30q-54 0 -88.5 -39t-34.5 -98q0 -48 26 -79.5
t69 -31.5q49 0 80 31.5z" />
    <glyph glyph-name="r" unicode="r" horiz-adv-x="419" 
d="M11 0l88 496h144l-12 -66q22 39 59 58.5t87 19.5q30 0 55 -9l-25 -138q-31 15 -66 15q-55 0 -93 -33.5t-49 -94.5l-44 -248h-144z" />
    <glyph glyph-name="s" unicode="s" horiz-adv-x="502" 
d="M90 20q-53 34 -76 90l121 63q13 -28 38.5 -45t59.5 -17q32 0 52 10.5t20 30.5q0 19 -20.5 30t-74.5 24q-62 15 -97 54t-35 88q0 79 56 118.5t152 39.5q138 0 192 -109l-117 -60q-12 26 -36 41.5t-54 15.5q-27 0 -45 -10t-18 -26t19 -28t69 -22q70 -13 110.5 -46t40.5 -95
q0 -82 -61 -131.5t-169 -49.5q-74 0 -127 34z" />
    <glyph glyph-name="t" unicode="t" horiz-adv-x="435" 
d="M288 375l-34 -191q-1 -4 -1 -13q0 -22 14 -36t40 -14q37 0 78 20l-25 -139q-51 -14 -104 -14q-70 0 -110.5 43.5t-40.5 111.5q0 12 4 40l34 192h-99l22 121h99l18 103l154 58l-28 -161h139l-22 -121h-138z" />
    <glyph glyph-name="u" unicode="u" 
d="M82.5 31.5q-41.5 43.5 -41.5 115.5q0 26 4 47l54 302h144l-50 -285q-2 -12 -2 -19q0 -32 20 -52t55 -20q37 0 61.5 24t32.5 67l50 285h144l-88 -496h-144l9 49q-20 -28 -54 -44.5t-77 -16.5q-76 0 -117.5 43.5z" />
    <glyph glyph-name="v" unicode="v" horiz-adv-x="540" 
d="M306 0h-158l-96 496h152l51 -313l160 313h160z" />
    <glyph glyph-name="w" unicode="w" horiz-adv-x="788" 
d="M272 0h-155l-59 496h148l21 -307l130 307h153l26 -307l127 307h155l-230 -496h-156l-24 329z" />
    <glyph glyph-name="x" unicode="x" horiz-adv-x="549" 
d="M155 0h-185l223 264l-124 232h171l55 -118l94 118h177l-208 -239l133 -257h-168l-66 137z" />
    <glyph glyph-name="y" unicode="y" horiz-adv-x="562" 
d="M434 496h159l-303 -552q-34 -62 -64 -95t-70 -47t-103 -14q-59 0 -93 16l26 144q19 -12 37.5 -18.5t47.5 -6.5q31 0 54.5 18t43.5 56l5 9l-121 490h152l64 -311z" />
    <glyph glyph-name="z" unicode="z" horiz-adv-x="465" 
d="M389 0h-404l22 121l271 254h-219l22 121h384l-22 -121l-272 -254h240z" />
    <glyph glyph-name="braceleft" unicode="{" horiz-adv-x="382" 
d="M208 -140q-68 0 -107 35.5t-39 97.5q0 18 3 37l28 161q1 4 1 13q0 21 -12.5 32.5t-35.5 11.5h-32l22 124h32q30 0 46 14t21 43l30 171q15 85 61 122.5t132 37.5h92l-22 -129h-63q-50 0 -60 -51l-28 -159q-9 -50 -31.5 -76t-61.5 -35q56 -16 56 -77q0 -16 -3 -34l-28 -159
q-1 -4 -1 -13q0 -18 11 -28t32 -10h63l-22 -129h-84z" />
    <glyph glyph-name="bar" unicode="|" horiz-adv-x="278" 
d="M139 -204h-160l160 904h160z" />
    <glyph glyph-name="braceright" unicode="}" horiz-adv-x="382" 
d="M-46 -140l22 129h63q50 0 60 51l28 159q9 50 31.5 76t61.5 35q-56 16 -56 77q0 16 3 34l28 159q1 4 1 13q0 18 -11 28t-32 10h-63l22 129h84q68 0 107 -35.5t39 -97.5q0 -17 -3 -37l-28 -161q-1 -4 -1 -13q0 -21 12.5 -32.5t35.5 -11.5h32l-22 -124h-32q-30 0 -46 -14
t-21 -43l-30 -171q-15 -85 -61 -122.5t-132 -37.5h-92z" />
    <glyph glyph-name="asciitilde" unicode="~" horiz-adv-x="519" 
d="M20 263q19 61 60.5 95t104.5 34q35 0 58.5 -9.5t50.5 -27.5q19 -12 32 -18t29 -6q23 0 37 13t24 41l104 -34q-19 -61 -60 -95t-104 -34q-35 0 -59 9.5t-51 27.5q-19 12 -32 18t-28 6q-24 0 -38 -13t-23 -41z" />
    <glyph glyph-name="uni00A0" unicode="&#xa0;" horiz-adv-x="206" 
 />
    <glyph glyph-name="exclamdown" unicode="&#xa1;" horiz-adv-x="266" 
d="M96 344.5q-28 27.5 -28 65.5q0 39 28 66.5t66 27.5t66 -27.5t28 -66.5q0 -38 -28 -65.5t-66 -27.5t-66 27.5zM138 -204h-168l102 442h120z" />
    <glyph glyph-name="cent" unicode="&#xa2;" horiz-adv-x="550" 
d="M356 243.5q24 17.5 44 52.5l116 -69q-32 -60 -76.5 -92.5t-110.5 -41.5l-17 -93h-124l18 99q-72 21 -112 81t-40 144q0 32 6 65q17 91 78.5 147.5t156.5 69.5l17 94h124l-18 -98q50 -13 84.5 -46.5t52.5 -82.5l-129 -64q-28 65 -94 65q-49 0 -83 -29.5t-42 -77.5
q-3 -16 -3 -33q0 -47 24.5 -77.5t66.5 -30.5q37 0 61 17.5z" />
    <glyph glyph-name="sterling" unicode="&#xa3;" horiz-adv-x="571" 
d="M252 264q-4 -39 -20 -70t-47 -63h326l-23 -131h-485l23 131q35 28 57 60.5t30 72.5h-75l19 107h53l-4 22q-9 45 -9 69q0 120 68.5 185t198.5 65q96 0 153 -44t72 -124l-148 -45q-7 38 -31.5 60t-58.5 22q-50 0 -76.5 -31.5t-26.5 -88.5q0 -20 1 -35.5t2 -27.5l2 -27h209
l-19 -107h-191z" />
    <glyph glyph-name="currency" unicode="&#xa4;" horiz-adv-x="636" 
d="M553 349q0 -55 -26 -105l80 -81l-87 -88l-83 83q-46 -23 -101 -23q-56 0 -100 23l-83 -83l-88 88l81 81q-26 50 -26 105v2q0 55 26 105l-81 81l88 88l83 -83q44 23 100 23q55 0 101 -23l83 83l87 -88l-80 -81q26 -50 26 -105v-2zM416 351q0 37 -22 61t-58 24
q-35 0 -57 -24t-22 -61v-2q0 -37 22 -61t57 -24q36 0 58 24t22 61v2z" />
    <glyph glyph-name="yen" unicode="&#xa5;" horiz-adv-x="654" 
d="M540 700h186l-229 -307h81l-20 -112h-145l-12 -68h145l-20 -113h-145l-18 -100h-160l18 100h-144l20 113h144l12 68h-144l20 112h80l-121 307h180l89 -268z" />
    <glyph glyph-name="brokenbar" unicode="&#xa6;" horiz-adv-x="278" 
d="M232 322h-160l67 378h160zM139 -204h-160l67 378h160z" />
    <glyph glyph-name="section" unicode="&#xa7;" horiz-adv-x="607" 
d="M514.5 358q49.5 -45 49.5 -114q0 -51 -19.5 -84.5t-57.5 -61.5q20 -34 20 -76q0 -111 -69 -175.5t-205 -64.5q-85 0 -148.5 40.5t-89.5 111.5l136 65q15 -35 44.5 -54t71.5 -19q46 0 76 16.5t30 47.5q0 28 -29 48t-103 35q-78 16 -130 64t-52 116q0 89 80 147
q-25 45 -25 101q0 63 36 111t98.5 74t139.5 26q92 0 146.5 -33.5t86.5 -102.5l-138 -77q-13 31 -43 50t-68 19q-44 0 -73.5 -16.5t-29.5 -43.5q0 -29 30.5 -50t102.5 -37q83 -18 132.5 -63zM395 174q11 20 11 42q0 32 -30.5 50t-110.5 35q-27 5 -58 19q-10 -18 -10 -38
q0 -33 31.5 -53t107.5 -36q28 -5 59 -19z" />
    <glyph glyph-name="dieresis" unicode="&#xa8;" horiz-adv-x="423" 
d="M103 585q-24 24 -24 57q0 34 24 58t58 24t58 -24t24 -58q0 -33 -24 -57t-58 -24t-58 24zM344 585q-24 24 -24 57q0 34 24 58t57 24q34 0 58 -24t24 -58q0 -33 -24 -57t-58 -24q-33 0 -57 24z" />
    <glyph glyph-name="copyright" unicode="&#xa9;" horiz-adv-x="806" 
d="M240.5 33.5q-79.5 47.5 -124.5 130.5t-45 185v2q0 102 45 185t124.5 130.5t180.5 47.5t180.5 -47.5t124.5 -130.5t45 -185v-2q0 -102 -45 -185t-124.5 -130.5t-180.5 -47.5t-180.5 47.5zM561 93q63 39 99 107t36 149v2q0 81 -36 149t-99 107t-140 39t-140 -39t-99 -107
t-36 -149v-2q0 -81 36 -149t99 -107t140 -39t140 39zM320 168.5q-45 26.5 -70.5 73.5t-25.5 107v2q0 60 25.5 107t70.5 73.5t101 26.5q59 0 104.5 -28.5t64.5 -79.5l-57 -29q-15 33 -45 52.5t-67 19.5q-57 0 -90.5 -39.5t-33.5 -102.5v-2q0 -63 33 -102.5t91 -39.5
q38 0 67.5 20.5t46.5 52.5l60 -28q-24 -51 -70 -80.5t-104 -29.5q-56 0 -101 26.5z" />
    <glyph glyph-name="ordfeminine" unicode="&#xaa;" horiz-adv-x="377" 
d="M107 415q-32 41 -32 104q0 23 4 43q12 67 56.5 106t109.5 39q28 0 50 -11.5t34 -28.5l6 32h85l-57 -317h-85l6 32q-32 -40 -88 -40q-57 0 -89 41zM288 483q23 28 23 73q0 32 -16 51.5t-46 19.5q-38 0 -61 -27t-23 -71q0 -33 16.5 -53.5t45.5 -20.5q38 0 61 28z" />
    <glyph glyph-name="guillemotleft" unicode="&#xab;" horiz-adv-x="528" 
d="M464 100h-132l-77 196l137 196h142l-139 -201zM243 100h-132l-77 196l137 196h142l-139 -201z" />
    <glyph glyph-name="logicalnot" unicode="&#xac;" horiz-adv-x="519" 
d="M459 85h-128l30 168h-329l22 124h457z" />
    <glyph glyph-name="uni00AD" unicode="&#xad;" horiz-adv-x="378" 
d="M346 255h-313l22 120h313z" />
    <glyph glyph-name="registered" unicode="&#xae;" horiz-adv-x="407" 
d="M147 448q-43 44 -43 112t43 112t112 44t111.5 -44t42.5 -112t-42.5 -112t-111.5 -44t-112 44zM344 473.5q30 33.5 30 86.5t-30 86.5t-85 33.5t-85 -33t-30 -87t30 -87t85 -33t85 33.5zM204 466v188h62q29 0 42.5 -14t13.5 -38q0 -16 -7.5 -27t-18.5 -16q14 -5 17 -25
l9 -68h-38l-6 62q-2 17 -18 17h-20v-79h-36zM266 576q9 0 14.5 6t5.5 18t-5.5 18t-14.5 6h-26v-48h26z" />
    <glyph glyph-name="macron" unicode="&#xaf;" horiz-adv-x="297" 
d="M337 603h-253l18 101h253z" />
    <glyph glyph-name="degree" unicode="&#xb0;" horiz-adv-x="346" 
d="M125 464q-33 32 -33 84q0 68 43.5 110t111.5 42q52 0 85.5 -32.5t33.5 -83.5q0 -68 -43.5 -110t-111.5 -42q-53 0 -86 32zM261 530q17 17 17 43q0 19 -11 32.5t-29 13.5q-25 0 -41.5 -17t-16.5 -43q0 -19 11 -32.5t29 -13.5q24 0 41 17z" />
    <glyph glyph-name="plusminus" unicode="&#xb1;" horiz-adv-x="518" 
d="M377 561l-24 -138h165l-22 -124h-165l-24 -138h-128l24 138h-164l22 124h164l24 138h128zM443 0h-457l22 124h457z" />
    <glyph glyph-name="uni00B2" unicode="&#xb2;" horiz-adv-x="282" 
d="M48 350l15 86l128 100q38 29 38 55q0 13 -8.5 21t-22.5 8q-33 0 -42 -40l-81 22q10 48 44.5 76t91.5 28q54 0 85 -28.5t31 -73.5q0 -41 -17.5 -67.5t-61.5 -60.5l-51 -40h103l-15 -86h-237z" />
    <glyph glyph-name="uni00B3" unicode="&#xb3;" horiz-adv-x="290" 
d="M81.5 374.5q-33.5 30.5 -34.5 77.5l89 17q2 -18 12 -29t26 -11q20 0 31.5 12.5t11.5 33.5q0 40 -62 40l10 59l49 47h-121l14 79h227l-14 -79l-60 -53q25 -8 40 -30.5t15 -51.5q0 -64 -38.5 -103t-109.5 -39q-52 0 -85.5 30.5z" />
    <glyph glyph-name="acute" unicode="&#xb4;" horiz-adv-x="269" 
d="M182 566h-116l114 166h164z" />
    <glyph glyph-name="uni00B5" unicode="&#xb5;" 
d="M-25 -204l124 700h144l-50 -285q-2 -12 -2 -19q0 -32 20 -52t55 -20q37 0 61.5 24t32.5 67l50 285h144l-88 -496h-144l9 49q-20 -28 -54 -44.5t-78 -16.5q-23 0 -45 4l-35 -196h-144z" />
    <glyph glyph-name="paragraph" unicode="&#xb6;" horiz-adv-x="759" 
d="M212 -204l87 493h-23q-52 0 -96 21t-70 62.5t-26 98.5q0 104 69.5 166.5t195.5 62.5h469l-23 -127h-72l-137 -777h-144l137 777h-86l-137 -777h-144z" />
    <glyph glyph-name="periodcentered" unicode="&#xb7;" horiz-adv-x="233" 
d="M68 283.5q-28 27.5 -28 66.5q0 38 28 66t66 28t66 -28t28 -66q0 -39 -28 -66.5t-66 -27.5t-66 27.5z" />
    <glyph glyph-name="cedilla" unicode="&#xb8;" horiz-adv-x="198" 
d="M110 -59.5q20 -23.5 20 -56.5q0 -48 -32.5 -74t-88.5 -26q-49 0 -81 16l28 64q23 -14 54 -14q42 0 42 34q0 11 -8 18.5t-21 7.5q-19 0 -33 -12l-36 24l32 90h74l-21 -50q14 2 19 2q32 0 52 -23.5z" />
    <glyph glyph-name="uni00B9" unicode="&#xb9;" horiz-adv-x="219" 
d="M215 350h-103l43 247l-93 -52l19 105l93 50h103z" />
    <glyph glyph-name="ordmasculine" unicode="&#xba;" horiz-adv-x="381" 
d="M114.5 417q-42.5 43 -42.5 110q0 17 3 35q11 64 60.5 104.5t124.5 40.5q68 0 110.5 -43t42.5 -109q0 -17 -3 -35q-12 -65 -60.5 -105.5t-123.5 -40.5q-69 0 -111.5 43zM294 487q22 24 22 63q0 30 -17.5 49.5t-45.5 19.5q-38 0 -60.5 -25t-22.5 -63q0 -30 17 -49t46 -19
q39 0 61 24z" />
    <glyph glyph-name="guillemotright" unicode="&#xbb;" horiz-adv-x="529" 
d="M374 100h-142l139 201l-69 191h132l77 -196zM153 100h-142l139 201l-69 191h132l77 -196z" />
    <glyph glyph-name="onequarter" unicode="&#xbc;" horiz-adv-x="763" 
d="M215 350h-103l43 247l-93 -52l19 105l93 50h103zM210 0h-143l530 700h143zM662 0h-95l11 61h-149l14 80l186 209h95l-37 -209h48l-14 -80h-48zM606 222l-68 -81h54z" />
    <glyph glyph-name="onehalf" unicode="&#xbd;" horiz-adv-x="814" 
d="M215 350h-103l43 247l-93 -52l19 105l93 50h103zM210 0h-143l530 700h143zM518 0l15 86l128 100q38 29 38 55q0 13 -8.5 21t-22.5 8q-33 0 -42 -40l-81 22q10 48 44.5 76t91.5 28q54 0 85 -28.5t31 -73.5q0 -41 -17.5 -67.5t-61.5 -60.5l-51 -40h103l-15 -86h-237z" />
    <glyph glyph-name="threequarters" unicode="&#xbe;" horiz-adv-x="812" 
d="M81.5 374.5q-33.5 30.5 -34.5 77.5l89 17q2 -18 12 -29t26 -11q20 0 31.5 12.5t11.5 33.5q0 40 -62 40l10 59l49 47h-121l14 79h227l-14 -79l-60 -53q25 -8 40 -30.5t15 -51.5q0 -64 -38.5 -103t-109.5 -39q-52 0 -85.5 30.5zM259 0h-143l530 700h143zM711 0h-95l11 61
h-149l14 80l186 209h95l-37 -209h48l-14 -80h-48zM655 222l-68 -81h54z" />
    <glyph glyph-name="questiondown" unicode="&#xbf;" horiz-adv-x="539" 
d="M225 346q-28 28 -28 66q0 39 28 66.5t66 27.5t66 -27.5t28 -66.5q0 -38 -28 -66t-66 -28t-66 28zM47 -167.5q-57 48.5 -57 129.5q0 43 14 74t39.5 54t68.5 50q44 28 63 53.5t25 62.5l1 6h138l-4 -24q-10 -61 -33.5 -98t-76.5 -70q-42 -26 -62.5 -47.5t-20.5 -48.5
q0 -26 22 -43.5t57 -17.5q93 0 132 95l114 -49q-28 -84 -98 -129.5t-167 -45.5q-98 0 -155 48.5z" />
    <glyph glyph-name="Agrave" unicode="&#xc0;" horiz-adv-x="740" 
d="M681 0h-171l-23 125h-267l-66 -125h-183l392 700h172zM418 497l-125 -236h169zM518 770h-108l-110 166h156z" />
    <glyph glyph-name="Aacute" unicode="&#xc1;" horiz-adv-x="740" 
d="M681 0h-171l-23 125h-267l-66 -125h-183l392 700h172zM418 497l-125 -236h169zM521 770h-116l114 166h164z" />
    <glyph glyph-name="Acircumflex" unicode="&#xc2;" horiz-adv-x="740" 
d="M681 0h-171l-23 125h-267l-66 -125h-183l392 700h172zM418 497l-125 -236h169zM400 770h-104l142 166h106l84 -166h-94l-56 75z" />
    <glyph glyph-name="Atilde" unicode="&#xc3;" horiz-adv-x="740" 
d="M681 0h-171l-23 125h-267l-66 -125h-183l392 700h172zM418 497l-125 -236h169zM305 826q32 89 117 89q19 0 33.5 -4.5t34.5 -14.5q11 -5 23 -9.5t23 -4.5q15 0 24.5 7.5t15.5 24.5l73 -31q-16 -45 -45 -66.5t-72 -21.5q-19 0 -33 5t-33 14q-12 5 -24 9.5t-23 4.5
q-15 0 -25 -8t-16 -25z" />
    <glyph glyph-name="Adieresis" unicode="&#xc4;" horiz-adv-x="740" 
d="M681 0h-171l-23 125h-267l-66 -125h-183l392 700h172zM418 497l-125 -236h169zM298 789q-24 24 -24 57q0 34 24 58t58 24t58 -24t24 -58q0 -33 -24 -57t-58 -24t-58 24zM539 789q-24 24 -24 57q0 34 24 58t57 24q34 0 58 -24t24 -58q0 -33 -24 -57t-58 -24q-33 0 -57 24z
" />
    <glyph glyph-name="Aring" unicode="&#xc5;" horiz-adv-x="740" 
d="M681 0h-171l-23 125h-267l-66 -125h-183l392 700h172zM418 497l-125 -236h169zM399 785.5q-26 25.5 -26 65.5q0 54 32 87.5t89 33.5q39 0 64.5 -25.5t25.5 -65.5q0 -54 -32 -87.5t-88 -33.5q-39 0 -65 25.5zM502.5 839.5q11.5 11.5 11.5 31.5q0 13 -8.5 23t-21.5 10
q-18 0 -29.5 -11.5t-11.5 -31.5q0 -13 8.5 -23t22.5 -10q17 0 28.5 11.5z" />
    <glyph glyph-name="AE" unicode="&#xc6;" horiz-adv-x="1003" 
d="M1041 700l-26 -146h-353l-22 -123h287l-25 -142h-287l-25 -143h353l-26 -146h-513l22 126h-193l-73 -126h-189l427 700h643zM482 554l-169 -291h138l51 291h-20z" />
    <glyph glyph-name="Ccedilla" unicode="&#xc7;" horiz-adv-x="714" 
d="M476.5 159.5q39.5 24.5 72.5 72.5l115 -88q-49 -80 -117.5 -118.5t-178.5 -39.5l-10 -24q14 2 19 2q32 0 52 -23.5t20 -56.5q0 -48 -32.5 -74t-88.5 -26q-49 0 -81 16l28 64q23 -14 54 -14q42 0 42 34q0 11 -8 18.5t-21 7.5q-19 0 -33 -12l-36 24l25 69
q-74 13 -128.5 56.5t-83 109.5t-28.5 146q0 38 8 84q17 95 68 169t134 116t190 42q193 0 272 -164l-130 -80q-26 47 -60.5 71t-88.5 24q-91 0 -149 -55t-73 -141q-5 -28 -5 -51q0 -78 42.5 -130.5t113.5 -52.5q57 0 96.5 24.5z" />
    <glyph glyph-name="Egrave" unicode="&#xc8;" horiz-adv-x="614" 
d="M528 0h-513l124 700h513l-26 -146h-353l-22 -123h287l-25 -142h-287l-25 -143h353zM464 770h-108l-110 166h156z" />
    <glyph glyph-name="Eacute" unicode="&#xc9;" horiz-adv-x="614" 
d="M528 0h-513l124 700h513l-26 -146h-353l-22 -123h287l-25 -142h-287l-25 -143h353zM467 770h-116l114 166h164z" />
    <glyph glyph-name="Ecircumflex" unicode="&#xca;" horiz-adv-x="614" 
d="M528 0h-513l124 700h513l-26 -146h-353l-22 -123h287l-25 -142h-287l-25 -143h353zM346 770h-104l142 166h106l84 -166h-94l-56 75z" />
    <glyph glyph-name="Edieresis" unicode="&#xcb;" horiz-adv-x="614" 
d="M528 0h-513l124 700h513l-26 -146h-353l-22 -123h287l-25 -142h-287l-25 -143h353zM244 789q-24 24 -24 57q0 34 24 58t58 24t58 -24t24 -58q0 -33 -24 -57t-58 -24t-58 24zM485 789q-24 24 -24 57q0 34 24 58t57 24q34 0 58 -24t24 -58q0 -33 -24 -57t-58 -24
q-33 0 -57 24z" />
    <glyph glyph-name="Igrave" unicode="&#xcc;" horiz-adv-x="278" 
d="M175 0h-160l124 700h160zM287 770h-108l-110 166h156z" />
    <glyph glyph-name="Iacute" unicode="&#xcd;" horiz-adv-x="278" 
d="M175 0h-160l124 700h160zM290 770h-116l114 166h164z" />
    <glyph glyph-name="Icircumflex" unicode="&#xce;" horiz-adv-x="278" 
d="M175 0h-160l124 700h160zM169 770h-104l142 166h106l84 -166h-94l-56 75z" />
    <glyph glyph-name="Idieresis" unicode="&#xcf;" horiz-adv-x="278" 
d="M175 0h-160l124 700h160zM67 789q-24 24 -24 57q0 34 24 58t58 24t58 -24t24 -58q0 -33 -24 -57t-58 -24t-58 24zM308 789q-24 24 -24 57q0 34 24 58t57 24q34 0 58 -24t24 -58q0 -33 -24 -57t-58 -24q-33 0 -57 24z" />
    <glyph glyph-name="Eth" unicode="&#xd0;" horiz-adv-x="683" 
d="M387 700q94 0 162 -40t103.5 -109.5t35.5 -158.5q0 -38 -8 -84q-16 -91 -68.5 -160.5t-140.5 -108.5t-206 -39h-250l49 279h-90l26 142h90l49 279h248zM519 385q0 76 -40 122.5t-115 46.5h-91l-23 -133h142l-26 -142h-142l-23 -133h91q90 0 148.5 50.5t73.5 134.5
q5 32 5 54z" />
    <glyph glyph-name="Ntilde" unicode="&#xd1;" horiz-adv-x="711" 
d="M167 0h-152l124 700h162l202 -436l77 436h152l-124 -700h-146l-214 457zM290 826q32 89 117 89q19 0 33.5 -4.5t34.5 -14.5q11 -5 23 -9.5t23 -4.5q15 0 24.5 7.5t15.5 24.5l73 -31q-16 -45 -45 -66.5t-72 -21.5q-19 0 -33 5t-33 14q-12 5 -24 9.5t-23 4.5q-15 0 -25 -8
t-16 -25z" />
    <glyph glyph-name="Ograve" unicode="&#xd2;" horiz-adv-x="785" 
d="M202.5 26.5q-69.5 40.5 -107 112.5t-37.5 163q0 42 7 81q17 98 67.5 172.5t133 116.5t191.5 42q92 0 161.5 -40.5t107 -112.5t37.5 -163q0 -42 -7 -81q-17 -97 -67 -172t-132.5 -117t-191.5 -42q-93 0 -162.5 40.5zM521.5 189.5q56.5 54.5 71.5 140.5q5 24 5 56
q0 79 -40.5 129t-114.5 50q-85 0 -142 -52.5t-73 -137.5q-6 -30 -6 -60q0 -79 41 -129.5t116 -50.5q86 0 142.5 54.5zM541 770h-108l-110 166h156z" />
    <glyph glyph-name="Oacute" unicode="&#xd3;" horiz-adv-x="785" 
d="M202.5 26.5q-69.5 40.5 -107 112.5t-37.5 163q0 42 7 81q17 98 67.5 172.5t133 116.5t191.5 42q92 0 161.5 -40.5t107 -112.5t37.5 -163q0 -42 -7 -81q-17 -97 -67 -172t-132.5 -117t-191.5 -42q-93 0 -162.5 40.5zM521.5 189.5q56.5 54.5 71.5 140.5q5 24 5 56
q0 79 -40.5 129t-114.5 50q-85 0 -142 -52.5t-73 -137.5q-6 -30 -6 -60q0 -79 41 -129.5t116 -50.5q86 0 142.5 54.5zM544 770h-116l114 166h164z" />
    <glyph glyph-name="Ocircumflex" unicode="&#xd4;" horiz-adv-x="785" 
d="M202.5 26.5q-69.5 40.5 -107 112.5t-37.5 163q0 42 7 81q17 98 67.5 172.5t133 116.5t191.5 42q92 0 161.5 -40.5t107 -112.5t37.5 -163q0 -42 -7 -81q-17 -97 -67 -172t-132.5 -117t-191.5 -42q-93 0 -162.5 40.5zM521.5 189.5q56.5 54.5 71.5 140.5q5 24 5 56
q0 79 -40.5 129t-114.5 50q-85 0 -142 -52.5t-73 -137.5q-6 -30 -6 -60q0 -79 41 -129.5t116 -50.5q86 0 142.5 54.5zM423 770h-104l142 166h106l84 -166h-94l-56 75z" />
    <glyph glyph-name="Otilde" unicode="&#xd5;" horiz-adv-x="785" 
d="M202.5 26.5q-69.5 40.5 -107 112.5t-37.5 163q0 42 7 81q17 98 67.5 172.5t133 116.5t191.5 42q92 0 161.5 -40.5t107 -112.5t37.5 -163q0 -42 -7 -81q-17 -97 -67 -172t-132.5 -117t-191.5 -42q-93 0 -162.5 40.5zM521.5 189.5q56.5 54.5 71.5 140.5q5 24 5 56
q0 79 -40.5 129t-114.5 50q-85 0 -142 -52.5t-73 -137.5q-6 -30 -6 -60q0 -79 41 -129.5t116 -50.5q86 0 142.5 54.5zM328 826q32 89 117 89q19 0 33.5 -4.5t34.5 -14.5q11 -5 23 -9.5t23 -4.5q15 0 24.5 7.5t15.5 24.5l73 -31q-16 -45 -45 -66.5t-72 -21.5q-19 0 -33 5
t-33 14q-12 5 -24 9.5t-23 4.5q-15 0 -25 -8t-16 -25z" />
    <glyph glyph-name="Odieresis" unicode="&#xd6;" horiz-adv-x="785" 
d="M202.5 26.5q-69.5 40.5 -107 112.5t-37.5 163q0 42 7 81q17 98 67.5 172.5t133 116.5t191.5 42q92 0 161.5 -40.5t107 -112.5t37.5 -163q0 -42 -7 -81q-17 -97 -67 -172t-132.5 -117t-191.5 -42q-93 0 -162.5 40.5zM521.5 189.5q56.5 54.5 71.5 140.5q5 24 5 56
q0 79 -40.5 129t-114.5 50q-85 0 -142 -52.5t-73 -137.5q-6 -30 -6 -60q0 -79 41 -129.5t116 -50.5q86 0 142.5 54.5zM321 789q-24 24 -24 57q0 34 24 58t58 24t58 -24t24 -58q0 -33 -24 -57t-58 -24t-58 24zM562 789q-24 24 -24 57q0 34 24 58t57 24q34 0 58 -24t24 -58
q0 -33 -24 -57t-58 -24q-33 0 -57 24z" />
    <glyph glyph-name="multiply" unicode="&#xd7;" horiz-adv-x="518" 
d="M444 548l78 -95l-167 -142l114 -138l-100 -85l-114 138l-163 -139l-78 95l163 139l-109 133l100 85l109 -133z" />
    <glyph glyph-name="Oslash" unicode="&#xd8;" horiz-adv-x="785" 
d="M673 632q44 -43 67 -102.5t23 -131.5q0 -42 -7 -81q-17 -97 -67 -172t-132.5 -117t-191.5 -42q-58 0 -105 16l-54 -82h-155l97 148q-44 43 -67 103t-23 131q0 42 7 81q17 98 67.5 172.5t133 116.5t191.5 42q57 0 105 -15l53 81h155zM222 315q0 -58 22 -101l228 349
q-18 2 -29 2q-85 0 -142 -52.5t-73 -137.5q-6 -31 -6 -60zM598 387q0 56 -21 98l-228 -348q18 -2 30 -2q86 0 142.5 54.5t71.5 140.5q5 24 5 57z" />
    <glyph glyph-name="Ugrave" unicode="&#xd9;" horiz-adv-x="669" 
d="M172 15q-55 29 -85.5 82.5t-30.5 125.5q0 31 6 64l73 413h160l-75 -426q-3 -16 -3 -32q0 -48 26 -77t73 -29q59 0 95 35.5t48 102.5l75 426h160l-73 -413q-25 -142 -103 -221.5t-219 -79.5q-72 0 -127 29zM483 770h-108l-110 166h156z" />
    <glyph glyph-name="Uacute" unicode="&#xda;" horiz-adv-x="669" 
d="M172 15q-55 29 -85.5 82.5t-30.5 125.5q0 31 6 64l73 413h160l-75 -426q-3 -16 -3 -32q0 -48 26 -77t73 -29q59 0 95 35.5t48 102.5l75 426h160l-73 -413q-25 -142 -103 -221.5t-219 -79.5q-72 0 -127 29zM486 770h-116l114 166h164z" />
    <glyph glyph-name="Ucircumflex" unicode="&#xdb;" horiz-adv-x="669" 
d="M172 15q-55 29 -85.5 82.5t-30.5 125.5q0 31 6 64l73 413h160l-75 -426q-3 -16 -3 -32q0 -48 26 -77t73 -29q59 0 95 35.5t48 102.5l75 426h160l-73 -413q-25 -142 -103 -221.5t-219 -79.5q-72 0 -127 29zM365 770h-104l142 166h106l84 -166h-94l-56 75z" />
    <glyph glyph-name="Udieresis" unicode="&#xdc;" horiz-adv-x="669" 
d="M172 15q-55 29 -85.5 82.5t-30.5 125.5q0 31 6 64l73 413h160l-75 -426q-3 -16 -3 -32q0 -48 26 -77t73 -29q59 0 95 35.5t48 102.5l75 426h160l-73 -413q-25 -142 -103 -221.5t-219 -79.5q-72 0 -127 29zM263 789q-24 24 -24 57q0 34 24 58t58 24t58 -24t24 -58
q0 -33 -24 -57t-58 -24t-58 24zM504 789q-24 24 -24 57q0 34 24 58t57 24q34 0 58 -24t24 -58q0 -33 -24 -57t-58 -24q-33 0 -57 24z" />
    <glyph glyph-name="Yacute" unicode="&#xdd;" horiz-adv-x="659" 
d="M365 0h-159l50 280l-166 420h180l90 -256l176 256h193l-314 -420zM480 770h-116l114 166h164z" />
    <glyph glyph-name="Thorn" unicode="&#xde;" horiz-adv-x="614" 
d="M15 0l124 700h160l-25 -144h115q93 0 147.5 -48.5t54.5 -136.5q0 -107 -70.5 -167t-194.5 -60h-125l-26 -144h-160zM342 280q44 0 66 21t22 60q0 29 -17 44t-48 15h-115l-25 -140h117z" />
    <glyph glyph-name="germandbls" unicode="&#xdf;" horiz-adv-x="582" 
d="M249 -7.5q-26 4.5 -43 11.5l24 136q30 -13 64 -13q84 0 98 76q2 9 2 26q0 39 -24.5 61t-69.5 22h-22l22 123h22q43 0 67 21.5t24 61.5q0 31 -18 48t-53 17q-42 0 -67 -25t-33 -68l-87 -490h-144l86 488q19 108 87.5 166t179.5 58q87 0 139 -46.5t52 -121.5q0 -17 -3 -37
q-8 -45 -35 -76t-69 -45q44 -19 67 -62.5t23 -100.5q0 -23 -5 -53q-16 -89 -76.5 -135.5t-156.5 -46.5q-25 0 -51 4.5z" />
    <glyph glyph-name="agrave" unicode="&#xe0;" horiz-adv-x="595" 
d="M122.5 18.5q-43.5 30.5 -65 82.5t-21.5 116q0 35 6 69q18 101 87 161.5t174 60.5q42 0 76 -17t52 -43l9 48h144l-88 -496h-144l9 47q-50 -59 -134 -59q-61 0 -104.5 30.5zM361 153q31 29 40 79q3 18 3 36q0 47 -23.5 75.5t-69.5 28.5q-49 0 -80.5 -30t-40.5 -78
q-3 -16 -3 -32q0 -47 25 -77.5t69 -30.5q49 0 80 29zM413 566h-108l-110 166h156z" />
    <glyph glyph-name="aacute" unicode="&#xe1;" horiz-adv-x="595" 
d="M122.5 18.5q-43.5 30.5 -65 82.5t-21.5 116q0 35 6 69q18 101 87 161.5t174 60.5q42 0 76 -17t52 -43l9 48h144l-88 -496h-144l9 47q-50 -59 -134 -59q-61 0 -104.5 30.5zM361 153q31 29 40 79q3 18 3 36q0 47 -23.5 75.5t-69.5 28.5q-49 0 -80.5 -30t-40.5 -78
q-3 -16 -3 -32q0 -47 25 -77.5t69 -30.5q49 0 80 29zM416 566h-116l114 166h164z" />
    <glyph glyph-name="acircumflex" unicode="&#xe2;" horiz-adv-x="595" 
d="M122.5 18.5q-43.5 30.5 -65 82.5t-21.5 116q0 35 6 69q18 101 87 161.5t174 60.5q42 0 76 -17t52 -43l9 48h144l-88 -496h-144l9 47q-50 -59 -134 -59q-61 0 -104.5 30.5zM361 153q31 29 40 79q3 18 3 36q0 47 -23.5 75.5t-69.5 28.5q-49 0 -80.5 -30t-40.5 -78
q-3 -16 -3 -32q0 -47 25 -77.5t69 -30.5q49 0 80 29zM295 566h-104l142 166h106l84 -166h-94l-56 75z" />
    <glyph glyph-name="atilde" unicode="&#xe3;" horiz-adv-x="595" 
d="M122.5 18.5q-43.5 30.5 -65 82.5t-21.5 116q0 35 6 69q18 101 87 161.5t174 60.5q42 0 76 -17t52 -43l9 48h144l-88 -496h-144l9 47q-50 -59 -134 -59q-61 0 -104.5 30.5zM361 153q31 29 40 79q3 18 3 36q0 47 -23.5 75.5t-69.5 28.5q-49 0 -80.5 -30t-40.5 -78
q-3 -16 -3 -32q0 -47 25 -77.5t69 -30.5q49 0 80 29zM200 622q32 89 117 89q19 0 33.5 -4.5t34.5 -14.5q11 -5 23 -9.5t23 -4.5q15 0 24.5 7.5t15.5 24.5l73 -31q-16 -45 -45 -66.5t-72 -21.5q-19 0 -33 5t-33 14q-12 5 -24 9.5t-23 4.5q-15 0 -25 -8t-16 -25z" />
    <glyph glyph-name="adieresis" unicode="&#xe4;" horiz-adv-x="595" 
d="M122.5 18.5q-43.5 30.5 -65 82.5t-21.5 116q0 35 6 69q18 101 87 161.5t174 60.5q42 0 76 -17t52 -43l9 48h144l-88 -496h-144l9 47q-50 -59 -134 -59q-61 0 -104.5 30.5zM361 153q31 29 40 79q3 18 3 36q0 47 -23.5 75.5t-69.5 28.5q-49 0 -80.5 -30t-40.5 -78
q-3 -16 -3 -32q0 -47 25 -77.5t69 -30.5q49 0 80 29zM193 585q-24 24 -24 57q0 34 24 58t58 24t58 -24t24 -58q0 -33 -24 -57t-58 -24t-58 24zM434 585q-24 24 -24 57q0 34 24 58t57 24q34 0 58 -24t24 -58q0 -33 -24 -57t-58 -24q-33 0 -57 24z" />
    <glyph glyph-name="aring" unicode="&#xe5;" horiz-adv-x="595" 
d="M122.5 18.5q-43.5 30.5 -65 82.5t-21.5 116q0 35 6 69q18 101 87 161.5t174 60.5q42 0 76 -17t52 -43l9 48h144l-88 -496h-144l9 47q-50 -59 -134 -59q-61 0 -104.5 30.5zM361 153q31 29 40 79q3 18 3 36q0 47 -23.5 75.5t-69.5 28.5q-49 0 -80.5 -30t-40.5 -78
q-3 -16 -3 -32q0 -47 25 -77.5t69 -30.5q49 0 80 29zM294 581.5q-26 25.5 -26 65.5q0 54 32 87.5t89 33.5q39 0 64.5 -25.5t25.5 -65.5q0 -54 -32 -87.5t-88 -33.5q-39 0 -65 25.5zM397.5 635.5q11.5 11.5 11.5 31.5q0 13 -8.5 23t-21.5 10q-18 0 -29.5 -11.5t-11.5 -31.5
q0 -13 8.5 -23t22.5 -10q17 0 28.5 11.5z" />
    <glyph glyph-name="ae" unicode="&#xe6;" horiz-adv-x="933" 
d="M122.5 18.5q-43.5 30.5 -65 82.5t-21.5 116q0 35 6 69q18 101 87 161.5t174 60.5q42 0 76 -17t52 -43l9 48h144l-4 -24q58 36 134 36q58 0 101 -26t66 -72t23 -104q0 -22 -5 -54l-7 -40h-352q4 -47 28.5 -75.5t66.5 -28.5q38 0 64 15.5t46 47.5l117 -51
q-38 -67 -94.5 -99.5t-145.5 -32.5q-72 0 -117 62l-9 -50h-144l9 47q-50 -59 -134 -59q-61 0 -104.5 30.5zM766 312q-3 34 -28.5 56.5t-62.5 22.5q-44 0 -73.5 -21t-45.5 -58h210zM361 153q31 29 40 79q3 18 3 36q0 47 -23.5 75.5t-69.5 28.5q-49 0 -80.5 -30t-40.5 -78
q-3 -16 -3 -32q0 -47 25 -77.5t69 -30.5q49 0 80 29z" />
    <glyph glyph-name="ccedilla" unicode="&#xe7;" horiz-adv-x="550" 
d="M338 141.5q24 17.5 44 52.5l116 -69q-35 -68 -89 -101.5t-140 -35.5l-11 -26q14 2 19 2q32 0 52 -23.5t20 -56.5q0 -48 -32.5 -74t-88.5 -26q-49 0 -81 16l28 64q23 -14 54 -14q42 0 42 34q0 11 -8 18.5t-21 7.5q-19 0 -33 -12l-36 24l26 72q-77 18 -120 79.5t-43 147.5
q0 32 6 66q19 104 96 162.5t195 58.5q77 0 129 -36t75 -101l-129 -64q-28 65 -94 65q-49 0 -83 -29.5t-42 -77.5q-3 -16 -3 -33q0 -47 24.5 -77.5t66.5 -30.5q37 0 61 17.5z" />
    <glyph glyph-name="egrave" unicode="&#xe8;" horiz-adv-x="571" 
d="M441.5 481.5q48.5 -26.5 74 -73.5t25.5 -107q0 -26 -4 -49l-7 -40h-352q4 -47 28.5 -75.5t66.5 -28.5q38 0 64 15.5t46 47.5l117 -51q-38 -67 -94.5 -99.5t-145.5 -32.5q-68 0 -119 29.5t-78.5 82t-27.5 118.5q0 34 5 59q19 105 94.5 168t193.5 63q65 0 113.5 -26.5z
M239.5 370q-29.5 -21 -45.5 -58h210q-3 34 -28.5 56.5t-62.5 22.5q-44 0 -73.5 -21zM406 566h-108l-110 166h156z" />
    <glyph glyph-name="eacute" unicode="&#xe9;" horiz-adv-x="571" 
d="M441.5 481.5q48.5 -26.5 74 -73.5t25.5 -107q0 -26 -4 -49l-7 -40h-352q4 -47 28.5 -75.5t66.5 -28.5q38 0 64 15.5t46 47.5l117 -51q-38 -67 -94.5 -99.5t-145.5 -32.5q-68 0 -119 29.5t-78.5 82t-27.5 118.5q0 34 5 59q19 105 94.5 168t193.5 63q65 0 113.5 -26.5z
M239.5 370q-29.5 -21 -45.5 -58h210q-3 34 -28.5 56.5t-62.5 22.5q-44 0 -73.5 -21zM409 566h-116l114 166h164z" />
    <glyph glyph-name="ecircumflex" unicode="&#xea;" horiz-adv-x="571" 
d="M441.5 481.5q48.5 -26.5 74 -73.5t25.5 -107q0 -26 -4 -49l-7 -40h-352q4 -47 28.5 -75.5t66.5 -28.5q38 0 64 15.5t46 47.5l117 -51q-38 -67 -94.5 -99.5t-145.5 -32.5q-68 0 -119 29.5t-78.5 82t-27.5 118.5q0 34 5 59q19 105 94.5 168t193.5 63q65 0 113.5 -26.5z
M239.5 370q-29.5 -21 -45.5 -58h210q-3 34 -28.5 56.5t-62.5 22.5q-44 0 -73.5 -21zM288 566h-104l142 166h106l84 -166h-94l-56 75z" />
    <glyph glyph-name="edieresis" unicode="&#xeb;" horiz-adv-x="571" 
d="M441.5 481.5q48.5 -26.5 74 -73.5t25.5 -107q0 -26 -4 -49l-7 -40h-352q4 -47 28.5 -75.5t66.5 -28.5q38 0 64 15.5t46 47.5l117 -51q-38 -67 -94.5 -99.5t-145.5 -32.5q-68 0 -119 29.5t-78.5 82t-27.5 118.5q0 34 5 59q19 105 94.5 168t193.5 63q65 0 113.5 -26.5z
M239.5 370q-29.5 -21 -45.5 -58h210q-3 34 -28.5 56.5t-62.5 22.5q-44 0 -73.5 -21zM186 585q-24 24 -24 57q0 34 24 58t58 24t58 -24t24 -58q0 -33 -24 -57t-58 -24t-58 24zM427 585q-24 24 -24 57q0 34 24 58t57 24q34 0 58 -24t24 -58q0 -33 -24 -57t-58 -24
q-33 0 -57 24z" />
    <glyph glyph-name="igrave" unicode="&#xec;" horiz-adv-x="254" 
d="M155 0h-144l88 496h144zM239 566h-108l-110 166h156z" />
    <glyph glyph-name="iacute" unicode="&#xed;" horiz-adv-x="254" 
d="M155 0h-144l88 496h144zM242 566h-116l114 166h164z" />
    <glyph glyph-name="icircumflex" unicode="&#xee;" horiz-adv-x="254" 
d="M155 0h-144l88 496h144zM121 566h-104l142 166h106l84 -166h-94l-56 75z" />
    <glyph glyph-name="idieresis" unicode="&#xef;" horiz-adv-x="254" 
d="M155 0h-144l88 496h144zM19 585q-24 24 -24 57q0 34 24 58t58 24t58 -24t24 -58q0 -33 -24 -57t-58 -24t-58 24zM260 585q-24 24 -24 57q0 34 24 58t57 24q34 0 58 -24t24 -58q0 -33 -24 -57t-58 -24q-33 0 -57 24z" />
    <glyph glyph-name="eth" unicode="&#xf0;" horiz-adv-x="554" 
d="M463 481q55 -102 55 -202q0 -34 -6 -70q-17 -101 -86.5 -161t-183.5 -60q-62 0 -109.5 29t-73.5 79.5t-26 112.5q0 27 4 50q16 95 84 153.5t173 58.5q19 0 34 -4l-32 58l-76 -39l-43 86l73 37l-50 91h146l18 -33l84 43l42 -86l-81 -42zM378 249q0 45 -23.5 72t-64.5 27
q-58 0 -90 -39t-32 -96q0 -46 25.5 -74t67.5 -28q49 0 77.5 30.5t36.5 75.5q3 17 3 32z" />
    <glyph glyph-name="ntilde" unicode="&#xf1;" 
d="M11 0l88 496h144l-9 -49q20 28 54 44.5t77 16.5q76 0 117.5 -43.5t41.5 -115.5q0 -26 -4 -47l-54 -302h-144l50 285q2 12 2 19q0 32 -20 52t-55 20q-37 0 -61.5 -24t-32.5 -67l-50 -285h-144zM181 622q32 89 117 89q19 0 33.5 -4.5t34.5 -14.5q11 -5 23 -9.5t23 -4.5
q15 0 24.5 7.5t15.5 24.5l73 -31q-16 -45 -45 -66.5t-72 -21.5q-19 0 -33 5t-33 14q-12 5 -24 9.5t-23 4.5q-15 0 -25 -8t-16 -25z" />
    <glyph glyph-name="ograve" unicode="&#xf2;" horiz-adv-x="588" 
d="M143 17.5q-52 29.5 -80.5 82t-28.5 119.5q0 29 6 59q18 102 92 166t191 64q68 0 120.5 -29.5t81 -82t28.5 -119.5q0 -24 -5 -56q-18 -104 -92.5 -168.5t-192.5 -64.5q-68 0 -120 29.5zM357.5 155q33.5 31 42.5 81q3 17 3 33q0 46 -25 74.5t-71 28.5q-45 0 -78 -31
t-42 -81q-3 -16 -3 -32q0 -46 25 -75t70 -29t78.5 31zM405 566h-108l-110 166h156z" />
    <glyph glyph-name="oacute" unicode="&#xf3;" horiz-adv-x="588" 
d="M143 17.5q-52 29.5 -80.5 82t-28.5 119.5q0 29 6 59q18 102 92 166t191 64q68 0 120.5 -29.5t81 -82t28.5 -119.5q0 -24 -5 -56q-18 -104 -92.5 -168.5t-192.5 -64.5q-68 0 -120 29.5zM357.5 155q33.5 31 42.5 81q3 17 3 33q0 46 -25 74.5t-71 28.5q-45 0 -78 -31
t-42 -81q-3 -16 -3 -32q0 -46 25 -75t70 -29t78.5 31zM408 566h-116l114 166h164z" />
    <glyph glyph-name="ocircumflex" unicode="&#xf4;" horiz-adv-x="588" 
d="M143 17.5q-52 29.5 -80.5 82t-28.5 119.5q0 29 6 59q18 102 92 166t191 64q68 0 120.5 -29.5t81 -82t28.5 -119.5q0 -24 -5 -56q-18 -104 -92.5 -168.5t-192.5 -64.5q-68 0 -120 29.5zM357.5 155q33.5 31 42.5 81q3 17 3 33q0 46 -25 74.5t-71 28.5q-45 0 -78 -31
t-42 -81q-3 -16 -3 -32q0 -46 25 -75t70 -29t78.5 31zM287 566h-104l142 166h106l84 -166h-94l-56 75z" />
    <glyph glyph-name="otilde" unicode="&#xf5;" horiz-adv-x="588" 
d="M143 17.5q-52 29.5 -80.5 82t-28.5 119.5q0 29 6 59q18 102 92 166t191 64q68 0 120.5 -29.5t81 -82t28.5 -119.5q0 -24 -5 -56q-18 -104 -92.5 -168.5t-192.5 -64.5q-68 0 -120 29.5zM357.5 155q33.5 31 42.5 81q3 17 3 33q0 46 -25 74.5t-71 28.5q-45 0 -78 -31
t-42 -81q-3 -16 -3 -32q0 -46 25 -75t70 -29t78.5 31zM192 622q32 89 117 89q19 0 33.5 -4.5t34.5 -14.5q11 -5 23 -9.5t23 -4.5q15 0 24.5 7.5t15.5 24.5l73 -31q-16 -45 -45 -66.5t-72 -21.5q-19 0 -33 5t-33 14q-12 5 -24 9.5t-23 4.5q-15 0 -25 -8t-16 -25z" />
    <glyph glyph-name="odieresis" unicode="&#xf6;" horiz-adv-x="588" 
d="M143 17.5q-52 29.5 -80.5 82t-28.5 119.5q0 29 6 59q18 102 92 166t191 64q68 0 120.5 -29.5t81 -82t28.5 -119.5q0 -24 -5 -56q-18 -104 -92.5 -168.5t-192.5 -64.5q-68 0 -120 29.5zM357.5 155q33.5 31 42.5 81q3 17 3 33q0 46 -25 74.5t-71 28.5q-45 0 -78 -31
t-42 -81q-3 -16 -3 -32q0 -46 25 -75t70 -29t78.5 31zM185 585q-24 24 -24 57q0 34 24 58t58 24t58 -24t24 -58q0 -33 -24 -57t-58 -24t-58 24zM426 585q-24 24 -24 57q0 34 24 58t57 24q34 0 58 -24t24 -58q0 -33 -24 -57t-58 -24q-33 0 -57 24z" />
    <glyph glyph-name="divide" unicode="&#xf7;" horiz-adv-x="519" 
d="M489 253h-457l22 124h457zM166 36.5q-28 27.5 -28 66.5q0 38 28 66t66 28t66 -28t28 -66q0 -39 -28 -66.5t-66 -27.5t-66 27.5zM241 460.5q-28 27.5 -28 66.5q0 38 28 66t66 28t66 -28t28 -66q0 -39 -28 -66.5t-66 -27.5t-66 27.5z" />
    <glyph glyph-name="oslash" unicode="&#xf8;" horiz-adv-x="588" 
d="M486 447q32 -31 49.5 -74.5t17.5 -95.5q0 -24 -5 -56q-18 -104 -92.5 -168.5t-192.5 -64.5q-40 0 -78 11l-45 -67h-129l83 124q-29 30 -44.5 72t-15.5 91q0 29 6 59q18 102 92 166t191 64q38 0 70 -9l44 65h128zM176 228q0 -22 6 -42l131 194h-6q-48 0 -83 -32.5
t-45 -85.5q-3 -18 -3 -34zM411 269q0 28 -9 52l-138 -204q5 -1 15 -1q49 0 84 32.5t45 85.5q3 18 3 35z" />
    <glyph glyph-name="ugrave" unicode="&#xf9;" 
d="M82.5 31.5q-41.5 43.5 -41.5 115.5q0 26 4 47l54 302h144l-50 -285q-2 -12 -2 -19q0 -32 20 -52t55 -20q37 0 61.5 24t32.5 67l50 285h144l-88 -496h-144l9 49q-20 -28 -54 -44.5t-77 -16.5q-76 0 -117.5 43.5zM395 566h-108l-110 166h156z" />
    <glyph glyph-name="uacute" unicode="&#xfa;" 
d="M82.5 31.5q-41.5 43.5 -41.5 115.5q0 26 4 47l54 302h144l-50 -285q-2 -12 -2 -19q0 -32 20 -52t55 -20q37 0 61.5 24t32.5 67l50 285h144l-88 -496h-144l9 49q-20 -28 -54 -44.5t-77 -16.5q-76 0 -117.5 43.5zM398 566h-116l114 166h164z" />
    <glyph glyph-name="ucircumflex" unicode="&#xfb;" 
d="M82.5 31.5q-41.5 43.5 -41.5 115.5q0 26 4 47l54 302h144l-50 -285q-2 -12 -2 -19q0 -32 20 -52t55 -20q37 0 61.5 24t32.5 67l50 285h144l-88 -496h-144l9 49q-20 -28 -54 -44.5t-77 -16.5q-76 0 -117.5 43.5zM277 566h-104l142 166h106l84 -166h-94l-56 75z" />
    <glyph glyph-name="udieresis" unicode="&#xfc;" 
d="M82.5 31.5q-41.5 43.5 -41.5 115.5q0 26 4 47l54 302h144l-50 -285q-2 -12 -2 -19q0 -32 20 -52t55 -20q37 0 61.5 24t32.5 67l50 285h144l-88 -496h-144l9 49q-20 -28 -54 -44.5t-77 -16.5q-76 0 -117.5 43.5zM175 585q-24 24 -24 57q0 34 24 58t58 24t58 -24t24 -58
q0 -33 -24 -57t-58 -24t-58 24zM416 585q-24 24 -24 57q0 34 24 58t57 24q34 0 58 -24t24 -58q0 -33 -24 -57t-58 -24q-33 0 -57 24z" />
    <glyph glyph-name="yacute" unicode="&#xfd;" horiz-adv-x="562" 
d="M434 496h159l-303 -552q-34 -62 -64 -95t-70 -47t-103 -14q-59 0 -93 16l26 144q19 -12 37.5 -18.5t47.5 -6.5q31 0 54.5 18t43.5 56l5 9l-121 490h152l64 -311zM399 566h-116l114 166h164z" />
    <glyph glyph-name="thorn" unicode="&#xfe;" horiz-adv-x="594" 
d="M-25 -204l161 908h144l-46 -255q21 27 58 43t80 16q59 0 101 -30t64 -81.5t22 -115.5q0 -32 -6 -67q-18 -100 -82.5 -163t-170.5 -63q-49 0 -83 16.5t-54 43.5l-44 -252h-144zM365.5 154.5q30.5 30.5 39.5 80.5q3 15 3 29q0 48 -25.5 78t-67.5 30q-58 0 -91.5 -40.5
t-33.5 -98.5q0 -48 26 -78.5t68 -30.5q51 0 81.5 30.5z" />
    <glyph glyph-name="ydieresis" unicode="&#xff;" horiz-adv-x="562" 
d="M434 496h159l-303 -552q-34 -62 -64 -95t-70 -47t-103 -14q-59 0 -93 16l26 144q19 -12 37.5 -18.5t47.5 -6.5q31 0 54.5 18t43.5 56l5 9l-121 490h152l64 -311zM176 585q-24 24 -24 57q0 34 24 58t58 24t58 -24t24 -58q0 -33 -24 -57t-58 -24t-58 24zM417 585
q-24 24 -24 57q0 34 24 58t57 24q34 0 58 -24t24 -58q0 -33 -24 -57t-58 -24q-33 0 -57 24z" />
    <glyph glyph-name="Amacron" unicode="&#x100;" horiz-adv-x="740" 
d="M681 0h-171l-23 125h-267l-66 -125h-183l392 700h172zM418 497l-125 -236h169zM595 807h-253l18 101h253z" />
    <glyph glyph-name="amacron" unicode="&#x101;" horiz-adv-x="595" 
d="M122.5 18.5q-43.5 30.5 -65 82.5t-21.5 116q0 35 6 69q18 101 87 161.5t174 60.5q42 0 76 -17t52 -43l9 48h144l-88 -496h-144l9 47q-50 -59 -134 -59q-61 0 -104.5 30.5zM361 153q31 29 40 79q3 18 3 36q0 47 -23.5 75.5t-69.5 28.5q-49 0 -80.5 -30t-40.5 -78
q-3 -16 -3 -32q0 -47 25 -77.5t69 -30.5q49 0 80 29zM490 603h-253l18 101h253z" />
    <glyph glyph-name="Abreve" unicode="&#x102;" horiz-adv-x="740" 
d="M681 0h-171l-23 125h-267l-66 -125h-183l392 700h172zM418 497l-125 -236h169zM387 798q-29 28 -29 74q0 7 2 23h84q-1 -4 -1 -12q0 -17 8.5 -26.5t22.5 -9.5q18 0 29.5 13t15.5 35h84q-20 -125 -140 -125q-47 0 -76 28z" />
    <glyph glyph-name="abreve" unicode="&#x103;" horiz-adv-x="595" 
d="M122.5 18.5q-43.5 30.5 -65 82.5t-21.5 116q0 35 6 69q18 101 87 161.5t174 60.5q42 0 76 -17t52 -43l9 48h144l-88 -496h-144l9 47q-50 -59 -134 -59q-61 0 -104.5 30.5zM361 153q31 29 40 79q3 18 3 36q0 47 -23.5 75.5t-69.5 28.5q-49 0 -80.5 -30t-40.5 -78
q-3 -16 -3 -32q0 -47 25 -77.5t69 -30.5q49 0 80 29zM282 594q-29 28 -29 74q0 7 2 23h84q-1 -4 -1 -12q0 -17 8.5 -26.5t22.5 -9.5q18 0 29.5 13t15.5 35h84q-20 -125 -140 -125q-47 0 -76 28z" />
    <glyph glyph-name="Aogonek" unicode="&#x104;" horiz-adv-x="740" 
d="M607 -119q9 -8 23 -8q19 0 36 8l-14 -79q-24 -11 -57 -11q-38 0 -64.5 24t-26.5 64q0 76 73 121h-67l-23 125h-267l-66 -125h-183l392 700h172l146 -700q-36 -18 -59.5 -43.5t-23.5 -51.5q0 -16 9 -24zM418 497l-125 -236h169z" />
    <glyph glyph-name="aogonek" unicode="&#x105;" horiz-adv-x="595" 
d="M496 0q-36 -18 -59.5 -43.5t-23.5 -51.5q0 -16 9 -24t23 -8q19 0 36 8l-14 -79q-24 -11 -57 -11q-38 0 -64.5 24t-26.5 64q0 76 73 121h-40l9 47q-50 -59 -134 -59q-61 0 -104.5 30.5t-65 82.5t-21.5 116q0 35 6 69q18 101 87 161.5t174 60.5q42 0 76 -17t52 -43l9 48
h144zM361 153q31 29 40 79q3 18 3 36q0 47 -23.5 75.5t-69.5 28.5q-49 0 -80.5 -30t-40.5 -78q-3 -16 -3 -32q0 -47 25 -77.5t69 -30.5q49 0 80 29z" />
    <glyph glyph-name="Cacute" unicode="&#x106;" horiz-adv-x="714" 
d="M199 27q-68 41 -104.5 113.5t-36.5 162.5q0 38 8 84q17 95 68 169t134 116t190 42q193 0 272 -164l-130 -80q-26 47 -60.5 71t-88.5 24q-91 0 -149 -55t-73 -141q-5 -28 -5 -51q0 -78 42.5 -130.5t113.5 -52.5q57 0 96.5 24.5t72.5 72.5l115 -88q-49 -82 -120 -120
t-185 -38q-92 0 -160 41zM546 770h-116l114 166h164z" />
    <glyph glyph-name="cacute" unicode="&#x107;" horiz-adv-x="550" 
d="M139 18q-50 30 -76.5 83t-26.5 120q0 32 6 66q19 104 96 162.5t195 58.5q77 0 129 -36t75 -101l-129 -64q-28 65 -94 65q-49 0 -83 -29.5t-42 -77.5q-3 -16 -3 -33q0 -47 24.5 -77.5t66.5 -30.5q37 0 61 17.5t44 52.5l116 -69q-37 -70 -93.5 -103.5t-147.5 -33.5
q-68 0 -118 30zM410 566h-116l114 166h164z" />
    <glyph glyph-name="Ccircumflex" unicode="&#x108;" horiz-adv-x="714" 
d="M199 27q-68 41 -104.5 113.5t-36.5 162.5q0 38 8 84q17 95 68 169t134 116t190 42q193 0 272 -164l-130 -80q-26 47 -60.5 71t-88.5 24q-91 0 -149 -55t-73 -141q-5 -28 -5 -51q0 -78 42.5 -130.5t113.5 -52.5q57 0 96.5 24.5t72.5 72.5l115 -88q-49 -82 -120 -120
t-185 -38q-92 0 -160 41zM425 770h-104l142 166h106l84 -166h-94l-56 75z" />
    <glyph glyph-name="ccircumflex" unicode="&#x109;" horiz-adv-x="550" 
d="M139 18q-50 30 -76.5 83t-26.5 120q0 32 6 66q19 104 96 162.5t195 58.5q77 0 129 -36t75 -101l-129 -64q-28 65 -94 65q-49 0 -83 -29.5t-42 -77.5q-3 -16 -3 -33q0 -47 24.5 -77.5t66.5 -30.5q37 0 61 17.5t44 52.5l116 -69q-37 -70 -93.5 -103.5t-147.5 -33.5
q-68 0 -118 30zM289 566h-104l142 166h106l84 -166h-94l-56 75z" />
    <glyph glyph-name="Cdotaccent" unicode="&#x10a;" horiz-adv-x="714" 
d="M199 27q-68 41 -104.5 113.5t-36.5 162.5q0 38 8 84q17 95 68 169t134 116t190 42q193 0 272 -164l-130 -80q-26 47 -60.5 71t-88.5 24q-91 0 -149 -55t-73 -141q-5 -28 -5 -51q0 -78 42.5 -130.5t113.5 -52.5q57 0 96.5 24.5t72.5 72.5l115 -88q-49 -82 -120 -120
t-185 -38q-92 0 -160 41zM436.5 783q-26.5 27 -26.5 64q0 38 26.5 64.5t64.5 26.5q37 0 64 -26.5t27 -64.5q0 -37 -27 -64t-64 -27q-38 0 -64.5 27z" />
    <glyph glyph-name="cdotaccent" unicode="&#x10b;" horiz-adv-x="550" 
d="M139 18q-50 30 -76.5 83t-26.5 120q0 32 6 66q19 104 96 162.5t195 58.5q77 0 129 -36t75 -101l-129 -64q-28 65 -94 65q-49 0 -83 -29.5t-42 -77.5q-3 -16 -3 -33q0 -47 24.5 -77.5t66.5 -30.5q37 0 61 17.5t44 52.5l116 -69q-37 -70 -93.5 -103.5t-147.5 -33.5
q-68 0 -118 30zM300.5 579q-26.5 27 -26.5 64q0 38 26.5 64.5t64.5 26.5q37 0 64 -26.5t27 -64.5q0 -37 -27 -64t-64 -27q-38 0 -64.5 27z" />
    <glyph glyph-name="Ccaron" unicode="&#x10c;" horiz-adv-x="714" 
d="M199 27q-68 41 -104.5 113.5t-36.5 162.5q0 38 8 84q17 95 68 169t134 116t190 42q193 0 272 -164l-130 -80q-26 47 -60.5 71t-88.5 24q-91 0 -149 -55t-73 -141q-5 -28 -5 -51q0 -78 42.5 -130.5t113.5 -52.5q57 0 96.5 24.5t72.5 72.5l115 -88q-49 -82 -120 -120
t-185 -38q-92 0 -160 41zM536 770h-106l-84 166h94l56 -75l78 75h104z" />
    <glyph glyph-name="ccaron" unicode="&#x10d;" horiz-adv-x="550" 
d="M139 18q-50 30 -76.5 83t-26.5 120q0 32 6 66q19 104 96 162.5t195 58.5q77 0 129 -36t75 -101l-129 -64q-28 65 -94 65q-49 0 -83 -29.5t-42 -77.5q-3 -16 -3 -33q0 -47 24.5 -77.5t66.5 -30.5q37 0 61 17.5t44 52.5l116 -69q-37 -70 -93.5 -103.5t-147.5 -33.5
q-68 0 -118 30zM400 566h-106l-84 166h94l56 -75l78 75h104z" />
    <glyph glyph-name="Dcaron" unicode="&#x10e;" horiz-adv-x="710" 
d="M15 0l124 700h248q94 0 162 -40t103.5 -109.5t35.5 -158.5q0 -38 -8 -84q-16 -91 -68.5 -160.5t-140.5 -108.5t-206 -39h-250zM292 146q90 0 148.5 50.5t73.5 134.5q5 32 5 54q0 76 -40 122.5t-115 46.5h-91l-72 -408h91zM452 770h-106l-84 166h94l56 -75l78 75h104z" />
    <glyph glyph-name="dcaron" unicode="&#x10f;" horiz-adv-x="780" 
d="M122.5 18.5q-43.5 30.5 -65 82.5t-21.5 116q0 35 6 69q18 101 87 161.5t174 60.5q42 0 76 -17t52 -43l45 252h144l-124 -700h-144l9 47q-50 -59 -134 -59q-61 0 -104.5 30.5zM361 153q31 29 40 79q3 18 3 36q0 47 -23.5 75.5t-69.5 28.5q-49 0 -80.5 -30t-40.5 -78
q-3 -16 -3 -32q0 -47 25 -77.5t69 -30.5q49 0 80 29zM697 436l-28 29l40 40q30 30 35 50q-22 4 -39 24.5t-17 44.5q0 38 23 61t61 23q33 0 53 -22t20 -59q0 -39 -22 -70.5t-67 -69.5z" />
    <glyph glyph-name="Dcroat" unicode="&#x110;" horiz-adv-x="683" 
d="M387 700q94 0 162 -40t103.5 -109.5t35.5 -158.5q0 -38 -8 -84q-16 -91 -68.5 -160.5t-140.5 -108.5t-206 -39h-250l49 279h-90l26 142h90l49 279h248zM519 385q0 76 -40 122.5t-115 46.5h-91l-23 -133h142l-26 -142h-142l-23 -133h91q90 0 148.5 50.5t73.5 134.5
q5 32 5 54z" />
    <glyph glyph-name="dcroat" unicode="&#x111;" horiz-adv-x="576" 
d="M652 656l-16 -92h-40l-100 -564h-144l9 47q-50 -59 -134 -59q-61 0 -104.5 30.5t-65 82.5t-21.5 116q0 35 6 69q18 101 87 161.5t174 60.5q42 0 76 -17t52 -43l21 116h-167l16 92h167l8 44h144l-8 -44h40zM404 268q0 47 -23.5 75.5t-69.5 28.5q-49 0 -80.5 -30t-40.5 -78
q-3 -16 -3 -32q0 -47 25 -77.5t69 -30.5q49 0 80 29t40 79q3 18 3 36z" />
    <glyph glyph-name="Emacron" unicode="&#x112;" horiz-adv-x="614" 
d="M528 0h-513l124 700h513l-26 -146h-353l-22 -123h287l-25 -142h-287l-25 -143h353zM541 807h-253l18 101h253z" />
    <glyph glyph-name="emacron" unicode="&#x113;" horiz-adv-x="571" 
d="M441.5 481.5q48.5 -26.5 74 -73.5t25.5 -107q0 -26 -4 -49l-7 -40h-352q4 -47 28.5 -75.5t66.5 -28.5q38 0 64 15.5t46 47.5l117 -51q-38 -67 -94.5 -99.5t-145.5 -32.5q-68 0 -119 29.5t-78.5 82t-27.5 118.5q0 34 5 59q19 105 94.5 168t193.5 63q65 0 113.5 -26.5z
M239.5 370q-29.5 -21 -45.5 -58h210q-3 34 -28.5 56.5t-62.5 22.5q-44 0 -73.5 -21zM483 603h-253l18 101h253z" />
    <glyph glyph-name="Ebreve" unicode="&#x114;" horiz-adv-x="614" 
d="M528 0h-513l124 700h513l-26 -146h-353l-22 -123h287l-25 -142h-287l-25 -143h353zM333 798q-29 28 -29 74q0 7 2 23h84q-1 -4 -1 -12q0 -17 8.5 -26.5t22.5 -9.5q18 0 29.5 13t15.5 35h84q-20 -125 -140 -125q-47 0 -76 28z" />
    <glyph glyph-name="ebreve" unicode="&#x115;" horiz-adv-x="571" 
d="M441.5 481.5q48.5 -26.5 74 -73.5t25.5 -107q0 -26 -4 -49l-7 -40h-352q4 -47 28.5 -75.5t66.5 -28.5q38 0 64 15.5t46 47.5l117 -51q-38 -67 -94.5 -99.5t-145.5 -32.5q-68 0 -119 29.5t-78.5 82t-27.5 118.5q0 34 5 59q19 105 94.5 168t193.5 63q65 0 113.5 -26.5z
M239.5 370q-29.5 -21 -45.5 -58h210q-3 34 -28.5 56.5t-62.5 22.5q-44 0 -73.5 -21zM275 594q-29 28 -29 74q0 7 2 23h84q-1 -4 -1 -12q0 -17 8.5 -26.5t22.5 -9.5q18 0 29.5 13t15.5 35h84q-20 -125 -140 -125q-47 0 -76 28z" />
    <glyph glyph-name="Edotaccent" unicode="&#x116;" horiz-adv-x="614" 
d="M528 0h-513l124 700h513l-26 -146h-353l-22 -123h287l-25 -142h-287l-25 -143h353zM357.5 783q-26.5 27 -26.5 64q0 38 26.5 64.5t64.5 26.5q37 0 64 -26.5t27 -64.5q0 -37 -27 -64t-64 -27q-38 0 -64.5 27z" />
    <glyph glyph-name="edotaccent" unicode="&#x117;" horiz-adv-x="571" 
d="M441.5 481.5q48.5 -26.5 74 -73.5t25.5 -107q0 -26 -4 -49l-7 -40h-352q4 -47 28.5 -75.5t66.5 -28.5q38 0 64 15.5t46 47.5l117 -51q-38 -67 -94.5 -99.5t-145.5 -32.5q-68 0 -119 29.5t-78.5 82t-27.5 118.5q0 34 5 59q19 105 94.5 168t193.5 63q65 0 113.5 -26.5z
M239.5 370q-29.5 -21 -45.5 -58h210q-3 34 -28.5 56.5t-62.5 22.5q-44 0 -73.5 -21zM299.5 579q-26.5 27 -26.5 64q0 38 26.5 64.5t64.5 26.5q37 0 64 -26.5t27 -64.5q0 -37 -27 -64t-64 -27q-38 0 -64.5 27z" />
    <glyph glyph-name="Eogonek" unicode="&#x118;" horiz-adv-x="614" 
d="M626 554h-353l-22 -123h287l-25 -142h-287l-25 -143h353l-26 -146q-36 -18 -59.5 -43.5t-23.5 -51.5q0 -16 9 -24t23 -8q19 0 36 8l-14 -79q-24 -11 -57 -11q-38 0 -64.5 24t-26.5 64q0 76 73 121h-409l124 700h513z" />
    <glyph glyph-name="eogonek" unicode="&#x119;" horiz-adv-x="571" 
d="M441.5 481.5q48.5 -26.5 74 -73.5t25.5 -107q0 -26 -4 -49l-7 -40h-352q4 -47 28.5 -75.5t66.5 -28.5q38 0 64 15.5t46 47.5l117 -51q-30 -53 -70.5 -84t-98.5 -42q-31 -18 -51.5 -41.5t-20.5 -47.5q0 -16 9 -24t23 -8q19 0 36 8l-14 -79q-24 -11 -57 -11q-38 0 -64.5 24
t-26.5 64q0 69 59 111q-87 12 -138 74.5t-51 153.5q0 34 5 59q19 105 94.5 168t193.5 63q65 0 113.5 -26.5zM239.5 370q-29.5 -21 -45.5 -58h210q-3 34 -28.5 56.5t-62.5 22.5q-44 0 -73.5 -21z" />
    <glyph glyph-name="Ecaron" unicode="&#x11a;" horiz-adv-x="614" 
d="M528 0h-513l124 700h513l-26 -146h-353l-22 -123h287l-25 -142h-287l-25 -143h353zM457 770h-106l-84 166h94l56 -75l78 75h104z" />
    <glyph glyph-name="ecaron" unicode="&#x11b;" horiz-adv-x="571" 
d="M441.5 481.5q48.5 -26.5 74 -73.5t25.5 -107q0 -26 -4 -49l-7 -40h-352q4 -47 28.5 -75.5t66.5 -28.5q38 0 64 15.5t46 47.5l117 -51q-38 -67 -94.5 -99.5t-145.5 -32.5q-68 0 -119 29.5t-78.5 82t-27.5 118.5q0 34 5 59q19 105 94.5 168t193.5 63q65 0 113.5 -26.5z
M239.5 370q-29.5 -21 -45.5 -58h210q-3 34 -28.5 56.5t-62.5 22.5q-44 0 -73.5 -21zM399 566h-106l-84 166h94l56 -75l78 75h104z" />
    <glyph glyph-name="Gcircumflex" unicode="&#x11c;" horiz-adv-x="724" 
d="M198.5 28.5q-67.5 42.5 -103.5 116.5t-36 165q0 38 8 84q16 92 67 164.5t135 114t197 41.5q99 0 166.5 -41t104.5 -118l-137 -87q-24 46 -63.5 71.5t-93.5 25.5q-91 0 -144.5 -54.5t-68.5 -140.5q-4 -23 -4 -50q0 -78 40.5 -131.5t111.5 -53.5q48 0 79 13t60 43l9 52
h-146l23 132h304l-44 -251q-60 -69 -130 -103.5t-178 -34.5q-89 0 -156.5 42.5zM424 770h-104l142 166h106l84 -166h-94l-56 75z" />
    <glyph glyph-name="gcircumflex" unicode="&#x11d;" horiz-adv-x="589" 
d="M74 -185.5q-55 30.5 -85 85.5l127 81q33 -62 111 -62q54 0 85.5 31t40.5 89l3 19q-44 -57 -134 -57q-57 0 -99 30t-64.5 81.5t-22.5 113.5q0 31 6 62q18 99 84.5 159.5t169.5 60.5q44 0 78 -17t51 -43l9 48h144l-79 -449q-24 -138 -93.5 -200.5t-199.5 -62.5
q-77 0 -132 30.5zM368.5 180.5q30.5 38.5 30.5 92.5q0 44 -25 71.5t-67 27.5q-54 0 -87 -35t-33 -91q0 -46 26 -75t68 -29q57 0 87.5 38.5zM286 566h-104l142 166h106l84 -166h-94l-56 75z" />
    <glyph glyph-name="Gbreve" unicode="&#x11e;" horiz-adv-x="724" 
d="M198.5 28.5q-67.5 42.5 -103.5 116.5t-36 165q0 38 8 84q16 92 67 164.5t135 114t197 41.5q99 0 166.5 -41t104.5 -118l-137 -87q-24 46 -63.5 71.5t-93.5 25.5q-91 0 -144.5 -54.5t-68.5 -140.5q-4 -23 -4 -50q0 -78 40.5 -131.5t111.5 -53.5q48 0 79 13t60 43l9 52
h-146l23 132h304l-44 -251q-60 -69 -130 -103.5t-178 -34.5q-89 0 -156.5 42.5zM411 798q-29 28 -29 74q0 7 2 23h84q-1 -4 -1 -12q0 -17 8.5 -26.5t22.5 -9.5q18 0 29.5 13t15.5 35h84q-20 -125 -140 -125q-47 0 -76 28z" />
    <glyph glyph-name="gbreve" unicode="&#x11f;" horiz-adv-x="589" 
d="M74 -185.5q-55 30.5 -85 85.5l127 81q33 -62 111 -62q54 0 85.5 31t40.5 89l3 19q-44 -57 -134 -57q-57 0 -99 30t-64.5 81.5t-22.5 113.5q0 31 6 62q18 99 84.5 159.5t169.5 60.5q44 0 78 -17t51 -43l9 48h144l-79 -449q-24 -138 -93.5 -200.5t-199.5 -62.5
q-77 0 -132 30.5zM368.5 180.5q30.5 38.5 30.5 92.5q0 44 -25 71.5t-67 27.5q-54 0 -87 -35t-33 -91q0 -46 26 -75t68 -29q57 0 87.5 38.5zM273 594q-29 28 -29 74q0 7 2 23h84q-1 -4 -1 -12q0 -17 8.5 -26.5t22.5 -9.5q18 0 29.5 13t15.5 35h84q-20 -125 -140 -125
q-47 0 -76 28z" />
    <glyph glyph-name="Gdotaccent" unicode="&#x120;" horiz-adv-x="724" 
d="M198.5 28.5q-67.5 42.5 -103.5 116.5t-36 165q0 38 8 84q16 92 67 164.5t135 114t197 41.5q99 0 166.5 -41t104.5 -118l-137 -87q-24 46 -63.5 71.5t-93.5 25.5q-91 0 -144.5 -54.5t-68.5 -140.5q-4 -23 -4 -50q0 -78 40.5 -131.5t111.5 -53.5q48 0 79 13t60 43l9 52
h-146l23 132h304l-44 -251q-60 -69 -130 -103.5t-178 -34.5q-89 0 -156.5 42.5zM435.5 783q-26.5 27 -26.5 64q0 38 26.5 64.5t64.5 26.5q37 0 64 -26.5t27 -64.5q0 -37 -27 -64t-64 -27q-38 0 -64.5 27z" />
    <glyph glyph-name="gdotaccent" unicode="&#x121;" horiz-adv-x="589" 
d="M74 -185.5q-55 30.5 -85 85.5l127 81q33 -62 111 -62q54 0 85.5 31t40.5 89l3 19q-44 -57 -134 -57q-57 0 -99 30t-64.5 81.5t-22.5 113.5q0 31 6 62q18 99 84.5 159.5t169.5 60.5q44 0 78 -17t51 -43l9 48h144l-79 -449q-24 -138 -93.5 -200.5t-199.5 -62.5
q-77 0 -132 30.5zM368.5 180.5q30.5 38.5 30.5 92.5q0 44 -25 71.5t-67 27.5q-54 0 -87 -35t-33 -91q0 -46 26 -75t68 -29q57 0 87.5 38.5zM297.5 579q-26.5 27 -26.5 64q0 38 26.5 64.5t64.5 26.5q37 0 64 -26.5t27 -64.5q0 -37 -27 -64t-64 -27q-38 0 -64.5 27z" />
    <glyph glyph-name="uni0122" unicode="&#x122;" horiz-adv-x="724" 
d="M198.5 28.5q-67.5 42.5 -103.5 116.5t-36 165q0 38 8 84q16 92 67 164.5t135 114t197 41.5q99 0 166.5 -41t104.5 -118l-137 -87q-24 46 -63.5 71.5t-93.5 25.5q-91 0 -144.5 -54.5t-68.5 -140.5q-4 -23 -4 -50q0 -78 40.5 -131.5t111.5 -53.5q48 0 79 13t60 43l9 52
h-146l23 132h304l-44 -251q-60 -69 -130 -103.5t-178 -34.5q-89 0 -156.5 42.5zM276 -268l-19 18l22 25q18 22 26 42q-17 3 -29 18.5t-12 34.5q0 27 17.5 45.5t49.5 18.5q24 0 39.5 -17t15.5 -42q0 -35 -19.5 -63.5t-54.5 -53.5z" />
    <glyph glyph-name="uni0123" unicode="&#x123;" horiz-adv-x="589" 
d="M74 -185.5q-55 30.5 -85 85.5l127 81q33 -62 111 -62q54 0 85.5 31t40.5 89l3 19q-44 -57 -134 -57q-57 0 -99 30t-64.5 81.5t-22.5 113.5q0 31 6 62q18 99 84.5 159.5t169.5 60.5q44 0 78 -17t51 -43l9 48h144l-79 -449q-24 -138 -93.5 -200.5t-199.5 -62.5
q-77 0 -132 30.5zM368.5 180.5q30.5 38.5 30.5 92.5q0 44 -25 71.5t-67 27.5q-54 0 -87 -35t-33 -91q0 -46 26 -75t68 -29q57 0 87.5 38.5zM311 577.5q-16 16.5 -16 44.5q0 30 18 57.5t48 50.5l43 33l18 -19l-24 -27q-18 -22 -23 -39q16 -3 28.5 -17.5t12.5 -32.5
q0 -28 -17.5 -47.5t-47.5 -19.5q-24 0 -40 16.5z" />
    <glyph glyph-name="Hcircumflex" unicode="&#x124;" horiz-adv-x="743" 
d="M175 0h-160l124 700h160l-45 -256h305l45 256h160l-124 -700h-160l52 294h-305zM401 770h-104l142 166h106l84 -166h-94l-56 75z" />
    <glyph glyph-name="hcircumflex" unicode="&#x125;" horiz-adv-x="573" 
d="M11 0l124 700h144l-45 -253q21 27 58 44t81 17q74 0 116 -43.5t42 -115.5q0 -25 -4 -46l-53 -303h-144l50 281q2 14 2 21q0 33 -20 53.5t-55 20.5q-39 0 -67 -26t-35 -69l-50 -281h-144zM157 770h-104l142 166h106l84 -166h-94l-56 75z" />
    <glyph glyph-name="Hbar" unicode="&#x126;" horiz-adv-x="743" 
d="M752 632h50l-22 -126h-50l-90 -506h-160l52 294h-305l-52 -294h-160l90 506h-51l22 126h51l12 68h160l-12 -68h305l12 68h160zM254 444h305l11 62h-305z" />
    <glyph glyph-name="hbar" unicode="&#x127;" horiz-adv-x="561" 
d="M489 464.5q42 -43.5 42 -115.5q0 -25 -4 -46l-53 -303h-144l50 281q2 14 2 21q0 33 -20 53.5t-55 20.5q-39 0 -67 -26t-35 -69l-50 -281h-144l100 564h-59l16 92h59l8 44h144l-8 -44h149l-16 -92h-149l-21 -117q21 27 58 44t81 17q74 0 116 -43.5z" />
    <glyph glyph-name="Itilde" unicode="&#x128;" horiz-adv-x="278" 
d="M175 0h-160l124 700h160zM74 826q32 89 117 89q19 0 33.5 -4.5t34.5 -14.5q11 -5 23 -9.5t23 -4.5q15 0 24.5 7.5t15.5 24.5l73 -31q-16 -45 -45 -66.5t-72 -21.5q-19 0 -33 5t-33 14q-12 5 -24 9.5t-23 4.5q-15 0 -25 -8t-16 -25z" />
    <glyph glyph-name="itilde" unicode="&#x129;" horiz-adv-x="254" 
d="M155 0h-144l88 496h144zM26 622q32 89 117 89q19 0 33.5 -4.5t34.5 -14.5q11 -5 23 -9.5t23 -4.5q15 0 24.5 7.5t15.5 24.5l73 -31q-16 -45 -45 -66.5t-72 -21.5q-19 0 -33 5t-33 14q-12 5 -24 9.5t-23 4.5q-15 0 -25 -8t-16 -25z" />
    <glyph glyph-name="Imacron" unicode="&#x12a;" horiz-adv-x="278" 
d="M175 0h-160l124 700h160zM364 807h-253l18 101h253z" />
    <glyph glyph-name="imacron" unicode="&#x12b;" horiz-adv-x="254" 
d="M155 0h-144l88 496h144zM316 603h-253l18 101h253z" />
    <glyph glyph-name="Ibreve" unicode="&#x12c;" horiz-adv-x="278" 
d="M175 0h-160l124 700h160zM156 798q-29 28 -29 74q0 7 2 23h84q-1 -4 -1 -12q0 -17 8.5 -26.5t22.5 -9.5q18 0 29.5 13t15.5 35h84q-20 -125 -140 -125q-47 0 -76 28z" />
    <glyph glyph-name="ibreve" unicode="&#x12d;" horiz-adv-x="254" 
d="M155 0h-144l88 496h144zM108 594q-29 28 -29 74q0 7 2 23h84q-1 -4 -1 -12q0 -17 8.5 -26.5t22.5 -9.5q18 0 29.5 13t15.5 35h84q-20 -125 -140 -125q-47 0 -76 28z" />
    <glyph glyph-name="Iogonek" unicode="&#x12e;" horiz-adv-x="278" 
d="M175 0q-36 -18 -59.5 -43.5t-23.5 -51.5q0 -16 9 -24t23 -8q19 0 36 8l-14 -79q-24 -11 -57 -11q-38 0 -64.5 24t-26.5 64q0 76 73 121h-56l124 700h160z" />
    <glyph glyph-name="iogonek" unicode="&#x12f;" horiz-adv-x="254" 
d="M261.5 707.5q26.5 -26.5 26.5 -64.5q0 -37 -26.5 -64t-64.5 -27q-37 0 -64 27t-27 64q0 38 27 64.5t64 26.5q38 0 64.5 -26.5zM11 0l88 496h144l-88 -496q-36 -18 -59.5 -43.5t-23.5 -51.5q0 -16 9 -24t23 -8q19 0 36 8l-14 -79q-24 -11 -57 -11q-38 0 -64.5 24t-26.5 64
q0 76 73 121h-40z" />
    <glyph glyph-name="Idotaccent" unicode="&#x130;" horiz-adv-x="278" 
d="M175 0h-160l124 700h160zM180.5 783q-26.5 27 -26.5 64q0 38 26.5 64.5t64.5 26.5q37 0 64 -26.5t27 -64.5q0 -37 -27 -64t-64 -27q-38 0 -64.5 27z" />
    <glyph glyph-name="dotlessi" unicode="&#x131;" horiz-adv-x="254" 
d="M155 0h-144l88 496h144z" />
    <glyph glyph-name="IJ" unicode="&#x132;" horiz-adv-x="862" 
d="M175 0h-160l124 700h160zM371 33q-61 47 -82 123l149 62q12 -37 37 -59.5t59 -22.5q94 0 116 124l78 440h159l-76 -429q-18 -99 -52 -161t-93 -93t-150 -31q-84 0 -145 47z" />
    <glyph glyph-name="ij" unicode="&#x133;" horiz-adv-x="508" 
d="M132 579q-27 27 -27 64q0 38 27 64.5t64 26.5q38 0 64.5 -26.5t26.5 -64.5q0 -37 -26.5 -64t-64.5 -27q-37 0 -64 27zM154 0h-144l88 496h144zM386 579q-27 27 -27 64q0 38 27 64.5t64 26.5q38 0 64.5 -26.5t26.5 -64.5q0 -37 -26.5 -64t-64.5 -27q-37 0 -64 27z
M137 -201l24 133q21 -12 46 -12q20 0 34.5 14t19.5 43l92 519h144l-93 -521q-17 -97 -60.5 -142t-129.5 -45q-49 0 -77 11z" />
    <glyph glyph-name="Jcircumflex" unicode="&#x134;" horiz-adv-x="584" 
d="M93 33q-61 47 -82 123l149 62q12 -37 37 -59.5t59 -22.5q94 0 116 124l78 440h159l-76 -429q-18 -99 -52 -161t-93 -93t-150 -31q-84 0 -145 47zM480 770h-104l142 166h106l84 -166h-94l-56 75z" />
    <glyph glyph-name="jcircumflex" unicode="&#x135;" horiz-adv-x="254" 
d="M-117 -201l24 133q21 -12 46 -12q20 0 34.5 14t19.5 43l92 519h144l-93 -521q-17 -97 -60.5 -142t-129.5 -45q-49 0 -77 11zM120 566h-104l142 166h106l84 -166h-94l-56 75z" />
    <glyph glyph-name="uni0136" unicode="&#x136;" horiz-adv-x="625" 
d="M395 346l164 -346h-172l-132 280h-30l-50 -280h-160l124 700h160l-51 -290h21l226 290h188zM187 -268l-19 18l22 25q18 22 26 42q-17 3 -29 18.5t-12 34.5q0 27 17.5 45.5t49.5 18.5q24 0 39.5 -17t15.5 -42q0 -35 -19.5 -63.5t-54.5 -53.5z" />
    <glyph glyph-name="uni0137" unicode="&#x137;" horiz-adv-x="525" 
d="M373 496h170l-195 -250l107 -246h-155l-85 204h-24l-36 -204h-144l124 700h144l-72 -408h16zM150 -268l-19 18l22 25q18 22 26 42q-17 3 -29 18.5t-12 34.5q0 27 17.5 45.5t49.5 18.5q24 0 39.5 -17t15.5 -42q0 -35 -19.5 -63.5t-54.5 -53.5z" />
    <glyph glyph-name="kgreenlandic" unicode="&#x138;" horiz-adv-x="525" 
d="M373 496h170l-195 -250l107 -246h-155l-85 204h-24l-36 -204h-144l88 496h144l-36 -204h16z" />
    <glyph glyph-name="Lacute" unicode="&#x139;" horiz-adv-x="578" 
d="M502 0h-487l124 700h160l-98 -554h327zM290 770h-116l114 166h164z" />
    <glyph glyph-name="lacute" unicode="&#x13a;" horiz-adv-x="296" 
d="M73 25.5q-35 37.5 -35 101.5q0 23 4 44l93 529h144l-94 -532q-1 -4 -1 -11q0 -16 9 -26t25 -10q23 0 47 10l-23 -132q-31 -11 -76 -11q-58 0 -93 37.5zM278 770h-116l114 166h164z" />
    <glyph glyph-name="uni013B" unicode="&#x13b;" horiz-adv-x="578" 
d="M502 0h-487l124 700h160l-98 -554h327zM185 -268l-19 18l22 25q18 22 26 42q-17 3 -29 18.5t-12 34.5q0 27 17.5 45.5t49.5 18.5q24 0 39.5 -17t15.5 -42q0 -35 -19.5 -63.5t-54.5 -53.5z" />
    <glyph glyph-name="uni013C" unicode="&#x13c;" horiz-adv-x="296" 
d="M73 25.5q-35 37.5 -35 101.5q0 23 4 44l93 529h144l-94 -532q-1 -4 -1 -11q0 -16 9 -26t25 -10q23 0 47 10l-23 -132q-31 -11 -76 -11q-58 0 -93 37.5zM86 -268l-19 18l22 25q18 22 26 42q-17 3 -29 18.5t-12 34.5q0 27 17.5 45.5t49.5 18.5q24 0 39.5 -17t15.5 -42
q0 -35 -19.5 -63.5t-54.5 -53.5z" />
    <glyph glyph-name="Lcaron" unicode="&#x13d;" horiz-adv-x="578" 
d="M502 0h-487l124 700h160l-98 -554h327zM505 436l-28 29l40 40q30 30 35 50q-22 4 -39 24.5t-17 44.5q0 38 23 61t61 23q33 0 53 -22t20 -59q0 -39 -22 -70.5t-67 -69.5z" />
    <glyph glyph-name="lcaron" unicode="&#x13e;" horiz-adv-x="439" 
d="M73 25.5q-35 37.5 -35 101.5q0 23 4 44l93 529h144l-94 -532q-1 -4 -1 -11q0 -16 9 -26t25 -10q23 0 47 10l-23 -132q-31 -11 -76 -11q-58 0 -93 37.5zM356 436l-28 29l40 40q30 30 35 50q-22 4 -39 24.5t-17 44.5q0 38 23 61t61 23q33 0 53 -22t20 -59q0 -39 -22 -70.5
t-67 -69.5z" />
    <glyph glyph-name="Ldot" unicode="&#x13f;" horiz-adv-x="569" 
d="M502 0h-487l124 700h160l-98 -554h327zM375 283.5q-28 27.5 -28 66.5q0 38 28 66t66 28t66 -28t28 -66q0 -39 -28 -66.5t-66 -27.5t-66 27.5z" />
    <glyph glyph-name="ldot" unicode="&#x140;" horiz-adv-x="487" 
d="M73 25.5q-35 37.5 -35 101.5q0 23 4 44l93 529h144l-94 -532q-1 -4 -1 -11q0 -16 9 -26t25 -10q23 0 47 10l-23 -132q-31 -11 -76 -11q-58 0 -93 37.5zM321 283.5q-28 27.5 -28 66.5q0 38 28 66t66 28t66 -28t28 -66q0 -39 -28 -66.5t-66 -27.5t-66 27.5z" />
    <glyph glyph-name="Lslash" unicode="&#x141;" horiz-adv-x="617" 
d="M261 263l-21 -117h327l-26 -146h-487l25 142l-86 -58l27 158l87 58l71 400h160l-49 -278l154 103l-28 -159z" />
    <glyph glyph-name="lslash" unicode="&#x142;" horiz-adv-x="294" 
d="M210 308l-25 -140q-1 -4 -1 -11q0 -16 9 -26t25 -10q23 0 47 10l-23 -132q-31 -11 -76 -11q-58 0 -93 37.5t-35 101.5q0 23 4 44l4 23l-79 -55l26 146l79 54l63 361h144l-44 -247l79 54l-26 -145z" />
    <glyph glyph-name="Nacute" unicode="&#x143;" horiz-adv-x="711" 
d="M167 0h-152l124 700h162l202 -436l77 436h152l-124 -700h-146l-214 457zM506 770h-116l114 166h164z" />
    <glyph glyph-name="nacute" unicode="&#x144;" 
d="M11 0l88 496h144l-9 -49q20 28 54 44.5t77 16.5q76 0 117.5 -43.5t41.5 -115.5q0 -26 -4 -47l-54 -302h-144l50 285q2 12 2 19q0 32 -20 52t-55 20q-37 0 -61.5 -24t-32.5 -67l-50 -285h-144zM397 566h-116l114 166h164z" />
    <glyph glyph-name="uni0145" unicode="&#x145;" horiz-adv-x="711" 
d="M167 0h-152l124 700h162l202 -436l77 436h152l-124 -700h-146l-214 457zM237 -268l-19 18l22 25q18 22 26 42q-17 3 -29 18.5t-12 34.5q0 27 17.5 45.5t49.5 18.5q24 0 39.5 -17t15.5 -42q0 -35 -19.5 -63.5t-54.5 -53.5z" />
    <glyph glyph-name="uni0146" unicode="&#x146;" 
d="M11 0l88 496h144l-9 -49q20 28 54 44.5t77 16.5q76 0 117.5 -43.5t41.5 -115.5q0 -26 -4 -47l-54 -302h-144l50 285q2 12 2 19q0 32 -20 52t-55 20q-37 0 -61.5 -24t-32.5 -67l-50 -285h-144zM164 -268l-19 18l22 25q18 22 26 42q-17 3 -29 18.5t-12 34.5q0 27 17.5 45.5
t49.5 18.5q24 0 39.5 -17t15.5 -42q0 -35 -19.5 -63.5t-54.5 -53.5z" />
    <glyph glyph-name="Ncaron" unicode="&#x147;" horiz-adv-x="711" 
d="M167 0h-152l124 700h162l202 -436l77 436h152l-124 -700h-146l-214 457zM496 770h-106l-84 166h94l56 -75l78 75h104z" />
    <glyph glyph-name="ncaron" unicode="&#x148;" 
d="M11 0l88 496h144l-9 -49q20 28 54 44.5t77 16.5q76 0 117.5 -43.5t41.5 -115.5q0 -26 -4 -47l-54 -302h-144l50 285q2 12 2 19q0 32 -20 52t-55 20q-37 0 -61.5 -24t-32.5 -67l-50 -285h-144zM387 566h-106l-84 166h94l56 -75l78 75h104z" />
    <glyph glyph-name="Eng" unicode="&#x14a;" horiz-adv-x="712" 
d="M270 -199.5q-43 16.5 -72 46.5l105 118q33 -38 74 -38q31 0 51 17.5t28 50.5l3 13l-211 448l-81 -456h-152l124 700h162l202 -436l78 436h152l-123 -690q-14 -78 -40.5 -127t-75 -74t-126.5 -25q-55 0 -98 16.5z" />
    <glyph glyph-name="eng" unicode="&#x14b;" 
d="M194 -201l24 133q21 -12 46 -12q20 0 34.5 14t19.5 43l54 308q2 12 2 19q0 32 -20 52t-55 20q-37 0 -61.5 -24t-32.5 -67l-50 -285h-144l88 496h144l-9 -49q20 28 54 44.5t77 16.5q76 0 117.5 -43.5t41.5 -115.5q0 -26 -4 -47l-59 -327q-17 -97 -60.5 -142t-129.5 -45
q-49 0 -77 11z" />
    <glyph glyph-name="Omacron" unicode="&#x14c;" horiz-adv-x="785" 
d="M202.5 26.5q-69.5 40.5 -107 112.5t-37.5 163q0 42 7 81q17 98 67.5 172.5t133 116.5t191.5 42q92 0 161.5 -40.5t107 -112.5t37.5 -163q0 -42 -7 -81q-17 -97 -67 -172t-132.5 -117t-191.5 -42q-93 0 -162.5 40.5zM521.5 189.5q56.5 54.5 71.5 140.5q5 24 5 56
q0 79 -40.5 129t-114.5 50q-85 0 -142 -52.5t-73 -137.5q-6 -30 -6 -60q0 -79 41 -129.5t116 -50.5q86 0 142.5 54.5zM618 807h-253l18 101h253z" />
    <glyph glyph-name="omacron" unicode="&#x14d;" horiz-adv-x="588" 
d="M143 17.5q-52 29.5 -80.5 82t-28.5 119.5q0 29 6 59q18 102 92 166t191 64q68 0 120.5 -29.5t81 -82t28.5 -119.5q0 -24 -5 -56q-18 -104 -92.5 -168.5t-192.5 -64.5q-68 0 -120 29.5zM357.5 155q33.5 31 42.5 81q3 17 3 33q0 46 -25 74.5t-71 28.5q-45 0 -78 -31
t-42 -81q-3 -16 -3 -32q0 -46 25 -75t70 -29t78.5 31zM482 603h-253l18 101h253z" />
    <glyph glyph-name="Obreve" unicode="&#x14e;" horiz-adv-x="785" 
d="M202.5 26.5q-69.5 40.5 -107 112.5t-37.5 163q0 42 7 81q17 98 67.5 172.5t133 116.5t191.5 42q92 0 161.5 -40.5t107 -112.5t37.5 -163q0 -42 -7 -81q-17 -97 -67 -172t-132.5 -117t-191.5 -42q-93 0 -162.5 40.5zM521.5 189.5q56.5 54.5 71.5 140.5q5 24 5 56
q0 79 -40.5 129t-114.5 50q-85 0 -142 -52.5t-73 -137.5q-6 -30 -6 -60q0 -79 41 -129.5t116 -50.5q86 0 142.5 54.5zM410 798q-29 28 -29 74q0 7 2 23h84q-1 -4 -1 -12q0 -17 8.5 -26.5t22.5 -9.5q18 0 29.5 13t15.5 35h84q-20 -125 -140 -125q-47 0 -76 28z" />
    <glyph glyph-name="obreve" unicode="&#x14f;" horiz-adv-x="588" 
d="M143 17.5q-52 29.5 -80.5 82t-28.5 119.5q0 29 6 59q18 102 92 166t191 64q68 0 120.5 -29.5t81 -82t28.5 -119.5q0 -24 -5 -56q-18 -104 -92.5 -168.5t-192.5 -64.5q-68 0 -120 29.5zM357.5 155q33.5 31 42.5 81q3 17 3 33q0 46 -25 74.5t-71 28.5q-45 0 -78 -31
t-42 -81q-3 -16 -3 -32q0 -46 25 -75t70 -29t78.5 31zM274 594q-29 28 -29 74q0 7 2 23h84q-1 -4 -1 -12q0 -17 8.5 -26.5t22.5 -9.5q18 0 29.5 13t15.5 35h84q-20 -125 -140 -125q-47 0 -76 28z" />
    <glyph glyph-name="Ohungarumlaut" unicode="&#x150;" horiz-adv-x="785" 
d="M202.5 26.5q-69.5 40.5 -107 112.5t-37.5 163q0 42 7 81q17 98 67.5 172.5t133 116.5t191.5 42q92 0 161.5 -40.5t107 -112.5t37.5 -163q0 -42 -7 -81q-17 -97 -67 -172t-132.5 -117t-191.5 -42q-93 0 -162.5 40.5zM521.5 189.5q56.5 54.5 71.5 140.5q5 24 5 56
q0 79 -40.5 129t-114.5 50q-85 0 -142 -52.5t-73 -137.5q-6 -30 -6 -60q0 -79 41 -129.5t116 -50.5q86 0 142.5 54.5zM433 770h-99l79 166h140zM639 770h-99l78 166h140z" />
    <glyph glyph-name="ohungarumlaut" unicode="&#x151;" horiz-adv-x="588" 
d="M143 17.5q-52 29.5 -80.5 82t-28.5 119.5q0 29 6 59q18 102 92 166t191 64q68 0 120.5 -29.5t81 -82t28.5 -119.5q0 -24 -5 -56q-18 -104 -92.5 -168.5t-192.5 -64.5q-68 0 -120 29.5zM357.5 155q33.5 31 42.5 81q3 17 3 33q0 46 -25 74.5t-71 28.5q-45 0 -78 -31
t-42 -81q-3 -16 -3 -32q0 -46 25 -75t70 -29t78.5 31zM297 566h-99l79 166h140zM503 566h-99l78 166h140z" />
    <glyph glyph-name="OE" unicode="&#x152;" horiz-adv-x="1134" 
d="M202.5 26.5q-69.5 40.5 -107 112.5t-37.5 163q0 42 7 81q17 98 67.5 172.5t133 116.5t191.5 42q58 0 109 -20t82 -54l11 60h513l-26 -146h-353l-22 -123h287l-25 -142h-287l-25 -143h353l-26 -146h-513l12 66q-34 -41 -81.5 -60.5t-100.5 -19.5q-93 0 -162.5 40.5z
M521.5 189.5q56.5 54.5 71.5 140.5q5 24 5 56q0 79 -40.5 129t-114.5 50q-85 0 -142 -52.5t-73 -137.5q-6 -30 -6 -60q0 -79 41 -129.5t116 -50.5q86 0 142.5 54.5z" />
    <glyph glyph-name="oe" unicode="&#x153;" horiz-adv-x="936" 
d="M806.5 481.5q48.5 -26.5 74 -73.5t25.5 -107q0 -26 -4 -49l-7 -40h-352q4 -47 28.5 -75.5t66.5 -28.5q38 0 64 15.5t46 47.5l117 -51q-38 -67 -94.5 -99.5t-145.5 -32.5q-53 0 -96 19.5t-72 55.5q-75 -75 -194 -75q-68 0 -120 29.5t-80.5 82t-28.5 119.5q0 29 6 59
q18 102 92 166t191 64q52 0 94.5 -20t71.5 -56q78 76 204 76q65 0 113.5 -26.5zM604.5 370q-29.5 -21 -45.5 -58h210q-3 34 -28.5 56.5t-62.5 22.5q-44 0 -73.5 -21zM403 269q0 46 -25 74.5t-71 28.5q-45 0 -78 -31t-42 -80q-3 -16 -3 -32q0 -47 25 -76t70 -29t78.5 31
t42.5 81q3 17 3 33z" />
    <glyph glyph-name="Racute" unicode="&#x154;" horiz-adv-x="628" 
d="M15 0l124 700h299q86 0 137 -45t51 -126q0 -70 -41.5 -115t-108.5 -62q79 -14 76 -130l-6 -222h-157l12 225q3 62 -58 62h-117l-51 -287h-160zM374 423q39 0 63.5 21t24.5 58q0 29 -17.5 45.5t-45.5 16.5h-124l-25 -141h124zM468 770h-116l114 166h164z" />
    <glyph glyph-name="racute" unicode="&#x155;" horiz-adv-x="419" 
d="M11 0l88 496h144l-12 -66q22 39 59 58.5t87 19.5q30 0 55 -9l-25 -138q-31 15 -66 15q-55 0 -93 -33.5t-49 -94.5l-44 -248h-144zM345 566h-116l114 166h164z" />
    <glyph glyph-name="uni0156" unicode="&#x156;" horiz-adv-x="628" 
d="M15 0l124 700h299q86 0 137 -45t51 -126q0 -70 -41.5 -115t-108.5 -62q79 -14 76 -130l-6 -222h-157l12 225q3 62 -58 62h-117l-51 -287h-160zM374 423q39 0 63.5 21t24.5 58q0 29 -17.5 45.5t-45.5 16.5h-124l-25 -141h124zM202 -268l-19 18l22 25q18 22 26 42
q-17 3 -29 18.5t-12 34.5q0 27 17.5 45.5t49.5 18.5q24 0 39.5 -17t15.5 -42q0 -35 -19.5 -63.5t-54.5 -53.5z" />
    <glyph glyph-name="uni0157" unicode="&#x157;" horiz-adv-x="419" 
d="M11 0l88 496h144l-12 -66q22 39 59 58.5t87 19.5q30 0 55 -9l-25 -138q-31 15 -66 15q-55 0 -93 -33.5t-49 -94.5l-44 -248h-144zM9 -268l-19 18l22 25q18 22 26 42q-17 3 -29 18.5t-12 34.5q0 27 17.5 45.5t49.5 18.5q24 0 39.5 -17t15.5 -42q0 -35 -19.5 -63.5
t-54.5 -53.5z" />
    <glyph glyph-name="Rcaron" unicode="&#x158;" horiz-adv-x="628" 
d="M15 0l124 700h299q86 0 137 -45t51 -126q0 -70 -41.5 -115t-108.5 -62q79 -14 76 -130l-6 -222h-157l12 225q3 62 -58 62h-117l-51 -287h-160zM374 423q39 0 63.5 21t24.5 58q0 29 -17.5 45.5t-45.5 16.5h-124l-25 -141h124zM458 770h-106l-84 166h94l56 -75l78 75h104z
" />
    <glyph glyph-name="rcaron" unicode="&#x159;" horiz-adv-x="419" 
d="M11 0l88 496h144l-12 -66q22 39 59 58.5t87 19.5q30 0 55 -9l-25 -138q-31 15 -66 15q-55 0 -93 -33.5t-49 -94.5l-44 -248h-144zM335 566h-106l-84 166h94l56 -75l78 75h104z" />
    <glyph glyph-name="Sacute" unicode="&#x15a;" horiz-adv-x="629" 
d="M112.5 36q-70.5 50 -92.5 128l140 68q36 -100 140 -100q50 0 85.5 23t35.5 57q0 32 -31 51.5t-102 36.5q-86 21 -134 72t-48 125q0 100 73.5 157.5t200.5 57.5q88 0 149.5 -39t93.5 -109l-138 -77q-17 38 -48.5 59.5t-74.5 21.5q-47 0 -73.5 -15t-26.5 -41q0 -29 27 -47
t103 -37q91 -23 141 -69.5t50 -126.5q0 -73 -35 -128.5t-101 -86.5t-156 -31q-108 0 -178.5 50zM467 770h-116l114 166h164z" />
    <glyph glyph-name="sacute" unicode="&#x15b;" horiz-adv-x="502" 
d="M90 20q-53 34 -76 90l121 63q13 -28 38.5 -45t59.5 -17q32 0 52 10.5t20 30.5q0 19 -20.5 30t-74.5 24q-62 15 -97 54t-35 88q0 79 56 118.5t152 39.5q138 0 192 -109l-117 -60q-12 26 -36 41.5t-54 15.5q-27 0 -45 -10t-18 -26t19 -28t69 -22q70 -13 110.5 -46t40.5 -95
q0 -82 -61 -131.5t-169 -49.5q-74 0 -127 34zM370 566h-116l114 166h164z" />
    <glyph glyph-name="Scircumflex" unicode="&#x15c;" horiz-adv-x="629" 
d="M112.5 36q-70.5 50 -92.5 128l140 68q36 -100 140 -100q50 0 85.5 23t35.5 57q0 32 -31 51.5t-102 36.5q-86 21 -134 72t-48 125q0 100 73.5 157.5t200.5 57.5q88 0 149.5 -39t93.5 -109l-138 -77q-17 38 -48.5 59.5t-74.5 21.5q-47 0 -73.5 -15t-26.5 -41q0 -29 27 -47
t103 -37q91 -23 141 -69.5t50 -126.5q0 -73 -35 -128.5t-101 -86.5t-156 -31q-108 0 -178.5 50zM346 770h-104l142 166h106l84 -166h-94l-56 75z" />
    <glyph glyph-name="scircumflex" unicode="&#x15d;" horiz-adv-x="502" 
d="M90 20q-53 34 -76 90l121 63q13 -28 38.5 -45t59.5 -17q32 0 52 10.5t20 30.5q0 19 -20.5 30t-74.5 24q-62 15 -97 54t-35 88q0 79 56 118.5t152 39.5q138 0 192 -109l-117 -60q-12 26 -36 41.5t-54 15.5q-27 0 -45 -10t-18 -26t19 -28t69 -22q70 -13 110.5 -46t40.5 -95
q0 -82 -61 -131.5t-169 -49.5q-74 0 -127 34zM249 566h-104l142 166h106l84 -166h-94l-56 75z" />
    <glyph glyph-name="Scedilla" unicode="&#x15e;" horiz-adv-x="629" 
d="M533 358.5q50 -46.5 50 -126.5q0 -73 -35 -128.5t-100.5 -86.5t-155.5 -31l-10 -24q14 2 19 2q32 0 52 -23.5t20 -56.5q0 -48 -32.5 -74t-88.5 -26q-49 0 -81 16l28 64q23 -14 54 -14q42 0 42 34q0 11 -8 18.5t-21 7.5q-19 0 -33 -12l-36 24l25 70q-80 15 -132 61
t-70 111l140 68q36 -100 140 -100q50 0 85.5 23t35.5 57q0 32 -31 51.5t-102 36.5q-86 21 -134 72t-48 125q0 100 73.5 157.5t200.5 57.5q88 0 149.5 -39t93.5 -109l-138 -77q-17 38 -48.5 59.5t-74.5 21.5q-47 0 -73.5 -15t-26.5 -41q0 -29 27 -47t103 -37
q91 -23 141 -69.5z" />
    <glyph glyph-name="scedilla" unicode="&#x15f;" horiz-adv-x="502" 
d="M406.5 262q40.5 -33 40.5 -95q0 -79 -56.5 -128t-157.5 -53l-10 -24q14 2 19 2q32 0 52 -23.5t20 -56.5q0 -48 -32.5 -74t-88.5 -26q-49 0 -81 16l28 64q23 -14 54 -14q42 0 42 34q0 11 -8 18.5t-21 7.5q-19 0 -33 -12l-36 24l25 69q-54 11 -92 42.5t-57 76.5l121 63
q13 -28 38.5 -45t59.5 -17q32 0 52 10.5t20 30.5q0 19 -20.5 30t-74.5 24q-62 15 -97 54t-35 88q0 79 56 118.5t152 39.5q138 0 192 -109l-117 -60q-12 26 -36 41.5t-54 15.5q-27 0 -45 -10t-18 -26t19 -28t69 -22q70 -13 110.5 -46z" />
    <glyph glyph-name="Scaron" unicode="&#x160;" horiz-adv-x="629" 
d="M112.5 36q-70.5 50 -92.5 128l140 68q36 -100 140 -100q50 0 85.5 23t35.5 57q0 32 -31 51.5t-102 36.5q-86 21 -134 72t-48 125q0 100 73.5 157.5t200.5 57.5q88 0 149.5 -39t93.5 -109l-138 -77q-17 38 -48.5 59.5t-74.5 21.5q-47 0 -73.5 -15t-26.5 -41q0 -29 27 -47
t103 -37q91 -23 141 -69.5t50 -126.5q0 -73 -35 -128.5t-101 -86.5t-156 -31q-108 0 -178.5 50zM457 770h-106l-84 166h94l56 -75l78 75h104z" />
    <glyph glyph-name="scaron" unicode="&#x161;" horiz-adv-x="502" 
d="M90 20q-53 34 -76 90l121 63q13 -28 38.5 -45t59.5 -17q32 0 52 10.5t20 30.5q0 19 -20.5 30t-74.5 24q-62 15 -97 54t-35 88q0 79 56 118.5t152 39.5q138 0 192 -109l-117 -60q-12 26 -36 41.5t-54 15.5q-27 0 -45 -10t-18 -26t19 -28t69 -22q70 -13 110.5 -46t40.5 -95
q0 -82 -61 -131.5t-169 -49.5q-74 0 -127 34zM360 566h-106l-84 166h94l56 -75l78 75h104z" />
    <glyph glyph-name="uni0162" unicode="&#x162;" horiz-adv-x="587" 
d="M329 0h-52l-16 -38q14 2 19 2q32 0 52 -23.5t20 -56.5q0 -48 -32.5 -74t-88.5 -26q-49 0 -81 16l28 64q23 -14 54 -14q42 0 42 34q0 11 -8 18.5t-21 7.5q-19 0 -33 -12l-36 24l28 78h-34l98 554h-193l26 146h545l-26 -146h-193z" />
    <glyph glyph-name="uni0163" unicode="&#x163;" horiz-adv-x="435" 
d="M288 375l-34 -191q-1 -4 -1 -13q0 -22 14 -36t40 -14q37 0 78 20l-25 -139q-47 -13 -94 -14l-11 -26q14 2 19 2q32 0 52 -23.5t20 -56.5q0 -48 -32.5 -74t-88.5 -26q-49 0 -81 16l28 64q23 -14 54 -14q42 0 42 34q0 11 -8 18.5t-21 7.5q-19 0 -33 -12l-36 24l27 76
q-44 16 -68 54.5t-24 90.5q0 12 4 40l34 192h-99l22 121h99l18 103l154 58l-28 -161h139l-22 -121h-138z" />
    <glyph glyph-name="Tcaron" unicode="&#x164;" horiz-adv-x="587" 
d="M646 700l-26 -146h-193l-98 -554h-159l98 554h-193l26 146h545zM434 770h-106l-84 166h94l56 -75l78 75h104z" />
    <glyph glyph-name="tcaron" unicode="&#x165;" horiz-adv-x="435" 
d="M288 375l-34 -191q-1 -4 -1 -13q0 -22 14 -36t40 -14q37 0 78 20l-25 -139q-51 -14 -104 -14q-70 0 -110.5 43.5t-40.5 111.5q0 12 4 40l34 192h-99l22 121h99l18 103l154 58l-28 -161h139l-22 -121h-138zM438 514l-28 29l40 40q30 30 35 50q-22 4 -39 24.5t-17 44.5
q0 38 23 61t61 23q33 0 53 -22t20 -59q0 -39 -22 -70.5t-67 -69.5z" />
    <glyph glyph-name="Tbar" unicode="&#x166;" horiz-adv-x="586" 
d="M646 700l-26 -146h-193l-28 -161h117l-22 -125h-118l-47 -268h-159l47 268h-116l22 125h117l28 161h-193l26 146h545z" />
    <glyph glyph-name="tbar" unicode="&#x167;" horiz-adv-x="456" 
d="M426 375h-138l-14 -79h109l-16 -92h-109l-4 -20q-1 -4 -1 -13q0 -22 14 -36t40 -14q37 0 78 20l-25 -139q-51 -14 -104 -14q-70 0 -110.5 43.5t-40.5 111.5q0 12 4 40l4 21h-77l16 92h77l14 79h-99l22 121h99l18 103l154 58l-28 -161h139z" />
    <glyph glyph-name="Utilde" unicode="&#x168;" horiz-adv-x="669" 
d="M172 15q-55 29 -85.5 82.5t-30.5 125.5q0 31 6 64l73 413h160l-75 -426q-3 -16 -3 -32q0 -48 26 -77t73 -29q59 0 95 35.5t48 102.5l75 426h160l-73 -413q-25 -142 -103 -221.5t-219 -79.5q-72 0 -127 29zM270 826q32 89 117 89q19 0 33.5 -4.5t34.5 -14.5q11 -5 23 -9.5
t23 -4.5q15 0 24.5 7.5t15.5 24.5l73 -31q-16 -45 -45 -66.5t-72 -21.5q-19 0 -33 5t-33 14q-12 5 -24 9.5t-23 4.5q-15 0 -25 -8t-16 -25z" />
    <glyph glyph-name="utilde" unicode="&#x169;" 
d="M82.5 31.5q-41.5 43.5 -41.5 115.5q0 26 4 47l54 302h144l-50 -285q-2 -12 -2 -19q0 -32 20 -52t55 -20q37 0 61.5 24t32.5 67l50 285h144l-88 -496h-144l9 49q-20 -28 -54 -44.5t-77 -16.5q-76 0 -117.5 43.5zM182 622q32 89 117 89q19 0 33.5 -4.5t34.5 -14.5
q11 -5 23 -9.5t23 -4.5q15 0 24.5 7.5t15.5 24.5l73 -31q-16 -45 -45 -66.5t-72 -21.5q-19 0 -33 5t-33 14q-12 5 -24 9.5t-23 4.5q-15 0 -25 -8t-16 -25z" />
    <glyph glyph-name="Umacron" unicode="&#x16a;" horiz-adv-x="669" 
d="M172 15q-55 29 -85.5 82.5t-30.5 125.5q0 31 6 64l73 413h160l-75 -426q-3 -16 -3 -32q0 -48 26 -77t73 -29q59 0 95 35.5t48 102.5l75 426h160l-73 -413q-25 -142 -103 -221.5t-219 -79.5q-72 0 -127 29zM560 807h-253l18 101h253z" />
    <glyph glyph-name="umacron" unicode="&#x16b;" 
d="M82.5 31.5q-41.5 43.5 -41.5 115.5q0 26 4 47l54 302h144l-50 -285q-2 -12 -2 -19q0 -32 20 -52t55 -20q37 0 61.5 24t32.5 67l50 285h144l-88 -496h-144l9 49q-20 -28 -54 -44.5t-77 -16.5q-76 0 -117.5 43.5zM472 603h-253l18 101h253z" />
    <glyph glyph-name="Ubreve" unicode="&#x16c;" horiz-adv-x="669" 
d="M172 15q-55 29 -85.5 82.5t-30.5 125.5q0 31 6 64l73 413h160l-75 -426q-3 -16 -3 -32q0 -48 26 -77t73 -29q59 0 95 35.5t48 102.5l75 426h160l-73 -413q-25 -142 -103 -221.5t-219 -79.5q-72 0 -127 29zM352 798q-29 28 -29 74q0 7 2 23h84q-1 -4 -1 -12
q0 -17 8.5 -26.5t22.5 -9.5q18 0 29.5 13t15.5 35h84q-20 -125 -140 -125q-47 0 -76 28z" />
    <glyph glyph-name="ubreve" unicode="&#x16d;" 
d="M82.5 31.5q-41.5 43.5 -41.5 115.5q0 26 4 47l54 302h144l-50 -285q-2 -12 -2 -19q0 -32 20 -52t55 -20q37 0 61.5 24t32.5 67l50 285h144l-88 -496h-144l9 49q-20 -28 -54 -44.5t-77 -16.5q-76 0 -117.5 43.5zM264 594q-29 28 -29 74q0 7 2 23h84q-1 -4 -1 -12
q0 -17 8.5 -26.5t22.5 -9.5q18 0 29.5 13t15.5 35h84q-20 -125 -140 -125q-47 0 -76 28z" />
    <glyph glyph-name="Uring" unicode="&#x16e;" horiz-adv-x="669" 
d="M172 15q-55 29 -85.5 82.5t-30.5 125.5q0 31 6 64l73 413h160l-75 -426q-3 -16 -3 -32q0 -48 26 -77t73 -29q59 0 95 35.5t48 102.5l75 426h160l-73 -413q-25 -142 -103 -221.5t-219 -79.5q-72 0 -127 29zM364 785.5q-26 25.5 -26 65.5q0 54 32 87.5t89 33.5
q39 0 64.5 -25.5t25.5 -65.5q0 -54 -32 -87.5t-88 -33.5q-39 0 -65 25.5zM467.5 839.5q11.5 11.5 11.5 31.5q0 13 -8.5 23t-21.5 10q-18 0 -29.5 -11.5t-11.5 -31.5q0 -13 8.5 -23t22.5 -10q17 0 28.5 11.5z" />
    <glyph glyph-name="uring" unicode="&#x16f;" 
d="M82.5 31.5q-41.5 43.5 -41.5 115.5q0 26 4 47l54 302h144l-50 -285q-2 -12 -2 -19q0 -32 20 -52t55 -20q37 0 61.5 24t32.5 67l50 285h144l-88 -496h-144l9 49q-20 -28 -54 -44.5t-77 -16.5q-76 0 -117.5 43.5zM276 581.5q-26 25.5 -26 65.5q0 54 32 87.5t89 33.5
q39 0 64.5 -25.5t25.5 -65.5q0 -54 -32 -87.5t-88 -33.5q-39 0 -65 25.5zM379.5 635.5q11.5 11.5 11.5 31.5q0 13 -8.5 23t-21.5 10q-18 0 -29.5 -11.5t-11.5 -31.5q0 -13 8.5 -23t22.5 -10q17 0 28.5 11.5z" />
    <glyph glyph-name="Uhungarumlaut" unicode="&#x170;" horiz-adv-x="669" 
d="M172 15q-55 29 -85.5 82.5t-30.5 125.5q0 31 6 64l73 413h160l-75 -426q-3 -16 -3 -32q0 -48 26 -77t73 -29q59 0 95 35.5t48 102.5l75 426h160l-73 -413q-25 -142 -103 -221.5t-219 -79.5q-72 0 -127 29zM375 770h-99l79 166h140zM581 770h-99l78 166h140z" />
    <glyph glyph-name="uhungarumlaut" unicode="&#x171;" 
d="M82.5 31.5q-41.5 43.5 -41.5 115.5q0 26 4 47l54 302h144l-50 -285q-2 -12 -2 -19q0 -32 20 -52t55 -20q37 0 61.5 24t32.5 67l50 285h144l-88 -496h-144l9 49q-20 -28 -54 -44.5t-77 -16.5q-76 0 -117.5 43.5zM287 566h-99l79 166h140zM493 566h-99l78 166h140z" />
    <glyph glyph-name="Uogonek" unicode="&#x172;" horiz-adv-x="669" 
d="M534 700h160l-73 -413q-21 -120 -80 -196t-162 -97q-31 -18 -51 -41.5t-20 -47.5q0 -16 9 -24t23 -8q19 0 36 8l-14 -79q-24 -11 -57 -11q-38 0 -64.5 24t-26.5 64q0 67 55 108q-97 9 -155 72t-58 164q0 31 6 64l73 413h160l-75 -426q-3 -16 -3 -32q0 -48 26 -77t73 -29
q59 0 95 35.5t48 102.5z" />
    <glyph glyph-name="uogonek" unicode="&#x173;" 
d="M466 0q-36 -18 -59.5 -43.5t-23.5 -51.5q0 -16 9 -24t23 -8q19 0 36 8l-14 -79q-24 -11 -57 -11q-38 0 -64.5 24t-26.5 64q0 76 73 121h-40l9 49q-20 -28 -54 -44.5t-77 -16.5q-76 0 -117.5 43.5t-41.5 115.5q0 26 4 47l54 302h144l-50 -285q-2 -12 -2 -19q0 -32 20 -52
t55 -20q37 0 61.5 24t32.5 67l50 285h144z" />
    <glyph glyph-name="Wcircumflex" unicode="&#x174;" horiz-adv-x="980" 
d="M331 0h-185l-47 700h161l17 -485l205 472h161l40 -472l188 485h170l-293 -700h-186l-34 466zM520 770h-104l142 166h106l84 -166h-94l-56 75z" />
    <glyph glyph-name="wcircumflex" unicode="&#x175;" horiz-adv-x="788" 
d="M272 0h-155l-59 496h148l21 -307l130 307h153l26 -307l127 307h155l-230 -496h-156l-24 329zM388 566h-104l142 166h106l84 -166h-94l-56 75z" />
    <glyph glyph-name="Ycircumflex" unicode="&#x176;" horiz-adv-x="659" 
d="M365 0h-159l50 280l-166 420h180l90 -256l176 256h193l-314 -420zM359 770h-104l142 166h106l84 -166h-94l-56 75z" />
    <glyph glyph-name="ycircumflex" unicode="&#x177;" horiz-adv-x="562" 
d="M434 496h159l-303 -552q-34 -62 -64 -95t-70 -47t-103 -14q-59 0 -93 16l26 144q19 -12 37.5 -18.5t47.5 -6.5q31 0 54.5 18t43.5 56l5 9l-121 490h152l64 -311zM278 566h-104l142 166h106l84 -166h-94l-56 75z" />
    <glyph glyph-name="Ydieresis" unicode="&#x178;" horiz-adv-x="659" 
d="M365 0h-159l50 280l-166 420h180l90 -256l176 256h193l-314 -420zM257 789q-24 24 -24 57q0 34 24 58t58 24t58 -24t24 -58q0 -33 -24 -57t-58 -24t-58 24zM498 789q-24 24 -24 57q0 34 24 58t57 24q34 0 58 -24t24 -58q0 -33 -24 -57t-58 -24q-33 0 -57 24z" />
    <glyph glyph-name="Zacute" unicode="&#x179;" horiz-adv-x="593" 
d="M513 0h-524l26 146l389 408h-303l26 146h492l-26 -146l-389 -408h335zM443 770h-116l114 166h164z" />
    <glyph glyph-name="zacute" unicode="&#x17a;" horiz-adv-x="465" 
d="M389 0h-404l22 121l271 254h-219l22 121h384l-22 -121l-272 -254h240zM346 566h-116l114 166h164z" />
    <glyph glyph-name="Zdotaccent" unicode="&#x17b;" horiz-adv-x="593" 
d="M513 0h-524l26 146l389 408h-303l26 146h492l-26 -146l-389 -408h335zM333.5 783q-26.5 27 -26.5 64q0 38 26.5 64.5t64.5 26.5q37 0 64 -26.5t27 -64.5q0 -37 -27 -64t-64 -27q-38 0 -64.5 27z" />
    <glyph glyph-name="zdotaccent" unicode="&#x17c;" horiz-adv-x="465" 
d="M389 0h-404l22 121l271 254h-219l22 121h384l-22 -121l-272 -254h240zM236.5 579q-26.5 27 -26.5 64q0 38 26.5 64.5t64.5 26.5q37 0 64 -26.5t27 -64.5q0 -37 -27 -64t-64 -27q-38 0 -64.5 27z" />
    <glyph glyph-name="Zcaron" unicode="&#x17d;" horiz-adv-x="593" 
d="M513 0h-524l26 146l389 408h-303l26 146h492l-26 -146l-389 -408h335zM433 770h-106l-84 166h94l56 -75l78 75h104z" />
    <glyph glyph-name="zcaron" unicode="&#x17e;" horiz-adv-x="465" 
d="M389 0h-404l22 121l271 254h-219l22 121h384l-22 -121l-272 -254h240zM336 566h-106l-84 166h94l56 -75l78 75h104z" />
    <glyph glyph-name="florin" unicode="&#x192;" horiz-adv-x="398" 
d="M327 564.5q-19 -15.5 -24 -44.5l-4 -24h126l-22 -121h-126l-72 -408q-16 -94 -69.5 -139.5t-145.5 -45.5q-34 0 -84 12l24 132q33 -12 62 -12q28 0 47 15.5t24 44.5l71 401h-93l22 121h93l5 31q17 95 69 140t147 45q50 0 84 -12l-24 -132q-34 12 -63 12q-28 0 -47 -15.5z
" />
    <glyph glyph-name="uni01B5" unicode="&#x1b5;" horiz-adv-x="593" 
d="M127 700h492l-26 -146l-135 -142h66l-22 -125h-164l-134 -141h335l-26 -146h-524l26 146l134 141h-65l22 125h163l135 142h-303z" />
    <glyph glyph-name="uni01B6" unicode="&#x1b6;" horiz-adv-x="465" 
d="M81 496h384l-22 -121l-85 -79h50l-16 -92h-132l-89 -83h240l-22 -121h-404l22 121l89 83h-53l16 92h135l84 79h-219z" />
    <glyph glyph-name="AEacute" unicode="&#x1fc;" horiz-adv-x="1003" 
d="M1041 700l-26 -146h-353l-22 -123h287l-25 -142h-287l-25 -143h353l-26 -146h-513l22 126h-193l-73 -126h-189l427 700h643zM482 554l-169 -291h138l51 291h-20zM744 770h-116l114 166h164z" />
    <glyph glyph-name="aeacute" unicode="&#x1fd;" horiz-adv-x="933" 
d="M122.5 18.5q-43.5 30.5 -65 82.5t-21.5 116q0 35 6 69q18 101 87 161.5t174 60.5q42 0 76 -17t52 -43l9 48h144l-4 -24q58 36 134 36q58 0 101 -26t66 -72t23 -104q0 -22 -5 -54l-7 -40h-352q4 -47 28.5 -75.5t66.5 -28.5q38 0 64 15.5t46 47.5l117 -51
q-38 -67 -94.5 -99.5t-145.5 -32.5q-72 0 -117 62l-9 -50h-144l9 47q-50 -59 -134 -59q-61 0 -104.5 30.5zM766 312q-3 34 -28.5 56.5t-62.5 22.5q-44 0 -73.5 -21t-45.5 -58h210zM361 153q31 29 40 79q3 18 3 36q0 47 -23.5 75.5t-69.5 28.5q-49 0 -80.5 -30t-40.5 -78
q-3 -16 -3 -32q0 -47 25 -77.5t69 -30.5q49 0 80 29zM582 566h-116l114 166h164z" />
    <glyph glyph-name="uni0218" unicode="&#x218;" horiz-adv-x="629" 
d="M112.5 36q-70.5 50 -92.5 128l140 68q36 -100 140 -100q50 0 85.5 23t35.5 57q0 32 -31 51.5t-102 36.5q-86 21 -134 72t-48 125q0 100 73.5 157.5t200.5 57.5q88 0 149.5 -39t93.5 -109l-138 -77q-17 38 -48.5 59.5t-74.5 21.5q-47 0 -73.5 -15t-26.5 -41q0 -29 27 -47
t103 -37q91 -23 141 -69.5t50 -126.5q0 -73 -35 -128.5t-101 -86.5t-156 -31q-108 0 -178.5 50zM198 -268l-19 18l22 25q18 22 26 42q-17 3 -29 18.5t-12 34.5q0 27 17.5 45.5t49.5 18.5q24 0 39.5 -17t15.5 -42q0 -35 -19.5 -63.5t-54.5 -53.5z" />
    <glyph glyph-name="uni0219" unicode="&#x219;" horiz-adv-x="502" 
d="M90 20q-53 34 -76 90l121 63q13 -28 38.5 -45t59.5 -17q32 0 52 10.5t20 30.5q0 19 -20.5 30t-74.5 24q-62 15 -97 54t-35 88q0 79 56 118.5t152 39.5q138 0 192 -109l-117 -60q-12 26 -36 41.5t-54 15.5q-27 0 -45 -10t-18 -26t19 -28t69 -22q70 -13 110.5 -46t40.5 -95
q0 -82 -61 -131.5t-169 -49.5q-74 0 -127 34zM138 -268l-19 18l22 25q18 22 26 42q-17 3 -29 18.5t-12 34.5q0 27 17.5 45.5t49.5 18.5q24 0 39.5 -17t15.5 -42q0 -35 -19.5 -63.5t-54.5 -53.5z" />
    <glyph glyph-name="uni021A" unicode="&#x21a;" horiz-adv-x="587" 
d="M646 700l-26 -146h-193l-98 -554h-159l98 554h-193l26 146h545zM175 -268l-19 18l22 25q18 22 26 42q-17 3 -29 18.5t-12 34.5q0 27 17.5 45.5t49.5 18.5q24 0 39.5 -17t15.5 -42q0 -35 -19.5 -63.5t-54.5 -53.5z" />
    <glyph glyph-name="uni021B" unicode="&#x21b;" horiz-adv-x="435" 
d="M288 375l-34 -191q-1 -4 -1 -13q0 -22 14 -36t40 -14q37 0 78 20l-25 -139q-51 -14 -104 -14q-70 0 -110.5 43.5t-40.5 111.5q0 12 4 40l34 192h-99l22 121h99l18 103l154 58l-28 -161h139l-22 -121h-138zM174 -268l-19 18l22 25q18 22 26 42q-17 3 -29 18.5t-12 34.5
q0 27 17.5 45.5t49.5 18.5q24 0 39.5 -17t15.5 -42q0 -35 -19.5 -63.5t-54.5 -53.5z" />
    <glyph glyph-name="uni0237" unicode="&#x237;" horiz-adv-x="254" 
d="M-117 -201l24 133q21 -12 46 -12q20 0 34.5 14t19.5 43l92 519h144l-93 -521q-17 -97 -60.5 -142t-129.5 -45q-49 0 -77 11z" />
    <glyph glyph-name="circumflex" unicode="&#x2c6;" horiz-adv-x="368" 
d="M178 566h-104l142 166h106l84 -166h-94l-56 75z" />
    <glyph glyph-name="caron" unicode="&#x2c7;" horiz-adv-x="368" 
d="M293 566h-106l-84 166h94l56 -75l78 75h104z" />
    <glyph glyph-name="uni02C9" unicode="&#x2c9;" horiz-adv-x="297" 
d="M337 603h-253l18 101h253z" />
    <glyph glyph-name="breve" unicode="&#x2d8;" horiz-adv-x="260" 
d="M114 594q-29 28 -29 74q0 7 2 23h84q-1 -4 -1 -12q0 -17 8.5 -26.5t22.5 -9.5q18 0 29.5 13t15.5 35h84q-20 -125 -140 -125q-47 0 -76 28z" />
    <glyph glyph-name="dotaccent" unicode="&#x2d9;" horiz-adv-x="243" 
d="M126.5 579q-26.5 27 -26.5 64q0 38 26.5 64.5t64.5 26.5q37 0 64 -26.5t27 -64.5q0 -37 -27 -64t-64 -27q-38 0 -64.5 27z" />
    <glyph glyph-name="ring" unicode="&#x2da;" horiz-adv-x="235" 
d="M111 581.5q-26 25.5 -26 65.5q0 54 32 87.5t89 33.5q39 0 64.5 -25.5t25.5 -65.5q0 -54 -32 -87.5t-88 -33.5q-39 0 -65 25.5zM214.5 635.5q11.5 11.5 11.5 31.5q0 13 -8.5 23t-21.5 10q-18 0 -29.5 -11.5t-11.5 -31.5q0 -13 8.5 -23t22.5 -10q17 0 28.5 11.5z" />
    <glyph glyph-name="ogonek" unicode="&#x2db;" horiz-adv-x="184" 
d="M-29.5 -185q-26.5 24 -26.5 64q0 87 95 133l82 -12q-36 -18 -59.5 -43.5t-23.5 -51.5q0 -16 9 -24t23 -8q19 0 36 8l-14 -79q-24 -11 -57 -11q-38 0 -64.5 24z" />
    <glyph glyph-name="tilde" unicode="&#x2dc;" horiz-adv-x="353" 
d="M75 622q32 89 117 89q19 0 33.5 -4.5t34.5 -14.5q11 -5 23 -9.5t23 -4.5q15 0 24.5 7.5t15.5 24.5l73 -31q-16 -45 -45 -66.5t-72 -21.5q-19 0 -33 5t-33 14q-12 5 -24 9.5t-23 4.5q-15 0 -25 -8t-16 -25z" />
    <glyph glyph-name="hungarumlaut" unicode="&#x2dd;" horiz-adv-x="375" 
d="M165 566h-99l79 166h140zM371 566h-99l78 166h140z" />
    <glyph glyph-name="gravecomb" unicode="&#x300;" horiz-adv-x="0" 
d="M44 566h-108l-110 166h156z" />
    <glyph glyph-name="acutecomb" unicode="&#x301;" horiz-adv-x="0" 
d="M-87 566h-116l114 166h164z" />
    <glyph glyph-name="uni0302" unicode="&#x302;" horiz-adv-x="0" 
d="M-190 566h-104l142 166h106l84 -166h-94l-56 75z" />
    <glyph glyph-name="tildecomb" unicode="&#x303;" horiz-adv-x="0" 
d="M-278 622q32 89 117 89q19 0 33.5 -4.5t34.5 -14.5q11 -5 23 -9.5t23 -4.5q15 0 24.5 7.5t15.5 24.5l73 -31q-16 -45 -45 -66.5t-72 -21.5q-19 0 -33 5t-33 14q-12 5 -24 9.5t-23 4.5q-15 0 -25 -8t-16 -25z" />
    <glyph glyph-name="uni0304" unicode="&#x304;" horiz-adv-x="0" 
d="M40 603h-253l18 101h253z" />
    <glyph glyph-name="uni0306" unicode="&#x306;" horiz-adv-x="0" 
d="M-147 594q-29 28 -29 74q0 7 2 23h84q-1 -4 -1 -12q0 -17 8.5 -26.5t22.5 -9.5q18 0 29.5 13t15.5 35h84q-20 -125 -140 -125q-47 0 -76 28z" />
    <glyph glyph-name="uni0307" unicode="&#x307;" horiz-adv-x="0" 
d="M-116.5 579q-26.5 27 -26.5 64q0 38 26.5 64.5t64.5 26.5q37 0 64 -26.5t27 -64.5q0 -37 -27 -64t-64 -27q-38 0 -64.5 27z" />
    <glyph glyph-name="uni0308" unicode="&#x308;" horiz-adv-x="0" 
d="M-320 585q-24 24 -24 57q0 34 24 58t58 24t58 -24t24 -58q0 -33 -24 -57t-58 -24t-58 24zM-79 585q-24 24 -24 57q0 34 24 58t57 24q34 0 58 -24t24 -58q0 -33 -24 -57t-58 -24q-33 0 -57 24z" />
    <glyph glyph-name="uni030A" unicode="&#x30a;" horiz-adv-x="0" 
d="M-124 581.5q-26 25.5 -26 65.5q0 54 32 87.5t89 33.5q39 0 64.5 -25.5t25.5 -65.5q0 -54 -32 -87.5t-88 -33.5q-39 0 -65 25.5zM-20.5 635.5q11.5 11.5 11.5 31.5q0 13 -8.5 23t-21.5 10q-18 0 -29.5 -11.5t-11.5 -31.5q0 -13 8.5 -23t22.5 -10q17 0 28.5 11.5z" />
    <glyph glyph-name="uni030B" unicode="&#x30b;" horiz-adv-x="0" 
d="M-250 566h-99l79 166h140zM-44 566h-99l78 166h140z" />
    <glyph glyph-name="uni030C" unicode="&#x30c;" horiz-adv-x="0" 
d="M-75 566h-106l-84 166h94l56 -75l78 75h104z" />
    <glyph glyph-name="uni0312" unicode="&#x312;" horiz-adv-x="0" 
d="M-91 577.5q-16 16.5 -16 44.5q0 30 18 57.5t48 50.5l43 33l18 -19l-24 -27q-18 -22 -23 -39q16 -3 28.5 -17.5t12.5 -32.5q0 -28 -17.5 -47.5t-47.5 -19.5q-24 0 -40 16.5z" />
    <glyph glyph-name="uni0326" unicode="&#x326;" horiz-adv-x="0" 
d="M-216 -268l-19 18l22 25q18 22 26 42q-17 3 -29 18.5t-12 34.5q0 27 17.5 45.5t49.5 18.5q24 0 39.5 -17t15.5 -42q0 -35 -19.5 -63.5t-54.5 -53.5z" />
    <glyph glyph-name="uni0327" unicode="&#x327;" horiz-adv-x="0" 
d="M-88 -59.5q20 -23.5 20 -56.5q0 -48 -32.5 -74t-88.5 -26q-49 0 -81 16l28 64q23 -14 54 -14q42 0 42 34q0 11 -8 18.5t-21 7.5q-19 0 -33 -12l-36 24l32 90h74l-21 -50q14 2 19 2q32 0 52 -23.5z" />
    <glyph glyph-name="uni0328" unicode="&#x328;" horiz-adv-x="0" 
d="M-213.5 -185q-26.5 24 -26.5 64q0 87 95 133l82 -12q-36 -18 -59.5 -43.5t-23.5 -51.5q0 -16 9 -24t23 -8q19 0 36 8l-14 -79q-24 -11 -57 -11q-38 0 -64.5 24z" />
    <glyph glyph-name="pi" unicode="&#x3c0;" horiz-adv-x="743" 
d="M614 375l-34 -198q-1 -4 -1 -13q0 -20 11.5 -31.5t32.5 -11.5q18 0 33.5 3.5t35.5 12.5l-23 -135q-40 -14 -95 -14q-63 0 -102 38.5t-39 109.5q0 25 4 48l33 191h-162l-66 -375h-144l66 375h-120l22 121h690l-22 -121h-120z" />
    <glyph glyph-name="uni0400" unicode="&#x400;" horiz-adv-x="614" 
d="M528 0h-513l124 700h513l-26 -146h-353l-22 -123h287l-25 -142h-287l-25 -143h353zM464 770h-108l-110 166h156z" />
    <glyph glyph-name="uni0401" unicode="&#x401;" horiz-adv-x="614" 
d="M528 0h-513l124 700h513l-26 -146h-353l-22 -123h287l-25 -142h-287l-25 -143h353zM244 789q-24 24 -24 57q0 34 24 58t58 24t58 -24t24 -58q0 -33 -24 -57t-58 -24t-58 24zM485 789q-24 24 -24 57q0 34 24 58t57 24q34 0 58 -24t24 -58q0 -33 -24 -57t-58 -24
q-33 0 -57 24z" />
    <glyph glyph-name="uni0402" unicode="&#x402;" horiz-adv-x="761" 
d="M417.5 -9.5q-27.5 3.5 -45.5 9.5l24 132q37 -13 71 -13q55 0 84.5 29.5t29.5 80.5q0 40 -24.5 63.5t-66.5 23.5q-31 0 -60 -9t-50 -23l-51 -284h-159l98 554h-193l26 146h595l-26 -146h-243l-24 -140q45 34 133 34q54 0 98 -26t69.5 -75t25.5 -115q0 -114 -69 -179.5
t-191 -65.5q-24 0 -51.5 3.5z" />
    <glyph glyph-name="uni0403" unicode="&#x403;" horiz-adv-x="578" 
d="M175 0h-160l124 700h489l-26 -146h-329zM454 770h-116l114 166h164z" />
    <glyph glyph-name="uni0404" unicode="&#x404;" horiz-adv-x="714" 
d="M476.5 159.5q39.5 24.5 72.5 72.5l115 -88q-49 -82 -120 -120t-185 -38q-92 0 -160 41t-104.5 113.5t-36.5 162.5q0 38 8 84q17 95 68 169t134 116t190 42q193 0 272 -164l-130 -80q-26 47 -60.5 71t-88.5 24q-76 0 -129.5 -39t-78.5 -105h268l-26 -142h-258
q10 -64 50.5 -104t102.5 -40q57 0 96.5 24.5z" />
    <glyph glyph-name="uni0405" unicode="&#x405;" horiz-adv-x="629" 
d="M112.5 36q-70.5 50 -92.5 128l140 68q36 -100 140 -100q50 0 85.5 23t35.5 57q0 32 -31 51.5t-102 36.5q-86 21 -134 72t-48 125q0 100 73.5 157.5t200.5 57.5q88 0 149.5 -39t93.5 -109l-138 -77q-17 38 -48.5 59.5t-74.5 21.5q-47 0 -73.5 -15t-26.5 -41q0 -29 27 -47
t103 -37q91 -23 141 -69.5t50 -126.5q0 -73 -35 -128.5t-101 -86.5t-156 -31q-108 0 -178.5 50z" />
    <glyph glyph-name="uni0406" unicode="&#x406;" horiz-adv-x="278" 
d="M175 0h-160l124 700h160z" />
    <glyph glyph-name="uni0407" unicode="&#x407;" horiz-adv-x="278" 
d="M175 0h-160l124 700h160zM67 789q-24 24 -24 57q0 34 24 58t58 24t58 -24t24 -58q0 -33 -24 -57t-58 -24t-58 24zM308 789q-24 24 -24 57q0 34 24 58t57 24q34 0 58 -24t24 -58q0 -33 -24 -57t-58 -24q-33 0 -57 24z" />
    <glyph glyph-name="uni0408" unicode="&#x408;" horiz-adv-x="584" 
d="M93 33q-61 47 -82 123l149 62q12 -37 37 -59.5t59 -22.5q94 0 116 124l78 440h159l-76 -429q-18 -99 -52 -161t-93 -93t-150 -31q-84 0 -145 47z" />
    <glyph glyph-name="uni0409" unicode="&#x409;" horiz-adv-x="1059" 
d="M15.5 -6q-24.5 7 -40.5 18l24 136q12 -12 28.5 -19t30.5 -7q35 0 56 32t41 112l106 434h477l-49 -275h109q105 0 159.5 -49t54.5 -140q0 -111 -75 -173.5t-204 -62.5h-279l97 550h-177l-70 -292q-25 -103 -55 -161.5t-73.5 -84t-108.5 -25.5q-27 0 -51.5 7zM753 136
q46 0 72 22t26 60q0 35 -18.5 52.5t-52.5 17.5h-115l-27 -152h115z" />
    <glyph glyph-name="uni040A" unicode="&#x40a;" horiz-adv-x="1085" 
d="M15 0l124 700h160l-45 -256h305l45 256h160l-45 -256h75q120 0 182 -54t62 -154q0 -111 -75 -173.5t-204 -62.5h-279l52 294h-305l-52 -294h-160zM779 136q46 0 72 22t26 60q0 34 -20 55t-57 21h-108l-28 -158h115z" />
    <glyph glyph-name="uni040B" unicode="&#x40b;" horiz-adv-x="765" 
d="M170 0l98 554h-193l26 146h595l-26 -146h-243l-25 -144q26 17 62 27.5t75 10.5q84 0 128.5 -41t44.5 -118q0 -22 -5 -55l-41 -234h-144l40 225q2 16 2 22q0 32 -19.5 50.5t-55.5 18.5q-62 0 -110 -32l-50 -284h-159z" />
    <glyph glyph-name="uni040C" unicode="&#x40c;" horiz-adv-x="625" 
d="M395 346l164 -346h-172l-132 280h-30l-50 -280h-160l124 700h160l-51 -290h21l226 290h188zM456 770h-116l114 166h164z" />
    <glyph glyph-name="uni040D" unicode="&#x40d;" horiz-adv-x="711" 
d="M161 0h-146l124 700h152l-75 -430l354 430h162l-124 -700h-152l79 452zM504 770h-108l-110 166h156z" />
    <glyph glyph-name="uni040E" unicode="&#x40e;" horiz-adv-x="659" 
d="M519 700h180l-349 -563q-36 -58 -70 -90.5t-74 -46.5t-96 -14q-57 0 -101 18l26 147q13 -13 35.5 -21t44.5 -8q34 0 56.5 18t53.5 70l18 30l-133 460h170l72 -278zM341 801.5q-29 31.5 -29 77.5q0 17 2 25h84q-1 -5 -1 -16q0 -19 9 -30t26 -11q22 0 35.5 15.5t18.5 41.5
h84q-13 -68 -47.5 -101t-104.5 -33q-48 0 -77 31.5z" />
    <glyph glyph-name="uni040F" unicode="&#x40f;" horiz-adv-x="704" 
d="M357 -142h-146l25 142h-220l123 700h160l-97 -550h265l97 550h160l-123 -700h-219z" />
    <glyph glyph-name="uni0410" unicode="&#x410;" horiz-adv-x="740" 
d="M681 0h-171l-23 125h-267l-66 -125h-183l392 700h172zM418 497l-125 -236h169z" />
    <glyph glyph-name="uni0411" unicode="&#x411;" horiz-adv-x="635" 
d="M15 0l124 700h489l-26 -146h-329l-25 -141h124q97 0 155.5 -49t58.5 -139q0 -109 -69.5 -167t-192.5 -58h-309zM336 136q43 0 65.5 22t22.5 57q0 29 -18.5 45t-48.5 16h-133l-25 -140h137z" />
    <glyph glyph-name="uni0412" unicode="&#x412;" horiz-adv-x="650" 
d="M15 0l124 700h302q89 0 141.5 -43.5t52.5 -115.5q0 -62 -33 -104t-87 -59q40 -16 64 -53t24 -89q0 -73 -33.5 -126t-94 -81.5t-140.5 -28.5h-320zM274 560l-22 -127h152q40 0 62 18.5t22 51.5q0 27 -17 42t-47 15h-150zM229 303l-28 -157h148q48 0 74.5 23t26.5 66
q0 33 -19.5 50.5t-55.5 17.5h-146z" />
    <glyph glyph-name="uni0413" unicode="&#x413;" horiz-adv-x="578" 
d="M175 0h-160l124 700h489l-26 -146h-329z" />
    <glyph glyph-name="uni0414" unicode="&#x414;" horiz-adv-x="773" 
d="M-40 -142l51 292h75q28 50 48 100t38 126l77 324h485l-97 -550h90l-51 -292h-146l25 142h-424l-25 -142h-146zM477 150l71 400h-185l-43 -182q-18 -78 -34 -124.5t-39 -93.5h230z" />
    <glyph glyph-name="uni0415" unicode="&#x415;" horiz-adv-x="614" 
d="M528 0h-513l124 700h513l-26 -146h-353l-22 -123h287l-25 -142h-287l-25 -143h353z" />
    <glyph glyph-name="uni0416" unicode="&#x416;" horiz-adv-x="972" 
d="M161 0h-183l288 361l-164 339h179l132 -290h22l51 290h160l-51 -290h20l228 290h187l-290 -360l166 -340h-171l-137 280h-26l-50 -280h-160l50 280h-25z" />
    <glyph glyph-name="uni0417" unicode="&#x417;" horiz-adv-x="567" 
d="M79.5 44q-58.5 56 -56.5 151l143 28q-2 -46 22 -74t70 -28q53 0 84 30t31 77q0 40 -23 62t-62 22h-55l19 109h56q48 0 77.5 27t29.5 69q0 31 -22 49.5t-58 18.5q-79 0 -105 -77l-129 28q51 178 256 178q100 0 152.5 -47t52.5 -129q0 -61 -27.5 -103t-81.5 -62
q32 -19 51.5 -52.5t19.5 -82.5q0 -118 -77 -184t-208 -66q-101 0 -159.5 56z" />
    <glyph glyph-name="uni0418" unicode="&#x418;" horiz-adv-x="711" 
d="M161 0h-146l124 700h152l-75 -430l354 430h162l-124 -700h-152l79 452z" />
    <glyph glyph-name="uni0419" unicode="&#x419;" horiz-adv-x="711" 
d="M161 0h-146l124 700h152l-75 -430l354 430h162l-124 -700h-152l79 452zM371 801.5q-29 31.5 -29 77.5q0 17 2 25h84q-1 -5 -1 -16q0 -19 9 -30t26 -11q22 0 35.5 15.5t18.5 41.5h84q-13 -68 -47.5 -101t-104.5 -33q-48 0 -77 31.5z" />
    <glyph glyph-name="uni041A" unicode="&#x41a;" horiz-adv-x="625" 
d="M395 346l164 -346h-172l-132 280h-30l-50 -280h-160l124 700h160l-51 -290h21l226 290h188z" />
    <glyph glyph-name="uni041B" unicode="&#x41b;" horiz-adv-x="717" 
d="M15.5 -6q-24.5 7 -40.5 18l24 136q12 -12 28.5 -19t30.5 -7q35 0 56 32t41 112l106 434h477l-124 -700h-160l97 550h-177l-70 -292q-25 -103 -55 -161.5t-73.5 -84t-108.5 -25.5q-27 0 -51.5 7z" />
    <glyph glyph-name="uni041C" unicode="&#x41c;" horiz-adv-x="808" 
d="M167 0h-152l124 700h167l103 -393l241 393h179l-124 -700h-152l71 402l-162 -262h-147l-77 262z" />
    <glyph glyph-name="uni041D" unicode="&#x41d;" horiz-adv-x="743" 
d="M175 0h-160l124 700h160l-45 -256h305l45 256h160l-124 -700h-160l52 294h-305z" />
    <glyph glyph-name="uni041E" unicode="&#x41e;" horiz-adv-x="785" 
d="M202.5 26.5q-69.5 40.5 -107 112.5t-37.5 163q0 42 7 81q17 98 67.5 172.5t133 116.5t191.5 42q92 0 161.5 -40.5t107 -112.5t37.5 -163q0 -42 -7 -81q-17 -97 -67 -172t-132.5 -117t-191.5 -42q-93 0 -162.5 40.5zM521.5 189.5q56.5 54.5 71.5 140.5q5 24 5 56
q0 79 -40.5 129t-114.5 50q-85 0 -142 -52.5t-73 -137.5q-6 -30 -6 -60q0 -79 41 -129.5t116 -50.5q86 0 142.5 54.5z" />
    <glyph glyph-name="uni041F" unicode="&#x41f;" horiz-adv-x="703" 
d="M175 0h-160l124 700h585l-124 -700h-160l97 550h-265z" />
    <glyph glyph-name="uni0420" unicode="&#x420;" horiz-adv-x="613" 
d="M15 0l124 700h275q93 0 147.5 -48.5t54.5 -136.5q0 -107 -71 -167.5t-194 -60.5h-125l-51 -287h-160zM367 424q44 0 66 21t22 60q0 29 -17 44t-48 15h-115l-25 -140h117z" />
    <glyph glyph-name="uni0421" unicode="&#x421;" horiz-adv-x="714" 
d="M199 27q-68 41 -104.5 113.5t-36.5 162.5q0 38 8 84q17 95 68 169t134 116t190 42q193 0 272 -164l-130 -80q-26 47 -60.5 71t-88.5 24q-91 0 -149 -55t-73 -141q-5 -28 -5 -51q0 -78 42.5 -130.5t113.5 -52.5q57 0 96.5 24.5t72.5 72.5l115 -88q-49 -82 -120 -120
t-185 -38q-92 0 -160 41z" />
    <glyph glyph-name="uni0422" unicode="&#x422;" horiz-adv-x="587" 
d="M646 700l-26 -146h-193l-98 -554h-159l98 554h-193l26 146h545z" />
    <glyph glyph-name="uni0423" unicode="&#x423;" horiz-adv-x="659" 
d="M519 700h180l-349 -563q-36 -58 -70 -90.5t-74 -46.5t-96 -14q-57 0 -101 18l26 147q13 -13 35.5 -21t44.5 -8q34 0 56.5 18t53.5 70l18 30l-133 460h170l72 -278z" />
    <glyph glyph-name="uni0424" unicode="&#x424;" horiz-adv-x="793" 
d="M544 629q107 -19 167 -85t60 -161q0 -23 -5 -53q-19 -105 -99.5 -175t-220.5 -87l-15 -82h-160l15 85q-107 19 -167.5 85.5t-60.5 161.5q0 22 5 52q19 105 100.5 175t221.5 87l14 82h160zM221 321q0 -38 22.5 -64t68.5 -36l46 258q-115 -24 -134 -129q-3 -15 -3 -29z
M608 379q0 78 -90 100l-46 -258q114 25 133 129q3 15 3 29z" />
    <glyph glyph-name="uni0425" unicode="&#x425;" horiz-adv-x="681" 
d="M180 0h-204l288 370l-152 330h191l79 -200l156 200h199l-280 -344l160 -356h-188l-94 215z" />
    <glyph glyph-name="uni0426" unicode="&#x426;" horiz-adv-x="763" 
d="M666 -142h-146l25 142h-529l123 700h160l-97 -550h265l97 550h160l-97 -550h90z" />
    <glyph glyph-name="uni0427" unicode="&#x427;" horiz-adv-x="655" 
d="M442 280q-57 -50 -156 -50q-89 0 -142.5 51.5t-53.5 139.5q0 22 5 54l40 225h160l-38 -215q-2 -9 -2 -25q0 -38 24.5 -59t69.5 -21q34 0 59.5 8.5t57.5 27.5l50 284h160l-124 -700h-160z" />
    <glyph glyph-name="uni0428" unicode="&#x428;" horiz-adv-x="968" 
d="M865 0h-850l124 700h160l-97 -550h185l97 550h160l-97 -550h185l97 550h160z" />
    <glyph glyph-name="uni0429" unicode="&#x429;" horiz-adv-x="1028" 
d="M931 -142h-146l25 142h-794l123 700h160l-97 -550h185l97 550h160l-97 -550h185l97 550h160l-97 -550h90z" />
    <glyph glyph-name="uni042A" unicode="&#x42a;" horiz-adv-x="739" 
d="M134 0l100 563h-157l24 137h317l-49 -275h109q105 0 159.5 -47.5t54.5 -141.5q0 -111 -75 -173.5t-204 -62.5h-279zM433 136q46 0 72 22t26 60q0 35 -18.5 52.5t-52.5 17.5h-115l-27 -152h115z" />
    <glyph glyph-name="uni042B" unicode="&#x42b;" horiz-adv-x="866" 
d="M15 0l124 700h160l-49 -275h109q105 0 159.5 -49t54.5 -140q0 -111 -75 -173.5t-204 -62.5h-279zM314 136q46 0 72 22t26 60q0 35 -18.5 52.5t-52.5 17.5h-115l-27 -152h115zM763 0h-160l124 700h160z" />
    <glyph glyph-name="uni042C" unicode="&#x42c;" horiz-adv-x="620" 
d="M15 0l124 700h160l-49 -275h109q105 0 159.5 -49t54.5 -140q0 -111 -75 -173.5t-204 -62.5h-279zM314 136q46 0 72 22t26 60q0 35 -18.5 52.5t-52.5 17.5h-115l-27 -152h115z" />
    <glyph glyph-name="uni042D" unicode="&#x42d;" horiz-adv-x="708" 
d="M554.5 674.5q64.5 -39.5 99 -109t34.5 -157.5q0 -36 -6 -75q-27 -172 -124 -259.5t-262 -87.5q-104 0 -175.5 41t-106.5 117l138 87q22 -46 56.5 -71t90.5 -25q71 0 123 38t79 106h-271l26 142h269q-6 66 -45 105t-105 39q-58 0 -101.5 -24.5t-76.5 -72.5l-110 87
q107 159 315 159q88 0 152.5 -39.5z" />
    <glyph glyph-name="uni042E" unicode="&#x42e;" horiz-adv-x="1019" 
d="M856.5 673.5q67.5 -40.5 104 -112.5t36.5 -163q0 -42 -7 -81q-16 -97 -65.5 -172t-130 -117t-187.5 -42q-89 0 -156.5 39.5t-105 109.5t-38.5 159h-80l-52 -294h-160l124 700h160l-45 -256h75q37 124 132.5 197t237.5 73q90 0 157.5 -40.5zM832 387q0 78 -38.5 128
t-108.5 50q-82 0 -136.5 -52.5t-70.5 -137.5q-6 -31 -6 -61q0 -79 39 -129t110 -50q83 0 137.5 54.5t68.5 140.5q5 32 5 57z" />
    <glyph glyph-name="uni042F" unicode="&#x42f;" horiz-adv-x="628" 
d="M66 227q17 59 46 88.5t76 36.5q-40 17 -66 54t-26 87q0 97 65.5 152t178.5 55h309l-124 -700h-160l51 287h-110q-33 0 -51.5 -15t-27.5 -47l-66 -225h-162zM440 423l25 141h-124q-41 0 -64.5 -21.5t-23.5 -57.5q0 -28 20 -45t50 -17h117z" />
    <glyph glyph-name="uni0430" unicode="&#x430;" horiz-adv-x="595" 
d="M122.5 18.5q-43.5 30.5 -65 82.5t-21.5 116q0 35 6 69q18 101 87 161.5t174 60.5q42 0 76 -17t52 -43l9 48h144l-88 -496h-144l9 47q-50 -59 -134 -59q-61 0 -104.5 30.5zM361 153q31 29 40 79q3 18 3 36q0 47 -23.5 75.5t-69.5 28.5q-49 0 -80.5 -30t-40.5 -78
q-3 -16 -3 -32q0 -47 25 -77.5t69 -30.5q49 0 80 29z" />
    <glyph glyph-name="uni0431" unicode="&#x431;" horiz-adv-x="605" 
d="M108.5 62q-64.5 74 -64.5 196q0 45 9 93q25 138 101.5 219.5t222.5 95.5q89 9 132.5 17t77.5 24l-22 -128q-29 -16 -65.5 -23.5t-109.5 -13.5q-82 -7 -123.5 -44.5t-55.5 -114.5q22 39 63 57t87 18q62 0 108 -28t70.5 -77t24.5 -110q0 -32 -5 -56q-16 -91 -84.5 -145
t-177.5 -54q-124 0 -188.5 74zM382 154.5q33 30.5 33 77.5q0 42 -27 70t-69 28q-48 0 -80 -24t-39 -63q-2 -16 -2 -25q0 -42 26.5 -68t72.5 -26q52 0 85 30.5z" />
    <glyph glyph-name="uni0432" unicode="&#x432;" horiz-adv-x="513" 
d="M11 0l88 496h236q69 0 110 -31t41 -83q0 -43 -24.5 -72t-65.5 -41q31 -11 50 -38t19 -65q0 -78 -56 -122t-149 -44h-249zM309 312q29 0 45.5 10.5t16.5 29.5q0 17 -13 26.5t-35 9.5h-116l-15 -76h117zM270 114q35 0 54.5 14t19.5 40q0 21 -15 32t-42 11h-111l-20 -97h114
z" />
    <glyph glyph-name="uni0433" unicode="&#x433;" horiz-adv-x="470" 
d="M155 0h-144l88 496h374l-22 -122h-230z" />
    <glyph glyph-name="uni0434" unicode="&#x434;" horiz-adv-x="625" 
d="M-45 -122l44 252h66q18 36 33 76t30 100l48 190h407l-64 -365h65l-44 -253h-134l21 122h-317l-21 -122h-134zM375 130l42 236h-135l-18 -73q-15 -61 -28.5 -97.5t-29.5 -65.5h169z" />
    <glyph glyph-name="uni0435" unicode="&#x435;" horiz-adv-x="571" 
d="M441.5 481.5q48.5 -26.5 74 -73.5t25.5 -107q0 -26 -4 -49l-7 -40h-352q4 -47 28.5 -75.5t66.5 -28.5q38 0 64 15.5t46 47.5l117 -51q-38 -67 -94.5 -99.5t-145.5 -32.5q-68 0 -119 29.5t-78.5 82t-27.5 118.5q0 34 5 59q19 105 94.5 168t193.5 63q65 0 113.5 -26.5z
M239.5 370q-29.5 -21 -45.5 -58h210q-3 34 -28.5 56.5t-62.5 22.5q-44 0 -73.5 -21z" />
    <glyph glyph-name="uni0436" unicode="&#x436;" horiz-adv-x="780" 
d="M148 0h-166l194 258l-106 238h157l82 -204h17l36 204h144l-36 -204h17l147 204h164l-196 -253l108 -243h-150l-89 204h-17l-36 -204h-144l36 204h-17z" />
    <glyph glyph-name="uni0437" unicode="&#x437;" horiz-adv-x="450" 
d="M62.5 30q-48.5 43 -54.5 111l124 23q12 -64 67 -64q33 0 50 15.5t17 43.5q0 23 -16.5 37t-44.5 14h-30l16 96h34q30 0 48 12t18 36q0 18 -13 29.5t-38 11.5q-27 0 -43 -13t-25 -39l-118 29q18 66 67.5 100t137.5 34q75 0 118.5 -36.5t43.5 -90.5q0 -80 -72 -118
q22 -12 37.5 -40t15.5 -64q0 -83 -53 -126.5t-155 -43.5q-83 0 -131.5 43z" />
    <glyph glyph-name="uni0438" unicode="&#x438;" horiz-adv-x="574" 
d="M155 0h-144l88 496h144l-50 -284l226 284h144l-88 -496h-144l50 284z" />
    <glyph glyph-name="uni0439" unicode="&#x439;" horiz-adv-x="574" 
d="M155 0h-144l88 496h144l-50 -284l226 284h144l-88 -496h-144l50 284zM266 597.5q-29 31.5 -29 77.5q0 17 2 25h84q-1 -5 -1 -16q0 -19 9 -30t26 -11q22 0 35.5 15.5t18.5 41.5h84q-13 -68 -47.5 -101t-104.5 -33q-48 0 -77 31.5z" />
    <glyph glyph-name="uni043A" unicode="&#x43a;" horiz-adv-x="525" 
d="M155 0h-144l88 496h144l-36 -204h16l150 204h170l-195 -250l107 -246h-155l-85 204h-24z" />
    <glyph glyph-name="uni043B" unicode="&#x43b;" horiz-adv-x="587" 
d="M-5 -9q-21 3 -35 8l24 135q20 -13 41 -13q49 0 66 63l78 312h407l-88 -496h-144l65 366h-134l-47 -197q-16 -68 -39 -107t-60 -56.5t-95 -17.5q-18 0 -39 3z" />
    <glyph glyph-name="uni043C" unicode="&#x43c;" horiz-adv-x="657" 
d="M132 0h-131l88 496h144l87 -257l182 257h154l-88 -496h-130l53 272l-122 -173h-127l-57 173z" />
    <glyph glyph-name="uni043D" unicode="&#x43d;" horiz-adv-x="586" 
d="M155 0h-144l88 496h144l-29 -164h188l29 164h144l-88 -496h-144l36 202h-188z" />
    <glyph glyph-name="uni043E" unicode="&#x43e;" horiz-adv-x="588" 
d="M143 17.5q-52 29.5 -80.5 82t-28.5 119.5q0 29 6 59q18 102 92 166t191 64q68 0 120.5 -29.5t81 -82t28.5 -119.5q0 -24 -5 -56q-18 -104 -92.5 -168.5t-192.5 -64.5q-68 0 -120 29.5zM357.5 155q33.5 31 42.5 81q3 17 3 33q0 46 -25 74.5t-71 28.5q-45 0 -78 -31
t-42 -81q-3 -16 -3 -32q0 -46 25 -75t70 -29t78.5 31z" />
    <glyph glyph-name="uni043F" unicode="&#x43f;" horiz-adv-x="586" 
d="M155 0h-144l88 496h476l-88 -496h-144l65 366h-188z" />
    <glyph glyph-name="uni0440" unicode="&#x440;" horiz-adv-x="594" 
d="M-25 -204l124 700h144l-9 -47q21 27 58 43t80 16q59 0 101 -30t64 -81.5t22 -115.5q0 -32 -6 -67q-18 -100 -82.5 -163t-170.5 -63q-49 0 -83 16.5t-54 43.5l-44 -252h-144zM365.5 154.5q30.5 30.5 39.5 80.5q3 15 3 29q0 48 -25.5 78t-67.5 30q-58 0 -91.5 -40.5
t-33.5 -98.5q0 -48 26 -78.5t68 -30.5q51 0 81.5 30.5z" />
    <glyph glyph-name="uni0441" unicode="&#x441;" horiz-adv-x="550" 
d="M139 18q-50 30 -76.5 83t-26.5 120q0 32 6 66q19 104 96 162.5t195 58.5q77 0 129 -36t75 -101l-129 -64q-28 65 -94 65q-49 0 -83 -29.5t-42 -77.5q-3 -16 -3 -33q0 -47 24.5 -77.5t66.5 -30.5q37 0 61 17.5t44 52.5l116 -69q-37 -70 -93.5 -103.5t-147.5 -33.5
q-68 0 -118 30z" />
    <glyph glyph-name="uni0442" unicode="&#x442;" horiz-adv-x="456" 
d="M256 0h-144l65 366h-140l23 130h424l-23 -130h-140z" />
    <glyph glyph-name="uni0443" unicode="&#x443;" horiz-adv-x="562" 
d="M434 496h159l-303 -552q-34 -62 -64 -95t-70 -47t-103 -14q-59 0 -93 16l26 144q19 -12 37.5 -18.5t47.5 -6.5q31 0 54.5 18t43.5 56l5 9l-121 490h152l64 -311z" />
    <glyph glyph-name="uni0444" unicode="&#x444;" horiz-adv-x="627" 
d="M430 497q74 -22 118.5 -79.5t44.5 -138.5q0 -21 -5 -51q-17 -99 -80 -160t-167 -76l-35 -196h-144l36 203q-74 22 -119 79t-45 138q0 22 5 52q17 100 80.5 161t167.5 75l35 196h144zM176 219q0 -29 11.5 -51.5t33.5 -36.5l42 238q-68 -28 -84 -121q-3 -15 -3 -29z
M451 276q0 29 -11.5 51.5t-32.5 36.5l-42 -237q67 29 83 121q3 15 3 28z" />
    <glyph glyph-name="uni0445" unicode="&#x445;" horiz-adv-x="549" 
d="M155 0h-185l223 264l-124 232h171l55 -118l94 118h177l-208 -239l133 -257h-168l-66 137z" />
    <glyph glyph-name="uni0446" unicode="&#x446;" horiz-adv-x="617" 
d="M532 -122h-134l21 122h-407l87 496h144l-64 -366h188l64 366h144l-64 -366h65z" />
    <glyph glyph-name="uni0447" unicode="&#x447;" horiz-adv-x="573" 
d="M367 206q-25 -20 -55.5 -29t-73.5 -9q-74 0 -118.5 45t-44.5 122q0 25 4 48l20 113h144l-18 -101q-2 -9 -2 -26q0 -33 17.5 -51t52.5 -18q55 0 96 32l29 164h144l-88 -496h-144z" />
    <glyph glyph-name="uni0448" unicode="&#x448;" horiz-adv-x="838" 
d="M739 0h-728l88 496h144l-65 -366h148l65 366h144l-65 -366h148l65 366h144z" />
    <glyph glyph-name="uni0449" unicode="&#x449;" horiz-adv-x="869" 
d="M784 -122h-134l21 122h-659l87 496h144l-64 -366h148l64 366h144l-64 -366h148l64 366h144l-64 -366h65z" />
    <glyph glyph-name="uni044A" unicode="&#x44a;" horiz-adv-x="643" 
d="M111 0l66 374h-135l22 122h279l-30 -170h93q84 0 132.5 -38t48.5 -112q0 -176 -209 -176h-267zM372 114q34 0 52.5 14.5t18.5 40.5q0 21 -14.5 32t-41.5 11h-94l-18 -98h97z" />
    <glyph glyph-name="uni044B" unicode="&#x44b;" horiz-adv-x="764" 
d="M11 0l88 496h144l-30 -170h93q84 0 132.5 -38t48.5 -112q0 -176 -209 -176h-267zM272 114q34 0 52.5 14.5t18.5 40.5q0 21 -14.5 32t-41.5 11h-94l-18 -98h97zM665 0h-144l88 496h144z" />
    <glyph glyph-name="uni044C" unicode="&#x44c;" horiz-adv-x="543" 
d="M11 0l88 496h144l-30 -170h93q84 0 132.5 -38t48.5 -112q0 -176 -209 -176h-267zM272 114q34 0 52.5 14.5t18.5 40.5q0 21 -14.5 32t-41.5 11h-94l-18 -98h97z" />
    <glyph glyph-name="uni044D" unicode="&#x44d;" horiz-adv-x="550" 
d="M411 478q50 -30 76.5 -83t26.5 -120q0 -31 -6 -66q-19 -104 -96 -162.5t-195 -58.5q-77 0 -129 36t-75 101l125 60q29 -61 98 -61q39 0 69 19t45 52h-151l18 106h142q-9 33 -31 52t-55 19q-40 0 -65.5 -17t-45.5 -50l-110 66q38 68 95.5 102.5t145.5 34.5q68 0 118 -30z
" />
    <glyph glyph-name="uni044E" unicode="&#x44e;" horiz-adv-x="814" 
d="M669.5 478.5q52.5 -29.5 81 -82t28.5 -119.5q0 -24 -5 -56q-18 -104 -92.5 -168.5t-192.5 -64.5q-65 0 -115.5 27t-80 76t-32.5 111h-70l-36 -202h-144l88 496h144l-29 -164h66q30 80 99 128t170 48q68 0 120.5 -29.5zM629 269q0 46 -25 74.5t-71 28.5q-45 0 -78 -31
t-42 -81q-3 -16 -3 -32q0 -46 25 -75t70 -29t78.5 31t42.5 81q3 17 3 33z" />
    <glyph glyph-name="uni044F" unicode="&#x44f;" horiz-adv-x="525" 
d="M48 152q12 42 34 65.5t61 28.5q-34 9 -54 38.5t-20 65.5q0 69 50 107.5t138 38.5h257l-88 -496h-144l35 196h-74q-45 0 -56 -39l-42 -157h-141zM335 302l15 81h-79q-60 0 -60 -44q0 -17 12 -27t33 -10h79z" />
    <glyph glyph-name="uni0450" unicode="&#x450;" horiz-adv-x="571" 
d="M441.5 481.5q48.5 -26.5 74 -73.5t25.5 -107q0 -26 -4 -49l-7 -40h-352q4 -47 28.5 -75.5t66.5 -28.5q38 0 64 15.5t46 47.5l117 -51q-38 -67 -94.5 -99.5t-145.5 -32.5q-68 0 -119 29.5t-78.5 82t-27.5 118.5q0 34 5 59q19 105 94.5 168t193.5 63q65 0 113.5 -26.5z
M239.5 370q-29.5 -21 -45.5 -58h210q-3 34 -28.5 56.5t-62.5 22.5q-44 0 -73.5 -21zM406 566h-108l-110 166h156z" />
    <glyph glyph-name="uni0451" unicode="&#x451;" horiz-adv-x="571" 
d="M441.5 481.5q48.5 -26.5 74 -73.5t25.5 -107q0 -26 -4 -49l-7 -40h-352q4 -47 28.5 -75.5t66.5 -28.5q38 0 64 15.5t46 47.5l117 -51q-38 -67 -94.5 -99.5t-145.5 -32.5q-68 0 -119 29.5t-78.5 82t-27.5 118.5q0 34 5 59q19 105 94.5 168t193.5 63q65 0 113.5 -26.5z
M239.5 370q-29.5 -21 -45.5 -58h210q-3 34 -28.5 56.5t-62.5 22.5q-44 0 -73.5 -21zM186 585q-24 24 -24 57q0 34 24 58t58 24t58 -24t24 -58q0 -33 -24 -57t-58 -24t-58 24zM427 585q-24 24 -24 57q0 34 24 58t57 24q34 0 58 -24t24 -58q0 -33 -24 -57t-58 -24
q-33 0 -57 24z" />
    <glyph glyph-name="uni0452" unicode="&#x452;" horiz-adv-x="561" 
d="M202 -201l24 133q21 -12 46 -12q20 0 34.5 14t19.5 43l54 304q2 14 2 21q0 33 -20 53.5t-55 20.5q-39 0 -67 -26t-35 -69l-50 -281h-144l100 564h-59l16 92h59l8 44h144l-8 -44h149l-16 -92h-149l-21 -117q21 27 58 44t81 17q74 0 116 -43.5t42 -115.5q0 -25 -4 -46
l-58 -328q-17 -97 -60.5 -142t-129.5 -45q-49 0 -77 11z" />
    <glyph glyph-name="uni0453" unicode="&#x453;" horiz-adv-x="470" 
d="M155 0h-144l88 496h374l-22 -122h-230zM357 566h-116l114 166h164z" />
    <glyph glyph-name="uni0454" unicode="&#x454;" horiz-adv-x="550" 
d="M342.5 141q25.5 17 45.5 50l110 -66q-37 -70 -93.5 -103.5t-147.5 -33.5q-68 0 -118 30t-76.5 83t-26.5 120q0 32 6 66q19 104 96 162.5t195 58.5q77 0 129 -36t75 -101l-125 -60q-29 61 -98 61q-39 0 -69 -19t-45 -52h151l-18 -106h-142q9 -33 31 -52t55 -19
q40 0 65.5 17z" />
    <glyph glyph-name="uni0455" unicode="&#x455;" horiz-adv-x="502" 
d="M90 20q-53 34 -76 90l121 63q13 -28 38.5 -45t59.5 -17q32 0 52 10.5t20 30.5q0 19 -20.5 30t-74.5 24q-62 15 -97 54t-35 88q0 79 56 118.5t152 39.5q138 0 192 -109l-117 -60q-12 26 -36 41.5t-54 15.5q-27 0 -45 -10t-18 -26t19 -28t69 -22q70 -13 110.5 -46t40.5 -95
q0 -82 -61 -131.5t-169 -49.5q-74 0 -127 34z" />
    <glyph glyph-name="uni0456" unicode="&#x456;" horiz-adv-x="254" 
d="M132 579q-27 27 -27 64q0 38 27 64.5t64 26.5q38 0 64.5 -26.5t26.5 -64.5q0 -37 -26.5 -64t-64.5 -27q-37 0 -64 27zM154 0h-144l88 496h144z" />
    <glyph glyph-name="uni0457" unicode="&#x457;" horiz-adv-x="254" 
d="M49 585q-24 24 -24 57q0 34 24 58t58 24t58 -24t24 -58q0 -33 -24 -57t-58 -24t-58 24zM230 585q-24 24 -24 57q0 34 24 58t57 24q34 0 58 -24t24 -58q0 -33 -24 -57t-58 -24q-33 0 -57 24zM155 0h-144l88 496h144z" />
    <glyph glyph-name="uni0458" unicode="&#x458;" horiz-adv-x="254" 
d="M132 579q-27 27 -27 64q0 38 27 64.5t64 26.5q38 0 64.5 -26.5t26.5 -64.5q0 -37 -26.5 -64t-64.5 -27q-37 0 -64 27zM-117 -201l24 133q21 -12 46 -12q20 0 34.5 14t19.5 43l92 519h144l-93 -521q-17 -97 -60.5 -142t-129.5 -45q-49 0 -77 11z" />
    <glyph glyph-name="uni0459" unicode="&#x459;" horiz-adv-x="876" 
d="M-5 -9q-21 3 -35 8l24 135q20 -13 41 -13q49 0 66 63l78 312h407l-30 -170h93q84 0 132.5 -38t48.5 -112q0 -176 -209 -176h-267l65 366h-134l-47 -197q-16 -68 -39 -107t-60 -56.5t-95 -17.5q-18 0 -39 3zM605 114q34 0 52.5 14.5t18.5 40.5q0 21 -14.5 32t-41.5 11h-94
l-18 -98h97z" />
    <glyph glyph-name="uni045A" unicode="&#x45a;" horiz-adv-x="875" 
d="M11 0l88 496h144l-29 -164h188l29 164h144l-30 -170h93q84 0 132.5 -38t48.5 -112q0 -176 -209 -176h-267l36 202h-188l-36 -202h-144zM604 114q34 0 52.5 14.5t18.5 40.5q0 21 -14.5 32t-41.5 11h-94l-18 -98h97z" />
    <glyph glyph-name="uni045B" unicode="&#x45b;" horiz-adv-x="561" 
d="M489 464.5q42 -43.5 42 -115.5q0 -25 -4 -46l-53 -303h-144l50 281q2 14 2 21q0 33 -20 53.5t-55 20.5q-39 0 -67 -26t-35 -69l-50 -281h-144l100 564h-59l16 92h59l8 44h144l-8 -44h149l-16 -92h-149l-21 -117q21 27 58 44t81 17q74 0 116 -43.5z" />
    <glyph glyph-name="uni045C" unicode="&#x45c;" horiz-adv-x="525" 
d="M155 0h-144l88 496h144l-36 -204h16l150 204h170l-195 -250l107 -246h-155l-85 204h-24zM382 566h-116l114 166h164z" />
    <glyph glyph-name="uni045D" unicode="&#x45d;" horiz-adv-x="574" 
d="M155 0h-144l88 496h144l-50 -284l226 284h144l-88 -496h-144l50 284zM399 566h-108l-110 166h156z" />
    <glyph glyph-name="uni045E" unicode="&#x45e;" horiz-adv-x="562" 
d="M434 496h159l-303 -552q-34 -62 -64 -95t-70 -47t-103 -14q-59 0 -93 16l26 144q19 -12 37.5 -18.5t47.5 -6.5q31 0 54.5 18t43.5 56l5 9l-121 490h152l64 -311zM256 597.5q-29 31.5 -29 77.5q0 17 2 25h84q-1 -5 -1 -16q0 -19 9 -30t26 -11q22 0 35.5 15.5t18.5 41.5h84
q-13 -68 -47.5 -101t-104.5 -33q-48 0 -77 31.5z" />
    <glyph glyph-name="uni045F" unicode="&#x45f;" horiz-adv-x="587" 
d="M296 -122h-134l21 122h-171l87 496h144l-64 -366h188l64 366h144l-87 -496h-171z" />
    <glyph glyph-name="uni0462" unicode="&#x462;" horiz-adv-x="688" 
d="M427 425q105 0 159.5 -49t54.5 -140q0 -111 -75 -173.5t-204 -62.5h-279l90 508h-119l22 122h119l12 70h160l-12 -70h214l-22 -122h-214l-15 -83h109zM382 136q46 0 72 22t26 60q0 35 -18.5 52.5t-52.5 17.5h-115l-27 -152h115z" />
    <glyph glyph-name="uni0463" unicode="&#x463;" horiz-adv-x="640" 
d="M403 326q84 0 132.5 -38t48.5 -112q0 -176 -209 -176h-267l66 375h-128l22 121h128l36 204h144l-36 -204h195l-22 -121h-194l-9 -49h93zM369 114q34 0 52.5 14.5t18.5 40.5q0 21 -14.5 32t-41.5 11h-94l-18 -98h97z" />
    <glyph glyph-name="uni0472" unicode="&#x472;" horiz-adv-x="785" 
d="M618.5 673.5q69.5 -40.5 107 -112.5t37.5 -163q0 -42 -7 -81q-17 -97 -67 -172t-132.5 -117t-191.5 -42q-93 0 -162.5 40.5t-107 112.5t-37.5 163q0 42 7 81q17 98 67.5 172.5t133 116.5t191.5 42q92 0 161.5 -40.5zM324.5 530.5q-50.5 -34.5 -77.5 -93.5q32 8 66 8
q26 0 49.5 -5.5t57.5 -16.5t57 -16.5t48 -5.5q37 0 72 7q-5 70 -45.5 113.5t-108.5 43.5t-118.5 -34.5zM500.5 172.5q51.5 37.5 76.5 100.5q-32 -8 -66 -8q-26 0 -49.5 5.5t-57.5 16.5t-57 16.5t-48 5.5q-40 0 -76 -8q4 -74 44.5 -120t111.5 -46q70 0 121.5 37.5z" />
    <glyph glyph-name="uni0473" unicode="&#x473;" horiz-adv-x="588" 
d="M443.5 478.5q52.5 -29.5 81 -82t28.5 -119.5q0 -24 -5 -56q-18 -104 -92.5 -168.5t-192.5 -64.5q-68 0 -120 29.5t-80.5 82t-28.5 119.5q0 29 6 59q18 102 92 166t191 64q68 0 120.5 -29.5zM248.5 355.5q-26.5 -16.5 -43.5 -45.5q5 1 15 1q27 0 47 -4t46 -12
q22 -7 37.5 -10.5t34.5 -3.5q12 0 18 1q-4 41 -28.5 65.5t-67.5 24.5q-32 0 -58.5 -16.5zM338 140.5q27 16.5 44 45.5q-5 -1 -14 -1q-27 0 -47 4t-46 12q-22 7 -37.5 10.5t-34.5 3.5q-12 0 -18 -1q4 -41 28.5 -65.5t65.5 -24.5q32 0 59 16.5z" />
    <glyph glyph-name="uni0474" unicode="&#x474;" horiz-adv-x="817" 
d="M232 0l-137 700h175l80 -487l182 352q43 82 88 115.5t121 33.5q48 0 81.5 -12.5t58.5 -35.5l-99 -144q-18 24 -46 24q-21 0 -34 -10t-26 -35l-274 -501h-170z" />
    <glyph glyph-name="uni0475" unicode="&#x475;" horiz-adv-x="606" 
d="M147 0l-96 496h153l51 -313l104 203q36 70 75 96t100 26q63 0 104 -33l-68 -123q-17 20 -39 20q-15 0 -25.5 -8t-19.5 -25l-180 -339h-159z" />
    <glyph glyph-name="uni0490" unicode="&#x490;" horiz-adv-x="578" 
d="M175 0h-160l124 700h329l24 138h160l-50 -284h-329z" />
    <glyph glyph-name="uni0491" unicode="&#x491;" horiz-adv-x="471" 
d="M156 0h-144l87 496h230l23 129h144l-44 -251h-230z" />
    <glyph glyph-name="Wgrave" unicode="&#x1e80;" horiz-adv-x="980" 
d="M331 0h-185l-47 700h161l17 -485l205 472h161l40 -472l188 485h170l-293 -700h-186l-34 466zM638 770h-108l-110 166h156z" />
    <glyph glyph-name="wgrave" unicode="&#x1e81;" horiz-adv-x="788" 
d="M272 0h-155l-59 496h148l21 -307l130 307h153l26 -307l127 307h155l-230 -496h-156l-24 329zM506 566h-108l-110 166h156z" />
    <glyph glyph-name="Wacute" unicode="&#x1e82;" horiz-adv-x="980" 
d="M331 0h-185l-47 700h161l17 -485l205 472h161l40 -472l188 485h170l-293 -700h-186l-34 466zM641 770h-116l114 166h164z" />
    <glyph glyph-name="wacute" unicode="&#x1e83;" horiz-adv-x="788" 
d="M272 0h-155l-59 496h148l21 -307l130 307h153l26 -307l127 307h155l-230 -496h-156l-24 329zM509 566h-116l114 166h164z" />
    <glyph glyph-name="Wdieresis" unicode="&#x1e84;" horiz-adv-x="980" 
d="M331 0h-185l-47 700h161l17 -485l205 472h161l40 -472l188 485h170l-293 -700h-186l-34 466zM418 789q-24 24 -24 57q0 34 24 58t58 24t58 -24t24 -58q0 -33 -24 -57t-58 -24t-58 24zM659 789q-24 24 -24 57q0 34 24 58t57 24q34 0 58 -24t24 -58q0 -33 -24 -57t-58 -24
q-33 0 -57 24z" />
    <glyph glyph-name="wdieresis" unicode="&#x1e85;" horiz-adv-x="788" 
d="M272 0h-155l-59 496h148l21 -307l130 307h153l26 -307l127 307h155l-230 -496h-156l-24 329zM286 585q-24 24 -24 57q0 34 24 58t58 24t58 -24t24 -58q0 -33 -24 -57t-58 -24t-58 24zM527 585q-24 24 -24 57q0 34 24 58t57 24q34 0 58 -24t24 -58q0 -33 -24 -57t-58 -24
q-33 0 -57 24z" />
    <glyph glyph-name="uni1E9E" unicode="&#x1e9e;" horiz-adv-x="647" 
d="M284.5 -8.5q-23.5 3.5 -38.5 8.5l25 143q11 -10 30 -15.5t40 -5.5q49 0 78.5 29t29.5 79q0 46 -32 72t-89 26l20 115l121 121h-121q-35 0 -57.5 -18t-28.5 -52l-87 -494h-160l87 494q18 105 80 155.5t173 50.5h305l-24 -136l-138 -136q54 -23 80 -70t26 -109
q0 -24 -5 -56q-17 -98 -85 -151.5t-184 -53.5q-22 0 -45.5 3.5z" />
    <glyph glyph-name="Ygrave" unicode="&#x1ef2;" horiz-adv-x="659" 
d="M365 0h-159l50 280l-166 420h180l90 -256l176 256h193l-314 -420zM477 770h-108l-110 166h156z" />
    <glyph glyph-name="ygrave" unicode="&#x1ef3;" horiz-adv-x="562" 
d="M434 496h159l-303 -552q-34 -62 -64 -95t-70 -47t-103 -14q-59 0 -93 16l26 144q19 -12 37.5 -18.5t47.5 -6.5q31 0 54.5 18t43.5 56l5 9l-121 490h152l64 -311zM396 566h-108l-110 166h156z" />
    <glyph glyph-name="endash" unicode="&#x2013;" horiz-adv-x="520" 
d="M488 255h-455l22 120h455z" />
    <glyph glyph-name="emdash" unicode="&#x2014;" horiz-adv-x="742" 
d="M710 255h-677l22 120h677z" />
    <glyph glyph-name="quoteleft" unicode="&#x2018;" horiz-adv-x="280" 
d="M110.5 384.5q-24.5 27.5 -24.5 72.5q0 79 96 170l87 81l34 -31l-62 -77q-24 -32 -30 -56q25 -5 45 -29.5t20 -54.5q0 -43 -27.5 -73t-73.5 -30q-40 0 -64.5 27.5z" />
    <glyph glyph-name="quoteright" unicode="&#x2019;" horiz-adv-x="280" 
d="M112 357l-34 31l62 77q24 29 30 56q-25 5 -45 29.5t-20 54.5q0 44 28.5 73.5t75.5 29.5q39 0 62.5 -27.5t23.5 -72.5q0 -43 -24 -79.5t-75 -87.5z" />
    <glyph glyph-name="quotesinglbase" unicode="&#x201a;" horiz-adv-x="280" 
d="M13 -206l-34 31l62 77q24 29 30 56q-25 5 -45 29.5t-20 54.5q0 44 28.5 73.5t75.5 29.5q39 0 62.5 -27.5t23.5 -72.5q0 -43 -24 -79.5t-75 -87.5z" />
    <glyph glyph-name="quotedblleft" unicode="&#x201c;" horiz-adv-x="502" 
d="M332.5 384.5q-24.5 27.5 -24.5 72.5q0 79 96 170l87 81l34 -31l-62 -77q-24 -32 -30 -56q25 -5 45 -29.5t20 -54.5q0 -43 -27.5 -73t-73.5 -30q-40 0 -64.5 27.5zM110.5 384.5q-24.5 27.5 -24.5 72.5q0 79 96 170l87 81l34 -31l-62 -77q-24 -32 -30 -56q25 -5 45 -29.5
t20 -54.5q0 -43 -27.5 -73t-73.5 -30q-40 0 -64.5 27.5z" />
    <glyph glyph-name="quotedblright" unicode="&#x201d;" horiz-adv-x="502" 
d="M334 357l-34 31l62 77q24 29 30 56q-25 5 -45 29.5t-20 54.5q0 44 28.5 73.5t75.5 29.5q39 0 62.5 -27.5t23.5 -72.5q0 -43 -24 -79.5t-75 -87.5zM112 357l-34 31l62 77q24 29 30 56q-25 5 -45 29.5t-20 54.5q0 44 28.5 73.5t75.5 29.5q39 0 62.5 -27.5t23.5 -72.5
q0 -43 -24 -79.5t-75 -87.5z" />
    <glyph glyph-name="quotedblbase" unicode="&#x201e;" horiz-adv-x="502" 
d="M13 -206l-34 31l62 77q24 29 30 56q-25 5 -45 29.5t-20 54.5q0 44 28.5 73.5t75.5 29.5q39 0 62.5 -27.5t23.5 -72.5q0 -43 -24 -79.5t-75 -87.5zM235 -206l-34 31l62 77q24 29 30 56q-25 5 -45 29.5t-20 54.5q0 44 28.5 73.5t75.5 29.5q39 0 62.5 -27.5t23.5 -72.5
q0 -43 -24 -79.5t-75 -87.5z" />
    <glyph glyph-name="dagger" unicode="&#x2020;" horiz-adv-x="367" 
d="M306 610h95l-17 -95h-95l-46 -260h-117l46 260h-95l17 95h95l14 82l128 58z" />
    <glyph glyph-name="daggerdbl" unicode="&#x2021;" horiz-adv-x="368" 
d="M401 610l-17 -95h-95l-10 -55h96l-17 -95h-95l-20 -110h-117l19 110h-94l17 95h94l10 55h-95l17 95h95l14 82l128 58l-25 -140h95z" />
    <glyph glyph-name="bullet" unicode="&#x2022;" horiz-adv-x="424" 
d="M166 240.5q-30 17.5 -47.5 47.5t-17.5 65t17.5 65t47.5 47.5t65 17.5t65 -17.5t47.5 -47.5t17.5 -65t-17.5 -65t-47.5 -47.5t-65 -17.5t-65 17.5z" />
    <glyph glyph-name="ellipsis" unicode="&#x2026;" horiz-adv-x="777" 
d="M294 19.5q-28 27.5 -28 66.5q0 38 28 66t66 28t66 -28t28 -66q0 -39 -28 -66.5t-66 -27.5t-66 27.5zM565 19.5q-28 27.5 -28 66.5q0 38 28 66t66 28t66 -28t28 -66q0 -39 -28 -66.5t-66 -27.5t-66 27.5zM22 19.5q-28 27.5 -28 66.5q0 38 28 66t66 28t66 -28t28 -66
q0 -39 -28 -66.5t-66 -27.5t-66 27.5z" />
    <glyph glyph-name="perthousand" unicode="&#x2030;" horiz-adv-x="1300" 
d="M128.5 405q-41.5 45 -41.5 113q0 18 3 36q12 69 62 113.5t132 44.5q68 0 109 -45t41 -115q0 -19 -3 -39q-12 -68 -61 -110.5t-132 -42.5q-68 0 -109.5 45zM279 0h-142l532 700h141zM301.5 484q20.5 27 20.5 66q0 28 -14 46.5t-37 18.5q-30 0 -50.5 -26t-20.5 -65
q0 -29 13.5 -48t37.5 -19q30 0 50.5 27zM554.5 33q-41.5 45 -41.5 113q0 18 3 36q12 69 62 113.5t132 44.5q68 0 109 -45t41 -115q0 -19 -3 -39q-12 -68 -61 -110.5t-132 -42.5q-68 0 -109.5 45zM942.5 33q-41.5 45 -41.5 113q0 18 3 36q12 69 62 113.5t132 44.5
q68 0 109 -45t41 -115q0 -19 -3 -39q-12 -68 -61 -110.5t-132 -42.5q-68 0 -109.5 45zM727.5 112q20.5 27 20.5 66q0 28 -14 46.5t-37 18.5q-30 0 -50.5 -26t-20.5 -65q0 -29 13.5 -48t37.5 -19q30 0 50.5 27zM1115.5 112q20.5 27 20.5 66q0 28 -14 46.5t-37 18.5
q-30 0 -50.5 -26t-20.5 -65q0 -29 13.5 -48t37.5 -19q30 0 50.5 27z" />
    <glyph glyph-name="guilsinglleft" unicode="&#x2039;" horiz-adv-x="307" 
d="M243 100h-132l-77 196l137 196h142l-139 -201z" />
    <glyph glyph-name="guilsinglright" unicode="&#x203a;" horiz-adv-x="308" 
d="M153 100h-142l139 201l-69 191h132l77 -196z" />
    <glyph glyph-name="fraction" unicode="&#x2044;" horiz-adv-x="393" 
d="M21 0h-143l530 700h143z" />
    <glyph glyph-name="uni2070" unicode="&#x2070;" horiz-adv-x="351" 
d="M100.5 386.5q-35.5 43.5 -35.5 111.5q0 22 5 50q13 73 59.5 116t118.5 43q65 0 100 -43t35 -112q0 -27 -4 -48q-12 -73 -59.5 -117t-119.5 -44q-64 0 -99.5 43.5zM251 459.5q16 22.5 22 56.5q3 17 3 33q0 28 -9.5 46t-29.5 18q-24 0 -40 -22.5t-22 -55.5q-3 -16 -3 -33
q0 -29 9.5 -47t29.5 -18q24 0 40 22.5z" />
    <glyph glyph-name="uni2074" unicode="&#x2074;" horiz-adv-x="311" 
d="M272 350h-95l11 61h-149l14 80l186 209h95l-37 -209h48l-14 -80h-48zM216 572l-68 -81h54z" />
    <glyph glyph-name="uni2075" unicode="&#x2075;" horiz-adv-x="291" 
d="M91 372.5q-34 28.5 -39 72.5l96 20q3 -15 12 -23.5t24 -8.5q17 0 27 10.5t10 31.5q0 15 -8.5 23.5t-22.5 8.5q-11 0 -19.5 -5t-13.5 -13l-81 23l51 188h213l-14 -80h-136l-17 -53q9 7 23.5 11t28.5 4q46 0 70.5 -28t24.5 -73q0 -15 -3 -32q-9 -47 -44.5 -76t-93.5 -29
q-54 0 -88 28.5z" />
    <glyph glyph-name="uni2076" unicode="&#x2076;" horiz-adv-x="279" 
d="M85.5 375q-31.5 31 -31.5 79q0 38 15.5 67.5t44.5 64.5l95 114h95l-102 -125q45 0 73.5 -29t28.5 -73q0 -59 -39 -94t-100 -35q-48 0 -79.5 31zM203 433q12 12 12 31q0 15 -8.5 24.5t-23.5 9.5q-18 0 -29.5 -12t-11.5 -31q0 -15 8.5 -24.5t22.5 -9.5q18 0 30 12z" />
    <glyph glyph-name="uni2077" unicode="&#x2077;" horiz-adv-x="253" 
d="M153 350h-94l158 270h-139l14 80h228l-14 -80z" />
    <glyph glyph-name="uni2078" unicode="&#x2078;" horiz-adv-x="286" 
d="M84.5 372q-32.5 28 -32.5 69q0 35 19 60.5t45 35.5q-11 10 -18 25.5t-7 31.5q0 47 33 78.5t94 31.5q48 0 75.5 -26.5t27.5 -63.5q0 -57 -51 -82q16 -9 26 -28t10 -42q0 -56 -35.5 -87t-100.5 -31q-53 0 -85.5 28zM227 574q11 10 11 27q0 13 -7.5 21.5t-20.5 8.5
q-16 0 -27 -10t-11 -27q0 -13 7.5 -21.5t20.5 -8.5q16 0 27 10zM207 436q11 11 11 30q0 13 -9 21.5t-23 8.5q-18 0 -30 -11t-12 -29q0 -13 9 -22t23 -9q20 0 31 11z" />
    <glyph glyph-name="uni2079" unicode="&#x2079;" horiz-adv-x="278" 
d="M174 475q-45 0 -73.5 29t-28.5 73q0 59 39 94t100 35q48 0 79.5 -31t31.5 -79q0 -38 -15.5 -67.5t-44.5 -64.5l-95 -114h-95zM222.5 564q11.5 12 11.5 31q0 15 -8.5 24.5t-22.5 9.5q-18 0 -30 -12t-12 -31q0 -15 8.5 -24.5t23.5 -9.5q18 0 29.5 12z" />
    <glyph glyph-name="uni2080" unicode="&#x2080;" horiz-adv-x="351" 
d="M19.5 -73.5q-35.5 43.5 -35.5 111.5q0 22 5 50q13 73 59.5 116t118.5 43q65 0 100 -43t35 -112q0 -27 -4 -48q-12 -73 -59.5 -117t-119.5 -44q-64 0 -99.5 43.5zM170 -0.5q16 22.5 22 56.5q3 17 3 33q0 28 -9.5 46t-29.5 18q-24 0 -40 -22.5t-22 -55.5q-3 -16 -3 -33
q0 -29 9.5 -47t29.5 -18q24 0 40 22.5z" />
    <glyph glyph-name="uni2081" unicode="&#x2081;" horiz-adv-x="219" 
d="M134 -110h-103l43 247l-93 -52l19 105l93 50h103z" />
    <glyph glyph-name="uni2082" unicode="&#x2082;" horiz-adv-x="282" 
d="M-33 -110l15 86l128 100q38 29 38 55q0 13 -8.5 21t-22.5 8q-33 0 -42 -40l-81 22q10 48 44.5 76t91.5 28q54 0 85 -28.5t31 -73.5q0 -41 -17.5 -67.5t-61.5 -60.5l-51 -40h103l-15 -86h-237z" />
    <glyph glyph-name="uni2083" unicode="&#x2083;" horiz-adv-x="290" 
d="M0.5 -85.5q-33.5 30.5 -34.5 77.5l89 17q2 -18 12 -29t26 -11q20 0 31.5 12.5t11.5 33.5q0 40 -62 40l10 59l49 47h-121l14 79h227l-14 -79l-60 -53q25 -8 40 -30.5t15 -51.5q0 -64 -38.5 -103t-109.5 -39q-52 0 -85.5 30.5z" />
    <glyph glyph-name="uni2084" unicode="&#x2084;" horiz-adv-x="311" 
d="M191 -110h-95l11 61h-149l14 80l186 209h95l-37 -209h48l-14 -80h-48zM135 112l-68 -81h54z" />
    <glyph glyph-name="uni2085" unicode="&#x2085;" horiz-adv-x="291" 
d="M10 -87.5q-34 28.5 -39 72.5l96 20q3 -15 12 -23.5t24 -8.5q17 0 27 10.5t10 31.5q0 15 -8.5 23.5t-22.5 8.5q-11 0 -19.5 -5t-13.5 -13l-81 23l51 188h213l-14 -80h-136l-17 -53q9 7 23.5 11t28.5 4q46 0 70.5 -28t24.5 -73q0 -15 -3 -32q-9 -47 -44.5 -76t-93.5 -29
q-54 0 -88 28.5z" />
    <glyph glyph-name="uni2086" unicode="&#x2086;" horiz-adv-x="279" 
d="M4.5 -85q-31.5 31 -31.5 79q0 38 15.5 67.5t44.5 64.5l95 114h95l-102 -125q45 0 73.5 -29t28.5 -73q0 -59 -39 -94t-100 -35q-48 0 -79.5 31zM122 -27q12 12 12 31q0 15 -8.5 24.5t-23.5 9.5q-18 0 -29.5 -12t-11.5 -31q0 -15 8.5 -24.5t22.5 -9.5q18 0 30 12z" />
    <glyph glyph-name="uni2087" unicode="&#x2087;" horiz-adv-x="253" 
d="M72 -110h-94l158 270h-139l14 80h228l-14 -80z" />
    <glyph glyph-name="uni2088" unicode="&#x2088;" horiz-adv-x="286" 
d="M3.5 -88q-32.5 28 -32.5 69q0 35 19 60.5t45 35.5q-11 10 -18 25.5t-7 31.5q0 47 33 78.5t94 31.5q48 0 75.5 -26.5t27.5 -63.5q0 -57 -51 -82q16 -9 26 -28t10 -42q0 -56 -35.5 -87t-100.5 -31q-53 0 -85.5 28zM146 114q11 10 11 27q0 13 -7.5 21.5t-20.5 8.5
q-16 0 -27 -10t-11 -27q0 -13 7.5 -21.5t20.5 -8.5q16 0 27 10zM126 -24q11 11 11 30q0 13 -9 21.5t-23 8.5q-18 0 -30 -11t-12 -29q0 -13 9 -22t23 -9q20 0 31 11z" />
    <glyph glyph-name="uni2089" unicode="&#x2089;" horiz-adv-x="278" 
d="M93 15q-45 0 -73.5 29t-28.5 73q0 59 39 94t100 35q48 0 79.5 -31t31.5 -79q0 -38 -15.5 -67.5t-44.5 -64.5l-95 -114h-95zM141.5 104q11.5 12 11.5 31q0 15 -8.5 24.5t-22.5 9.5q-18 0 -30 -12t-12 -31q0 -15 8.5 -24.5t23.5 -9.5q18 0 29.5 12z" />
    <glyph glyph-name="Euro" unicode="&#x20ac;" horiz-adv-x="725" 
d="M495 152q36 21 71 63l106 -87q-46 -69 -117 -105.5t-176 -36.5q-119 0 -194 66t-93 177h-81l38 95h39q1 25 6 52h-57l38 95h45q43 112 139.5 177.5t232.5 65.5q92 0 153 -35t105 -105l-137 -86q-45 81 -141 81q-60 0 -107.5 -25.5t-76.5 -72.5h233l-38 -95h-229
q-5 -27 -6 -52h206l-38 -95h-154q16 -46 51.5 -72t89.5 -26q56 0 92 21z" />
    <glyph glyph-name="uni20B4" unicode="&#x20b4;" horiz-adv-x="600" 
d="M613 471l-17 -95h-566l17 95h365q25 22 25 46q0 26 -23.5 42.5t-65.5 16.5q-41 0 -77 -20.5t-63 -58.5l-113 71q46 74 111 109t163 35q106 0 166.5 -38.5t60.5 -110.5q0 -52 -23 -92h40zM4 229l17 95h566l-17 -95h-367q-9 -19 -9 -37q0 -29 23 -48t58 -19q48 0 75.5 19
t55.5 67l139 -57q-27 -54 -58.5 -89.5t-86.5 -57t-141 -21.5q-69 0 -120.5 23t-79 62.5t-27.5 88.5q0 37 15 69h-43z" />
    <glyph glyph-name="uni20BA" unicode="&#x20ba;" horiz-adv-x="659" 
d="M638 326q-18 -104 -57.5 -175t-116 -111t-199.5 -40h-214l20 112l-77 -47l23 130l77 47l12 66l-78 -47l23 130l78 47l46 262h160l-27 -153l153 93l-23 -129l-153 -93l-12 -67l154 93l-23 -129l-154 -94l-13 -75h44q165 0 197 180h160z" />
    <glyph glyph-name="uni20BD" unicode="&#x20bd;" horiz-adv-x="654" 
d="M267 287l-9 -53h221l-19 -108h-222l-22 -126h-160l22 126h-74l19 108h74l83 466h275q93 0 147.5 -48.5t54.5 -136.5q0 -107 -71 -167.5t-194 -60.5h-125zM316 564l-25 -140h117q44 0 66 21t22 60q0 29 -17 44t-48 15h-115z" />
    <glyph glyph-name="uni2113" unicode="&#x2113;" horiz-adv-x="573" 
d="M395 171l95 -80q-37 -51 -83.5 -78t-116.5 -27q-61 0 -106 34.5t-66 99.5q-34 -13 -67 -23l-32 119q50 14 85 28q4 128 40 235t101 171t149 64q69 0 106.5 -39.5t37.5 -111.5q0 -109 -69 -208t-220 -177q7 -31 21.5 -47.5t36.5 -16.5q52 0 88 57zM326.5 559.5
q-25.5 -39.5 -46 -103.5t-29.5 -135q77 54 114.5 118t37.5 121q0 18 -7 28.5t-20 10.5q-24 0 -49.5 -39.5z" />
    <glyph glyph-name="uni2116" unicode="&#x2116;" horiz-adv-x="1235" 
d="M828.5 307q-52.5 55 -52.5 143q0 27 4 50q16 96 85 154t180 58q91 0 144 -55t53 -145q0 -26 -4 -49q-16 -96 -86 -153.5t-181 -57.5q-90 0 -142.5 55zM167 0h-152l124 700h162l202 -436l77 436h152l-124 -700h-146l-214 457zM1074.5 413q29.5 35 29.5 85q0 39 -21 63.5
t-56 24.5q-51 0 -82 -35t-31 -85q0 -39 21.5 -63.5t56.5 -24.5q53 0 82.5 35zM1154 95h-428l18 102h428z" />
    <glyph glyph-name="trademark" unicode="&#x2122;" 
d="M189 420h-78l37 209h-72l13 71h223l-13 -71h-73zM362 420h-74l50 280h82l33 -144l85 144h89l-50 -280h-73l25 139l-49 -83h-71l-22 83z" />
    <glyph glyph-name="uni2126" unicode="&#x2126;" horiz-adv-x="742" 
d="M12 0l23 131h119l3 18q-42 47 -64.5 107t-22.5 124q0 32 6 65q14 81 60 141.5t121 94t173 33.5q90 0 158 -33.5t105.5 -94t37.5 -138.5q0 -33 -5 -58q-13 -76 -58.5 -141t-110.5 -100l-3 -18h113l-23 -131h-278l32 183q140 72 162 202q4 30 4 43q0 68 -37.5 108
t-105.5 40q-76 0 -124.5 -42t-60.5 -111q-3 -18 -3 -38q0 -54 23.5 -107t66.5 -95l-32 -183h-279z" />
    <glyph glyph-name="estimated" unicode="&#x212e;" horiz-adv-x="826" 
d="M238 113q39 -35 89 -54t107 -19q89 0 159 45t106 120h65q-40 -99 -127.5 -159t-202.5 -60q-102 0 -184 48.5t-128 132t-46 183.5t46 183.5t128 132t184 48.5t184 -48.5t128 -132t46 -183.5h-554v-237zM629 588q-39 34 -88.5 53t-106.5 19t-107 -19t-89 -54v-189h391v190z
" />
    <glyph glyph-name="partialdiff" unicode="&#x2202;" horiz-adv-x="553" 
d="M455 479q30 -65 45.5 -114.5t15.5 -100.5q0 -24 -5 -57q-17 -98 -86 -158.5t-184 -60.5q-62 0 -110 28t-74 76.5t-26 109.5q0 22 5 50q16 89 82 141.5t168 52.5q22 0 41 -4l-126 258h150zM381 265q0 20 -1 30q-41 28 -97 28q-52 0 -83.5 -31.5t-31.5 -79.5
q0 -44 25 -72.5t67 -28.5q50 0 79 28.5t38 77.5q4 23 4 48z" />
    <glyph glyph-name="uni2206" unicode="&#x2206;" horiz-adv-x="741" 
d="M628 0h-604l24 136l317 564h170l117 -564zM418 500l-192 -364h262z" />
    <glyph glyph-name="product" unicode="&#x220f;" horiz-adv-x="785" 
d="M217 -204h-159l134 758h-117l26 146h743l-26 -146h-117l-134 -758h-160l134 758h-190z" />
    <glyph glyph-name="summation" unicode="&#x2211;" horiz-adv-x="561" 
d="M461 -128h-491l26 146l260 274l-166 262l26 146h482l-26 -146h-300l159 -274l-251 -262h307z" />
    <glyph glyph-name="minus" unicode="&#x2212;" horiz-adv-x="519" 
d="M489 253h-457l22 124h457z" />
    <glyph glyph-name="uni2215" unicode="&#x2215;" horiz-adv-x="519" 
d="M171 0h-149l361 700h149z" />
    <glyph glyph-name="uni2219" unicode="&#x2219;" horiz-adv-x="519" 
d="M206 202.5q-30 17.5 -47.5 47.5t-17.5 65t17.5 65t47.5 47.5t65 17.5t65 -17.5t47.5 -47.5t17.5 -65t-17.5 -65t-47.5 -47.5t-65 -17.5t-65 17.5z" />
    <glyph glyph-name="radical" unicode="&#x221a;" horiz-adv-x="699" 
d="M383 0h-177l-54 284h-124l22 122h235l34 -231l275 525h170z" />
    <glyph glyph-name="infinity" unicode="&#x221e;" horiz-adv-x="843" 
d="M763.5 434q54.5 -51 54.5 -134t-54.5 -134t-142.5 -51q-59 0 -105 24t-85 70q-39 -46 -85 -70t-105 -24q-88 0 -142.5 51t-54.5 134t54.5 134t142.5 51q59 0 105 -24t85 -70q39 46 85 70t105 24q88 0 142.5 -51zM310 242q28 18 59 58q-31 40 -59 58.5t-67 18.5
q-35 0 -57 -20.5t-22 -56.5t22 -56t57 -20q39 0 67 18zM676 244q22 20 22 56t-22 56.5t-57 20.5q-39 0 -67.5 -18.5t-59.5 -58.5q31 -39 59.5 -57.5t67.5 -18.5q35 0 57 20z" />
    <glyph glyph-name="integral" unicode="&#x222b;" horiz-adv-x="398" 
d="M-94 -206l24 132q33 -12 62 -12q28 0 47 15.5t24 44.5l98 553q17 95 69 140t147 45q50 0 84 -12l-24 -132q-34 12 -63 12q-28 0 -47 -15.5t-24 -44.5l-98 -553q-16 -94 -69.5 -139.5t-145.5 -45.5q-34 0 -84 12z" />
    <glyph glyph-name="approxequal" unicode="&#x2248;" horiz-adv-x="519" 
d="M37 363q19 61 60.5 95t104.5 34q35 0 58.5 -9.5t50.5 -27.5q19 -12 32 -18t29 -6q23 0 37 13t24 41l104 -34q-19 -61 -60 -95t-104 -34q-35 0 -59 9.5t-51 27.5q-19 12 -32 18t-28 6q-24 0 -38 -13t-23 -41zM2 164q19 61 60.5 95t104.5 34q35 0 58.5 -9.5t50.5 -27.5
q19 -12 32 -18t29 -6q23 0 37 13t24 41l104 -34q-19 -61 -60 -95t-104 -34q-35 0 -59 9.5t-51 27.5q-19 12 -32 18t-28 6q-24 0 -38 -13t-23 -41z" />
    <glyph glyph-name="notequal" unicode="&#x2260;" horiz-adv-x="518" 
d="M450 652l94 -67l-65 -87h52l-22 -124h-123l-88 -119h191l-22 -123h-261l-116 -155l-93 68l65 87h-52l22 123h122l89 119h-191l22 124h261z" />
    <glyph glyph-name="lessequal" unicode="&#x2264;" horiz-adv-x="518" 
d="M493 278l-21 -121l-429 158l22 129l485 157l-23 -131l-338 -95zM443 0h-457l22 124h457z" />
    <glyph glyph-name="greaterequal" unicode="&#x2265;" horiz-adv-x="518" 
d="M499 314l-485 -157l23 131l338 95l-304 97l21 121l429 -158zM443 0h-457l22 124h457z" />
    <glyph glyph-name="lozenge" unicode="&#x25ca;" horiz-adv-x="596" 
d="M339 0h-170l-136 350l260 350h170l136 -350zM199 340l73 -198l160 217l-74 198z" />
    <glyph glyph-name="fi" unicode="&#xfb01;" horiz-adv-x="652" 
d="M302 520l-4 -24h126l-22 -121h-126l-66 -375h-144l66 375h-92l22 121h92l5 31q17 96 68.5 140.5t145.5 44.5q47 0 87 -12l-24 -132q-34 12 -63 12q-60 0 -71 -60zM530 579q-27 27 -27 64q0 38 27 64.5t64 26.5q38 0 64.5 -26.5t26.5 -64.5q0 -37 -26.5 -64t-64.5 -27
q-37 0 -64 27zM552 0h-144l88 496h144z" />
    <glyph glyph-name="fl" unicode="&#xfb02;" horiz-adv-x="694" 
d="M302 520l-4 -24h126l-22 -121h-126l-66 -375h-144l66 375h-92l22 121h92l5 31q17 96 68.5 140.5t145.5 44.5q47 0 87 -12l-24 -132q-34 12 -63 12q-60 0 -71 -60zM471 25.5q-35 37.5 -35 101.5q0 23 4 44l93 529h144l-94 -532q-1 -4 -1 -11q0 -16 9 -26t25 -10
q23 0 47 10l-23 -132q-31 -11 -76 -11q-58 0 -93 37.5z" />
    <glyph glyph-name="NULL" horiz-adv-x="600" 
 />
    <glyph glyph-name="i.loclTRK" horiz-adv-x="254" 
d="M155 0h-144l88 496h144zM132.5 579q-26.5 27 -26.5 64q0 38 26.5 64.5t64.5 26.5q37 0 64 -26.5t27 -64.5q0 -37 -27 -64t-64 -27q-38 0 -64.5 27z" />
    <glyph glyph-name="a.ss01" horiz-adv-x="554" 
d="M86.5 7q-33.5 19 -51.5 52t-18 72q0 79 52.5 119t150.5 53l119 16l1 5q2 10 2 15q0 26 -20 41.5t-51 15.5q-71 0 -100 -69l-110 46q24 64 84.5 99.5t142.5 35.5q88 0 141 -41.5t53 -113.5q0 -16 -3 -34l-29 -167q-1 -5 -1 -14q0 -30 28 -30q20 0 35 7l-20 -110
q-39 -17 -83 -17q-39 0 -66 22.5t-32 55.5q-26 -37 -59 -57.5t-90 -20.5q-42 0 -75.5 19zM320 210l2 11l-100 -18q-60 -12 -60 -53q0 -21 14.5 -34.5t39.5 -13.5q84 0 104 108z" />
    <glyph glyph-name="aacute.ss01" horiz-adv-x="554" 
d="M86.5 7q-33.5 19 -51.5 52t-18 72q0 79 52.5 119t150.5 53l119 16l1 5q2 10 2 15q0 26 -20 41.5t-51 15.5q-71 0 -100 -69l-110 46q24 64 84.5 99.5t142.5 35.5q88 0 141 -41.5t53 -113.5q0 -16 -3 -34l-29 -167q-1 -5 -1 -14q0 -30 28 -30q20 0 35 7l-20 -110
q-39 -17 -83 -17q-39 0 -66 22.5t-32 55.5q-26 -37 -59 -57.5t-90 -20.5q-42 0 -75.5 19zM320 210l2 11l-100 -18q-60 -12 -60 -53q0 -21 14.5 -34.5t39.5 -13.5q84 0 104 108zM373 566h-116l114 166h164z" />
    <glyph glyph-name="abreve.ss01" horiz-adv-x="554" 
d="M86.5 7q-33.5 19 -51.5 52t-18 72q0 79 52.5 119t150.5 53l119 16l1 5q2 10 2 15q0 26 -20 41.5t-51 15.5q-71 0 -100 -69l-110 46q24 64 84.5 99.5t142.5 35.5q88 0 141 -41.5t53 -113.5q0 -16 -3 -34l-29 -167q-1 -5 -1 -14q0 -30 28 -30q20 0 35 7l-20 -110
q-39 -17 -83 -17q-39 0 -66 22.5t-32 55.5q-26 -37 -59 -57.5t-90 -20.5q-42 0 -75.5 19zM320 210l2 11l-100 -18q-60 -12 -60 -53q0 -21 14.5 -34.5t39.5 -13.5q84 0 104 108zM239 594q-29 28 -29 74q0 7 2 23h84q-1 -4 -1 -12q0 -17 8.5 -26.5t22.5 -9.5q18 0 29.5 13
t15.5 35h84q-20 -125 -140 -125q-47 0 -76 28z" />
    <glyph glyph-name="acircumflex.ss01" horiz-adv-x="554" 
d="M86.5 7q-33.5 19 -51.5 52t-18 72q0 79 52.5 119t150.5 53l119 16l1 5q2 10 2 15q0 26 -20 41.5t-51 15.5q-71 0 -100 -69l-110 46q24 64 84.5 99.5t142.5 35.5q88 0 141 -41.5t53 -113.5q0 -16 -3 -34l-29 -167q-1 -5 -1 -14q0 -30 28 -30q20 0 35 7l-20 -110
q-39 -17 -83 -17q-39 0 -66 22.5t-32 55.5q-26 -37 -59 -57.5t-90 -20.5q-42 0 -75.5 19zM320 210l2 11l-100 -18q-60 -12 -60 -53q0 -21 14.5 -34.5t39.5 -13.5q84 0 104 108zM252 566h-104l142 166h106l84 -166h-94l-56 75z" />
    <glyph glyph-name="adieresis.ss01" horiz-adv-x="554" 
d="M86.5 7q-33.5 19 -51.5 52t-18 72q0 79 52.5 119t150.5 53l119 16l1 5q2 10 2 15q0 26 -20 41.5t-51 15.5q-71 0 -100 -69l-110 46q24 64 84.5 99.5t142.5 35.5q88 0 141 -41.5t53 -113.5q0 -16 -3 -34l-29 -167q-1 -5 -1 -14q0 -30 28 -30q20 0 35 7l-20 -110
q-39 -17 -83 -17q-39 0 -66 22.5t-32 55.5q-26 -37 -59 -57.5t-90 -20.5q-42 0 -75.5 19zM320 210l2 11l-100 -18q-60 -12 -60 -53q0 -21 14.5 -34.5t39.5 -13.5q84 0 104 108zM150 585q-24 24 -24 57q0 34 24 58t58 24t58 -24t24 -58q0 -33 -24 -57t-58 -24t-58 24z
M391 585q-24 24 -24 57q0 34 24 58t57 24q34 0 58 -24t24 -58q0 -33 -24 -57t-58 -24q-33 0 -57 24z" />
    <glyph glyph-name="agrave.ss01" horiz-adv-x="554" 
d="M86.5 7q-33.5 19 -51.5 52t-18 72q0 79 52.5 119t150.5 53l119 16l1 5q2 10 2 15q0 26 -20 41.5t-51 15.5q-71 0 -100 -69l-110 46q24 64 84.5 99.5t142.5 35.5q88 0 141 -41.5t53 -113.5q0 -16 -3 -34l-29 -167q-1 -5 -1 -14q0 -30 28 -30q20 0 35 7l-20 -110
q-39 -17 -83 -17q-39 0 -66 22.5t-32 55.5q-26 -37 -59 -57.5t-90 -20.5q-42 0 -75.5 19zM320 210l2 11l-100 -18q-60 -12 -60 -53q0 -21 14.5 -34.5t39.5 -13.5q84 0 104 108zM370 566h-108l-110 166h156z" />
    <glyph glyph-name="amacron.ss01" horiz-adv-x="554" 
d="M86.5 7q-33.5 19 -51.5 52t-18 72q0 79 52.5 119t150.5 53l119 16l1 5q2 10 2 15q0 26 -20 41.5t-51 15.5q-71 0 -100 -69l-110 46q24 64 84.5 99.5t142.5 35.5q88 0 141 -41.5t53 -113.5q0 -16 -3 -34l-29 -167q-1 -5 -1 -14q0 -30 28 -30q20 0 35 7l-20 -110
q-39 -17 -83 -17q-39 0 -66 22.5t-32 55.5q-26 -37 -59 -57.5t-90 -20.5q-42 0 -75.5 19zM320 210l2 11l-100 -18q-60 -12 -60 -53q0 -21 14.5 -34.5t39.5 -13.5q84 0 104 108zM447 603h-253l18 101h253z" />
    <glyph glyph-name="aogonek.ss01" horiz-adv-x="554" 
d="M492 5q-36 -18 -59.5 -43.5t-23.5 -51.5q0 -16 9 -24t23 -8q19 0 36 8l-14 -79q-24 -11 -57 -11q-38 0 -64.5 24t-26.5 64q0 67 57 110q-25 9 -41 28.5t-20 43.5q-26 -37 -59 -57.5t-90 -20.5q-42 0 -75.5 19t-51.5 52t-18 72q0 79 52.5 119t150.5 53l119 16l1 5
q2 10 2 15q0 26 -20 41.5t-51 15.5q-71 0 -100 -69l-110 46q24 64 84.5 99.5t142.5 35.5q88 0 141 -41.5t53 -113.5q0 -16 -3 -34l-29 -167q-1 -5 -1 -14q0 -30 28 -30q20 0 35 7zM323 226l-100 -18q-61 -12 -61 -58q0 -21 14.5 -34.5t39.5 -13.5q84 0 104 108z" />
    <glyph glyph-name="aring.ss01" horiz-adv-x="554" 
d="M86.5 7q-33.5 19 -51.5 52t-18 72q0 79 52.5 119t150.5 53l119 16l1 5q2 10 2 15q0 26 -20 41.5t-51 15.5q-71 0 -100 -69l-110 46q24 64 84.5 99.5t142.5 35.5q88 0 141 -41.5t53 -113.5q0 -16 -3 -34l-29 -167q-1 -5 -1 -14q0 -30 28 -30q20 0 35 7l-20 -110
q-39 -17 -83 -17q-39 0 -66 22.5t-32 55.5q-26 -37 -59 -57.5t-90 -20.5q-42 0 -75.5 19zM320 210l2 11l-100 -18q-60 -12 -60 -53q0 -21 14.5 -34.5t39.5 -13.5q84 0 104 108zM251 581.5q-26 25.5 -26 65.5q0 54 32 87.5t89 33.5q39 0 64.5 -25.5t25.5 -65.5
q0 -54 -32 -87.5t-88 -33.5q-39 0 -65 25.5zM354.5 635.5q11.5 11.5 11.5 31.5q0 13 -8.5 23t-21.5 10q-18 0 -29.5 -11.5t-11.5 -31.5q0 -13 8.5 -23t22.5 -10q17 0 28.5 11.5z" />
    <glyph glyph-name="atilde.ss01" horiz-adv-x="554" 
d="M86.5 7q-33.5 19 -51.5 52t-18 72q0 79 52.5 119t150.5 53l119 16l1 5q2 10 2 15q0 26 -20 41.5t-51 15.5q-71 0 -100 -69l-110 46q24 64 84.5 99.5t142.5 35.5q88 0 141 -41.5t53 -113.5q0 -16 -3 -34l-29 -167q-1 -5 -1 -14q0 -30 28 -30q20 0 35 7l-20 -110
q-39 -17 -83 -17q-39 0 -66 22.5t-32 55.5q-26 -37 -59 -57.5t-90 -20.5q-42 0 -75.5 19zM320 210l2 11l-100 -18q-60 -12 -60 -53q0 -21 14.5 -34.5t39.5 -13.5q84 0 104 108zM157 622q32 89 117 89q19 0 33.5 -4.5t34.5 -14.5q11 -5 23 -9.5t23 -4.5q15 0 24.5 7.5
t15.5 24.5l73 -31q-16 -45 -45 -66.5t-72 -21.5q-19 0 -33 5t-33 14q-12 5 -24 9.5t-23 4.5q-15 0 -25 -8t-16 -25z" />
    <glyph glyph-name="ae.ss01" horiz-adv-x="860" 
d="M730.5 481.5q48.5 -26.5 74 -73.5t25.5 -107q0 -26 -4 -49l-7 -40h-352q4 -47 28.5 -75.5t66.5 -28.5q38 0 64 15.5t46 47.5l117 -51q-38 -67 -94.5 -99.5t-145.5 -32.5q-62 0 -109.5 27.5t-74.5 75.5q-59 -103 -195 -103q-45 0 -80 19t-54 52t-19 72q0 79 52.5 119
t150.5 53l119 16l1 5q2 10 2 15q0 26 -20 41.5t-51 15.5q-71 0 -100 -69l-110 46q24 64 84.5 99.5t142.5 35.5q50 0 89.5 -14t64.5 -40q73 54 175 54q65 0 113.5 -26.5zM528.5 370q-29.5 -21 -45.5 -58h210q-3 34 -28.5 56.5t-62.5 22.5q-44 0 -73.5 -21zM323 226l-100 -18
q-61 -12 -61 -58q0 -21 14.5 -34.5t39.5 -13.5q84 0 104 108z" />
    <glyph glyph-name="aeacute.ss01" horiz-adv-x="860" 
d="M730.5 481.5q48.5 -26.5 74 -73.5t25.5 -107q0 -26 -4 -49l-7 -40h-352q4 -47 28.5 -75.5t66.5 -28.5q38 0 64 15.5t46 47.5l117 -51q-38 -67 -94.5 -99.5t-145.5 -32.5q-62 0 -109.5 27.5t-74.5 75.5q-59 -103 -195 -103q-45 0 -80 19t-54 52t-19 72q0 79 52.5 119
t150.5 53l119 16l1 5q2 10 2 15q0 26 -20 41.5t-51 15.5q-71 0 -100 -69l-110 46q24 64 84.5 99.5t142.5 35.5q50 0 89.5 -14t64.5 -40q73 54 175 54q65 0 113.5 -26.5zM528.5 370q-29.5 -21 -45.5 -58h210q-3 34 -28.5 56.5t-62.5 22.5q-44 0 -73.5 -21zM323 226l-100 -18
q-61 -12 -61 -58q0 -21 14.5 -34.5t39.5 -13.5q84 0 104 108zM523 566h-116l114 166h164z" />
    <glyph glyph-name="l.ss02" horiz-adv-x="254" 
d="M155 0h-144l124 700h144z" />
    <glyph glyph-name="lacute.ss02" horiz-adv-x="254" 
d="M155 0h-144l124 700h144zM278 770h-116l114 166h164z" />
    <glyph glyph-name="lcaron.ss02" horiz-adv-x="439" 
d="M155 0h-144l124 700h144zM356 436l-28 29l40 40q30 30 35 50q-22 4 -39 24.5t-17 44.5q0 38 23 61t61 23q33 0 53 -22t20 -59q0 -39 -22 -70.5t-67 -69.5z" />
    <glyph glyph-name="uni013C.ss02" horiz-adv-x="254" 
d="M155 0h-144l124 700h144zM9 -268l-19 18l22 25q18 22 26 42q-17 3 -29 18.5t-12 34.5q0 27 17.5 45.5t49.5 18.5q24 0 39.5 -17t15.5 -42q0 -35 -19.5 -63.5t-54.5 -53.5z" />
    <glyph glyph-name="ldot.ss02" horiz-adv-x="487" 
d="M155 0h-144l124 700h144zM321 283.5q-28 27.5 -28 66.5q0 38 28 66t66 28t66 -28t28 -66q0 -39 -28 -66.5t-66 -27.5t-66 27.5z" />
    <glyph glyph-name="lslash.ss02" horiz-adv-x="254" 
d="M235 452l79 55l-26 -145l-79 -55l-54 -307h-144l34 193l-78 -54l26 146l78 54l64 361h144z" />
    <glyph glyph-name="f_l.ss02" horiz-adv-x="652" 
d="M302 520l-4 -24h126l-22 -121h-126l-66 -375h-144l66 375h-92l22 121h92l5 31q17 96 68.5 140.5t145.5 44.5q47 0 87 -12l-24 -132q-34 12 -63 12q-60 0 -71 -60zM553 0h-144l124 700h144z" />
    <glyph glyph-name="fl.ss02" horiz-adv-x="652" 
d="M302 520l-4 -24h126l-22 -121h-126l-66 -375h-144l66 375h-92l22 121h92l5 31q17 96 68.5 140.5t145.5 44.5q47 0 87 -12l-24 -132q-34 12 -63 12q-60 0 -71 -60zM553 0h-144l124 700h144z" />
    <glyph glyph-name="ordfeminine.ss01" horiz-adv-x="368" 
d="M93 398.5q-27 24.5 -27 64.5q0 94 138 113l74 10l1 5q3 17 -9.5 30t-36.5 13q-25 0 -42 -11.5t-25 -31.5l-72 29q41 87 150 87q57 0 92.5 -26.5t35.5 -69.5q0 -6 -2 -18l-20 -113q-1 -3 -1 -8q0 -10 5.5 -15t14.5 -5q13 0 23 5l-12 -71q-14 -7 -25.5 -9.5t-29.5 -2.5
q-26 0 -45 14t-20 35q-34 -49 -99 -49q-41 0 -68 24.5zM266 517l2 8l-63 -9q-44 -6 -44 -38q0 -12 9.5 -21t23.5 -9q56 0 72 69z" />
    <glyph glyph-name="uni0414.loclBGR" horiz-adv-x="773" 
d="M551 700l108 -550h68l-51 -292h-146l25 142h-424l-25 -142h-146l51 292h69l301 550h170zM437 507l-188 -357h252z" />
    <glyph glyph-name="uni041B.loclBGR" horiz-adv-x="720" 
d="M155 0h-184l381 700h173l136 -700h-175l-80 487z" />
    <glyph glyph-name="uni0432.loclBGR" horiz-adv-x="519" 
d="M89.5 32.5q-47.5 46.5 -47.5 121.5q0 25 4 45l56 316q18 100 79.5 149.5t162.5 49.5q87 0 132 -43.5t45 -110.5q0 -18 -3 -36l-3 -16q-9 -47 -36.5 -80.5t-67.5 -51.5q31 -16 52.5 -50.5t21.5 -79.5q0 -14 -3 -31l-4 -23q-19 -108 -78.5 -157t-173.5 -49
q-89 0 -136.5 46.5zM290 426q39 0 65 21t33 61l3 18q1 5 1 13q0 25 -15.5 40.5t-45.5 15.5q-34 0 -55 -21t-28 -60l-16 -88h58zM308.5 131.5q21.5 21.5 28.5 68.5l4 25q1 5 1 15q0 32 -19.5 51.5t-51.5 19.5h-59l-19 -110q-2 -9 -2 -26q0 -31 15 -48t41 -17q40 0 61.5 21.5z
" />
    <glyph glyph-name="uni0433.loclBGR" horiz-adv-x="504" 
d="M112 6q-43 20 -67 54.5t-24 75.5q0 80 51 116.5t154 54.5q59 10 82.5 22.5t23.5 29.5t-15.5 26t-44.5 9q-28 0 -55 -15.5t-45 -41.5l-99 60q65 109 208 109q56 0 96.5 -19t61 -51t20.5 -71q0 -71 -45.5 -106.5t-134.5 -52.5q-65 -12 -91 -24.5t-26 -32.5q0 -38 58 -38
q69 0 109 67l114 -59q-37 -65 -89 -99t-146 -34q-53 0 -96 20z" />
    <glyph glyph-name="uni0434.loclBGR" horiz-adv-x="589" 
d="M74 -185.5q-55 30.5 -85 85.5l127 81q33 -62 111 -62q54 0 85.5 31t40.5 89l3 19q-44 -57 -134 -57q-57 0 -99 30t-64.5 81.5t-22.5 113.5q0 31 6 62q18 99 84.5 159.5t169.5 60.5q44 0 78 -17t51 -43l9 48h144l-79 -449q-24 -138 -93.5 -200.5t-199.5 -62.5
q-77 0 -132 30.5zM368.5 180.5q30.5 38.5 30.5 92.5q0 44 -25 71.5t-67 27.5q-54 0 -87 -35t-33 -91q0 -46 26 -75t68 -29q57 0 87.5 38.5z" />
    <glyph glyph-name="uni0436.loclBGR" horiz-adv-x="780" 
d="M148 0h-166l194 258l-106 238h157l82 -204h17l72 408h144l-72 -408h17l147 204h164l-196 -253l108 -243h-150l-89 204h-17l-36 -204h-144l36 204h-17z" />
    <glyph glyph-name="uni0437.loclBGR" horiz-adv-x="525" 
d="M32 -164.5q-54 53.5 -50 155.5l137 23q-4 -53 16.5 -81.5t64.5 -28.5q54 0 83 35t29 93q0 41 -23.5 62.5t-62.5 21.5h-52l19 108h49q54 0 85 28t31 79q0 29 -19.5 46t-55.5 17q-41 0 -69 -24.5t-35 -66.5l-122 32q22 78 83.5 125.5t161.5 47.5q88 0 138.5 -47t50.5 -121
q0 -120 -110 -165q32 -15 52.5 -55t20.5 -84q0 -122 -68 -188t-199 -66q-101 0 -155 53.5z" />
    <glyph glyph-name="uni0438.loclBGR" 
d="M82.5 31.5q-41.5 43.5 -41.5 115.5q0 26 4 47l54 302h144l-50 -285q-2 -12 -2 -19q0 -32 20 -52t55 -20q37 0 61.5 24t32.5 67l50 285h144l-88 -496h-144l9 49q-20 -28 -54 -44.5t-77 -16.5q-76 0 -117.5 43.5z" />
    <glyph glyph-name="uni0439.loclBGR" 
d="M82.5 31.5q-41.5 43.5 -41.5 115.5q0 26 4 47l54 302h144l-50 -285q-2 -12 -2 -19q0 -32 20 -52t55 -20q37 0 61.5 24t32.5 67l50 285h144l-88 -496h-144l9 49q-20 -28 -54 -44.5t-77 -16.5q-76 0 -117.5 43.5zM262 597.5q-29 31.5 -29 77.5q0 17 2 25h84q-1 -5 -1 -16
q0 -19 9 -30t26 -11q22 0 35.5 15.5t18.5 41.5h84q-13 -68 -47.5 -101t-104.5 -33q-48 0 -77 31.5z" />
    <glyph glyph-name="uni043A.loclBGR" horiz-adv-x="525" 
d="M373 496h170l-195 -250l107 -246h-155l-85 204h-24l-36 -204h-144l124 700h144l-72 -408h16z" />
    <glyph glyph-name="uni043B.loclBGR" horiz-adv-x="540" 
d="M125 0h-160l269 496h158l96 -496h-152l-51 313z" />
    <glyph glyph-name="uni043F.loclBGR" 
d="M11 0l88 496h144l-9 -49q20 28 54 44.5t77 16.5q76 0 117.5 -43.5t41.5 -115.5q0 -26 -4 -47l-54 -302h-144l50 285q2 12 2 19q0 32 -20 52t-55 20q-37 0 -61.5 -24t-32.5 -67l-50 -285h-144z" />
    <glyph glyph-name="uni0442.loclBGR" horiz-adv-x="826" 
d="M11 0l88 496h143l-9 -49q20 28 55 44.5t77 16.5q43 0 74.5 -17t48.5 -50q22 29 59.5 48t89.5 19q68 0 108.5 -43t40.5 -112q0 -22 -4 -42l-55 -311h-143l53 298q1 5 1 16q0 27 -17 44.5t-44 17.5q-33 0 -54.5 -20.5t-28.5 -57.5l-53 -298h-144l53 298q1 5 1 16
q0 27 -16.5 44.5t-43.5 17.5q-34 0 -55.5 -20.5t-28.5 -57.5l-53 -298h-143z" />
    <glyph glyph-name="uni0446.loclBGR" horiz-adv-x="595" 
d="M376 -122l21 122h-75l9 49q-20 -28 -54 -44.5t-77 -16.5q-76 0 -117.5 43.5t-41.5 115.5q0 26 4 47l54 302h144l-50 -285q-2 -12 -2 -19q0 -32 20 -52t55 -20q37 0 61.5 24t32.5 67l50 285h144l-65 -366h65l-44 -252h-134z" />
    <glyph glyph-name="uni0448.loclBGR" horiz-adv-x="826" 
d="M80.5 31q-40.5 43 -40.5 112q0 22 4 42l55 311h143l-53 -298q-1 -5 -1 -16q0 -27 17 -44.5t44 -17.5q33 0 54.5 20.5t28.5 57.5l53 298h144l-53 -298q-1 -5 -1 -16q0 -27 16.5 -44.5t43.5 -17.5q34 0 55.5 20.5t28.5 57.5l53 298h143l-88 -496h-143l9 49
q-20 -28 -55 -44.5t-77 -16.5q-43 0 -74.5 17t-48.5 50q-22 -29 -59.5 -48t-89.5 -19q-68 0 -108.5 43z" />
    <glyph glyph-name="uni0449.loclBGR" horiz-adv-x="856" 
d="M637 -122l21 122h-74l9 49q-20 -28 -55 -44.5t-77 -16.5q-43 0 -74.5 17t-48.5 50q-22 -29 -59.5 -48t-89.5 -19q-68 0 -108.5 43t-40.5 112q0 22 4 42l55 311h143l-53 -298q-1 -5 -1 -16q0 -27 17 -44.5t44 -17.5q33 0 54.5 20.5t28.5 57.5l53 298h144l-53 -298
q-1 -5 -1 -16q0 -27 16.5 -44.5t43.5 -17.5q34 0 55.5 20.5t28.5 57.5l53 298h143l-65 -366h65l-44 -252h-134z" />
    <glyph glyph-name="uni044C.loclBGR" horiz-adv-x="538" 
d="M95 33q-52 47 -52 124q0 23 4 43l53 296h144l-30 -170q47 20 102 20q76 0 122 -43t46 -114q0 -100 -62 -151.5t-181 -51.5q-94 0 -146 47zM315 120.5q24 20.5 24 56.5q0 26 -16.5 40.5t-48.5 14.5q-21 0 -42.5 -5.5t-37.5 -14.5l-7 -38q-1 -5 -1 -15q0 -27 17.5 -43
t47.5 -16q40 0 64 20.5z" />
    <glyph glyph-name="uni044A.loclBGR" horiz-adv-x="637" 
d="M194 33q-52 47 -52 124q0 23 4 43l31 174h-135l22 122h279l-30 -170q47 20 102 20q76 0 122 -43t46 -114q0 -100 -62 -151.5t-181 -51.5q-94 0 -146 47zM414 120.5q24 20.5 24 56.5q0 26 -16.5 40.5t-48.5 14.5q-21 0 -42.5 -5.5t-37.5 -14.5l-7 -38q-1 -5 -1 -15
q0 -27 17.5 -43t47.5 -16q40 0 64 20.5z" />
    <glyph glyph-name="uni044E.loclBGR" horiz-adv-x="814" 
d="M669.5 478.5q52.5 -29.5 81 -82t28.5 -119.5q0 -24 -5 -56q-18 -104 -92.5 -168.5t-192.5 -64.5q-65 0 -115.5 27t-80 76t-32.5 111h-70l-36 -202h-144l124 700h144l-65 -368h66q30 80 99 128t170 48q68 0 120.5 -29.5zM629 269q0 46 -25 74.5t-71 28.5q-45 0 -78 -31
t-42 -81q-3 -16 -3 -32q0 -46 25 -75t70 -29t78.5 31t42.5 81q3 17 3 33z" />
    <glyph glyph-name="zero.lf" horiz-adv-x="653" 
d="M112 66q-62 80 -62 210q0 45 10 107q16 93 59.5 168t114 119t162.5 44q119 0 181 -80.5t62 -210.5q0 -46 -10 -106q-17 -94 -60.5 -168.5t-113.5 -118.5t-163 -44q-118 0 -180 80zM415 184.5q44 58.5 60 148.5q7 38 7 81q0 70 -25 115t-78 45q-62 0 -106.5 -59
t-59.5 -147q-7 -38 -7 -81q0 -71 25 -116t78 -45q62 0 106 58.5z" />
    <glyph glyph-name="one.lf" horiz-adv-x="402" 
d="M299 0h-154l95 539l-184 -110l28 161l185 110h154z" />
    <glyph glyph-name="two.lf" horiz-adv-x="546" 
d="M16 0l23 131l248 208q56 47 83 84t27 84q0 34 -21.5 55t-55.5 21q-82 0 -116 -106l-124 36q21 96 86.5 147.5t172.5 51.5q100 0 155.5 -52.5t55.5 -139.5q0 -55 -18 -98t-50.5 -79t-88.5 -83l-154 -129h247l-23 -131h-447z" />
    <glyph glyph-name="three.lf" horiz-adv-x="561" 
d="M82.5 44q-58.5 56 -61.5 150l138 28q3 -45 27 -73t65 -28q53 0 84 32t31 85q0 50 -36 75.5t-97 25.5l20 114l131 124h-268l22 123h432l-22 -122l-152 -138q62 -20 92.5 -69.5t30.5 -116.5q0 -25 -5 -57q-17 -98 -87.5 -153.5t-184.5 -55.5q-101 0 -159.5 56z" />
    <glyph glyph-name="four.lf" horiz-adv-x="582" 
d="M421 0h-143l25 141h-298l23 131l374 428h143l-76 -429h95l-23 -130h-95zM364 486l-183 -215h145z" />
    <glyph glyph-name="five.lf" horiz-adv-x="571" 
d="M144 13.5q-50 25.5 -80.5 71t-35.5 103.5l147 33q5 -41 31.5 -67.5t66.5 -26.5q52 0 82.5 30.5t30.5 86.5q0 42 -23.5 67t-63.5 25q-58 0 -100 -51l-124 43l98 372h409l-23 -127h-288l-45 -147q49 38 124 38q87 0 136.5 -56t49.5 -146q0 -28 -6 -60q-18 -102 -89.5 -158
t-184.5 -56q-62 0 -112 25.5z" />
    <glyph glyph-name="six.lf" horiz-adv-x="555" 
d="M134 15q-49 27 -75.5 76t-26.5 112q0 22 5 54q10 57 39 103.5t90 118.5l187 221h160l-221 -258q9 4 27 4q59 0 103 -27t67.5 -74t23.5 -105q0 -24 -5 -54q-16 -93 -86.5 -145.5t-172.5 -52.5q-66 0 -115 27zM344 145q33 34 33 83q0 42 -26.5 68.5t-66.5 26.5
q-44 0 -75 -26t-39 -71q-2 -16 -2 -24q0 -41 25 -66t66 -25q52 0 85 34z" />
    <glyph glyph-name="seven.lf" horiz-adv-x="492" 
d="M206 0h-150l324 573h-296l23 127h438l-23 -127z" />
    <glyph glyph-name="eight.lf" horiz-adv-x="551" 
d="M133.5 13.5q-49.5 25.5 -77 70t-27.5 99.5q0 22 4 41q10 55 46 96.5t84 61.5q-53 47 -53 121q0 13 4 39q13 77 76.5 121.5t159.5 44.5q56 0 98.5 -23.5t65.5 -64.5t23 -92q0 -19 -3 -39q-7 -42 -33.5 -74t-66.5 -53q34 -20 52.5 -59t18.5 -85q0 -13 -4 -41
q-15 -87 -81.5 -138t-174.5 -51q-62 0 -111.5 25.5zM380.5 443q27.5 27 27.5 69q0 33 -20.5 55.5t-54.5 22.5q-43 0 -71 -26.5t-28 -68.5q0 -35 21 -57t55 -22q43 0 70.5 27zM335.5 144.5q31.5 30.5 31.5 75.5q0 37 -25 61t-61 24q-42 0 -71 -22t-36 -63q-2 -14 -2 -20
q0 -38 24.5 -62t61.5 -24q46 0 77.5 30.5z" />
    <glyph glyph-name="nine.lf" horiz-adv-x="555" 
d="M299 258q-9 -4 -27 -4q-59 0 -103 27t-67.5 74t-23.5 105q0 24 5 54q16 93 86.5 145.5t172.5 52.5q66 0 115 -27t75.5 -76t26.5 -112q0 -22 -5 -54q-10 -57 -39 -103.5t-90 -118.5l-187 -221h-160zM382 403q31 26 39 71q2 16 2 24q0 41 -25 66t-66 25q-52 0 -85 -34
t-33 -83q0 -42 26.5 -68.5t66.5 -26.5q44 0 75 26z" />
    <glyph glyph-name="zero.tf" horiz-adv-x="560" 
d="M91 61.5q-53 75.5 -53 199.5q0 62 12 126q17 94 57 168t100 116.5t135 42.5q110 0 163.5 -77t53.5 -202q0 -59 -12 -124q-17 -92 -57 -166t-100.5 -116.5t-135.5 -42.5q-110 0 -163 75.5zM341.5 187q35.5 61 51.5 148q9 50 9 102q0 61 -16.5 99t-52.5 38
q-45 0 -80.5 -63.5t-50.5 -152.5q-9 -58 -9 -98q0 -60 16.5 -97t53.5 -37q43 0 78.5 61z" />
    <glyph glyph-name="one.tf" horiz-adv-x="560" 
d="M388 0h-154l95 539l-210 -98l28 161l211 98h154z" />
    <glyph glyph-name="two.tf" horiz-adv-x="560" 
d="M24 0l23 131l248 208q56 47 83 84t27 84q0 34 -21.5 55t-55.5 21q-82 0 -116 -106l-124 36q21 96 86.5 147.5t172.5 51.5q100 0 155.5 -52.5t55.5 -139.5q0 -55 -18 -98t-50.5 -79t-88.5 -83l-154 -129h247l-23 -131h-447z" />
    <glyph glyph-name="three.tf" horiz-adv-x="560" 
d="M84.5 44q-58.5 56 -61.5 150l138 28q3 -45 27 -73t65 -28q53 0 84 32t31 85q0 50 -36 75.5t-97 25.5l20 114l131 124h-268l22 123h432l-22 -122l-152 -138q62 -20 92.5 -69.5t30.5 -116.5q0 -25 -5 -57q-17 -98 -87.5 -153.5t-184.5 -55.5q-101 0 -159.5 56z" />
    <glyph glyph-name="four.tf" horiz-adv-x="560" 
d="M405 0h-143l25 141h-278l23 131l348 428h149l-76 -429h75l-23 -130h-75zM348 486l-163 -215h125z" />
    <glyph glyph-name="five.tf" horiz-adv-x="560" 
d="M134 13.5q-50 25.5 -80.5 71t-35.5 103.5l147 33q5 -41 31.5 -67.5t66.5 -26.5q52 0 82.5 30.5t30.5 86.5q0 42 -23.5 67t-63.5 25q-58 0 -100 -51l-124 43l98 372h409l-23 -127h-288l-45 -147q49 38 124 38q87 0 136.5 -56t49.5 -146q0 -28 -6 -60q-18 -102 -89.5 -158
t-184.5 -56q-62 0 -112 25.5z" />
    <glyph glyph-name="six.tf" horiz-adv-x="560" 
d="M135 15q-49 27 -75.5 76t-26.5 112q0 22 5 54q10 57 39 103.5t90 118.5l187 221h160l-221 -258q9 4 27 4q59 0 103 -27t67.5 -74t23.5 -105q0 -24 -5 -54q-16 -93 -86.5 -145.5t-172.5 -52.5q-66 0 -115 27zM345 145q33 34 33 83q0 42 -26.5 68.5t-66.5 26.5
q-44 0 -75 -26t-39 -71q-2 -16 -2 -24q0 -41 25 -66t66 -25q52 0 85 34z" />
    <glyph glyph-name="seven.tf" horiz-adv-x="560" 
d="M225 0h-156l358 573h-330l23 127h478l-23 -127z" />
    <glyph glyph-name="eight.tf" horiz-adv-x="560" 
d="M137.5 13.5q-49.5 25.5 -77 70t-27.5 99.5q0 22 4 41q10 55 46 96.5t84 61.5q-53 47 -53 121q0 13 4 39q13 77 76.5 121.5t159.5 44.5q56 0 98.5 -23.5t65.5 -64.5t23 -92q0 -19 -3 -39q-7 -42 -33.5 -74t-66.5 -53q34 -20 52.5 -59t18.5 -85q0 -13 -4 -41
q-15 -87 -81.5 -138t-174.5 -51q-62 0 -111.5 25.5zM384.5 443q27.5 27 27.5 69q0 33 -20.5 55.5t-54.5 22.5q-43 0 -71 -26.5t-28 -68.5q0 -35 21 -57t55 -22q43 0 70.5 27zM339.5 144.5q31.5 30.5 31.5 75.5q0 37 -25 61t-61 24q-42 0 -71 -22t-36 -63q-2 -14 -2 -20
q0 -38 24.5 -62t61.5 -24q46 0 77.5 30.5z" />
    <glyph glyph-name="nine.tf" horiz-adv-x="560" 
d="M301 258q-9 -4 -27 -4q-59 0 -103 27t-67.5 74t-23.5 105q0 24 5 54q16 93 86.5 145.5t172.5 52.5q66 0 115 -27t75.5 -76t26.5 -112q0 -22 -5 -54q-10 -57 -39 -103.5t-90 -118.5l-187 -221h-160zM384 403q31 26 39 71q2 16 2 24q0 41 -25 66t-66 25q-52 0 -85 -34
t-33 -83q0 -42 26.5 -68.5t66.5 -26.5q44 0 75 26z" />
    <glyph glyph-name="zero.dnom" horiz-adv-x="351" 
d="M38.5 36.5q-35.5 43.5 -35.5 111.5q0 22 5 50q13 73 59.5 116t118.5 43q65 0 100 -43t35 -112q0 -27 -4 -48q-12 -73 -59.5 -117t-119.5 -44q-64 0 -99.5 43.5zM189 109.5q16 22.5 22 56.5q3 17 3 33q0 28 -9.5 46t-29.5 18q-24 0 -40 -22.5t-22 -55.5q-3 -16 -3 -33
q0 -29 9.5 -47t29.5 -18q24 0 40 22.5z" />
    <glyph glyph-name="one.dnom" horiz-adv-x="219" 
d="M153 0h-103l43 247l-93 -52l19 105l93 50h103z" />
    <glyph glyph-name="two.dnom" horiz-adv-x="282" 
d="M-14 0l15 86l128 100q38 29 38 55q0 13 -8.5 21t-22.5 8q-33 0 -42 -40l-81 22q10 48 44.5 76t91.5 28q54 0 85 -28.5t31 -73.5q0 -41 -17.5 -67.5t-61.5 -60.5l-51 -40h103l-15 -86h-237z" />
    <glyph glyph-name="three.dnom" horiz-adv-x="290" 
d="M19.5 24.5q-33.5 30.5 -34.5 77.5l89 17q2 -18 12 -29t26 -11q20 0 31.5 12.5t11.5 33.5q0 40 -62 40l10 59l49 47h-121l14 79h227l-14 -79l-60 -53q25 -8 40 -30.5t15 -51.5q0 -64 -38.5 -103t-109.5 -39q-52 0 -85.5 30.5z" />
    <glyph glyph-name="four.dnom" horiz-adv-x="311" 
d="M210 0h-95l11 61h-149l14 80l186 209h95l-37 -209h48l-14 -80h-48zM154 222l-68 -81h54z" />
    <glyph glyph-name="five.dnom" horiz-adv-x="291" 
d="M29 22.5q-34 28.5 -39 72.5l96 20q3 -15 12 -23.5t24 -8.5q17 0 27 10.5t10 31.5q0 15 -8.5 23.5t-22.5 8.5q-11 0 -19.5 -5t-13.5 -13l-81 23l51 188h213l-14 -80h-136l-17 -53q9 7 23.5 11t28.5 4q46 0 70.5 -28t24.5 -73q0 -15 -3 -32q-9 -47 -44.5 -76t-93.5 -29
q-54 0 -88 28.5z" />
    <glyph glyph-name="six.dnom" horiz-adv-x="279" 
d="M23.5 25q-31.5 31 -31.5 79q0 38 15.5 67.5t44.5 64.5l95 114h95l-102 -125q45 0 73.5 -29t28.5 -73q0 -59 -39 -94t-100 -35q-48 0 -79.5 31zM141 83q12 12 12 31q0 15 -8.5 24.5t-23.5 9.5q-18 0 -29.5 -12t-11.5 -31q0 -15 8.5 -24.5t22.5 -9.5q18 0 30 12z" />
    <glyph glyph-name="seven.dnom" horiz-adv-x="253" 
d="M91 0h-94l158 270h-139l14 80h228l-14 -80z" />
    <glyph glyph-name="eight.dnom" horiz-adv-x="286" 
d="M22.5 22q-32.5 28 -32.5 69q0 35 19 60.5t45 35.5q-11 10 -18 25.5t-7 31.5q0 47 33 78.5t94 31.5q48 0 75.5 -26.5t27.5 -63.5q0 -57 -51 -82q16 -9 26 -28t10 -42q0 -56 -35.5 -87t-100.5 -31q-53 0 -85.5 28zM165 224q11 10 11 27q0 13 -7.5 21.5t-20.5 8.5
q-16 0 -27 -10t-11 -27q0 -13 7.5 -21.5t20.5 -8.5q16 0 27 10zM145 86q11 11 11 30q0 13 -9 21.5t-23 8.5q-18 0 -30 -11t-12 -29q0 -13 9 -22t23 -9q20 0 31 11z" />
    <glyph glyph-name="nine.dnom" horiz-adv-x="278" 
d="M112 125q-45 0 -73.5 29t-28.5 73q0 59 39 94t100 35q48 0 79.5 -31t31.5 -79q0 -38 -15.5 -67.5t-44.5 -64.5l-95 -114h-95zM160.5 214q11.5 12 11.5 31q0 15 -8.5 24.5t-22.5 9.5q-18 0 -30 -12t-12 -31q0 -15 8.5 -24.5t23.5 -9.5q18 0 29.5 12z" />
    <glyph glyph-name="zero.numr" horiz-adv-x="351" 
d="M100.5 386.5q-35.5 43.5 -35.5 111.5q0 22 5 50q13 73 59.5 116t118.5 43q65 0 100 -43t35 -112q0 -27 -4 -48q-12 -73 -59.5 -117t-119.5 -44q-64 0 -99.5 43.5zM251 459.5q16 22.5 22 56.5q3 17 3 33q0 28 -9.5 46t-29.5 18q-24 0 -40 -22.5t-22 -55.5q-3 -16 -3 -33
q0 -29 9.5 -47t29.5 -18q24 0 40 22.5z" />
    <glyph glyph-name="one.numr" horiz-adv-x="219" 
d="M215 350h-103l43 247l-93 -52l19 105l93 50h103z" />
    <glyph glyph-name="two.numr" horiz-adv-x="282" 
d="M48 350l15 86l128 100q38 29 38 55q0 13 -8.5 21t-22.5 8q-33 0 -42 -40l-81 22q10 48 44.5 76t91.5 28q54 0 85 -28.5t31 -73.5q0 -41 -17.5 -67.5t-61.5 -60.5l-51 -40h103l-15 -86h-237z" />
    <glyph glyph-name="three.numr" horiz-adv-x="290" 
d="M81.5 374.5q-33.5 30.5 -34.5 77.5l89 17q2 -18 12 -29t26 -11q20 0 31.5 12.5t11.5 33.5q0 40 -62 40l10 59l49 47h-121l14 79h227l-14 -79l-60 -53q25 -8 40 -30.5t15 -51.5q0 -64 -38.5 -103t-109.5 -39q-52 0 -85.5 30.5z" />
    <glyph glyph-name="four.numr" horiz-adv-x="311" 
d="M272 350h-95l11 61h-149l14 80l186 209h95l-37 -209h48l-14 -80h-48zM216 572l-68 -81h54z" />
    <glyph glyph-name="five.numr" horiz-adv-x="291" 
d="M91 372.5q-34 28.5 -39 72.5l96 20q3 -15 12 -23.5t24 -8.5q17 0 27 10.5t10 31.5q0 15 -8.5 23.5t-22.5 8.5q-11 0 -19.5 -5t-13.5 -13l-81 23l51 188h213l-14 -80h-136l-17 -53q9 7 23.5 11t28.5 4q46 0 70.5 -28t24.5 -73q0 -15 -3 -32q-9 -47 -44.5 -76t-93.5 -29
q-54 0 -88 28.5z" />
    <glyph glyph-name="six.numr" horiz-adv-x="279" 
d="M85.5 375q-31.5 31 -31.5 79q0 38 15.5 67.5t44.5 64.5l95 114h95l-102 -125q45 0 73.5 -29t28.5 -73q0 -59 -39 -94t-100 -35q-48 0 -79.5 31zM203 433q12 12 12 31q0 15 -8.5 24.5t-23.5 9.5q-18 0 -29.5 -12t-11.5 -31q0 -15 8.5 -24.5t22.5 -9.5q18 0 30 12z" />
    <glyph glyph-name="seven.numr" horiz-adv-x="253" 
d="M153 350h-94l158 270h-139l14 80h228l-14 -80z" />
    <glyph glyph-name="eight.numr" horiz-adv-x="286" 
d="M84.5 372q-32.5 28 -32.5 69q0 35 19 60.5t45 35.5q-11 10 -18 25.5t-7 31.5q0 47 33 78.5t94 31.5q48 0 75.5 -26.5t27.5 -63.5q0 -57 -51 -82q16 -9 26 -28t10 -42q0 -56 -35.5 -87t-100.5 -31q-53 0 -85.5 28zM227 574q11 10 11 27q0 13 -7.5 21.5t-20.5 8.5
q-16 0 -27 -10t-11 -27q0 -13 7.5 -21.5t20.5 -8.5q16 0 27 10zM207 436q11 11 11 30q0 13 -9 21.5t-23 8.5q-18 0 -30 -11t-12 -29q0 -13 9 -22t23 -9q20 0 31 11z" />
    <glyph glyph-name="nine.numr" horiz-adv-x="278" 
d="M174 475q-45 0 -73.5 29t-28.5 73q0 59 39 94t100 35q48 0 79.5 -31t31.5 -79q0 -38 -15.5 -67.5t-44.5 -64.5l-95 -114h-95zM222.5 564q11.5 12 11.5 31q0 15 -8.5 24.5t-22.5 9.5q-18 0 -30 -12t-12 -31q0 -15 8.5 -24.5t23.5 -9.5q18 0 29.5 12z" />
    <glyph glyph-name="uni030C.alt" horiz-adv-x="0" 
d="M-133 436l-28 29l40 40q30 30 35 50q-22 4 -39 24.5t-17 44.5q0 38 23 61t61 23q33 0 53 -22t20 -59q0 -39 -22 -70.5t-67 -69.5z" />
    <glyph glyph-name="brevecombcy" horiz-adv-x="0" 
d="M-154 597.5q-29 31.5 -29 77.5q0 17 2 25h84q-1 -5 -1 -16q0 -19 9 -30t26 -11q22 0 35.5 15.5t18.5 41.5h84q-13 -68 -47.5 -101t-104.5 -33q-48 0 -77 31.5z" />
    </font>
</defs>
</svg>
