<?xml version="1.0" standalone="no"?>
<!DOCTYPE svg PUBLIC "-//W3C//DTD SVG 1.1//EN" "http://www.w3.org/Graphics/SVG/1.1/DTD/svg11.dtd" >
<svg xmlns="http://www.w3.org/2000/svg" xmlns:xlink="http://www.w3.org/1999/xlink" version="1.1">
<metadata>
Created by FontForge 20170731 at Mon Sep  6 17:59:09 2021
 By Aleksey,,,
Copyright (c) 2020 by F. Hoffmann-La Roche AG. All rights reserved.
</metadata>
<defs>
<font id="RocheSans-Light" horiz-adv-x="198" >
  <font-face 
    font-family="Roche Sans Light"
    font-weight="300"
    font-stretch="normal"
    units-per-em="1000"
    panose-1="2 11 3 4 3 2 1 4 1 1"
    ascent="800"
    descent="-200"
    x-height="496"
    cap-height="700"
    bbox="-316 -229 1074 965"
    underline-thickness="50"
    underline-position="-150"
    unicode-range="U+000D-FB02"
  />
<missing-glyph horiz-adv-x="791" 
d="M608 123h-425l-173 200l173 200h425l173 -202zM36 321l156 -178h407l156 178l-156 182h-407z" />
    <glyph glyph-name="f_i" unicode="fi" horiz-adv-x="527" 
d="M184 641.5q-20 -20.5 -20 -58.5v-87h143v-50h-143v-446h-54v446h-90v50h90v86q0 61 34.5 95.5t91.5 34.5q35 0 71 -12v-54q-35 16 -67 16q-36 0 -56 -20.5zM393.5 616.5q-14.5 14.5 -14.5 33.5q0 20 14.5 34t34.5 14t34 -14t14 -34t-14 -34t-34 -14t-34.5 14.5zM455 0
h-54v496h54v-496z" />
    <glyph glyph-name="f_l" unicode="fl" horiz-adv-x="564" 
d="M184 641.5q-20 -20.5 -20 -58.5v-87h143v-50h-143v-446h-54v446h-90v50h90v86q0 61 34.5 95.5t91.5 34.5q35 0 71 -12v-54q-35 16 -67 16q-36 0 -56 -20.5zM425.5 18.5q-24.5 30.5 -24.5 82.5v599h54v-600q0 -29 12 -45.5t35 -16.5q19 0 45 12v-51q-22 -11 -53 -11
q-44 0 -68.5 30.5z" />
    <glyph glyph-name=".notdef" horiz-adv-x="791" 
d="M608 123h-425l-173 200l173 200h425l173 -202zM36 321l156 -178h407l156 178l-156 182h-407z" />
    <glyph glyph-name=".null" horiz-adv-x="0" 
 />
    <glyph glyph-name="nonmarkingreturn" unicode="&#xd;" horiz-adv-x="600" 
 />
    <glyph glyph-name="space" unicode=" " horiz-adv-x="210" 
 />
    <glyph glyph-name="exclam" unicode="!" horiz-adv-x="241" 
d="M148 188h-55v512h55v-512zM86.5 4.5q-14.5 14.5 -14.5 33.5q0 21 14 35t34 14q21 0 35 -14t14 -35q0 -20 -14 -34t-35 -14q-19 0 -33.5 14.5z" />
    <glyph glyph-name="quotedbl" unicode="&#x22;" horiz-adv-x="348" 
d="M126 486h-56v214h56v-214zM278 486h-56v214h56v-214z" />
    <glyph glyph-name="numbersign" unicode="#" horiz-adv-x="548" 
d="M530 489v-52h-103l-24 -174h95v-52h-102l-28 -211h-59l28 211h-163l-28 -211h-59l28 211h-97v52h104l24 174h-96v52h103l28 211h59l-28 -211h163l28 211h59l-28 -211h96zM181 263h163l24 174h-163z" />
    <glyph glyph-name="dollar" unicode="$" horiz-adv-x="539" 
d="M296 391q97 -32 144.5 -80t47.5 -126v-4q0 -82 -54 -135t-138 -59v-75h-57v76q-75 10 -123.5 56.5t-70.5 116.5l52 25q21 -62 55.5 -98t86.5 -45v306q-85 30 -128.5 76t-43.5 117v3q0 67 49.5 111.5t122.5 53.5v76h57v-75q66 -7 111 -43t68 -98l-49 -25
q-19 47 -52.5 75.5t-77.5 35.5v-265zM125 542q0 -45 27.5 -75.5t86.5 -54.5v244q-51 -7 -82.5 -36.5t-31.5 -75.5v-2zM429 183q0 54 -32.5 88.5t-100.5 58.5v-289q60 6 96.5 44t36.5 95v3z" />
    <glyph glyph-name="percent" unicode="%" horiz-adv-x="757" 
d="M115.5 389.5q-34.5 21.5 -54 59t-19.5 85.5v12q0 48 19.5 85.5t54 59t78.5 21.5t78.5 -21.5t54 -59t19.5 -85.5v-12q0 -48 -19.5 -85.5t-54 -59t-78.5 -21.5t-78.5 21.5zM202 0h-58l412 700h58zM267 450q27 32 27 83v14q0 50 -27 82.5t-73 32.5q-45 0 -72.5 -32.5
t-27.5 -82.5v-14q0 -51 27.5 -83t72.5 -32q46 0 73 32zM484.5 9.5q-34.5 21.5 -54 59t-19.5 85.5v12q0 48 19.5 85.5t54 59t78.5 21.5t78.5 -21.5t54 -59t19.5 -85.5v-12q0 -48 -19.5 -85.5t-54 -59t-78.5 -21.5t-78.5 21.5zM636 70q27 32 27 83v14q0 50 -27 82.5t-73 32.5
t-73 -32.5t-27 -82.5v-14q0 -51 27 -83t73 -32t73 32z" />
    <glyph glyph-name="ampersand" unicode="&#x26;" horiz-adv-x="554" 
d="M528 0h-68l-51 69q-29 -38 -74.5 -59.5t-106.5 -21.5q-51 0 -93 23t-66.5 67t-24.5 103v11q0 67 36.5 117.5t91.5 81.5q-27 40 -44 82.5t-17 82.5q0 73 44 114.5t108 41.5q66 0 108 -41t42 -108q0 -120 -157 -192l147 -200q22 53 40 138l50 -17q-19 -97 -55 -170z
M195.5 630.5q-26.5 -27.5 -26.5 -75.5q0 -37 14 -70t42 -71q71 30 100.5 66t29.5 83q0 43 -25.5 69t-66.5 26t-67.5 -27.5zM315 60.5q34 18.5 60 54.5l-171 232q-46 -25 -74 -64.5t-28 -93.5v-9q0 -61 37 -99.5t93 -38.5q49 0 83 18.5z" />
    <glyph glyph-name="quotesingle" unicode="'" horiz-adv-x="196" 
d="M126 486h-56v214h56v-214z" />
    <glyph glyph-name="parenleft" unicode="(" horiz-adv-x="263" 
d="M167 -140q-52 80 -89 196t-37 254t37 254t89 196h60q-59 -86 -93.5 -201t-34.5 -249t34.5 -249t93.5 -201h-60z" />
    <glyph glyph-name="parenright" unicode=")" horiz-adv-x="263" 
d="M36 -140q59 86 93.5 201t34.5 249t-34.5 249t-93.5 201h60q52 -80 89 -196t37 -254t-37 -254t-89 -196h-60z" />
    <glyph glyph-name="asterisk" unicode="*" horiz-adv-x="391" 
d="M337 634l26 -46l-125 -66l125 -66l-26 -46l-120 75l5 -141h-53l5 141l-119 -75l-27 46l125 66l-125 66l27 46l119 -75l-5 141h53l-5 -141z" />
    <glyph glyph-name="plus" unicode="+" horiz-adv-x="432" 
d="M243 339h161v-54h-161v-165h-54v165h-161v54h161v165h54v-165z" />
    <glyph glyph-name="comma" unicode="," horiz-adv-x="253" 
d="M95 -131l-20 11l31 68q12 27 14 42q-18 3 -30 16.5t-12 31.5q0 21 14 35t34 14q21 0 35 -14t14 -35q0 -22 -9.5 -45.5t-30.5 -58.5z" />
    <glyph glyph-name="hyphen" unicode="-" horiz-adv-x="307" 
d="M277 287h-247v50h247v-50z" />
    <glyph glyph-name="period" unicode="." horiz-adv-x="253" 
d="M92.5 4.5q-14.5 14.5 -14.5 33.5q0 21 14 35t34 14q21 0 35 -14t14 -35q0 -20 -14 -34t-35 -14q-19 0 -33.5 14.5z" />
    <glyph glyph-name="slash" unicode="/" horiz-adv-x="305" 
d="M73 -140h-55l214 900h55z" />
    <glyph glyph-name="zero" unicode="0" horiz-adv-x="560" 
d="M161.5 26.5q-51.5 40.5 -80 116t-28.5 177.5v60q0 102 28.5 177.5t80 116t118.5 40.5t118.5 -40.5t80 -116t28.5 -177.5v-60q0 -102 -28.5 -177.5t-80 -116t-118.5 -40.5t-118.5 40.5zM367.5 71q38.5 33 60 96.5t21.5 150.5v64q0 87 -21.5 150.5t-60 96.5t-87.5 33
t-87.5 -33t-60 -96.5t-21.5 -150.5v-64q0 -87 21.5 -150.5t60 -96.5t87.5 -33t87.5 33z" />
    <glyph glyph-name="one" unicode="1" horiz-adv-x="560" 
d="M384 0h-56v637l-193 -116v62l193 117h56v-700z" />
    <glyph glyph-name="two" unicode="2" horiz-adv-x="560" 
d="M99 0v54l219 258q47 55 68 101.5t21 100.5q0 68 -35.5 106t-94.5 38q-55 0 -90 -35.5t-47 -104.5l-56 13q13 83 64 132t129 49q57 0 100 -25t66.5 -69t23.5 -99q0 -70 -26 -124t-84 -122l-186 -219h312v-54h-384z" />
    <glyph glyph-name="three" unicode="3" horiz-adv-x="560" 
d="M303 427q85 -10 134.5 -63.5t49.5 -145.5v-13q0 -62 -26 -111.5t-72 -77.5t-106 -28q-89 0 -146.5 53.5t-71.5 147.5l55 12q13 -75 55.5 -117t107.5 -42q69 0 107.5 44.5t38.5 119.5v9q0 87 -48.5 126t-142.5 39v48l159 218h-310v54h376v-54z" />
    <glyph glyph-name="four" unicode="4" horiz-adv-x="560" 
d="M423 0h-57v179h-291v55l291 466h57v-467h85v-54h-85v-179zM366 599l-232 -366h232v366z" />
    <glyph glyph-name="five" unicode="5" horiz-adv-x="560" 
d="M137.5 40.5q-56.5 52.5 -70.5 145.5l56 12q12 -74 53.5 -115t106.5 -41q68 0 109 48t41 126v20q0 80 -40.5 128.5t-115.5 48.5q-44 0 -81.5 -24.5t-62.5 -66.5l-49 19l26 359h359v-54h-308l-22 -249q23 30 61 48.5t84 18.5q97 0 152.5 -63t55.5 -164v-22
q0 -63 -26.5 -115t-74 -82t-108.5 -30q-89 0 -145.5 52.5z" />
    <glyph glyph-name="six" unicode="6" horiz-adv-x="560" 
d="M175 14.5q-48 26.5 -77.5 78.5t-29.5 124v6q0 61 19 107.5t57 103.5l175 266h66l-195 -291q16 15 43 23.5t55 8.5q58 0 104.5 -27t72.5 -77t26 -116v-8q0 -65 -28.5 -116.5t-77.5 -80t-106 -28.5q-56 0 -104 26.5zM355 63q35 21 56 59.5t21 88.5v12q0 51 -21 89t-56.5 59
t-78.5 21q-66 0 -107.5 -46t-41.5 -123v-12q0 -51 20.5 -89t55 -59t76.5 -21q41 0 76 21z" />
    <glyph glyph-name="seven" unicode="7" horiz-adv-x="560" 
d="M241 0h-59l242 646h-333v54h389v-54z" />
    <glyph glyph-name="eight" unicode="8" horiz-adv-x="560" 
d="M177.5 12.5q-45.5 24.5 -71 69t-25.5 103.5v8q0 66 30.5 112t81.5 67q-41 22 -65.5 60t-24.5 93v10q0 49 22.5 88.5t62.5 62t92 22.5q51 0 91.5 -22.5t62.5 -62t22 -88.5v-10q0 -55 -24.5 -93t-65.5 -60q51 -21 82 -67.5t31 -111.5v-8q0 -59 -26 -103.5t-71 -69
t-102 -24.5t-102.5 24.5zM364 430.5q33 33.5 33 90.5v9q0 57 -33 90.5t-84 33.5q-52 0 -85 -33.5t-33 -90.5v-9q0 -57 33 -90.5t85 -33.5q51 0 84 33.5zM381 82.5q39 40.5 39 105.5v10q0 65 -39 105t-101 40q-63 0 -102 -40t-39 -105v-10q0 -65 39 -105.5t102 -40.5
q62 0 101 40.5z" />
    <glyph glyph-name="nine" unicode="9" horiz-adv-x="560" 
d="M373 291q-16 -16 -43 -24t-55 -8q-58 0 -104 27t-72.5 77t-26.5 116v8q0 65 28.5 116.5t77 80t106.5 28.5q56 0 104.5 -26t77.5 -78t29 -125v-6q0 -60 -19 -106.5t-57 -104.5l-175 -266h-66zM394.5 354q41.5 46 41.5 123v12q0 51 -20.5 89t-55 59t-76.5 21q-41 0 -76 -21
t-56 -59.5t-21 -88.5v-12q0 -51 21 -89t56.5 -59t78.5 -21q66 0 107.5 46z" />
    <glyph glyph-name="colon" unicode=":" horiz-adv-x="253" 
d="M92.5 4.5q-14.5 14.5 -14.5 33.5q0 21 14 35t34 14q21 0 35 -14t14 -35q0 -20 -14 -34t-35 -14q-19 0 -33.5 14.5zM92.5 424.5q-14.5 14.5 -14.5 33.5q0 21 14 35t34 14q21 0 35 -14t14 -35q0 -20 -14 -34t-35 -14q-19 0 -33.5 14.5z" />
    <glyph glyph-name="semicolon" unicode=";" horiz-adv-x="253" 
d="M95 -131l-20 11l31 68q12 27 14 42q-18 3 -30 16.5t-12 31.5q0 21 14 35t34 14q21 0 35 -14t14 -35q0 -22 -9.5 -45.5t-30.5 -58.5zM92.5 424.5q-14.5 14.5 -14.5 33.5q0 21 14 35t34 14q21 0 35 -14t14 -35q0 -20 -14 -34t-35 -14q-19 0 -33.5 14.5z" />
    <glyph glyph-name="less" unicode="&#x3c;" horiz-adv-x="432" 
d="M404 151v-60l-376 182v68l376 182v-60l-328 -156z" />
    <glyph glyph-name="equal" unicode="=" horiz-adv-x="432" 
d="M404 382h-376v54h376v-54zM404 188h-376v54h376v-54z" />
    <glyph glyph-name="greater" unicode="&#x3e;" horiz-adv-x="432" 
d="M404 273l-376 -182v60l328 156l-328 156v60l376 -182v-68z" />
    <glyph glyph-name="question" unicode="?" horiz-adv-x="450" 
d="M201 225q0 40 10.5 70t28.5 53t52 57q36 35 51 65t15 72q0 52 -38.5 86t-96.5 34q-53 0 -90.5 -34t-54.5 -96l-50 17q17 72 67.5 118.5t127.5 46.5q56 0 99.5 -22t67 -60t23.5 -85q0 -56 -20.5 -96.5t-62.5 -81.5t-58 -71.5t-16 -78.5v-31h-55v37zM194.5 4.5
q-14.5 14.5 -14.5 33.5q0 21 14 35t34 14q21 0 35 -14t14 -35q0 -20 -14 -34t-35 -14q-19 0 -33.5 14.5z" />
    <glyph glyph-name="at" unicode="@" horiz-adv-x="808" 
d="M218 -47.5q-84 49.5 -132 140t-48 209.5v12q0 118 48.5 208.5t133.5 140t189 49.5q112 0 193.5 -48t124.5 -137t43 -211v-9q0 -67 -19 -116.5t-52 -76t-72 -26.5q-40 0 -68 26.5t-33 67.5q-18 -44 -57.5 -69t-89.5 -25t-90.5 26.5t-64 74.5t-23.5 112v14q0 64 23.5 112
t65 74.5t93.5 26.5q47 0 81.5 -22t51.5 -58v68h54v-298q0 -38 15.5 -58t44.5 -20q39 0 61.5 46.5t22.5 120.5v8q0 111 -38 188.5t-106.5 117t-160.5 39.5q-90 0 -161.5 -43.5t-112.5 -122t-41 -180.5v-12q0 -101 40 -180t111.5 -123t161.5 -44q62 0 109.5 17t93.5 49l30 -45
q-51 -36 -107.5 -54.5t-125.5 -18.5q-105 0 -189 49.5zM483 184.5q37 44.5 37 117.5v12q0 73 -37 117.5t-95 44.5t-94.5 -44.5t-36.5 -117.5v-12q0 -73 36.5 -117.5t94.5 -44.5t95 44.5z" />
    <glyph glyph-name="A" unicode="A" horiz-adv-x="584" 
d="M564 0h-63l-60 182h-298l-60 -182h-63l236 700h70zM292 632l-131 -395h262z" />
    <glyph glyph-name="B" unicode="B" horiz-adv-x="568" 
d="M81 0v700h215q91 0 142 -46.5t51 -125.5v-2q0 -55 -25.5 -93t-64.5 -60q112 -48 112 -173v-4q0 -61 -26 -105.5t-71 -67.5t-99 -23h-234zM299 395q59 0 95 32t36 93t-36 93.5t-95 32.5h-160v-251h160zM309 54q67 0 105.5 37.5t38.5 104.5v4q0 66 -38.5 103.5t-105.5 37.5
h-170v-287h170z" />
    <glyph glyph-name="C" unicode="C" horiz-adv-x="626" 
d="M189.5 28.5q-65.5 42.5 -101.5 119t-36 175.5v54q0 99 36 175.5t101.5 119t150.5 42.5t146.5 -43t93.5 -119l-46 -27q-28 64 -77 100t-117 36q-69 0 -121 -36t-80.5 -100t-28.5 -145v-60q0 -81 28.5 -145t80.5 -100t121 -36q132 0 194 137l47 -26q-35 -78 -95.5 -121
t-145.5 -43t-150.5 42.5z" />
    <glyph glyph-name="D" unicode="D" horiz-adv-x="596" 
d="M81 0v700h163q87 0 155.5 -40t106.5 -113t38 -169v-56q0 -96 -38 -169t-106.5 -113t-155.5 -40h-163zM238 54q75 0 130.5 32.5t86 93t30.5 142.5v56q0 82 -30.5 142.5t-86 93t-130.5 32.5h-99v-592h99z" />
    <glyph glyph-name="E" unicode="E" horiz-adv-x="545" 
d="M488 0h-407v700h403v-54h-345v-258h293v-54h-293v-280h349v-54z" />
    <glyph glyph-name="F" unicode="F" horiz-adv-x="509" 
d="M139 0h-58v700h381v-54h-323v-277h283v-54h-283v-315z" />
    <glyph glyph-name="G" unicode="G" horiz-adv-x="644" 
d="M190 28.5q-66 42.5 -102 119t-36 175.5v54q0 99 36 175.5t101.5 119t150.5 42.5t146.5 -43t93.5 -119l-46 -27q-28 64 -77 100t-117 36q-69 0 -121 -36t-80.5 -100t-28.5 -145v-61q0 -81 28.5 -144.5t81 -99.5t122.5 -36q59 0 105 25.5t79 68.5v171h-199v52h256v-245
q-97 -125 -241 -125q-86 0 -152 42.5z" />
    <glyph glyph-name="H" unicode="H" horiz-adv-x="639" 
d="M139 0h-58v700h58v-304h361v304h58v-700h-58v342h-361v-342z" />
    <glyph glyph-name="I" unicode="I" horiz-adv-x="220" 
d="M139 0h-58v700h58v-700z" />
    <glyph glyph-name="J" unicode="J" horiz-adv-x="488" 
d="M108 27.5q-49 41.5 -70 113.5l55 20q14 -58 49.5 -89.5t88.5 -31.5q62 0 93 41.5t31 120.5v498h58v-496q0 -103 -47.5 -160.5t-134.5 -57.5q-74 0 -123 41.5z" />
    <glyph glyph-name="K" unicode="K" horiz-adv-x="506" 
d="M404 700h70l-250 -350l250 -350h-71l-230 323h-34v-323h-58v700h58v-323h36z" />
    <glyph glyph-name="L" unicode="L" horiz-adv-x="504" 
d="M463 0h-382v700h58v-646h324v-54z" />
    <glyph glyph-name="M" unicode="M" horiz-adv-x="693" 
d="M139 0h-58v700h59l206 -488l206 488h60v-700h-59v556l-181 -416h-52l-181 416v-556z" />
    <glyph glyph-name="N" unicode="N" horiz-adv-x="599" 
d="M138 0h-57v700h67l313 -573v573h57v-700h-52l-328 597v-597z" />
    <glyph glyph-name="O" unicode="O" horiz-adv-x="690" 
d="M192.5 28.5q-66.5 42.5 -103.5 119.5t-37 175v54q0 98 37 175t103.5 119.5t152.5 42.5t152.5 -42.5t103.5 -119.5t37 -175v-54q0 -98 -37 -175t-103.5 -119.5t-152.5 -42.5t-152.5 42.5zM467.5 75q53.5 36 83 100t29.5 144v62q0 80 -29.5 144t-83 100t-122.5 36
t-122.5 -36t-83 -100t-29.5 -144v-62q0 -80 29.5 -144t83 -100t122.5 -36t122.5 36z" />
    <glyph glyph-name="P" unicode="P" horiz-adv-x="538" 
d="M81 0v700h216q86 0 137.5 -48.5t51.5 -135.5q0 -86 -51.5 -134.5t-137.5 -48.5h-158v-333h-58zM290 387q67 0 102.5 32t35.5 97t-35.5 97.5t-102.5 32.5h-151v-259h151z" />
    <glyph glyph-name="Q" unicode="Q" horiz-adv-x="690" 
d="M638 323q0 -89 -30 -160t-85 -116l78 -119h-67l-58 88q-62 -30 -131 -30q-86 0 -152.5 42.5t-103.5 119.5t-37 175v54q0 98 37 175t103.5 119.5t152.5 42.5t152.5 -42.5t103.5 -119.5t37 -175v-54zM110 319q0 -80 29.5 -144t83 -100t122.5 -36t122.5 36t83 100t29.5 144
v62q0 80 -29.5 144t-83 100t-122.5 36t-122.5 -36t-83 -100t-29.5 -144v-62z" />
    <glyph glyph-name="R" unicode="R" horiz-adv-x="555" 
d="M81 0v700h226q87 0 137.5 -49.5t50.5 -134.5q0 -61 -31 -101t-76 -55q30 -10 45.5 -32.5t23.5 -70.5l41 -257h-59l-39 244q-8 52 -27 70.5t-59 18.5h-175v-333h-58zM300 386q64 0 100 34t36 96q0 63 -36 96.5t-100 33.5h-161v-260h161z" />
    <glyph glyph-name="S" unicode="S" horiz-adv-x="539" 
d="M127 34q-58 48 -82 127l52 25q24 -72 67.5 -109t111.5 -37t110.5 39t42.5 101v3q0 60 -40 96t-125 62q-97 30 -147 77t-50 124v3q0 49 27.5 87t74 59t100.5 21q76 0 128.5 -36.5t77.5 -105.5l-49 -25q-21 55 -62.5 84t-94.5 29q-63 0 -103.5 -31t-40.5 -83v-2
q0 -54 40.5 -88t128.5 -62q98 -32 146 -80t48 -127v-4q0 -58 -27.5 -102.5t-76 -68.5t-108.5 -24q-91 0 -149 48z" />
    <glyph glyph-name="T" unicode="T" horiz-adv-x="515" 
d="M485 700v-54h-199v-646h-58v646h-198v54h455z" />
    <glyph glyph-name="U" unicode="U" horiz-adv-x="602" 
d="M178 19q-51 33 -77 90.5t-26 130.5v460h58v-463q0 -89 44.5 -143t123.5 -54q78 0 122.5 54t44.5 143v463h59v-460q0 -73 -26 -130.5t-77 -90.5t-123 -33t-123 33z" />
    <glyph glyph-name="V" unicode="V" horiz-adv-x="574" 
d="M320 0h-67l-233 700h63l204 -631l204 631h63z" />
    <glyph glyph-name="W" unicode="W" horiz-adv-x="801" 
d="M249 0h-70l-153 700h61l128 -617l154 578h64l153 -578l128 617h61l-153 -700h-70l-151 576z" />
    <glyph glyph-name="X" unicode="X" horiz-adv-x="512" 
d="M90 0h-64l198 358l-189 342h66l159 -289l161 289h63l-194 -347l196 -353h-65l-167 301z" />
    <glyph glyph-name="Y" unicode="Y" horiz-adv-x="517" 
d="M287 0h-58v291l-212 409h65l176 -347l176 347h66l-213 -409v-291z" />
    <glyph glyph-name="Z" unicode="Z" horiz-adv-x="498" 
d="M450 0h-411v54l337 592h-326v54h387v-54l-336 -592h349v-54z" />
    <glyph glyph-name="bracketleft" unicode="[" horiz-adv-x="289" 
d="M257 -140h-176v900h176v-55h-118v-790h118v-55z" />
    <glyph glyph-name="backslash" unicode="\" horiz-adv-x="305" 
d="M287 -140h-55l-214 900h55z" />
    <glyph glyph-name="bracketright" unicode="]" horiz-adv-x="290" 
d="M209 -140h-177v55h118v790h-118v55h177v-900z" />
    <glyph glyph-name="asciicircum" unicode="^" horiz-adv-x="432" 
d="M99 438h-59l145 262h62l145 -262h-59l-117 216z" />
    <glyph glyph-name="underscore" unicode="_" horiz-adv-x="437" 
d="M407 -93h-377v50h377v-50z" />
    <glyph glyph-name="grave" unicode="`" horiz-adv-x="184" 
d="M166 581h-50l-98 143h75z" />
    <glyph glyph-name="a" unicode="a" horiz-adv-x="508" 
d="M89 26.5q-41 38.5 -41 102.5v4q0 66 43 103.5t113 50.5l150 30v18q0 54 -32 87.5t-89 33.5q-98 0 -132 -98l-49 20q18 59 65.5 94.5t115.5 35.5q82 0 128.5 -47.5t46.5 -124.5v-249q0 -23 11 -37t33 -14q18 0 34 8v-47q-18 -9 -48 -9q-39 0 -61 25.5t-23 67.5
q-46 -93 -158 -93q-66 0 -107 38.5zM312 88q42 50 42 142v39l-140 -28q-109 -21 -109 -110v-1q0 -40 26 -66t69 -26q70 0 112 50z" />
    <glyph glyph-name="b" unicode="b" horiz-adv-x="534" 
d="M191 10.5q-41 22.5 -65 63.5v-74h-54v700h54v-280q21 38 63.5 63t95.5 25q59 0 105 -30t72 -85.5t26 -129.5v-30q0 -74 -26 -129.5t-72.5 -85.5t-104.5 -30q-53 0 -94 22.5zM357 63.5q35 23.5 55 67t20 101.5v32q0 58 -20 101.5t-55 67t-80 23.5q-68 0 -111 -52t-43 -140
v-32q0 -88 43 -140t111 -52q45 0 80 23.5z" />
    <glyph glyph-name="c" unicode="c" horiz-adv-x="499" 
d="M150.5 19.5q-49.5 31.5 -77 87.5t-27.5 126v30q0 70 27.5 126t77 87.5t112.5 31.5q71 0 119 -36t71 -103l-47 -22q-17 51 -53.5 80t-89.5 29q-72 0 -116.5 -53t-44.5 -139v-32q0 -86 44.5 -139t116.5 -53q53 0 89 29.5t55 80.5l50 -21q-58 -141 -194 -141
q-63 0 -112.5 31.5z" />
    <glyph glyph-name="d" unicode="d" horiz-adv-x="534" 
d="M145 18q-46 30 -72.5 85.5t-26.5 129.5v30q0 74 27 129.5t73.5 85.5t105.5 30q55 0 95.5 -22.5t60.5 -58.5v273h54v-700h-54v76q-47 -88 -159 -88q-58 0 -104 30zM368 92q43 52 43 140v32q0 88 -43 140t-111 52q-45 0 -80 -23.5t-55 -67t-20 -101.5v-32q0 -58 20 -101.5
t55 -67t80 -23.5q68 0 111 52z" />
    <glyph glyph-name="e" unicode="e" horiz-adv-x="514" 
d="M468 241h-366v-8q0 -57 20.5 -100.5t56.5 -68t82 -24.5q101 0 144 103l50 -20q-26 -64 -74.5 -99.5t-119.5 -35.5q-62 0 -111 31.5t-76.5 87.5t-27.5 126v30q0 71 28 127t77 87t111 31q57 0 104 -27.5t74.5 -81t27.5 -126.5v-32zM151.5 410q-42.5 -46 -48.5 -122h310
q-5 79 -47 123.5t-104 44.5q-68 0 -110.5 -46z" />
    <glyph glyph-name="f" unicode="f" horiz-adv-x="329" 
d="M184 641.5q-20 -20.5 -20 -58.5v-87h143v-50h-143v-446h-54v446h-90v50h90v86q0 61 34.5 95.5t91.5 34.5q35 0 71 -12v-54q-35 16 -67 16q-36 0 -56 -20.5z" />
    <glyph glyph-name="g" unicode="g" horiz-adv-x="535" 
d="M133.5 -180.5q-51.5 35.5 -73.5 93.5l50 27q19 -49 56.5 -77t92.5 -28q71 0 110 48.5t39 127.5v86q-22 -40 -62.5 -65t-97.5 -25q-58 0 -104 29t-72 83.5t-26 126.5v24q0 73 27 126.5t74 82.5t104 29q55 0 95 -23t62 -62v73h55v-488q0 -100 -54 -162t-150 -62
q-74 0 -125.5 35.5zM337 83q35 23 55 65t20 98v24q0 56 -20 98t-55 65t-80 23q-69 0 -112 -51t-43 -135v-24q0 -84 43 -135t112 -51q45 0 80 23z" />
    <glyph glyph-name="h" unicode="h" horiz-adv-x="509" 
d="M72 0v700h54v-267q17 32 53.5 53.5t86.5 21.5q77 0 124 -50.5t47 -129.5v-328h-54v317q0 63 -36 102t-93 39q-56 0 -92 -40t-36 -101v-317h-54z" />
    <glyph glyph-name="i" unicode="i" 
d="M64.5 616.5q-14.5 14.5 -14.5 33.5q0 20 14.5 34t34.5 14t34 -14t14 -34t-14 -34t-34 -14t-34.5 14.5zM126 0h-54v496h54v-496z" />
    <glyph glyph-name="j" unicode="j" 
d="M64.5 616.5q-14.5 14.5 -14.5 33.5q0 20 14.5 34t34.5 14t34 -14t14 -34t-14 -34t-34 -14t-34.5 14.5zM-33 -201v51q27 -12 50 -12q26 0 40.5 19t14.5 54v585h54v-582q0 -63 -27.5 -94.5t-74.5 -31.5q-35 0 -57 11z" />
    <glyph glyph-name="k" unicode="k" horiz-adv-x="423" 
d="M322 496h67l-193 -248l193 -248h-67l-173 224h-23v-224h-54v700h54v-428h23z" />
    <glyph glyph-name="l" unicode="l" horiz-adv-x="235" 
d="M96.5 18.5q-24.5 30.5 -24.5 82.5v599h54v-600q0 -29 12 -45.5t35 -16.5q19 0 45 12v-51q-22 -11 -53 -11q-44 0 -68.5 30.5z" />
    <glyph glyph-name="m" unicode="m" horiz-adv-x="724" 
d="M72 0v496h54v-56q12 28 44.5 48t75.5 20q44 0 76.5 -21.5t47.5 -55.5q19 35 54.5 56t81.5 21q69 0 107.5 -44t38.5 -115v-349h-55v342q0 54 -28.5 85t-75.5 31t-75.5 -32.5t-28.5 -84.5v-341h-55v342q0 54 -28.5 85t-75.5 31t-75.5 -32.5t-28.5 -84.5v-341h-54z" />
    <glyph glyph-name="n" unicode="n" horiz-adv-x="502" 
d="M72 0v496h54v-62q16 32 52 53t85 21q77 0 122 -48.5t45 -128.5v-331h-54v322q0 63 -34.5 99.5t-90.5 36.5q-57 0 -91 -37.5t-34 -99.5v-321h-54z" />
    <glyph glyph-name="o" unicode="o" horiz-adv-x="533" 
d="M153 19.5q-50 31.5 -78.5 87t-28.5 126.5v30q0 71 28.5 126.5t78.5 87t113 31.5q64 0 114 -31.5t78.5 -87t28.5 -126.5v-30q0 -71 -28.5 -126.5t-78.5 -87t-114 -31.5q-63 0 -113 31.5zM386 93q45 53 45 139v32q0 86 -45 139t-120 53q-74 0 -119 -53t-45 -139v-32
q0 -86 45 -139t119 -53q75 0 120 53z" />
    <glyph glyph-name="p" unicode="p" horiz-adv-x="534" 
d="M72 -202v698h54v-78q21 40 62.5 65t95.5 25q58 0 104.5 -30t73 -85.5t26.5 -129.5v-30q0 -74 -26 -129.5t-72.5 -85.5t-104.5 -30q-56 0 -96.5 22.5t-62.5 59.5v-272h-54zM357 63.5q35 23.5 55 67t20 101.5v32q0 58 -20 101.5t-55 67t-80 23.5q-68 0 -111 -52t-43 -140
v-32q0 -88 43 -140t111 -52q45 0 80 23.5z" />
    <glyph glyph-name="q" unicode="q" horiz-adv-x="534" 
d="M408 76q-22 -41 -62 -64.5t-97 -23.5q-58 0 -104 30t-72.5 85.5t-26.5 129.5v30q0 74 26.5 129.5t73 85.5t104.5 30q55 0 95 -22.5t63 -61.5v72h54v-700h-54v280zM368 92q43 52 43 140v32q0 88 -43 140t-111 52q-45 0 -80 -23.5t-55 -67t-20 -101.5v-32q0 -58 20 -101.5
t55 -67t80 -23.5q68 0 111 52z" />
    <glyph glyph-name="r" unicode="r" horiz-adv-x="338" 
d="M72 0v496h54v-62q12 32 45 53t77 21q30 0 53 -9v-53q-33 12 -63 12q-49 0 -80.5 -37.5t-31.5 -97.5v-323h-54z" />
    <glyph glyph-name="s" unicode="s" horiz-adv-x="437" 
d="M113.5 20.5q-45.5 34.5 -62.5 89.5l50 24q14 -45 46 -71.5t77 -26.5q46 0 76.5 24.5t30.5 64.5v1q0 40 -26.5 62t-88.5 40q-75 22 -111.5 57.5t-36.5 91.5q0 59 44 94t108 35q56 0 96.5 -27.5t57.5 -75.5l-45 -23q-16 38 -44.5 58t-64.5 20q-44 0 -72 -21.5t-28 -57.5
t28 -60t87 -41q79 -24 114.5 -57t35.5 -95v-1q0 -61 -46 -100t-115 -39q-65 0 -110.5 34.5z" />
    <glyph glyph-name="t" unicode="t" horiz-adv-x="343" 
d="M310 446h-136v-335q0 -35 16.5 -54t49.5 -19q34 0 70 18v-51q-34 -17 -78 -17q-54 0 -83.5 33t-29.5 91v334h-94v50h94v91l55 30v-121h136v-50z" />
    <glyph glyph-name="u" unicode="u" horiz-adv-x="502" 
d="M117 37q-45 49 -45 129v330h54v-322q0 -63 34.5 -99.5t90.5 -36.5q57 0 91 37.5t34 99.5v321h54v-496h-54v62q-16 -32 -52 -53t-85 -21q-77 0 -122 49z" />
    <glyph glyph-name="v" unicode="v" horiz-adv-x="434" 
d="M246 0h-58l-176 496h59l146 -428l146 428h59z" />
    <glyph glyph-name="w" unicode="w" horiz-adv-x="637" 
d="M201 0h-60l-124 496h58l97 -417l118 417h57l119 -417l97 417h57l-124 -496h-59l-118 425z" />
    <glyph glyph-name="x" unicode="x" horiz-adv-x="417" 
d="M84 0h-60l152 263l-139 233h62l109 -190l107 190h63l-140 -236l155 -260h-61l-127 215z" />
    <glyph glyph-name="y" unicode="y" horiz-adv-x="455" 
d="M375 496h60l-217 -590q-24 -62 -57.5 -90t-87.5 -28q-30 0 -59 11v55q34 -16 62 -16q34 0 55 20.5t39 68.5l30 84l-182 485h61l149 -408z" />
    <glyph glyph-name="z" unicode="z" horiz-adv-x="414" 
d="M373 0h-343v50l270 396h-260v50h319v-50l-269 -396h283v-50z" />
    <glyph glyph-name="braceleft" unicode="{" horiz-adv-x="311" 
d="M216 -140q-50 0 -77 26.5t-27 77.5v269q0 24 -13 37t-37 13h-41v54h41q24 0 37 13t13 37v269q0 51 27 77.5t77 26.5h63v-55h-60q-23 0 -36 -13t-13 -36v-260q0 -36 -14.5 -57.5t-37.5 -28.5q23 -7 37.5 -28.5t14.5 -57.5v-260q0 -23 13 -36t36 -13h60v-55h-63z" />
    <glyph glyph-name="bar" unicode="|" horiz-adv-x="220" 
d="M139 -204h-58v904h58v-904z" />
    <glyph glyph-name="braceright" unicode="}" horiz-adv-x="311" 
d="M32 -140v55h60q23 0 36 13t13 36v260q0 37 14.5 58t38.5 28q-24 7 -38.5 28t-14.5 58v260q0 23 -13 36t-36 13h-60v55h63q50 0 77 -26.5t27 -77.5v-269q0 -24 13 -37t37 -13h41v-54h-41q-24 0 -37 -13t-13 -37v-269q0 -51 -27 -77.5t-77 -26.5h-63z" />
    <glyph glyph-name="asciitilde" unicode="~" horiz-adv-x="432" 
d="M30 264q10 48 35.5 73t64.5 25q23 0 44.5 -8t51.5 -23q48 -26 73 -26q44 0 57 59l46 -14q-10 -48 -36 -73t-67 -25q-23 0 -44 8t-52 23q-25 13 -42 19.5t-32 6.5q-43 0 -53 -59z" />
    <glyph glyph-name="uni00A0" unicode="&#xa0;" horiz-adv-x="210" 
 />
    <glyph glyph-name="exclamdown" unicode="&#xa1;" horiz-adv-x="241" 
d="M86 423q-14 14 -14 35q0 20 14 34t34 14t34.5 -14t14.5 -34q0 -21 -14.5 -35t-34.5 -14t-34 14zM148 -204h-55v512h55v-512z" />
    <glyph glyph-name="cent" unicode="&#xa2;" horiz-adv-x="499" 
d="M457 231q-53 -126 -167 -140v-91h-56v92q-55 7 -97.5 40t-66.5 85.5t-24 117.5v30q0 65 24 117.5t66.5 85.5t97.5 40v92h56v-91q60 -7 101 -42.5t62 -95.5l-47 -22q-17 51 -53.5 80t-89.5 29q-72 0 -116.5 -53t-44.5 -139v-32q0 -86 44.5 -139t116.5 -53q53 0 89 29.5
t55 80.5z" />
    <glyph glyph-name="sterling" unicode="&#xa3;" horiz-adv-x="470" 
d="M438 54v-54h-401v49q82 91 82 173q0 30 -8 60h-75v48h61l-9 24q-18 50 -27.5 86t-9.5 80q0 58 24.5 101.5t67 67t95.5 23.5q78 0 129 -42.5t67 -122.5l-51 -18q-16 66 -52 97.5t-93 31.5t-93 -37.5t-36 -103.5q0 -40 8 -72.5t25 -82.5l11 -32h194v-48h-181q7 -33 7 -62
q0 -49 -18 -87.5t-50 -78.5h333z" />
    <glyph glyph-name="currency" unicode="&#xa4;" horiz-adv-x="521" 
d="M439 345q0 -66 -29 -113l75 -75l-41 -41l-72 72q-47 -38 -112 -38q-64 0 -111 38l-72 -72l-41 41l75 75q-29 47 -29 113v10q0 66 29 113l-75 75l41 41l72 -72q48 38 111 38q65 0 112 -38l72 72l41 -41l-75 -75q29 -47 29 -113v-10zM349 241.5q33 39.5 33 102.5v12
q0 63 -33 102.5t-89 39.5q-55 0 -88.5 -40t-33.5 -102v-12q0 -62 33.5 -102t88.5 -40q56 0 89 39.5z" />
    <glyph glyph-name="yen" unicode="&#xa5;" horiz-adv-x="504" 
d="M427 700h66l-186 -344h119v-49h-145v-86h145v-49h-145v-172h-58v172h-145v49h145v86h-145v49h118l-186 344h66l176 -334z" />
    <glyph glyph-name="brokenbar" unicode="&#xa6;" horiz-adv-x="220" 
d="M139 339h-58v361h58v-361zM139 -204h-58v361h58v-361z" />
    <glyph glyph-name="section" unicode="&#xa7;" horiz-adv-x="519" 
d="M467 -38q0 -52 -26 -93t-74 -64t-109 -23q-78 0 -132 37.5t-81 102.5l51 30q21 -56 63 -86t99 -30q67 0 108.5 35t41.5 89q0 57 -38 88t-125 46q-90 15 -144.5 60.5t-54.5 118.5q0 39 19 72.5t50 56.5q-69 50 -69 139q0 49 27 88t75 61t107 22q76 0 127.5 -34t77.5 -96
l-49 -29q-45 105 -156 105q-66 0 -108.5 -34t-42.5 -87q0 -104 167 -136q99 -19 148 -60t49 -115q0 -77 -65 -130q64 -44 64 -134zM143 193.5q39 -31.5 127 -49.5q52 -10 83 -23q57 44 57 106q0 49 -38 77.5t-129 46.5q-44 9 -80 24q-27 -19 -43 -45t-16 -56q0 -49 39 -80.5
z" />
    <glyph glyph-name="dieresis" unicode="&#xa8;" horiz-adv-x="332" 
d="M30.5 616.5q-14.5 14.5 -14.5 33.5q0 20 14.5 34t34.5 14t34 -14t14 -34t-14 -34t-34 -14t-34.5 14.5zM233 616.5q-14 14.5 -14 33.5q0 20 14 34t34 14t34.5 -14t14.5 -34t-14.5 -34t-34.5 -14t-34 14.5z" />
    <glyph glyph-name="copyright" unicode="&#xa9;" horiz-adv-x="747" 
d="M203 32.5q-75 46.5 -116.5 127t-41.5 179.5v22q0 99 41.5 179.5t116.5 127t170 46.5t170 -46.5t117 -127t42 -179.5v-22q0 -99 -42 -179.5t-117 -127t-170 -46.5t-170 46.5zM515 74.5q63 39.5 98.5 109t35.5 154.5v24q0 85 -35.5 154.5t-98.5 109t-142 39.5t-142 -39.5
t-98.5 -109t-35.5 -154.5v-24q0 -85 35.5 -154.5t98.5 -109t142 -39.5t142 39.5zM281.5 167.5q-40.5 25.5 -63.5 70.5t-23 103v18q0 57 22.5 102.5t63 71t92.5 25.5q54 0 94 -29t56 -81l-43 -18q-12 37 -40 58.5t-67 21.5q-59 0 -93 -41.5t-34 -109.5v-18q0 -68 34 -109.5
t93 -41.5q42 0 69 22t40 59l46 -18q-21 -52 -61 -81.5t-94 -29.5q-51 0 -91.5 25.5z" />
    <glyph glyph-name="ordfeminine" unicode="&#xaa;" horiz-adv-x="338" 
d="M57 399.5q-27 25.5 -27 67.5q0 81 106 101l91 17v11q0 30 -19 49.5t-53 19.5q-60 0 -81 -58l-42 17q12 38 44.5 60.5t78.5 22.5q57 0 89 -30.5t32 -80.5v-150q0 -14 6.5 -22.5t19.5 -8.5q11 0 23 5v-39q-16 -7 -37 -7q-25 0 -41 15.5t-17 41.5q-31 -57 -102 -57
q-44 0 -71 25.5zM202.5 445q24.5 29 24.5 81v22l-84 -17q-64 -12 -64 -62q0 -23 16 -38t41 -15q42 0 66.5 29z" />
    <glyph glyph-name="guillemotleft" unicode="&#xab;" horiz-adv-x="379" 
d="M344 124h-56l-100 172l100 172h56l-99 -172zM194 124h-56l-100 172l100 172h56l-99 -172z" />
    <glyph glyph-name="logicalnot" unicode="&#xac;" horiz-adv-x="432" 
d="M404 120h-54v165h-322v54h376v-219z" />
    <glyph glyph-name="uni00AD" unicode="&#xad;" horiz-adv-x="307" 
d="M277 287h-247v50h247v-50z" />
    <glyph glyph-name="registered" unicode="&#xae;" horiz-adv-x="391" 
d="M87 447.5q-42 43.5 -42 109.5v6q0 66 42 109.5t108 43.5q43 0 77.5 -20t54 -55t19.5 -78v-6q0 -43 -19.5 -78t-54 -55t-77.5 -20q-66 0 -108 43.5zM281 466q34 36 34 90v8q0 54 -34 90t-86 36t-86 -36t-34 -90v-8q0 -54 34 -90t86 -36t86 36zM143 466v188h61
q25 0 39 -13.5t14 -37.5q0 -16 -8.5 -27t-20.5 -16q15 -3 18 -25l11 -69h-26l-9 66q-3 19 -21 19h-32v-85h-26zM203 572q13 0 21 7.5t8 22.5q0 14 -8 22t-21 8h-34v-60h34z" />
    <glyph glyph-name="macron" unicode="&#xaf;" horiz-adv-x="264" 
d="M242 626h-220v50h220v-50z" />
    <glyph glyph-name="degree" unicode="&#xb0;" horiz-adv-x="329" 
d="M83 494.5q-33 34.5 -33 85.5t33 85.5t82 34.5t81.5 -34.5t32.5 -85.5t-32.5 -85.5t-81.5 -34.5t-82 34.5zM212.5 526.5q18.5 20.5 18.5 53.5t-18.5 53.5t-47.5 20.5t-47.5 -20.5t-18.5 -53.5t18.5 -53.5t47.5 -20.5t47.5 20.5z" />
    <glyph glyph-name="plusminus" unicode="&#xb1;" horiz-adv-x="432" 
d="M243 496v-139h161v-54h-161v-139h-54v139h-161v54h161v139h54zM404 0h-376v54h376v-54z" />
    <glyph glyph-name="uni00B2" unicode="&#xb2;" horiz-adv-x="269" 
d="M30 350v45l114 117q24 24 34.5 44t10.5 46q0 28 -16 44t-42 16q-52 0 -65 -61l-46 10q6 44 35.5 69.5t75.5 25.5q51 0 80.5 -28t29.5 -72q0 -37 -14.5 -63.5t-46.5 -59.5l-86 -88h153v-45h-217z" />
    <glyph glyph-name="uni00B3" unicode="&#xb3;" horiz-adv-x="279" 
d="M56.5 371q-31.5 27 -37.5 75l47 9q5 -31 23.5 -48t48.5 -17q31 0 48 19t17 51q0 37 -23 53.5t-67 16.5v39l73 88h-155v43h211v-43l-78 -91q43 -7 67 -34t24 -72q0 -52 -32 -84t-84 -32q-51 0 -82.5 27z" />
    <glyph glyph-name="acute" unicode="&#xb4;" horiz-adv-x="184" 
d="M68 581h-50l74 143h74z" />
    <glyph glyph-name="uni00B5" unicode="&#xb5;" horiz-adv-x="502" 
d="M72 -204v700h54v-322q0 -63 34.5 -99.5t90.5 -36.5q57 0 91 37.5t34 99.5v321h54v-496h-54v62q-16 -32 -52 -53t-85 -21q-73 0 -113 52v-244h-54z" />
    <glyph glyph-name="paragraph" unicode="&#xb6;" horiz-adv-x="629" 
d="M284 -204v544h-38q-88 0 -141 48t-53 132t53 132t141 48h353v-54h-78v-850h-59v850h-120v-850h-58z" />
    <glyph glyph-name="periodcentered" unicode="&#xb7;" horiz-adv-x="253" 
d="M92.5 316.5q-14.5 14.5 -14.5 33.5q0 21 14 35t34 14q21 0 35 -14t14 -35q0 -20 -14 -34t-35 -14q-19 0 -33.5 14.5z" />
    <glyph glyph-name="cedilla" unicode="&#xb8;" horiz-adv-x="187" 
d="M158 -68q23 -22 23 -60q0 -40 -26.5 -64t-69.5 -24q-48 0 -78 17l22 43q25 -16 56 -16q21 0 33.5 11.5t12.5 32.5q0 20 -12 31.5t-30 11.5q-24 0 -44 -14l-32 21l20 90h40l-20 -69q22 11 45 11q37 0 60 -22z" />
    <glyph glyph-name="uni00B9" unicode="&#xb9;" horiz-adv-x="185" 
d="M147 350h-51v296l-83 -55v54l83 55h51v-350z" />
    <glyph glyph-name="ordmasculine" unicode="&#xba;" horiz-adv-x="353" 
d="M70 418.5q-42 44.5 -42 113.5v18q0 68 42 112.5t107 44.5q64 0 106 -44.5t42 -112.5v-18q0 -69 -41.5 -113.5t-106.5 -44.5t-107 44.5zM248 450.5q27 30.5 27 80.5v19q0 50 -26.5 80.5t-71.5 30.5t-72 -30.5t-27 -80.5v-19q0 -50 27 -80.5t72 -30.5q44 0 71 30.5z" />
    <glyph glyph-name="guillemotright" unicode="&#xbb;" horiz-adv-x="379" 
d="M241 124h-56l99 172l-99 172h56l100 -172zM91 124h-56l99 172l-99 172h56l100 -172z" />
    <glyph glyph-name="onequarter" unicode="&#xbc;" horiz-adv-x="668" 
d="M147 350h-51v296l-83 -55v54l83 55h51v-350zM157 0h-58l412 700h58zM606 0h-49v80h-151v46l151 224h49v-224h50v-46h-50v-80zM557 274l-101 -148h101v148z" />
    <glyph glyph-name="onehalf" unicode="&#xbd;" horiz-adv-x="715" 
d="M147 350h-51v296l-83 -55v54l83 55h51v-350zM157 0h-58l412 700h58zM476 0v45l114 117q24 24 34.5 44t10.5 46q0 28 -16 44t-42 16q-52 0 -65 -61l-46 10q6 44 35.5 69.5t75.5 25.5q51 0 80.5 -28t29.5 -72q0 -37 -14.5 -63.5t-46.5 -59.5l-86 -88h153v-45h-217z" />
    <glyph glyph-name="threequarters" unicode="&#xbe;" horiz-adv-x="704" 
d="M56.5 371q-31.5 27 -37.5 75l47 9q5 -31 23.5 -48t48.5 -17q31 0 48 19t17 51q0 37 -23 53.5t-67 16.5v39l73 88h-155v43h211v-43l-78 -91q43 -7 67 -34t24 -72q0 -52 -32 -84t-84 -32q-51 0 -82.5 27zM193 0h-58l412 700h58zM642 0h-49v80h-151v46l151 224h49v-224h50
v-46h-50v-80zM593 274l-101 -148h101v148z" />
    <glyph glyph-name="questiondown" unicode="&#xbf;" horiz-adv-x="449" 
d="M186 425q-14 14 -14 35q0 20 14 34t35 14q20 0 34 -14t14 -34q0 -21 -14 -35t-34 -14q-21 0 -35 14zM127 -194q-43 22 -66.5 60t-23.5 85q0 56 20.5 96.5t61.5 81.5q42 41 58.5 71.5t16.5 78.5v31h54v-37q0 -40 -10.5 -70t-28.5 -53t-52 -57q-36 -35 -51 -65t-15 -72
q0 -52 38.5 -86t96.5 -34q53 0 90.5 34t54.5 96l50 -17q-17 -73 -67.5 -119t-127.5 -46q-56 0 -99 22z" />
    <glyph glyph-name="Agrave" unicode="&#xc0;" horiz-adv-x="584" 
d="M564 0h-63l-60 182h-298l-60 -182h-63l236 700h70zM292 632l-131 -395h262zM317 785h-50l-98 143h75z" />
    <glyph glyph-name="Aacute" unicode="&#xc1;" horiz-adv-x="584" 
d="M564 0h-63l-60 182h-298l-60 -182h-63l236 700h70zM292 632l-131 -395h262zM317 785h-50l74 143h74z" />
    <glyph glyph-name="Acircumflex" unicode="&#xc2;" horiz-adv-x="584" 
d="M564 0h-63l-60 182h-298l-60 -182h-63l236 700h70zM292 632l-131 -395h262zM222 785h-51l91 143h60l91 -143h-51l-70 85z" />
    <glyph glyph-name="Atilde" unicode="&#xc3;" horiz-adv-x="584" 
d="M564 0h-63l-60 182h-298l-60 -182h-63l236 700h70zM292 632l-131 -395h262zM157 834q8 32 28 50t50 18q21 0 35.5 -6t31.5 -17q14 -9 22.5 -13t19.5 -4q17 0 28 10t18 30l38 -16q-9 -32 -29 -50t-50 -18q-21 0 -36 6t-32 17q-13 9 -22.5 13t-19.5 4q-32 0 -44 -39z" />
    <glyph glyph-name="Adieresis" unicode="&#xc4;" horiz-adv-x="584" 
d="M564 0h-63l-60 182h-298l-60 -182h-63l236 700h70zM292 632l-131 -395h262zM156.5 820.5q-14.5 14.5 -14.5 33.5q0 20 14.5 34t34.5 14t34 -14t14 -34t-14 -34t-34 -14t-34.5 14.5zM359 820.5q-14 14.5 -14 33.5q0 20 14 34t34 14t34.5 -14t14.5 -34t-14.5 -34t-34.5 -14
t-34 14.5z" />
    <glyph glyph-name="Aring" unicode="&#xc5;" horiz-adv-x="584" 
d="M564 0h-63l-60 182h-298l-60 -182h-63l236 700h70zM292 632l-131 -395h262zM226 795q-26 28 -26 70v2q0 42 26 70t66 28q39 0 65 -28t26 -70v-2q0 -42 -25.5 -70t-65.5 -28t-66 28zM324.5 826q12.5 15 12.5 38v4q0 23 -12.5 38t-32.5 15t-32.5 -15t-12.5 -38v-4
q0 -23 12.5 -38t32.5 -15t32.5 15z" />
    <glyph glyph-name="AE" unicode="&#xc6;" horiz-adv-x="865" 
d="M459 334v-280h349v-54h-408v188h-226l-88 -188h-66l332 700h451v-54h-344v-258h292v-54h-292zM388 646l-188 -403h200v403h-12z" />
    <glyph glyph-name="Ccedilla" unicode="&#xc7;" horiz-adv-x="626" 
d="M320 -13l-13 -44q22 11 45 11q37 0 60 -22t23 -60q0 -40 -26.5 -64t-69.5 -24q-48 0 -78 17l22 43q25 -16 56 -16q21 0 33.5 11.5t12.5 32.5q0 20 -12 31.5t-30 11.5q-24 0 -44 -14l-32 21l15 69q-69 14 -121 59t-80.5 115.5t-28.5 157.5v54q0 99 36 175.5t101.5 119
t150.5 42.5t146.5 -43t93.5 -119l-46 -27q-28 64 -77 100t-117 36q-69 0 -121 -36t-80.5 -100t-28.5 -145v-60q0 -81 28.5 -145t80.5 -100t121 -36q132 0 194 137l47 -26q-35 -78 -95.5 -121t-145.5 -43q-14 0 -20 1z" />
    <glyph glyph-name="Egrave" unicode="&#xc8;" horiz-adv-x="545" 
d="M488 0h-407v700h403v-54h-345v-258h293v-54h-293v-280h349v-54zM310 785h-50l-98 143h75z" />
    <glyph glyph-name="Eacute" unicode="&#xc9;" horiz-adv-x="545" 
d="M488 0h-407v700h403v-54h-345v-258h293v-54h-293v-280h349v-54zM310 785h-50l74 143h74z" />
    <glyph glyph-name="Ecircumflex" unicode="&#xca;" horiz-adv-x="545" 
d="M488 0h-407v700h403v-54h-345v-258h293v-54h-293v-280h349v-54zM215 785h-51l91 143h60l91 -143h-51l-70 85z" />
    <glyph glyph-name="Edieresis" unicode="&#xcb;" horiz-adv-x="545" 
d="M488 0h-407v700h403v-54h-345v-258h293v-54h-293v-280h349v-54zM149.5 820.5q-14.5 14.5 -14.5 33.5q0 20 14.5 34t34.5 14t34 -14t14 -34t-14 -34t-34 -14t-34.5 14.5zM352 820.5q-14 14.5 -14 33.5q0 20 14 34t34 14t34.5 -14t14.5 -34t-14.5 -34t-34.5 -14t-34 14.5z
" />
    <glyph glyph-name="Igrave" unicode="&#xcc;" horiz-adv-x="220" 
d="M139 0h-58v700h58v-700zM135 785h-50l-98 143h75z" />
    <glyph glyph-name="Iacute" unicode="&#xcd;" horiz-adv-x="220" 
d="M139 0h-58v700h58v-700zM135 785h-50l74 143h74z" />
    <glyph glyph-name="Icircumflex" unicode="&#xce;" horiz-adv-x="220" 
d="M139 0h-58v700h58v-700zM40 785h-51l91 143h60l91 -143h-51l-70 85z" />
    <glyph glyph-name="Idieresis" unicode="&#xcf;" horiz-adv-x="220" 
d="M139 0h-58v700h58v-700zM-25.5 820.5q-14.5 14.5 -14.5 33.5q0 20 14.5 34t34.5 14t34 -14t14 -34t-14 -34t-34 -14t-34.5 14.5zM177 820.5q-14 14.5 -14 33.5q0 20 14 34t34 14t34.5 -14t14.5 -34t-14.5 -34t-34.5 -14t-34 14.5z" />
    <glyph glyph-name="Eth" unicode="&#xd0;" horiz-adv-x="566" 
d="M244 700q87 0 155.5 -40t106.5 -113t38 -169v-56q0 -96 -38 -169t-106.5 -113t-155.5 -40h-163v323h-91v54h91v323h163zM485 378q0 82 -30.5 142.5t-86 93t-130.5 32.5h-99v-269h148v-54h-148v-269h99q75 0 130.5 32.5t86 93t30.5 142.5v56z" />
    <glyph glyph-name="Ntilde" unicode="&#xd1;" horiz-adv-x="599" 
d="M138 0h-57v700h67l313 -573v573h57v-700h-52l-328 597v-597zM165 834q8 32 28 50t50 18q21 0 35.5 -6t31.5 -17q14 -9 22.5 -13t19.5 -4q17 0 28 10t18 30l38 -16q-9 -32 -29 -50t-50 -18q-21 0 -36 6t-32 17q-13 9 -22.5 13t-19.5 4q-32 0 -44 -39z" />
    <glyph glyph-name="Ograve" unicode="&#xd2;" horiz-adv-x="690" 
d="M192.5 28.5q-66.5 42.5 -103.5 119.5t-37 175v54q0 98 37 175t103.5 119.5t152.5 42.5t152.5 -42.5t103.5 -119.5t37 -175v-54q0 -98 -37 -175t-103.5 -119.5t-152.5 -42.5t-152.5 42.5zM467.5 75q53.5 36 83 100t29.5 144v62q0 80 -29.5 144t-83 100t-122.5 36
t-122.5 -36t-83 -100t-29.5 -144v-62q0 -80 29.5 -144t83 -100t122.5 -36t122.5 36zM370 785h-50l-98 143h75z" />
    <glyph glyph-name="Oacute" unicode="&#xd3;" horiz-adv-x="690" 
d="M192.5 28.5q-66.5 42.5 -103.5 119.5t-37 175v54q0 98 37 175t103.5 119.5t152.5 42.5t152.5 -42.5t103.5 -119.5t37 -175v-54q0 -98 -37 -175t-103.5 -119.5t-152.5 -42.5t-152.5 42.5zM467.5 75q53.5 36 83 100t29.5 144v62q0 80 -29.5 144t-83 100t-122.5 36
t-122.5 -36t-83 -100t-29.5 -144v-62q0 -80 29.5 -144t83 -100t122.5 -36t122.5 36zM370 785h-50l74 143h74z" />
    <glyph glyph-name="Ocircumflex" unicode="&#xd4;" horiz-adv-x="690" 
d="M192.5 28.5q-66.5 42.5 -103.5 119.5t-37 175v54q0 98 37 175t103.5 119.5t152.5 42.5t152.5 -42.5t103.5 -119.5t37 -175v-54q0 -98 -37 -175t-103.5 -119.5t-152.5 -42.5t-152.5 42.5zM467.5 75q53.5 36 83 100t29.5 144v62q0 80 -29.5 144t-83 100t-122.5 36
t-122.5 -36t-83 -100t-29.5 -144v-62q0 -80 29.5 -144t83 -100t122.5 -36t122.5 36zM275 785h-51l91 143h60l91 -143h-51l-70 85z" />
    <glyph glyph-name="Otilde" unicode="&#xd5;" horiz-adv-x="690" 
d="M192.5 28.5q-66.5 42.5 -103.5 119.5t-37 175v54q0 98 37 175t103.5 119.5t152.5 42.5t152.5 -42.5t103.5 -119.5t37 -175v-54q0 -98 -37 -175t-103.5 -119.5t-152.5 -42.5t-152.5 42.5zM467.5 75q53.5 36 83 100t29.5 144v62q0 80 -29.5 144t-83 100t-122.5 36
t-122.5 -36t-83 -100t-29.5 -144v-62q0 -80 29.5 -144t83 -100t122.5 -36t122.5 36zM210 834q8 32 28 50t50 18q21 0 35.5 -6t31.5 -17q14 -9 22.5 -13t19.5 -4q17 0 28 10t18 30l38 -16q-9 -32 -29 -50t-50 -18q-21 0 -36 6t-32 17q-13 9 -22.5 13t-19.5 4q-32 0 -44 -39z
" />
    <glyph glyph-name="Odieresis" unicode="&#xd6;" horiz-adv-x="690" 
d="M192.5 28.5q-66.5 42.5 -103.5 119.5t-37 175v54q0 98 37 175t103.5 119.5t152.5 42.5t152.5 -42.5t103.5 -119.5t37 -175v-54q0 -98 -37 -175t-103.5 -119.5t-152.5 -42.5t-152.5 42.5zM467.5 75q53.5 36 83 100t29.5 144v62q0 80 -29.5 144t-83 100t-122.5 36
t-122.5 -36t-83 -100t-29.5 -144v-62q0 -80 29.5 -144t83 -100t122.5 -36t122.5 36zM209.5 820.5q-14.5 14.5 -14.5 33.5q0 20 14.5 34t34.5 14t34 -14t14 -34t-14 -34t-34 -14t-34.5 14.5zM412 820.5q-14 14.5 -14 33.5q0 20 14 34t34 14t34.5 -14t14.5 -34t-14.5 -34
t-34.5 -14t-34 14.5z" />
    <glyph glyph-name="multiply" unicode="&#xd7;" horiz-adv-x="432" 
d="M365 499l38 -38l-149 -149l149 -149l-38 -38l-149 149l-149 -149l-38 38l149 149l-149 149l38 38l149 -149z" />
    <glyph glyph-name="Oslash" unicode="&#xd8;" horiz-adv-x="690" 
d="M515 660q58 -44 90.5 -117.5t32.5 -165.5v-54q0 -98 -37 -175t-103.5 -119.5t-152.5 -42.5q-67 0 -123 27l-42 -93h-57l54 120q-59 43 -92 116.5t-33 166.5v54q0 98 37 175t103.5 119.5t152.5 42.5q66 0 125 -27l42 93h57zM110 319q0 -72 24 -131t67 -96l246 545
q-48 24 -102 24q-69 0 -122.5 -36t-83 -100t-29.5 -144v-62zM580 381q0 71 -23.5 129.5t-65.5 96.5l-247 -545q46 -23 101 -23q69 0 122.5 36t83 100t29.5 144v62z" />
    <glyph glyph-name="Ugrave" unicode="&#xd9;" horiz-adv-x="602" 
d="M178 19q-51 33 -77 90.5t-26 130.5v460h58v-463q0 -89 44.5 -143t123.5 -54q78 0 122.5 54t44.5 143v463h59v-460q0 -73 -26 -130.5t-77 -90.5t-123 -33t-123 33zM326 785h-50l-98 143h75z" />
    <glyph glyph-name="Uacute" unicode="&#xda;" horiz-adv-x="602" 
d="M178 19q-51 33 -77 90.5t-26 130.5v460h58v-463q0 -89 44.5 -143t123.5 -54q78 0 122.5 54t44.5 143v463h59v-460q0 -73 -26 -130.5t-77 -90.5t-123 -33t-123 33zM326 785h-50l74 143h74z" />
    <glyph glyph-name="Ucircumflex" unicode="&#xdb;" horiz-adv-x="602" 
d="M178 19q-51 33 -77 90.5t-26 130.5v460h58v-463q0 -89 44.5 -143t123.5 -54q78 0 122.5 54t44.5 143v463h59v-460q0 -73 -26 -130.5t-77 -90.5t-123 -33t-123 33zM231 785h-51l91 143h60l91 -143h-51l-70 85z" />
    <glyph glyph-name="Udieresis" unicode="&#xdc;" horiz-adv-x="602" 
d="M178 19q-51 33 -77 90.5t-26 130.5v460h58v-463q0 -89 44.5 -143t123.5 -54q78 0 122.5 54t44.5 143v463h59v-460q0 -73 -26 -130.5t-77 -90.5t-123 -33t-123 33zM165.5 820.5q-14.5 14.5 -14.5 33.5q0 20 14.5 34t34.5 14t34 -14t14 -34t-14 -34t-34 -14t-34.5 14.5z
M368 820.5q-14 14.5 -14 33.5q0 20 14 34t34 14t34.5 -14t14.5 -34t-14.5 -34t-34.5 -14t-34 14.5z" />
    <glyph glyph-name="Yacute" unicode="&#xdd;" horiz-adv-x="517" 
d="M287 0h-58v291l-212 409h65l176 -347l176 347h66l-213 -409v-291zM283 785h-50l74 143h74z" />
    <glyph glyph-name="Thorn" unicode="&#xde;" horiz-adv-x="538" 
d="M81 0v700h58v-166h158q86 0 137.5 -48.5t51.5 -135.5t-51.5 -135.5t-137.5 -48.5h-158v-166h-58zM290 221q67 0 102.5 32t35.5 97t-35.5 97t-102.5 32h-151v-258h151z" />
    <glyph glyph-name="germandbls" unicode="&#xdf;" horiz-adv-x="513" 
d="M185 5v57q43 -24 97 -24q59 0 94 41t35 112v14q0 76 -43 117.5t-110 41.5h-25v51h24q54 0 86 34t32 90v4q0 55 -34 87t-89 32q-57 0 -91.5 -37t-34.5 -108v-517h-54v516q0 92 49 144t131 52q79 0 128 -46.5t49 -123.5v-2q0 -52 -27 -91t-66 -56q58 -17 94.5 -64.5
t36.5 -121.5v-17q0 -92 -50.5 -147t-133.5 -55q-51 0 -98 17z" />
    <glyph glyph-name="agrave" unicode="&#xe0;" horiz-adv-x="508" 
d="M89 26.5q-41 38.5 -41 102.5v4q0 66 43 103.5t113 50.5l150 30v18q0 54 -32 87.5t-89 33.5q-98 0 -132 -98l-49 20q18 59 65.5 94.5t115.5 35.5q82 0 128.5 -47.5t46.5 -124.5v-249q0 -23 11 -37t33 -14q18 0 34 8v-47q-18 -9 -48 -9q-39 0 -61 25.5t-23 67.5
q-46 -93 -158 -93q-66 0 -107 38.5zM312 88q42 50 42 142v39l-140 -28q-109 -21 -109 -110v-1q0 -40 26 -66t69 -26q70 0 112 50zM259 581h-50l-98 143h75z" />
    <glyph glyph-name="aacute" unicode="&#xe1;" horiz-adv-x="508" 
d="M89 26.5q-41 38.5 -41 102.5v4q0 66 43 103.5t113 50.5l150 30v18q0 54 -32 87.5t-89 33.5q-98 0 -132 -98l-49 20q18 59 65.5 94.5t115.5 35.5q82 0 128.5 -47.5t46.5 -124.5v-249q0 -23 11 -37t33 -14q18 0 34 8v-47q-18 -9 -48 -9q-39 0 -61 25.5t-23 67.5
q-46 -93 -158 -93q-66 0 -107 38.5zM312 88q42 50 42 142v39l-140 -28q-109 -21 -109 -110v-1q0 -40 26 -66t69 -26q70 0 112 50zM259 581h-50l74 143h74z" />
    <glyph glyph-name="acircumflex" unicode="&#xe2;" horiz-adv-x="508" 
d="M89 26.5q-41 38.5 -41 102.5v4q0 66 43 103.5t113 50.5l150 30v18q0 54 -32 87.5t-89 33.5q-98 0 -132 -98l-49 20q18 59 65.5 94.5t115.5 35.5q82 0 128.5 -47.5t46.5 -124.5v-249q0 -23 11 -37t33 -14q18 0 34 8v-47q-18 -9 -48 -9q-39 0 -61 25.5t-23 67.5
q-46 -93 -158 -93q-66 0 -107 38.5zM312 88q42 50 42 142v39l-140 -28q-109 -21 -109 -110v-1q0 -40 26 -66t69 -26q70 0 112 50zM164 581h-51l91 143h60l91 -143h-51l-70 85z" />
    <glyph glyph-name="atilde" unicode="&#xe3;" horiz-adv-x="508" 
d="M89 26.5q-41 38.5 -41 102.5v4q0 66 43 103.5t113 50.5l150 30v18q0 54 -32 87.5t-89 33.5q-98 0 -132 -98l-49 20q18 59 65.5 94.5t115.5 35.5q82 0 128.5 -47.5t46.5 -124.5v-249q0 -23 11 -37t33 -14q18 0 34 8v-47q-18 -9 -48 -9q-39 0 -61 25.5t-23 67.5
q-46 -93 -158 -93q-66 0 -107 38.5zM312 88q42 50 42 142v39l-140 -28q-109 -21 -109 -110v-1q0 -40 26 -66t69 -26q70 0 112 50zM99 630q8 32 28 50t50 18q21 0 35.5 -6t31.5 -17q14 -9 22.5 -13t19.5 -4q17 0 28 10t18 30l38 -16q-9 -32 -29 -50t-50 -18q-21 0 -36 6
t-32 17q-13 9 -22.5 13t-19.5 4q-32 0 -44 -39z" />
    <glyph glyph-name="adieresis" unicode="&#xe4;" horiz-adv-x="508" 
d="M89 26.5q-41 38.5 -41 102.5v4q0 66 43 103.5t113 50.5l150 30v18q0 54 -32 87.5t-89 33.5q-98 0 -132 -98l-49 20q18 59 65.5 94.5t115.5 35.5q82 0 128.5 -47.5t46.5 -124.5v-249q0 -23 11 -37t33 -14q18 0 34 8v-47q-18 -9 -48 -9q-39 0 -61 25.5t-23 67.5
q-46 -93 -158 -93q-66 0 -107 38.5zM312 88q42 50 42 142v39l-140 -28q-109 -21 -109 -110v-1q0 -40 26 -66t69 -26q70 0 112 50zM98.5 616.5q-14.5 14.5 -14.5 33.5q0 20 14.5 34t34.5 14t34 -14t14 -34t-14 -34t-34 -14t-34.5 14.5zM301 616.5q-14 14.5 -14 33.5
q0 20 14 34t34 14t34.5 -14t14.5 -34t-14.5 -34t-34.5 -14t-34 14.5z" />
    <glyph glyph-name="aring" unicode="&#xe5;" horiz-adv-x="508" 
d="M89 26.5q-41 38.5 -41 102.5v4q0 66 43 103.5t113 50.5l150 30v18q0 54 -32 87.5t-89 33.5q-98 0 -132 -98l-49 20q18 59 65.5 94.5t115.5 35.5q82 0 128.5 -47.5t46.5 -124.5v-249q0 -23 11 -37t33 -14q18 0 34 8v-47q-18 -9 -48 -9q-39 0 -61 25.5t-23 67.5
q-46 -93 -158 -93q-66 0 -107 38.5zM312 88q42 50 42 142v39l-140 -28q-109 -21 -109 -110v-1q0 -40 26 -66t69 -26q70 0 112 50zM168 591q-26 28 -26 70v2q0 42 26 70t66 28q39 0 65 -28t26 -70v-2q0 -42 -25.5 -70t-65.5 -28t-66 28zM266.5 622q12.5 15 12.5 38v4
q0 23 -12.5 38t-32.5 15t-32.5 -15t-12.5 -38v-4q0 -23 12.5 -38t32.5 -15t32.5 15z" />
    <glyph glyph-name="ae" unicode="&#xe6;" horiz-adv-x="822" 
d="M776 241h-366v-8q0 -57 20.5 -100.5t57 -68t82.5 -24.5q101 0 144 103l49 -20q-26 -65 -74.5 -100t-118.5 -35q-64 0 -113.5 32.5t-76.5 89.5q-26 -58 -71.5 -90t-111.5 -32t-107.5 38.5t-41.5 102.5q0 69 45 105t119 43l142 11v48q0 53 -32 86.5t-90 33.5
q-97 0 -131 -98l-49 20q18 59 65.5 94.5t114.5 35.5q60 0 102 -26t60 -71q29 46 74.5 71.5t101.5 25.5q57 0 104 -27.5t74.5 -81t27.5 -126.5v-32zM459.5 410q-42.5 -46 -48.5 -122h310q-5 79 -47 123.5t-104 44.5q-68 0 -110.5 -46zM354 240l-135 -11q-114 -8 -114 -100
q0 -40 26.5 -65.5t70.5 -25.5q72 0 112 48t40 138v16z" />
    <glyph glyph-name="ccedilla" unicode="&#xe7;" horiz-adv-x="499" 
d="M250 -12l-13 -45q22 11 45 11q37 0 60 -22t23 -60q0 -40 -26.5 -64t-69.5 -24q-48 0 -78 17l22 43q25 -16 56 -16q21 0 33.5 11.5t12.5 32.5q0 20 -12 31.5t-30 11.5q-24 0 -44 -14l-32 21l16 72q-75 17 -121 82t-46 157v30q0 70 27.5 126t77 87.5t112.5 31.5
q71 0 119 -36t71 -103l-47 -22q-17 51 -53.5 80t-89.5 29q-72 0 -116.5 -53t-44.5 -139v-32q0 -86 44.5 -139t116.5 -53q53 0 89 29.5t55 80.5l50 -21q-58 -141 -194 -141h-13z" />
    <glyph glyph-name="egrave" unicode="&#xe8;" horiz-adv-x="514" 
d="M468 241h-366v-8q0 -57 20.5 -100.5t56.5 -68t82 -24.5q101 0 144 103l50 -20q-26 -64 -74.5 -99.5t-119.5 -35.5q-62 0 -111 31.5t-76.5 87.5t-27.5 126v30q0 71 28 127t77 87t111 31q57 0 104 -27.5t74.5 -81t27.5 -126.5v-32zM151.5 410q-42.5 -46 -48.5 -122h310
q-5 79 -47 123.5t-104 44.5q-68 0 -110.5 -46zM286 581h-50l-98 143h75z" />
    <glyph glyph-name="eacute" unicode="&#xe9;" horiz-adv-x="514" 
d="M468 241h-366v-8q0 -57 20.5 -100.5t56.5 -68t82 -24.5q101 0 144 103l50 -20q-26 -64 -74.5 -99.5t-119.5 -35.5q-62 0 -111 31.5t-76.5 87.5t-27.5 126v30q0 71 28 127t77 87t111 31q57 0 104 -27.5t74.5 -81t27.5 -126.5v-32zM151.5 410q-42.5 -46 -48.5 -122h310
q-5 79 -47 123.5t-104 44.5q-68 0 -110.5 -46zM286 581h-50l74 143h74z" />
    <glyph glyph-name="ecircumflex" unicode="&#xea;" horiz-adv-x="514" 
d="M468 241h-366v-8q0 -57 20.5 -100.5t56.5 -68t82 -24.5q101 0 144 103l50 -20q-26 -64 -74.5 -99.5t-119.5 -35.5q-62 0 -111 31.5t-76.5 87.5t-27.5 126v30q0 71 28 127t77 87t111 31q57 0 104 -27.5t74.5 -81t27.5 -126.5v-32zM151.5 410q-42.5 -46 -48.5 -122h310
q-5 79 -47 123.5t-104 44.5q-68 0 -110.5 -46zM191 581h-51l91 143h60l91 -143h-51l-70 85z" />
    <glyph glyph-name="edieresis" unicode="&#xeb;" horiz-adv-x="514" 
d="M468 241h-366v-8q0 -57 20.5 -100.5t56.5 -68t82 -24.5q101 0 144 103l50 -20q-26 -64 -74.5 -99.5t-119.5 -35.5q-62 0 -111 31.5t-76.5 87.5t-27.5 126v30q0 71 28 127t77 87t111 31q57 0 104 -27.5t74.5 -81t27.5 -126.5v-32zM151.5 410q-42.5 -46 -48.5 -122h310
q-5 79 -47 123.5t-104 44.5q-68 0 -110.5 -46zM125.5 616.5q-14.5 14.5 -14.5 33.5q0 20 14.5 34t34.5 14t34 -14t14 -34t-14 -34t-34 -14t-34.5 14.5zM328 616.5q-14 14.5 -14 33.5q0 20 14 34t34 14t34.5 -14t14.5 -34t-14.5 -34t-34.5 -14t-34 14.5z" />
    <glyph glyph-name="igrave" unicode="&#xec;" 
d="M126 0h-54v496h54v-496zM124 581h-50l-98 143h75z" />
    <glyph glyph-name="iacute" unicode="&#xed;" 
d="M126 0h-54v496h54v-496zM124 581h-50l74 143h74z" />
    <glyph glyph-name="icircumflex" unicode="&#xee;" 
d="M126 0h-54v496h54v-496zM29 581h-51l91 143h60l91 -143h-51l-70 85z" />
    <glyph glyph-name="idieresis" unicode="&#xef;" 
d="M126 0h-54v496h54v-496zM-36.5 616.5q-14.5 14.5 -14.5 33.5q0 20 14.5 34t34.5 14t34 -14t14 -34t-14 -34t-34 -14t-34.5 14.5zM166 616.5q-14 14.5 -14 33.5q0 20 14 34t34 14t34.5 -14t14.5 -34t-14.5 -34t-34.5 -14t-34 14.5z" />
    <glyph glyph-name="eth" unicode="&#xf0;" horiz-adv-x="516" 
d="M386 471q43 -57 63.5 -110t20.5 -121v-10q0 -77 -29.5 -132t-78 -82.5t-103.5 -27.5q-60 0 -108.5 30t-76.5 84.5t-28 124.5v10q0 71 27 124t73 81.5t103 28.5q60 0 98 -32l-99 131l-86 -63l-24 36l84 61l-73 96h67l48 -65l90 65l24 -36l-88 -64zM412 238q0 86 -41 135
t-109 49q-69 0 -113.5 -49.5t-44.5 -134.5v-12q0 -57 20.5 -98.5t55.5 -63.5t79 -22q67 0 110 49.5t43 134.5v12z" />
    <glyph glyph-name="ntilde" unicode="&#xf1;" horiz-adv-x="502" 
d="M72 0v496h54v-62q16 32 52 53t85 21q77 0 122 -48.5t45 -128.5v-331h-54v322q0 63 -34.5 99.5t-90.5 36.5q-57 0 -91 -37.5t-34 -99.5v-321h-54zM116 630q8 32 28 50t50 18q21 0 35.5 -6t31.5 -17q14 -9 22.5 -13t19.5 -4q17 0 28 10t18 30l38 -16q-9 -32 -29 -50
t-50 -18q-21 0 -36 6t-32 17q-13 9 -22.5 13t-19.5 4q-32 0 -44 -39z" />
    <glyph glyph-name="ograve" unicode="&#xf2;" horiz-adv-x="533" 
d="M153 19.5q-50 31.5 -78.5 87t-28.5 126.5v30q0 71 28.5 126.5t78.5 87t113 31.5q64 0 114 -31.5t78.5 -87t28.5 -126.5v-30q0 -71 -28.5 -126.5t-78.5 -87t-114 -31.5q-63 0 -113 31.5zM386 93q45 53 45 139v32q0 86 -45 139t-120 53q-74 0 -119 -53t-45 -139v-32
q0 -86 45 -139t119 -53q75 0 120 53zM291 581h-50l-98 143h75z" />
    <glyph glyph-name="oacute" unicode="&#xf3;" horiz-adv-x="533" 
d="M153 19.5q-50 31.5 -78.5 87t-28.5 126.5v30q0 71 28.5 126.5t78.5 87t113 31.5q64 0 114 -31.5t78.5 -87t28.5 -126.5v-30q0 -71 -28.5 -126.5t-78.5 -87t-114 -31.5q-63 0 -113 31.5zM386 93q45 53 45 139v32q0 86 -45 139t-120 53q-74 0 -119 -53t-45 -139v-32
q0 -86 45 -139t119 -53q75 0 120 53zM291 581h-50l74 143h74z" />
    <glyph glyph-name="ocircumflex" unicode="&#xf4;" horiz-adv-x="533" 
d="M153 19.5q-50 31.5 -78.5 87t-28.5 126.5v30q0 71 28.5 126.5t78.5 87t113 31.5q64 0 114 -31.5t78.5 -87t28.5 -126.5v-30q0 -71 -28.5 -126.5t-78.5 -87t-114 -31.5q-63 0 -113 31.5zM386 93q45 53 45 139v32q0 86 -45 139t-120 53q-74 0 -119 -53t-45 -139v-32
q0 -86 45 -139t119 -53q75 0 120 53zM196 581h-51l91 143h60l91 -143h-51l-70 85z" />
    <glyph glyph-name="otilde" unicode="&#xf5;" horiz-adv-x="533" 
d="M153 19.5q-50 31.5 -78.5 87t-28.5 126.5v30q0 71 28.5 126.5t78.5 87t113 31.5q64 0 114 -31.5t78.5 -87t28.5 -126.5v-30q0 -71 -28.5 -126.5t-78.5 -87t-114 -31.5q-63 0 -113 31.5zM386 93q45 53 45 139v32q0 86 -45 139t-120 53q-74 0 -119 -53t-45 -139v-32
q0 -86 45 -139t119 -53q75 0 120 53zM131 630q8 32 28 50t50 18q21 0 35.5 -6t31.5 -17q14 -9 22.5 -13t19.5 -4q17 0 28 10t18 30l38 -16q-9 -32 -29 -50t-50 -18q-21 0 -36 6t-32 17q-13 9 -22.5 13t-19.5 4q-32 0 -44 -39z" />
    <glyph glyph-name="odieresis" unicode="&#xf6;" horiz-adv-x="533" 
d="M153 19.5q-50 31.5 -78.5 87t-28.5 126.5v30q0 71 28.5 126.5t78.5 87t113 31.5q64 0 114 -31.5t78.5 -87t28.5 -126.5v-30q0 -71 -28.5 -126.5t-78.5 -87t-114 -31.5q-63 0 -113 31.5zM386 93q45 53 45 139v32q0 86 -45 139t-120 53q-74 0 -119 -53t-45 -139v-32
q0 -86 45 -139t119 -53q75 0 120 53zM130.5 616.5q-14.5 14.5 -14.5 33.5q0 20 14.5 34t34.5 14t34 -14t14 -34t-14 -34t-34 -14t-34.5 14.5zM333 616.5q-14 14.5 -14 33.5q0 20 14 34t34 14t34.5 -14t14.5 -34t-14.5 -34t-34.5 -14t-34 14.5z" />
    <glyph glyph-name="divide" unicode="&#xf7;" horiz-adv-x="432" 
d="M404 285h-376v54h376v-54zM182.5 112.5q-14.5 14.5 -14.5 33.5q0 21 14 35t34 14q21 0 35 -14t14 -35q0 -20 -14 -34t-35 -14q-19 0 -33.5 14.5zM182.5 443.5q-14.5 14.5 -14.5 33.5q0 21 14 35t34 14q21 0 35 -14t14 -35q0 -20 -14 -34t-35 -14q-19 0 -33.5 14.5z" />
    <glyph glyph-name="oslash" unicode="&#xf8;" horiz-adv-x="533" 
d="M398 464q42 -33 65.5 -85t23.5 -116v-30q0 -71 -28.5 -126.5t-78.5 -87t-114 -31.5q-48 0 -87 18l-35 -74h-57l48 100q-42 33 -65.5 85t-23.5 116v30q0 71 28.5 126.5t78.5 87t113 31.5q47 0 88 -18l35 74h57zM102 232q0 -47 14.5 -86t41.5 -65l173 362q-27 13 -65 13
q-74 0 -119 -53t-45 -139v-32zM431 264q0 47 -14.5 86t-41.5 65l-173 -362q27 -13 64 -13q75 0 120 53t45 139v32z" />
    <glyph glyph-name="ugrave" unicode="&#xf9;" horiz-adv-x="502" 
d="M117 37q-45 49 -45 129v330h54v-322q0 -63 34.5 -99.5t90.5 -36.5q57 0 91 37.5t34 99.5v321h54v-496h-54v62q-16 -32 -52 -53t-85 -21q-77 0 -122 49zM276 581h-50l-98 143h75z" />
    <glyph glyph-name="uacute" unicode="&#xfa;" horiz-adv-x="502" 
d="M117 37q-45 49 -45 129v330h54v-322q0 -63 34.5 -99.5t90.5 -36.5q57 0 91 37.5t34 99.5v321h54v-496h-54v62q-16 -32 -52 -53t-85 -21q-77 0 -122 49zM276 581h-50l74 143h74z" />
    <glyph glyph-name="ucircumflex" unicode="&#xfb;" horiz-adv-x="502" 
d="M117 37q-45 49 -45 129v330h54v-322q0 -63 34.5 -99.5t90.5 -36.5q57 0 91 37.5t34 99.5v321h54v-496h-54v62q-16 -32 -52 -53t-85 -21q-77 0 -122 49zM181 581h-51l91 143h60l91 -143h-51l-70 85z" />
    <glyph glyph-name="udieresis" unicode="&#xfc;" horiz-adv-x="502" 
d="M117 37q-45 49 -45 129v330h54v-322q0 -63 34.5 -99.5t90.5 -36.5q57 0 91 37.5t34 99.5v321h54v-496h-54v62q-16 -32 -52 -53t-85 -21q-77 0 -122 49zM115.5 616.5q-14.5 14.5 -14.5 33.5q0 20 14.5 34t34.5 14t34 -14t14 -34t-14 -34t-34 -14t-34.5 14.5zM318 616.5
q-14 14.5 -14 33.5q0 20 14 34t34 14t34.5 -14t14.5 -34t-14.5 -34t-34.5 -14t-34 14.5z" />
    <glyph glyph-name="yacute" unicode="&#xfd;" horiz-adv-x="455" 
d="M375 496h60l-217 -590q-24 -62 -57.5 -90t-87.5 -28q-30 0 -59 11v55q34 -16 62 -16q34 0 55 20.5t39 68.5l30 84l-182 485h61l149 -408zM252 581h-50l74 143h74z" />
    <glyph glyph-name="thorn" unicode="&#xfe;" horiz-adv-x="534" 
d="M72 -202v902h54v-282q21 40 62.5 65t95.5 25q58 0 104.5 -30t73 -85.5t26.5 -129.5v-30q0 -74 -26 -129.5t-72.5 -85.5t-104.5 -30q-56 0 -96.5 22.5t-62.5 59.5v-272h-54zM357 63.5q35 23.5 55 67t20 101.5v32q0 58 -20 101.5t-55 67t-80 23.5q-68 0 -111 -52t-43 -140
v-32q0 -88 43 -140t111 -52q45 0 80 23.5z" />
    <glyph glyph-name="ydieresis" unicode="&#xff;" horiz-adv-x="455" 
d="M375 496h60l-217 -590q-24 -62 -57.5 -90t-87.5 -28q-30 0 -59 11v55q34 -16 62 -16q34 0 55 20.5t39 68.5l30 84l-182 485h61l149 -408zM91.5 616.5q-14.5 14.5 -14.5 33.5q0 20 14.5 34t34.5 14t34 -14t14 -34t-14 -34t-34 -14t-34.5 14.5zM294 616.5
q-14 14.5 -14 33.5q0 20 14 34t34 14t34.5 -14t14.5 -34t-14.5 -34t-34.5 -14t-34 14.5z" />
    <glyph glyph-name="Amacron" unicode="&#x100;" horiz-adv-x="584" 
d="M564 0h-63l-60 182h-298l-60 -182h-63l236 700h70zM292 632l-131 -395h262zM402 830h-220v50h220v-50z" />
    <glyph glyph-name="amacron" unicode="&#x101;" horiz-adv-x="508" 
d="M89 26.5q-41 38.5 -41 102.5v4q0 66 43 103.5t113 50.5l150 30v18q0 54 -32 87.5t-89 33.5q-98 0 -132 -98l-49 20q18 59 65.5 94.5t115.5 35.5q82 0 128.5 -47.5t46.5 -124.5v-249q0 -23 11 -37t33 -14q18 0 34 8v-47q-18 -9 -48 -9q-39 0 -61 25.5t-23 67.5
q-46 -93 -158 -93q-66 0 -107 38.5zM312 88q42 50 42 142v39l-140 -28q-109 -21 -109 -110v-1q0 -40 26 -66t69 -26q70 0 112 50zM344 626h-220v50h220v-50z" />
    <glyph glyph-name="Abreve" unicode="&#x102;" horiz-adv-x="584" 
d="M564 0h-63l-60 182h-298l-60 -182h-63l236 700h70zM292 632l-131 -395h262zM219.5 808.5q-26.5 30.5 -26.5 73.5h52q0 -26 12 -41t35 -15t35.5 15t12.5 41h52q0 -43 -26.5 -73.5t-73.5 -30.5q-46 0 -72.5 30.5z" />
    <glyph glyph-name="abreve" unicode="&#x103;" horiz-adv-x="508" 
d="M89 26.5q-41 38.5 -41 102.5v4q0 66 43 103.5t113 50.5l150 30v18q0 54 -32 87.5t-89 33.5q-98 0 -132 -98l-49 20q18 59 65.5 94.5t115.5 35.5q82 0 128.5 -47.5t46.5 -124.5v-249q0 -23 11 -37t33 -14q18 0 34 8v-47q-18 -9 -48 -9q-39 0 -61 25.5t-23 67.5
q-46 -93 -158 -93q-66 0 -107 38.5zM312 88q42 50 42 142v39l-140 -28q-109 -21 -109 -110v-1q0 -40 26 -66t69 -26q70 0 112 50zM161.5 604.5q-26.5 30.5 -26.5 73.5h52q0 -26 12 -41t35 -15t35.5 15t12.5 41h52q0 -43 -26.5 -73.5t-73.5 -30.5q-46 0 -72.5 30.5z" />
    <glyph glyph-name="Aogonek" unicode="&#x104;" horiz-adv-x="584" 
d="M578 -136v-52q-22 -10 -50 -10q-38 0 -62.5 23t-24.5 67q0 37 17 65.5t41 48.5l-58 176h-298l-60 -182h-63l236 700h70l238 -700q-31 -18 -49.5 -44t-18.5 -56q0 -21 11.5 -33.5t31.5 -12.5q19 0 39 10zM292 632l-131 -395h262z" />
    <glyph glyph-name="aogonek" unicode="&#x105;" horiz-adv-x="508" 
d="M500 -139v-52q-22 -10 -50 -10q-38 0 -62.5 23t-24.5 67q0 59 46 103q-26 9 -40 32t-15 57q-46 -93 -158 -93q-66 0 -107 38.5t-41 102.5v4q0 66 43 103.5t113 50.5l150 30v18q0 54 -32 87.5t-89 33.5q-98 0 -132 -98l-49 20q18 59 65.5 94.5t115.5 35.5
q82 0 128.5 -47.5t46.5 -124.5v-249q0 -23 11 -37t33 -14q18 0 34 8v-47q-31 -18 -49.5 -44t-18.5 -56q0 -21 11.5 -33.5t31.5 -12.5q19 0 39 10zM354 269l-140 -28q-109 -21 -109 -110v-1q0 -40 26 -66t69 -26q70 0 112 50t42 142v39z" />
    <glyph glyph-name="Cacute" unicode="&#x106;" horiz-adv-x="626" 
d="M189.5 28.5q-65.5 42.5 -101.5 119t-36 175.5v54q0 99 36 175.5t101.5 119t150.5 42.5t146.5 -43t93.5 -119l-46 -27q-28 64 -77 100t-117 36q-69 0 -121 -36t-80.5 -100t-28.5 -145v-60q0 -81 28.5 -145t80.5 -100t121 -36q132 0 194 137l47 -26q-35 -78 -95.5 -121
t-145.5 -43t-150.5 42.5zM365 785h-50l74 143h74z" />
    <glyph glyph-name="cacute" unicode="&#x107;" horiz-adv-x="499" 
d="M150.5 19.5q-49.5 31.5 -77 87.5t-27.5 126v30q0 70 27.5 126t77 87.5t112.5 31.5q71 0 119 -36t71 -103l-47 -22q-17 51 -53.5 80t-89.5 29q-72 0 -116.5 -53t-44.5 -139v-32q0 -86 44.5 -139t116.5 -53q53 0 89 29.5t55 80.5l50 -21q-58 -141 -194 -141
q-63 0 -112.5 31.5zM288 581h-50l74 143h74z" />
    <glyph glyph-name="Ccircumflex" unicode="&#x108;" horiz-adv-x="626" 
d="M189.5 28.5q-65.5 42.5 -101.5 119t-36 175.5v54q0 99 36 175.5t101.5 119t150.5 42.5t146.5 -43t93.5 -119l-46 -27q-28 64 -77 100t-117 36q-69 0 -121 -36t-80.5 -100t-28.5 -145v-60q0 -81 28.5 -145t80.5 -100t121 -36q132 0 194 137l47 -26q-35 -78 -95.5 -121
t-145.5 -43t-150.5 42.5zM270 785h-51l91 143h60l91 -143h-51l-70 85z" />
    <glyph glyph-name="ccircumflex" unicode="&#x109;" horiz-adv-x="499" 
d="M150.5 19.5q-49.5 31.5 -77 87.5t-27.5 126v30q0 70 27.5 126t77 87.5t112.5 31.5q71 0 119 -36t71 -103l-47 -22q-17 51 -53.5 80t-89.5 29q-72 0 -116.5 -53t-44.5 -139v-32q0 -86 44.5 -139t116.5 -53q53 0 89 29.5t55 80.5l50 -21q-58 -141 -194 -141
q-63 0 -112.5 31.5zM193 581h-51l91 143h60l91 -143h-51l-70 85z" />
    <glyph glyph-name="Cdotaccent" unicode="&#x10a;" horiz-adv-x="626" 
d="M189.5 28.5q-65.5 42.5 -101.5 119t-36 175.5v54q0 99 36 175.5t101.5 119t150.5 42.5t146.5 -43t93.5 -119l-46 -27q-28 64 -77 100t-117 36q-69 0 -121 -36t-80.5 -100t-28.5 -145v-60q0 -81 28.5 -145t80.5 -100t121 -36q132 0 194 137l47 -26q-35 -78 -95.5 -121
t-145.5 -43t-150.5 42.5zM306 820.5q-14 14.5 -14 33.5q0 20 14 34t34 14t34 -14t14 -34t-14 -34t-34 -14t-34 14.5z" />
    <glyph glyph-name="cdotaccent" unicode="&#x10b;" horiz-adv-x="499" 
d="M150.5 19.5q-49.5 31.5 -77 87.5t-27.5 126v30q0 70 27.5 126t77 87.5t112.5 31.5q71 0 119 -36t71 -103l-47 -22q-17 51 -53.5 80t-89.5 29q-72 0 -116.5 -53t-44.5 -139v-32q0 -86 44.5 -139t116.5 -53q53 0 89 29.5t55 80.5l50 -21q-58 -141 -194 -141
q-63 0 -112.5 31.5zM229 616.5q-14 14.5 -14 33.5q0 20 14 34t34 14t34 -14t14 -34t-14 -34t-34 -14t-34 14.5z" />
    <glyph glyph-name="Ccaron" unicode="&#x10c;" horiz-adv-x="626" 
d="M189.5 28.5q-65.5 42.5 -101.5 119t-36 175.5v54q0 99 36 175.5t101.5 119t150.5 42.5t146.5 -43t93.5 -119l-46 -27q-28 64 -77 100t-117 36q-69 0 -121 -36t-80.5 -100t-28.5 -145v-60q0 -81 28.5 -145t80.5 -100t121 -36q132 0 194 137l47 -26q-35 -78 -95.5 -121
t-145.5 -43t-150.5 42.5zM370 785h-60l-91 143h51l70 -85l70 85h51z" />
    <glyph glyph-name="ccaron" unicode="&#x10d;" horiz-adv-x="499" 
d="M150.5 19.5q-49.5 31.5 -77 87.5t-27.5 126v30q0 70 27.5 126t77 87.5t112.5 31.5q71 0 119 -36t71 -103l-47 -22q-17 51 -53.5 80t-89.5 29q-72 0 -116.5 -53t-44.5 -139v-32q0 -86 44.5 -139t116.5 -53q53 0 89 29.5t55 80.5l50 -21q-58 -141 -194 -141
q-63 0 -112.5 31.5zM293 581h-60l-91 143h51l70 -85l70 85h51z" />
    <glyph glyph-name="Dcaron" unicode="&#x10e;" horiz-adv-x="596" 
d="M81 0v700h163q87 0 155.5 -40t106.5 -113t38 -169v-56q0 -96 -38 -169t-106.5 -113t-155.5 -40h-163zM238 54q75 0 130.5 32.5t86 93t30.5 142.5v56q0 82 -30.5 142.5t-86 93t-130.5 32.5h-99v-592h99zM284 785h-60l-91 143h51l70 -85l70 85h51z" />
    <glyph glyph-name="dcaron" unicode="&#x10f;" horiz-adv-x="636" 
d="M145 18q-46 30 -72.5 85.5t-26.5 129.5v30q0 74 27 129.5t73.5 85.5t105.5 30q55 0 95.5 -22.5t60.5 -58.5v273h54v-700h-54v76q-47 -88 -159 -88q-58 0 -104 30zM368 92q43 52 43 140v32q0 88 -43 140t-111 52q-45 0 -80 -23.5t-55 -67t-20 -101.5v-32q0 -58 20 -101.5
t55 -67t80 -23.5q68 0 111 52zM564 501l-20 11l23 53q2 6 8.5 21t8.5 25q-18 3 -30 16.5t-12 31.5q0 21 14 35t34 14q22 0 35.5 -14.5t13.5 -40.5q0 -21 -8.5 -38.5t-33.5 -59.5z" />
    <glyph glyph-name="Dcroat" unicode="&#x110;" horiz-adv-x="566" 
d="M244 700q87 0 155.5 -40t106.5 -113t38 -169v-56q0 -96 -38 -169t-106.5 -113t-155.5 -40h-163v323h-91v54h91v323h163zM485 378q0 82 -30.5 142.5t-86 93t-130.5 32.5h-99v-269h148v-54h-148v-269h99q75 0 130.5 32.5t86 93t30.5 142.5v56z" />
    <glyph glyph-name="dcroat" unicode="&#x111;" horiz-adv-x="527" 
d="M529 635v-50h-67v-585h-54v76q-47 -88 -159 -88q-58 0 -104 30t-72.5 85.5t-26.5 129.5v30q0 74 27 129.5t73.5 85.5t105.5 30q55 0 95.5 -22.5t60.5 -58.5v158h-171v50h171v65h54v-65h67zM411 264q0 88 -43 140t-111 52q-45 0 -80 -23.5t-55 -67t-20 -101.5v-32
q0 -58 20 -101.5t55 -67t80 -23.5q68 0 111 52t43 140v32z" />
    <glyph glyph-name="Emacron" unicode="&#x112;" horiz-adv-x="545" 
d="M488 0h-407v700h403v-54h-345v-258h293v-54h-293v-280h349v-54zM395 830h-220v50h220v-50z" />
    <glyph glyph-name="emacron" unicode="&#x113;" horiz-adv-x="514" 
d="M468 241h-366v-8q0 -57 20.5 -100.5t56.5 -68t82 -24.5q101 0 144 103l50 -20q-26 -64 -74.5 -99.5t-119.5 -35.5q-62 0 -111 31.5t-76.5 87.5t-27.5 126v30q0 71 28 127t77 87t111 31q57 0 104 -27.5t74.5 -81t27.5 -126.5v-32zM151.5 410q-42.5 -46 -48.5 -122h310
q-5 79 -47 123.5t-104 44.5q-68 0 -110.5 -46zM371 626h-220v50h220v-50z" />
    <glyph glyph-name="Ebreve" unicode="&#x114;" horiz-adv-x="545" 
d="M488 0h-407v700h403v-54h-345v-258h293v-54h-293v-280h349v-54zM212.5 808.5q-26.5 30.5 -26.5 73.5h52q0 -26 12 -41t35 -15t35.5 15t12.5 41h52q0 -43 -26.5 -73.5t-73.5 -30.5q-46 0 -72.5 30.5z" />
    <glyph glyph-name="ebreve" unicode="&#x115;" horiz-adv-x="514" 
d="M468 241h-366v-8q0 -57 20.5 -100.5t56.5 -68t82 -24.5q101 0 144 103l50 -20q-26 -64 -74.5 -99.5t-119.5 -35.5q-62 0 -111 31.5t-76.5 87.5t-27.5 126v30q0 71 28 127t77 87t111 31q57 0 104 -27.5t74.5 -81t27.5 -126.5v-32zM151.5 410q-42.5 -46 -48.5 -122h310
q-5 79 -47 123.5t-104 44.5q-68 0 -110.5 -46zM188.5 604.5q-26.5 30.5 -26.5 73.5h52q0 -26 12 -41t35 -15t35.5 15t12.5 41h52q0 -43 -26.5 -73.5t-73.5 -30.5q-46 0 -72.5 30.5z" />
    <glyph glyph-name="Edotaccent" unicode="&#x116;" horiz-adv-x="545" 
d="M488 0h-407v700h403v-54h-345v-258h293v-54h-293v-280h349v-54zM251 820.5q-14 14.5 -14 33.5q0 20 14 34t34 14t34 -14t14 -34t-14 -34t-34 -14t-34 14.5z" />
    <glyph glyph-name="edotaccent" unicode="&#x117;" horiz-adv-x="514" 
d="M468 241h-366v-8q0 -57 20.5 -100.5t56.5 -68t82 -24.5q101 0 144 103l50 -20q-26 -64 -74.5 -99.5t-119.5 -35.5q-62 0 -111 31.5t-76.5 87.5t-27.5 126v30q0 71 28 127t77 87t111 31q57 0 104 -27.5t74.5 -81t27.5 -126.5v-32zM151.5 410q-42.5 -46 -48.5 -122h310
q-5 79 -47 123.5t-104 44.5q-68 0 -110.5 -46zM227 616.5q-14 14.5 -14 33.5q0 20 14 34t34 14t34 -14t14 -34t-14 -34t-34 -14t-34 14.5z" />
    <glyph glyph-name="Eogonek" unicode="&#x118;" horiz-adv-x="545" 
d="M502 -136v-52q-22 -10 -50 -10q-38 0 -62.5 23t-24.5 67q0 34 14.5 61.5t36.5 46.5h-335v700h403v-54h-345v-258h293v-54h-293v-280h349v-54q-31 -18 -49.5 -44t-18.5 -56q0 -21 11.5 -33.5t31.5 -12.5q19 0 39 10z" />
    <glyph glyph-name="eogonek" unicode="&#x119;" horiz-adv-x="514" 
d="M468 241h-366v-8q0 -57 20.5 -100.5t56.5 -68t82 -24.5q101 0 144 103l50 -20q-38 -94 -119 -123q-31 -18 -49.5 -44t-18.5 -56q0 -21 11.5 -33.5t31.5 -12.5q19 0 39 10v-52q-22 -10 -50 -10q-38 0 -62.5 23t-24.5 67q0 55 39 96q-60 2 -107 34.5t-73 87t-26 123.5v30
q0 71 28 127t77 87t111 31q57 0 104 -27.5t74.5 -81t27.5 -126.5v-32zM151.5 410q-42.5 -46 -48.5 -122h310q-5 79 -47 123.5t-104 44.5q-68 0 -110.5 -46z" />
    <glyph glyph-name="Ecaron" unicode="&#x11a;" horiz-adv-x="545" 
d="M488 0h-407v700h403v-54h-345v-258h293v-54h-293v-280h349v-54zM315 785h-60l-91 143h51l70 -85l70 85h51z" />
    <glyph glyph-name="ecaron" unicode="&#x11b;" horiz-adv-x="514" 
d="M468 241h-366v-8q0 -57 20.5 -100.5t56.5 -68t82 -24.5q101 0 144 103l50 -20q-26 -64 -74.5 -99.5t-119.5 -35.5q-62 0 -111 31.5t-76.5 87.5t-27.5 126v30q0 71 28 127t77 87t111 31q57 0 104 -27.5t74.5 -81t27.5 -126.5v-32zM151.5 410q-42.5 -46 -48.5 -122h310
q-5 79 -47 123.5t-104 44.5q-68 0 -110.5 -46zM291 581h-60l-91 143h51l70 -85l70 85h51z" />
    <glyph glyph-name="Gcircumflex" unicode="&#x11c;" horiz-adv-x="644" 
d="M190 28.5q-66 42.5 -102 119t-36 175.5v54q0 99 36 175.5t101.5 119t150.5 42.5t146.5 -43t93.5 -119l-46 -27q-28 64 -77 100t-117 36q-69 0 -121 -36t-80.5 -100t-28.5 -145v-61q0 -81 28.5 -144.5t81 -99.5t122.5 -36q59 0 105 25.5t79 68.5v171h-199v52h256v-245
q-97 -125 -241 -125q-86 0 -152 42.5zM270 785h-51l91 143h60l91 -143h-51l-70 85z" />
    <glyph glyph-name="gcircumflex" unicode="&#x11d;" horiz-adv-x="535" 
d="M133.5 -180.5q-51.5 35.5 -73.5 93.5l50 27q19 -49 56.5 -77t92.5 -28q71 0 110 48.5t39 127.5v86q-22 -40 -62.5 -65t-97.5 -25q-58 0 -104 29t-72 83.5t-26 126.5v24q0 73 27 126.5t74 82.5t104 29q55 0 95 -23t62 -62v73h55v-488q0 -100 -54 -162t-150 -62
q-74 0 -125.5 35.5zM337 83q35 23 55 65t20 98v24q0 56 -20 98t-55 65t-80 23q-69 0 -112 -51t-43 -135v-24q0 -84 43 -135t112 -51q45 0 80 23zM189 581h-51l91 143h60l91 -143h-51l-70 85z" />
    <glyph glyph-name="Gbreve" unicode="&#x11e;" horiz-adv-x="644" 
d="M190 28.5q-66 42.5 -102 119t-36 175.5v54q0 99 36 175.5t101.5 119t150.5 42.5t146.5 -43t93.5 -119l-46 -27q-28 64 -77 100t-117 36q-69 0 -121 -36t-80.5 -100t-28.5 -145v-61q0 -81 28.5 -144.5t81 -99.5t122.5 -36q59 0 105 25.5t79 68.5v171h-199v52h256v-245
q-97 -125 -241 -125q-86 0 -152 42.5zM267.5 808.5q-26.5 30.5 -26.5 73.5h52q0 -26 12 -41t35 -15t35.5 15t12.5 41h52q0 -43 -26.5 -73.5t-73.5 -30.5q-46 0 -72.5 30.5z" />
    <glyph glyph-name="gbreve" unicode="&#x11f;" horiz-adv-x="535" 
d="M133.5 -180.5q-51.5 35.5 -73.5 93.5l50 27q19 -49 56.5 -77t92.5 -28q71 0 110 48.5t39 127.5v86q-22 -40 -62.5 -65t-97.5 -25q-58 0 -104 29t-72 83.5t-26 126.5v24q0 73 27 126.5t74 82.5t104 29q55 0 95 -23t62 -62v73h55v-488q0 -100 -54 -162t-150 -62
q-74 0 -125.5 35.5zM337 83q35 23 55 65t20 98v24q0 56 -20 98t-55 65t-80 23q-69 0 -112 -51t-43 -135v-24q0 -84 43 -135t112 -51q45 0 80 23zM186.5 604.5q-26.5 30.5 -26.5 73.5h52q0 -26 12 -41t35 -15t35.5 15t12.5 41h52q0 -43 -26.5 -73.5t-73.5 -30.5
q-46 0 -72.5 30.5z" />
    <glyph glyph-name="Gdotaccent" unicode="&#x120;" horiz-adv-x="644" 
d="M190 28.5q-66 42.5 -102 119t-36 175.5v54q0 99 36 175.5t101.5 119t150.5 42.5t146.5 -43t93.5 -119l-46 -27q-28 64 -77 100t-117 36q-69 0 -121 -36t-80.5 -100t-28.5 -145v-61q0 -81 28.5 -144.5t81 -99.5t122.5 -36q59 0 105 25.5t79 68.5v171h-199v52h256v-245
q-97 -125 -241 -125q-86 0 -152 42.5zM306 820.5q-14 14.5 -14 33.5q0 20 14 34t34 14t34 -14t14 -34t-14 -34t-34 -14t-34 14.5z" />
    <glyph glyph-name="gdotaccent" unicode="&#x121;" horiz-adv-x="535" 
d="M133.5 -180.5q-51.5 35.5 -73.5 93.5l50 27q19 -49 56.5 -77t92.5 -28q71 0 110 48.5t39 127.5v86q-22 -40 -62.5 -65t-97.5 -25q-58 0 -104 29t-72 83.5t-26 126.5v24q0 73 27 126.5t74 82.5t104 29q55 0 95 -23t62 -62v73h55v-488q0 -100 -54 -162t-150 -62
q-74 0 -125.5 35.5zM337 83q35 23 55 65t20 98v24q0 56 -20 98t-55 65t-80 23q-69 0 -112 -51t-43 -135v-24q0 -84 43 -135t112 -51q45 0 80 23zM225 616.5q-14 14.5 -14 33.5q0 20 14 34t34 14t34 -14t14 -34t-14 -34t-34 -14t-34 14.5z" />
    <glyph glyph-name="uni0122" unicode="&#x122;" horiz-adv-x="644" 
d="M190 28.5q-66 42.5 -102 119t-36 175.5v54q0 99 36 175.5t101.5 119t150.5 42.5t146.5 -43t93.5 -119l-46 -27q-28 64 -77 100t-117 36q-69 0 -121 -36t-80.5 -100t-28.5 -145v-61q0 -81 28.5 -144.5t81 -99.5t122.5 -36q59 0 105 25.5t79 68.5v171h-199v52h256v-245
q-97 -125 -241 -125q-86 0 -152 42.5zM322 -229l-17 13l16 21q16 22 16 43q-17 0 -29 11t-12 29q0 20 12 33t31 13q20 0 33 -13.5t13 -34.5q0 -45 -44 -94z" />
    <glyph glyph-name="uni0123" unicode="&#x123;" horiz-adv-x="535" 
d="M133.5 -180.5q-51.5 35.5 -73.5 93.5l50 27q19 -49 56.5 -77t92.5 -28q71 0 110 48.5t39 127.5v86q-22 -40 -62.5 -65t-97.5 -25q-58 0 -104 29t-72 83.5t-26 126.5v24q0 73 27 126.5t74 82.5t104 29q55 0 95 -23t62 -62v73h55v-488q0 -100 -54 -162t-150 -62
q-74 0 -125.5 35.5zM337 83q35 23 55 65t20 98v24q0 56 -20 98t-55 65t-80 23q-69 0 -112 -51t-43 -135v-24q0 -84 43 -135t112 -51q45 0 80 23zM226 588.5q-13 13.5 -13 34.5q0 45 44 94l19 21l17 -13l-16 -21q-6 -9 -11 -21.5t-5 -21.5q17 0 29 -11t12 -29q0 -20 -12 -33
t-31 -13q-20 0 -33 13.5z" />
    <glyph glyph-name="Hcircumflex" unicode="&#x124;" horiz-adv-x="639" 
d="M139 0h-58v700h58v-304h361v304h58v-700h-58v342h-361v-342zM250 785h-51l91 143h60l91 -143h-51l-70 85z" />
    <glyph glyph-name="hcircumflex" unicode="&#x125;" horiz-adv-x="509" 
d="M72 0v700h54v-267q17 32 53.5 53.5t86.5 21.5q77 0 124 -50.5t47 -129.5v-328h-54v317q0 63 -36 102t-93 39q-56 0 -92 -40t-36 -101v-317h-54zM29 785h-51l91 143h60l91 -143h-51l-70 85z" />
    <glyph glyph-name="Hbar" unicode="&#x126;" horiz-adv-x="639" 
d="M558 596h64v-54h-64v-542h-58v342h-361v-342h-58v542h-64v54h64v104h58v-104h361v104h58v-104zM139 396h361v146h-361v-146z" />
    <glyph glyph-name="hbar" unicode="&#x127;" horiz-adv-x="487" 
d="M390 457.5q47 -50.5 47 -129.5v-328h-54v317q0 63 -36 102t-93 39q-56 0 -92 -40t-36 -101v-317h-54v585h-74v50h74v65h54v-65h163v-50h-163v-152q17 32 53.5 53.5t86.5 21.5q77 0 124 -50.5z" />
    <glyph glyph-name="Itilde" unicode="&#x128;" horiz-adv-x="220" 
d="M139 0h-58v700h58v-700zM-25 834q8 32 28 50t50 18q21 0 35.5 -6t31.5 -17q14 -9 22.5 -13t19.5 -4q17 0 28 10t18 30l38 -16q-9 -32 -29 -50t-50 -18q-21 0 -36 6t-32 17q-13 9 -22.5 13t-19.5 4q-32 0 -44 -39z" />
    <glyph glyph-name="itilde" unicode="&#x129;" 
d="M126 0h-54v496h54v-496zM-36 630q8 32 28 50t50 18q21 0 35.5 -6t31.5 -17q14 -9 22.5 -13t19.5 -4q17 0 28 10t18 30l38 -16q-9 -32 -29 -50t-50 -18q-21 0 -36 6t-32 17q-13 9 -22.5 13t-19.5 4q-32 0 -44 -39z" />
    <glyph glyph-name="Imacron" unicode="&#x12a;" horiz-adv-x="220" 
d="M139 0h-58v700h58v-700zM220 830h-220v50h220v-50z" />
    <glyph glyph-name="imacron" unicode="&#x12b;" 
d="M126 0h-54v496h54v-496zM209 626h-220v50h220v-50z" />
    <glyph glyph-name="Ibreve" unicode="&#x12c;" horiz-adv-x="220" 
d="M139 0h-58v700h58v-700zM37.5 808.5q-26.5 30.5 -26.5 73.5h52q0 -26 12 -41t35 -15t35.5 15t12.5 41h52q0 -43 -26.5 -73.5t-73.5 -30.5q-46 0 -72.5 30.5z" />
    <glyph glyph-name="ibreve" unicode="&#x12d;" 
d="M126 0h-54v496h54v-496zM26.5 604.5q-26.5 30.5 -26.5 73.5h52q0 -26 12 -41t35 -15t35.5 15t12.5 41h52q0 -43 -26.5 -73.5t-73.5 -30.5q-46 0 -72.5 30.5z" />
    <glyph glyph-name="Iogonek" unicode="&#x12e;" horiz-adv-x="220" 
d="M153 -136v-52q-22 -10 -50 -10q-38 0 -62.5 23t-24.5 67q0 39 19.5 69.5t45.5 49.5v689h58v-700q-31 -18 -49.5 -44t-18.5 -56q0 -21 11.5 -33.5t31.5 -12.5q19 0 39 10z" />
    <glyph glyph-name="iogonek" unicode="&#x12f;" 
d="M65.5 616.5q-14.5 14.5 -14.5 33.5q0 20 14 34t34 14t34 -14t14 -34t-14 -34t-34 -14q-19 0 -33.5 14.5zM69.5 -133.5q11.5 -12.5 31.5 -12.5q19 0 39 10v-52q-22 -10 -50 -10q-38 0 -62.5 23t-24.5 67q0 39 20.5 70t48.5 49v485h54v-496q-31 -18 -49.5 -44t-18.5 -56
q0 -21 11.5 -33.5z" />
    <glyph glyph-name="Idotaccent" unicode="&#x130;" horiz-adv-x="220" 
d="M139 0h-58v700h58v-700zM76 820.5q-14 14.5 -14 33.5q0 20 14 34t34 14t34 -14t14 -34t-14 -34t-34 -14t-34 14.5z" />
    <glyph glyph-name="dotlessi" unicode="&#x131;" 
d="M126 0h-54v496h54v-496z" />
    <glyph glyph-name="IJ" unicode="&#x132;" horiz-adv-x="708" 
d="M139 0h-58v700h58v-700zM328 27.5q-49 41.5 -70 113.5l55 20q14 -58 49.5 -89.5t88.5 -31.5q62 0 93 41.5t31 120.5v498h58v-496q0 -103 -47.5 -160.5t-134.5 -57.5q-74 0 -123 41.5z" />
    <glyph glyph-name="ij" unicode="&#x133;" horiz-adv-x="396" 
d="M64.5 616.5q-14.5 14.5 -14.5 33.5q0 20 14.5 34t34.5 14t34 -14t14 -34t-14 -34t-34 -14t-34.5 14.5zM126 0h-54v496h54v-496zM262.5 616.5q-14.5 14.5 -14.5 33.5q0 20 14.5 34t34.5 14t34 -14t14 -34t-14 -34t-34 -14t-34.5 14.5zM165 -201v51q27 -12 50 -12
q26 0 40.5 19t14.5 54v585h54v-582q0 -63 -27.5 -94.5t-74.5 -31.5q-35 0 -57 11z" />
    <glyph glyph-name="Jcircumflex" unicode="&#x134;" horiz-adv-x="488" 
d="M108 27.5q-49 41.5 -70 113.5l55 20q14 -58 49.5 -89.5t88.5 -31.5q62 0 93 41.5t31 120.5v498h58v-496q0 -103 -47.5 -160.5t-134.5 -57.5q-74 0 -123 41.5zM314 785h-51l91 143h60l91 -143h-51l-70 85z" />
    <glyph glyph-name="jcircumflex" unicode="&#x135;" 
d="M-33 -201v51q27 -12 50 -12q26 0 40.5 19t14.5 54v585h54v-582q0 -63 -27.5 -94.5t-74.5 -31.5q-35 0 -57 11zM29 581h-51l91 143h60l91 -143h-51l-70 85z" />
    <glyph glyph-name="uni0136" unicode="&#x136;" horiz-adv-x="506" 
d="M404 700h70l-250 -350l250 -350h-71l-230 323h-34v-323h-58v700h58v-323h36zM246 -229l-17 13l16 21q16 22 16 43q-17 0 -29 11t-12 29q0 20 12 33t31 13q20 0 33 -13.5t13 -34.5q0 -45 -44 -94z" />
    <glyph glyph-name="uni0137" unicode="&#x137;" horiz-adv-x="423" 
d="M322 496h67l-193 -248l193 -248h-67l-173 224h-23v-224h-54v700h54v-428h23zM201 -229l-17 13l16 21q16 22 16 43q-17 0 -29 11t-12 29q0 20 12 33t31 13q20 0 33 -13.5t13 -34.5q0 -45 -44 -94z" />
    <glyph glyph-name="kgreenlandic" unicode="&#x138;" horiz-adv-x="423" 
d="M322 496h67l-193 -248l193 -248h-67l-173 224h-23v-224h-54v496h54v-224h23z" />
    <glyph glyph-name="Lacute" unicode="&#x139;" horiz-adv-x="504" 
d="M463 0h-382v700h58v-646h324v-54zM135 785h-50l74 143h74z" />
    <glyph glyph-name="lacute" unicode="&#x13a;" horiz-adv-x="235" 
d="M96.5 18.5q-24.5 30.5 -24.5 82.5v599h54v-600q0 -29 12 -45.5t35 -16.5q19 0 45 12v-51q-22 -11 -53 -11q-44 0 -68.5 30.5zM124 785h-50l74 143h74z" />
    <glyph glyph-name="uni013B" unicode="&#x13b;" horiz-adv-x="504" 
d="M463 0h-382v700h58v-646h324v-54zM256 -229l-17 13l16 21q16 22 16 43q-17 0 -29 11t-12 29q0 20 12 33t31 13q20 0 33 -13.5t13 -34.5q0 -45 -44 -94z" />
    <glyph glyph-name="uni013C" unicode="&#x13c;" horiz-adv-x="235" 
d="M96.5 18.5q-24.5 30.5 -24.5 82.5v599h54v-600q0 -29 12 -45.5t35 -16.5q19 0 45 12v-51q-22 -11 -53 -11q-44 0 -68.5 30.5zM143 -229l-17 13l16 21q16 22 16 43q-17 0 -29 11t-12 29q0 20 12 33t31 13q20 0 33 -13.5t13 -34.5q0 -45 -44 -94z" />
    <glyph glyph-name="Lcaron" unicode="&#x13d;" horiz-adv-x="504" 
d="M463 0h-382v700h58v-646h324v-54zM397 501l-20 11l23 53q2 6 8.5 21t8.5 25q-18 3 -30 16.5t-12 31.5q0 21 14 35t34 14q22 0 35.5 -14.5t13.5 -40.5q0 -21 -8.5 -38.5t-33.5 -59.5z" />
    <glyph glyph-name="lcaron" unicode="&#x13e;" horiz-adv-x="300" 
d="M96.5 18.5q-24.5 30.5 -24.5 82.5v599h54v-600q0 -29 12 -45.5t35 -16.5q19 0 45 12v-51q-22 -11 -53 -11q-44 0 -68.5 30.5zM228 501l-20 11l23 53q2 6 8.5 21t8.5 25q-18 3 -30 16.5t-12 31.5q0 21 14 35t34 14q22 0 35.5 -14.5t13.5 -40.5q0 -21 -8.5 -38.5
t-33.5 -59.5z" />
    <glyph glyph-name="Ldot" unicode="&#x13f;" horiz-adv-x="488" 
d="M463 0h-382v700h58v-646h324v-54zM300.5 316.5q-14.5 14.5 -14.5 33.5q0 21 14 35t34 14q21 0 35 -14t14 -35q0 -20 -14 -34t-35 -14q-19 0 -33.5 14.5z" />
    <glyph glyph-name="ldot" unicode="&#x140;" horiz-adv-x="358" 
d="M96.5 18.5q-24.5 30.5 -24.5 82.5v599h54v-600q0 -29 12 -45.5t35 -16.5q19 0 45 12v-51q-22 -11 -53 -11q-44 0 -68.5 30.5zM243.5 316.5q-14.5 14.5 -14.5 33.5q0 21 14 35t34 14q21 0 35 -14t14 -35q0 -20 -14 -34t-35 -14q-19 0 -33.5 14.5z" />
    <glyph glyph-name="Lslash" unicode="&#x141;" horiz-adv-x="546" 
d="M181 253v-199h324v-54h-382v208l-84 -65v63l84 65v429h58v-384l142 109v-63z" />
    <glyph glyph-name="lslash" unicode="&#x142;" horiz-adv-x="220" 
d="M218 50v-51q-22 -11 -53 -11q-44 0 -68.5 30.5t-24.5 82.5v155l-77 -64v61l77 64v383h54v-337l71 59v-61l-71 -59v-202q0 -29 12 -45.5t35 -16.5q19 0 45 12z" />
    <glyph glyph-name="Nacute" unicode="&#x143;" horiz-adv-x="599" 
d="M138 0h-57v700h67l313 -573v573h57v-700h-52l-328 597v-597zM325 785h-50l74 143h74z" />
    <glyph glyph-name="nacute" unicode="&#x144;" horiz-adv-x="502" 
d="M72 0v496h54v-62q16 32 52 53t85 21q77 0 122 -48.5t45 -128.5v-331h-54v322q0 63 -34.5 99.5t-90.5 36.5q-57 0 -91 -37.5t-34 -99.5v-321h-54zM276 581h-50l74 143h74z" />
    <glyph glyph-name="uni0145" unicode="&#x145;" horiz-adv-x="599" 
d="M138 0h-57v700h67l313 -573v573h57v-700h-52l-328 597v-597zM282 -229l-17 13l16 21q16 22 16 43q-17 0 -29 11t-12 29q0 20 12 33t31 13q20 0 33 -13.5t13 -34.5q0 -45 -44 -94z" />
    <glyph glyph-name="uni0146" unicode="&#x146;" horiz-adv-x="502" 
d="M72 0v496h54v-62q16 32 52 53t85 21q77 0 122 -48.5t45 -128.5v-331h-54v322q0 63 -34.5 99.5t-90.5 36.5q-57 0 -91 -37.5t-34 -99.5v-321h-54zM233 -229l-17 13l16 21q16 22 16 43q-17 0 -29 11t-12 29q0 20 12 33t31 13q20 0 33 -13.5t13 -34.5q0 -45 -44 -94z" />
    <glyph glyph-name="Ncaron" unicode="&#x147;" horiz-adv-x="599" 
d="M138 0h-57v700h67l313 -573v573h57v-700h-52l-328 597v-597zM330 785h-60l-91 143h51l70 -85l70 85h51z" />
    <glyph glyph-name="ncaron" unicode="&#x148;" horiz-adv-x="502" 
d="M72 0v496h54v-62q16 32 52 53t85 21q77 0 122 -48.5t45 -128.5v-331h-54v322q0 63 -34.5 99.5t-90.5 36.5q-57 0 -91 -37.5t-34 -99.5v-321h-54zM281 581h-60l-91 143h51l70 -85l70 85h51z" />
    <glyph glyph-name="Eng" unicode="&#x14a;" horiz-adv-x="599" 
d="M266 -167l34 46q31 -41 79 -41q39 0 60.5 28t21.5 81v62l-323 585v-594h-57v700h67l313 -570v570h57v-751q0 -82 -36.5 -123.5t-103.5 -41.5q-70 0 -112 49z" />
    <glyph glyph-name="eng" unicode="&#x14b;" horiz-adv-x="480" 
d="M260 -201v51q29 -12 51 -12q26 0 40 19t14 54v411q0 63 -34 99.5t-91 36.5q-56 0 -90.5 -37.5t-34.5 -99.5v-321h-54v496h54v-62q16 32 52 53t85 21q77 0 122.5 -48.5t45.5 -128.5v-417q0 -62 -27.5 -94t-74.5 -32q-36 0 -58 11z" />
    <glyph glyph-name="Omacron" unicode="&#x14c;" horiz-adv-x="690" 
d="M192.5 28.5q-66.5 42.5 -103.5 119.5t-37 175v54q0 98 37 175t103.5 119.5t152.5 42.5t152.5 -42.5t103.5 -119.5t37 -175v-54q0 -98 -37 -175t-103.5 -119.5t-152.5 -42.5t-152.5 42.5zM467.5 75q53.5 36 83 100t29.5 144v62q0 80 -29.5 144t-83 100t-122.5 36
t-122.5 -36t-83 -100t-29.5 -144v-62q0 -80 29.5 -144t83 -100t122.5 -36t122.5 36zM455 830h-220v50h220v-50z" />
    <glyph glyph-name="omacron" unicode="&#x14d;" horiz-adv-x="533" 
d="M153 19.5q-50 31.5 -78.5 87t-28.5 126.5v30q0 71 28.5 126.5t78.5 87t113 31.5q64 0 114 -31.5t78.5 -87t28.5 -126.5v-30q0 -71 -28.5 -126.5t-78.5 -87t-114 -31.5q-63 0 -113 31.5zM386 93q45 53 45 139v32q0 86 -45 139t-120 53q-74 0 -119 -53t-45 -139v-32
q0 -86 45 -139t119 -53q75 0 120 53zM376 626h-220v50h220v-50z" />
    <glyph glyph-name="Obreve" unicode="&#x14e;" horiz-adv-x="690" 
d="M192.5 28.5q-66.5 42.5 -103.5 119.5t-37 175v54q0 98 37 175t103.5 119.5t152.5 42.5t152.5 -42.5t103.5 -119.5t37 -175v-54q0 -98 -37 -175t-103.5 -119.5t-152.5 -42.5t-152.5 42.5zM467.5 75q53.5 36 83 100t29.5 144v62q0 80 -29.5 144t-83 100t-122.5 36
t-122.5 -36t-83 -100t-29.5 -144v-62q0 -80 29.5 -144t83 -100t122.5 -36t122.5 36zM272.5 808.5q-26.5 30.5 -26.5 73.5h52q0 -26 12 -41t35 -15t35.5 15t12.5 41h52q0 -43 -26.5 -73.5t-73.5 -30.5q-46 0 -72.5 30.5z" />
    <glyph glyph-name="obreve" unicode="&#x14f;" horiz-adv-x="533" 
d="M153 19.5q-50 31.5 -78.5 87t-28.5 126.5v30q0 71 28.5 126.5t78.5 87t113 31.5q64 0 114 -31.5t78.5 -87t28.5 -126.5v-30q0 -71 -28.5 -126.5t-78.5 -87t-114 -31.5q-63 0 -113 31.5zM386 93q45 53 45 139v32q0 86 -45 139t-120 53q-74 0 -119 -53t-45 -139v-32
q0 -86 45 -139t119 -53q75 0 120 53zM193.5 604.5q-26.5 30.5 -26.5 73.5h52q0 -26 12 -41t35 -15t35.5 15t12.5 41h52q0 -43 -26.5 -73.5t-73.5 -30.5q-46 0 -72.5 30.5z" />
    <glyph glyph-name="Ohungarumlaut" unicode="&#x150;" horiz-adv-x="690" 
d="M192.5 28.5q-66.5 42.5 -103.5 119.5t-37 175v54q0 98 37 175t103.5 119.5t152.5 42.5t152.5 -42.5t103.5 -119.5t37 -175v-54q0 -98 -37 -175t-103.5 -119.5t-152.5 -42.5t-152.5 42.5zM467.5 75q53.5 36 83 100t29.5 144v62q0 80 -29.5 144t-83 100t-122.5 36
t-122.5 -36t-83 -100t-29.5 -144v-62q0 -80 29.5 -144t83 -100t122.5 -36t122.5 36zM289 785h-47l51 143h73zM449 785h-47l51 143h73z" />
    <glyph glyph-name="ohungarumlaut" unicode="&#x151;" horiz-adv-x="533" 
d="M153 19.5q-50 31.5 -78.5 87t-28.5 126.5v30q0 71 28.5 126.5t78.5 87t113 31.5q64 0 114 -31.5t78.5 -87t28.5 -126.5v-30q0 -71 -28.5 -126.5t-78.5 -87t-114 -31.5q-63 0 -113 31.5zM386 93q45 53 45 139v32q0 86 -45 139t-120 53q-74 0 -119 -53t-45 -139v-32
q0 -86 45 -139t119 -53q75 0 120 53zM210 581h-47l51 143h73zM370 581h-47l51 143h73z" />
    <glyph glyph-name="OE" unicode="&#x152;" horiz-adv-x="1046" 
d="M193 29q-67 43 -104 120t-37 176v50q0 99 37 176t104 120t153 43q76 0 137 -35t99 -100v121h403v-54h-345v-258h293v-54h-293v-280h349v-54h-407v121q-38 -65 -99 -100t-137 -35q-86 0 -153 43zM468.5 75.5q53.5 36.5 83.5 101t30 145.5v56q0 81 -30 145.5t-83.5 101
t-122.5 36.5t-122.5 -36.5t-83.5 -101t-30 -145.5v-56q0 -81 30 -145.5t83.5 -101t122.5 -36.5t122.5 36.5z" />
    <glyph glyph-name="oe" unicode="&#x153;" horiz-adv-x="899" 
d="M853 241h-366v-8q0 -57 20.5 -100.5t56.5 -68t82 -24.5q102 0 145 103l49 -20q-26 -65 -74.5 -100t-119.5 -35q-62 0 -111 32t-76 87q-28 -56 -78.5 -87.5t-114.5 -31.5q-63 0 -113 31.5t-78.5 87t-28.5 126.5v30q0 71 28.5 126.5t78.5 87t113 31.5q64 0 114.5 -31.5
t78.5 -87.5q27 56 76.5 87.5t111.5 31.5q57 0 104 -27.5t74.5 -81t27.5 -126.5v-32zM431 264q0 86 -45 139t-120 53q-74 0 -119 -53t-45 -139v-32q0 -86 45 -139t119 -53q75 0 120 53t45 139v32zM536.5 410q-42.5 -46 -48.5 -122h310q-5 79 -47 123.5t-104 44.5
q-68 0 -110.5 -46z" />
    <glyph glyph-name="Racute" unicode="&#x154;" horiz-adv-x="555" 
d="M81 0v700h226q87 0 137.5 -49.5t50.5 -134.5q0 -61 -31 -101t-76 -55q30 -10 45.5 -32.5t23.5 -70.5l41 -257h-59l-39 244q-8 52 -27 70.5t-59 18.5h-175v-333h-58zM300 386q64 0 100 34t36 96q0 63 -36 96.5t-100 33.5h-161v-260h161zM303 785h-50l74 143h74z" />
    <glyph glyph-name="racute" unicode="&#x155;" horiz-adv-x="338" 
d="M72 0v496h54v-62q12 32 45 53t77 21q30 0 53 -9v-53q-33 12 -63 12q-49 0 -80.5 -37.5t-31.5 -97.5v-323h-54zM218 581h-50l74 143h74z" />
    <glyph glyph-name="uni0156" unicode="&#x156;" horiz-adv-x="555" 
d="M81 0v700h226q87 0 137.5 -49.5t50.5 -134.5q0 -61 -31 -101t-76 -55q30 -10 45.5 -32.5t23.5 -70.5l41 -257h-59l-39 244q-8 52 -27 70.5t-59 18.5h-175v-333h-58zM300 386q64 0 100 34t36 96q0 63 -36 96.5t-100 33.5h-161v-260h161zM260 -229l-17 13l16 21
q16 22 16 43q-17 0 -29 11t-12 29q0 20 12 33t31 13q20 0 33 -13.5t13 -34.5q0 -45 -44 -94z" />
    <glyph glyph-name="uni0157" unicode="&#x157;" horiz-adv-x="338" 
d="M72 0v496h54v-62q12 32 45 53t77 21q30 0 53 -9v-53q-33 12 -63 12q-49 0 -80.5 -37.5t-31.5 -97.5v-323h-54zM81 -229l-17 13l16 21q16 22 16 43q-17 0 -29 11t-12 29q0 20 12 33t31 13q20 0 33 -13.5t13 -34.5q0 -45 -44 -94z" />
    <glyph glyph-name="Rcaron" unicode="&#x158;" horiz-adv-x="555" 
d="M81 0v700h226q87 0 137.5 -49.5t50.5 -134.5q0 -61 -31 -101t-76 -55q30 -10 45.5 -32.5t23.5 -70.5l41 -257h-59l-39 244q-8 52 -27 70.5t-59 18.5h-175v-333h-58zM300 386q64 0 100 34t36 96q0 63 -36 96.5t-100 33.5h-161v-260h161zM308 785h-60l-91 143h51l70 -85
l70 85h51z" />
    <glyph glyph-name="rcaron" unicode="&#x159;" horiz-adv-x="338" 
d="M72 0v496h54v-62q12 32 45 53t77 21q30 0 53 -9v-53q-33 12 -63 12q-49 0 -80.5 -37.5t-31.5 -97.5v-323h-54zM223 581h-60l-91 143h51l70 -85l70 85h51z" />
    <glyph glyph-name="Sacute" unicode="&#x15a;" horiz-adv-x="539" 
d="M127 34q-58 48 -82 127l52 25q24 -72 67.5 -109t111.5 -37t110.5 39t42.5 101v3q0 60 -40 96t-125 62q-97 30 -147 77t-50 124v3q0 49 27.5 87t74 59t100.5 21q76 0 128.5 -36.5t77.5 -105.5l-49 -25q-21 55 -62.5 84t-94.5 29q-63 0 -103.5 -31t-40.5 -83v-2
q0 -54 40.5 -88t128.5 -62q98 -32 146 -80t48 -127v-4q0 -58 -27.5 -102.5t-76 -68.5t-108.5 -24q-91 0 -149 48zM295 785h-50l74 143h74z" />
    <glyph glyph-name="sacute" unicode="&#x15b;" horiz-adv-x="437" 
d="M113.5 20.5q-45.5 34.5 -62.5 89.5l50 24q14 -45 46 -71.5t77 -26.5q46 0 76.5 24.5t30.5 64.5v1q0 40 -26.5 62t-88.5 40q-75 22 -111.5 57.5t-36.5 91.5q0 59 44 94t108 35q56 0 96.5 -27.5t57.5 -75.5l-45 -23q-16 38 -44.5 58t-64.5 20q-44 0 -72 -21.5t-28 -57.5
t28 -60t87 -41q79 -24 114.5 -57t35.5 -95v-1q0 -61 -46 -100t-115 -39q-65 0 -110.5 34.5zM246 581h-50l74 143h74z" />
    <glyph glyph-name="Scircumflex" unicode="&#x15c;" horiz-adv-x="539" 
d="M127 34q-58 48 -82 127l52 25q24 -72 67.5 -109t111.5 -37t110.5 39t42.5 101v3q0 60 -40 96t-125 62q-97 30 -147 77t-50 124v3q0 49 27.5 87t74 59t100.5 21q76 0 128.5 -36.5t77.5 -105.5l-49 -25q-21 55 -62.5 84t-94.5 29q-63 0 -103.5 -31t-40.5 -83v-2
q0 -54 40.5 -88t128.5 -62q98 -32 146 -80t48 -127v-4q0 -58 -27.5 -102.5t-76 -68.5t-108.5 -24q-91 0 -149 48zM200 785h-51l91 143h60l91 -143h-51l-70 85z" />
    <glyph glyph-name="scircumflex" unicode="&#x15d;" horiz-adv-x="437" 
d="M113.5 20.5q-45.5 34.5 -62.5 89.5l50 24q14 -45 46 -71.5t77 -26.5q46 0 76.5 24.5t30.5 64.5v1q0 40 -26.5 62t-88.5 40q-75 22 -111.5 57.5t-36.5 91.5q0 59 44 94t108 35q56 0 96.5 -27.5t57.5 -75.5l-45 -23q-16 38 -44.5 58t-64.5 20q-44 0 -72 -21.5t-28 -57.5
t28 -60t87 -41q79 -24 114.5 -57t35.5 -95v-1q0 -61 -46 -100t-115 -39q-65 0 -110.5 34.5zM151 581h-51l91 143h60l91 -143h-51l-70 85z" />
    <glyph glyph-name="Scedilla" unicode="&#x15e;" horiz-adv-x="539" 
d="M440 312q48 -48 48 -127v-4q0 -58 -27.5 -102.5t-76 -68.5t-108.5 -24q-12 0 -18 1l-13 -44q22 11 45 11q37 0 60 -22t23 -60q0 -40 -26.5 -64t-69.5 -24q-48 0 -78 17l22 43q25 -16 56 -16q21 0 33.5 11.5t12.5 32.5q0 20 -12 31.5t-30 11.5q-24 0 -44 -14l-32 21l15 69
q-67 14 -111 59.5t-64 110.5l52 25q24 -72 67.5 -109t111.5 -37t110.5 39t42.5 101v3q0 60 -40 96t-125 62q-97 30 -147 77t-50 124v3q0 49 27.5 87t74 59t100.5 21q76 0 128.5 -36.5t77.5 -105.5l-49 -25q-21 55 -62.5 84t-94.5 29q-63 0 -103.5 -31t-40.5 -83v-2
q0 -54 40.5 -88t128.5 -62q98 -32 146 -80z" />
    <glyph glyph-name="scedilla" unicode="&#x15f;" horiz-adv-x="437" 
d="M349.5 221q35.5 -33 35.5 -95v-1q0 -61 -46 -100t-115 -39q-12 0 -18 1l-13 -44q22 11 45 11q37 0 60 -22t23 -60q0 -40 -26.5 -64t-69.5 -24q-48 0 -78 17l22 43q25 -16 56 -16q21 0 33.5 11.5t12.5 32.5q0 20 -12 31.5t-30 11.5q-24 0 -44 -14l-32 21l16 71
q-44 13 -74.5 44t-43.5 73l50 24q14 -45 46 -71.5t77 -26.5q46 0 76.5 24.5t30.5 64.5v1q0 40 -26.5 62t-88.5 40q-75 22 -111.5 57.5t-36.5 91.5q0 59 44 94t108 35q56 0 96.5 -27.5t57.5 -75.5l-45 -23q-16 38 -44.5 58t-64.5 20q-44 0 -72 -21.5t-28 -57.5t28 -60t87 -41
q79 -24 114.5 -57z" />
    <glyph glyph-name="Scaron" unicode="&#x160;" horiz-adv-x="539" 
d="M127 34q-58 48 -82 127l52 25q24 -72 67.5 -109t111.5 -37t110.5 39t42.5 101v3q0 60 -40 96t-125 62q-97 30 -147 77t-50 124v3q0 49 27.5 87t74 59t100.5 21q76 0 128.5 -36.5t77.5 -105.5l-49 -25q-21 55 -62.5 84t-94.5 29q-63 0 -103.5 -31t-40.5 -83v-2
q0 -54 40.5 -88t128.5 -62q98 -32 146 -80t48 -127v-4q0 -58 -27.5 -102.5t-76 -68.5t-108.5 -24q-91 0 -149 48zM300 785h-60l-91 143h51l70 -85l70 85h51z" />
    <glyph glyph-name="scaron" unicode="&#x161;" horiz-adv-x="437" 
d="M113.5 20.5q-45.5 34.5 -62.5 89.5l50 24q14 -45 46 -71.5t77 -26.5q46 0 76.5 24.5t30.5 64.5v1q0 40 -26.5 62t-88.5 40q-75 22 -111.5 57.5t-36.5 91.5q0 59 44 94t108 35q56 0 96.5 -27.5t57.5 -75.5l-45 -23q-16 38 -44.5 58t-64.5 20q-44 0 -72 -21.5t-28 -57.5
t28 -60t87 -41q79 -24 114.5 -57t35.5 -95v-1q0 -61 -46 -100t-115 -39q-65 0 -110.5 34.5zM251 581h-60l-91 143h51l70 -85l70 85h51z" />
    <glyph glyph-name="uni0162" unicode="&#x162;" horiz-adv-x="515" 
d="M286 0h-20l-16 -57q22 11 45 11q37 0 60 -22t23 -60q0 -40 -26.5 -64t-69.5 -24q-48 0 -78 17l22 43q25 -16 56 -16q21 0 33.5 11.5t12.5 32.5q0 20 -12 31.5t-30 11.5q-24 0 -44 -14l-32 21l18 81v643h-198v54h455v-54h-199v-646z" />
    <glyph glyph-name="uni0163" unicode="&#x163;" horiz-adv-x="343" 
d="M304 -68q23 -22 23 -60q0 -40 -26.5 -64t-69.5 -24q-48 0 -78 17l22 43q25 -16 56 -16q21 0 33.5 11.5t12.5 32.5q0 20 -12 31.5t-30 11.5q-24 0 -44 -14l-32 21l17 78q-28 14 -42.5 43t-14.5 69v334h-94v50h94v91l55 30v-121h136v-50h-136v-335q0 -35 16.5 -54t49.5 -19
q34 0 70 18v-51q-34 -17 -78 -17q-13 0 -20 1l-13 -46q22 11 45 11q37 0 60 -22z" />
    <glyph glyph-name="Tcaron" unicode="&#x164;" horiz-adv-x="515" 
d="M485 700v-54h-199v-646h-58v646h-198v54h455zM287 785h-60l-91 143h51l70 -85l70 85h51z" />
    <glyph glyph-name="tcaron" unicode="&#x165;" horiz-adv-x="343" 
d="M310 446h-136v-335q0 -35 16.5 -54t49.5 -19q34 0 70 18v-51q-34 -17 -78 -17q-54 0 -83.5 33t-29.5 91v334h-94v50h94v91l55 30v-121h136v-50zM257 541l-20 11l23 53q2 6 8.5 21t8.5 25q-18 3 -30 16.5t-12 31.5q0 21 14 35t34 14q22 0 35.5 -14.5t13.5 -40.5
q0 -21 -8.5 -38.5t-33.5 -59.5z" />
    <glyph glyph-name="Tbar" unicode="&#x166;" horiz-adv-x="493" 
d="M485 700v-54h-199v-260h115v-54h-115v-332h-58v332h-136v54h136v260h-198v54h455z" />
    <glyph glyph-name="tbar" unicode="&#x167;" horiz-adv-x="344" 
d="M310 446h-136v-173h114v-50h-114v-112q0 -35 16.5 -54t49.5 -19q34 0 70 18v-51q-34 -17 -78 -17q-54 0 -83.5 33t-29.5 91v111h-81v50h81v173h-94v50h94v91l55 30v-121h136v-50z" />
    <glyph glyph-name="Utilde" unicode="&#x168;" horiz-adv-x="602" 
d="M178 19q-51 33 -77 90.5t-26 130.5v460h58v-463q0 -89 44.5 -143t123.5 -54q78 0 122.5 54t44.5 143v463h59v-460q0 -73 -26 -130.5t-77 -90.5t-123 -33t-123 33zM166 834q8 32 28 50t50 18q21 0 35.5 -6t31.5 -17q14 -9 22.5 -13t19.5 -4q17 0 28 10t18 30l38 -16
q-9 -32 -29 -50t-50 -18q-21 0 -36 6t-32 17q-13 9 -22.5 13t-19.5 4q-32 0 -44 -39z" />
    <glyph glyph-name="utilde" unicode="&#x169;" horiz-adv-x="502" 
d="M117 37q-45 49 -45 129v330h54v-322q0 -63 34.5 -99.5t90.5 -36.5q57 0 91 37.5t34 99.5v321h54v-496h-54v62q-16 -32 -52 -53t-85 -21q-77 0 -122 49zM116 630q8 32 28 50t50 18q21 0 35.5 -6t31.5 -17q14 -9 22.5 -13t19.5 -4q17 0 28 10t18 30l38 -16q-9 -32 -29 -50
t-50 -18q-21 0 -36 6t-32 17q-13 9 -22.5 13t-19.5 4q-32 0 -44 -39z" />
    <glyph glyph-name="Umacron" unicode="&#x16a;" horiz-adv-x="602" 
d="M178 19q-51 33 -77 90.5t-26 130.5v460h58v-463q0 -89 44.5 -143t123.5 -54q78 0 122.5 54t44.5 143v463h59v-460q0 -73 -26 -130.5t-77 -90.5t-123 -33t-123 33zM411 830h-220v50h220v-50z" />
    <glyph glyph-name="umacron" unicode="&#x16b;" horiz-adv-x="502" 
d="M117 37q-45 49 -45 129v330h54v-322q0 -63 34.5 -99.5t90.5 -36.5q57 0 91 37.5t34 99.5v321h54v-496h-54v62q-16 -32 -52 -53t-85 -21q-77 0 -122 49zM361 626h-220v50h220v-50z" />
    <glyph glyph-name="Ubreve" unicode="&#x16c;" horiz-adv-x="602" 
d="M178 19q-51 33 -77 90.5t-26 130.5v460h58v-463q0 -89 44.5 -143t123.5 -54q78 0 122.5 54t44.5 143v463h59v-460q0 -73 -26 -130.5t-77 -90.5t-123 -33t-123 33zM228.5 808.5q-26.5 30.5 -26.5 73.5h52q0 -26 12 -41t35 -15t35.5 15t12.5 41h52q0 -43 -26.5 -73.5
t-73.5 -30.5q-46 0 -72.5 30.5z" />
    <glyph glyph-name="ubreve" unicode="&#x16d;" horiz-adv-x="502" 
d="M117 37q-45 49 -45 129v330h54v-322q0 -63 34.5 -99.5t90.5 -36.5q57 0 91 37.5t34 99.5v321h54v-496h-54v62q-16 -32 -52 -53t-85 -21q-77 0 -122 49zM178.5 604.5q-26.5 30.5 -26.5 73.5h52q0 -26 12 -41t35 -15t35.5 15t12.5 41h52q0 -43 -26.5 -73.5t-73.5 -30.5
q-46 0 -72.5 30.5z" />
    <glyph glyph-name="Uring" unicode="&#x16e;" horiz-adv-x="602" 
d="M178 19q-51 33 -77 90.5t-26 130.5v460h58v-463q0 -89 44.5 -143t123.5 -54q78 0 122.5 54t44.5 143v463h59v-460q0 -73 -26 -130.5t-77 -90.5t-123 -33t-123 33zM235 795q-26 28 -26 70v2q0 42 26 70t66 28q39 0 65 -28t26 -70v-2q0 -42 -25.5 -70t-65.5 -28t-66 28z
M333.5 826q12.5 15 12.5 38v4q0 23 -12.5 38t-32.5 15t-32.5 -15t-12.5 -38v-4q0 -23 12.5 -38t32.5 -15t32.5 15z" />
    <glyph glyph-name="uring" unicode="&#x16f;" horiz-adv-x="502" 
d="M117 37q-45 49 -45 129v330h54v-322q0 -63 34.5 -99.5t90.5 -36.5q57 0 91 37.5t34 99.5v321h54v-496h-54v62q-16 -32 -52 -53t-85 -21q-77 0 -122 49zM185 591q-26 28 -26 70v2q0 42 26 70t66 28q39 0 65 -28t26 -70v-2q0 -42 -25.5 -70t-65.5 -28t-66 28zM283.5 622
q12.5 15 12.5 38v4q0 23 -12.5 38t-32.5 15t-32.5 -15t-12.5 -38v-4q0 -23 12.5 -38t32.5 -15t32.5 15z" />
    <glyph glyph-name="Uhungarumlaut" unicode="&#x170;" horiz-adv-x="602" 
d="M178 19q-51 33 -77 90.5t-26 130.5v460h58v-463q0 -89 44.5 -143t123.5 -54q78 0 122.5 54t44.5 143v463h59v-460q0 -73 -26 -130.5t-77 -90.5t-123 -33t-123 33zM245 785h-47l51 143h73zM405 785h-47l51 143h73z" />
    <glyph glyph-name="uhungarumlaut" unicode="&#x171;" horiz-adv-x="502" 
d="M117 37q-45 49 -45 129v330h54v-322q0 -63 34.5 -99.5t90.5 -36.5q57 0 91 37.5t34 99.5v321h54v-496h-54v62q-16 -32 -52 -53t-85 -21q-77 0 -122 49zM195 581h-47l51 143h73zM355 581h-47l51 143h73z" />
    <glyph glyph-name="Uogonek" unicode="&#x172;" horiz-adv-x="602" 
d="M468 700h59v-460q0 -87 -37 -151.5t-106 -88.5q-31 -18 -49 -44.5t-18 -55.5q0 -21 11.5 -33.5t31.5 -12.5q19 0 39 10v-52q-22 -10 -50 -10q-38 0 -62.5 23t-24.5 67q0 53 37 94q-72 0 -122.5 33.5t-76 91t-25.5 129.5v460h58v-463q0 -89 44.5 -143t123.5 -54
q78 0 122.5 54t44.5 143v463z" />
    <glyph glyph-name="uogonek" unicode="&#x173;" horiz-adv-x="502" 
d="M444 -136v-52q-22 -10 -50 -10q-38 0 -62.5 23t-24.5 67q0 39 20.5 68.5t48.5 48.5v53q-16 -32 -52 -53t-85 -21q-77 0 -122 49t-45 129v330h54v-322q0 -63 34.5 -99.5t90.5 -36.5q57 0 91 37.5t34 99.5v321h54v-496q-31 -18 -49.5 -44t-18.5 -56q0 -21 11.5 -33.5
t31.5 -12.5q19 0 39 10z" />
    <glyph glyph-name="Wcircumflex" unicode="&#x174;" horiz-adv-x="801" 
d="M249 0h-70l-153 700h61l128 -617l154 578h64l153 -578l128 617h61l-153 -700h-70l-151 576zM331 785h-51l91 143h60l91 -143h-51l-70 85z" />
    <glyph glyph-name="wcircumflex" unicode="&#x175;" horiz-adv-x="637" 
d="M201 0h-60l-124 496h58l97 -417l118 417h57l119 -417l97 417h57l-124 -496h-59l-118 425zM249 581h-51l91 143h60l91 -143h-51l-70 85z" />
    <glyph glyph-name="Ycircumflex" unicode="&#x176;" horiz-adv-x="517" 
d="M287 0h-58v291l-212 409h65l176 -347l176 347h66l-213 -409v-291zM188 785h-51l91 143h60l91 -143h-51l-70 85z" />
    <glyph glyph-name="ycircumflex" unicode="&#x177;" horiz-adv-x="455" 
d="M375 496h60l-217 -590q-24 -62 -57.5 -90t-87.5 -28q-30 0 -59 11v55q34 -16 62 -16q34 0 55 20.5t39 68.5l30 84l-182 485h61l149 -408zM157 581h-51l91 143h60l91 -143h-51l-70 85z" />
    <glyph glyph-name="Ydieresis" unicode="&#x178;" horiz-adv-x="517" 
d="M287 0h-58v291l-212 409h65l176 -347l176 347h66l-213 -409v-291zM122.5 820.5q-14.5 14.5 -14.5 33.5q0 20 14.5 34t34.5 14t34 -14t14 -34t-14 -34t-34 -14t-34.5 14.5zM325 820.5q-14 14.5 -14 33.5q0 20 14 34t34 14t34.5 -14t14.5 -34t-14.5 -34t-34.5 -14t-34 14.5
z" />
    <glyph glyph-name="Zacute" unicode="&#x179;" horiz-adv-x="498" 
d="M450 0h-411v54l337 592h-326v54h387v-54l-336 -592h349v-54zM270 785h-50l74 143h74z" />
    <glyph glyph-name="zacute" unicode="&#x17a;" horiz-adv-x="414" 
d="M373 0h-343v50l270 396h-260v50h319v-50l-269 -396h283v-50zM228 581h-50l74 143h74z" />
    <glyph glyph-name="Zdotaccent" unicode="&#x17b;" horiz-adv-x="498" 
d="M450 0h-411v54l337 592h-326v54h387v-54l-336 -592h349v-54zM211 820.5q-14 14.5 -14 33.5q0 20 14 34t34 14t34 -14t14 -34t-14 -34t-34 -14t-34 14.5z" />
    <glyph glyph-name="zdotaccent" unicode="&#x17c;" horiz-adv-x="414" 
d="M373 0h-343v50l270 396h-260v50h319v-50l-269 -396h283v-50zM169 616.5q-14 14.5 -14 33.5q0 20 14 34t34 14t34 -14t14 -34t-14 -34t-34 -14t-34 14.5z" />
    <glyph glyph-name="Zcaron" unicode="&#x17d;" horiz-adv-x="498" 
d="M450 0h-411v54l337 592h-326v54h387v-54l-336 -592h349v-54zM275 785h-60l-91 143h51l70 -85l70 85h51z" />
    <glyph glyph-name="zcaron" unicode="&#x17e;" horiz-adv-x="414" 
d="M373 0h-343v50l270 396h-260v50h319v-50l-269 -396h283v-50zM233 581h-60l-91 143h51l70 -85l70 85h51z" />
    <glyph glyph-name="florin" unicode="&#x192;" horiz-adv-x="329" 
d="M234.5 641.5q-23.5 -20.5 -30.5 -58.5l-15 -87h143l-9 -50h-143l-96 -538q-11 -62 -47.5 -94t-91.5 -32q-34 0 -66 12l9 54q30 -16 62 -16t53 20t27 55l95 539h-89l9 50h89l15 86q12 64 51 97t99 33q36 0 68 -12l-9 -54q-32 16 -64 16q-36 0 -59.5 -20.5z" />
    <glyph glyph-name="uni01B5" unicode="&#x1b5;" horiz-adv-x="498" 
d="M259 332l-158 -278h349v-54h-411v54l158 278h-105v54h136l148 260h-326v54h387v-54l-148 -260h108v-54h-138z" />
    <glyph glyph-name="uni01B6" unicode="&#x1b6;" horiz-adv-x="414" 
d="M208 223l-118 -173h283v-50h-343v50l118 173h-88v50h122l118 173h-260v50h319v-50l-118 -173h101v-50h-134z" />
    <glyph glyph-name="AEacute" unicode="&#x1fc;" horiz-adv-x="865" 
d="M459 334v-280h349v-54h-408v188h-226l-88 -188h-66l332 700h451v-54h-344v-258h292v-54h-292zM388 646l-188 -403h200v403h-12zM551 785h-50l74 143h74z" />
    <glyph glyph-name="aeacute" unicode="&#x1fd;" horiz-adv-x="822" 
d="M776 241h-366v-8q0 -57 20.5 -100.5t57 -68t82.5 -24.5q101 0 144 103l49 -20q-26 -65 -74.5 -100t-118.5 -35q-64 0 -113.5 32.5t-76.5 89.5q-26 -58 -71.5 -90t-111.5 -32t-107.5 38.5t-41.5 102.5q0 69 45 105t119 43l142 11v48q0 53 -32 86.5t-90 33.5
q-97 0 -131 -98l-49 20q18 59 65.5 94.5t114.5 35.5q60 0 102 -26t60 -71q29 46 74.5 71.5t101.5 25.5q57 0 104 -27.5t74.5 -81t27.5 -126.5v-32zM459.5 410q-42.5 -46 -48.5 -122h310q-5 79 -47 123.5t-104 44.5q-68 0 -110.5 -46zM354 240l-135 -11q-114 -8 -114 -100
q0 -40 26.5 -65.5t70.5 -25.5q72 0 112 48t40 138v16zM421 581h-50l74 143h74z" />
    <glyph glyph-name="uni0218" unicode="&#x218;" horiz-adv-x="539" 
d="M127 34q-58 48 -82 127l52 25q24 -72 67.5 -109t111.5 -37t110.5 39t42.5 101v3q0 60 -40 96t-125 62q-97 30 -147 77t-50 124v3q0 49 27.5 87t74 59t100.5 21q76 0 128.5 -36.5t77.5 -105.5l-49 -25q-21 55 -62.5 84t-94.5 29q-63 0 -103.5 -31t-40.5 -83v-2
q0 -54 40.5 -88t128.5 -62q98 -32 146 -80t48 -127v-4q0 -58 -27.5 -102.5t-76 -68.5t-108.5 -24q-91 0 -149 48zM252 -229l-17 13l16 21q16 22 16 43q-17 0 -29 11t-12 29q0 20 12 33t31 13q20 0 33 -13.5t13 -34.5q0 -45 -44 -94z" />
    <glyph glyph-name="uni0219" unicode="&#x219;" horiz-adv-x="437" 
d="M113.5 20.5q-45.5 34.5 -62.5 89.5l50 24q14 -45 46 -71.5t77 -26.5q46 0 76.5 24.5t30.5 64.5v1q0 40 -26.5 62t-88.5 40q-75 22 -111.5 57.5t-36.5 91.5q0 59 44 94t108 35q56 0 96.5 -27.5t57.5 -75.5l-45 -23q-16 38 -44.5 58t-64.5 20q-44 0 -72 -21.5t-28 -57.5
t28 -60t87 -41q79 -24 114.5 -57t35.5 -95v-1q0 -61 -46 -100t-115 -39q-65 0 -110.5 34.5zM203 -229l-17 13l16 21q16 22 16 43q-17 0 -29 11t-12 29q0 20 12 33t31 13q20 0 33 -13.5t13 -34.5q0 -45 -44 -94z" />
    <glyph glyph-name="uni021A" unicode="&#x21a;" horiz-adv-x="515" 
d="M485 700v-54h-199v-646h-58v646h-198v54h455zM239 -229l-17 13l16 21q16 22 16 43q-17 0 -29 11t-12 29q0 20 12 33t31 13q20 0 33 -13.5t13 -34.5q0 -45 -44 -94z" />
    <glyph glyph-name="uni021B" unicode="&#x21b;" horiz-adv-x="343" 
d="M310 446h-136v-335q0 -35 16.5 -54t49.5 -19q34 0 70 18v-51q-34 -17 -78 -17q-54 0 -83.5 33t-29.5 91v334h-94v50h94v91l55 30v-121h136v-50zM214 -229l-17 13l16 21q16 22 16 43q-17 0 -29 11t-12 29q0 20 12 33t31 13q20 0 33 -13.5t13 -34.5q0 -45 -44 -94z" />
    <glyph glyph-name="uni0237" unicode="&#x237;" 
d="M-33 -201v51q27 -12 50 -12q26 0 40.5 19t14.5 54v585h54v-582q0 -63 -27.5 -94.5t-74.5 -31.5q-35 0 -57 11z" />
    <glyph glyph-name="circumflex" unicode="&#x2c6;" horiz-adv-x="278" 
d="M69 581h-51l91 143h60l91 -143h-51l-70 85z" />
    <glyph glyph-name="caron" unicode="&#x2c7;" horiz-adv-x="278" 
d="M169 581h-60l-91 143h51l70 -85l70 85h51z" />
    <glyph glyph-name="uni02C9" unicode="&#x2c9;" horiz-adv-x="264" 
d="M242 626h-220v50h220v-50z" />
    <glyph glyph-name="breve" unicode="&#x2d8;" horiz-adv-x="219" 
d="M36.5 604.5q-26.5 30.5 -26.5 73.5h52q0 -26 12 -41t35 -15t35.5 15t12.5 41h52q0 -43 -26.5 -73.5t-73.5 -30.5q-46 0 -72.5 30.5z" />
    <glyph glyph-name="dotaccent" unicode="&#x2d9;" horiz-adv-x="176" 
d="M54 616.5q-14 14.5 -14 33.5q0 20 14 34t34 14t34 -14t14 -34t-14 -34t-34 -14t-34 14.5z" />
    <glyph glyph-name="ring" unicode="&#x2da;" horiz-adv-x="224" 
d="M46 591q-26 28 -26 70v2q0 42 26 70t66 28q39 0 65 -28t26 -70v-2q0 -42 -25.5 -70t-65.5 -28t-66 28zM144.5 622q12.5 15 12.5 38v4q0 23 -12.5 38t-32.5 15t-32.5 -15t-12.5 -38v-4q0 -23 12.5 -38t32.5 -15t32.5 15z" />
    <glyph glyph-name="ogonek" unicode="&#x2db;" horiz-adv-x="161" 
d="M36.5 -175q-24.5 23 -24.5 67q0 40 20 70.5t46 49.5l57 -12q-31 -18 -49.5 -44t-18.5 -56q0 -21 11.5 -33.5t31.5 -12.5q19 0 39 10v-52q-22 -10 -50 -10q-38 0 -62.5 23z" />
    <glyph glyph-name="tilde" unicode="&#x2dc;" horiz-adv-x="302" 
d="M16 630q8 32 28 50t50 18q21 0 35.5 -6t31.5 -17q14 -9 22.5 -13t19.5 -4q17 0 28 10t18 30l38 -16q-9 -32 -29 -50t-50 -18q-21 0 -36 6t-32 17q-13 9 -22.5 13t-19.5 4q-32 0 -44 -39z" />
    <glyph glyph-name="hungarumlaut" unicode="&#x2dd;" horiz-adv-x="288" 
d="M66 581h-47l51 143h73zM226 581h-47l51 143h73z" />
    <glyph glyph-name="gravecomb" unicode="&#x300;" horiz-adv-x="0" 
d="M-18 581h-50l-98 143h75z" />
    <glyph glyph-name="acutecomb" unicode="&#x301;" horiz-adv-x="0" 
d="M-116 581h-50l74 143h74z" />
    <glyph glyph-name="uni0302" unicode="&#x302;" horiz-adv-x="0" 
d="M-209 581h-51l91 143h60l91 -143h-51l-70 85z" />
    <glyph glyph-name="tildecomb" unicode="&#x303;" horiz-adv-x="0" 
d="M-286 630q8 32 28 50t50 18q21 0 35.5 -6t31.5 -17q14 -9 22.5 -13t19.5 -4q17 0 28 10t18 30l38 -16q-9 -32 -29 -50t-50 -18q-21 0 -36 6t-32 17q-13 9 -22.5 13t-19.5 4q-32 0 -44 -39z" />
    <glyph glyph-name="uni0304" unicode="&#x304;" horiz-adv-x="0" 
d="M-22 626h-220v50h220v-50z" />
    <glyph glyph-name="uni0306" unicode="&#x306;" horiz-adv-x="0" 
d="M-182.5 604.5q-26.5 30.5 -26.5 73.5h52q0 -26 12 -41t35 -15t35.5 15t12.5 41h52q0 -43 -26.5 -73.5t-73.5 -30.5q-46 0 -72.5 30.5z" />
    <glyph glyph-name="uni0307" unicode="&#x307;" horiz-adv-x="0" 
d="M-122 616.5q-14 14.5 -14 33.5q0 20 14 34t34 14t34 -14t14 -34t-14 -34t-34 -14t-34 14.5z" />
    <glyph glyph-name="uni0308" unicode="&#x308;" horiz-adv-x="0" 
d="M-301.5 616.5q-14.5 14.5 -14.5 33.5q0 20 14.5 34t34.5 14t34 -14t14 -34t-14 -34t-34 -14t-34.5 14.5zM-99 616.5q-14 14.5 -14 33.5q0 20 14 34t34 14t34.5 -14t14.5 -34t-14.5 -34t-34.5 -14t-34 14.5z" />
    <glyph glyph-name="uni030A" unicode="&#x30a;" horiz-adv-x="0" 
d="M-178 591q-26 28 -26 70v2q0 42 26 70t66 28q39 0 65 -28t26 -70v-2q0 -42 -25.5 -70t-65.5 -28t-66 28zM-79.5 622q12.5 15 12.5 38v4q0 23 -12.5 38t-32.5 15t-32.5 -15t-12.5 -38v-4q0 -23 12.5 -38t32.5 -15t32.5 15z" />
    <glyph glyph-name="uni030B" unicode="&#x30b;" horiz-adv-x="0" 
d="M-262 581h-47l51 143h73zM-102 581h-47l51 143h73z" />
    <glyph glyph-name="uni030C" unicode="&#x30c;" horiz-adv-x="0" 
d="M-109 581h-60l-91 143h51l70 -85l70 85h51z" />
    <glyph glyph-name="uni0312" unicode="&#x312;" horiz-adv-x="0" 
d="M-107 588.5q-13 13.5 -13 34.5q0 45 44 94l19 21l17 -13l-16 -21q-6 -9 -11 -21.5t-5 -21.5q17 0 29 -11t12 -29q0 -20 -12 -33t-31 -13q-20 0 -33 13.5z" />
    <glyph glyph-name="uni0326" unicode="&#x326;" horiz-adv-x="0" 
d="M-85 -229l-17 13l16 21q16 22 16 43q-17 0 -29 11t-12 29q0 20 12 33t31 13q20 0 33 -13.5t13 -34.5q0 -45 -44 -94z" />
    <glyph glyph-name="uni0327" unicode="&#x327;" horiz-adv-x="0" 
d="M-29 -68q23 -22 23 -60q0 -40 -26.5 -64t-69.5 -24q-48 0 -78 17l22 43q25 -16 56 -16q21 0 33.5 11.5t12.5 32.5q0 20 -12 31.5t-30 11.5q-24 0 -44 -14l-32 21l20 90h40l-20 -69q22 11 45 11q37 0 60 -22z" />
    <glyph glyph-name="uni0328" unicode="&#x328;" horiz-adv-x="0" 
d="M-124.5 -175q-24.5 23 -24.5 67q0 40 20 70.5t46 49.5l57 -12q-31 -18 -49.5 -44t-18.5 -56q0 -21 11.5 -33.5t31.5 -12.5q19 0 39 10v-52q-22 -10 -50 -10q-38 0 -62.5 23z" />
    <glyph glyph-name="pi" unicode="&#x3c0;" horiz-adv-x="583" 
d="M550 446h-111v-344q0 -31 15 -47.5t43 -16.5q25 0 53 17v-52q-27 -15 -61 -15q-50 0 -77 30t-27 85v343h-194v-446h-54v446h-112v50h525v-50z" />
    <glyph glyph-name="uni0400" unicode="&#x400;" horiz-adv-x="545" 
d="M488 0h-407v700h403v-54h-345v-258h293v-54h-293v-280h349v-54zM310 785h-50l-98 143h75z" />
    <glyph glyph-name="uni0401" unicode="&#x401;" horiz-adv-x="545" 
d="M488 0h-407v700h403v-54h-345v-258h293v-54h-293v-280h349v-54zM149.5 820.5q-14.5 14.5 -14.5 33.5q0 20 14.5 34t34.5 14t34 -14t14 -34t-14 -34t-34 -14t-34.5 14.5zM352 820.5q-14 14.5 -14 33.5q0 20 14 34t34 14t34.5 -14t14.5 -34t-14.5 -34t-34.5 -14t-34 14.5z
" />
    <glyph glyph-name="uni0402" unicode="&#x402;" horiz-adv-x="690" 
d="M340 9v54q59 -27 115 -27q67 0 108.5 48.5t41.5 132.5t-47.5 132.5t-124.5 48.5q-36 0 -76.5 -9.5t-70.5 -24.5v-364h-58v646h-198v54h505v-54h-249v-231q40 15 77.5 24t81.5 9q62 0 110.5 -28t76.5 -80t28 -123t-27.5 -123t-74.5 -80t-104 -28q-73 0 -114 23z" />
    <glyph glyph-name="uni0403" unicode="&#x403;" horiz-adv-x="509" 
d="M139 0h-58v700h381v-54h-323v-646zM296 785h-50l74 143h74z" />
    <glyph glyph-name="uni0404" unicode="&#x404;" horiz-adv-x="626" 
d="M581 150q-35 -78 -95.5 -121t-145.5 -43t-150.5 42.5t-101.5 119t-36 175.5v54q0 99 36 175.5t101.5 119t150.5 42.5t146.5 -43t93.5 -119l-46 -27q-28 64 -77 100t-117 36q-69 0 -121 -36t-80.5 -100t-28.5 -145v-3h319v-54h-319v-3q0 -81 28.5 -145t80.5 -100t121 -36
q132 0 194 137z" />
    <glyph glyph-name="uni0405" unicode="&#x405;" horiz-adv-x="539" 
d="M127 34q-58 48 -82 127l52 25q24 -72 67.5 -109t111.5 -37t110.5 39t42.5 101v3q0 60 -40 96t-125 62q-97 30 -147 77t-50 124v3q0 49 27.5 87t74 59t100.5 21q76 0 128.5 -36.5t77.5 -105.5l-49 -25q-21 55 -62.5 84t-94.5 29q-63 0 -103.5 -31t-40.5 -83v-2
q0 -54 40.5 -88t128.5 -62q98 -32 146 -80t48 -127v-4q0 -58 -27.5 -102.5t-76 -68.5t-108.5 -24q-91 0 -149 48z" />
    <glyph glyph-name="uni0406" unicode="&#x406;" horiz-adv-x="220" 
d="M139 0h-58v700h58v-700z" />
    <glyph glyph-name="uni0407" unicode="&#x407;" horiz-adv-x="220" 
d="M139 0h-58v700h58v-700zM-25.5 820.5q-14.5 14.5 -14.5 33.5q0 20 14.5 34t34.5 14t34 -14t14 -34t-14 -34t-34 -14t-34.5 14.5zM177 820.5q-14 14.5 -14 33.5q0 20 14 34t34 14t34.5 -14t14.5 -34t-14.5 -34t-34.5 -14t-34 14.5z" />
    <glyph glyph-name="uni0408" unicode="&#x408;" horiz-adv-x="488" 
d="M108 27.5q-49 41.5 -70 113.5l55 20q14 -58 49.5 -89.5t88.5 -31.5q62 0 93 41.5t31 120.5v498h58v-496q0 -103 -47.5 -160.5t-134.5 -57.5q-74 0 -123 41.5z" />
    <glyph glyph-name="uni0409" unicode="&#x409;" horiz-adv-x="957" 
d="M57.5 -9q-17.5 5 -28.5 15v56q14 -11 26.5 -16t27.5 -5q31 0 48.5 15.5t26 48t12.5 89.5l31 506h357v-333h158q86 0 137.5 -48.5t51.5 -134.5q0 -87 -51.5 -135.5t-137.5 -48.5h-216v646h-248l-29 -465q-6 -97 -35 -146t-93 -49q-20 0 -37.5 5zM709 54q67 0 102.5 32.5
t35.5 97.5t-35.5 97t-102.5 32h-151v-259h151z" />
    <glyph glyph-name="uni040A" unicode="&#x40a;" horiz-adv-x="965" 
d="M81 0v700h58v-304h361v304h58v-304h158q90 0 143.5 -52t53.5 -146t-53.5 -146t-143.5 -52h-216v342h-361v-342h-58zM709 54q71 0 108.5 35.5t37.5 108.5q0 72 -38 108t-108 36h-151v-288h151z" />
    <glyph glyph-name="uni040B" unicode="&#x40b;" horiz-adv-x="690" 
d="M228 0v646h-198v54h505v-54h-249v-231q37 15 72.5 24t76.5 9q87 0 135 -50t48 -130v-268h-55v257q0 65 -35 103t-105 38q-33 0 -71 -9.5t-66 -24.5v-364h-58z" />
    <glyph glyph-name="uni040C" unicode="&#x40c;" horiz-adv-x="506" 
d="M404 700h70l-250 -350l250 -350h-71l-230 323h-34v-323h-58v700h58v-323h36zM289 785h-50l74 143h74z" />
    <glyph glyph-name="uni040D" unicode="&#x40d;" horiz-adv-x="599" 
d="M133 0h-52v700h57v-587l313 587h67v-700h-57v611zM324 785h-50l-98 143h75z" />
    <glyph glyph-name="uni040E" unicode="&#x40e;" horiz-adv-x="517" 
d="M434 700h66l-253 -602q-23 -55 -65.5 -83t-89.5 -28q-49 0 -83 28v59q44 -30 86 -30q31 0 58 19.5t44 60.5l34 82l-214 494h68l175 -423zM179 813q-29 35 -29 83h52q0 -33 14.5 -51.5t42.5 -18.5t43 18.5t15 51.5h52q0 -48 -29 -83t-81 -35q-51 0 -80 35z" />
    <glyph glyph-name="uni040F" unicode="&#x40f;" horiz-adv-x="619" 
d="M339 -142h-58v142h-200v700h58v-646h341v646h58v-700h-199v-142z" />
    <glyph glyph-name="uni0410" unicode="&#x410;" horiz-adv-x="584" 
d="M564 0h-63l-60 182h-298l-60 -182h-63l236 700h70zM292 632l-131 -395h262z" />
    <glyph glyph-name="uni0411" unicode="&#x411;" horiz-adv-x="558" 
d="M81 0v700h369v-54h-311v-279h178q86 0 137.5 -48.5t51.5 -134.5q0 -87 -51.5 -135.5t-137.5 -48.5h-236zM310 54q67 0 102.5 32.5t35.5 97.5t-35.5 97t-102.5 32h-171v-259h171z" />
    <glyph glyph-name="uni0412" unicode="&#x412;" horiz-adv-x="568" 
d="M81 0v700h215q91 0 142 -46.5t51 -125.5v-2q0 -55 -25.5 -93t-64.5 -60q112 -48 112 -173v-4q0 -61 -26 -105.5t-71 -67.5t-99 -23h-234zM299 395q59 0 95 32t36 93t-36 93.5t-95 32.5h-160v-251h160zM309 54q67 0 105.5 37.5t38.5 104.5v4q0 66 -38.5 103.5t-105.5 37.5
h-170v-287h170z" />
    <glyph glyph-name="uni0413" unicode="&#x413;" horiz-adv-x="509" 
d="M139 0h-58v700h381v-54h-323v-646z" />
    <glyph glyph-name="uni0414" unicode="&#x414;" horiz-adv-x="661" 
d="M30 -142v196h99q16 58 25 116t14 133l25 397h357v-646h86v-196h-58v142h-490v-142h-58zM492 54v592h-244l-22 -342q-5 -85 -13 -140.5t-22 -109.5h301z" />
    <glyph glyph-name="uni0415" unicode="&#x415;" horiz-adv-x="545" 
d="M488 0h-407v700h403v-54h-345v-258h293v-54h-293v-280h349v-54z" />
    <glyph glyph-name="uni0416" unicode="&#x416;" horiz-adv-x="792" 
d="M103 0h-71l250 350l-250 350h70l229 -323h36v323h58v-323h36l229 323h70l-250 -350l250 -350h-71l-230 323h-34v-323h-58v323h-34z" />
    <glyph glyph-name="uni0417" unicode="&#x417;" horiz-adv-x="560" 
d="M133.5 41.5q-57.5 53.5 -71.5 147.5l55 12q9 -76 53 -117.5t110 -41.5q73 0 113.5 41.5t40.5 112.5v9q0 74 -41 109t-100 35h-50v52h50q57 0 91 36t34 97q0 58 -38 92t-103 34q-58 0 -97 -33.5t-49 -94.5l-54 11q14 80 66 125.5t134 45.5q57 0 102.5 -23t71 -64t25.5 -93
q0 -55 -23 -94t-64 -61q48 -24 75.5 -67t27.5 -104v-13q0 -59 -27 -106t-75 -74t-110 -27q-89 0 -146.5 53.5z" />
    <glyph glyph-name="uni0418" unicode="&#x418;" horiz-adv-x="599" 
d="M133 0h-52v700h57v-587l313 587h67v-700h-57v611z" />
    <glyph glyph-name="uni0419" unicode="&#x419;" horiz-adv-x="599" 
d="M133 0h-52v700h57v-587l313 587h67v-700h-57v611zM219 813q-29 35 -29 83h52q0 -33 14.5 -51.5t42.5 -18.5t43 18.5t15 51.5h52q0 -48 -29 -83t-81 -35q-51 0 -80 35z" />
    <glyph glyph-name="uni041A" unicode="&#x41a;" horiz-adv-x="506" 
d="M404 700h70l-250 -350l250 -350h-71l-230 323h-34v-323h-58v700h58v-323h36z" />
    <glyph glyph-name="uni041B" unicode="&#x41b;" horiz-adv-x="639" 
d="M57.5 -9q-17.5 5 -28.5 15v56q14 -11 26.5 -16t27.5 -5q31 0 48.5 15.5t26 48t12.5 89.5l31 506h357v-700h-58v646h-248l-29 -465q-6 -97 -35 -146t-93 -49q-20 0 -37.5 5z" />
    <glyph glyph-name="uni041C" unicode="&#x41c;" horiz-adv-x="693" 
d="M139 0h-58v700h59l206 -488l206 488h60v-700h-59v556l-181 -416h-52l-181 416v-556z" />
    <glyph glyph-name="uni041D" unicode="&#x41d;" horiz-adv-x="639" 
d="M139 0h-58v700h58v-304h361v304h58v-700h-58v342h-361v-342z" />
    <glyph glyph-name="uni041E" unicode="&#x41e;" horiz-adv-x="690" 
d="M192.5 28.5q-66.5 42.5 -103.5 119.5t-37 175v54q0 98 37 175t103.5 119.5t152.5 42.5t152.5 -42.5t103.5 -119.5t37 -175v-54q0 -98 -37 -175t-103.5 -119.5t-152.5 -42.5t-152.5 42.5zM467.5 75q53.5 36 83 100t29.5 144v62q0 80 -29.5 144t-83 100t-122.5 36
t-122.5 -36t-83 -100t-29.5 -144v-62q0 -80 29.5 -144t83 -100t122.5 -36t122.5 36z" />
    <glyph glyph-name="uni041F" unicode="&#x41f;" horiz-adv-x="619" 
d="M139 0h-58v700h457v-700h-58v646h-341v-646z" />
    <glyph glyph-name="uni0420" unicode="&#x420;" horiz-adv-x="538" 
d="M81 0v700h216q86 0 137.5 -48.5t51.5 -135.5q0 -86 -51.5 -134.5t-137.5 -48.5h-158v-333h-58zM290 387q67 0 102.5 32t35.5 97t-35.5 97.5t-102.5 32.5h-151v-259h151z" />
    <glyph glyph-name="uni0421" unicode="&#x421;" horiz-adv-x="626" 
d="M189.5 28.5q-65.5 42.5 -101.5 119t-36 175.5v54q0 99 36 175.5t101.5 119t150.5 42.5t146.5 -43t93.5 -119l-46 -27q-28 64 -77 100t-117 36q-69 0 -121 -36t-80.5 -100t-28.5 -145v-60q0 -81 28.5 -145t80.5 -100t121 -36q132 0 194 137l47 -26q-35 -78 -95.5 -121
t-145.5 -43t-150.5 42.5z" />
    <glyph glyph-name="uni0422" unicode="&#x422;" horiz-adv-x="515" 
d="M485 700v-54h-199v-646h-58v646h-198v54h455z" />
    <glyph glyph-name="uni0423" unicode="&#x423;" horiz-adv-x="517" 
d="M434 700h66l-253 -602q-23 -55 -65.5 -83t-89.5 -28q-49 0 -83 28v59q44 -30 86 -30q31 0 58 19.5t44 60.5l34 82l-214 494h68l175 -423z" />
    <glyph glyph-name="uni0424" unicode="&#x424;" horiz-adv-x="666" 
d="M362 629q78 -6 135 -41.5t87 -93t30 -127.5v-34q0 -70 -30 -127.5t-87 -93t-135 -41.5v-85h-58v85q-79 5 -136 40.5t-86.5 93t-29.5 128.5v34q0 71 29.5 128.5t86.5 93t136 40.5v85h58v-85zM110 332q0 -88 49 -144.5t145 -64.5v454q-96 -8 -145 -64.5t-49 -144.5v-36z
M362 123q96 8 146 64.5t48 144.5v36q0 87 -49.5 144t-144.5 65v-454z" />
    <glyph glyph-name="uni0425" unicode="&#x425;" horiz-adv-x="512" 
d="M90 0h-64l198 358l-189 342h66l159 -289l161 289h63l-194 -347l196 -353h-65l-167 301z" />
    <glyph glyph-name="uni0426" unicode="&#x426;" horiz-adv-x="649" 
d="M624 -142h-58v142h-485v700h58v-646h341v646h58v-646h86v-196z" />
    <glyph glyph-name="uni0427" unicode="&#x427;" horiz-adv-x="586" 
d="M447 337q-28 -33 -81.5 -54t-109.5 -21q-84 0 -132.5 50.5t-48.5 129.5v258h58v-247q0 -63 37 -100t98 -37q52 0 98 21t81 57v306h58v-700h-58v337z" />
    <glyph glyph-name="uni0428" unicode="&#x428;" horiz-adv-x="818" 
d="M737 0h-656v700h58v-646h241v646h58v-646h241v646h58v-700z" />
    <glyph glyph-name="uni0429" unicode="&#x429;" horiz-adv-x="848" 
d="M823 -142h-58v142h-684v700h58v-646h241v646h58v-646h241v646h58v-646h86v-196z" />
    <glyph glyph-name="uni042A" unicode="&#x42a;" horiz-adv-x="678" 
d="M221 0v646h-191v54h249v-333h158q86 0 137.5 -48.5t51.5 -134.5q0 -87 -51.5 -135.5t-137.5 -48.5h-216zM430 54q67 0 102.5 32.5t35.5 97.5t-35.5 97t-102.5 32h-151v-259h151z" />
    <glyph glyph-name="uni042B" unicode="&#x42b;" horiz-adv-x="738" 
d="M81 0v700h58v-333h158q86 0 137.5 -48.5t51.5 -134.5q0 -87 -51.5 -135.5t-137.5 -48.5h-216zM290 54q67 0 102.5 32.5t35.5 97.5t-35.5 97t-102.5 32h-151v-259h151zM657 0h-58v700h58v-700z" />
    <glyph glyph-name="uni042C" unicode="&#x42c;" horiz-adv-x="538" 
d="M81 0v700h58v-333h158q86 0 137.5 -48.5t51.5 -134.5q0 -87 -51.5 -135.5t-137.5 -48.5h-216zM290 54q67 0 102.5 32.5t35.5 97.5t-35.5 97t-102.5 32h-151v-259h151z" />
    <glyph glyph-name="uni042D" unicode="&#x42d;" horiz-adv-x="626" 
d="M436.5 671.5q65.5 -42.5 101.5 -119t36 -175.5v-54q0 -99 -36 -175.5t-101.5 -119t-150.5 -42.5t-145.5 43t-95.5 121l47 26q62 -137 194 -137q69 0 121 36t80.5 100t28.5 145v3h-319v54h319v3q0 81 -28.5 145t-80.5 100t-121 36q-68 0 -117 -36t-77 -100l-46 27
q32 76 93.5 119t146.5 43t150.5 -42.5z" />
    <glyph glyph-name="uni042E" unicode="&#x42e;" horiz-adv-x="917" 
d="M731 671.5q65 -42.5 99.5 -119t34.5 -175.5v-54q0 -99 -34.5 -175.5t-99.5 -119t-153 -42.5t-153 42.5t-99.5 119t-34.5 175.5v19h-152v-342h-58v700h58v-304h152q4 95 39.5 166.5t99 111.5t148.5 40q88 0 153 -42.5zM807 381q0 82 -27 145t-79 99t-123 36t-123 -36
t-79 -99t-27 -145v-62q0 -82 27 -145t79 -99t123 -36t123 36t79 99t27 145v62z" />
    <glyph glyph-name="uni042F" unicode="&#x42f;" horiz-adv-x="555" 
d="M98 257q8 48 23.5 70.5t45.5 32.5q-45 15 -76 55t-31 101q0 85 50.5 134.5t137.5 49.5h226v-700h-58v333h-175q-40 0 -59 -18.5t-27 -70.5l-39 -244h-59zM416 386v260h-161q-64 0 -100 -33.5t-36 -96.5q0 -62 36 -96t100 -34h161z" />
    <glyph glyph-name="uni0430" unicode="&#x430;" horiz-adv-x="508" 
d="M89 26.5q-41 38.5 -41 102.5v4q0 66 43 103.5t113 50.5l150 30v18q0 54 -32 87.5t-89 33.5q-98 0 -132 -98l-49 20q18 59 65.5 94.5t115.5 35.5q82 0 128.5 -47.5t46.5 -124.5v-249q0 -23 11 -37t33 -14q18 0 34 8v-47q-18 -9 -48 -9q-39 0 -61 25.5t-23 67.5
q-46 -93 -158 -93q-66 0 -107 38.5zM312 88q42 50 42 142v39l-140 -28q-109 -21 -109 -110v-1q0 -40 26 -66t69 -26q70 0 112 50z" />
    <glyph glyph-name="uni0431" unicode="&#x431;" horiz-adv-x="505" 
d="M145 13.5q-47 26.5 -73 77.5t-26 121v199q0 120 61 182t164 62q56 0 91.5 13.5t62.5 41.5v-60q-44 -47 -154 -47q-80 0 -127.5 -48.5t-47.5 -155.5v-38q15 42 56 69.5t100 27.5q97 0 152 -59t55 -166v-21q0 -106 -55.5 -165.5t-151.5 -59.5q-60 0 -107 26.5zM403 211v23
q0 172 -151 172q-74 0 -112 -43.5t-38 -128.5v-23q0 -85 38 -128.5t112 -43.5q151 0 151 172z" />
    <glyph glyph-name="uni0432" unicode="&#x432;" horiz-adv-x="480" 
d="M72 0v496h180q75 0 115.5 -33t40.5 -89v-1q0 -39 -20.5 -66.5t-51.5 -40.5q90 -35 90 -123v-3q0 -65 -46 -102.5t-114 -37.5h-194zM254 285q45 0 72.5 20.5t27.5 60.5t-27.5 60.5t-72.5 20.5h-128v-162h128zM261 50q51 0 80.5 23.5t29.5 67.5v6q0 43 -29.5 66.5
t-80.5 23.5h-135v-187h135z" />
    <glyph glyph-name="uni0433" unicode="&#x433;" horiz-adv-x="398" 
d="M126 0h-54v496h296v-49h-242v-447z" />
    <glyph glyph-name="uni0434" unicode="&#x434;" horiz-adv-x="528" 
d="M23 -122v172h70q18 60 28 115t16 138l14 193h280v-446h72v-172h-58v122h-364v-122h-58zM377 50v392h-176l-10 -138q-6 -90 -16 -143.5t-28 -110.5h230z" />
    <glyph glyph-name="uni0435" unicode="&#x435;" horiz-adv-x="514" 
d="M468 241h-366v-8q0 -57 20.5 -100.5t56.5 -68t82 -24.5q101 0 144 103l50 -20q-26 -64 -74.5 -99.5t-119.5 -35.5q-62 0 -111 31.5t-76.5 87.5t-27.5 126v30q0 71 28 127t77 87t111 31q57 0 104 -27.5t74.5 -81t27.5 -126.5v-32zM151.5 410q-42.5 -46 -48.5 -122h310
q-5 79 -47 123.5t-104 44.5q-68 0 -110.5 -46z" />
    <glyph glyph-name="uni0436" unicode="&#x436;" horiz-adv-x="648" 
d="M101 0h-67l193 248l-193 248h67l173 -224h23v224h54v-224h23l173 224h67l-193 -248l193 -248h-67l-173 224h-23v-224h-54v224h-23z" />
    <glyph glyph-name="uni0437" unicode="&#x437;" horiz-adv-x="406" 
d="M92 24q-43 38 -53 108l50 9q18 -105 113 -105q51 0 80 26.5t29 74.5v7q0 47 -28 70t-72 23h-36v48h36q41 0 65.5 23.5t24.5 66.5q0 41 -26 63t-74 22q-40 0 -67.5 -22.5t-37.5 -65.5l-46 11q9 57 49.5 91t101.5 34q72 0 112 -36.5t40 -96.5q0 -77 -73 -110
q85 -34 85 -119v-9q0 -43 -21 -77.5t-58.5 -54t-83.5 -19.5q-67 0 -110 38z" />
    <glyph glyph-name="uni0438" unicode="&#x438;" horiz-adv-x="508" 
d="M126 0h-54v496h54v-409l256 409h54v-496h-54v409z" />
    <glyph glyph-name="uni0439" unicode="&#x439;" horiz-adv-x="508" 
d="M126 0h-54v496h54v-409l256 409h54v-496h-54v409zM174 609q-29 35 -29 83h52q0 -33 14.5 -51.5t42.5 -18.5t43 18.5t15 51.5h52q0 -48 -29 -83t-81 -35q-51 0 -80 35z" />
    <glyph glyph-name="uni043A" unicode="&#x43a;" horiz-adv-x="423" 
d="M126 0h-54v496h54v-224h23l173 224h67l-193 -248l193 -248h-67l-173 224h-23v-224z" />
    <glyph glyph-name="uni043B" unicode="&#x43b;" horiz-adv-x="508" 
d="M17 6v52q28 -22 55 -22q23 0 34 12.5t13 41.5l33 406h284v-496h-54v447h-184l-30 -372q-8 -88 -95 -88q-33 0 -56 19z" />
    <glyph glyph-name="uni043C" unicode="&#x43c;" horiz-adv-x="551" 
d="M115 0h-54v496h57l157 -337l158 337h57v-496h-55v382l-135 -283h-50l-135 283v-382z" />
    <glyph glyph-name="uni043D" unicode="&#x43d;" horiz-adv-x="500" 
d="M126 0h-54v496h54v-209h248v209h54v-496h-54v238h-248v-238z" />
    <glyph glyph-name="uni043E" unicode="&#x43e;" horiz-adv-x="533" 
d="M153 19.5q-50 31.5 -78.5 87t-28.5 126.5v30q0 71 28.5 126.5t78.5 87t113 31.5q64 0 114 -31.5t78.5 -87t28.5 -126.5v-30q0 -71 -28.5 -126.5t-78.5 -87t-114 -31.5q-63 0 -113 31.5zM386 93q45 53 45 139v32q0 86 -45 139t-120 53q-74 0 -119 -53t-45 -139v-32
q0 -86 45 -139t119 -53q75 0 120 53z" />
    <glyph glyph-name="uni043F" unicode="&#x43f;" horiz-adv-x="500" 
d="M126 0h-54v496h356v-496h-54v447h-248v-447z" />
    <glyph glyph-name="uni0440" unicode="&#x440;" horiz-adv-x="534" 
d="M72 -202v698h54v-78q21 40 62.5 65t95.5 25q58 0 104.5 -30t73 -85.5t26.5 -129.5v-30q0 -74 -26 -129.5t-72.5 -85.5t-104.5 -30q-56 0 -96.5 22.5t-62.5 59.5v-272h-54zM357 63.5q35 23.5 55 67t20 101.5v32q0 58 -20 101.5t-55 67t-80 23.5q-68 0 -111 -52t-43 -140
v-32q0 -88 43 -140t111 -52q45 0 80 23.5z" />
    <glyph glyph-name="uni0441" unicode="&#x441;" horiz-adv-x="499" 
d="M150.5 19.5q-49.5 31.5 -77 87.5t-27.5 126v30q0 70 27.5 126t77 87.5t112.5 31.5q71 0 119 -36t71 -103l-47 -22q-17 51 -53.5 80t-89.5 29q-72 0 -116.5 -53t-44.5 -139v-32q0 -86 44.5 -139t116.5 -53q53 0 89 29.5t55 80.5l50 -21q-58 -141 -194 -141
q-63 0 -112.5 31.5z" />
    <glyph glyph-name="uni0442" unicode="&#x442;" horiz-adv-x="378" 
d="M216 0h-54v447h-147v49h348v-49h-147v-447z" />
    <glyph glyph-name="uni0443" unicode="&#x443;" horiz-adv-x="455" 
d="M375 496h60l-217 -590q-24 -62 -57.5 -90t-87.5 -28q-30 0 -59 11v55q34 -16 62 -16q34 0 55 20.5t39 68.5l30 84l-182 485h61l149 -408z" />
    <glyph glyph-name="uni0444" unicode="&#x444;" horiz-adv-x="549" 
d="M302 507q59 -6 104.5 -38t71 -84t25.5 -118v-38q0 -66 -25.5 -118t-71 -84t-104.5 -38v-193h-54v193q-60 6 -105.5 37.5t-71 84t-25.5 118.5v38q0 66 25.5 118.5t71 84t105.5 37.5v193h54v-193zM102 228q0 -78 39 -128t107 -58v412q-68 -8 -107 -58t-39 -128v-40z
M447 268q0 78 -39 127.5t-106 58.5v-412q67 9 106 58.5t39 127.5v40z" />
    <glyph glyph-name="uni0445" unicode="&#x445;" horiz-adv-x="417" 
d="M84 0h-60l152 263l-139 233h62l109 -190l107 190h63l-140 -236l155 -260h-61l-127 215z" />
    <glyph glyph-name="uni0446" unicode="&#x446;" horiz-adv-x="525" 
d="M500 -122h-58v122h-370v496h54v-447h248v447h54v-447h72v-171z" />
    <glyph glyph-name="uni0447" unicode="&#x447;" horiz-adv-x="483" 
d="M357 225q-52 -46 -134 -46q-78 0 -121.5 46.5t-43.5 124.5v146h55v-135q0 -63 31.5 -97.5t88.5 -34.5q41 0 67.5 12t56.5 43v212h54v-496h-54v225z" />
    <glyph glyph-name="uni0448" unicode="&#x448;" horiz-adv-x="682" 
d="M610 0h-538v496h54v-447h188v447h54v-447h188v447h54v-496z" />
    <glyph glyph-name="uni0449" unicode="&#x449;" horiz-adv-x="707" 
d="M682 -122h-58v122h-552v496h54v-447h188v447h54v-447h188v447h54v-447h72v-171z" />
    <glyph glyph-name="uni044A" unicode="&#x44a;" horiz-adv-x="556" 
d="M148 0v448h-128v48h182v-211h140q73 0 116.5 -36.5t43.5 -102.5v-3q0 -67 -44 -105t-116 -38h-194zM337 50q53 0 81.5 23.5t28.5 67.5v6q0 44 -28.5 67t-81.5 23h-135v-187h135z" />
    <glyph glyph-name="uni044B" unicode="&#x44b;" horiz-adv-x="628" 
d="M72 0v496h54v-211h140q73 0 116.5 -36.5t43.5 -102.5v-3q0 -67 -44 -105t-116 -38h-194zM261 50q53 0 81.5 23.5t28.5 67.5v6q0 44 -28.5 67t-81.5 23h-135v-187h135zM556 0h-54v496h54v-496z" />
    <glyph glyph-name="uni044C" unicode="&#x44c;" horiz-adv-x="480" 
d="M72 0v496h54v-211h140q73 0 116.5 -36.5t43.5 -102.5v-3q0 -67 -44 -105t-116 -38h-194zM261 50q53 0 81.5 23.5t28.5 67.5v6q0 44 -28.5 67t-81.5 23h-135v-187h135z" />
    <glyph glyph-name="uni044D" unicode="&#x44d;" horiz-adv-x="499" 
d="M349.5 476.5q48.5 -31.5 76 -87.5t27.5 -126v-30q0 -70 -27.5 -126t-76 -87.5t-108.5 -31.5q-147 0 -199 141l50 21q42 -110 149 -110q67 0 110.5 50.5t45.5 133.5h-208v49h208q-2 82 -45.5 132.5t-110.5 50.5q-56 0 -93.5 -29t-54.5 -80l-47 22q23 67 71.5 103t123.5 36
q60 0 108.5 -31.5z" />
    <glyph glyph-name="uni044E" unicode="&#x44e;" horiz-adv-x="685" 
d="M537 476.5q49 -31.5 75.5 -87t26.5 -126.5v-30q0 -71 -26.5 -126.5t-75.5 -87t-113 -31.5t-112.5 31.5t-75 87t-26.5 126.5v5h-84v-238h-54v496h54v-209h85q7 99 64.5 160t148.5 61q64 0 113 -31.5zM583 264q0 87 -42.5 139.5t-116.5 52.5q-73 0 -115.5 -52.5
t-42.5 -139.5v-32q0 -87 42.5 -139.5t115.5 -52.5q74 0 116.5 52.5t42.5 139.5v32z" />
    <glyph glyph-name="uni044F" unicode="&#x44f;" horiz-adv-x="452" 
d="M79 178q7 36 19 52t37 24q-35 11 -59.5 40t-24.5 72q0 61 40 95.5t107 34.5h182v-496h-55v230h-128q-31 0 -45.5 -13t-19.5 -46l-29 -171h-55zM325 278v170h-120q-46 0 -72.5 -21.5t-26.5 -62.5t26.5 -63.5t72.5 -22.5h120z" />
    <glyph glyph-name="uni0450" unicode="&#x450;" horiz-adv-x="514" 
d="M468 241h-366v-8q0 -57 20.5 -100.5t56.5 -68t82 -24.5q101 0 144 103l50 -20q-26 -64 -74.5 -99.5t-119.5 -35.5q-62 0 -111 31.5t-76.5 87.5t-27.5 126v30q0 71 28 127t77 87t111 31q57 0 104 -27.5t74.5 -81t27.5 -126.5v-32zM151.5 410q-42.5 -46 -48.5 -122h310
q-5 79 -47 123.5t-104 44.5q-68 0 -110.5 -46zM286 581h-50l-98 143h75z" />
    <glyph glyph-name="uni0451" unicode="&#x451;" horiz-adv-x="514" 
d="M468 241h-366v-8q0 -57 20.5 -100.5t56.5 -68t82 -24.5q101 0 144 103l50 -20q-26 -64 -74.5 -99.5t-119.5 -35.5q-62 0 -111 31.5t-76.5 87.5t-27.5 126v30q0 71 28 127t77 87t111 31q57 0 104 -27.5t74.5 -81t27.5 -126.5v-32zM151.5 410q-42.5 -46 -48.5 -122h310
q-5 79 -47 123.5t-104 44.5q-68 0 -110.5 -46zM125.5 616.5q-14.5 14.5 -14.5 33.5q0 20 14.5 34t34.5 14t34 -14t14 -34t-14 -34t-34 -14t-34.5 14.5zM328 616.5q-14 14.5 -14 33.5q0 20 14 34t34 14t34.5 -14t14.5 -34t-14.5 -34t-34.5 -14t-34 14.5z" />
    <glyph glyph-name="uni0452" unicode="&#x452;" horiz-adv-x="487" 
d="M278 -201v51q27 -12 50 -12q26 0 40.5 19t14.5 54v406q0 63 -36 102t-93 39q-56 0 -92 -40t-36 -101v-317h-54v585h-74v50h74v65h54v-65h163v-50h-163v-152q17 32 53.5 53.5t86.5 21.5q77 0 124 -50.5t47 -129.5v-414q0 -63 -27.5 -94.5t-74.5 -31.5q-35 0 -57 11z" />
    <glyph glyph-name="uni0453" unicode="&#x453;" horiz-adv-x="398" 
d="M126 0h-54v496h296v-49h-242v-447zM245 581h-50l74 143h74z" />
    <glyph glyph-name="uni0454" unicode="&#x454;" horiz-adv-x="499" 
d="M457 129q-58 -141 -194 -141q-63 0 -112.5 31.5t-77 87.5t-27.5 126v30q0 70 27.5 126t77 87.5t112.5 31.5q71 0 119 -36t71 -103l-47 -22q-17 51 -53.5 80t-89.5 29q-70 0 -114.5 -50.5t-46.5 -132.5h208v-49h-208q2 -83 46 -133.5t115 -50.5q53 0 89 29.5t55 80.5z" />
    <glyph glyph-name="uni0455" unicode="&#x455;" horiz-adv-x="437" 
d="M113.5 20.5q-45.5 34.5 -62.5 89.5l50 24q14 -45 46 -71.5t77 -26.5q46 0 76.5 24.5t30.5 64.5v1q0 40 -26.5 62t-88.5 40q-75 22 -111.5 57.5t-36.5 91.5q0 59 44 94t108 35q56 0 96.5 -27.5t57.5 -75.5l-45 -23q-16 38 -44.5 58t-64.5 20q-44 0 -72 -21.5t-28 -57.5
t28 -60t87 -41q79 -24 114.5 -57t35.5 -95v-1q0 -61 -46 -100t-115 -39q-65 0 -110.5 34.5z" />
    <glyph glyph-name="uni0456" unicode="&#x456;" 
d="M64.5 616.5q-14.5 14.5 -14.5 33.5q0 20 14.5 34t34.5 14t34 -14t14 -34t-14 -34t-34 -14t-34.5 14.5zM126 0h-54v496h54v-496z" />
    <glyph glyph-name="uni0457" unicode="&#x457;" 
d="M-16.5 616.5q-14.5 14.5 -14.5 33.5q0 20 14.5 34t34.5 14t34 -14t14 -34t-14 -34t-34 -14t-34.5 14.5zM146.5 616.5q-14.5 14.5 -14.5 33.5q0 20 14 34t34 14t34.5 -14t14.5 -34t-14.5 -34t-34.5 -14q-19 0 -33.5 14.5zM126 0h-54v496h54v-496z" />
    <glyph glyph-name="uni0458" unicode="&#x458;" 
d="M64.5 616.5q-14.5 14.5 -14.5 33.5q0 20 14.5 34t34.5 14t34 -14t14 -34t-14 -34t-34 -14t-34.5 14.5zM-33 -201v51q27 -12 50 -12q26 0 40.5 19t14.5 54v585h54v-582q0 -63 -27.5 -94.5t-74.5 -31.5q-35 0 -57 11z" />
    <glyph glyph-name="uni0459" unicode="&#x459;" horiz-adv-x="790" 
d="M17 6v52q28 -22 55 -22q23 0 34 12.5t13 41.5l33 406h284v-211h140q73 0 116.5 -36.5t43.5 -102.5v-3q0 -67 -44 -105t-116 -38h-194v447h-184l-30 -372q-8 -88 -95 -88q-33 0 -56 19zM571 50q53 0 81.5 23.5t28.5 67.5v6q0 44 -28.5 67t-81.5 23h-135v-187h135z" />
    <glyph glyph-name="uni045A" unicode="&#x45a;" horiz-adv-x="782" 
d="M72 0v496h54v-209h248v209h54v-209h140q73 0 116.5 -37.5t43.5 -103.5v-3q0 -67 -44 -105t-116 -38h-194v238h-248v-238h-54zM563 50q53 0 81.5 23.5t28.5 67.5v6q0 44 -28.5 67.5t-81.5 23.5h-135v-188h135z" />
    <glyph glyph-name="uni045B" unicode="&#x45b;" horiz-adv-x="487" 
d="M390 457.5q47 -50.5 47 -129.5v-328h-54v317q0 63 -36 102t-93 39q-56 0 -92 -40t-36 -101v-317h-54v585h-74v50h74v65h54v-65h163v-50h-163v-152q17 32 53.5 53.5t86.5 21.5q77 0 124 -50.5z" />
    <glyph glyph-name="uni045C" unicode="&#x45c;" horiz-adv-x="423" 
d="M126 0h-54v496h54v-224h23l173 224h67l-193 -248l193 -248h-67l-173 224h-23v-224zM247 581h-50l74 143h74z" />
    <glyph glyph-name="uni045D" unicode="&#x45d;" horiz-adv-x="508" 
d="M126 0h-54v496h54v-409l256 409h54v-496h-54v409zM279 581h-50l-98 143h75z" />
    <glyph glyph-name="uni045E" unicode="&#x45e;" horiz-adv-x="455" 
d="M375 496h60l-217 -590q-24 -62 -57.5 -90t-87.5 -28q-30 0 -59 11v55q34 -16 62 -16q34 0 55 20.5t39 68.5l30 84l-182 485h61l149 -408zM148 609q-29 35 -29 83h52q0 -33 14.5 -51.5t42.5 -18.5t43 18.5t15 51.5h52q0 -48 -29 -83t-81 -35q-51 0 -80 35z" />
    <glyph glyph-name="uni045F" unicode="&#x45f;" horiz-adv-x="500" 
d="M279 -122h-58v122h-149v496h54v-447h248v447h54v-496h-149v-122z" />
    <glyph glyph-name="uni0462" unicode="&#x462;" horiz-adv-x="658" 
d="M417 367q86 0 137.5 -48.5t51.5 -134.5q0 -87 -51.5 -135.5t-137.5 -48.5h-216v508h-171v54h171v138h58v-138h216v-54h-216v-141h158zM410 54q67 0 102.5 32.5t35.5 97.5t-35.5 97t-102.5 32h-151v-259h151z" />
    <glyph glyph-name="uni0463" unicode="&#x463;" horiz-adv-x="545" 
d="M331 285q73 0 116.5 -36.5t43.5 -102.5v-3q0 -67 -44 -105t-116 -38h-194v446h-107v50h107v204h54v-204h194v-50h-194v-161h140zM436 147q0 44 -28.5 67t-81.5 23h-135v-187h135q53 0 81.5 23.5t28.5 67.5v6z" />
    <glyph glyph-name="uni0472" unicode="&#x472;" horiz-adv-x="690" 
d="M497.5 671.5q66.5 -42.5 103.5 -119.5t37 -175v-54q0 -98 -37 -175t-103.5 -119.5t-152.5 -42.5t-152.5 42.5t-103.5 119.5t-37 175v54q0 98 37 175t103.5 119.5t152.5 42.5t152.5 -42.5zM222.5 625q-53.5 -36 -83 -100t-29.5 -144v-9q24 16 56 25.5t65 9.5q36 0 63 -8
t62 -24q33 -14 55 -21t50 -7q26 0 57.5 9t61.5 27q0 80 -30 143.5t-83 99t-122 35.5t-122.5 -36zM467.5 75q53.5 36 83 100t29.5 144v8q-24 -16 -55 -25t-64 -9q-36 0 -63 8t-62 24q-33 14 -55 21t-50 7q-26 0 -58.5 -9.5t-62.5 -27.5q0 -79 30 -142.5t83.5 -99t121.5 -35.5
q69 0 122.5 36z" />
    <glyph glyph-name="uni0473" unicode="&#x473;" horiz-adv-x="533" 
d="M380 476.5q50 -31.5 78.5 -87t28.5 -126.5v-30q0 -71 -28.5 -126.5t-78.5 -87t-114 -31.5q-63 0 -113 31.5t-78.5 87t-28.5 126.5v30q0 71 28.5 126.5t78.5 87t113 31.5q64 0 114 -31.5zM150.5 406.5q-44.5 -49.5 -48.5 -130.5q31 21 74 21q30 0 50.5 -6t46.5 -18
q24 -11 43 -16.5t46 -5.5q39 0 69 22q-2 82 -47.5 132.5t-117.5 50.5q-71 0 -115.5 -49.5zM382.5 89q44.5 49 48.5 130q-32 -20 -73 -20q-30 0 -50.5 6t-46.5 18q-24 11 -43 16.5t-46 5.5q-36 0 -70 -22q3 -82 47.5 -132.5t116.5 -50.5t116.5 49z" />
    <glyph glyph-name="uni0474" unicode="&#x474;" horiz-adv-x="656" 
d="M253 0l-233 700h63l204 -631l179 552q15 47 40 70t63 23q23 0 41 -6t35 -18l-22 -51q-27 19 -48 19q-19 0 -32 -14.5t-23 -44.5l-200 -599h-67z" />
    <glyph glyph-name="uni0475" unicode="&#x475;" horiz-adv-x="503" 
d="M188 0l-176 496h59l146 -428l125 366q13 39 34 56.5t53 17.5q41 0 64 -21l-22 -46q-10 8 -18.5 11.5t-19.5 3.5q-25 0 -38 -36l-149 -420h-58z" />
    <glyph glyph-name="uni0490" unicode="&#x490;" horiz-adv-x="509" 
d="M139 0h-58v700h323v137h58v-191h-323v-646z" />
    <glyph glyph-name="uni0491" unicode="&#x491;" horiz-adv-x="398" 
d="M126 0h-54v496h242v129h54v-178h-242v-447z" />
    <glyph glyph-name="Wgrave" unicode="&#x1e80;" horiz-adv-x="801" 
d="M249 0h-70l-153 700h61l128 -617l154 578h64l153 -578l128 617h61l-153 -700h-70l-151 576zM426 785h-50l-98 143h75z" />
    <glyph glyph-name="wgrave" unicode="&#x1e81;" horiz-adv-x="637" 
d="M201 0h-60l-124 496h58l97 -417l118 417h57l119 -417l97 417h57l-124 -496h-59l-118 425zM344 581h-50l-98 143h75z" />
    <glyph glyph-name="Wacute" unicode="&#x1e82;" horiz-adv-x="801" 
d="M249 0h-70l-153 700h61l128 -617l154 578h64l153 -578l128 617h61l-153 -700h-70l-151 576zM426 785h-50l74 143h74z" />
    <glyph glyph-name="wacute" unicode="&#x1e83;" horiz-adv-x="637" 
d="M201 0h-60l-124 496h58l97 -417l118 417h57l119 -417l97 417h57l-124 -496h-59l-118 425zM344 581h-50l74 143h74z" />
    <glyph glyph-name="Wdieresis" unicode="&#x1e84;" horiz-adv-x="801" 
d="M249 0h-70l-153 700h61l128 -617l154 578h64l153 -578l128 617h61l-153 -700h-70l-151 576zM265.5 820.5q-14.5 14.5 -14.5 33.5q0 20 14.5 34t34.5 14t34 -14t14 -34t-14 -34t-34 -14t-34.5 14.5zM468 820.5q-14 14.5 -14 33.5q0 20 14 34t34 14t34.5 -14t14.5 -34
t-14.5 -34t-34.5 -14t-34 14.5z" />
    <glyph glyph-name="wdieresis" unicode="&#x1e85;" horiz-adv-x="637" 
d="M201 0h-60l-124 496h58l97 -417l118 417h57l119 -417l97 417h57l-124 -496h-59l-118 425zM183.5 616.5q-14.5 14.5 -14.5 33.5q0 20 14.5 34t34.5 14t34 -14t14 -34t-14 -34t-34 -14t-34.5 14.5zM386 616.5q-14 14.5 -14 33.5q0 20 14 34t34 14t34.5 -14t14.5 -34
t-14.5 -34t-34.5 -14t-34 14.5z" />
    <glyph glyph-name="uni1E9E" unicode="&#x1e9e;" horiz-adv-x="570" 
d="M195 10v63q48 -31 121 -31q69 0 107.5 41.5t38.5 116.5v19q0 76 -43.5 118.5t-123.5 42.5v48l135 218h-157q-134 0 -134 -144v-502h-58v502q0 94 48.5 146t133.5 52h239v-49l-145 -225q70 -12 116.5 -65.5t46.5 -142.5v-17q0 -98 -55 -155.5t-148 -57.5q-71 0 -122 22z
" />
    <glyph glyph-name="Ygrave" unicode="&#x1ef2;" horiz-adv-x="517" 
d="M287 0h-58v291l-212 409h65l176 -347l176 347h66l-213 -409v-291zM283 785h-50l-98 143h75z" />
    <glyph glyph-name="ygrave" unicode="&#x1ef3;" horiz-adv-x="455" 
d="M375 496h60l-217 -590q-24 -62 -57.5 -90t-87.5 -28q-30 0 -59 11v55q34 -16 62 -16q34 0 55 20.5t39 68.5l30 84l-182 485h61l149 -408zM252 581h-50l-98 143h75z" />
    <glyph glyph-name="endash" unicode="&#x2013;" horiz-adv-x="437" 
d="M407 287h-377v50h377v-50z" />
    <glyph glyph-name="emdash" unicode="&#x2014;" horiz-adv-x="605" 
d="M575 287h-545v50h545v-50z" />
    <glyph glyph-name="quoteleft" unicode="&#x2018;" horiz-adv-x="229" 
d="M67.5 499q-13.5 15 -13.5 38q0 25 10 46.5t32 53.5l47 71l20 -11l-37 -70q-14 -27 -17 -46q18 -3 30 -16.5t12 -31.5q0 -21 -14 -35t-34 -14q-22 0 -35.5 15z" />
    <glyph glyph-name="quoteright" unicode="&#x2019;" horiz-adv-x="229" 
d="M86 484l-20 11l37 70q14 27 17 46q-18 3 -30 16.5t-12 31.5q0 21 14 35t34 14q22 0 35.5 -14.5t13.5 -40.5q0 -22 -9.5 -42.5t-32.5 -55.5z" />
    <glyph glyph-name="quotesinglbase" unicode="&#x201a;" horiz-adv-x="229" 
d="M86 -126l-20 11l37 70q14 27 17 46q-18 3 -30 16.5t-12 31.5q0 21 14 35t34 14q22 0 35.5 -14.5t13.5 -40.5q0 -22 -9.5 -42.5t-32.5 -55.5z" />
    <glyph glyph-name="quotedblleft" unicode="&#x201c;" horiz-adv-x="391" 
d="M229.5 499q-13.5 15 -13.5 38q0 25 10 46.5t32 53.5l47 71l20 -11l-37 -70q-14 -27 -17 -46q18 -3 30 -16.5t12 -31.5q0 -21 -14 -35t-34 -14q-22 0 -35.5 15zM67.5 499q-13.5 15 -13.5 38q0 25 10 46.5t32 53.5l47 71l20 -11l-37 -70q-14 -27 -17 -46q18 -3 30 -16.5
t12 -31.5q0 -21 -14 -35t-34 -14q-22 0 -35.5 15z" />
    <glyph glyph-name="quotedblright" unicode="&#x201d;" horiz-adv-x="391" 
d="M248 484l-20 11l37 70q14 27 17 46q-18 3 -30 16.5t-12 31.5q0 21 14 35t34 14q22 0 35.5 -14.5t13.5 -40.5q0 -22 -9.5 -42.5t-32.5 -55.5zM86 484l-20 11l37 70q14 27 17 46q-18 3 -30 16.5t-12 31.5q0 21 14 35t34 14q22 0 35.5 -14.5t13.5 -40.5q0 -22 -9.5 -42.5
t-32.5 -55.5z" />
    <glyph glyph-name="quotedblbase" unicode="&#x201e;" horiz-adv-x="391" 
d="M86 -126l-20 11l37 70q14 27 17 46q-18 3 -30 16.5t-12 31.5q0 21 14 35t34 14q22 0 35.5 -14.5t13.5 -40.5q0 -22 -9.5 -42.5t-32.5 -55.5zM248 -126l-20 11l37 70q14 27 17 46q-18 3 -30 16.5t-12 31.5q0 21 14 35t34 14q22 0 35.5 -14.5t13.5 -40.5q0 -22 -9.5 -42.5
t-32.5 -55.5z" />
    <glyph glyph-name="dagger" unicode="&#x2020;" horiz-adv-x="323" 
d="M189 611h99v-50h-99v-271h-54v271h-100v50h100v109l54 30v-139z" />
    <glyph glyph-name="daggerdbl" unicode="&#x2021;" horiz-adv-x="323" 
d="M288 611v-50h-99v-82h99v-50h-99v-139h-54v139h-100v50h100v82h-100v50h100v109l54 30v-139h99z" />
    <glyph glyph-name="bullet" unicode="&#x2022;" horiz-adv-x="420" 
d="M145 240.5q-30 17.5 -47.5 47.5t-17.5 65t17.5 65t47.5 47.5t65 17.5t65 -17.5t47.5 -47.5t17.5 -65t-17.5 -65t-47.5 -47.5t-65 -17.5t-65 17.5z" />
    <glyph glyph-name="ellipsis" unicode="&#x2026;" horiz-adv-x="653" 
d="M292.5 4.5q-14.5 14.5 -14.5 33.5q0 21 14 35t34 14q21 0 35 -14t14 -35q0 -20 -14 -34t-35 -14q-19 0 -33.5 14.5zM492.5 4.5q-14.5 14.5 -14.5 33.5q0 21 14 35t34 14q21 0 35 -14t14 -35q0 -20 -14 -34t-35 -14q-19 0 -33.5 14.5zM92.5 4.5q-14.5 14.5 -14.5 33.5
q0 21 14 35t34 14q21 0 35 -14t14 -35q0 -20 -14 -34t-35 -14q-19 0 -33.5 14.5z" />
    <glyph glyph-name="perthousand" unicode="&#x2030;" horiz-adv-x="1116" 
d="M115.5 389.5q-34.5 21.5 -54 59t-19.5 85.5v12q0 48 19.5 85.5t54 59t78.5 21.5t78.5 -21.5t54 -59t19.5 -85.5v-12q0 -48 -19.5 -85.5t-54 -59t-78.5 -21.5t-78.5 21.5zM202 0h-58l412 700h58zM267 450q27 32 27 83v14q0 50 -27 82.5t-73 32.5q-45 0 -72.5 -32.5
t-27.5 -82.5v-14q0 -51 27.5 -83t72.5 -32q46 0 73 32zM484.5 9.5q-34.5 21.5 -54 59t-19.5 85.5v12q0 48 19.5 85.5t54 59t78.5 21.5t78.5 -21.5t54 -59t19.5 -85.5v-12q0 -48 -19.5 -85.5t-54 -59t-78.5 -21.5t-78.5 21.5zM843.5 9.5q-34.5 21.5 -54 59t-19.5 85.5v12
q0 48 19.5 85.5t54 59t78.5 21.5t78.5 -21.5t54 -59t19.5 -85.5v-12q0 -48 -19.5 -85.5t-54 -59t-78.5 -21.5t-78.5 21.5zM636 70q27 32 27 83v14q0 50 -27 82.5t-73 32.5t-73 -32.5t-27 -82.5v-14q0 -51 27 -83t73 -32t73 32zM994.5 70q27.5 32 27.5 83v14q0 50 -27.5 82.5
t-72.5 32.5q-46 0 -73 -32.5t-27 -82.5v-14q0 -51 27 -83t73 -32q45 0 72.5 32z" />
    <glyph glyph-name="guilsinglleft" unicode="&#x2039;" horiz-adv-x="229" 
d="M194 124h-56l-100 172l100 172h56l-99 -172z" />
    <glyph glyph-name="guilsinglright" unicode="&#x203a;" horiz-adv-x="229" 
d="M91 124h-56l99 172l-99 172h56l100 -172z" />
    <glyph glyph-name="fraction" unicode="&#x2044;" horiz-adv-x="314" 
d="M-20 0h-58l412 700h58z" />
    <glyph glyph-name="uni2070" unicode="&#x2070;" horiz-adv-x="307" 
d="M57.5 388.5q-36.5 45.5 -36.5 123.5v26q0 78 36.5 123.5t96.5 45.5t96 -46t36 -123v-26q0 -77 -36 -123t-96 -46t-96.5 45.5zM212 422q22 32 22 89v28q0 57 -22 89t-58 32q-37 0 -59 -32t-22 -89v-28q0 -57 22 -89t59 -32q36 0 58 32z" />
    <glyph glyph-name="uni2074" unicode="&#x2074;" horiz-adv-x="277" 
d="M215 350h-49v80h-151v46l151 224h49v-224h50v-46h-50v-80zM166 624l-101 -148h101v148z" />
    <glyph glyph-name="uni2075" unicode="&#x2075;" horiz-adv-x="283" 
d="M64 371q-32 27 -40 73l49 10q5 -29 24 -46t48 -17q30 0 48 19t18 50v8q0 32 -17.5 51.5t-49.5 19.5q-41 0 -66 -37l-45 15l16 183h200v-44h-158l-11 -100q28 26 72 26q51 0 81 -31t30 -84v-8q0 -49 -32.5 -82t-84.5 -33q-50 0 -82 27z" />
    <glyph glyph-name="uni2076" unicode="&#x2076;" horiz-adv-x="268" 
d="M53.5 375.5q-33.5 31.5 -33.5 86.5q0 33 10.5 57t33.5 59l80 122h55l-95 -138q13 10 36 10q47 0 77.5 -31t30.5 -81q0 -51 -33.5 -83.5t-81.5 -32.5q-46 0 -79.5 31.5zM181.5 406.5q19.5 19.5 19.5 52.5q0 32 -19.5 51.5t-48.5 19.5t-47.5 -19t-18.5 -52t19 -52.5
t47 -19.5q29 0 48.5 19.5z" />
    <glyph glyph-name="uni2077" unicode="&#x2077;" horiz-adv-x="242" 
d="M110 350h-50l118 306h-164v44h213v-44z" />
    <glyph glyph-name="uni2078" unicode="&#x2078;" horiz-adv-x="272" 
d="M54.5 372q-31.5 28 -31.5 75v2q0 32 16.5 54.5t39.5 32.5q-44 25 -44 75v2q0 39 28.5 65t72.5 26t72.5 -26t28.5 -65v-2q0 -26 -12 -45t-32 -30q24 -11 40 -33.5t16 -53.5v-2q0 -47 -32 -75t-81 -28q-50 0 -81.5 28zM175.5 567.5q15.5 14.5 15.5 38.5v3q0 24 -15.5 38.5
t-39.5 14.5t-39.5 -14.5t-15.5 -38.5v-3q0 -24 15.5 -38.5t39.5 -14.5t39.5 14.5zM183 404.5q18 16.5 18 44.5v2q0 28 -18 45t-47 17t-47 -17t-18 -45v-2q0 -28 18.5 -44.5t46.5 -16.5q29 0 47 16.5z" />
    <glyph glyph-name="uni2079" unicode="&#x2079;" horiz-adv-x="268" 
d="M164 488q-11 -10 -36 -10q-46 0 -77 31t-31 81v3q0 49 33 81t82 32q47 0 80 -31t33 -86v-1q0 -32 -10.5 -57.5t-33.5 -58.5l-80 -122h-54zM182.5 539q18.5 19 18.5 51v4q0 31 -19 50t-47 19t-48 -19t-20 -50v-4q0 -32 20 -51t48 -19q29 0 47.5 19z" />
    <glyph glyph-name="uni2080" unicode="&#x2080;" horiz-adv-x="307" 
d="M57.5 -71.5q-36.5 45.5 -36.5 123.5v26q0 78 36.5 123.5t96.5 45.5t96 -46t36 -123v-26q0 -77 -36 -123t-96 -46t-96.5 45.5zM212 -38q22 32 22 89v28q0 57 -22 89t-58 32q-37 0 -59 -32t-22 -89v-28q0 -57 22 -89t59 -32q36 0 58 32z" />
    <glyph glyph-name="uni2081" unicode="&#x2081;" horiz-adv-x="185" 
d="M147 -110h-51v296l-83 -55v54l83 55h51v-350z" />
    <glyph glyph-name="uni2082" unicode="&#x2082;" horiz-adv-x="269" 
d="M30 -110v45l114 117q24 24 34.5 44t10.5 46q0 28 -16 44t-42 16q-52 0 -65 -61l-46 10q6 44 35.5 69.5t75.5 25.5q51 0 80.5 -28t29.5 -72q0 -37 -14.5 -63.5t-46.5 -59.5l-86 -88h153v-45h-217z" />
    <glyph glyph-name="uni2083" unicode="&#x2083;" horiz-adv-x="279" 
d="M56.5 -89q-31.5 27 -37.5 75l47 9q5 -31 23.5 -48t48.5 -17q31 0 48 19t17 51q0 37 -23 53.5t-67 16.5v39l73 88h-155v43h211v-43l-78 -91q43 -7 67 -34t24 -72q0 -52 -32 -84t-84 -32q-51 0 -82.5 27z" />
    <glyph glyph-name="uni2084" unicode="&#x2084;" horiz-adv-x="277" 
d="M215 -110h-49v80h-151v46l151 224h49v-224h50v-46h-50v-80zM166 164l-101 -148h101v148z" />
    <glyph glyph-name="uni2085" unicode="&#x2085;" horiz-adv-x="283" 
d="M64 -89q-32 27 -40 73l49 10q5 -29 24 -46t48 -17q30 0 48 19t18 50v8q0 32 -17.5 51.5t-49.5 19.5q-41 0 -66 -37l-45 15l16 183h200v-44h-158l-11 -100q28 26 72 26q51 0 81 -31t30 -84v-8q0 -49 -32.5 -82t-84.5 -33q-50 0 -82 27z" />
    <glyph glyph-name="uni2086" unicode="&#x2086;" horiz-adv-x="268" 
d="M53.5 -84.5q-33.5 31.5 -33.5 86.5q0 33 10.5 57t33.5 59l80 122h55l-95 -138q13 10 36 10q47 0 77.5 -31t30.5 -81q0 -51 -33.5 -83.5t-81.5 -32.5q-46 0 -79.5 31.5zM181.5 -53.5q19.5 19.5 19.5 52.5q0 32 -19.5 51.5t-48.5 19.5t-47.5 -19t-18.5 -52t19 -52.5
t47 -19.5q29 0 48.5 19.5z" />
    <glyph glyph-name="uni2087" unicode="&#x2087;" horiz-adv-x="242" 
d="M110 -110h-50l118 306h-164v44h213v-44z" />
    <glyph glyph-name="uni2088" unicode="&#x2088;" horiz-adv-x="272" 
d="M54.5 -88q-31.5 28 -31.5 75v2q0 32 16.5 54.5t39.5 32.5q-44 25 -44 75v2q0 39 28.5 65t72.5 26t72.5 -26t28.5 -65v-2q0 -26 -12 -45t-32 -30q24 -11 40 -33.5t16 -53.5v-2q0 -47 -32 -75t-81 -28q-50 0 -81.5 28zM175.5 107.5q15.5 14.5 15.5 38.5v3q0 24 -15.5 38.5
t-39.5 14.5t-39.5 -14.5t-15.5 -38.5v-3q0 -24 15.5 -38.5t39.5 -14.5t39.5 14.5zM183 -55.5q18 16.5 18 44.5v2q0 28 -18 45t-47 17t-47 -17t-18 -45v-2q0 -28 18.5 -44.5t46.5 -16.5q29 0 47 16.5z" />
    <glyph glyph-name="uni2089" unicode="&#x2089;" horiz-adv-x="268" 
d="M164 28q-11 -10 -36 -10q-46 0 -77 31t-31 81v3q0 49 33 81t82 32q47 0 80 -31t33 -86v-1q0 -32 -10.5 -57.5t-33.5 -58.5l-80 -122h-54zM182.5 79q18.5 19 18.5 51v4q0 31 -19 50t-47 19t-48 -19t-20 -50v-4q0 -32 20 -51t48 -19q29 0 47.5 19z" />
    <glyph glyph-name="Euro" unicode="&#x20ac;" horiz-adv-x="653" 
d="M608 130q-34 -67 -91 -105.5t-135 -38.5q-112 0 -188 71.5t-95 191.5h-79l11 47h63q-1 9 -1 27v54q0 18 1 27h-74l11 47h68q19 120 95 191.5t188 71.5q78 0 136 -35t89 -97l-46 -27q-27 50 -72 78t-107 28q-88 0 -147.5 -57t-77.5 -153h284l-11 -47h-278q-1 -8 -1 -24
v-60q0 -16 1 -24h255l-11 -47h-239q18 -95 77.5 -152.5t147.5 -57.5q63 0 107.5 31.5t71.5 85.5z" />
    <glyph glyph-name="uni20B4" unicode="&#x20b4;" horiz-adv-x="549" 
d="M521 451v-47h-493v47h352q44 36 44 91v2q0 52 -40.5 83t-103.5 31q-53 0 -94.5 -29t-62.5 -84l-49 25q25 69 77.5 105.5t128.5 36.5q54 0 100.5 -21t74 -59t27.5 -87v-3q0 -55 -33 -91h72zM28 249v47h493v-47h-385q-16 -28 -16 -66v-3q0 -62 42.5 -101t110.5 -39
t111.5 37t67.5 109l52 -25q-24 -79 -82 -127t-149 -48q-60 0 -108.5 24t-76 68.5t-27.5 102.5v4q0 33 13 64h-46z" />
    <glyph glyph-name="uni20BA" unicode="&#x20ba;" horiz-adv-x="541" 
d="M495 280q0 -125 -63.5 -202.5t-215.5 -77.5h-104v161l-82 -62v64l82 62v106l-82 -62v64l82 62v305h59v-260l148 113v-64l-148 -113v-106l148 113v-64l-148 -113v-152h48q115 0 166.5 61t51.5 165h58z" />
    <glyph glyph-name="uni20BD" unicode="&#x20bd;" horiz-adv-x="572" 
d="M173 333v-129h228v-48h-228v-156h-58v156h-87v48h87v496h213q87 0 139.5 -49.5t52.5 -134.5t-52.5 -134t-139.5 -49h-155zM173 646v-259h148q67 0 104 32.5t37 96.5q0 65 -37 97.5t-104 32.5h-148z" />
    <glyph glyph-name="uni2113" unicode="&#x2113;" horiz-adv-x="465" 
d="M345 119l45 -29q-28 -49 -65.5 -76.5t-91.5 -27.5t-90.5 43t-44.5 122l-60 -27l-17 47q45 18 75 34q1 136 33 253t85.5 186.5t115.5 69.5q48 0 73.5 -31.5t25.5 -89.5q0 -114 -67 -222.5t-209 -190.5q3 -68 25.5 -104t60.5 -36q65 0 106 79zM245.5 600.5
q-38.5 -59.5 -63 -156.5t-28.5 -206q114 74 166.5 169t52.5 188q0 65 -45 65q-44 0 -82.5 -59.5z" />
    <glyph glyph-name="uni2116" unicode="&#x2116;" horiz-adv-x="1042" 
d="M708 278.5q-43 24.5 -68 73t-25 117.5v30q0 69 25 117.5t68 73t97 24.5t97 -24.5t68.5 -73t25.5 -117.5v-30q0 -69 -25.5 -117.5t-68.5 -73t-97 -24.5t-97 24.5zM138 0h-57v700h67l313 -573v573h57v-700h-52l-328 597v-597zM902.5 346.5q37.5 40.5 37.5 121.5v32
q0 81 -37.5 121.5t-97.5 40.5t-97 -40.5t-37 -121.5v-32q0 -81 37 -121.5t97 -40.5t97.5 40.5zM989 145h-368v52h368v-52z" />
    <glyph glyph-name="trademark" unicode="&#x2122;" horiz-adv-x="484" 
d="M123 420h-39v243h-76v37h191v-37h-76v-243zM268 420h-39v280h43l73 -182l74 182h42v-280h-38v199l-59 -143h-37l-59 143v-199z" />
    <glyph glyph-name="uni2126" unicode="&#x2126;" horiz-adv-x="652" 
d="M89 0v54h132v31q-74 41 -121.5 117.5t-47.5 189.5v35q0 80 32.5 145t95 103.5t147.5 38.5t146.5 -38.5t94 -103.5t32.5 -145v-35q0 -113 -47.5 -189.5t-121.5 -117.5v-31h132v-54h-190v110q83 43 126 109t43 171v38q0 63 -25 116.5t-74 85.5t-117 32t-117 -32t-74 -85
t-25 -117v-38q0 -105 43 -171t127 -109v-110h-191z" />
    <glyph glyph-name="estimated" unicode="&#x212e;" horiz-adv-x="820" 
d="M214 113q39 -35 89 -54t107 -19q89 0 159 45t106 120h65q-40 -99 -127.5 -159t-202.5 -60q-102 0 -184 48.5t-128 132t-46 183.5t46 183.5t128 132t184 48.5t184 -48.5t128 -132t46 -183.5h-554v-237zM605 588q-39 34 -88.5 53t-106.5 19t-107 -19t-89 -54v-189h391v190z
" />
    <glyph glyph-name="partialdiff" unicode="&#x2202;" horiz-adv-x="514" 
d="M392 435q39 -58 57.5 -104.5t18.5 -107.5v-6q0 -72 -29.5 -124t-77.5 -78.5t-103 -26.5q-58 0 -106.5 28.5t-77 80t-28.5 116.5v8q0 66 26 116t72.5 77t105.5 27q47 0 84 -16l-183 275h66zM410 225q0 40 -7 69.5t-24 59.5q-55 38 -119 38q-43 0 -78.5 -21t-56.5 -59
t-21 -89v-12q0 -50 21 -88.5t56 -59.5t77 -21t76.5 21t55 59t20.5 89v14z" />
    <glyph glyph-name="uni2206" unicode="&#x2206;" horiz-adv-x="584" 
d="M545 0h-507v54l218 646h70l219 -646v-54zM292 632l-191 -578h382z" />
    <glyph glyph-name="product" unicode="&#x220f;" horiz-adv-x="669" 
d="M202 -204h-58v850h-114v54h609v-54h-115v-850h-58v850h-264v-850z" />
    <glyph glyph-name="summation" unicode="&#x2211;" horiz-adv-x="474" 
d="M435 -128h-387v54l205 360l-205 360v54h377v-54h-315l205 -360l-205 -360h325v-54z" />
    <glyph glyph-name="minus" unicode="&#x2212;" horiz-adv-x="432" 
d="M404 285h-376v54h376v-54z" />
    <glyph glyph-name="uni2215" unicode="&#x2215;" horiz-adv-x="432" 
d="M136 0h-54l214 700h54z" />
    <glyph glyph-name="uni2219" unicode="&#x2219;" horiz-adv-x="432" 
d="M151 202.5q-30 17.5 -47.5 47.5t-17.5 65t17.5 65t47.5 47.5t65 17.5t65 -17.5t47.5 -47.5t17.5 -65t-17.5 -65t-47.5 -47.5t-65 -17.5t-65 17.5z" />
    <glyph glyph-name="radical" unicode="&#x221a;" horiz-adv-x="556" 
d="M303 0h-68l-106 320h-104v50h149l95 -301l205 631h62z" />
    <glyph glyph-name="infinity" unicode="&#x221e;" horiz-adv-x="789" 
d="M673 449q39 -21 61 -60t22 -89t-22 -89t-61 -60t-86 -21q-59 0 -105 30.5t-87 88.5q-41 -58 -87.5 -88.5t-105.5 -30.5q-47 0 -86 21t-61 60t-22 89t22 89t61 60t86 21q59 0 105.5 -30.5t87.5 -88.5q41 58 87 88.5t105 30.5q47 0 86 -21zM288.5 210.5
q36.5 28.5 74.5 89.5q-38 61 -74.5 89.5t-87.5 28.5q-49 0 -80.5 -31.5t-31.5 -86.5t31.5 -86.5t80.5 -31.5q51 0 87.5 28.5zM668.5 213.5q31.5 31.5 31.5 86.5t-31.5 86.5t-80.5 31.5q-51 0 -87.5 -28.5t-74.5 -89.5q38 -61 74.5 -89.5t87.5 -28.5q49 0 80.5 31.5z" />
    <glyph glyph-name="integral" unicode="&#x222b;" horiz-adv-x="329" 
d="M-121 -206l9 54q30 -16 62 -16t53 20t27 55l119 675q12 64 51 97t99 33q36 0 68 -12l-9 -54q-32 16 -64 16q-36 0 -59.5 -20.5t-30.5 -58.5l-120 -675q-11 -62 -47.5 -94t-91.5 -32q-34 0 -66 12z" />
    <glyph glyph-name="approxequal" unicode="&#x2248;" horiz-adv-x="432" 
d="M30 354q10 48 35.5 73t64.5 25q23 0 44.5 -8t51.5 -23q48 -26 73 -26q44 0 57 59l46 -14q-10 -48 -36 -73t-67 -25q-23 0 -44 8t-52 23q-25 13 -42 19.5t-32 6.5q-43 0 -53 -59zM30 184q10 48 35.5 73t64.5 25q23 0 44.5 -8t51.5 -23q48 -26 73 -26q44 0 57 59l46 -14
q-10 -48 -36 -73t-67 -25q-23 0 -44 8t-52 23q-25 13 -42 19.5t-32 6.5q-43 0 -53 -59z" />
    <glyph glyph-name="notequal" unicode="&#x2260;" horiz-adv-x="432" 
d="M404 436v-54h-116l-81 -140h197v-54h-228l-80 -139l-48 27l65 112h-85v54h116l81 140h-197v54h228l80 139l48 -27l-65 -112h85z" />
    <glyph glyph-name="lessequal" unicode="&#x2264;" horiz-adv-x="432" 
d="M404 188v-57l-376 160v68l376 160v-57l-329 -137zM404 0h-376v54h376v-54z" />
    <glyph glyph-name="greaterequal" unicode="&#x2265;" horiz-adv-x="432" 
d="M404 291l-376 -160v57l329 137l-329 137v57l376 -160v-68zM404 0h-376v54h376v-54z" />
    <glyph glyph-name="lozenge" unicode="&#x25ca;" horiz-adv-x="500" 
d="M214 700h70l196 -350l-196 -350h-70l-194 350zM83 350l167 -303l167 303l-167 303z" />
    <glyph glyph-name="fi" unicode="&#xfb01;" horiz-adv-x="527" 
d="M184 641.5q-20 -20.5 -20 -58.5v-87h143v-50h-143v-446h-54v446h-90v50h90v86q0 61 34.5 95.5t91.5 34.5q35 0 71 -12v-54q-35 16 -67 16q-36 0 -56 -20.5zM393.5 616.5q-14.5 14.5 -14.5 33.5q0 20 14.5 34t34.5 14t34 -14t14 -34t-14 -34t-34 -14t-34.5 14.5zM455 0
h-54v496h54v-496z" />
    <glyph glyph-name="fl" unicode="&#xfb02;" horiz-adv-x="564" 
d="M184 641.5q-20 -20.5 -20 -58.5v-87h143v-50h-143v-446h-54v446h-90v50h90v86q0 61 34.5 95.5t91.5 34.5q35 0 71 -12v-54q-35 16 -67 16q-36 0 -56 -20.5zM425.5 18.5q-24.5 30.5 -24.5 82.5v599h54v-600q0 -29 12 -45.5t35 -16.5q19 0 45 12v-51q-22 -11 -53 -11
q-44 0 -68.5 30.5z" />
    <glyph glyph-name="NULL" horiz-adv-x="600" 
 />
    <glyph glyph-name="i.loclTRK" 
d="M126 0h-54v496h54v-496zM65 616.5q-14 14.5 -14 33.5q0 20 14 34t34 14t34 -14t14 -34t-14 -34t-34 -14t-34 14.5z" />
    <glyph glyph-name="a.ss01" horiz-adv-x="534" 
d="M145 18q-46 30 -72.5 85.5t-26.5 129.5v30q0 74 27 129.5t73.5 85.5t105.5 30q55 0 95.5 -22.5t60.5 -58.5v69h54v-496h-54v76q-47 -88 -159 -88q-58 0 -104 30zM368 92q43 52 43 140v32q0 88 -43 140t-111 52q-45 0 -80 -23.5t-55 -67t-20 -101.5v-32q0 -58 20 -101.5
t55 -67t80 -23.5q68 0 111 52z" />
    <glyph glyph-name="aacute.ss01" horiz-adv-x="534" 
d="M145 18q-46 30 -72.5 85.5t-26.5 129.5v30q0 74 27 129.5t73.5 85.5t105.5 30q55 0 95.5 -22.5t60.5 -58.5v69h54v-496h-54v76q-47 -88 -159 -88q-58 0 -104 30zM368 92q43 52 43 140v32q0 88 -43 140t-111 52q-45 0 -80 -23.5t-55 -67t-20 -101.5v-32q0 -58 20 -101.5
t55 -67t80 -23.5q68 0 111 52zM286 581h-50l74 143h74z" />
    <glyph glyph-name="abreve.ss01" horiz-adv-x="534" 
d="M145 18q-46 30 -72.5 85.5t-26.5 129.5v30q0 74 27 129.5t73.5 85.5t105.5 30q55 0 95.5 -22.5t60.5 -58.5v69h54v-496h-54v76q-47 -88 -159 -88q-58 0 -104 30zM368 92q43 52 43 140v32q0 88 -43 140t-111 52q-45 0 -80 -23.5t-55 -67t-20 -101.5v-32q0 -58 20 -101.5
t55 -67t80 -23.5q68 0 111 52zM188.5 604.5q-26.5 30.5 -26.5 73.5h52q0 -26 12 -41t35 -15t35.5 15t12.5 41h52q0 -43 -26.5 -73.5t-73.5 -30.5q-46 0 -72.5 30.5z" />
    <glyph glyph-name="acircumflex.ss01" horiz-adv-x="534" 
d="M145 18q-46 30 -72.5 85.5t-26.5 129.5v30q0 74 27 129.5t73.5 85.5t105.5 30q55 0 95.5 -22.5t60.5 -58.5v69h54v-496h-54v76q-47 -88 -159 -88q-58 0 -104 30zM368 92q43 52 43 140v32q0 88 -43 140t-111 52q-45 0 -80 -23.5t-55 -67t-20 -101.5v-32q0 -58 20 -101.5
t55 -67t80 -23.5q68 0 111 52zM191 581h-51l91 143h60l91 -143h-51l-70 85z" />
    <glyph glyph-name="adieresis.ss01" horiz-adv-x="534" 
d="M145 18q-46 30 -72.5 85.5t-26.5 129.5v30q0 74 27 129.5t73.5 85.5t105.5 30q55 0 95.5 -22.5t60.5 -58.5v69h54v-496h-54v76q-47 -88 -159 -88q-58 0 -104 30zM368 92q43 52 43 140v32q0 88 -43 140t-111 52q-45 0 -80 -23.5t-55 -67t-20 -101.5v-32q0 -58 20 -101.5
t55 -67t80 -23.5q68 0 111 52zM125.5 616.5q-14.5 14.5 -14.5 33.5q0 20 14.5 34t34.5 14t34 -14t14 -34t-14 -34t-34 -14t-34.5 14.5zM328 616.5q-14 14.5 -14 33.5q0 20 14 34t34 14t34.5 -14t14.5 -34t-14.5 -34t-34.5 -14t-34 14.5z" />
    <glyph glyph-name="agrave.ss01" horiz-adv-x="534" 
d="M145 18q-46 30 -72.5 85.5t-26.5 129.5v30q0 74 27 129.5t73.5 85.5t105.5 30q55 0 95.5 -22.5t60.5 -58.5v69h54v-496h-54v76q-47 -88 -159 -88q-58 0 -104 30zM368 92q43 52 43 140v32q0 88 -43 140t-111 52q-45 0 -80 -23.5t-55 -67t-20 -101.5v-32q0 -58 20 -101.5
t55 -67t80 -23.5q68 0 111 52zM286 581h-50l-98 143h75z" />
    <glyph glyph-name="amacron.ss01" horiz-adv-x="534" 
d="M145 18q-46 30 -72.5 85.5t-26.5 129.5v30q0 74 27 129.5t73.5 85.5t105.5 30q55 0 95.5 -22.5t60.5 -58.5v69h54v-496h-54v76q-47 -88 -159 -88q-58 0 -104 30zM368 92q43 52 43 140v32q0 88 -43 140t-111 52q-45 0 -80 -23.5t-55 -67t-20 -101.5v-32q0 -58 20 -101.5
t55 -67t80 -23.5q68 0 111 52zM371 626h-220v50h220v-50z" />
    <glyph glyph-name="aogonek.ss01" horiz-adv-x="534" 
d="M476 -136v-52q-22 -10 -50 -10q-38 0 -62.5 23t-24.5 67q0 40 20 70.5t49 48.5v65q-47 -88 -159 -88q-58 0 -104 30t-72.5 85.5t-26.5 129.5v30q0 74 27 129.5t73.5 85.5t105.5 30q55 0 95.5 -22.5t60.5 -58.5v69h54v-496q-31 -18 -49.5 -44t-18.5 -56q0 -21 11.5 -33.5
t31.5 -12.5q19 0 39 10zM368 92q43 52 43 140v32q0 88 -43 140t-111 52q-45 0 -80 -23.5t-55 -67t-20 -101.5v-32q0 -58 20 -101.5t55 -67t80 -23.5q68 0 111 52z" />
    <glyph glyph-name="aring.ss01" horiz-adv-x="534" 
d="M145 18q-46 30 -72.5 85.5t-26.5 129.5v30q0 74 27 129.5t73.5 85.5t105.5 30q55 0 95.5 -22.5t60.5 -58.5v69h54v-496h-54v76q-47 -88 -159 -88q-58 0 -104 30zM368 92q43 52 43 140v32q0 88 -43 140t-111 52q-45 0 -80 -23.5t-55 -67t-20 -101.5v-32q0 -58 20 -101.5
t55 -67t80 -23.5q68 0 111 52zM195 591q-26 28 -26 70v2q0 42 26 70t66 28q39 0 65 -28t26 -70v-2q0 -42 -25.5 -70t-65.5 -28t-66 28zM293.5 622q12.5 15 12.5 38v4q0 23 -12.5 38t-32.5 15t-32.5 -15t-12.5 -38v-4q0 -23 12.5 -38t32.5 -15t32.5 15z" />
    <glyph glyph-name="atilde.ss01" horiz-adv-x="534" 
d="M145 18q-46 30 -72.5 85.5t-26.5 129.5v30q0 74 27 129.5t73.5 85.5t105.5 30q55 0 95.5 -22.5t60.5 -58.5v69h54v-496h-54v76q-47 -88 -159 -88q-58 0 -104 30zM368 92q43 52 43 140v32q0 88 -43 140t-111 52q-45 0 -80 -23.5t-55 -67t-20 -101.5v-32q0 -58 20 -101.5
t55 -67t80 -23.5q68 0 111 52zM126 630q8 32 28 50t50 18q21 0 35.5 -6t31.5 -17q14 -9 22.5 -13t19.5 -4q17 0 28 10t18 30l38 -16q-9 -32 -29 -50t-50 -18q-21 0 -36 6t-32 17q-13 9 -22.5 13t-19.5 4q-32 0 -44 -39z" />
    <glyph glyph-name="ae.ss01" horiz-adv-x="874" 
d="M828 241h-366v-8q0 -57 20.5 -100.5t56.5 -68t82 -24.5q102 0 145 103l49 -20q-26 -65 -74.5 -100t-119.5 -35q-49 0 -90 22t-69 62v-72h-54v76q-47 -88 -159 -88q-58 0 -104 30t-72.5 85.5t-26.5 129.5v30q0 74 27 129.5t73.5 85.5t105.5 30q55 0 95.5 -22.5t60.5 -58.5
v69h54v-71q28 40 69 61.5t91 21.5q57 0 104 -27.5t74.5 -81t27.5 -126.5v-32zM411 264q0 88 -43 140t-111 52q-45 0 -80 -23.5t-55 -67t-20 -101.5v-32q0 -58 20 -101.5t55 -67t80 -23.5q68 0 111 52t43 140v32zM511.5 410q-42.5 -46 -48.5 -122h310q-5 79 -47 123.5
t-104 44.5q-68 0 -110.5 -46z" />
    <glyph glyph-name="aeacute.ss01" horiz-adv-x="874" 
d="M828 241h-366v-8q0 -57 20.5 -100.5t56.5 -68t82 -24.5q102 0 145 103l49 -20q-26 -65 -74.5 -100t-119.5 -35q-49 0 -90 22t-69 62v-72h-54v76q-47 -88 -159 -88q-58 0 -104 30t-72.5 85.5t-26.5 129.5v30q0 74 27 129.5t73.5 85.5t105.5 30q55 0 95.5 -22.5t60.5 -58.5
v69h54v-71q28 40 69 61.5t91 21.5q57 0 104 -27.5t74.5 -81t27.5 -126.5v-32zM411 264q0 88 -43 140t-111 52q-45 0 -80 -23.5t-55 -67t-20 -101.5v-32q0 -58 20 -101.5t55 -67t80 -23.5q68 0 111 52t43 140v32zM511.5 410q-42.5 -46 -48.5 -122h310q-5 79 -47 123.5
t-104 44.5q-68 0 -110.5 -46zM461 581h-50l74 143h74z" />
    <glyph glyph-name="l.ss02" 
d="M126 0h-54v700h54v-700z" />
    <glyph glyph-name="lacute.ss02" 
d="M126 0h-54v700h54v-700zM124 785h-50l74 143h74z" />
    <glyph glyph-name="lcaron.ss02" horiz-adv-x="303" 
d="M126 0h-54v700h54v-700zM228 501l-20 11l23 53q2 6 8.5 21t8.5 25q-18 3 -30 16.5t-12 31.5q0 21 14 35t34 14q22 0 35.5 -14.5t13.5 -40.5q0 -21 -8.5 -38.5t-33.5 -59.5z" />
    <glyph glyph-name="uni013C.ss02" 
d="M126 0h-54v700h54v-700zM81 -229l-17 13l16 21q16 22 16 43q-17 0 -29 11t-12 29q0 20 12 33t31 13q20 0 33 -13.5t13 -34.5q0 -45 -44 -94z" />
    <glyph glyph-name="ldot.ss02" horiz-adv-x="358" 
d="M126 0h-54v700h54v-700zM243.5 316.5q-14.5 14.5 -14.5 33.5q0 21 14 35t34 14q21 0 35 -14t14 -35q0 -20 -14 -34t-35 -14q-19 0 -33.5 14.5z" />
    <glyph glyph-name="lslash.ss02" 
d="M126 361l73 61v-61l-73 -61v-300h-54v254l-74 -62v61l74 62v385h54v-339z" />
    <glyph glyph-name="f_l.ss02" horiz-adv-x="527" 
d="M184 641.5q-20 -20.5 -20 -58.5v-87h143v-50h-143v-446h-54v446h-90v50h90v86q0 61 34.5 95.5t91.5 34.5q35 0 71 -12v-54q-35 16 -67 16q-36 0 -56 -20.5zM455 0h-54v700h54v-700z" />
    <glyph glyph-name="fl.ss02" horiz-adv-x="527" 
d="M184 641.5q-20 -20.5 -20 -58.5v-87h143v-50h-143v-446h-54v446h-90v50h90v86q0 61 34.5 95.5t91.5 34.5q35 0 71 -12v-54q-35 16 -67 16q-36 0 -56 -20.5zM455 0h-54v700h54v-700z" />
    <glyph glyph-name="ordfeminine.ss01" horiz-adv-x="351" 
d="M65.5 417.5q-37.5 43.5 -37.5 115.5v15q0 72 38 115.5t97 43.5q33 0 57.5 -13t37.5 -34v39h49v-317h-49v44q-30 -52 -97 -52q-58 0 -95.5 43.5zM235.5 450.5q25.5 30.5 25.5 82.5v16q0 51 -25.5 81.5t-65.5 30.5t-66 -30.5t-26 -81.5v-16q0 -52 26 -82.5t66 -30.5
t65.5 30.5z" />
    <glyph glyph-name="uni0414.loclBGR" horiz-adv-x="661" 
d="M367 700l212 -646h57v-196h-58v142h-490v-142h-58v196h57l210 646h70zM333 632l-184 -578h368z" />
    <glyph glyph-name="uni041B.loclBGR" horiz-adv-x="574" 
d="M83 0h-63l233 700h67l234 -700h-63l-204 631z" />
    <glyph glyph-name="uni0432.loclBGR" horiz-adv-x="449" 
d="M105.5 35.5q-41.5 49.5 -41.5 132.5v388q0 45 21 81t58 56.5t84 20.5q72 0 115 -45.5t43 -119.5v-29q0 -53 -24.5 -89.5t-65.5 -54.5q45 -15 72.5 -55.5t27.5 -97.5v-53q0 -50 -20 -92t-58 -67t-87 -25q-83 0 -124.5 49.5zM223 395q49 0 78.5 30t29.5 88v32q0 60 -29 90
t-77 30t-77.5 -28.5t-29.5 -82.5v-159h105zM312.5 73q27.5 37 27.5 98v56q0 55 -30 87.5t-80 32.5h-112v-180q0 -56 29 -93.5t83 -37.5q55 0 82.5 37z" />
    <glyph glyph-name="uni0433.loclBGR" horiz-adv-x="436" 
d="M99 25q-47 39 -47 101v1q0 62 36 96.5t113 54.5q64 16 89.5 39t25.5 62q0 36 -28 57.5t-72 21.5q-36 0 -64.5 -20t-44.5 -58l-45 23q17 48 57.5 75.5t96.5 27.5q64 0 108 -35t44 -94q0 -58 -34.5 -92.5t-113.5 -54.5q-63 -16 -88.5 -39t-25.5 -64v-1q0 -41 30.5 -65.5
t78.5 -24.5q90 0 120 98l50 -24q-18 -55 -61.5 -89.5t-108.5 -34.5q-69 0 -116 39z" />
    <glyph glyph-name="uni0434.loclBGR" horiz-adv-x="535" 
d="M133.5 -180.5q-51.5 35.5 -73.5 93.5l50 27q19 -49 56.5 -77t92.5 -28q71 0 110 48.5t39 127.5v86q-22 -40 -62.5 -65t-97.5 -25q-58 0 -104 29t-72 83.5t-26 126.5v24q0 73 27 126.5t74 82.5t104 29q55 0 95 -23t62 -62v73h55v-488q0 -100 -54 -162t-150 -62
q-74 0 -125.5 35.5zM337 83q35 23 55 65t20 98v24q0 56 -20 98t-55 65t-80 23q-69 0 -112 -51t-43 -135v-24q0 -84 43 -135t112 -51q45 0 80 23z" />
    <glyph glyph-name="uni0436.loclBGR" horiz-adv-x="648" 
d="M101 0h-67l193 248l-193 248h67l173 -224h23v428h54v-428h23l173 224h67l-193 -248l193 -248h-67l-173 224h-23v-224h-54v224h-23z" />
    <glyph glyph-name="uni0437.loclBGR" horiz-adv-x="470" 
d="M103.5 -172q-51.5 46 -64.5 131l53 9q11 -69 46 -102.5t100 -33.5t101 42.5t36 119.5v7q0 73 -39.5 109.5t-104.5 36.5h-36v48h36q58 0 92.5 37t34.5 101q0 61 -33.5 94t-94.5 33q-51 0 -87 -30.5t-47 -87.5l-46 11q11 70 60 112.5t120 42.5q86 0 133 -48t47 -127
q0 -115 -96 -159q54 -20 84.5 -62t30.5 -109v-9q0 -61 -24.5 -109t-68 -75.5t-98.5 -27.5q-83 0 -134.5 46z" />
    <glyph glyph-name="uni0438.loclBGR" horiz-adv-x="502" 
d="M117 37q-45 49 -45 129v330h54v-322q0 -63 34.5 -99.5t90.5 -36.5q57 0 91 37.5t34 99.5v321h54v-496h-54v62q-16 -32 -52 -53t-85 -21q-77 0 -122 49z" />
    <glyph glyph-name="uni0439.loclBGR" horiz-adv-x="502" 
d="M117 37q-45 49 -45 129v330h54v-322q0 -63 34.5 -99.5t90.5 -36.5q57 0 91 37.5t34 99.5v321h54v-496h-54v62q-16 -32 -52 -53t-85 -21q-77 0 -122 49zM171 609q-29 35 -29 83h52q0 -33 14.5 -51.5t42.5 -18.5t43 18.5t15 51.5h52q0 -48 -29 -83t-81 -35q-51 0 -80 35z
" />
    <glyph glyph-name="uni043A.loclBGR" horiz-adv-x="423" 
d="M322 496h67l-193 -248l193 -248h-67l-173 224h-23v-224h-54v700h54v-428h23z" />
    <glyph glyph-name="uni043B.loclBGR" horiz-adv-x="434" 
d="M71 0h-59l176 496h58l176 -496h-59l-146 428z" />
    <glyph glyph-name="uni043F.loclBGR" horiz-adv-x="502" 
d="M72 0v496h54v-62q16 32 52 53t85 21q77 0 122 -48.5t45 -128.5v-331h-54v322q0 63 -34.5 99.5t-90.5 36.5q-57 0 -91 -37.5t-34 -99.5v-321h-54z" />
    <glyph glyph-name="uni0442.loclBGR" horiz-adv-x="724" 
d="M72 0v496h54v-56q12 28 44.5 48t75.5 20q44 0 76.5 -21.5t47.5 -55.5q19 35 54.5 56t81.5 21q69 0 107.5 -44t38.5 -115v-349h-55v342q0 54 -28.5 85t-75.5 31t-75.5 -32.5t-28.5 -84.5v-341h-55v342q0 54 -28.5 85t-75.5 31t-75.5 -32.5t-28.5 -84.5v-341h-54z" />
    <glyph glyph-name="uni0446.loclBGR" horiz-adv-x="527" 
d="M444 -122v122h-68v62q-16 -32 -52 -53t-85 -21q-77 0 -122 49t-45 129v330h54v-322q0 -63 34.5 -99.5t90.5 -36.5q57 0 91 37.5t34 99.5v321h54v-447h72v-171h-58z" />
    <glyph glyph-name="uni0448.loclBGR" horiz-adv-x="724" 
d="M110.5 32q-38.5 44 -38.5 115v349h55v-342q0 -54 28.5 -85t75.5 -31t75.5 32.5t28.5 84.5v341h55v-342q0 -54 28.5 -85t75.5 -31t75.5 32.5t28.5 84.5v341h54v-496h-54v56q-12 -28 -44.5 -48t-75.5 -20q-44 0 -76.5 21.5t-47.5 55.5q-19 -35 -54.5 -56t-81.5 -21
q-69 0 -107.5 44z" />
    <glyph glyph-name="uni0449.loclBGR" horiz-adv-x="749" 
d="M666 -122v122h-68v56q-12 -28 -44.5 -48t-75.5 -20q-44 0 -76.5 21.5t-47.5 55.5q-19 -35 -54.5 -56t-81.5 -21q-69 0 -107.5 44t-38.5 115v349h55v-342q0 -54 28.5 -85t75.5 -31t75.5 32.5t28.5 84.5v341h55v-342q0 -54 28.5 -85t75.5 -31t75.5 32.5t28.5 84.5v341h54
v-447h72v-171h-58z" />
    <glyph glyph-name="uni044C.loclBGR" horiz-adv-x="464" 
d="M116 35.5q-44 49.5 -44 143.5v317h54v-211q16 17 51 32t77 15q68 0 112 -46.5t44 -123.5v-3q0 -80 -45 -126.5t-118 -46.5q-87 0 -131 49.5zM324.5 67.5q30.5 31.5 30.5 89.5v6q0 59 -30 90t-86 31q-35 0 -65.5 -13.5t-47.5 -33.5v-69q0 -64 31 -98t85 -34
q52 0 82.5 31.5z" />
    <glyph glyph-name="uni044A.loclBGR" horiz-adv-x="540" 
d="M192 35.5q-44 49.5 -44 143.5v269h-128v48h182v-211q16 17 51 32t77 15q68 0 112 -46.5t44 -123.5v-3q0 -80 -45 -126.5t-118 -46.5q-87 0 -131 49.5zM400.5 67.5q30.5 31.5 30.5 89.5v6q0 59 -30 90t-86 31q-35 0 -65.5 -13.5t-47.5 -33.5v-69q0 -64 31 -98t85 -34
q52 0 82.5 31.5z" />
    <glyph glyph-name="uni044E.loclBGR" horiz-adv-x="685" 
d="M537 476.5q49 -31.5 75.5 -87t26.5 -126.5v-30q0 -71 -26.5 -126.5t-75.5 -87t-113 -31.5t-112.5 31.5t-75 87t-26.5 126.5v5h-84v-238h-54v700h54v-413h85q7 99 64.5 160t148.5 61q64 0 113 -31.5zM583 264q0 87 -42.5 139.5t-116.5 52.5q-73 0 -115.5 -52.5
t-42.5 -139.5v-32q0 -87 42.5 -139.5t115.5 -52.5q74 0 116.5 52.5t42.5 139.5v32z" />
    <glyph glyph-name="zero.lf" horiz-adv-x="534" 
d="M148.5 26.5q-51.5 40.5 -80 116t-28.5 177.5v60q0 102 28.5 177.5t80 116t118.5 40.5t118.5 -40.5t80 -116t28.5 -177.5v-60q0 -102 -28.5 -177.5t-80 -116t-118.5 -40.5t-118.5 40.5zM354.5 71q38.5 33 60 96.5t21.5 150.5v64q0 87 -21.5 150.5t-60 96.5t-87.5 33
t-87.5 -33t-60 -96.5t-21.5 -150.5v-64q0 -87 21.5 -150.5t60 -96.5t87.5 -33t87.5 33z" />
    <glyph glyph-name="one.lf" horiz-adv-x="317" 
d="M236 0h-56v636l-153 -116v63l153 117h56v-700z" />
    <glyph glyph-name="two.lf" horiz-adv-x="486" 
d="M56 0v54l219 258q47 55 68 101.5t21 100.5q0 68 -35.5 106t-94.5 38q-55 0 -90 -35.5t-47 -104.5l-56 13q13 83 64 132t129 49q57 0 100 -25t66.5 -69t23.5 -99q0 -70 -26 -124t-84 -122l-186 -219h312v-54h-384z" />
    <glyph glyph-name="three.lf" horiz-adv-x="510" 
d="M276 427q85 -10 134.5 -63.5t49.5 -145.5v-13q0 -62 -26 -111.5t-72 -77.5t-106 -28q-89 0 -146.5 53.5t-71.5 147.5l55 12q13 -75 55.5 -117t107.5 -42q69 0 107.5 44.5t38.5 119.5v9q0 87 -48.5 126t-142.5 39v48l159 218h-310v54h376v-54z" />
    <glyph glyph-name="four.lf" horiz-adv-x="488" 
d="M369 0h-57v179h-281v55l281 466h57v-467h95v-54h-95v-179zM312 599l-222 -366h222v366z" />
    <glyph glyph-name="five.lf" horiz-adv-x="514" 
d="M119.5 40.5q-56.5 52.5 -70.5 145.5l56 12q12 -74 53.5 -115t106.5 -41q68 0 109 48t41 126v20q0 80 -40.5 128.5t-115.5 48.5q-44 0 -81.5 -24.5t-62.5 -66.5l-49 19l26 359h359v-54h-308l-22 -249q23 30 61 48.5t84 18.5q97 0 152.5 -63t55.5 -164v-22
q0 -63 -26.5 -115t-74 -82t-108.5 -30q-89 0 -145.5 52.5z" />
    <glyph glyph-name="six.lf" horiz-adv-x="501" 
d="M146 14.5q-48 26.5 -77.5 78.5t-29.5 124v6q0 61 19 107.5t57 103.5l175 266h66l-195 -291q16 15 43 23.5t55 8.5q58 0 104.5 -27t72.5 -77t26 -116v-8q0 -65 -28.5 -116.5t-77.5 -80t-106 -28.5q-56 0 -104 26.5zM326 63q35 21 56 59.5t21 88.5v12q0 51 -21 89t-56.5 59
t-78.5 21q-66 0 -107.5 -46t-41.5 -123v-12q0 -51 20.5 -89t55 -59t76.5 -21q41 0 76 21z" />
    <glyph glyph-name="seven.lf" horiz-adv-x="437" 
d="M178 0h-59l232 646h-323v54h379v-54z" />
    <glyph glyph-name="eight.lf" horiz-adv-x="486" 
d="M140.5 12.5q-45.5 24.5 -71 69t-25.5 103.5v8q0 66 30.5 112t81.5 67q-41 22 -65.5 60t-24.5 93v10q0 49 22.5 88.5t62.5 62t92 22.5q51 0 91.5 -22.5t62.5 -62t22 -88.5v-10q0 -55 -24.5 -93t-65.5 -60q51 -21 82 -67.5t31 -111.5v-8q0 -59 -26 -103.5t-71 -69
t-102 -24.5t-102.5 24.5zM327 430.5q33 33.5 33 90.5v9q0 57 -33 90.5t-84 33.5q-52 0 -85 -33.5t-33 -90.5v-9q0 -57 33 -90.5t85 -33.5q51 0 84 33.5zM344 82.5q39 40.5 39 105.5v10q0 65 -39 105t-101 40q-63 0 -102 -40t-39 -105v-10q0 -65 39 -105.5t102 -40.5
q62 0 101 40.5z" />
    <glyph glyph-name="nine.lf" horiz-adv-x="501" 
d="M340 291q-16 -16 -43 -24t-55 -8q-58 0 -104 27t-72.5 77t-26.5 116v8q0 65 28.5 116.5t77 80t106.5 28.5q56 0 104.5 -26t77.5 -78t29 -125v-6q0 -60 -19 -106.5t-57 -104.5l-175 -266h-66zM361.5 354q41.5 46 41.5 123v12q0 51 -20.5 89t-55 59t-76.5 21q-41 0 -76 -21
t-56 -59.5t-21 -88.5v-12q0 -51 21 -89t56.5 -59t78.5 -21q66 0 107.5 46z" />
    <glyph glyph-name="zero.tf" horiz-adv-x="560" 
d="M161.5 26.5q-51.5 40.5 -80 116t-28.5 177.5v60q0 102 28.5 177.5t80 116t118.5 40.5t118.5 -40.5t80 -116t28.5 -177.5v-60q0 -102 -28.5 -177.5t-80 -116t-118.5 -40.5t-118.5 40.5zM367.5 71q38.5 33 60 96.5t21.5 150.5v64q0 87 -21.5 150.5t-60 96.5t-87.5 33
t-87.5 -33t-60 -96.5t-21.5 -150.5v-64q0 -87 21.5 -150.5t60 -96.5t87.5 -33t87.5 33z" />
    <glyph glyph-name="one.tf" horiz-adv-x="560" 
d="M384 0h-56v637l-193 -116v62l193 117h56v-700z" />
    <glyph glyph-name="two.tf" horiz-adv-x="560" 
d="M99 0v54l219 258q47 55 68 101.5t21 100.5q0 68 -35.5 106t-94.5 38q-55 0 -90 -35.5t-47 -104.5l-56 13q13 83 64 132t129 49q57 0 100 -25t66.5 -69t23.5 -99q0 -70 -26 -124t-84 -122l-186 -219h312v-54h-384z" />
    <glyph glyph-name="three.tf" horiz-adv-x="560" 
d="M303 427q85 -10 134.5 -63.5t49.5 -145.5v-13q0 -62 -26 -111.5t-72 -77.5t-106 -28q-89 0 -146.5 53.5t-71.5 147.5l55 12q13 -75 55.5 -117t107.5 -42q69 0 107.5 44.5t38.5 119.5v9q0 87 -48.5 126t-142.5 39v48l159 218h-310v54h376v-54z" />
    <glyph glyph-name="four.tf" horiz-adv-x="560" 
d="M423 0h-57v179h-291v55l291 466h57v-467h85v-54h-85v-179zM366 599l-232 -366h232v366z" />
    <glyph glyph-name="five.tf" horiz-adv-x="560" 
d="M137.5 40.5q-56.5 52.5 -70.5 145.5l56 12q12 -74 53.5 -115t106.5 -41q68 0 109 48t41 126v20q0 80 -40.5 128.5t-115.5 48.5q-44 0 -81.5 -24.5t-62.5 -66.5l-49 19l26 359h359v-54h-308l-22 -249q23 30 61 48.5t84 18.5q97 0 152.5 -63t55.5 -164v-22
q0 -63 -26.5 -115t-74 -82t-108.5 -30q-89 0 -145.5 52.5z" />
    <glyph glyph-name="six.tf" horiz-adv-x="560" 
d="M175 14.5q-48 26.5 -77.5 78.5t-29.5 124v6q0 61 19 107.5t57 103.5l175 266h66l-195 -291q16 15 43 23.5t55 8.5q58 0 104.5 -27t72.5 -77t26 -116v-8q0 -65 -28.5 -116.5t-77.5 -80t-106 -28.5q-56 0 -104 26.5zM355 63q35 21 56 59.5t21 88.5v12q0 51 -21 89t-56.5 59
t-78.5 21q-66 0 -107.5 -46t-41.5 -123v-12q0 -51 20.5 -89t55 -59t76.5 -21q41 0 76 21z" />
    <glyph glyph-name="seven.tf" horiz-adv-x="560" 
d="M241 0h-59l242 646h-333v54h389v-54z" />
    <glyph glyph-name="eight.tf" horiz-adv-x="560" 
d="M177.5 12.5q-45.5 24.5 -71 69t-25.5 103.5v8q0 66 30.5 112t81.5 67q-41 22 -65.5 60t-24.5 93v10q0 49 22.5 88.5t62.5 62t92 22.5q51 0 91.5 -22.5t62.5 -62t22 -88.5v-10q0 -55 -24.5 -93t-65.5 -60q51 -21 82 -67.5t31 -111.5v-8q0 -59 -26 -103.5t-71 -69
t-102 -24.5t-102.5 24.5zM364 430.5q33 33.5 33 90.5v9q0 57 -33 90.5t-84 33.5q-52 0 -85 -33.5t-33 -90.5v-9q0 -57 33 -90.5t85 -33.5q51 0 84 33.5zM381 82.5q39 40.5 39 105.5v10q0 65 -39 105t-101 40q-63 0 -102 -40t-39 -105v-10q0 -65 39 -105.5t102 -40.5
q62 0 101 40.5z" />
    <glyph glyph-name="nine.tf" horiz-adv-x="560" 
d="M373 291q-16 -16 -43 -24t-55 -8q-58 0 -104 27t-72.5 77t-26.5 116v8q0 65 28.5 116.5t77 80t106.5 28.5q56 0 104.5 -26t77.5 -78t29 -125v-6q0 -60 -19 -106.5t-57 -104.5l-175 -266h-66zM394.5 354q41.5 46 41.5 123v12q0 51 -20.5 89t-55 59t-76.5 21q-41 0 -76 -21
t-56 -59.5t-21 -88.5v-12q0 -51 21 -89t56.5 -59t78.5 -21q66 0 107.5 46z" />
    <glyph glyph-name="zero.dnom" horiz-adv-x="307" 
d="M57.5 38.5q-36.5 45.5 -36.5 123.5v26q0 78 36.5 123.5t96.5 45.5t96 -46t36 -123v-26q0 -77 -36 -123t-96 -46t-96.5 45.5zM212 72q22 32 22 89v28q0 57 -22 89t-58 32q-37 0 -59 -32t-22 -89v-28q0 -57 22 -89t59 -32q36 0 58 32z" />
    <glyph glyph-name="one.dnom" horiz-adv-x="185" 
d="M147 0h-51v296l-83 -55v54l83 55h51v-350z" />
    <glyph glyph-name="two.dnom" horiz-adv-x="269" 
d="M30 0v45l114 117q24 24 34.5 44t10.5 46q0 28 -16 44t-42 16q-52 0 -65 -61l-46 10q6 44 35.5 69.5t75.5 25.5q51 0 80.5 -28t29.5 -72q0 -37 -14.5 -63.5t-46.5 -59.5l-86 -88h153v-45h-217z" />
    <glyph glyph-name="three.dnom" horiz-adv-x="279" 
d="M56.5 21q-31.5 27 -37.5 75l47 9q5 -31 23.5 -48t48.5 -17q31 0 48 19t17 51q0 37 -23 53.5t-67 16.5v39l73 88h-155v43h211v-43l-78 -91q43 -7 67 -34t24 -72q0 -52 -32 -84t-84 -32q-51 0 -82.5 27z" />
    <glyph glyph-name="four.dnom" horiz-adv-x="277" 
d="M215 0h-49v80h-151v46l151 224h49v-224h50v-46h-50v-80zM166 274l-101 -148h101v148z" />
    <glyph glyph-name="five.dnom" horiz-adv-x="283" 
d="M64 21q-32 27 -40 73l49 10q5 -29 24 -46t48 -17q30 0 48 19t18 50v8q0 32 -17.5 51.5t-49.5 19.5q-41 0 -66 -37l-45 15l16 183h200v-44h-158l-11 -100q28 26 72 26q51 0 81 -31t30 -84v-8q0 -49 -32.5 -82t-84.5 -33q-50 0 -82 27z" />
    <glyph glyph-name="six.dnom" horiz-adv-x="268" 
d="M53.5 25.5q-33.5 31.5 -33.5 86.5q0 33 10.5 57t33.5 59l80 122h55l-95 -138q13 10 36 10q47 0 77.5 -31t30.5 -81q0 -51 -33.5 -83.5t-81.5 -32.5q-46 0 -79.5 31.5zM181.5 56.5q19.5 19.5 19.5 52.5q0 32 -19.5 51.5t-48.5 19.5t-47.5 -19t-18.5 -52t19 -52.5t47 -19.5
q29 0 48.5 19.5z" />
    <glyph glyph-name="seven.dnom" horiz-adv-x="242" 
d="M110 0h-50l118 306h-164v44h213v-44z" />
    <glyph glyph-name="eight.dnom" horiz-adv-x="272" 
d="M54.5 22q-31.5 28 -31.5 75v2q0 32 16.5 54.5t39.5 32.5q-44 25 -44 75v2q0 39 28.5 65t72.5 26t72.5 -26t28.5 -65v-2q0 -26 -12 -45t-32 -30q24 -11 40 -33.5t16 -53.5v-2q0 -47 -32 -75t-81 -28q-50 0 -81.5 28zM175.5 217.5q15.5 14.5 15.5 38.5v3q0 24 -15.5 38.5
t-39.5 14.5t-39.5 -14.5t-15.5 -38.5v-3q0 -24 15.5 -38.5t39.5 -14.5t39.5 14.5zM183 54.5q18 16.5 18 44.5v2q0 28 -18 45t-47 17t-47 -17t-18 -45v-2q0 -28 18.5 -44.5t46.5 -16.5q29 0 47 16.5z" />
    <glyph glyph-name="nine.dnom" horiz-adv-x="268" 
d="M164 138q-11 -10 -36 -10q-46 0 -77 31t-31 81v3q0 49 33 81t82 32q47 0 80 -31t33 -86v-1q0 -32 -10.5 -57.5t-33.5 -58.5l-80 -122h-54zM182.5 189q18.5 19 18.5 51v4q0 31 -19 50t-47 19t-48 -19t-20 -50v-4q0 -32 20 -51t48 -19q29 0 47.5 19z" />
    <glyph glyph-name="zero.numr" horiz-adv-x="307" 
d="M57.5 388.5q-36.5 45.5 -36.5 123.5v26q0 78 36.5 123.5t96.5 45.5t96 -46t36 -123v-26q0 -77 -36 -123t-96 -46t-96.5 45.5zM212 422q22 32 22 89v28q0 57 -22 89t-58 32q-37 0 -59 -32t-22 -89v-28q0 -57 22 -89t59 -32q36 0 58 32z" />
    <glyph glyph-name="one.numr" horiz-adv-x="185" 
d="M147 350h-51v296l-83 -55v54l83 55h51v-350z" />
    <glyph glyph-name="two.numr" horiz-adv-x="269" 
d="M30 350v45l114 117q24 24 34.5 44t10.5 46q0 28 -16 44t-42 16q-52 0 -65 -61l-46 10q6 44 35.5 69.5t75.5 25.5q51 0 80.5 -28t29.5 -72q0 -37 -14.5 -63.5t-46.5 -59.5l-86 -88h153v-45h-217z" />
    <glyph glyph-name="three.numr" horiz-adv-x="279" 
d="M56.5 371q-31.5 27 -37.5 75l47 9q5 -31 23.5 -48t48.5 -17q31 0 48 19t17 51q0 37 -23 53.5t-67 16.5v39l73 88h-155v43h211v-43l-78 -91q43 -7 67 -34t24 -72q0 -52 -32 -84t-84 -32q-51 0 -82.5 27z" />
    <glyph glyph-name="four.numr" horiz-adv-x="277" 
d="M215 350h-49v80h-151v46l151 224h49v-224h50v-46h-50v-80zM166 624l-101 -148h101v148z" />
    <glyph glyph-name="five.numr" horiz-adv-x="283" 
d="M64 371q-32 27 -40 73l49 10q5 -29 24 -46t48 -17q30 0 48 19t18 50v8q0 32 -17.5 51.5t-49.5 19.5q-41 0 -66 -37l-45 15l16 183h200v-44h-158l-11 -100q28 26 72 26q51 0 81 -31t30 -84v-8q0 -49 -32.5 -82t-84.5 -33q-50 0 -82 27z" />
    <glyph glyph-name="six.numr" horiz-adv-x="268" 
d="M53.5 375.5q-33.5 31.5 -33.5 86.5q0 33 10.5 57t33.5 59l80 122h55l-95 -138q13 10 36 10q47 0 77.5 -31t30.5 -81q0 -51 -33.5 -83.5t-81.5 -32.5q-46 0 -79.5 31.5zM181.5 406.5q19.5 19.5 19.5 52.5q0 32 -19.5 51.5t-48.5 19.5t-47.5 -19t-18.5 -52t19 -52.5
t47 -19.5q29 0 48.5 19.5z" />
    <glyph glyph-name="seven.numr" horiz-adv-x="242" 
d="M110 350h-50l118 306h-164v44h213v-44z" />
    <glyph glyph-name="eight.numr" horiz-adv-x="272" 
d="M54.5 372q-31.5 28 -31.5 75v2q0 32 16.5 54.5t39.5 32.5q-44 25 -44 75v2q0 39 28.5 65t72.5 26t72.5 -26t28.5 -65v-2q0 -26 -12 -45t-32 -30q24 -11 40 -33.5t16 -53.5v-2q0 -47 -32 -75t-81 -28q-50 0 -81.5 28zM175.5 567.5q15.5 14.5 15.5 38.5v3q0 24 -15.5 38.5
t-39.5 14.5t-39.5 -14.5t-15.5 -38.5v-3q0 -24 15.5 -38.5t39.5 -14.5t39.5 14.5zM183 404.5q18 16.5 18 44.5v2q0 28 -18 45t-47 17t-47 -17t-18 -45v-2q0 -28 18.5 -44.5t46.5 -16.5q29 0 47 16.5z" />
    <glyph glyph-name="nine.numr" horiz-adv-x="268" 
d="M164 488q-11 -10 -36 -10q-46 0 -77 31t-31 81v3q0 49 33 81t82 32q47 0 80 -31t33 -86v-1q0 -32 -10.5 -57.5t-33.5 -58.5l-80 -122h-54zM182.5 539q18.5 19 18.5 51v4q0 31 -19 50t-47 19t-48 -19t-20 -50v-4q0 -32 20 -51t48 -19q29 0 47.5 19z" />
    <glyph glyph-name="uni030C.alt" horiz-adv-x="0" 
d="M-118 501l-20 11l23 53q2 6 8.5 21t8.5 25q-18 3 -30 16.5t-12 31.5q0 21 14 35t34 14q22 0 35.5 -14.5t13.5 -40.5q0 -21 -8.5 -38.5t-33.5 -59.5z" />
    <glyph glyph-name="brevecombcy" horiz-adv-x="0" 
d="M-190 609q-29 35 -29 83h52q0 -33 14.5 -51.5t42.5 -18.5t43 18.5t15 51.5h52q0 -48 -29 -83t-81 -35q-51 0 -80 35z" />
    </font>
</defs>
</svg>
