<?xml version="1.0" standalone="no"?>
<!DOCTYPE svg PUBLIC "-//W3C//DTD SVG 1.1//EN" "http://www.w3.org/Graphics/SVG/1.1/DTD/svg11.dtd" >
<svg xmlns="http://www.w3.org/2000/svg" xmlns:xlink="http://www.w3.org/1999/xlink" version="1.1">
<metadata>
Created by FontForge 20170731 at Mon Sep 27 20:08:25 2021
 By Aleksey,,,
Copyright (c) 2020 by F. Hoffmann-La Roche AG. All rights reserved.
</metadata>
<defs>
<font id="RocheSansCondensed-Italic" horiz-adv-x="193" >
  <font-face 
    font-family="Roche Sans Condensed"
    font-weight="400"
    font-style="italic"
    font-stretch="normal"
    units-per-em="1000"
    panose-1="2 11 5 6 3 2 1 11 1 1"
    ascent="800"
    descent="-200"
    x-height="496"
    cap-height="700"
    bbox="-254 -236 1004 967"
    underline-thickness="50"
    underline-position="-150"
    slope="-10"
    unicode-range="U+000D-FB02"
  />
<missing-glyph horiz-adv-x="791" 
d="M621 123h-425l-173 200l173 200h425l173 -202zM49 321l156 -178h407l156 178l-156 182h-407z" />
    <glyph glyph-name="f_i" unicode="fi" horiz-adv-x="505" 
d="M253.5 625q-19.5 -18 -25.5 -52l-14 -77h123l-12 -66h-122l-76 -430h-75l76 430h-78l12 66h78l13 76q13 73 50 106.5t104 33.5q31 0 66 -11l-13 -71q-17 7 -29 10t-28 3q-30 0 -49.5 -18zM440 608.5q-17 16.5 -17 39.5q0 24 16.5 40t40.5 16q23 0 39.5 -16t16.5 -40
q0 -23 -16.5 -39.5t-39.5 -16.5t-40 16.5zM403 0h-75l87 496h75z" />
    <glyph glyph-name="f_l" unicode="fl" horiz-adv-x="536" 
d="M253.5 625q-19.5 -18 -25.5 -52l-14 -77h123l-12 -66h-122l-76 -430h-75l76 430h-78l12 66h78l13 76q13 73 50 106.5t104 33.5q31 0 66 -11l-13 -71q-17 7 -29 10t-28 3q-30 0 -49.5 -18zM367 11q-23 23 -23 66q0 15 3 31l104 592h75l-105 -593q-1 -4 -1 -12
q0 -17 9 -27.5t24 -10.5q18 0 37 10l-13 -72q-24 -7 -49 -7q-38 0 -61 23z" />
    <glyph glyph-name=".notdef" horiz-adv-x="791" 
d="M621 123h-425l-173 200l173 200h425l173 -202zM49 321l156 -178h407l156 178l-156 182h-407z" />
    <glyph glyph-name=".null" horiz-adv-x="0" 
 />
    <glyph glyph-name="nonmarkingreturn" unicode="&#xd;" horiz-adv-x="600" 
 />
    <glyph glyph-name="space" unicode=" " horiz-adv-x="185" 
 />
    <glyph glyph-name="exclam" unicode="!" horiz-adv-x="222" 
d="M137 207h-69l80 493h80zM36 7.5q-17 17.5 -17 40.5q0 24 17 41t41 17t40.5 -17t16.5 -41t-16.5 -41t-40.5 -17t-41 17.5z" />
    <glyph glyph-name="quotedbl" unicode="&#x22;" horiz-adv-x="342" 
d="M168 463h-73l42 237h73zM323 463h-73l42 237h73z" />
    <glyph glyph-name="numbersign" unicode="#" horiz-adv-x="502" 
d="M529 490l-12 -68h-91l-41 -144h82l-12 -67h-89l-61 -211h-73l61 211h-127l-61 -211h-73l61 211h-84l12 67h91l41 144h-82l12 68h90l60 210h73l-60 -210h127l60 210h73l-60 -210h83zM185 278h127l41 144h-127z" />
    <glyph glyph-name="dollar" unicode="$" horiz-adv-x="470" 
d="M298 392q61 -35 93 -79t32 -104q0 -96 -52.5 -155.5t-144.5 -66.5l-13 -75h-71l14 79q-58 15 -92 64t-39 118l78 20q8 -98 67 -124l48 274q-119 67 -119 182q0 76 48.5 128t135.5 58l13 75h71l-14 -79q53 -13 84.5 -51.5t35.5 -98.5l-75 -23q-3 34 -18.5 57.5t-40.5 35.5
zM195 478.5q12 -23.5 39 -45.5l35 202q-40 -6 -63 -33.5t-23 -70.5q0 -29 12 -52.5zM240 63q50 9 74.5 44t24.5 89q0 38 -13.5 63t-43.5 46z" />
    <glyph glyph-name="percent" unicode="%" horiz-adv-x="719" 
d="M114.5 400.5q-33.5 34.5 -33.5 88.5q0 15 3 31l7 38q14 74 55.5 114t106.5 40q52 0 85 -34.5t33 -88.5q0 -14 -3 -31l-7 -38q-14 -74 -55.5 -114t-105.5 -40q-52 0 -85.5 34.5zM178 0h-74l472 700h75zM264.5 450.5q22.5 24.5 30.5 66.5l8 44q2 9 2 24q0 31 -15.5 49
t-45.5 18q-35 0 -57.5 -24.5t-30.5 -66.5l-8 -44q-2 -9 -2 -25q0 -31 16 -48.5t46 -17.5q34 0 56.5 24.5zM417.5 22.5q-33.5 34.5 -33.5 88.5q0 15 3 31l7 38q14 74 55.5 114t106.5 40q52 0 85 -34.5t33 -88.5q0 -14 -3 -31l-7 -38q-14 -74 -55.5 -114t-105.5 -40
q-52 0 -85.5 34.5zM567.5 72.5q22.5 24.5 30.5 66.5l8 44q2 9 2 24q0 31 -15.5 49t-45.5 18q-35 0 -57.5 -24.5t-30.5 -66.5l-8 -44q-2 -9 -2 -25q0 -31 16 -48.5t46 -17.5q34 0 56.5 24.5z" />
    <glyph glyph-name="ampersand" unicode="&#x26;" horiz-adv-x="525" 
d="M75 32.5q-46 44.5 -46 116.5q0 12 4 40l3 17q13 71 45 114t80 66q-24 15 -39.5 44.5t-15.5 67.5q0 18 2 28l3 18q12 75 66 121.5t134 46.5q58 0 94 -26t44 -75l-66 -33q-9 32 -30.5 49.5t-52.5 17.5q-43 0 -74.5 -27.5t-39.5 -75.5l-4 -23q-2 -16 -2 -23q0 -40 24 -64.5
t65 -24.5h114l11 62l78 38l-18 -100h71l-11 -64h-71l-27 -149q-19 -105 -72.5 -155.5t-146.5 -50.5q-76 0 -122 44.5zM300.5 93q33.5 34 45.5 105l26 145h-120q-50 0 -88 -33t-50 -96l-5 -26q-3 -15 -3 -29q0 -45 27.5 -72.5t70.5 -27.5q63 0 96.5 34z" />
    <glyph glyph-name="quotesingle" unicode="'" horiz-adv-x="187" 
d="M168 463h-73l42 237h73z" />
    <glyph glyph-name="parenleft" unicode="(" horiz-adv-x="250" 
d="M80 -140q-21 65 -33.5 135.5t-12.5 170.5q0 168 54.5 323.5t149.5 270.5h76q-95 -126 -147.5 -280t-52.5 -321q0 -93 10.5 -161.5t31.5 -137.5h-76z" />
    <glyph glyph-name="parenright" unicode=")" horiz-adv-x="250" 
d="M-42 -140q95 126 147.5 280t52.5 321q0 93 -10.5 161.5t-31.5 137.5h76q21 -65 33.5 -135.5t12.5 -170.5q0 -168 -54.5 -323.5t-149.5 -270.5h-76z" />
    <glyph glyph-name="asterisk" unicode="*" horiz-adv-x="364" 
d="M373 644l26 -54l-120 -55l97 -55l-35 -53l-92 68l-16 -123h-60l27 121l-107 -66l-27 55l120 54l-97 56l36 52l90 -66l16 122h60l-27 -122z" />
    <glyph glyph-name="plus" unicode="+" horiz-adv-x="397" 
d="M251 348h137l-12 -71h-137l-26 -144h-71l26 144h-136l12 71h136l26 145h71z" />
    <glyph glyph-name="comma" unicode="," horiz-adv-x="223" 
d="M27 -145l-26 13l36 73q14 29 21 52q-16 5 -27.5 20t-11.5 32q0 27 17 44t44 17q22 0 38 -17.5t16 -40.5q0 -29 -13.5 -54t-45.5 -71z" />
    <glyph glyph-name="hyphen" unicode="-" horiz-adv-x="303" 
d="M277 280h-240l12 66h240z" />
    <glyph glyph-name="period" unicode="." horiz-adv-x="223" 
d="M36 7.5q-17 17.5 -17 40.5q0 24 17 41t41 17t40.5 -17t16.5 -41t-16.5 -41t-40.5 -17t-41 17.5z" />
    <glyph glyph-name="slash" unicode="/" horiz-adv-x="308" 
d="M30 -140h-82l352 900h82z" />
    <glyph glyph-name="zero" unicode="0" horiz-adv-x="420" 
d="M57.5 33q-44.5 47 -44.5 128q0 28 6 59l46 260q21 116 74 175t133 59q81 0 126 -47t45 -128q0 -27 -6 -59l-46 -260q-21 -117 -73.5 -175.5t-133.5 -58.5q-82 0 -126.5 47zM265.5 94.5q31.5 36.5 46.5 122.5l46 266q5 30 5 49q0 54 -24.5 82t-65.5 28q-52 0 -83 -36
t-46 -123l-46 -266q-5 -30 -5 -50q0 -54 24.5 -81.5t65.5 -27.5q51 0 82.5 36.5z" />
    <glyph glyph-name="one" unicode="1" horiz-adv-x="420" 
d="M279 0h-80l107 608l-189 -105l17 91l189 106h80z" />
    <glyph glyph-name="two" unicode="2" horiz-adv-x="420" 
d="M-6 0l13 71l234 248q63 67 88 115.5t25 113.5q0 43 -24 68t-65 25q-47 0 -76 -31.5t-44 -93.5l-71 14q38 182 202 182q73 0 115.5 -46t42.5 -115q0 -57 -16.5 -103t-46 -86t-78.5 -92l-189 -199h260l-13 -71h-357z" />
    <glyph glyph-name="three" unicode="3" horiz-adv-x="420" 
d="M49 41.5q-47 53.5 -48 151.5l75 11q-1 -69 27.5 -106.5t77.5 -37.5q58 0 90.5 35t45.5 106l5 27q3 17 3 31q0 53 -36.5 81.5t-103.5 28.5l11 61l158 200h-257l13 70h346l-13 -70l-165 -203q55 -8 90.5 -52t35.5 -106q0 -18 -3 -36l-6 -34q-37 -211 -220 -211
q-79 0 -126 53.5z" />
    <glyph glyph-name="four" unicode="4" horiz-adv-x="420" 
d="M295 0h-77l30 170h-232l13 73l313 457h77l-81 -458h58l-13 -72h-58zM316 555l-207 -313h152z" />
    <glyph glyph-name="five" unicode="5" horiz-adv-x="420" 
d="M57 42q-46 54 -44 144l78 12q-2 -66 22.5 -101t74.5 -35q52 0 80 34t40 105l9 52q4 28 4 39q0 47 -24 75t-68 28q-32 0 -62 -22t-52 -61l-62 26l90 362h325l-13 -70h-265l-51 -221q46 55 110 55q71 0 111.5 -45t40.5 -117q0 -25 -4 -45l-11 -64q-35 -205 -205 -205
q-78 0 -124 54z" />
    <glyph glyph-name="six" unicode="6" horiz-adv-x="420" 
d="M90.5 10q-36.5 22 -57.5 61.5t-21 90.5q0 20 5 48l4 22q12 64 35 108.5t66 101.5l192 258h86l-213 -282q27 24 70 24q63 0 102 -43t39 -115q0 -29 -5 -53l-5 -26q-21 -110 -73 -163.5t-142 -53.5q-46 0 -82.5 22zM313 200l6 34q3 18 3 36q0 48 -25 77.5t-68 29.5
q-52 0 -86.5 -38t-45.5 -105l-6 -34q-3 -18 -3 -35q0 -49 24.5 -78.5t64.5 -29.5q111 0 136 143z" />
    <glyph glyph-name="seven" unicode="7" horiz-adv-x="420" 
d="M142 0h-79l307 629h-273l13 71h350l-13 -71z" />
    <glyph glyph-name="eight" unicode="8" horiz-adv-x="420" 
d="M89 8.5q-37 20.5 -58 56.5t-21 81q0 18 3 34l5 28q13 70 44 109t80 61q-23 17 -38.5 49t-15.5 65q0 7 2 21l5 26q15 76 65 122.5t128 46.5q65 0 104 -37.5t39 -97.5q0 -16 -3 -34l-5 -27q-19 -105 -101 -145q30 -16 49.5 -49t19.5 -77q0 -16 -3 -34l-5 -29
q-16 -94 -71.5 -142t-138.5 -48q-47 0 -84 20.5zM311 427.5q28 26.5 37 78.5l5 28q2 9 2 26q0 38 -20.5 58.5t-55.5 20.5q-41 0 -72 -28t-39 -77l-4 -25q-2 -16 -2 -23q0 -38 21 -61.5t57 -23.5q43 0 71 26.5zM307 182l5 30q2 9 2 26q0 44 -25.5 70.5t-69.5 26.5
q-51 0 -82.5 -32.5t-41.5 -90.5l-5 -30q-2 -10 -2 -28q0 -44 25 -69.5t67 -25.5q106 0 127 123z" />
    <glyph glyph-name="nine" unicode="9" horiz-adv-x="420" 
d="M269 282q-27 -24 -70 -24q-63 0 -102 43t-39 115q0 29 5 53l5 26q21 110 73 163.5t142 53.5q73 0 117 -47t44 -124q0 -21 -5 -51l-4 -22q-12 -64 -35 -108.5t-66 -101.5l-192 -258h-86zM313.5 361q34.5 38 45.5 105l6 34q3 18 3 35q0 49 -24.5 78.5t-64.5 29.5
q-111 0 -136 -143l-6 -34q-3 -18 -3 -36q0 -48 25 -77.5t68 -29.5q52 0 86.5 38z" />
    <glyph glyph-name="colon" unicode=":" horiz-adv-x="223" 
d="M36 7.5q-17 17.5 -17 40.5q0 24 17 41t41 17t40.5 -17t16.5 -41t-16.5 -41t-40.5 -17t-41 17.5zM106 406.5q-17 17.5 -17 40.5q0 24 17 41t41 17t40.5 -17t16.5 -41t-16.5 -41t-40.5 -17t-41 17.5z" />
    <glyph glyph-name="semicolon" unicode=";" horiz-adv-x="223" 
d="M22 -145l-26 13l36 73q14 29 21 52q-16 5 -27.5 20t-11.5 32q0 27 17 44t44 17q22 0 38 -17.5t16 -40.5q0 -29 -13.5 -54t-45.5 -71zM106 406.5q-17 17.5 -17 40.5q0 24 17 41t41 17t40.5 -17t16.5 -41t-16.5 -41t-40.5 -17t-41 17.5z" />
    <glyph glyph-name="less" unicode="&#x3c;" horiz-adv-x="395" 
d="M356 178l-12 -75l-316 163l16 86l372 163l-14 -83l-298 -126z" />
    <glyph glyph-name="equal" unicode="=" horiz-adv-x="396" 
d="M392 370h-344l12 71h344zM359 184h-344l12 71h344z" />
    <glyph glyph-name="greater" unicode="&#x3e;" horiz-adv-x="395" 
d="M372 266l-372 -163l14 83l298 126l-252 128l12 75l316 -163z" />
    <glyph glyph-name="question" unicode="?" horiz-adv-x="416" 
d="M175 243q11 63 33.5 98.5t73.5 80.5q41 36 60.5 67t19.5 70q0 38 -25.5 61.5t-67.5 23.5q-45 0 -79 -29.5t-50 -88.5l-65 18q21 80 70.5 125t132.5 45q74 0 118 -41.5t44 -106.5q0 -53 -27 -95t-81 -92q-45 -42 -62.5 -70.5t-24.5 -75.5l-5 -32h-72zM139 7.5
q-17 17.5 -17 40.5q0 24 17 41t41 17t40.5 -17t16.5 -41t-16.5 -41t-40.5 -17t-41 17.5z" />
    <glyph glyph-name="at" unicode="@" horiz-adv-x="739" 
d="M167.5 -57.5q-63.5 39.5 -99 110t-35.5 159.5q0 41 7 80l6 34q34 192 137 289t257 97q88 0 153 -36.5t100.5 -104t35.5 -157.5q0 -38 -8 -88l-5 -28q-18 -102 -64 -156t-108 -54q-37 0 -60 23t-23 58q-22 -40 -55.5 -60.5t-81.5 -20.5q-59 0 -96 41.5t-37 109.5
q0 25 4 46l8 46q16 93 65 145t126 52q37 0 63.5 -16t38.5 -44l9 48h64l-53 -298q-2 -16 -2 -23q0 -46 39 -46q33 0 57 38.5t36 106.5l5 28q8 41 8 86q0 117 -62.5 178t-167.5 61q-123 0 -204 -80t-109 -240l-6 -34q-7 -39 -7 -80q0 -75 27 -130.5t77 -85.5t116 -30
q57 0 101 15.5t87 46.5l28 -54q-88 -72 -227 -72q-81 0 -144.5 39.5zM423 185q33 36 45 101l8 44q4 20 4 41q0 46 -22 71t-60 25q-49 0 -81.5 -36t-44.5 -101l-8 -44q-4 -19 -4 -39q0 -46 22.5 -72t59.5 -26q48 0 81 36z" />
    <glyph glyph-name="A" unicode="A" horiz-adv-x="505" 
d="M447 0h-82l-14 168h-219l-73 -168h-89l313 700h97zM316 595l-153 -354h182z" />
    <glyph glyph-name="B" unicode="B" horiz-adv-x="499" 
d="M22 0l124 700h177q74 0 116 -43t42 -113q0 -69 -30.5 -112.5t-81.5 -61.5q34 -15 55 -51.5t21 -90.5q0 -67 -27.5 -118.5t-79.5 -80.5t-121 -29h-195zM276 404q58 0 90.5 36.5t32.5 92.5q0 45 -23.5 69t-64.5 24h-96l-39 -222h100zM226 75q67 0 102 42t35 108
q0 52 -23 79.5t-69 27.5h-108l-45 -257h108z" />
    <glyph glyph-name="C" unicode="C" horiz-adv-x="525" 
d="M101 44q-52 58 -52 158q0 33 6 70l28 160q49 282 270 282q86 0 132.5 -51.5t50.5 -144.5l-77 -18q-3 64 -32 101.5t-85 37.5q-68 0 -113 -50.5t-62 -147.5l-31 -176q-5 -26 -5 -58q0 -68 30.5 -107t83.5 -39q66 0 101.5 34t58.5 106l71 -20q-33 -101 -86 -148t-151 -47
q-86 0 -138 58z" />
    <glyph glyph-name="D" unicode="D" horiz-adv-x="521" 
d="M22 0l124 700h158q96 0 150 -55t54 -151q0 -30 -6 -63l-28 -162q-24 -140 -96.5 -204.5t-197.5 -64.5h-158zM214 625l-96 -550h71q168 0 202 195l28 160q5 32 5 53q0 70 -37 106t-102 36h-71z" />
    <glyph glyph-name="E" unicode="E" horiz-adv-x="460" 
d="M368 0h-346l124 700h344l-14 -75h-262l-40 -227h222l-13 -74h-222l-43 -249h264z" />
    <glyph glyph-name="F" unicode="F" horiz-adv-x="441" 
d="M104 0h-82l124 700h340l-14 -75h-258l-43 -247h221l-13 -73h-221z" />
    <glyph glyph-name="G" unicode="G" horiz-adv-x="542" 
d="M140.5 14.5q-43.5 28.5 -67.5 78.5t-24 115q0 31 6 64l28 156q26 148 95 217t177 69q175 0 181 -196l-77 -18q-8 139 -116 139q-66 0 -112.5 -52.5t-64.5 -151.5l-30 -171q-5 -26 -5 -58q0 -69 32.5 -107t89.5 -38q83 0 136 69l28 160h-146l13 70h225l-47 -263
q-46 -57 -96.5 -84t-124.5 -27q-57 0 -100.5 28.5z" />
    <glyph glyph-name="H" unicode="H" horiz-adv-x="550" 
d="M104 0h-82l124 700h82l-52 -293h254l52 293h82l-124 -700h-82l59 331h-254z" />
    <glyph glyph-name="I" unicode="I" horiz-adv-x="214" 
d="M104 0h-82l124 700h82z" />
    <glyph glyph-name="J" unicode="J" horiz-adv-x="444" 
d="M61.5 26.5q-42.5 40.5 -51.5 105.5l82 27q13 -97 86 -97q48 0 74 31t38 97l90 510h82l-89 -506q-19 -106 -66.5 -157t-138.5 -51q-64 0 -106.5 40.5z" />
    <glyph glyph-name="K" unicode="K" horiz-adv-x="458" 
d="M259 345l131 -345h-88l-119 313h-24l-55 -313h-82l124 700h82l-56 -315h23l224 315h95z" />
    <glyph glyph-name="L" unicode="L" horiz-adv-x="426" 
d="M349 0h-327l124 700h82l-110 -625h245z" />
    <glyph glyph-name="M" unicode="M" horiz-adv-x="602" 
d="M102 0h-80l124 700h89l62 -460l224 460h95l-124 -700h-80l89 504l-180 -364h-75l-55 364z" />
    <glyph glyph-name="N" unicode="N" horiz-adv-x="527" 
d="M101 0h-79l124 700h88l136 -520l92 520h79l-124 -700h-74l-146 547z" />
    <glyph glyph-name="O" unicode="O" horiz-adv-x="565" 
d="M144.5 13q-44.5 27 -70 76.5t-25.5 115.5q0 32 6 66l28 158q26 148 94.5 216.5t176.5 68.5q57 0 102 -27t70.5 -76.5t25.5 -115.5q0 -31 -6 -66l-28 -158q-26 -148 -95 -216.5t-177 -68.5q-57 0 -101.5 27zM372.5 110.5q44.5 49.5 62.5 153.5l30 172q5 25 5 57
q0 69 -33 107.5t-92 38.5q-72 0 -116.5 -49.5t-62.5 -153.5l-30 -172q-5 -25 -5 -57q0 -69 33 -107.5t91 -38.5q73 0 117.5 49.5z" />
    <glyph glyph-name="P" unicode="P" horiz-adv-x="474" 
d="M22 0l124 700h185q71 0 113.5 -42t42.5 -117q0 -101 -59 -159.5t-164 -58.5h-103l-57 -323h-82zM272 395q66 0 99.5 36.5t33.5 100.5q0 47 -24 71t-68 24h-98l-41 -232h98z" />
    <glyph glyph-name="Q" unicode="Q" horiz-adv-x="565" 
d="M456 687q45 -27 70.5 -76.5t25.5 -115.5q0 -31 -6 -66l-28 -158q-29 -164 -113 -233l53 -110h-82l-35 74q-42 -16 -95 -16q-57 0 -101.5 27t-70 76.5t-25.5 115.5q0 32 6 66l28 158q26 148 94.5 216.5t176.5 68.5q57 0 102 -27zM465 436q5 25 5 57q0 69 -33 107.5
t-92 38.5q-72 0 -116.5 -49.5t-62.5 -153.5l-30 -172q-5 -25 -5 -57q0 -69 33 -107.5t91 -38.5q73 0 117.5 49.5t62.5 153.5z" />
    <glyph glyph-name="R" unicode="R" horiz-adv-x="492" 
d="M22 0l124 700h192q75 0 117 -42.5t42 -114.5q0 -73 -36.5 -121t-94.5 -66q50 -20 47 -102l-9 -254h-78l9 243q3 80 -65 80h-109l-57 -323h-82zM286 395q57 0 92 40t35 101q0 45 -24 68t-65 23h-109l-41 -232h112z" />
    <glyph glyph-name="S" unicode="S" horiz-adv-x="470" 
d="M76.5 38q-46.5 52 -51.5 135l78 20q5 -63 32.5 -97.5t74.5 -34.5q64 0 96.5 36.5t32.5 98.5q0 49 -23.5 78.5t-81.5 59.5q-135 69 -135 191q0 52 24 94.5t70.5 67.5t110.5 25q74 0 119 -41t50 -114l-75 -23q-4 48 -33.5 75.5t-72.5 27.5q-51 0 -80 -29t-29 -77
q0 -40 24 -71.5t82 -62.5q66 -35 100 -80.5t34 -107.5q0 -102 -59.5 -162.5t-162.5 -60.5q-78 0 -124.5 52z" />
    <glyph glyph-name="T" unicode="T" horiz-adv-x="432" 
d="M488 700l-14 -75h-150l-111 -625h-82l111 625h-152l14 75h384z" />
    <glyph glyph-name="U" unicode="U" horiz-adv-x="545" 
d="M102.5 38.5q-49.5 52.5 -49.5 136.5q0 26 4 49l84 476h82l-85 -481q-4 -28 -4 -40q0 -54 28 -85.5t80 -31.5q66 0 103.5 38t51.5 119l85 481h82l-84 -476q-21 -120 -80.5 -179t-164.5 -59q-83 0 -132.5 52.5z" />
    <glyph glyph-name="V" unicode="V" horiz-adv-x="503" 
d="M257 0h-98l-65 700h85l45 -593l254 593h91z" />
    <glyph glyph-name="W" unicode="W" horiz-adv-x="656" 
d="M176 0h-95l26 700h77l-28 -563l192 481h85l24 -481l171 563h81l-221 -700h-92l-24 497z" />
    <glyph glyph-name="X" unicode="X" horiz-adv-x="463" 
d="M74 0h-98l231 367l-97 333h86l68 -257l160 257h93l-221 -341l103 -359h-84l-79 278z" />
    <glyph glyph-name="Y" unicode="Y" horiz-adv-x="477" 
d="M235 0h-82l52 293l-113 407h90l79 -311l186 311h98l-258 -407z" />
    <glyph glyph-name="Z" unicode="Z" horiz-adv-x="436" 
d="M354 0h-366l14 75l363 550h-257l14 75h345l-14 -75l-362 -550h277z" />
    <glyph glyph-name="bracketleft" unicode="[" horiz-adv-x="292" 
d="M185 -140h-187l158 900h187l-13 -73h-109l-132 -754h109z" />
    <glyph glyph-name="backslash" unicode="\" horiz-adv-x="308" 
d="M224 -140h-77l-41 900h77z" />
    <glyph glyph-name="bracketright" unicode="]" horiz-adv-x="290" 
d="M156 -140h-186l13 73h108l132 754h-108l13 73h186z" />
    <glyph glyph-name="asciicircum" unicode="^" horiz-adv-x="395" 
d="M139 431h-81l178 269h82l84 -269h-72l-61 205z" />
    <glyph glyph-name="underscore" unicode="_" horiz-adv-x="408" 
d="M316 -100h-346l12 66h346z" />
    <glyph glyph-name="grave" unicode="`" horiz-adv-x="192" 
d="M234 577h-59l-75 149h89z" />
    <glyph glyph-name="a" unicode="a" horiz-adv-x="477" 
d="M103 10.5q-34 22.5 -53 62t-19 87.5q0 25 4 45l17 94q19 104 72.5 156.5t137.5 52.5q41 0 71.5 -18t45.5 -46l9 52h74l-88 -496h-74l10 56q-23 -34 -54.5 -51t-76.5 -17q-42 0 -76 22.5zM292 95.5q34 36.5 46 106.5l16 92q3 18 3 33q0 50 -26.5 80t-70.5 30
q-51 0 -85 -36t-47 -107l-16 -92q-3 -18 -3 -34q0 -50 27 -79.5t70 -29.5q52 0 86 36.5z" />
    <glyph glyph-name="b" unicode="b" horiz-adv-x="478" 
d="M145 5.5q-30 17.5 -45 48.5l-10 -54h-75l124 700h75l-45 -256q17 28 50.5 46t75.5 18q69 0 111 -44t42 -120q0 -21 -5 -53l-16 -89q-39 -214 -212 -214q-40 0 -70 17.5zM349 202l16 92q3 18 3 34q0 50 -26.5 79.5t-69.5 29.5q-50 0 -85 -34.5t-48 -108.5l-16 -92
q-3 -19 -3 -37q0 -49 25.5 -77.5t67.5 -28.5q111 0 136 143z" />
    <glyph glyph-name="c" unicode="c" horiz-adv-x="450" 
d="M76 37.5q-44 49.5 -44 124.5q0 24 4 44l16 92q17 98 74.5 154t145.5 56q73 0 113.5 -41t46.5 -111l-73 -22q-4 49 -28 76t-67 27q-53 0 -88.5 -36.5t-47.5 -105.5l-16 -94q-4 -28 -4 -38q0 -49 25.5 -76.5t67.5 -27.5q46 0 75.5 25t50.5 79l68 -22q-54 -153 -204 -153
q-71 0 -115 49.5z" />
    <glyph glyph-name="d" unicode="d" horiz-adv-x="477" 
d="M103 10.5q-34 22.5 -53 62t-19 87.5q0 25 4 45l17 94q19 104 72.5 156.5t137.5 52.5q41 0 71.5 -18t45.5 -46l45 256h74l-124 -700h-74l10 56q-23 -34 -54.5 -51t-76.5 -17q-42 0 -76 22.5zM292 95.5q34 36.5 46 106.5l16 92q3 18 3 33q0 50 -26.5 80t-70.5 30
q-51 0 -85 -36t-47 -107l-16 -92q-3 -18 -3 -34q0 -50 27 -79.5t70 -29.5q52 0 86 36.5z" />
    <glyph glyph-name="e" unicode="e" horiz-adv-x="456" 
d="M381 461q44 -47 44 -123q0 -24 -4 -44l-10 -59h-294l-6 -36q-4 -28 -4 -39q0 -49 24.5 -76.5t65.5 -27.5q46 0 74.5 24t46.5 71l67 -21q-28 -71 -73 -106.5t-121 -35.5q-72 0 -116 48.5t-44 123.5q0 25 4 45l16 87q19 104 74 160t142 56q70 0 114 -47zM128 293h220l2 14
q3 15 3 30q0 47 -26 75.5t-70 28.5q-51 0 -83.5 -36.5t-44.5 -105.5z" />
    <glyph glyph-name="f" unicode="f" horiz-adv-x="312" 
d="M253.5 625q-19.5 -18 -25.5 -52l-14 -77h123l-12 -66h-122l-76 -430h-75l76 430h-78l12 66h78l13 76q13 73 50 106.5t104 33.5q31 0 66 -11l-13 -71q-17 7 -29 10t-28 3q-30 0 -49.5 -18z" />
    <glyph glyph-name="g" unicode="g" horiz-adv-x="485" 
d="M50.5 -176q-43.5 40 -56.5 106l71 25q9 -47 35.5 -75t68.5 -28q57 0 90 33.5t46 104.5l15 84q-21 -33 -53.5 -50.5t-82.5 -17.5q-41 0 -75.5 21.5t-54 60.5t-19.5 90q0 25 4 46l13 75q18 104 74.5 156.5t137.5 52.5q44 0 76.5 -18.5t44.5 -48.5l10 55h75l-89 -503
q-18 -105 -71 -157t-149 -52q-67 0 -110.5 40zM301 115q36 38 49 108l12 68q3 20 3 36q0 51 -27.5 80.5t-74.5 29.5q-54 0 -88 -37t-47 -109l-12 -68q-4 -28 -4 -38q0 -51 26.5 -79.5t72.5 -28.5q54 0 90 38z" />
    <glyph glyph-name="h" unicode="h" horiz-adv-x="465" 
d="M15 0l124 700h75l-45 -253q17 28 48.5 44.5t75.5 16.5q59 0 95 -37t36 -99q0 -17 -3 -37l-59 -335h-75l58 330q2 16 2 24q0 38 -22.5 61.5t-60.5 23.5q-45 0 -76 -29t-40 -80l-58 -330h-75z" />
    <glyph glyph-name="i" unicode="i" 
d="M128 608.5q-17 16.5 -17 39.5q0 24 16.5 40t40.5 16q23 0 39.5 -16t16.5 -40q0 -23 -16.5 -39.5t-39.5 -16.5t-40 16.5zM91 0h-75l87 496h75z" />
    <glyph glyph-name="j" unicode="j" 
d="M128 608.5q-17 16.5 -17 39.5q0 24 16.5 40t40.5 16q23 0 39.5 -16t16.5 -40q0 -23 -16.5 -39.5t-39.5 -16.5t-40 16.5zM-113 -203l12 70q23 -10 44 -10q25 0 39 15t20 49l101 575h75l-101 -573q-13 -73 -45.5 -104t-87.5 -31q-36 0 -57 9z" />
    <glyph glyph-name="k" unicode="k" horiz-adv-x="401" 
d="M330 496h88l-202 -250l114 -246h-78l-103 220h-20l-39 -220h-75l124 700h75l-75 -424h17z" />
    <glyph glyph-name="l" unicode="l" horiz-adv-x="224" 
d="M55 11q-23 23 -23 66q0 15 3 31l104 592h75l-105 -593q-1 -4 -1 -12q0 -17 9 -27.5t24 -10.5q18 0 37 10l-13 -72q-24 -7 -49 -7q-38 0 -61 23z" />
    <glyph glyph-name="m" unicode="m" horiz-adv-x="647" 
d="M15 0l88 496h74l-8 -43q16 24 44.5 39.5t62.5 15.5q37 0 61.5 -16.5t36.5 -45.5q19 29 51 45.5t73 16.5q52 0 83 -31t31 -81q0 -15 -3 -30l-65 -366h-74l63 355q2 14 2 20q0 30 -17.5 47.5t-50.5 17.5q-34 0 -57 -23t-30 -62l-63 -355h-74l63 355q2 14 2 20
q0 30 -18 47.5t-50 17.5q-34 0 -57.5 -23t-30.5 -62l-63 -355h-74z" />
    <glyph glyph-name="n" unicode="n" horiz-adv-x="459" 
d="M15 0l88 496h75l-9 -50q16 29 49 45.5t73 16.5q60 0 94 -35.5t34 -94.5q0 -17 -3 -37l-60 -341h-75l59 331q2 18 2 25q0 38 -21.5 60.5t-60.5 22.5q-45 0 -74 -28t-38 -81l-58 -330h-75z" />
    <glyph glyph-name="o" unicode="o" horiz-adv-x="469" 
d="M77.5 35.5q-46.5 47.5 -46.5 123.5q0 24 4 45l16 88q19 104 76.5 160t144.5 56q73 0 119.5 -47.5t46.5 -123.5q0 -24 -4 -45l-16 -88q-19 -104 -76.5 -160t-145.5 -56q-72 0 -118.5 47.5zM293 95.5q35 36.5 47 106.5l16 92q3 18 3 35q0 50 -26 79t-68 29q-55 0 -90 -36.5
t-47 -106.5l-16 -92q-3 -18 -3 -35q0 -50 26 -79t68 -29q55 0 90 36.5z" />
    <glyph glyph-name="p" unicode="p" horiz-adv-x="478" 
d="M-21 -204l124 700h75l-10 -57q22 31 55 50t75 19q68 0 109 -44t41 -120q0 -23 -5 -53l-18 -98q-38 -205 -208 -205q-42 0 -73.5 19t-43.5 48l-46 -259h-75zM349 202l16 92q3 21 3 38q0 51 -25.5 78t-69.5 27q-52 0 -87 -37t-47 -106l-16 -92q-3 -18 -3 -34
q0 -50 26.5 -79.5t68.5 -29.5q109 0 134 143z" />
    <glyph glyph-name="q" unicode="q" horiz-adv-x="477" 
d="M309 49q-42 -61 -126 -61q-67 0 -110 45.5t-43 121.5q0 20 5 50l18 101q17 94 71.5 148t135.5 54q43 0 74.5 -18.5t43.5 -47.5l10 54h74l-124 -700h-74zM292 95.5q34 36.5 46 106.5l16 92q3 20 3 37q0 51 -26 78.5t-70 27.5q-53 0 -87 -36.5t-46 -106.5l-16 -92
q-3 -19 -3 -37q0 -51 26 -78.5t69 -27.5q54 0 88 36.5z" />
    <glyph glyph-name="r" unicode="r" horiz-adv-x="322" 
d="M15 0l88 496h75l-9 -51q16 30 47.5 46.5t70.5 16.5q23 0 46 -7l-14 -75q-24 13 -56 13q-42 0 -74 -32t-41 -82l-58 -325h-75z" />
    <glyph glyph-name="s" unicode="s" horiz-adv-x="396" 
d="M66 23.5q-38 37.5 -47 96.5l70 22q5 -40 28 -64.5t60 -24.5q39 0 62 21.5t23 59.5q0 31 -19.5 52t-65.5 45q-100 52 -100 140q0 62 41.5 98.5t109.5 36.5q60 0 97 -30t45 -84l-66 -23q-6 35 -28 54.5t-54 19.5q-33 0 -54 -19t-21 -48q0 -28 19 -49.5t62 -44.5
q55 -29 81.5 -61t26.5 -81q0 -69 -46 -111.5t-118 -42.5q-68 0 -106 37.5z" />
    <glyph glyph-name="t" unicode="t" horiz-adv-x="322" 
d="M209 430l-55 -312q-2 -10 -2 -16q0 -21 12.5 -33t34.5 -12q17 0 31.5 3.5t32.5 12.5l-12 -70q-35 -15 -81 -15q-44 0 -69.5 26.5t-25.5 71.5q0 13 3 28l56 316h-78l12 66h78l16 91l81 37l-23 -128h118l-12 -66h-117z" />
    <glyph glyph-name="u" unicode="u" horiz-adv-x="459" 
d="M74 23.5q-34 35.5 -34 94.5q0 18 3 37l60 341h75l-59 -331q-2 -18 -2 -25q0 -38 21.5 -60.5t60.5 -22.5q45 0 74 28t38 81l58 330h75l-88 -496h-75l9 50q-16 -29 -49 -45.5t-73 -16.5q-60 0 -94 35.5z" />
    <glyph glyph-name="v" unicode="v" horiz-adv-x="416" 
d="M206 0h-82l-70 496h78l48 -397l187 397h83z" />
    <glyph glyph-name="w" unicode="w" horiz-adv-x="589" 
d="M159 0h-82l-18 496h72l6 -383l159 383h81l23 -383l142 383h76l-192 -496h-82l-21 403z" />
    <glyph glyph-name="x" unicode="x" horiz-adv-x="387" 
d="M57 0h-86l184 265l-77 231h76l54 -169l116 169h86l-169 -234l87 -262h-78l-63 199z" />
    <glyph glyph-name="y" unicode="y" horiz-adv-x="429" 
d="M376 496h81l-305 -591q-24 -47 -44.5 -71.5t-47 -35t-67.5 -10.5q-33 0 -61 10l15 75q24 -15 57 -15q27 0 46.5 16.5t40.5 58.5l37 73l-70 490h78l47 -382z" />
    <glyph glyph-name="z" unicode="z" horiz-adv-x="375" 
d="M297 0h-316l13 66l292 364h-213l13 66h294l-13 -66l-291 -364h234z" />
    <glyph glyph-name="braceleft" unicode="{" horiz-adv-x="307" 
d="M131 -140q-44 0 -70 24.5t-26 67.5q0 13 3 28l45 249q1 4 1 13q0 33 -39 33h-33l12 70h33q46 0 54 46l46 257q10 56 41.5 84t90.5 28h69l-13 -73h-58q-21 0 -35 -12t-18 -33l-44 -247q-7 -42 -22.5 -60t-46.5 -25q20 -5 30.5 -21.5t10.5 -41.5q0 -6 -2 -22l-44 -247
q-1 -3 -1 -10q0 -16 10.5 -25.5t29.5 -9.5h58l-13 -73h-69z" />
    <glyph glyph-name="bar" unicode="|" horiz-adv-x="214" 
d="M68 -204h-82l160 904h82z" />
    <glyph glyph-name="braceright" unicode="}" horiz-adv-x="306" 
d="M-30 -140l13 73h58q21 0 35 12t18 33l44 247q7 42 22.5 60t46.5 25q-20 5 -30.5 21.5t-10.5 41.5q0 6 2 22l44 247q1 3 1 10q0 16 -10.5 25.5t-29.5 9.5h-58l13 73h69q44 0 70 -24.5t26 -67.5q0 -13 -3 -28l-45 -249q-1 -4 -1 -13q0 -33 39 -33h33l-12 -70h-33
q-46 0 -54 -46l-46 -257q-10 -56 -41.5 -84t-90.5 -28h-69z" />
    <glyph glyph-name="asciitilde" unicode="~" horiz-adv-x="397" 
d="M28 269q31 96 110 96q22 0 38.5 -7t42.5 -21q19 -12 32.5 -17.5t28.5 -5.5q41 0 56 50l55 -19q-31 -96 -112 -96q-22 0 -38 6.5t-44 21.5q-19 12 -32.5 17.5t-28.5 5.5q-20 0 -34 -13t-19 -37z" />
    <glyph glyph-name="uni00A0" unicode="&#xa0;" horiz-adv-x="185" 
 />
    <glyph glyph-name="exclamdown" unicode="&#xa1;" horiz-adv-x="223" 
d="M105 407q-17 17 -17 41q0 23 17 40.5t41 17.5t41 -17.5t17 -40.5q0 -24 -17 -41t-41 -17t-41 17zM71 -204h-80l94 494h69z" />
    <glyph glyph-name="cent" unicode="&#xa2;" horiz-adv-x="450" 
d="M294.5 186q29.5 25 50.5 79l68 -22q-47 -136 -170 -151l-17 -92h-71l17 94q-56 13 -89 59.5t-33 110.5q0 24 4 44l16 92q15 90 65.5 145t127.5 64l16 91h71l-17 -94q53 -12 82.5 -50.5t34.5 -97.5l-73 -22q-4 49 -28 76t-67 27q-53 0 -88.5 -36.5t-47.5 -105.5l-16 -94
q-4 -28 -4 -38q0 -49 25.5 -76.5t67.5 -27.5q46 0 75.5 25z" />
    <glyph glyph-name="sterling" unicode="&#xa3;" horiz-adv-x="442" 
d="M197 598.5q-31 -41.5 -31 -114.5q0 -42 7 -100l4 -43h173l-10 -61h-160q-1 -73 -20 -115.5t-67 -92.5h287l-13 -72h-375l12 68q51 51 75.5 99.5t25.5 112.5h-66l10 61h52l-6 46q-1 7 -5 37t-4 60q0 104 56.5 166t156.5 62q78 0 118.5 -43t45.5 -124l-76 -19
q-5 59 -29 86.5t-71 27.5q-59 0 -90 -41.5z" />
    <glyph glyph-name="currency" unicode="&#xa4;" horiz-adv-x="561" 
d="M468 335q0 -56 -22 -102l69 -68l-52 -52l-65 64q-42 -31 -100 -31t-100 31l-64 -64l-52 52l68 68q-22 46 -22 102v30q0 56 22 102l-68 68l52 52l64 -64q42 31 100 31t100 -31l65 64l52 -52l-69 -68q22 -46 22 -102v-30zM367.5 247.5q25.5 31.5 25.5 84.5v36
q0 53 -25.5 84.5t-69.5 31.5t-69 -31t-25 -85v-36q0 -54 25 -85t69 -31t69.5 31.5z" />
    <glyph glyph-name="yen" unicode="&#xa5;" horiz-adv-x="468" 
d="M447 700h94l-217 -336h92l-10 -61h-121l-13 -74h121l-11 -61h-121l-30 -168h-82l30 168h-121l11 61h121l13 74h-121l10 61h93l-97 336h89l80 -308z" />
    <glyph glyph-name="brokenbar" unicode="&#xa6;" horiz-adv-x="214" 
d="M164 336h-82l64 364h82zM68 -204h-82l64 364h82z" />
    <glyph glyph-name="section" unicode="&#xa7;" horiz-adv-x="488" 
d="M408.5 338q39.5 -41 39.5 -101q0 -53 -22 -88t-64 -61q35 -41 35 -94q0 -64 -28.5 -112t-80 -74t-118.5 -26q-76 0 -122.5 41t-60.5 111l79 34q8 -52 38 -81.5t76 -29.5q62 0 98 34t36 89q0 43 -28.5 70.5t-92.5 43.5q-70 18 -110.5 59.5t-40.5 102.5q0 95 88 149
q-41 50 -41 111q0 90 62 143t163 53q146 0 178 -139l-75 -33q-24 97 -116 97q-53 0 -91.5 -30.5t-38.5 -82.5q0 -43 31.5 -74.5t93.5 -49.5q73 -21 112.5 -62zM353 177q13 24 13 55q0 37 -29.5 60.5t-97.5 43.5q-35 11 -61 27q-55 -41 -55 -97q0 -37 28.5 -63.5t93.5 -44.5
q38 -11 67 -28q28 23 41 47z" />
    <glyph glyph-name="dieresis" unicode="&#xa8;" horiz-adv-x="315" 
d="M111 609.5q-16 16.5 -16 38.5q0 23 16 39t39 16t39 -16t16 -39t-16 -39t-39 -16t-39 16.5zM266 609.5q-16 16.5 -16 38.5q0 23 16 39t39 16t39 -16t16 -39t-16 -39t-39 -16t-39 16.5z" />
    <glyph glyph-name="copyright" unicode="&#xa9;" horiz-adv-x="700" 
d="M212 28.5q-67 42.5 -104 118t-37 172.5v62q0 97 37 172.5t104 118t155 42.5t155.5 -42.5t104.5 -118t37 -172.5v-62q0 -97 -37 -172.5t-104.5 -118t-155.5 -42.5t-155 42.5zM491 73q55 34 86 97t31 146v68q0 83 -31 146t-86 97t-124 34t-123.5 -34t-85.5 -97t-31 -146
v-68q0 -83 31 -146t85.5 -97t123.5 -34t124 34zM254 192q-43 50 -43 134v48q0 83 43 133.5t112 50.5q52 0 89 -30.5t47 -85.5l-48 -14q-8 35 -32 56.5t-56 21.5q-47 0 -73 -34.5t-26 -95.5v-52q0 -62 26 -95.5t73 -33.5q36 0 58 21t32 57l50 -15q-15 -55 -52 -85.5
t-88 -30.5q-69 0 -112 50z" />
    <glyph glyph-name="ordfeminine" unicode="&#xaa;" horiz-adv-x="318" 
d="M98 409q-28 35 -28 86q0 15 3 31l7 38q13 70 49.5 106.5t93.5 36.5q25 0 45.5 -12.5t30.5 -31.5l6 36h56l-56 -317h-56l7 39q-30 -47 -87 -47q-43 0 -71 35zM245.5 453.5q21.5 25.5 29.5 71.5l6 32q2 14 2 22q0 32 -17.5 53t-44.5 21q-33 0 -55 -24.5t-29 -71.5l-5 -32
q-2 -16 -2 -24q0 -35 17 -54t44 -19q33 0 54.5 25.5z" />
    <glyph glyph-name="guillemotleft" unicode="&#xab;" horiz-adv-x="366" 
d="M314 120h-71l-57 176l113 176h77l-115 -179zM170 120h-71l-57 176l113 176h77l-115 -179z" />
    <glyph glyph-name="logicalnot" unicode="&#xac;" horiz-adv-x="397" 
d="M31 277l13 71h344l-38 -215h-72l25 144h-272z" />
    <glyph glyph-name="uni00AD" unicode="&#xad;" horiz-adv-x="303" 
d="M277 280h-240l12 66h240z" />
    <glyph glyph-name="registered" unicode="&#xae;" horiz-adv-x="336" 
d="M135 443q-33 39 -33 99v36q0 61 33 99.5t88 38.5t88 -39t33 -99v-36q0 -60 -33 -99t-88 -39t-88 39zM288.5 461q25.5 29 25.5 79v40q0 50 -25.5 79t-65.5 29q-41 0 -66.5 -29t-25.5 -79v-40q0 -50 25.5 -79t66.5 -29q40 0 65.5 29zM176 466v188h50q23 0 36.5 -14
t13.5 -35q0 -29 -25 -44q14 -5 17 -25l9 -70h-28l-7 68q-1 16 -18 16h-20v-84h-28zM227 573q22 0 22 29t-22 29h-23v-58h23z" />
    <glyph glyph-name="macron" unicode="&#xaf;" horiz-adv-x="249" 
d="M293 621h-205l10 61h205z" />
    <glyph glyph-name="degree" unicode="&#xb0;" horiz-adv-x="310" 
d="M125 483.5q-29 30.5 -29 72.5q0 64 38 104t97 40q42 0 70.5 -31t28.5 -73q0 -63 -38 -103t-97 -40q-41 0 -70 30.5zM253.5 528.5q18.5 22.5 18.5 60.5q0 25 -13.5 41.5t-35.5 16.5q-32 0 -50.5 -23t-18.5 -61q0 -25 13.5 -41t35.5 -16q32 0 50.5 22.5z" />
    <glyph glyph-name="plusminus" unicode="&#xb1;" horiz-adv-x="395" 
d="M274 481l-22 -121h137l-12 -70h-137l-22 -122h-71l22 122h-136l12 70h136l22 121h71zM326 0h-344l12 71h344z" />
    <glyph glyph-name="uni00B2" unicode="&#xb2;" horiz-adv-x="252" 
d="M45 350l9 54l134 123q26 23 36 42.5t10 41.5q0 19 -11 30t-30 11q-44 0 -57 -52l-55 9q11 47 39 72t79 25q46 0 72.5 -26t26.5 -63q0 -39 -17.5 -67t-55.5 -61l-94 -85h133l-9 -54h-210z" />
    <glyph glyph-name="uni00B3" unicode="&#xb3;" horiz-adv-x="264" 
d="M79.5 372.5q-29.5 28.5 -28.5 76.5l59 8q1 -28 13 -43.5t35 -15.5q52 0 59 57l2 17q6 53 -66 53l7 44l74 80h-137l9 51h203l-9 -51l-81 -84q28 -6 45.5 -26.5t17.5 -52.5q0 -12 -1 -18l-2 -14q-16 -110 -125 -110q-45 0 -74.5 28.5z" />
    <glyph glyph-name="acute" unicode="&#xb4;" horiz-adv-x="192" 
d="M140 577h-66l91 149h95z" />
    <glyph glyph-name="uni00B5" unicode="&#xb5;" horiz-adv-x="459" 
d="M-21 -204l124 700h75l-59 -331q-2 -18 -2 -25q0 -38 21.5 -60.5t60.5 -22.5q45 0 74 28t38 81l58 330h75l-88 -496h-75l9 50q-16 -29 -49 -45.5t-73 -16.5q-24 0 -44 8t-31 22l-39 -222h-75z" />
    <glyph glyph-name="paragraph" unicode="&#xb6;" horiz-adv-x="598" 
d="M183 -204l96 541h-32q-74 0 -120 42.5t-46 113.5q0 94 60 150.5t170 56.5h343l-13 -70h-64l-147 -834h-78l147 834h-91l-147 -834h-78z" />
    <glyph glyph-name="periodcentered" unicode="&#xb7;" horiz-adv-x="223" 
d="M89 309.5q-17 17.5 -17 40.5q0 24 17 41t41 17t40.5 -17t16.5 -41t-16.5 -41t-40.5 -17t-41 17.5z" />
    <glyph glyph-name="cedilla" unicode="&#xb8;" horiz-adv-x="190" 
d="M95 -62q19 -21 19 -53q0 -47 -26.5 -74t-77.5 -27q-22 0 -41.5 7t-32.5 18l30 41q19 -17 46 -17q22 0 34 12t12 34q0 16 -9 26t-24 10q-22 0 -33 -18l-38 13l36 102h50l-24 -58q15 5 29 5q31 0 50 -21z" />
    <glyph glyph-name="uni00B9" unicode="&#xb9;" horiz-adv-x="179" 
d="M166 350h-65l49 281l-80 -49l12 69l81 49h65z" />
    <glyph glyph-name="ordmasculine" unicode="&#xba;" horiz-adv-x="312" 
d="M103 406q-31 32 -31 82q0 18 2 27l9 52q12 66 49 103t99 37q50 0 81 -31.5t31 -81.5q0 -18 -2 -27l-9 -52q-12 -66 -49.5 -103.5t-99.5 -37.5q-49 0 -80 32zM271 512l10 57q2 12 2 18q0 29 -16 47t-42 18q-67 0 -82 -83l-10 -57q-2 -12 -2 -18q0 -29 16 -47t42 -18
q67 0 82 83z" />
    <glyph glyph-name="guillemotright" unicode="&#xbb;" horiz-adv-x="366" 
d="M226 120h-76l117 179l-55 173h72l56 -176zM82 120h-76l117 179l-55 173h72l56 -176z" />
    <glyph glyph-name="onequarter" unicode="&#xbc;" horiz-adv-x="609" 
d="M166 350h-65l49 281l-80 -49l12 69l81 49h65zM130 0h-75l467 700h74zM511 0h-60l14 76h-136l9 53l175 221h60l-39 -221h43l-9 -53h-43zM495 250l-96 -121h75z" />
    <glyph glyph-name="onehalf" unicode="&#xbd;" horiz-adv-x="658" 
d="M166 350h-65l49 281l-80 -49l12 69l81 49h65zM130 0h-75l467 700h74zM389 0l9 54l134 123q26 23 36 42.5t10 41.5q0 19 -11 30t-30 11q-44 0 -57 -52l-55 9q11 47 39 72t79 25q46 0 72.5 -26t26.5 -63q0 -39 -17.5 -67t-55.5 -61l-94 -85h133l-9 -54h-210z" />
    <glyph glyph-name="threequarters" unicode="&#xbe;" horiz-adv-x="644" 
d="M79.5 372.5q-29.5 28.5 -28.5 76.5l59 8q1 -28 13 -43.5t35 -15.5q52 0 59 57l2 17q6 53 -66 53l7 44l74 80h-137l9 51h203l-9 -51l-81 -84q28 -6 45.5 -26.5t17.5 -52.5q0 -12 -1 -18l-2 -14q-16 -110 -125 -110q-45 0 -74.5 28.5zM165 0h-75l467 700h74zM546 0h-60
l14 76h-136l9 53l175 221h60l-39 -221h43l-9 -53h-43zM530 250l-96 -121h75z" />
    <glyph glyph-name="questiondown" unicode="&#xbf;" horiz-adv-x="416" 
d="M195.5 409q-16.5 17 -16.5 41t16.5 41t40.5 17t41 -17.5t17 -40.5q0 -24 -17 -41t-41 -17t-40.5 17zM20 -174.5q-44 41.5 -44 106.5q0 53 27 95t81 92q45 42 62.5 70.5t24.5 75.5l5 32h72l-7 -42q-11 -63 -33.5 -98.5t-73.5 -80.5q-41 -36 -60.5 -67t-19.5 -70
q0 -38 25.5 -61.5t67.5 -23.5q45 0 79 29.5t50 88.5l65 -18q-21 -80 -70.5 -125t-132.5 -45q-74 0 -118 41.5z" />
    <glyph glyph-name="Agrave" unicode="&#xc0;" horiz-adv-x="505" 
d="M447 0h-82l-14 168h-219l-73 -168h-89l313 700h97zM316 595l-153 -354h182zM378 781h-59l-75 149h89z" />
    <glyph glyph-name="Aacute" unicode="&#xc1;" horiz-adv-x="505" 
d="M447 0h-82l-14 168h-219l-73 -168h-89l313 700h97zM316 595l-153 -354h182zM380 781h-66l91 149h95z" />
    <glyph glyph-name="Acircumflex" unicode="&#xc2;" horiz-adv-x="505" 
d="M447 0h-82l-14 168h-219l-73 -168h-89l313 700h97zM316 595l-153 -354h182zM289 781h-65l114 149h69l62 -149h-59l-47 84z" />
    <glyph glyph-name="Atilde" unicode="&#xc3;" horiz-adv-x="505" 
d="M447 0h-82l-14 168h-219l-73 -168h-89l313 700h97zM316 595l-153 -354h182zM229 831q8 34 30 53t54 19q17 0 30 -5.5t28 -15.5q8 -5 17 -9.5t18 -4.5q16 0 26 8.5t17 26.5l44 -16q-8 -34 -30.5 -53t-54.5 -19q-17 0 -30 5.5t-28 15.5q-9 5 -18 9.5t-17 4.5
q-16 0 -25.5 -8.5t-15.5 -26.5z" />
    <glyph glyph-name="Adieresis" unicode="&#xc4;" horiz-adv-x="505" 
d="M447 0h-82l-14 168h-219l-73 -168h-89l313 700h97zM316 595l-153 -354h182zM244 813.5q-16 16.5 -16 38.5q0 23 16 39t39 16t39 -16t16 -39t-16 -39t-39 -16t-39 16.5zM399 813.5q-16 16.5 -16 38.5q0 23 16 39t39 16t39 -16t16 -39t-16 -39t-39 -16t-39 16.5z" />
    <glyph glyph-name="Aring" unicode="&#xc5;" horiz-adv-x="505" 
d="M447 0h-82l-14 168h-219l-73 -168h-89l313 700h97zM316 595l-153 -354h182zM294 787.5q-20 22.5 -20 56.5q0 11 1 17l2 13q7 45 32.5 69t64.5 24q35 0 55 -22.5t20 -56.5q0 -11 -1 -17l-2 -13q-7 -45 -32 -69t-64 -24q-36 0 -56 22.5zM381.5 826q10.5 12 13.5 33l2 14
q1 4 1 10q0 16 -7.5 25.5t-20.5 9.5q-17 0 -28 -12t-14 -33l-2 -14q-1 -3 -1 -10q0 -16 8 -25.5t21 -9.5q17 0 27.5 12z" />
    <glyph glyph-name="AE" unicode="&#xc6;" horiz-adv-x="728" 
d="M758 700l-14 -75h-262l-40 -227h221l-13 -74h-221l-43 -249h264l-14 -75h-346l32 179h-166l-93 -179h-93l376 700h412zM194 252h141l66 373h-13z" />
    <glyph glyph-name="Ccedilla" unicode="&#xc7;" horiz-adv-x="525" 
d="M346.5 95q35.5 34 58.5 106l71 -20q-33 -101 -86 -148t-151 -47h-10l-13 -32q15 5 29 5q31 0 50 -21t19 -53q0 -47 -26.5 -74t-77.5 -27q-22 0 -41.5 7t-32.5 18l30 41q19 -17 46 -17q22 0 34 12t12 34q0 16 -9 26t-24 10q-22 0 -33 -18l-38 13l29 83q-62 17 -98 72
t-36 137q0 33 6 70l28 160q49 282 270 282q86 0 132.5 -51.5t50.5 -144.5l-77 -18q-3 64 -32 101.5t-85 37.5q-68 0 -113 -50.5t-62 -147.5l-31 -176q-5 -26 -5 -58q0 -68 30.5 -107t83.5 -39q66 0 101.5 34z" />
    <glyph glyph-name="Egrave" unicode="&#xc8;" horiz-adv-x="460" 
d="M368 0h-346l124 700h344l-14 -75h-262l-40 -227h222l-13 -74h-222l-43 -249h264zM365 781h-59l-75 149h89z" />
    <glyph glyph-name="Eacute" unicode="&#xc9;" horiz-adv-x="460" 
d="M368 0h-346l124 700h344l-14 -75h-262l-40 -227h222l-13 -74h-222l-43 -249h264zM367 781h-66l91 149h95z" />
    <glyph glyph-name="Ecircumflex" unicode="&#xca;" horiz-adv-x="460" 
d="M368 0h-346l124 700h344l-14 -75h-262l-40 -227h222l-13 -74h-222l-43 -249h264zM276 781h-65l114 149h69l62 -149h-59l-47 84z" />
    <glyph glyph-name="Edieresis" unicode="&#xcb;" horiz-adv-x="460" 
d="M368 0h-346l124 700h344l-14 -75h-262l-40 -227h222l-13 -74h-222l-43 -249h264zM231 813.5q-16 16.5 -16 38.5q0 23 16 39t39 16t39 -16t16 -39t-16 -39t-39 -16t-39 16.5zM386 813.5q-16 16.5 -16 38.5q0 23 16 39t39 16t39 -16t16 -39t-16 -39t-39 -16t-39 16.5z" />
    <glyph glyph-name="Igrave" unicode="&#xcc;" horiz-adv-x="214" 
d="M104 0h-82l124 700h82zM232 781h-59l-75 149h89z" />
    <glyph glyph-name="Iacute" unicode="&#xcd;" horiz-adv-x="214" 
d="M104 0h-82l124 700h82zM234 781h-66l91 149h95z" />
    <glyph glyph-name="Icircumflex" unicode="&#xce;" horiz-adv-x="214" 
d="M104 0h-82l124 700h82zM143 781h-65l114 149h69l62 -149h-59l-47 84z" />
    <glyph glyph-name="Idieresis" unicode="&#xcf;" horiz-adv-x="214" 
d="M104 0h-82l124 700h82zM98 813.5q-16 16.5 -16 38.5q0 23 16 39t39 16t39 -16t16 -39t-16 -39t-39 -16t-39 16.5zM253 813.5q-16 16.5 -16 38.5q0 23 16 39t39 16t39 -16t16 -39t-16 -39t-39 -16t-39 16.5z" />
    <glyph glyph-name="Eth" unicode="&#xd0;" horiz-adv-x="494" 
d="M304 700q96 0 150 -55t54 -151q0 -30 -6 -63l-28 -162q-24 -140 -96.5 -204.5t-197.5 -64.5h-158l55 313h-71l14 74h71l55 313h158zM419 430q5 32 5 53q0 70 -37 106t-102 36h-71l-42 -238h105l-14 -74h-103l-42 -238h71q168 0 202 195z" />
    <glyph glyph-name="Ntilde" unicode="&#xd1;" horiz-adv-x="527" 
d="M101 0h-79l124 700h88l136 -520l92 520h79l-124 -700h-74l-146 547zM240 831q8 34 30 53t54 19q17 0 30 -5.5t28 -15.5q8 -5 17 -9.5t18 -4.5q16 0 26 8.5t17 26.5l44 -16q-8 -34 -30.5 -53t-54.5 -19q-17 0 -30 5.5t-28 15.5q-9 5 -18 9.5t-17 4.5q-16 0 -25.5 -8.5
t-15.5 -26.5z" />
    <glyph glyph-name="Ograve" unicode="&#xd2;" horiz-adv-x="565" 
d="M144.5 13q-44.5 27 -70 76.5t-25.5 115.5q0 32 6 66l28 158q26 148 94.5 216.5t176.5 68.5q57 0 102 -27t70.5 -76.5t25.5 -115.5q0 -31 -6 -66l-28 -158q-26 -148 -95 -216.5t-177 -68.5q-57 0 -101.5 27zM372.5 110.5q44.5 49.5 62.5 153.5l30 172q5 25 5 57
q0 69 -33 107.5t-92 38.5q-72 0 -116.5 -49.5t-62.5 -153.5l-30 -172q-5 -25 -5 -57q0 -69 33 -107.5t91 -38.5q73 0 117.5 49.5zM407 781h-59l-75 149h89z" />
    <glyph glyph-name="Oacute" unicode="&#xd3;" horiz-adv-x="565" 
d="M144.5 13q-44.5 27 -70 76.5t-25.5 115.5q0 32 6 66l28 158q26 148 94.5 216.5t176.5 68.5q57 0 102 -27t70.5 -76.5t25.5 -115.5q0 -31 -6 -66l-28 -158q-26 -148 -95 -216.5t-177 -68.5q-57 0 -101.5 27zM372.5 110.5q44.5 49.5 62.5 153.5l30 172q5 25 5 57
q0 69 -33 107.5t-92 38.5q-72 0 -116.5 -49.5t-62.5 -153.5l-30 -172q-5 -25 -5 -57q0 -69 33 -107.5t91 -38.5q73 0 117.5 49.5zM409 781h-66l91 149h95z" />
    <glyph glyph-name="Ocircumflex" unicode="&#xd4;" horiz-adv-x="565" 
d="M144.5 13q-44.5 27 -70 76.5t-25.5 115.5q0 32 6 66l28 158q26 148 94.5 216.5t176.5 68.5q57 0 102 -27t70.5 -76.5t25.5 -115.5q0 -31 -6 -66l-28 -158q-26 -148 -95 -216.5t-177 -68.5q-57 0 -101.5 27zM372.5 110.5q44.5 49.5 62.5 153.5l30 172q5 25 5 57
q0 69 -33 107.5t-92 38.5q-72 0 -116.5 -49.5t-62.5 -153.5l-30 -172q-5 -25 -5 -57q0 -69 33 -107.5t91 -38.5q73 0 117.5 49.5zM318 781h-65l114 149h69l62 -149h-59l-47 84z" />
    <glyph glyph-name="Otilde" unicode="&#xd5;" horiz-adv-x="565" 
d="M144.5 13q-44.5 27 -70 76.5t-25.5 115.5q0 32 6 66l28 158q26 148 94.5 216.5t176.5 68.5q57 0 102 -27t70.5 -76.5t25.5 -115.5q0 -31 -6 -66l-28 -158q-26 -148 -95 -216.5t-177 -68.5q-57 0 -101.5 27zM372.5 110.5q44.5 49.5 62.5 153.5l30 172q5 25 5 57
q0 69 -33 107.5t-92 38.5q-72 0 -116.5 -49.5t-62.5 -153.5l-30 -172q-5 -25 -5 -57q0 -69 33 -107.5t91 -38.5q73 0 117.5 49.5zM258 831q8 34 30 53t54 19q17 0 30 -5.5t28 -15.5q8 -5 17 -9.5t18 -4.5q16 0 26 8.5t17 26.5l44 -16q-8 -34 -30.5 -53t-54.5 -19
q-17 0 -30 5.5t-28 15.5q-9 5 -18 9.5t-17 4.5q-16 0 -25.5 -8.5t-15.5 -26.5z" />
    <glyph glyph-name="Odieresis" unicode="&#xd6;" horiz-adv-x="565" 
d="M144.5 13q-44.5 27 -70 76.5t-25.5 115.5q0 32 6 66l28 158q26 148 94.5 216.5t176.5 68.5q57 0 102 -27t70.5 -76.5t25.5 -115.5q0 -31 -6 -66l-28 -158q-26 -148 -95 -216.5t-177 -68.5q-57 0 -101.5 27zM372.5 110.5q44.5 49.5 62.5 153.5l30 172q5 25 5 57
q0 69 -33 107.5t-92 38.5q-72 0 -116.5 -49.5t-62.5 -153.5l-30 -172q-5 -25 -5 -57q0 -69 33 -107.5t91 -38.5q73 0 117.5 49.5zM273 813.5q-16 16.5 -16 38.5q0 23 16 39t39 16t39 -16t16 -39t-16 -39t-39 -16t-39 16.5zM428 813.5q-16 16.5 -16 38.5q0 23 16 39t39 16
t39 -16t16 -39t-16 -39t-39 -16t-39 16.5z" />
    <glyph glyph-name="multiply" unicode="&#xd7;" horiz-adv-x="395" 
d="M365 494l45 -54l-150 -128l104 -127l-54 -47l-105 127l-153 -130l-45 54l153 130l-102 124l55 48l102 -125z" />
    <glyph glyph-name="Oslash" unicode="&#xd8;" horiz-adv-x="565" 
d="M556 780l-62 -123q28 -29 43 -70.5t15 -92.5q0 -30 -6 -65l-28 -158q-26 -148 -95 -216.5t-177 -68.5q-44 0 -83 17l-42 -83h-76l62 122q-28 29 -43 70t-15 92q0 33 6 67l28 158q26 148 94.5 216.5t176.5 68.5q45 0 84 -17l42 83h76zM136 264q-5 -33 -5 -56q0 -50 17 -84
l255 503q-26 12 -58 12q-72 0 -116.5 -49.5t-62.5 -153.5zM465 436q5 33 5 56q0 50 -17 84l-255 -503q26 -12 57 -12q73 0 117.5 49.5t62.5 153.5z" />
    <glyph glyph-name="Ugrave" unicode="&#xd9;" horiz-adv-x="545" 
d="M102.5 38.5q-49.5 52.5 -49.5 136.5q0 26 4 49l84 476h82l-85 -481q-4 -28 -4 -40q0 -54 28 -85.5t80 -31.5q66 0 103.5 38t51.5 119l85 481h82l-84 -476q-21 -120 -80.5 -179t-164.5 -59q-83 0 -132.5 52.5zM398 781h-59l-75 149h89z" />
    <glyph glyph-name="Uacute" unicode="&#xda;" horiz-adv-x="545" 
d="M102.5 38.5q-49.5 52.5 -49.5 136.5q0 26 4 49l84 476h82l-85 -481q-4 -28 -4 -40q0 -54 28 -85.5t80 -31.5q66 0 103.5 38t51.5 119l85 481h82l-84 -476q-21 -120 -80.5 -179t-164.5 -59q-83 0 -132.5 52.5zM400 781h-66l91 149h95z" />
    <glyph glyph-name="Ucircumflex" unicode="&#xdb;" horiz-adv-x="545" 
d="M102.5 38.5q-49.5 52.5 -49.5 136.5q0 26 4 49l84 476h82l-85 -481q-4 -28 -4 -40q0 -54 28 -85.5t80 -31.5q66 0 103.5 38t51.5 119l85 481h82l-84 -476q-21 -120 -80.5 -179t-164.5 -59q-83 0 -132.5 52.5zM309 781h-65l114 149h69l62 -149h-59l-47 84z" />
    <glyph glyph-name="Udieresis" unicode="&#xdc;" horiz-adv-x="545" 
d="M102.5 38.5q-49.5 52.5 -49.5 136.5q0 26 4 49l84 476h82l-85 -481q-4 -28 -4 -40q0 -54 28 -85.5t80 -31.5q66 0 103.5 38t51.5 119l85 481h82l-84 -476q-21 -120 -80.5 -179t-164.5 -59q-83 0 -132.5 52.5zM264 813.5q-16 16.5 -16 38.5q0 23 16 39t39 16t39 -16
t16 -39t-16 -39t-39 -16t-39 16.5zM419 813.5q-16 16.5 -16 38.5q0 23 16 39t39 16t39 -16t16 -39t-16 -39t-39 -16t-39 16.5z" />
    <glyph glyph-name="Yacute" unicode="&#xdd;" horiz-adv-x="477" 
d="M235 0h-82l52 293l-113 407h90l79 -311l186 311h98l-258 -407zM365 781h-66l91 149h95z" />
    <glyph glyph-name="Thorn" unicode="&#xde;" horiz-adv-x="474" 
d="M22 0l124 700h82l-29 -161h103q71 0 114 -42.5t43 -117.5q0 -101 -59 -159.5t-164 -58.5h-103l-29 -161h-82zM244 234q66 0 99.5 36t33.5 100q0 47 -24.5 71.5t-68.5 24.5h-98l-40 -232h98z" />
    <glyph glyph-name="germandbls" unicode="&#xdf;" horiz-adv-x="476" 
d="M174 -7.5q-23 4.5 -37 10.5l13 74q31 -18 72 -18q52 0 82 30.5t41 92.5l7 39q3 18 3 34q0 46 -26.5 72.5t-76.5 26.5h-21l12 67h20q45 0 74 26.5t39 78.5l3 17q2 16 2 22q0 36 -23 57.5t-62 21.5q-43 0 -73 -29.5t-40 -87.5l-93 -527h-75l93 528q16 89 66.5 136.5
t129.5 47.5q69 0 110 -39t41 -100q0 -15 -3 -30l-2 -12q-10 -59 -36 -90.5t-69 -47.5q39 -15 62.5 -50.5t23.5 -83.5q0 -18 -3 -36l-8 -46q-33 -189 -199 -189q-24 0 -47 4.5z" />
    <glyph glyph-name="agrave" unicode="&#xe0;" horiz-adv-x="477" 
d="M103 10.5q-34 22.5 -53 62t-19 87.5q0 25 4 45l17 94q19 104 72.5 156.5t137.5 52.5q41 0 71.5 -18t45.5 -46l9 52h74l-88 -496h-74l10 56q-23 -34 -54.5 -51t-76.5 -17q-42 0 -76 22.5zM292 95.5q34 36.5 46 106.5l16 92q3 18 3 33q0 50 -26.5 80t-70.5 30
q-51 0 -85 -36t-47 -107l-16 -92q-3 -18 -3 -34q0 -50 27 -79.5t70 -29.5q52 0 86 36.5zM322 577h-59l-75 149h89z" />
    <glyph glyph-name="aacute" unicode="&#xe1;" horiz-adv-x="477" 
d="M103 10.5q-34 22.5 -53 62t-19 87.5q0 25 4 45l17 94q19 104 72.5 156.5t137.5 52.5q41 0 71.5 -18t45.5 -46l9 52h74l-88 -496h-74l10 56q-23 -34 -54.5 -51t-76.5 -17q-42 0 -76 22.5zM292 95.5q34 36.5 46 106.5l16 92q3 18 3 33q0 50 -26.5 80t-70.5 30
q-51 0 -85 -36t-47 -107l-16 -92q-3 -18 -3 -34q0 -50 27 -79.5t70 -29.5q52 0 86 36.5zM324 577h-66l91 149h95z" />
    <glyph glyph-name="acircumflex" unicode="&#xe2;" horiz-adv-x="477" 
d="M103 10.5q-34 22.5 -53 62t-19 87.5q0 25 4 45l17 94q19 104 72.5 156.5t137.5 52.5q41 0 71.5 -18t45.5 -46l9 52h74l-88 -496h-74l10 56q-23 -34 -54.5 -51t-76.5 -17q-42 0 -76 22.5zM292 95.5q34 36.5 46 106.5l16 92q3 18 3 33q0 50 -26.5 80t-70.5 30
q-51 0 -85 -36t-47 -107l-16 -92q-3 -18 -3 -34q0 -50 27 -79.5t70 -29.5q52 0 86 36.5zM233 577h-65l114 149h69l62 -149h-59l-47 84z" />
    <glyph glyph-name="atilde" unicode="&#xe3;" horiz-adv-x="477" 
d="M103 10.5q-34 22.5 -53 62t-19 87.5q0 25 4 45l17 94q19 104 72.5 156.5t137.5 52.5q41 0 71.5 -18t45.5 -46l9 52h74l-88 -496h-74l10 56q-23 -34 -54.5 -51t-76.5 -17q-42 0 -76 22.5zM292 95.5q34 36.5 46 106.5l16 92q3 18 3 33q0 50 -26.5 80t-70.5 30
q-51 0 -85 -36t-47 -107l-16 -92q-3 -18 -3 -34q0 -50 27 -79.5t70 -29.5q52 0 86 36.5zM173 627q8 34 30 53t54 19q17 0 30 -5.5t28 -15.5q8 -5 17 -9.5t18 -4.5q16 0 26 8.5t17 26.5l44 -16q-8 -34 -30.5 -53t-54.5 -19q-17 0 -30 5.5t-28 15.5q-9 5 -18 9.5t-17 4.5
q-16 0 -25.5 -8.5t-15.5 -26.5z" />
    <glyph glyph-name="adieresis" unicode="&#xe4;" horiz-adv-x="477" 
d="M103 10.5q-34 22.5 -53 62t-19 87.5q0 25 4 45l17 94q19 104 72.5 156.5t137.5 52.5q41 0 71.5 -18t45.5 -46l9 52h74l-88 -496h-74l10 56q-23 -34 -54.5 -51t-76.5 -17q-42 0 -76 22.5zM292 95.5q34 36.5 46 106.5l16 92q3 18 3 33q0 50 -26.5 80t-70.5 30
q-51 0 -85 -36t-47 -107l-16 -92q-3 -18 -3 -34q0 -50 27 -79.5t70 -29.5q52 0 86 36.5zM188 609.5q-16 16.5 -16 38.5q0 23 16 39t39 16t39 -16t16 -39t-16 -39t-39 -16t-39 16.5zM343 609.5q-16 16.5 -16 38.5q0 23 16 39t39 16t39 -16t16 -39t-16 -39t-39 -16t-39 16.5z
" />
    <glyph glyph-name="aring" unicode="&#xe5;" horiz-adv-x="477" 
d="M103 10.5q-34 22.5 -53 62t-19 87.5q0 25 4 45l17 94q19 104 72.5 156.5t137.5 52.5q41 0 71.5 -18t45.5 -46l9 52h74l-88 -496h-74l10 56q-23 -34 -54.5 -51t-76.5 -17q-42 0 -76 22.5zM292 95.5q34 36.5 46 106.5l16 92q3 18 3 33q0 50 -26.5 80t-70.5 30
q-51 0 -85 -36t-47 -107l-16 -92q-3 -18 -3 -34q0 -50 27 -79.5t70 -29.5q52 0 86 36.5zM238 583.5q-20 22.5 -20 56.5q0 11 1 17l2 13q7 45 32.5 69t64.5 24q35 0 55 -22.5t20 -56.5q0 -11 -1 -17l-2 -13q-7 -45 -32 -69t-64 -24q-36 0 -56 22.5zM325.5 622
q10.5 12 13.5 33l2 14q1 4 1 10q0 16 -7.5 25.5t-20.5 9.5q-17 0 -28 -12t-14 -33l-2 -14q-1 -3 -1 -10q0 -16 8 -25.5t21 -9.5q17 0 27.5 12z" />
    <glyph glyph-name="ae" unicode="&#xe6;" horiz-adv-x="754" 
d="M103 10.5q-34 22.5 -53 62t-19 87.5q0 25 4 45l17 94q19 104 72.5 156.5t137.5 52.5q41 0 71.5 -18t45.5 -46l9 52h74l-9 -52q20 32 52.5 48t72.5 16q41 0 74 -21.5t52 -60t19 -87.5q0 -24 -4 -45l-10 -59h-294l-6 -36q-3 -19 -3 -38q0 -50 24 -77.5t65 -27.5
q46 0 74.5 24t46.5 71l67 -21q-28 -70 -72 -106t-116 -36q-38 0 -66 17.5t-45 50.5l-10 -56h-74l10 56q-23 -34 -54.5 -51t-76.5 -17q-42 0 -76 22.5zM426 293h220l2 14q2 20 2 27q0 49 -25 78t-70 29q-51 0 -84 -37t-44 -105zM292 95.5q34 36.5 46 106.5l16 92q3 18 3 33
q0 50 -26.5 80t-70.5 30q-51 0 -85 -36t-47 -107l-16 -92q-3 -18 -3 -34q0 -50 27 -79.5t70 -29.5q52 0 86 36.5z" />
    <glyph glyph-name="ccedilla" unicode="&#xe7;" horiz-adv-x="450" 
d="M276.5 84q29.5 25 50.5 79l68 -22q-54 -153 -204 -153h-12l-14 -34q15 5 29 5q31 0 50 -21t19 -53q0 -47 -26.5 -74t-77.5 -27q-22 0 -41.5 7t-32.5 18l30 41q19 -17 46 -17q22 0 34 12t12 34q0 16 -9 26t-24 10q-22 0 -33 -18l-38 13l31 88q-47 18 -74.5 62.5
t-27.5 102.5q0 23 4 43l16 92q17 98 74.5 154t145.5 56q73 0 113.5 -41t46.5 -111l-73 -22q-4 49 -28 76t-67 27q-53 0 -88.5 -36.5t-47.5 -105.5l-16 -94q-4 -28 -4 -38q0 -49 25.5 -76.5t67.5 -27.5q46 0 75.5 25z" />
    <glyph glyph-name="egrave" unicode="&#xe8;" horiz-adv-x="456" 
d="M381 461q44 -47 44 -123q0 -24 -4 -44l-10 -59h-294l-6 -36q-4 -28 -4 -39q0 -49 24.5 -76.5t65.5 -27.5q46 0 74.5 24t46.5 71l67 -21q-28 -71 -73 -106.5t-121 -35.5q-72 0 -116 48.5t-44 123.5q0 25 4 45l16 87q19 104 74 160t142 56q70 0 114 -47zM128 293h220l2 14
q3 15 3 30q0 47 -26 75.5t-70 28.5q-51 0 -83.5 -36.5t-44.5 -105.5zM320 577h-59l-75 149h89z" />
    <glyph glyph-name="eacute" unicode="&#xe9;" horiz-adv-x="456" 
d="M381 461q44 -47 44 -123q0 -24 -4 -44l-10 -59h-294l-6 -36q-4 -28 -4 -39q0 -49 24.5 -76.5t65.5 -27.5q46 0 74.5 24t46.5 71l67 -21q-28 -71 -73 -106.5t-121 -35.5q-72 0 -116 48.5t-44 123.5q0 25 4 45l16 87q19 104 74 160t142 56q70 0 114 -47zM128 293h220l2 14
q3 15 3 30q0 47 -26 75.5t-70 28.5q-51 0 -83.5 -36.5t-44.5 -105.5zM322 577h-66l91 149h95z" />
    <glyph glyph-name="ecircumflex" unicode="&#xea;" horiz-adv-x="456" 
d="M381 461q44 -47 44 -123q0 -24 -4 -44l-10 -59h-294l-6 -36q-4 -28 -4 -39q0 -49 24.5 -76.5t65.5 -27.5q46 0 74.5 24t46.5 71l67 -21q-28 -71 -73 -106.5t-121 -35.5q-72 0 -116 48.5t-44 123.5q0 25 4 45l16 87q19 104 74 160t142 56q70 0 114 -47zM128 293h220l2 14
q3 15 3 30q0 47 -26 75.5t-70 28.5q-51 0 -83.5 -36.5t-44.5 -105.5zM231 577h-65l114 149h69l62 -149h-59l-47 84z" />
    <glyph glyph-name="edieresis" unicode="&#xeb;" horiz-adv-x="456" 
d="M381 461q44 -47 44 -123q0 -24 -4 -44l-10 -59h-294l-6 -36q-4 -28 -4 -39q0 -49 24.5 -76.5t65.5 -27.5q46 0 74.5 24t46.5 71l67 -21q-28 -71 -73 -106.5t-121 -35.5q-72 0 -116 48.5t-44 123.5q0 25 4 45l16 87q19 104 74 160t142 56q70 0 114 -47zM128 293h220l2 14
q3 15 3 30q0 47 -26 75.5t-70 28.5q-51 0 -83.5 -36.5t-44.5 -105.5zM186 609.5q-16 16.5 -16 38.5q0 23 16 39t39 16t39 -16t16 -39t-16 -39t-39 -16t-39 16.5zM341 609.5q-16 16.5 -16 38.5q0 23 16 39t39 16t39 -16t16 -39t-16 -39t-39 -16t-39 16.5z" />
    <glyph glyph-name="igrave" unicode="&#xec;" 
d="M90 0h-75l88 496h75zM186 577h-59l-75 149h89z" />
    <glyph glyph-name="iacute" unicode="&#xed;" 
d="M90 0h-75l88 496h75zM188 577h-66l91 149h95z" />
    <glyph glyph-name="icircumflex" unicode="&#xee;" 
d="M90 0h-75l88 496h75zM97 577h-65l114 149h69l62 -149h-59l-47 84z" />
    <glyph glyph-name="idieresis" unicode="&#xef;" 
d="M90 0h-75l88 496h75zM52 609.5q-16 16.5 -16 38.5q0 23 16 39t39 16t39 -16t16 -39t-16 -39t-39 -16t-39 16.5zM207 609.5q-16 16.5 -16 38.5q0 23 16 39t39 16t39 -16t16 -39t-16 -39t-39 -16t-39 16.5z" />
    <glyph glyph-name="eth" unicode="&#xf0;" horiz-adv-x="485" 
d="M407 466q20 -42 30.5 -79.5t10.5 -77.5q0 -28 -6 -60l-6 -35q-19 -113 -79.5 -169.5t-156.5 -56.5q-47 0 -85 22t-60 63t-22 95q0 25 4 46l7 41q18 104 76.5 160t140.5 56q54 0 80 -25l-55 111l-82 -51l-29 47l86 54l-46 93h81l26 -55l90 57l28 -48l-94 -59zM366 249
q4 20 4 43q0 54 -27.5 83.5t-75.5 29.5q-120 0 -149 -157l-6 -33q-4 -19 -4 -40q0 -54 27.5 -86t73.5 -32q64 0 101 37t50 119z" />
    <glyph glyph-name="ntilde" unicode="&#xf1;" horiz-adv-x="459" 
d="M15 0l88 496h75l-9 -50q16 29 49 45.5t73 16.5q60 0 94 -35.5t34 -94.5q0 -17 -3 -37l-60 -341h-75l59 331q2 18 2 25q0 38 -21.5 60.5t-60.5 22.5q-45 0 -74 -28t-38 -81l-58 -330h-75zM169 627q8 34 30 53t54 19q17 0 30 -5.5t28 -15.5q8 -5 17 -9.5t18 -4.5
q16 0 26 8.5t17 26.5l44 -16q-8 -34 -30.5 -53t-54.5 -19q-17 0 -30 5.5t-28 15.5q-9 5 -18 9.5t-17 4.5q-16 0 -25.5 -8.5t-15.5 -26.5z" />
    <glyph glyph-name="ograve" unicode="&#xf2;" horiz-adv-x="469" 
d="M77.5 35.5q-46.5 47.5 -46.5 123.5q0 24 4 45l16 88q19 104 76.5 160t144.5 56q73 0 119.5 -47.5t46.5 -123.5q0 -24 -4 -45l-16 -88q-19 -104 -76.5 -160t-145.5 -56q-72 0 -118.5 47.5zM293 95.5q35 36.5 47 106.5l16 92q3 18 3 35q0 50 -26 79t-68 29q-55 0 -90 -36.5
t-47 -106.5l-16 -92q-3 -18 -3 -35q0 -50 26 -79t68 -29q55 0 90 36.5zM323 577h-59l-75 149h89z" />
    <glyph glyph-name="oacute" unicode="&#xf3;" horiz-adv-x="469" 
d="M77.5 35.5q-46.5 47.5 -46.5 123.5q0 24 4 45l16 88q19 104 76.5 160t144.5 56q73 0 119.5 -47.5t46.5 -123.5q0 -24 -4 -45l-16 -88q-19 -104 -76.5 -160t-145.5 -56q-72 0 -118.5 47.5zM293 95.5q35 36.5 47 106.5l16 92q3 18 3 35q0 50 -26 79t-68 29q-55 0 -90 -36.5
t-47 -106.5l-16 -92q-3 -18 -3 -35q0 -50 26 -79t68 -29q55 0 90 36.5zM325 577h-66l91 149h95z" />
    <glyph glyph-name="ocircumflex" unicode="&#xf4;" horiz-adv-x="469" 
d="M77.5 35.5q-46.5 47.5 -46.5 123.5q0 24 4 45l16 88q19 104 76.5 160t144.5 56q73 0 119.5 -47.5t46.5 -123.5q0 -24 -4 -45l-16 -88q-19 -104 -76.5 -160t-145.5 -56q-72 0 -118.5 47.5zM293 95.5q35 36.5 47 106.5l16 92q3 18 3 35q0 50 -26 79t-68 29q-55 0 -90 -36.5
t-47 -106.5l-16 -92q-3 -18 -3 -35q0 -50 26 -79t68 -29q55 0 90 36.5zM234 577h-65l114 149h69l62 -149h-59l-47 84z" />
    <glyph glyph-name="otilde" unicode="&#xf5;" horiz-adv-x="469" 
d="M77.5 35.5q-46.5 47.5 -46.5 123.5q0 24 4 45l16 88q19 104 76.5 160t144.5 56q73 0 119.5 -47.5t46.5 -123.5q0 -24 -4 -45l-16 -88q-19 -104 -76.5 -160t-145.5 -56q-72 0 -118.5 47.5zM293 95.5q35 36.5 47 106.5l16 92q3 18 3 35q0 50 -26 79t-68 29q-55 0 -90 -36.5
t-47 -106.5l-16 -92q-3 -18 -3 -35q0 -50 26 -79t68 -29q55 0 90 36.5zM174 627q8 34 30 53t54 19q17 0 30 -5.5t28 -15.5q8 -5 17 -9.5t18 -4.5q16 0 26 8.5t17 26.5l44 -16q-8 -34 -30.5 -53t-54.5 -19q-17 0 -30 5.5t-28 15.5q-9 5 -18 9.5t-17 4.5q-16 0 -25.5 -8.5
t-15.5 -26.5z" />
    <glyph glyph-name="odieresis" unicode="&#xf6;" horiz-adv-x="469" 
d="M77.5 35.5q-46.5 47.5 -46.5 123.5q0 24 4 45l16 88q19 104 76.5 160t144.5 56q73 0 119.5 -47.5t46.5 -123.5q0 -24 -4 -45l-16 -88q-19 -104 -76.5 -160t-145.5 -56q-72 0 -118.5 47.5zM293 95.5q35 36.5 47 106.5l16 92q3 18 3 35q0 50 -26 79t-68 29q-55 0 -90 -36.5
t-47 -106.5l-16 -92q-3 -18 -3 -35q0 -50 26 -79t68 -29q55 0 90 36.5zM189 609.5q-16 16.5 -16 38.5q0 23 16 39t39 16t39 -16t16 -39t-16 -39t-39 -16t-39 16.5zM344 609.5q-16 16.5 -16 38.5q0 23 16 39t39 16t39 -16t16 -39t-16 -39t-39 -16t-39 16.5z" />
    <glyph glyph-name="divide" unicode="&#xf7;" horiz-adv-x="397" 
d="M376 277h-344l12 71h344zM141 110.5q-17 17.5 -17 40.5q0 24 17 41t41 17t40.5 -17t16.5 -41t-16.5 -41t-40.5 -17t-41 17.5zM198 433.5q-17 17.5 -17 40.5q0 24 17 41t41 17t40.5 -17t16.5 -41t-16.5 -41t-40.5 -17t-41 17.5z" />
    <glyph glyph-name="oslash" unicode="&#xf8;" horiz-adv-x="469" 
d="M389 463q24 -23 36.5 -55.5t12.5 -71.5q0 -24 -4 -44l-16 -88q-19 -104 -76.5 -160t-145.5 -56q-33 0 -64 11l-37 -67h-72l56 101q-48 50 -48 127q0 24 4 44l16 88q19 104 76.5 160t144.5 56q34 0 65 -11l37 67h71zM112 202q-3 -18 -3 -35q0 -34 12 -58l179 322
q-16 6 -35 6q-55 0 -90 -36.5t-47 -106.5zM356 294q3 18 3 35q0 34 -12 58l-178 -322q15 -6 34 -6q55 0 90 36.5t47 106.5z" />
    <glyph glyph-name="ugrave" unicode="&#xf9;" horiz-adv-x="459" 
d="M74 23.5q-34 35.5 -34 94.5q0 18 3 37l60 341h75l-59 -331q-2 -18 -2 -25q0 -38 21.5 -60.5t60.5 -22.5q45 0 74 28t38 81l58 330h75l-88 -496h-75l9 50q-16 -29 -49 -45.5t-73 -16.5q-60 0 -94 35.5zM319 577h-59l-75 149h89z" />
    <glyph glyph-name="uacute" unicode="&#xfa;" horiz-adv-x="459" 
d="M74 23.5q-34 35.5 -34 94.5q0 18 3 37l60 341h75l-59 -331q-2 -18 -2 -25q0 -38 21.5 -60.5t60.5 -22.5q45 0 74 28t38 81l58 330h75l-88 -496h-75l9 50q-16 -29 -49 -45.5t-73 -16.5q-60 0 -94 35.5zM321 577h-66l91 149h95z" />
    <glyph glyph-name="ucircumflex" unicode="&#xfb;" horiz-adv-x="459" 
d="M74 23.5q-34 35.5 -34 94.5q0 18 3 37l60 341h75l-59 -331q-2 -18 -2 -25q0 -38 21.5 -60.5t60.5 -22.5q45 0 74 28t38 81l58 330h75l-88 -496h-75l9 50q-16 -29 -49 -45.5t-73 -16.5q-60 0 -94 35.5zM230 577h-65l114 149h69l62 -149h-59l-47 84z" />
    <glyph glyph-name="udieresis" unicode="&#xfc;" horiz-adv-x="459" 
d="M74 23.5q-34 35.5 -34 94.5q0 18 3 37l60 341h75l-59 -331q-2 -18 -2 -25q0 -38 21.5 -60.5t60.5 -22.5q45 0 74 28t38 81l58 330h75l-88 -496h-75l9 50q-16 -29 -49 -45.5t-73 -16.5q-60 0 -94 35.5zM185 609.5q-16 16.5 -16 38.5q0 23 16 39t39 16t39 -16t16 -39
t-16 -39t-39 -16t-39 16.5zM340 609.5q-16 16.5 -16 38.5q0 23 16 39t39 16t39 -16t16 -39t-16 -39t-39 -16t-39 16.5z" />
    <glyph glyph-name="yacute" unicode="&#xfd;" horiz-adv-x="429" 
d="M376 496h81l-305 -591q-24 -47 -44.5 -71.5t-47 -35t-67.5 -10.5q-33 0 -61 10l15 75q24 -15 57 -15q27 0 46.5 16.5t40.5 58.5l37 73l-70 490h78l47 -382zM305 577h-66l91 149h95z" />
    <glyph glyph-name="thorn" unicode="&#xfe;" horiz-adv-x="478" 
d="M-21 -204l160 904h75l-46 -261q22 31 55 50t75 19q68 0 109 -44t41 -120q0 -23 -5 -53l-18 -98q-38 -205 -208 -205q-42 0 -73.5 19t-43.5 48l-46 -259h-75zM349 202l16 92q3 21 3 38q0 51 -25.5 78t-69.5 27q-52 0 -87 -37t-47 -106l-16 -92q-3 -18 -3 -34
q0 -50 26.5 -79.5t68.5 -29.5q109 0 134 143z" />
    <glyph glyph-name="ydieresis" unicode="&#xff;" horiz-adv-x="429" 
d="M376 496h81l-305 -591q-24 -47 -44.5 -71.5t-47 -35t-67.5 -10.5q-33 0 -61 10l15 75q24 -15 57 -15q27 0 46.5 16.5t40.5 58.5l37 73l-70 490h78l47 -382zM169 609.5q-16 16.5 -16 38.5q0 23 16 39t39 16t39 -16t16 -39t-16 -39t-39 -16t-39 16.5zM324 609.5
q-16 16.5 -16 38.5q0 23 16 39t39 16t39 -16t16 -39t-16 -39t-39 -16t-39 16.5z" />
    <glyph glyph-name="Amacron" unicode="&#x100;" horiz-adv-x="505" 
d="M447 0h-82l-14 168h-219l-73 -168h-89l313 700h97zM316 595l-153 -354h182zM458 825h-205l10 61h205z" />
    <glyph glyph-name="amacron" unicode="&#x101;" horiz-adv-x="477" 
d="M103 10.5q-34 22.5 -53 62t-19 87.5q0 25 4 45l17 94q19 104 72.5 156.5t137.5 52.5q41 0 71.5 -18t45.5 -46l9 52h74l-88 -496h-74l10 56q-23 -34 -54.5 -51t-76.5 -17q-42 0 -76 22.5zM292 95.5q34 36.5 46 106.5l16 92q3 18 3 33q0 50 -26.5 80t-70.5 30
q-51 0 -85 -36t-47 -107l-16 -92q-3 -18 -3 -34q0 -50 27 -79.5t70 -29.5q52 0 86 36.5zM402 621h-205l10 61h205z" />
    <glyph glyph-name="Abreve" unicode="&#x102;" horiz-adv-x="505" 
d="M447 0h-82l-14 168h-219l-73 -168h-89l313 700h97zM316 595l-153 -354h182zM288.5 803.5q-23.5 24.5 -23.5 62.5q0 6 2 20h59q-2 -12 -2 -16q0 -18 8.5 -28t23.5 -10q39 0 49 54h59q-9 -50 -35.5 -78.5t-77.5 -28.5q-39 0 -62.5 24.5z" />
    <glyph glyph-name="abreve" unicode="&#x103;" horiz-adv-x="477" 
d="M103 10.5q-34 22.5 -53 62t-19 87.5q0 25 4 45l17 94q19 104 72.5 156.5t137.5 52.5q41 0 71.5 -18t45.5 -46l9 52h74l-88 -496h-74l10 56q-23 -34 -54.5 -51t-76.5 -17q-42 0 -76 22.5zM292 95.5q34 36.5 46 106.5l16 92q3 18 3 33q0 50 -26.5 80t-70.5 30
q-51 0 -85 -36t-47 -107l-16 -92q-3 -18 -3 -34q0 -50 27 -79.5t70 -29.5q52 0 86 36.5zM232.5 599.5q-23.5 24.5 -23.5 62.5q0 6 2 20h59q-2 -12 -2 -16q0 -18 8.5 -28t23.5 -10q39 0 49 54h59q-9 -50 -35.5 -78.5t-77.5 -28.5q-39 0 -62.5 24.5z" />
    <glyph glyph-name="Aogonek" unicode="&#x104;" horiz-adv-x="505" 
d="M375 -134q8 -9 22 -9q16 0 33 7l-10 -56q-23 -9 -46 -9q-32 0 -52 21.5t-20 59.5q0 78 63 120l-14 168h-219l-73 -168h-89l313 700h97l67 -700q-35 -19 -57.5 -49.5t-22.5 -59.5q0 -16 8 -25zM316 595l-153 -354h182z" />
    <glyph glyph-name="aogonek" unicode="&#x105;" horiz-adv-x="477" 
d="M374 0q-35 -19 -57.5 -49.5t-22.5 -59.5q0 -16 8 -25t22 -9q16 0 33 7l-10 -56q-23 -9 -46 -9q-32 0 -52 21.5t-20 59.5q0 78 72 123l9 53q-23 -34 -54.5 -51t-76.5 -17q-42 0 -76 22.5t-53 62t-19 87.5q0 25 4 45l17 94q19 104 72.5 156.5t137.5 52.5q41 0 71.5 -18
t45.5 -46l9 52h74zM292 95.5q34 36.5 46 106.5l16 92q3 18 3 33q0 50 -26.5 80t-70.5 30q-51 0 -85 -36t-47 -107l-16 -92q-3 -18 -3 -34q0 -50 27 -79.5t70 -29.5q52 0 86 36.5z" />
    <glyph glyph-name="Cacute" unicode="&#x106;" horiz-adv-x="525" 
d="M101 44q-52 58 -52 158q0 33 6 70l28 160q49 282 270 282q86 0 132.5 -51.5t50.5 -144.5l-77 -18q-3 64 -32 101.5t-85 37.5q-68 0 -113 -50.5t-62 -147.5l-31 -176q-5 -26 -5 -58q0 -68 30.5 -107t83.5 -39q66 0 101.5 34t58.5 106l71 -20q-33 -101 -86 -148t-151 -47
q-86 0 -138 58zM405 781h-66l91 149h95z" />
    <glyph glyph-name="cacute" unicode="&#x107;" horiz-adv-x="450" 
d="M76 37.5q-44 49.5 -44 124.5q0 24 4 44l16 92q17 98 74.5 154t145.5 56q73 0 113.5 -41t46.5 -111l-73 -22q-4 49 -28 76t-67 27q-53 0 -88.5 -36.5t-47.5 -105.5l-16 -94q-4 -28 -4 -38q0 -49 25.5 -76.5t67.5 -27.5q46 0 75.5 25t50.5 79l68 -22q-54 -153 -204 -153
q-71 0 -115 49.5zM325 577h-66l91 149h95z" />
    <glyph glyph-name="Ccircumflex" unicode="&#x108;" horiz-adv-x="525" 
d="M101 44q-52 58 -52 158q0 33 6 70l28 160q49 282 270 282q86 0 132.5 -51.5t50.5 -144.5l-77 -18q-3 64 -32 101.5t-85 37.5q-68 0 -113 -50.5t-62 -147.5l-31 -176q-5 -26 -5 -58q0 -68 30.5 -107t83.5 -39q66 0 101.5 34t58.5 106l71 -20q-33 -101 -86 -148t-151 -47
q-86 0 -138 58zM314 781h-65l114 149h69l62 -149h-59l-47 84z" />
    <glyph glyph-name="ccircumflex" unicode="&#x109;" horiz-adv-x="450" 
d="M76 37.5q-44 49.5 -44 124.5q0 24 4 44l16 92q17 98 74.5 154t145.5 56q73 0 113.5 -41t46.5 -111l-73 -22q-4 49 -28 76t-67 27q-53 0 -88.5 -36.5t-47.5 -105.5l-16 -94q-4 -28 -4 -38q0 -49 25.5 -76.5t67.5 -27.5q46 0 75.5 25t50.5 79l68 -22q-54 -153 -204 -153
q-71 0 -115 49.5zM234 577h-65l114 149h69l62 -149h-59l-47 84z" />
    <glyph glyph-name="Cdotaccent" unicode="&#x10a;" horiz-adv-x="525" 
d="M101 44q-52 58 -52 158q0 33 6 70l28 160q49 282 270 282q86 0 132.5 -51.5t50.5 -144.5l-77 -18q-3 64 -32 101.5t-85 37.5q-68 0 -113 -50.5t-62 -147.5l-31 -176q-5 -26 -5 -58q0 -68 30.5 -107t83.5 -39q66 0 101.5 34t58.5 106l71 -20q-33 -101 -86 -148t-151 -47
q-86 0 -138 58zM345 812.5q-17 16.5 -17 39.5q0 24 16.5 40t40.5 16q23 0 39.5 -16t16.5 -40q0 -23 -16.5 -39.5t-39.5 -16.5t-40 16.5z" />
    <glyph glyph-name="cdotaccent" unicode="&#x10b;" horiz-adv-x="450" 
d="M76 37.5q-44 49.5 -44 124.5q0 24 4 44l16 92q17 98 74.5 154t145.5 56q73 0 113.5 -41t46.5 -111l-73 -22q-4 49 -28 76t-67 27q-53 0 -88.5 -36.5t-47.5 -105.5l-16 -94q-4 -28 -4 -38q0 -49 25.5 -76.5t67.5 -27.5q46 0 75.5 25t50.5 79l68 -22q-54 -153 -204 -153
q-71 0 -115 49.5zM265 608.5q-17 16.5 -17 39.5q0 24 16.5 40t40.5 16q23 0 39.5 -16t16.5 -40q0 -23 -16.5 -39.5t-39.5 -16.5t-40 16.5z" />
    <glyph glyph-name="Ccaron" unicode="&#x10c;" horiz-adv-x="525" 
d="M101 44q-52 58 -52 158q0 33 6 70l28 160q49 282 270 282q86 0 132.5 -51.5t50.5 -144.5l-77 -18q-3 64 -32 101.5t-85 37.5q-68 0 -113 -50.5t-62 -147.5l-31 -176q-5 -26 -5 -58q0 -68 30.5 -107t83.5 -39q66 0 101.5 34t58.5 106l71 -20q-33 -101 -86 -148t-151 -47
q-86 0 -138 58zM406 781h-69l-62 149h59l47 -84l74 84h65z" />
    <glyph glyph-name="ccaron" unicode="&#x10d;" horiz-adv-x="450" 
d="M76 37.5q-44 49.5 -44 124.5q0 24 4 44l16 92q17 98 74.5 154t145.5 56q73 0 113.5 -41t46.5 -111l-73 -22q-4 49 -28 76t-67 27q-53 0 -88.5 -36.5t-47.5 -105.5l-16 -94q-4 -28 -4 -38q0 -49 25.5 -76.5t67.5 -27.5q46 0 75.5 25t50.5 79l68 -22q-54 -153 -204 -153
q-71 0 -115 49.5zM326 577h-69l-62 149h59l47 -84l74 84h65z" />
    <glyph glyph-name="Dcaron" unicode="&#x10e;" horiz-adv-x="521" 
d="M22 0l124 700h158q96 0 150 -55t54 -151q0 -30 -6 -63l-28 -162q-24 -140 -96.5 -204.5t-197.5 -64.5h-158zM214 625l-96 -550h71q168 0 202 195l28 160q5 32 5 53q0 70 -37 106t-102 36h-71zM357 781h-69l-62 149h59l47 -84l74 84h65z" />
    <glyph glyph-name="dcaron" unicode="&#x10f;" horiz-adv-x="579" 
d="M103 10.5q-34 22.5 -53 62t-19 87.5q0 25 4 45l17 94q19 104 72.5 156.5t137.5 52.5q41 0 71.5 -18t45.5 -46l45 256h74l-124 -700h-74l10 56q-23 -34 -54.5 -51t-76.5 -17q-42 0 -76 22.5zM292 95.5q34 36.5 46 106.5l16 92q3 18 3 33q0 50 -26.5 80t-70.5 30
q-51 0 -85 -36t-47 -107l-16 -92q-3 -18 -3 -34q0 -50 27 -79.5t70 -29.5q52 0 86 36.5zM548 487l-21 17l21 25q28 32 36 70q-15 3 -26.5 16t-11.5 30q0 26 15 43t40 17q22 0 35 -14.5t13 -38.5q0 -34 -20.5 -70.5t-52.5 -67.5z" />
    <glyph glyph-name="Dcroat" unicode="&#x110;" horiz-adv-x="494" 
d="M304 700q96 0 150 -55t54 -151q0 -30 -6 -63l-28 -162q-24 -140 -96.5 -204.5t-197.5 -64.5h-158l55 313h-71l14 74h71l55 313h158zM419 430q5 32 5 53q0 70 -37 106t-102 36h-71l-42 -238h105l-14 -74h-103l-42 -238h71q168 0 202 195z" />
    <glyph glyph-name="dcroat" unicode="&#x111;" horiz-adv-x="478" 
d="M552 639l-10 -58h-65l-103 -581h-74l10 56q-23 -34 -54.5 -51t-76.5 -17q-42 0 -76 22.5t-53 62t-19 87.5q0 25 4 45l17 94q19 104 72.5 156.5t137.5 52.5q41 0 71.5 -18t45.5 -46l24 137h-130l10 58h130l11 61h74l-11 -61h65zM354 294q3 18 3 33q0 50 -26.5 80t-70.5 30
q-51 0 -85 -36t-47 -107l-16 -92q-3 -18 -3 -34q0 -50 27 -79.5t70 -29.5q52 0 86 36.5t46 106.5z" />
    <glyph glyph-name="Emacron" unicode="&#x112;" horiz-adv-x="460" 
d="M368 0h-346l124 700h344l-14 -75h-262l-40 -227h222l-13 -74h-222l-43 -249h264zM445 825h-205l10 61h205z" />
    <glyph glyph-name="emacron" unicode="&#x113;" horiz-adv-x="456" 
d="M381 461q44 -47 44 -123q0 -24 -4 -44l-10 -59h-294l-6 -36q-4 -28 -4 -39q0 -49 24.5 -76.5t65.5 -27.5q46 0 74.5 24t46.5 71l67 -21q-28 -71 -73 -106.5t-121 -35.5q-72 0 -116 48.5t-44 123.5q0 25 4 45l16 87q19 104 74 160t142 56q70 0 114 -47zM128 293h220l2 14
q3 15 3 30q0 47 -26 75.5t-70 28.5q-51 0 -83.5 -36.5t-44.5 -105.5zM400 621h-205l10 61h205z" />
    <glyph glyph-name="Ebreve" unicode="&#x114;" horiz-adv-x="460" 
d="M368 0h-346l124 700h344l-14 -75h-262l-40 -227h222l-13 -74h-222l-43 -249h264zM275.5 803.5q-23.5 24.5 -23.5 62.5q0 6 2 20h59q-2 -12 -2 -16q0 -18 8.5 -28t23.5 -10q39 0 49 54h59q-9 -50 -35.5 -78.5t-77.5 -28.5q-39 0 -62.5 24.5z" />
    <glyph glyph-name="ebreve" unicode="&#x115;" horiz-adv-x="456" 
d="M381 461q44 -47 44 -123q0 -24 -4 -44l-10 -59h-294l-6 -36q-4 -28 -4 -39q0 -49 24.5 -76.5t65.5 -27.5q46 0 74.5 24t46.5 71l67 -21q-28 -71 -73 -106.5t-121 -35.5q-72 0 -116 48.5t-44 123.5q0 25 4 45l16 87q19 104 74 160t142 56q70 0 114 -47zM128 293h220l2 14
q3 15 3 30q0 47 -26 75.5t-70 28.5q-51 0 -83.5 -36.5t-44.5 -105.5zM230.5 599.5q-23.5 24.5 -23.5 62.5q0 6 2 20h59q-2 -12 -2 -16q0 -18 8.5 -28t23.5 -10q39 0 49 54h59q-9 -50 -35.5 -78.5t-77.5 -28.5q-39 0 -62.5 24.5z" />
    <glyph glyph-name="Edotaccent" unicode="&#x116;" horiz-adv-x="460" 
d="M368 0h-346l124 700h344l-14 -75h-262l-40 -227h222l-13 -74h-222l-43 -249h264zM307 812.5q-17 16.5 -17 39.5q0 24 16.5 40t40.5 16q23 0 39.5 -16t16.5 -40q0 -23 -16.5 -39.5t-39.5 -16.5t-40 16.5z" />
    <glyph glyph-name="edotaccent" unicode="&#x117;" horiz-adv-x="456" 
d="M381 461q44 -47 44 -123q0 -24 -4 -44l-10 -59h-294l-6 -36q-4 -28 -4 -39q0 -49 24.5 -76.5t65.5 -27.5q46 0 74.5 24t46.5 71l67 -21q-28 -71 -73 -106.5t-121 -35.5q-72 0 -116 48.5t-44 123.5q0 25 4 45l16 87q19 104 74 160t142 56q70 0 114 -47zM128 293h220l2 14
q3 15 3 30q0 47 -26 75.5t-70 28.5q-51 0 -83.5 -36.5t-44.5 -105.5zM262 608.5q-17 16.5 -17 39.5q0 24 16.5 40t40.5 16q23 0 39.5 -16t16.5 -40q0 -23 -16.5 -39.5t-39.5 -16.5t-40 16.5z" />
    <glyph glyph-name="Eogonek" unicode="&#x118;" horiz-adv-x="460" 
d="M476 625h-262l-40 -227h222l-13 -74h-222l-43 -249h264l-14 -75q-35 -19 -57.5 -49.5t-22.5 -59.5q0 -16 8 -25t22 -9q15 0 33 7l-10 -56q-23 -9 -46 -9q-32 0 -52 21.5t-20 59.5q0 76 67 120h-268l124 700h344z" />
    <glyph glyph-name="eogonek" unicode="&#x119;" horiz-adv-x="456" 
d="M381 461q44 -47 44 -123q0 -24 -4 -44l-10 -59h-294l-6 -36q-4 -28 -4 -39q0 -49 24.5 -76.5t65.5 -27.5q46 0 74.5 24t46.5 71l67 -21q-23 -58 -56 -92t-84 -45q-31 -19 -50 -47t-19 -55q0 -16 8 -25t22 -9q16 0 33 7l-10 -56q-23 -9 -46 -9q-32 0 -52 21.5t-20 59.5
q0 66 53 110q-61 9 -97 56t-36 114q0 25 4 45l16 87q19 104 74 160t142 56q70 0 114 -47zM128 293h220l2 14q3 15 3 30q0 47 -26 75.5t-70 28.5q-51 0 -83.5 -36.5t-44.5 -105.5z" />
    <glyph glyph-name="Ecaron" unicode="&#x11a;" horiz-adv-x="460" 
d="M368 0h-346l124 700h344l-14 -75h-262l-40 -227h222l-13 -74h-222l-43 -249h264zM368 781h-69l-62 149h59l47 -84l74 84h65z" />
    <glyph glyph-name="ecaron" unicode="&#x11b;" horiz-adv-x="456" 
d="M381 461q44 -47 44 -123q0 -24 -4 -44l-10 -59h-294l-6 -36q-4 -28 -4 -39q0 -49 24.5 -76.5t65.5 -27.5q46 0 74.5 24t46.5 71l67 -21q-28 -71 -73 -106.5t-121 -35.5q-72 0 -116 48.5t-44 123.5q0 25 4 45l16 87q19 104 74 160t142 56q70 0 114 -47zM128 293h220l2 14
q3 15 3 30q0 47 -26 75.5t-70 28.5q-51 0 -83.5 -36.5t-44.5 -105.5zM323 577h-69l-62 149h59l47 -84l74 84h65z" />
    <glyph glyph-name="Gcircumflex" unicode="&#x11c;" horiz-adv-x="542" 
d="M140.5 14.5q-43.5 28.5 -67.5 78.5t-24 115q0 31 6 64l28 156q26 148 95 217t177 69q175 0 181 -196l-77 -18q-8 139 -116 139q-66 0 -112.5 -52.5t-64.5 -151.5l-30 -171q-5 -26 -5 -58q0 -69 32.5 -107t89.5 -38q83 0 136 69l28 160h-146l13 70h225l-47 -263
q-46 -57 -96.5 -84t-124.5 -27q-57 0 -100.5 28.5zM314 781h-65l114 149h69l62 -149h-59l-47 84z" />
    <glyph glyph-name="gcircumflex" unicode="&#x11d;" horiz-adv-x="485" 
d="M50.5 -176q-43.5 40 -56.5 106l71 25q9 -47 35.5 -75t68.5 -28q57 0 90 33.5t46 104.5l15 84q-21 -33 -53.5 -50.5t-82.5 -17.5q-41 0 -75.5 21.5t-54 60.5t-19.5 90q0 25 4 46l13 75q18 104 74.5 156.5t137.5 52.5q44 0 76.5 -18.5t44.5 -48.5l10 55h75l-89 -503
q-18 -105 -71 -157t-149 -52q-67 0 -110.5 40zM301 115q36 38 49 108l12 68q3 20 3 36q0 51 -27.5 80.5t-74.5 29.5q-54 0 -88 -37t-47 -109l-12 -68q-4 -28 -4 -38q0 -51 26.5 -79.5t72.5 -28.5q54 0 90 38zM237 577h-65l114 149h69l62 -149h-59l-47 84z" />
    <glyph glyph-name="Gbreve" unicode="&#x11e;" horiz-adv-x="542" 
d="M140.5 14.5q-43.5 28.5 -67.5 78.5t-24 115q0 31 6 64l28 156q26 148 95 217t177 69q175 0 181 -196l-77 -18q-8 139 -116 139q-66 0 -112.5 -52.5t-64.5 -151.5l-30 -171q-5 -26 -5 -58q0 -69 32.5 -107t89.5 -38q83 0 136 69l28 160h-146l13 70h225l-47 -263
q-46 -57 -96.5 -84t-124.5 -27q-57 0 -100.5 28.5zM313.5 803.5q-23.5 24.5 -23.5 62.5q0 6 2 20h59q-2 -12 -2 -16q0 -18 8.5 -28t23.5 -10q39 0 49 54h59q-9 -50 -35.5 -78.5t-77.5 -28.5q-39 0 -62.5 24.5z" />
    <glyph glyph-name="gbreve" unicode="&#x11f;" horiz-adv-x="485" 
d="M50.5 -176q-43.5 40 -56.5 106l71 25q9 -47 35.5 -75t68.5 -28q57 0 90 33.5t46 104.5l15 84q-21 -33 -53.5 -50.5t-82.5 -17.5q-41 0 -75.5 21.5t-54 60.5t-19.5 90q0 25 4 46l13 75q18 104 74.5 156.5t137.5 52.5q44 0 76.5 -18.5t44.5 -48.5l10 55h75l-89 -503
q-18 -105 -71 -157t-149 -52q-67 0 -110.5 40zM301 115q36 38 49 108l12 68q3 20 3 36q0 51 -27.5 80.5t-74.5 29.5q-54 0 -88 -37t-47 -109l-12 -68q-4 -28 -4 -38q0 -51 26.5 -79.5t72.5 -28.5q54 0 90 38zM236.5 599.5q-23.5 24.5 -23.5 62.5q0 6 2 20h59q-2 -12 -2 -16
q0 -18 8.5 -28t23.5 -10q39 0 49 54h59q-9 -50 -35.5 -78.5t-77.5 -28.5q-39 0 -62.5 24.5z" />
    <glyph glyph-name="Gdotaccent" unicode="&#x120;" horiz-adv-x="542" 
d="M140.5 14.5q-43.5 28.5 -67.5 78.5t-24 115q0 31 6 64l28 156q26 148 95 217t177 69q175 0 181 -196l-77 -18q-8 139 -116 139q-66 0 -112.5 -52.5t-64.5 -151.5l-30 -171q-5 -26 -5 -58q0 -69 32.5 -107t89.5 -38q83 0 136 69l28 160h-146l13 70h225l-47 -263
q-46 -57 -96.5 -84t-124.5 -27q-57 0 -100.5 28.5zM345 812.5q-17 16.5 -17 39.5q0 24 16.5 40t40.5 16q23 0 39.5 -16t16.5 -40q0 -23 -16.5 -39.5t-39.5 -16.5t-40 16.5z" />
    <glyph glyph-name="gdotaccent" unicode="&#x121;" horiz-adv-x="485" 
d="M50.5 -176q-43.5 40 -56.5 106l71 25q9 -47 35.5 -75t68.5 -28q57 0 90 33.5t46 104.5l15 84q-21 -33 -53.5 -50.5t-82.5 -17.5q-41 0 -75.5 21.5t-54 60.5t-19.5 90q0 25 4 46l13 75q18 104 74.5 156.5t137.5 52.5q44 0 76.5 -18.5t44.5 -48.5l10 55h75l-89 -503
q-18 -105 -71 -157t-149 -52q-67 0 -110.5 40zM301 115q36 38 49 108l12 68q3 20 3 36q0 51 -27.5 80.5t-74.5 29.5q-54 0 -88 -37t-47 -109l-12 -68q-4 -28 -4 -38q0 -51 26.5 -79.5t72.5 -28.5q54 0 90 38zM268 608.5q-17 16.5 -17 39.5q0 24 16.5 40t40.5 16
q23 0 39.5 -16t16.5 -40q0 -23 -16.5 -39.5t-39.5 -16.5t-40 16.5z" />
    <glyph glyph-name="uni0122" unicode="&#x122;" horiz-adv-x="542" 
d="M140.5 14.5q-43.5 28.5 -67.5 78.5t-24 115q0 31 6 64l28 156q26 148 95 217t177 69q175 0 181 -196l-77 -18q-8 139 -116 139q-66 0 -112.5 -52.5t-64.5 -151.5l-30 -171q-5 -26 -5 -58q0 -69 32.5 -107t89.5 -38q83 0 136 69l28 160h-146l13 70h225l-47 -263
q-46 -57 -96.5 -84t-124.5 -27q-57 0 -100.5 28.5zM158 -236l-17 14l16 20q17 21 24 42q-12 4 -20.5 15.5t-8.5 24.5q0 22 13.5 37t36.5 15q21 0 33.5 -13.5t12.5 -33.5q0 -49 -66 -102z" />
    <glyph glyph-name="uni0123" unicode="&#x123;" horiz-adv-x="485" 
d="M50.5 -176q-43.5 40 -56.5 106l71 25q9 -47 35.5 -75t68.5 -28q57 0 90 33.5t46 104.5l15 84q-21 -33 -53.5 -50.5t-82.5 -17.5q-41 0 -75.5 21.5t-54 60.5t-19.5 90q0 25 4 46l13 75q18 104 74.5 156.5t137.5 52.5q44 0 76.5 -18.5t44.5 -48.5l10 55h75l-89 -503
q-18 -105 -71 -157t-149 -52q-67 0 -110.5 40zM301 115q36 38 49 108l12 68q3 20 3 36q0 51 -27.5 80.5t-74.5 29.5q-54 0 -88 -37t-47 -109l-12 -68q-4 -28 -4 -38q0 -51 26.5 -79.5t72.5 -28.5q54 0 90 38zM270.5 584.5q-12.5 12.5 -12.5 31.5q0 26 13 44.5t37 40.5l30 26
l13 -12l-18 -24q-10 -11 -18 -32q13 -3 22.5 -13.5t9.5 -24.5q0 -23 -13 -36t-33 -13q-18 0 -30.5 12.5z" />
    <glyph glyph-name="Hcircumflex" unicode="&#x124;" horiz-adv-x="550" 
d="M104 0h-82l124 700h82l-52 -293h254l52 293h82l-124 -700h-82l59 331h-254zM311 781h-65l114 149h69l62 -149h-59l-47 84z" />
    <glyph glyph-name="hcircumflex" unicode="&#x125;" horiz-adv-x="465" 
d="M15 0l124 700h75l-45 -253q17 28 48.5 44.5t75.5 16.5q59 0 95 -37t36 -99q0 -17 -3 -37l-59 -335h-75l58 330q2 16 2 24q0 38 -22.5 61.5t-60.5 23.5q-45 0 -76 -29t-40 -80l-58 -330h-75zM133 781h-65l114 149h69l62 -149h-59l-47 84z" />
    <glyph glyph-name="Hbar" unicode="&#x126;" horiz-adv-x="550" 
d="M547 604h54l-12 -70h-54l-95 -534h-82l59 331h-254l-59 -331h-82l95 534h-55l12 70h55l17 96h82l-17 -96h254l17 96h82zM176 407h254l23 127h-254z" />
    <glyph glyph-name="hbar" unicode="&#x127;" horiz-adv-x="445" 
d="M388 471q36 -37 36 -99q0 -17 -3 -37l-59 -335h-75l58 330q2 16 2 24q0 38 -22.5 61.5t-60.5 23.5q-45 0 -76 -29t-40 -80l-58 -330h-75l103 581h-64l10 58h64l11 61h75l-11 -61h131l-10 -58h-131l-24 -134q17 28 48.5 44.5t75.5 16.5q59 0 95 -37z" />
    <glyph glyph-name="Itilde" unicode="&#x128;" horiz-adv-x="214" 
d="M104 0h-82l124 700h82zM83 831q8 34 30 53t54 19q17 0 30 -5.5t28 -15.5q8 -5 17 -9.5t18 -4.5q16 0 26 8.5t17 26.5l44 -16q-8 -34 -30.5 -53t-54.5 -19q-17 0 -30 5.5t-28 15.5q-9 5 -18 9.5t-17 4.5q-16 0 -25.5 -8.5t-15.5 -26.5z" />
    <glyph glyph-name="itilde" unicode="&#x129;" 
d="M90 0h-75l88 496h75zM37 627q8 34 30 53t54 19q17 0 30 -5.5t28 -15.5q8 -5 17 -9.5t18 -4.5q16 0 26 8.5t17 26.5l44 -16q-8 -34 -30.5 -53t-54.5 -19q-17 0 -30 5.5t-28 15.5q-9 5 -18 9.5t-17 4.5q-16 0 -25.5 -8.5t-15.5 -26.5z" />
    <glyph glyph-name="Imacron" unicode="&#x12a;" horiz-adv-x="214" 
d="M104 0h-82l124 700h82zM312 825h-205l10 61h205z" />
    <glyph glyph-name="imacron" unicode="&#x12b;" 
d="M90 0h-75l88 496h75zM266 621h-205l10 61h205z" />
    <glyph glyph-name="Ibreve" unicode="&#x12c;" horiz-adv-x="214" 
d="M104 0h-82l124 700h82zM142.5 803.5q-23.5 24.5 -23.5 62.5q0 6 2 20h59q-2 -12 -2 -16q0 -18 8.5 -28t23.5 -10q39 0 49 54h59q-9 -50 -35.5 -78.5t-77.5 -28.5q-39 0 -62.5 24.5z" />
    <glyph glyph-name="ibreve" unicode="&#x12d;" 
d="M90 0h-75l88 496h75zM96.5 599.5q-23.5 24.5 -23.5 62.5q0 6 2 20h59q-2 -12 -2 -16q0 -18 8.5 -28t23.5 -10q39 0 49 54h59q-9 -50 -35.5 -78.5t-77.5 -28.5q-39 0 -62.5 24.5z" />
    <glyph glyph-name="Iogonek" unicode="&#x12e;" horiz-adv-x="214" 
d="M104 0q-35 -19 -57.5 -49.5t-22.5 -59.5q0 -16 8 -25t22 -9q16 0 33 7l-10 -56q-23 -9 -46 -9q-32 0 -52 21.5t-20 59.5q0 78 63 120l124 700h82z" />
    <glyph glyph-name="iogonek" unicode="&#x12f;" 
d="M207.5 688q16.5 -16 16.5 -40q0 -23 -16.5 -39.5t-39.5 -16.5t-40 16.5t-17 39.5q0 24 16.5 40t40.5 16q23 0 39.5 -16zM103 496h75l-88 -496q-35 -19 -57.5 -49.5t-22.5 -59.5q0 -16 8 -25t22 -9q15 0 33 7l-10 -56q-23 -9 -46 -9q-32 0 -52 21.5t-20 59.5q0 47 23 78.5
t47 41.5z" />
    <glyph glyph-name="Idotaccent" unicode="&#x130;" horiz-adv-x="214" 
d="M104 0h-82l124 700h82zM174 812.5q-17 16.5 -17 39.5q0 24 16.5 40t40.5 16q23 0 39.5 -16t16.5 -40q0 -23 -16.5 -39.5t-39.5 -16.5t-40 16.5z" />
    <glyph glyph-name="dotlessi" unicode="&#x131;" 
d="M90 0h-75l88 496h75z" />
    <glyph glyph-name="IJ" unicode="&#x132;" horiz-adv-x="658" 
d="M104 0h-82l124 700h82zM275.5 26.5q-42.5 40.5 -51.5 105.5l82 27q13 -97 86 -97q48 0 74 31t38 97l90 510h82l-89 -506q-19 -106 -66.5 -157t-138.5 -51q-64 0 -106.5 40.5z" />
    <glyph glyph-name="ij" unicode="&#x133;" horiz-adv-x="386" 
d="M128 608.5q-17 16.5 -17 39.5q0 24 16.5 40t40.5 16q23 0 39.5 -16t16.5 -40q0 -23 -16.5 -39.5t-39.5 -16.5t-40 16.5zM91 0h-75l87 496h75zM321 608.5q-17 16.5 -17 39.5q0 24 16.5 40t40.5 16q23 0 39.5 -16t16.5 -40q0 -23 -16.5 -39.5t-39.5 -16.5t-40 16.5z
M80 -203l12 70q23 -10 44 -10q25 0 39 15t20 49l101 575h75l-101 -573q-13 -73 -45.5 -104t-87.5 -31q-36 0 -57 9z" />
    <glyph glyph-name="Jcircumflex" unicode="&#x134;" horiz-adv-x="444" 
d="M61.5 26.5q-42.5 40.5 -51.5 105.5l82 27q13 -97 86 -97q48 0 74 31t38 97l90 510h82l-89 -506q-19 -106 -66.5 -157t-138.5 -51q-64 0 -106.5 40.5zM388 781h-65l114 149h69l62 -149h-59l-47 84z" />
    <glyph glyph-name="jcircumflex" unicode="&#x135;" 
d="M-113 -203l12 70q23 -10 44 -10q25 0 39 15t20 49l101 575h75l-101 -573q-13 -73 -45.5 -104t-87.5 -31q-36 0 -57 9zM96 577h-65l114 149h69l62 -149h-59l-47 84z" />
    <glyph glyph-name="uni0136" unicode="&#x136;" horiz-adv-x="458" 
d="M259 345l131 -345h-88l-119 313h-24l-55 -313h-82l124 700h82l-56 -315h23l224 315h95zM117 -236l-17 14l16 20q17 21 24 42q-12 4 -20.5 15.5t-8.5 24.5q0 22 13.5 37t36.5 15q21 0 33.5 -13.5t12.5 -33.5q0 -49 -66 -102z" />
    <glyph glyph-name="uni0137" unicode="&#x137;" horiz-adv-x="401" 
d="M330 496h88l-202 -250l114 -246h-78l-103 220h-20l-39 -220h-75l124 700h75l-75 -424h17zM92 -236l-17 14l16 20q17 21 24 42q-12 4 -20.5 15.5t-8.5 24.5q0 22 13.5 37t36.5 15q21 0 33.5 -13.5t12.5 -33.5q0 -49 -66 -102z" />
    <glyph glyph-name="kgreenlandic" unicode="&#x138;" horiz-adv-x="401" 
d="M330 496h88l-202 -250l114 -246h-78l-103 220h-20l-39 -220h-75l88 496h75l-39 -220h17z" />
    <glyph glyph-name="Lacute" unicode="&#x139;" horiz-adv-x="426" 
d="M349 0h-327l124 700h82l-110 -625h245zM234 781h-66l91 149h95z" />
    <glyph glyph-name="lacute" unicode="&#x13a;" horiz-adv-x="224" 
d="M55 11q-23 23 -23 66q0 15 3 31l104 592h75l-105 -593q-1 -4 -1 -12q0 -17 9 -27.5t24 -10.5q18 0 37 10l-13 -72q-24 -7 -49 -7q-38 0 -61 23zM224 781h-66l91 149h95z" />
    <glyph glyph-name="uni013B" unicode="&#x13b;" horiz-adv-x="426" 
d="M349 0h-327l124 700h82l-110 -625h245zM113 -236l-17 14l16 20q17 21 24 42q-12 4 -20.5 15.5t-8.5 24.5q0 22 13.5 37t36.5 15q21 0 33.5 -13.5t12.5 -33.5q0 -49 -66 -102z" />
    <glyph glyph-name="uni013C" unicode="&#x13c;" horiz-adv-x="224" 
d="M55 11q-23 23 -23 66q0 15 3 31l104 592h75l-105 -593q-1 -4 -1 -12q0 -17 9 -27.5t24 -10.5q18 0 37 10l-13 -72q-24 -7 -49 -7q-38 0 -61 23zM32 -236l-17 14l16 20q17 21 24 42q-12 4 -20.5 15.5t-8.5 24.5q0 22 13.5 37t36.5 15q21 0 33.5 -13.5t12.5 -33.5
q0 -49 -66 -102z" />
    <glyph glyph-name="Lcaron" unicode="&#x13d;" horiz-adv-x="426" 
d="M349 0h-327l124 700h82l-110 -625h245zM384 487l-21 17l21 25q28 32 36 70q-15 3 -26.5 16t-11.5 30q0 26 15 43t40 17q22 0 35 -14.5t13 -38.5q0 -34 -20.5 -70.5t-52.5 -67.5z" />
    <glyph glyph-name="lcaron" unicode="&#x13e;" horiz-adv-x="294" 
d="M55 11q-23 23 -23 66q0 15 3 31l104 592h75l-105 -593q-1 -4 -1 -12q0 -17 9 -27.5t24 -10.5q18 0 37 10l-13 -72q-24 -7 -49 -7q-38 0 -61 23zM263 487l-21 17l21 25q28 32 36 70q-15 3 -26.5 16t-11.5 30q0 26 15 43t40 17q22 0 35 -14.5t13 -38.5q0 -34 -20.5 -70.5
t-52.5 -67.5z" />
    <glyph glyph-name="Ldot" unicode="&#x13f;" horiz-adv-x="422" 
d="M349 0h-327l124 700h82l-110 -625h245zM285 309.5q-17 17.5 -17 40.5q0 24 17 41t41 17t40.5 -17t16.5 -41t-16.5 -41t-40.5 -17t-41 17.5z" />
    <glyph glyph-name="ldot" unicode="&#x140;" horiz-adv-x="346" 
d="M55 11q-23 23 -23 66q0 15 3 31l104 592h75l-105 -593q-1 -4 -1 -12q0 -17 9 -27.5t24 -10.5q18 0 37 10l-13 -72q-24 -7 -49 -7q-38 0 -61 23zM238 309.5q-17 17.5 -17 40.5q0 24 17 41t41 17t40.5 -17t16.5 -41t-16.5 -41t-40.5 -17t-41 17.5z" />
    <glyph glyph-name="Lslash" unicode="&#x141;" horiz-adv-x="458" 
d="M182 258l-32 -183h245l-14 -75h-327l34 194l-76 -52l16 90l76 52l74 416h82l-62 -352l120 82l-16 -91z" />
    <glyph glyph-name="lslash" unicode="&#x142;" horiz-adv-x="210" 
d="M144 302l-35 -195q-1 -4 -1 -12q0 -17 9 -27.5t24 -10.5q18 0 37 10l-13 -72q-24 -7 -49 -7q-38 0 -61 23t-23 66q0 15 3 31l23 133l-76 -55l15 84l76 55l66 375h75l-56 -314l73 52l-15 -84z" />
    <glyph glyph-name="Nacute" unicode="&#x143;" horiz-adv-x="527" 
d="M101 0h-79l124 700h88l136 -520l92 520h79l-124 -700h-74l-146 547zM391 781h-66l91 149h95z" />
    <glyph glyph-name="nacute" unicode="&#x144;" horiz-adv-x="459" 
d="M15 0l88 496h75l-9 -50q16 29 49 45.5t73 16.5q60 0 94 -35.5t34 -94.5q0 -17 -3 -37l-60 -341h-75l59 331q2 18 2 25q0 38 -21.5 60.5t-60.5 22.5q-45 0 -74 -28t-38 -81l-58 -330h-75zM320 577h-66l91 149h95z" />
    <glyph glyph-name="uni0145" unicode="&#x145;" horiz-adv-x="527" 
d="M101 0h-79l124 700h88l136 -520l92 520h79l-124 -700h-74l-146 547zM144 -236l-17 14l16 20q17 21 24 42q-12 4 -20.5 15.5t-8.5 24.5q0 22 13.5 37t36.5 15q21 0 33.5 -13.5t12.5 -33.5q0 -49 -66 -102z" />
    <glyph glyph-name="uni0146" unicode="&#x146;" horiz-adv-x="459" 
d="M15 0l88 496h75l-9 -50q16 29 49 45.5t73 16.5q60 0 94 -35.5t34 -94.5q0 -17 -3 -37l-60 -341h-75l59 331q2 18 2 25q0 38 -21.5 60.5t-60.5 22.5q-45 0 -74 -28t-38 -81l-58 -330h-75zM109 -236l-17 14l16 20q17 21 24 42q-12 4 -20.5 15.5t-8.5 24.5q0 22 13.5 37
t36.5 15q21 0 33.5 -13.5t12.5 -33.5q0 -49 -66 -102z" />
    <glyph glyph-name="Ncaron" unicode="&#x147;" horiz-adv-x="527" 
d="M101 0h-79l124 700h88l136 -520l92 520h79l-124 -700h-74l-146 547zM392 781h-69l-62 149h59l47 -84l74 84h65z" />
    <glyph glyph-name="ncaron" unicode="&#x148;" horiz-adv-x="459" 
d="M15 0l88 496h75l-9 -50q16 29 49 45.5t73 16.5q60 0 94 -35.5t34 -94.5q0 -17 -3 -37l-60 -341h-75l59 331q2 18 2 25q0 38 -21.5 60.5t-60.5 22.5q-45 0 -74 -28t-38 -81l-58 -330h-75zM321 577h-69l-62 149h59l47 -84l74 84h65z" />
    <glyph glyph-name="Eng" unicode="&#x14a;" horiz-adv-x="527" 
d="M186 -206q-23 10 -42 30l52 59q19 -25 54 -25q32 0 51.5 22t26.5 62l12 69l-143 536l-96 -547h-79l124 700h88l136 -520l92 520h79l-134 -757q-15 -81 -54 -120t-112 -39q-32 0 -55 10z" />
    <glyph glyph-name="eng" unicode="&#x14b;" horiz-adv-x="459" 
d="M152 -203l12 70q23 -10 44 -10q25 0 39 15t20 49l73 410q2 18 2 25q0 38 -21.5 60.5t-60.5 22.5q-45 0 -74 -28t-38 -81l-58 -330h-75l88 496h75l-9 -50q16 29 49 45.5t73 16.5q60 0 94 -35.5t34 -94.5q0 -17 -3 -37l-74 -418q-13 -73 -45.5 -104t-87.5 -31q-36 0 -57 9z
" />
    <glyph glyph-name="Omacron" unicode="&#x14c;" horiz-adv-x="565" 
d="M144.5 13q-44.5 27 -70 76.5t-25.5 115.5q0 32 6 66l28 158q26 148 94.5 216.5t176.5 68.5q57 0 102 -27t70.5 -76.5t25.5 -115.5q0 -31 -6 -66l-28 -158q-26 -148 -95 -216.5t-177 -68.5q-57 0 -101.5 27zM372.5 110.5q44.5 49.5 62.5 153.5l30 172q5 25 5 57
q0 69 -33 107.5t-92 38.5q-72 0 -116.5 -49.5t-62.5 -153.5l-30 -172q-5 -25 -5 -57q0 -69 33 -107.5t91 -38.5q73 0 117.5 49.5zM487 825h-205l10 61h205z" />
    <glyph glyph-name="omacron" unicode="&#x14d;" horiz-adv-x="469" 
d="M77.5 35.5q-46.5 47.5 -46.5 123.5q0 24 4 45l16 88q19 104 76.5 160t144.5 56q73 0 119.5 -47.5t46.5 -123.5q0 -24 -4 -45l-16 -88q-19 -104 -76.5 -160t-145.5 -56q-72 0 -118.5 47.5zM293 95.5q35 36.5 47 106.5l16 92q3 18 3 35q0 50 -26 79t-68 29q-55 0 -90 -36.5
t-47 -106.5l-16 -92q-3 -18 -3 -35q0 -50 26 -79t68 -29q55 0 90 36.5zM403 621h-205l10 61h205z" />
    <glyph glyph-name="Obreve" unicode="&#x14e;" horiz-adv-x="565" 
d="M144.5 13q-44.5 27 -70 76.5t-25.5 115.5q0 32 6 66l28 158q26 148 94.5 216.5t176.5 68.5q57 0 102 -27t70.5 -76.5t25.5 -115.5q0 -31 -6 -66l-28 -158q-26 -148 -95 -216.5t-177 -68.5q-57 0 -101.5 27zM372.5 110.5q44.5 49.5 62.5 153.5l30 172q5 25 5 57
q0 69 -33 107.5t-92 38.5q-72 0 -116.5 -49.5t-62.5 -153.5l-30 -172q-5 -25 -5 -57q0 -69 33 -107.5t91 -38.5q73 0 117.5 49.5zM317.5 803.5q-23.5 24.5 -23.5 62.5q0 6 2 20h59q-2 -12 -2 -16q0 -18 8.5 -28t23.5 -10q39 0 49 54h59q-9 -50 -35.5 -78.5t-77.5 -28.5
q-39 0 -62.5 24.5z" />
    <glyph glyph-name="obreve" unicode="&#x14f;" horiz-adv-x="469" 
d="M77.5 35.5q-46.5 47.5 -46.5 123.5q0 24 4 45l16 88q19 104 76.5 160t144.5 56q73 0 119.5 -47.5t46.5 -123.5q0 -24 -4 -45l-16 -88q-19 -104 -76.5 -160t-145.5 -56q-72 0 -118.5 47.5zM293 95.5q35 36.5 47 106.5l16 92q3 18 3 35q0 50 -26 79t-68 29q-55 0 -90 -36.5
t-47 -106.5l-16 -92q-3 -18 -3 -35q0 -50 26 -79t68 -29q55 0 90 36.5zM233.5 599.5q-23.5 24.5 -23.5 62.5q0 6 2 20h59q-2 -12 -2 -16q0 -18 8.5 -28t23.5 -10q39 0 49 54h59q-9 -50 -35.5 -78.5t-77.5 -28.5q-39 0 -62.5 24.5z" />
    <glyph glyph-name="Ohungarumlaut" unicode="&#x150;" horiz-adv-x="565" 
d="M144.5 13q-44.5 27 -70 76.5t-25.5 115.5q0 32 6 66l28 158q26 148 94.5 216.5t176.5 68.5q57 0 102 -27t70.5 -76.5t25.5 -115.5q0 -31 -6 -66l-28 -158q-26 -148 -95 -216.5t-177 -68.5q-57 0 -101.5 27zM372.5 110.5q44.5 49.5 62.5 153.5l30 172q5 25 5 57
q0 69 -33 107.5t-92 38.5q-72 0 -116.5 -49.5t-62.5 -153.5l-30 -172q-5 -25 -5 -57q0 -69 33 -107.5t91 -38.5q73 0 117.5 49.5zM333 781h-60l68 149h88zM481 781h-59l68 149h88z" />
    <glyph glyph-name="ohungarumlaut" unicode="&#x151;" horiz-adv-x="469" 
d="M77.5 35.5q-46.5 47.5 -46.5 123.5q0 24 4 45l16 88q19 104 76.5 160t144.5 56q73 0 119.5 -47.5t46.5 -123.5q0 -24 -4 -45l-16 -88q-19 -104 -76.5 -160t-145.5 -56q-72 0 -118.5 47.5zM293 95.5q35 36.5 47 106.5l16 92q3 18 3 35q0 50 -26 79t-68 29q-55 0 -90 -36.5
t-47 -106.5l-16 -92q-3 -18 -3 -35q0 -50 26 -79t68 -29q55 0 90 36.5zM249 577h-60l68 149h88zM397 577h-59l68 149h88z" />
    <glyph glyph-name="OE" unicode="&#x152;" horiz-adv-x="827" 
d="M144.5 13q-44.5 27 -70 76.5t-25.5 115.5q0 32 6 66l28 158q26 148 94.5 216.5t176.5 68.5q50 0 89.5 -21.5t57.5 -60.5l12 68h344l-14 -75h-262l-40 -227h222l-13 -74h-222l-43 -249h264l-14 -75h-346l12 68q-54 -82 -155 -82q-57 0 -101.5 27zM372.5 111
q44.5 50 62.5 153l30 172q5 25 5 57q0 69 -33 107.5t-92 38.5q-72 0 -116.5 -49.5t-62.5 -153.5l-30 -172q-5 -25 -5 -57q0 -69 33 -107.5t91 -38.5q73 0 117.5 50z" />
    <glyph glyph-name="oe" unicode="&#x153;" horiz-adv-x="762" 
d="M687 461q44 -47 44 -123q0 -24 -4 -44l-10 -59h-294l-6 -36q-4 -28 -4 -39q0 -49 24.5 -76.5t65.5 -27.5q46 0 74.5 24t46.5 71l67 -21q-28 -71 -73 -106.5t-121 -35.5q-46 0 -81 22t-55 60q-59 -82 -165 -82q-72 0 -118.5 47.5t-46.5 123.5q0 24 4 45l16 88
q19 104 76.5 160t144.5 56q46 0 83.5 -21.5t57.5 -59.5q57 81 160 81q70 0 114 -47zM434 293h220l2 14q3 15 3 30q0 47 -26 75.5t-70 28.5q-51 0 -83.5 -36.5t-44.5 -105.5zM293 95.5q35 36.5 47 106.5l16 92q3 18 3 35q0 50 -26 79t-68 29q-55 0 -90 -36.5t-47 -106.5
l-16 -92q-3 -18 -3 -35q0 -50 26 -79t68 -29q55 0 90 36.5z" />
    <glyph glyph-name="Racute" unicode="&#x154;" horiz-adv-x="492" 
d="M22 0l124 700h192q75 0 117 -42.5t42 -114.5q0 -73 -36.5 -121t-94.5 -66q50 -20 47 -102l-9 -254h-78l9 243q3 80 -65 80h-109l-57 -323h-82zM286 395q57 0 92 40t35 101q0 45 -24 68t-65 23h-109l-41 -232h112zM374 781h-66l91 149h95z" />
    <glyph glyph-name="racute" unicode="&#x155;" horiz-adv-x="322" 
d="M15 0l88 496h75l-9 -51q16 30 47.5 46.5t70.5 16.5q23 0 46 -7l-14 -75q-24 13 -56 13q-42 0 -74 -32t-41 -82l-58 -325h-75zM275 577h-66l91 149h95z" />
    <glyph glyph-name="uni0156" unicode="&#x156;" horiz-adv-x="492" 
d="M22 0l124 700h192q75 0 117 -42.5t42 -114.5q0 -73 -36.5 -121t-94.5 -66q50 -20 47 -102l-9 -254h-78l9 243q3 80 -65 80h-109l-57 -323h-82zM286 395q57 0 92 40t35 101q0 45 -24 68t-65 23h-109l-41 -232h112zM130 -236l-17 14l16 20q17 21 24 42q-12 4 -20.5 15.5
t-8.5 24.5q0 22 13.5 37t36.5 15q21 0 33.5 -13.5t12.5 -33.5q0 -49 -66 -102z" />
    <glyph glyph-name="uni0157" unicode="&#x157;" horiz-adv-x="322" 
d="M15 0l88 496h75l-9 -51q16 30 47.5 46.5t70.5 16.5q23 0 46 -7l-14 -75q-24 13 -56 13q-42 0 -74 -32t-41 -82l-58 -325h-75zM-23 -236l-17 14l16 20q17 21 24 42q-12 4 -20.5 15.5t-8.5 24.5q0 22 13.5 37t36.5 15q21 0 33.5 -13.5t12.5 -33.5q0 -49 -66 -102z" />
    <glyph glyph-name="Rcaron" unicode="&#x158;" horiz-adv-x="492" 
d="M22 0l124 700h192q75 0 117 -42.5t42 -114.5q0 -73 -36.5 -121t-94.5 -66q50 -20 47 -102l-9 -254h-78l9 243q3 80 -65 80h-109l-57 -323h-82zM286 395q57 0 92 40t35 101q0 45 -24 68t-65 23h-109l-41 -232h112zM375 781h-69l-62 149h59l47 -84l74 84h65z" />
    <glyph glyph-name="rcaron" unicode="&#x159;" horiz-adv-x="322" 
d="M15 0l88 496h75l-9 -51q16 30 47.5 46.5t70.5 16.5q23 0 46 -7l-14 -75q-24 13 -56 13q-42 0 -74 -32t-41 -82l-58 -325h-75zM276 577h-69l-62 149h59l47 -84l74 84h65z" />
    <glyph glyph-name="Sacute" unicode="&#x15a;" horiz-adv-x="470" 
d="M76.5 38q-46.5 52 -51.5 135l78 20q5 -63 32.5 -97.5t74.5 -34.5q64 0 96.5 36.5t32.5 98.5q0 49 -23.5 78.5t-81.5 59.5q-135 69 -135 191q0 52 24 94.5t70.5 67.5t110.5 25q74 0 119 -41t50 -114l-75 -23q-4 48 -33.5 75.5t-72.5 27.5q-51 0 -80 -29t-29 -77
q0 -40 24 -71.5t82 -62.5q66 -35 100 -80.5t34 -107.5q0 -102 -59.5 -162.5t-162.5 -60.5q-78 0 -124.5 52zM362 781h-66l91 149h95z" />
    <glyph glyph-name="sacute" unicode="&#x15b;" horiz-adv-x="396" 
d="M66 23.5q-38 37.5 -47 96.5l70 22q5 -40 28 -64.5t60 -24.5q39 0 62 21.5t23 59.5q0 31 -19.5 52t-65.5 45q-100 52 -100 140q0 62 41.5 98.5t109.5 36.5q60 0 97 -30t45 -84l-66 -23q-6 35 -28 54.5t-54 19.5q-33 0 -54 -19t-21 -48q0 -28 19 -49.5t62 -44.5
q55 -29 81.5 -61t26.5 -81q0 -69 -46 -111.5t-118 -42.5q-68 0 -106 37.5zM287 577h-66l91 149h95z" />
    <glyph glyph-name="Scircumflex" unicode="&#x15c;" horiz-adv-x="470" 
d="M76.5 38q-46.5 52 -51.5 135l78 20q5 -63 32.5 -97.5t74.5 -34.5q64 0 96.5 36.5t32.5 98.5q0 49 -23.5 78.5t-81.5 59.5q-135 69 -135 191q0 52 24 94.5t70.5 67.5t110.5 25q74 0 119 -41t50 -114l-75 -23q-4 48 -33.5 75.5t-72.5 27.5q-51 0 -80 -29t-29 -77
q0 -40 24 -71.5t82 -62.5q66 -35 100 -80.5t34 -107.5q0 -102 -59.5 -162.5t-162.5 -60.5q-78 0 -124.5 52zM271 781h-65l114 149h69l62 -149h-59l-47 84z" />
    <glyph glyph-name="scircumflex" unicode="&#x15d;" horiz-adv-x="396" 
d="M66 23.5q-38 37.5 -47 96.5l70 22q5 -40 28 -64.5t60 -24.5q39 0 62 21.5t23 59.5q0 31 -19.5 52t-65.5 45q-100 52 -100 140q0 62 41.5 98.5t109.5 36.5q60 0 97 -30t45 -84l-66 -23q-6 35 -28 54.5t-54 19.5q-33 0 -54 -19t-21 -48q0 -28 19 -49.5t62 -44.5
q55 -29 81.5 -61t26.5 -81q0 -69 -46 -111.5t-118 -42.5q-68 0 -106 37.5zM196 577h-65l114 149h69l62 -149h-59l-47 84z" />
    <glyph glyph-name="Scedilla" unicode="&#x15e;" horiz-adv-x="470" 
d="M389 316.5q34 -45.5 34 -107.5q0 -102 -58.5 -162t-160.5 -61l-13 -32q15 5 29 5q31 0 50 -21t19 -53q0 -47 -26.5 -74t-77.5 -27q-22 0 -41.5 7t-32.5 18l30 41q19 -17 46 -17q22 0 34 12t12 34q0 16 -9 26t-24 10q-22 0 -33 -18l-38 13l29 81q-59 14 -93.5 63
t-39.5 119l78 20q5 -63 32.5 -97.5t74.5 -34.5q64 0 96.5 36.5t32.5 98.5q0 49 -23.5 78.5t-81.5 59.5q-135 69 -135 191q0 52 24 94.5t70.5 67.5t110.5 25q74 0 119 -41t50 -114l-75 -23q-4 48 -33.5 75.5t-72.5 27.5q-51 0 -80 -29t-29 -77q0 -40 24 -71.5t82 -62.5
q66 -35 100 -80.5z" />
    <glyph glyph-name="scedilla" unicode="&#x15f;" horiz-adv-x="396" 
d="M309.5 221q26.5 -32 26.5 -81q0 -69 -46 -111.5t-118 -42.5q-10 0 -26 2l-14 -34q15 5 29 5q31 0 50 -21t19 -53q0 -47 -26.5 -74t-77.5 -27q-22 0 -41.5 7t-32.5 18l30 41q19 -17 46 -17q22 0 34 12t12 34q0 16 -9 26t-24 10q-22 0 -33 -18l-38 13l32 90
q-35 16 -56 47.5t-27 72.5l70 22q5 -40 28 -64.5t60 -24.5q39 0 62 21.5t23 59.5q0 31 -19.5 52t-65.5 45q-100 52 -100 140q0 62 41.5 98.5t109.5 36.5q60 0 97 -30t45 -84l-66 -23q-6 35 -28 54.5t-54 19.5q-33 0 -54 -19t-21 -48q0 -28 19 -49.5t62 -44.5
q55 -29 81.5 -61z" />
    <glyph glyph-name="Scaron" unicode="&#x160;" horiz-adv-x="470" 
d="M76.5 38q-46.5 52 -51.5 135l78 20q5 -63 32.5 -97.5t74.5 -34.5q64 0 96.5 36.5t32.5 98.5q0 49 -23.5 78.5t-81.5 59.5q-135 69 -135 191q0 52 24 94.5t70.5 67.5t110.5 25q74 0 119 -41t50 -114l-75 -23q-4 48 -33.5 75.5t-72.5 27.5q-51 0 -80 -29t-29 -77
q0 -40 24 -71.5t82 -62.5q66 -35 100 -80.5t34 -107.5q0 -102 -59.5 -162.5t-162.5 -60.5q-78 0 -124.5 52zM363 781h-69l-62 149h59l47 -84l74 84h65z" />
    <glyph glyph-name="scaron" unicode="&#x161;" horiz-adv-x="396" 
d="M66 23.5q-38 37.5 -47 96.5l70 22q5 -40 28 -64.5t60 -24.5q39 0 62 21.5t23 59.5q0 31 -19.5 52t-65.5 45q-100 52 -100 140q0 62 41.5 98.5t109.5 36.5q60 0 97 -30t45 -84l-66 -23q-6 35 -28 54.5t-54 19.5q-33 0 -54 -19t-21 -48q0 -28 19 -49.5t62 -44.5
q55 -29 81.5 -61t26.5 -81q0 -69 -46 -111.5t-118 -42.5q-68 0 -106 37.5zM288 577h-69l-62 149h59l47 -84l74 84h65z" />
    <glyph glyph-name="uni0162" unicode="&#x162;" horiz-adv-x="432" 
d="M213 0h-22l-19 -46q15 5 29 5q31 0 50 -21t19 -53q0 -47 -26.5 -74t-77.5 -27q-22 0 -41.5 7t-32.5 18l30 41q19 -17 46 -17q22 0 34 12t12 34q0 16 -9 26t-24 10q-22 0 -33 -18l-38 13l32 90h-11l111 625h-152l14 75h384l-14 -75h-150z" />
    <glyph glyph-name="uni0163" unicode="&#x163;" horiz-adv-x="322" 
d="M209 430l-55 -312q-2 -10 -2 -16q0 -21 12.5 -33t34.5 -12q17 0 31.5 3.5t32.5 12.5l-12 -70q-35 -15 -81 -15h-4l-14 -34q15 5 29 5q31 0 50 -21t19 -53q0 -47 -26.5 -74t-77.5 -27q-22 0 -41.5 7t-32.5 18l30 41q19 -17 46 -17q22 0 34 12t12 34q0 16 -9 26t-24 10
q-22 0 -33 -18l-38 13l31 89q-45 25 -45 87q0 18 2 28l56 316h-78l12 66h78l16 91l81 37l-23 -128h118l-12 -66h-117z" />
    <glyph glyph-name="Tcaron" unicode="&#x164;" horiz-adv-x="432" 
d="M488 700l-14 -75h-150l-111 -625h-82l111 625h-152l14 75h384zM344 781h-69l-62 149h59l47 -84l74 84h65z" />
    <glyph glyph-name="tcaron" unicode="&#x165;" horiz-adv-x="322" 
d="M209 430l-55 -312q-2 -10 -2 -16q0 -21 12.5 -33t34.5 -12q17 0 31.5 3.5t32.5 12.5l-12 -70q-35 -15 -81 -15q-44 0 -69.5 26.5t-25.5 71.5q0 13 3 28l56 316h-78l12 66h78l16 91l81 37l-23 -128h118l-12 -66h-117zM301 537l-21 17l21 25q28 32 36 70q-15 3 -26.5 16
t-11.5 30q0 26 15 43t40 17q22 0 35 -14.5t13 -38.5q0 -34 -20.5 -70.5t-52.5 -67.5z" />
    <glyph glyph-name="Tbar" unicode="&#x166;" horiz-adv-x="432" 
d="M488 700l-14 -75h-150l-42 -238h105l-12 -71h-106l-56 -316h-82l56 316h-105l12 71h106l42 238h-152l14 75h384z" />
    <glyph glyph-name="tbar" unicode="&#x167;" horiz-adv-x="322" 
d="M326 430h-117l-27 -152h91l-10 -59h-91l-18 -101q-2 -10 -2 -16q0 -21 12.5 -33t34.5 -12q17 0 31.5 3.5t32.5 12.5l-12 -70q-35 -15 -81 -15q-44 0 -69.5 26.5t-25.5 71.5q0 13 3 28l19 105h-64l10 59h64l27 152h-78l12 66h78l16 91l81 37l-23 -128h118z" />
    <glyph glyph-name="Utilde" unicode="&#x168;" horiz-adv-x="545" 
d="M102.5 38.5q-49.5 52.5 -49.5 136.5q0 26 4 49l84 476h82l-85 -481q-4 -28 -4 -40q0 -54 28 -85.5t80 -31.5q66 0 103.5 38t51.5 119l85 481h82l-84 -476q-21 -120 -80.5 -179t-164.5 -59q-83 0 -132.5 52.5zM249 831q8 34 30 53t54 19q17 0 30 -5.5t28 -15.5
q8 -5 17 -9.5t18 -4.5q16 0 26 8.5t17 26.5l44 -16q-8 -34 -30.5 -53t-54.5 -19q-17 0 -30 5.5t-28 15.5q-9 5 -18 9.5t-17 4.5q-16 0 -25.5 -8.5t-15.5 -26.5z" />
    <glyph glyph-name="utilde" unicode="&#x169;" horiz-adv-x="459" 
d="M74 23.5q-34 35.5 -34 94.5q0 18 3 37l60 341h75l-59 -331q-2 -18 -2 -25q0 -38 21.5 -60.5t60.5 -22.5q45 0 74 28t38 81l58 330h75l-88 -496h-75l9 50q-16 -29 -49 -45.5t-73 -16.5q-60 0 -94 35.5zM170 627q8 34 30 53t54 19q17 0 30 -5.5t28 -15.5q8 -5 17 -9.5
t18 -4.5q16 0 26 8.5t17 26.5l44 -16q-8 -34 -30.5 -53t-54.5 -19q-17 0 -30 5.5t-28 15.5q-9 5 -18 9.5t-17 4.5q-16 0 -25.5 -8.5t-15.5 -26.5z" />
    <glyph glyph-name="Umacron" unicode="&#x16a;" horiz-adv-x="545" 
d="M102.5 38.5q-49.5 52.5 -49.5 136.5q0 26 4 49l84 476h82l-85 -481q-4 -28 -4 -40q0 -54 28 -85.5t80 -31.5q66 0 103.5 38t51.5 119l85 481h82l-84 -476q-21 -120 -80.5 -179t-164.5 -59q-83 0 -132.5 52.5zM478 825h-205l10 61h205z" />
    <glyph glyph-name="umacron" unicode="&#x16b;" horiz-adv-x="459" 
d="M74 23.5q-34 35.5 -34 94.5q0 18 3 37l60 341h75l-59 -331q-2 -18 -2 -25q0 -38 21.5 -60.5t60.5 -22.5q45 0 74 28t38 81l58 330h75l-88 -496h-75l9 50q-16 -29 -49 -45.5t-73 -16.5q-60 0 -94 35.5zM399 621h-205l10 61h205z" />
    <glyph glyph-name="Ubreve" unicode="&#x16c;" horiz-adv-x="545" 
d="M102.5 38.5q-49.5 52.5 -49.5 136.5q0 26 4 49l84 476h82l-85 -481q-4 -28 -4 -40q0 -54 28 -85.5t80 -31.5q66 0 103.5 38t51.5 119l85 481h82l-84 -476q-21 -120 -80.5 -179t-164.5 -59q-83 0 -132.5 52.5zM308.5 803.5q-23.5 24.5 -23.5 62.5q0 6 2 20h59
q-2 -12 -2 -16q0 -18 8.5 -28t23.5 -10q39 0 49 54h59q-9 -50 -35.5 -78.5t-77.5 -28.5q-39 0 -62.5 24.5z" />
    <glyph glyph-name="ubreve" unicode="&#x16d;" horiz-adv-x="459" 
d="M74 23.5q-34 35.5 -34 94.5q0 18 3 37l60 341h75l-59 -331q-2 -18 -2 -25q0 -38 21.5 -60.5t60.5 -22.5q45 0 74 28t38 81l58 330h75l-88 -496h-75l9 50q-16 -29 -49 -45.5t-73 -16.5q-60 0 -94 35.5zM229.5 599.5q-23.5 24.5 -23.5 62.5q0 6 2 20h59q-2 -12 -2 -16
q0 -18 8.5 -28t23.5 -10q39 0 49 54h59q-9 -50 -35.5 -78.5t-77.5 -28.5q-39 0 -62.5 24.5z" />
    <glyph glyph-name="Uring" unicode="&#x16e;" horiz-adv-x="545" 
d="M102.5 38.5q-49.5 52.5 -49.5 136.5q0 26 4 49l84 476h82l-85 -481q-4 -28 -4 -40q0 -54 28 -85.5t80 -31.5q66 0 103.5 38t51.5 119l85 481h82l-84 -476q-21 -120 -80.5 -179t-164.5 -59q-83 0 -132.5 52.5zM314 787.5q-20 22.5 -20 56.5q0 11 1 17l2 13q7 45 32.5 69
t64.5 24q35 0 55 -22.5t20 -56.5q0 -11 -1 -17l-2 -13q-7 -45 -32 -69t-64 -24q-36 0 -56 22.5zM401.5 826q10.5 12 13.5 33l2 14q1 4 1 10q0 16 -7.5 25.5t-20.5 9.5q-17 0 -28 -12t-14 -33l-2 -14q-1 -3 -1 -10q0 -16 8 -25.5t21 -9.5q17 0 27.5 12z" />
    <glyph glyph-name="uring" unicode="&#x16f;" horiz-adv-x="459" 
d="M74 23.5q-34 35.5 -34 94.5q0 18 3 37l60 341h75l-59 -331q-2 -18 -2 -25q0 -38 21.5 -60.5t60.5 -22.5q45 0 74 28t38 81l58 330h75l-88 -496h-75l9 50q-16 -29 -49 -45.5t-73 -16.5q-60 0 -94 35.5zM235 583.5q-20 22.5 -20 56.5q0 11 1 17l2 13q7 45 32.5 69t64.5 24
q35 0 55 -22.5t20 -56.5q0 -11 -1 -17l-2 -13q-7 -45 -32 -69t-64 -24q-36 0 -56 22.5zM322.5 622q10.5 12 13.5 33l2 14q1 4 1 10q0 16 -7.5 25.5t-20.5 9.5q-17 0 -28 -12t-14 -33l-2 -14q-1 -3 -1 -10q0 -16 8 -25.5t21 -9.5q17 0 27.5 12z" />
    <glyph glyph-name="Uhungarumlaut" unicode="&#x170;" horiz-adv-x="545" 
d="M102.5 38.5q-49.5 52.5 -49.5 136.5q0 26 4 49l84 476h82l-85 -481q-4 -28 -4 -40q0 -54 28 -85.5t80 -31.5q66 0 103.5 38t51.5 119l85 481h82l-84 -476q-21 -120 -80.5 -179t-164.5 -59q-83 0 -132.5 52.5zM324 781h-60l68 149h88zM472 781h-59l68 149h88z" />
    <glyph glyph-name="uhungarumlaut" unicode="&#x171;" horiz-adv-x="459" 
d="M74 23.5q-34 35.5 -34 94.5q0 18 3 37l60 341h75l-59 -331q-2 -18 -2 -25q0 -38 21.5 -60.5t60.5 -22.5q45 0 74 28t38 81l58 330h75l-88 -496h-75l9 50q-16 -29 -49 -45.5t-73 -16.5q-60 0 -94 35.5zM245 577h-60l68 149h88zM393 577h-59l68 149h88z" />
    <glyph glyph-name="Uogonek" unicode="&#x172;" horiz-adv-x="545" 
d="M482 700h82l-84 -476q-18 -101 -62 -158.5t-120 -73.5q-30 -20 -48.5 -47.5t-18.5 -53.5q0 -16 8 -25t22 -9q16 0 33 7l-10 -56q-23 -9 -46 -9q-32 0 -52 21.5t-20 59.5q0 63 49 107q-75 7 -119 58t-44 129q0 22 5 50l84 476h82l-85 -481q-4 -28 -4 -40q0 -54 28 -85.5
t80 -31.5q66 0 103.5 38t51.5 119z" />
    <glyph glyph-name="uogonek" unicode="&#x173;" horiz-adv-x="459" 
d="M356 0q-35 -19 -57.5 -49.5t-22.5 -59.5q0 -16 8 -25t22 -9q16 0 33 7l-10 -56q-23 -9 -46 -9q-32 0 -52 21.5t-20 59.5q0 77 70 122l9 48q-16 -29 -49 -45.5t-73 -16.5q-60 0 -94 35.5t-34 94.5q0 18 3 37l60 341h75l-59 -331q-2 -18 -2 -25q0 -38 21.5 -60.5
t60.5 -22.5q45 0 74 28t38 81l58 330h75z" />
    <glyph glyph-name="Wcircumflex" unicode="&#x174;" horiz-adv-x="656" 
d="M176 0h-95l26 700h77l-28 -563l192 481h85l24 -481l171 563h81l-221 -700h-92l-24 497zM364 781h-65l114 149h69l62 -149h-59l-47 84z" />
    <glyph glyph-name="wcircumflex" unicode="&#x175;" horiz-adv-x="589" 
d="M159 0h-82l-18 496h72l6 -383l159 383h81l23 -383l142 383h76l-192 -496h-82l-21 403zM295 577h-65l114 149h69l62 -149h-59l-47 84z" />
    <glyph glyph-name="Ycircumflex" unicode="&#x176;" horiz-adv-x="477" 
d="M235 0h-82l52 293l-113 407h90l79 -311l186 311h98l-258 -407zM274 781h-65l114 149h69l62 -149h-59l-47 84z" />
    <glyph glyph-name="ycircumflex" unicode="&#x177;" horiz-adv-x="429" 
d="M376 496h81l-305 -591q-24 -47 -44.5 -71.5t-47 -35t-67.5 -10.5q-33 0 -61 10l15 75q24 -15 57 -15q27 0 46.5 16.5t40.5 58.5l37 73l-70 490h78l47 -382zM214 577h-65l114 149h69l62 -149h-59l-47 84z" />
    <glyph glyph-name="Ydieresis" unicode="&#x178;" horiz-adv-x="477" 
d="M235 0h-82l52 293l-113 407h90l79 -311l186 311h98l-258 -407zM229 813.5q-16 16.5 -16 38.5q0 23 16 39t39 16t39 -16t16 -39t-16 -39t-39 -16t-39 16.5zM384 813.5q-16 16.5 -16 38.5q0 23 16 39t39 16t39 -16t16 -39t-16 -39t-39 -16t-39 16.5z" />
    <glyph glyph-name="Zacute" unicode="&#x179;" horiz-adv-x="436" 
d="M354 0h-366l14 75l363 550h-257l14 75h345l-14 -75l-362 -550h277zM342 781h-66l91 149h95z" />
    <glyph glyph-name="zacute" unicode="&#x17a;" horiz-adv-x="375" 
d="M297 0h-316l13 66l292 364h-213l13 66h294l-13 -66l-291 -364h234zM271 577h-66l91 149h95z" />
    <glyph glyph-name="Zdotaccent" unicode="&#x17b;" horiz-adv-x="436" 
d="M354 0h-366l14 75l363 550h-257l14 75h345l-14 -75l-362 -550h277zM282 812.5q-17 16.5 -17 39.5q0 24 16.5 40t40.5 16q23 0 39.5 -16t16.5 -40q0 -23 -16.5 -39.5t-39.5 -16.5t-40 16.5z" />
    <glyph glyph-name="zdotaccent" unicode="&#x17c;" horiz-adv-x="375" 
d="M297 0h-316l13 66l292 364h-213l13 66h294l-13 -66l-291 -364h234zM211 608.5q-17 16.5 -17 39.5q0 24 16.5 40t40.5 16q23 0 39.5 -16t16.5 -40q0 -23 -16.5 -39.5t-39.5 -16.5t-40 16.5z" />
    <glyph glyph-name="Zcaron" unicode="&#x17d;" horiz-adv-x="436" 
d="M354 0h-366l14 75l363 550h-257l14 75h345l-14 -75l-362 -550h277zM343 781h-69l-62 149h59l47 -84l74 84h65z" />
    <glyph glyph-name="zcaron" unicode="&#x17e;" horiz-adv-x="375" 
d="M297 0h-316l13 66l292 364h-213l13 66h294l-13 -66l-291 -364h234zM272 577h-69l-62 149h59l47 -84l74 84h65z" />
    <glyph glyph-name="florin" unicode="&#x192;" horiz-adv-x="312" 
d="M254.5 625q-19.5 -18 -26.5 -52l-14 -77h124l-12 -66h-123l-91 -515q-12 -67 -51 -100t-100 -33q-32 0 -60 11l13 71q26 -13 54 -13t46 17t23 47l92 515h-78l12 66h77l14 76q13 70 53.5 105t105.5 35q34 0 61 -11l-13 -71q-27 13 -57 13t-49.5 -18z" />
    <glyph glyph-name="uni01B5" unicode="&#x1b5;" horiz-adv-x="436" 
d="M122 700h345l-14 -75l-153 -233h71l-12 -71h-106l-162 -246h277l-14 -75h-366l14 75l162 246h-77l12 71h112l154 233h-257z" />
    <glyph glyph-name="uni01B6" unicode="&#x1b6;" horiz-adv-x="375" 
d="M86 496h294l-13 -66l-122 -152h64l-10 -59h-101l-122 -153h234l-13 -66h-316l13 66l123 153h-64l10 59h101l122 152h-213z" />
    <glyph glyph-name="AEacute" unicode="&#x1fc;" horiz-adv-x="728" 
d="M758 700l-14 -75h-262l-40 -227h221l-13 -74h-221l-43 -249h264l-14 -75h-346l32 179h-166l-93 -179h-93l376 700h412zM194 252h141l66 373h-13zM573 781h-66l91 149h95z" />
    <glyph glyph-name="aeacute" unicode="&#x1fd;" horiz-adv-x="754" 
d="M103 10.5q-34 22.5 -53 62t-19 87.5q0 25 4 45l17 94q19 104 72.5 156.5t137.5 52.5q41 0 71.5 -18t45.5 -46l9 52h74l-9 -52q20 32 52.5 48t72.5 16q41 0 74 -21.5t52 -60t19 -87.5q0 -24 -4 -45l-10 -59h-294l-6 -36q-3 -19 -3 -38q0 -50 24 -77.5t65 -27.5
q46 0 74.5 24t46.5 71l67 -21q-28 -70 -72 -106t-116 -36q-38 0 -66 17.5t-45 50.5l-10 -56h-74l10 56q-23 -34 -54.5 -51t-76.5 -17q-42 0 -76 22.5zM426 293h220l2 14q2 20 2 27q0 49 -25 78t-70 29q-51 0 -84 -37t-44 -105zM292 95.5q34 36.5 46 106.5l16 92q3 18 3 33
q0 50 -26.5 80t-70.5 30q-51 0 -85 -36t-47 -107l-16 -92q-3 -18 -3 -34q0 -50 27 -79.5t70 -29.5q52 0 86 36.5zM473 577h-66l91 149h95z" />
    <glyph glyph-name="uni0218" unicode="&#x218;" horiz-adv-x="470" 
d="M76.5 38q-46.5 52 -51.5 135l78 20q5 -63 32.5 -97.5t74.5 -34.5q64 0 96.5 36.5t32.5 98.5q0 49 -23.5 78.5t-81.5 59.5q-135 69 -135 191q0 52 24 94.5t70.5 67.5t110.5 25q74 0 119 -41t50 -114l-75 -23q-4 48 -33.5 75.5t-72.5 27.5q-51 0 -80 -29t-29 -77
q0 -40 24 -71.5t82 -62.5q66 -35 100 -80.5t34 -107.5q0 -102 -59.5 -162.5t-162.5 -60.5q-78 0 -124.5 52zM140 -236l-17 14l16 20q17 21 24 42q-12 4 -20.5 15.5t-8.5 24.5q0 22 13.5 37t36.5 15q21 0 33.5 -13.5t12.5 -33.5q0 -49 -66 -102z" />
    <glyph glyph-name="uni0219" unicode="&#x219;" horiz-adv-x="396" 
d="M66 23.5q-38 37.5 -47 96.5l70 22q5 -40 28 -64.5t60 -24.5q39 0 62 21.5t23 59.5q0 31 -19.5 52t-65.5 45q-100 52 -100 140q0 62 41.5 98.5t109.5 36.5q60 0 97 -30t45 -84l-66 -23q-6 35 -28 54.5t-54 19.5q-33 0 -54 -19t-21 -48q0 -28 19 -49.5t62 -44.5
q55 -29 81.5 -61t26.5 -81q0 -69 -46 -111.5t-118 -42.5q-68 0 -106 37.5zM81 -236l-17 14l16 20q17 21 24 42q-12 4 -20.5 15.5t-8.5 24.5q0 22 13.5 37t36.5 15q21 0 33.5 -13.5t12.5 -33.5q0 -49 -66 -102z" />
    <glyph glyph-name="uni021A" unicode="&#x21a;" horiz-adv-x="432" 
d="M488 700l-14 -75h-150l-111 -625h-82l111 625h-152l14 75h384zM96 -236l-17 14l16 20q17 21 24 42q-12 4 -20.5 15.5t-8.5 24.5q0 22 13.5 37t36.5 15q21 0 33.5 -13.5t12.5 -33.5q0 -49 -66 -102z" />
    <glyph glyph-name="uni021B" unicode="&#x21b;" horiz-adv-x="322" 
d="M209 430l-55 -312q-2 -10 -2 -16q0 -21 12.5 -33t34.5 -12q17 0 31.5 3.5t32.5 12.5l-12 -70q-35 -15 -81 -15q-44 0 -69.5 26.5t-25.5 71.5q0 13 3 28l56 316h-78l12 66h78l16 91l81 37l-23 -128h118l-12 -66h-117zM101 -236l-17 14l16 20q17 21 24 42q-12 4 -20.5 15.5
t-8.5 24.5q0 22 13.5 37t36.5 15q21 0 33.5 -13.5t12.5 -33.5q0 -49 -66 -102z" />
    <glyph glyph-name="uni0237" unicode="&#x237;" 
d="M-113 -203l12 70q23 -10 44 -10q25 0 39 15t20 49l101 575h75l-101 -573q-13 -73 -45.5 -104t-87.5 -31q-36 0 -57 9z" />
    <glyph glyph-name="circumflex" unicode="&#x2c6;" horiz-adv-x="282" 
d="M141 577h-65l114 149h69l62 -149h-59l-47 84z" />
    <glyph glyph-name="caron" unicode="&#x2c7;" horiz-adv-x="282" 
d="M233 577h-69l-62 149h59l47 -84l74 84h65z" />
    <glyph glyph-name="uni02C9" unicode="&#x2c9;" horiz-adv-x="249" 
d="M293 621h-205l10 61h205z" />
    <glyph glyph-name="breve" unicode="&#x2d8;" horiz-adv-x="221" 
d="M110.5 599.5q-23.5 24.5 -23.5 62.5q0 6 2 20h59q-2 -12 -2 -16q0 -18 8.5 -28t23.5 -10q39 0 49 54h59q-9 -50 -35.5 -78.5t-77.5 -28.5q-39 0 -62.5 24.5z" />
    <glyph glyph-name="dotaccent" unicode="&#x2d9;" horiz-adv-x="175" 
d="M118 608.5q-17 16.5 -17 39.5q0 24 16.5 40t40.5 16q23 0 39.5 -16t16.5 -40q0 -23 -16.5 -39.5t-39.5 -16.5t-40 16.5z" />
    <glyph glyph-name="ring" unicode="&#x2da;" horiz-adv-x="211" 
d="M111 583.5q-20 22.5 -20 56.5q0 11 1 17l2 13q7 45 32.5 69t64.5 24q35 0 55 -22.5t20 -56.5q0 -11 -1 -17l-2 -13q-7 -45 -32 -69t-64 -24q-36 0 -56 22.5zM198.5 622q10.5 12 13.5 33l2 14q1 4 1 10q0 16 -7.5 25.5t-20.5 9.5q-17 0 -28 -12t-14 -33l-2 -14
q-1 -3 -1 -10q0 -16 8 -25.5t21 -9.5q17 0 27.5 12z" />
    <glyph glyph-name="ogonek" unicode="&#x2db;" horiz-adv-x="140" 
d="M-40 -179.5q-20 21.5 -20 59.5q0 86 87 132l58 -12q-35 -19 -57.5 -49.5t-22.5 -59.5q0 -16 8 -25t22 -9q16 0 33 7l-10 -56q-23 -9 -46 -9q-32 0 -52 21.5z" />
    <glyph glyph-name="tilde" unicode="&#x2dc;" horiz-adv-x="294" 
d="M87 627q8 34 30 53t54 19q17 0 30 -5.5t28 -15.5q8 -5 17 -9.5t18 -4.5q16 0 26 8.5t17 26.5l44 -16q-8 -34 -30.5 -53t-54.5 -19q-17 0 -30 5.5t-28 15.5q-9 5 -18 9.5t-17 4.5q-16 0 -25.5 -8.5t-15.5 -26.5z" />
    <glyph glyph-name="hungarumlaut" unicode="&#x2dd;" horiz-adv-x="303" 
d="M130 577h-60l68 149h88zM278 577h-59l68 149h88z" />
    <glyph glyph-name="gravecomb" unicode="&#x300;" horiz-adv-x="0" 
d="M42 577h-59l-75 149h89z" />
    <glyph glyph-name="acutecomb" unicode="&#x301;" horiz-adv-x="0" 
d="M-52 577h-66l91 149h95z" />
    <glyph glyph-name="uni0302" unicode="&#x302;" horiz-adv-x="0" 
d="M-141 577h-65l114 149h69l62 -149h-59l-47 84z" />
    <glyph glyph-name="tildecomb" unicode="&#x303;" horiz-adv-x="0" 
d="M-207 627q8 34 30 53t54 19q17 0 30 -5.5t28 -15.5q8 -5 17 -9.5t18 -4.5q16 0 26 8.5t17 26.5l44 -16q-8 -34 -30.5 -53t-54.5 -19q-17 0 -30 5.5t-28 15.5q-9 5 -18 9.5t-17 4.5q-16 0 -25.5 -8.5t-15.5 -26.5z" />
    <glyph glyph-name="uni0304" unicode="&#x304;" horiz-adv-x="0" 
d="M44 621h-205l10 61h205z" />
    <glyph glyph-name="uni0306" unicode="&#x306;" horiz-adv-x="0" 
d="M-110.5 599.5q-23.5 24.5 -23.5 62.5q0 6 2 20h59q-2 -12 -2 -16q0 -18 8.5 -28t23.5 -10q39 0 49 54h59q-9 -50 -35.5 -78.5t-77.5 -28.5q-39 0 -62.5 24.5z" />
    <glyph glyph-name="uni0307" unicode="&#x307;" horiz-adv-x="0" 
d="M-57 608.5q-17 16.5 -17 39.5q0 24 16.5 40t40.5 16q23 0 39.5 -16t16.5 -40q0 -23 -16.5 -39.5t-39.5 -16.5t-40 16.5z" />
    <glyph glyph-name="uni0308" unicode="&#x308;" horiz-adv-x="0" 
d="M-204 609.5q-16 16.5 -16 38.5q0 23 16 39t39 16t39 -16t16 -39t-16 -39t-39 -16t-39 16.5zM-49 609.5q-16 16.5 -16 38.5q0 23 16 39t39 16t39 -16t16 -39t-16 -39t-39 -16t-39 16.5z" />
    <glyph glyph-name="uni030A" unicode="&#x30a;" horiz-adv-x="0" 
d="M-100 583.5q-20 22.5 -20 56.5q0 11 1 17l2 13q7 45 32.5 69t64.5 24q35 0 55 -22.5t20 -56.5q0 -11 -1 -17l-2 -13q-7 -45 -32 -69t-64 -24q-36 0 -56 22.5zM-12.5 622q10.5 12 13.5 33l2 14q1 4 1 10q0 16 -7.5 25.5t-20.5 9.5q-17 0 -28 -12t-14 -33l-2 -14
q-1 -3 -1 -10q0 -16 8 -25.5t21 -9.5q17 0 27.5 12z" />
    <glyph glyph-name="uni030B" unicode="&#x30b;" horiz-adv-x="0" 
d="M-173 577h-60l68 149h88zM-25 577h-59l68 149h88z" />
    <glyph glyph-name="uni030C" unicode="&#x30c;" horiz-adv-x="0" 
d="M-48 577h-69l-62 149h59l47 -84l74 84h65z" />
    <glyph glyph-name="uni0312" unicode="&#x312;" horiz-adv-x="0" 
d="M-53.5 584.5q-12.5 12.5 -12.5 31.5q0 26 13 44.5t37 40.5l30 26l13 -12l-18 -24q-10 -11 -18 -32q13 -3 22.5 -13.5t9.5 -24.5q0 -23 -13 -36t-33 -13q-18 0 -30.5 12.5z" />
    <glyph glyph-name="uni0326" unicode="&#x326;" horiz-adv-x="0" 
d="M-173 -236l-17 14l16 20q17 21 24 42q-12 4 -20.5 15.5t-8.5 24.5q0 22 13.5 37t36.5 15q21 0 33.5 -13.5t12.5 -33.5q0 -49 -66 -102z" />
    <glyph glyph-name="uni0327" unicode="&#x327;" horiz-adv-x="0" 
d="M-95 -62q19 -21 19 -53q0 -47 -26.5 -74t-77.5 -27q-22 0 -41.5 7t-32.5 18l30 41q19 -17 46 -17q22 0 34 12t12 34q0 16 -9 26t-24 10q-22 0 -33 -18l-38 13l36 102h50l-24 -58q15 5 29 5q31 0 50 -21z" />
    <glyph glyph-name="uni0328" unicode="&#x328;" horiz-adv-x="0" 
d="M-180 -179.5q-20 21.5 -20 59.5q0 86 87 132l58 -12q-35 -19 -57.5 -49.5t-22.5 -59.5q0 -16 8 -25t22 -9q16 0 33 7l-10 -56q-23 -9 -46 -9q-32 0 -52 21.5z" />
    <glyph glyph-name="pi" unicode="&#x3c0;" horiz-adv-x="545" 
d="M450 430l-55 -317q-2 -12 -2 -16q0 -19 10 -29.5t30 -10.5q14 0 25.5 3t27.5 10l-13 -70q-19 -7 -31.5 -9.5t-36.5 -2.5q-40 0 -64.5 26t-24.5 70q0 13 3 28l56 318h-146l-76 -430h-75l76 430h-98l12 66h493l-12 -66h-99z" />
    <glyph glyph-name="uni0400" unicode="&#x400;" horiz-adv-x="460" 
d="M368 0h-346l124 700h344l-14 -75h-262l-40 -227h222l-13 -74h-222l-43 -249h264zM365 781h-59l-75 149h89z" />
    <glyph glyph-name="uni0401" unicode="&#x401;" horiz-adv-x="460" 
d="M368 0h-346l124 700h344l-14 -75h-262l-40 -227h222l-13 -74h-222l-43 -249h264zM231 813.5q-16 16.5 -16 38.5q0 23 16 39t39 16t39 -16t16 -39t-16 -39t-39 -16t-39 16.5zM386 813.5q-16 16.5 -16 38.5q0 23 16 39t39 16t39 -16t16 -39t-16 -39t-39 -16t-39 16.5z" />
    <glyph glyph-name="uni0402" unicode="&#x402;" horiz-adv-x="591" 
d="M262 3l12 69q40 -11 73 -11q44 0 65.5 27.5t31.5 86.5l17 98q3 15 3 28q0 38 -21.5 58t-61.5 20q-26 0 -55 -8.5t-50 -20.5l-62 -350h-82l110 625h-151l13 75h384l-13 -75h-151l-35 -203q26 13 53 19.5t65 6.5q61 0 97 -33.5t36 -97.5q0 -24 -4 -45l-18 -103
q-15 -89 -58 -133t-121 -44q-35 0 -77 11z" />
    <glyph glyph-name="uni0403" unicode="&#x403;" horiz-adv-x="442" 
d="M105 0h-82l123 700h340l-13 -75h-258zM363 781h-66l91 149h95z" />
    <glyph glyph-name="uni0404" unicode="&#x404;" horiz-adv-x="525" 
d="M346.5 95q35.5 34 58.5 106l71 -20q-33 -101 -86 -148t-151 -47q-86 0 -138 58t-52 158q0 33 6 70l28 160q49 282 270 282q86 0 132.5 -51.5t50.5 -144.5l-77 -18q-3 64 -32 101.5t-85 37.5q-68 0 -113 -50.5t-62 -147.5l-10 -54h216l-14 -74h-215l-8 -48q-5 -26 -5 -58
q0 -68 30.5 -107t83.5 -39q66 0 101.5 34z" />
    <glyph glyph-name="uni0405" unicode="&#x405;" horiz-adv-x="470" 
d="M76.5 38q-46.5 52 -51.5 135l78 20q5 -63 32.5 -97.5t74.5 -34.5q64 0 96.5 36.5t32.5 98.5q0 49 -23.5 78.5t-81.5 59.5q-135 69 -135 191q0 52 24 94.5t70.5 67.5t110.5 25q74 0 119 -41t50 -114l-75 -23q-4 48 -33.5 75.5t-72.5 27.5q-51 0 -80 -29t-29 -77
q0 -40 24 -71.5t82 -62.5q66 -35 100 -80.5t34 -107.5q0 -102 -59.5 -162.5t-162.5 -60.5q-78 0 -124.5 52z" />
    <glyph glyph-name="uni0406" unicode="&#x406;" horiz-adv-x="214" 
d="M104 0h-82l124 700h82z" />
    <glyph glyph-name="uni0407" unicode="&#x407;" horiz-adv-x="214" 
d="M104 0h-82l124 700h82zM98 813.5q-16 16.5 -16 38.5q0 23 16 39t39 16t39 -16t16 -39t-16 -39t-39 -16t-39 16.5zM253 813.5q-16 16.5 -16 38.5q0 23 16 39t39 16t39 -16t16 -39t-16 -39t-39 -16t-39 16.5z" />
    <glyph glyph-name="uni0408" unicode="&#x408;" horiz-adv-x="444" 
d="M61.5 26.5q-42.5 40.5 -51.5 105.5l82 27q13 -97 86 -97q48 0 74 31t38 97l90 510h82l-89 -506q-19 -106 -66.5 -157t-138.5 -51q-64 0 -106.5 40.5z" />
    <glyph glyph-name="uni0409" unicode="&#x409;" horiz-adv-x="848" 
d="M9.5 -9q-21.5 5 -32.5 13l14 79q24 -21 58 -21q37 0 58 28t41 105l133 505h316l-57 -323h90q76 0 122.5 -43.5t46.5 -122.5q0 -97 -58 -154t-165 -57h-185l111 624h-159l-114 -422q-23 -85 -46.5 -131.5t-54 -65.5t-76.5 -19q-21 0 -42.5 5zM584 73q64 0 98.5 36.5
t34.5 99.5q0 47 -29 71.5t-76 24.5h-84l-41 -232h97z" />
    <glyph glyph-name="uni040A" unicode="&#x40a;" horiz-adv-x="815" 
d="M22 0l124 700h82l-52 -293h254l52 293h82l-52 -293h84q82 0 127.5 -45t45.5 -133q0 -67 -28.5 -119t-82 -81t-127.5 -29h-173l59 331h-254l-59 -331h-82zM539 73q74 0 111 40.5t37 109.5q0 56 -27 82t-82 26h-79l-46 -258h86z" />
    <glyph glyph-name="uni040B" unicode="&#x40b;" horiz-adv-x="590" 
d="M131 0l110 625h-151l14 75h384l-14 -75h-151l-36 -207q21 13 52 21.5t67 8.5q64 0 99 -34.5t35 -93.5q0 -17 -3 -37l-50 -283h-75l48 273q2 18 2 24q0 38 -22 60t-63 22q-26 0 -55 -9.5t-48 -22.5l-61 -347h-82z" />
    <glyph glyph-name="uni040C" unicode="&#x40c;" horiz-adv-x="458" 
d="M259 345l131 -345h-88l-119 313h-24l-55 -313h-82l124 700h82l-56 -315h23l224 315h95zM364 781h-66l91 149h95z" />
    <glyph glyph-name="uni040D" unicode="&#x40d;" horiz-adv-x="527" 
d="M541 700l-124 -700h-79l97 547l-339 -547h-74l124 700h79l-92 -520l320 520h88zM389 781h-59l-75 149h89z" />
    <glyph glyph-name="uni040E" unicode="&#x40e;" horiz-adv-x="435" 
d="M408 700h88l-271 -584q-34 -72 -71 -100.5t-94 -28.5q-22 0 -45 5.5t-37 13.5l15 80q34 -23 74 -23q30 0 49 18t38 61l22 48l-78 510h82l53 -385zM258 804.5q-23 25.5 -23 65.5q0 16 2 25h59q-2 -18 -2 -23q0 -40 34 -40q45 0 55 63h59q-21 -116 -123 -116
q-38 0 -61 25.5z" />
    <glyph glyph-name="uni040F" unicode="&#x40f;" horiz-adv-x="551" 
d="M247 -142h-80l25 142h-169l123 700h82l-110 -624h254l110 624h82l-123 -700h-169z" />
    <glyph glyph-name="uni0410" unicode="&#x410;" horiz-adv-x="505" 
d="M447 0h-82l-14 168h-219l-73 -168h-89l313 700h97zM316 595l-153 -354h182z" />
    <glyph glyph-name="uni0411" unicode="&#x411;" horiz-adv-x="479" 
d="M22 0l124 700h329l-14 -75h-246l-44 -248h90q76 0 122.5 -43.5t46.5 -122.5q0 -97 -58 -154t-165 -57h-185zM215 73q64 0 98.5 36.5t34.5 99.5q0 47 -29 71.5t-76 24.5h-85l-41 -232h98z" />
    <glyph glyph-name="uni0412" unicode="&#x412;" horiz-adv-x="499" 
d="M22 0l124 700h177q74 0 116 -43t42 -113q0 -69 -30.5 -112.5t-81.5 -61.5q34 -15 55 -51.5t21 -90.5q0 -67 -27.5 -118.5t-79.5 -80.5t-121 -29h-195zM276 404q58 0 90.5 36.5t32.5 92.5q0 45 -23.5 69t-64.5 24h-96l-39 -222h100zM226 75q67 0 102 42t35 108
q0 52 -23 79.5t-69 27.5h-108l-45 -257h108z" />
    <glyph glyph-name="uni0413" unicode="&#x413;" horiz-adv-x="442" 
d="M105 0h-82l123 700h340l-13 -75h-258z" />
    <glyph glyph-name="uni0414" unicode="&#x414;" horiz-adv-x="587" 
d="M-31 -142l38 217h65q58 106 94 266l80 359h319l-110 -625h63l-38 -217h-80l25 142h-351l-25 -142h-80zM373 75l97 550h-163l-66 -288q-39 -169 -88 -262h220z" />
    <glyph glyph-name="uni0415" unicode="&#x415;" horiz-adv-x="460" 
d="M368 0h-346l124 700h344l-14 -75h-262l-40 -227h222l-13 -74h-222l-43 -249h264z" />
    <glyph glyph-name="uni0416" unicode="&#x416;" horiz-adv-x="702" 
d="M75 0h-95l255 358l-131 342h88l119 -315h23l56 315h82l-56 -315h23l224 315h95l-255 -355l131 -345h-88l-119 313h-24l-55 -313h-82l55 313h-23z" />
    <glyph glyph-name="uni0417" unicode="&#x417;" horiz-adv-x="480" 
d="M66.5 42q-43.5 54 -39.5 151l75 11q-1 -70 24 -107t72 -37q108 0 130 127l6 34q3 20 3 35q0 43 -22.5 63.5t-68.5 20.5h-40l12 66h40q46 0 75 28t39 81l5 27q2 16 2 23q0 36 -23 57.5t-66 21.5q-48 0 -77.5 -29t-42.5 -87l-71 11q17 85 70 130t133 45q72 0 113 -36.5
t41 -97.5q0 -16 -3 -34l-6 -33q-10 -55 -36.5 -88.5t-63.5 -46.5q70 -33 70 -116q0 -23 -4 -44l-6 -34q-35 -196 -217 -196q-80 0 -123.5 54z" />
    <glyph glyph-name="uni0418" unicode="&#x418;" horiz-adv-x="527" 
d="M541 700l-124 -700h-79l97 547l-339 -547h-74l124 700h79l-92 -520l320 520h88z" />
    <glyph glyph-name="uni0419" unicode="&#x419;" horiz-adv-x="527" 
d="M541 700l-124 -700h-79l97 547l-339 -547h-74l124 700h79l-92 -520l320 520h88zM297 804.5q-23 25.5 -23 65.5q0 16 2 25h59q-2 -18 -2 -23q0 -40 34 -40q45 0 55 63h59q-21 -116 -123 -116q-38 0 -61 25.5z" />
    <glyph glyph-name="uni041A" unicode="&#x41a;" horiz-adv-x="458" 
d="M259 345l131 -345h-88l-119 313h-24l-55 -313h-82l124 700h82l-56 -315h23l224 315h95z" />
    <glyph glyph-name="uni041B" unicode="&#x41b;" horiz-adv-x="584" 
d="M9.5 -9q-21.5 5 -32.5 13l14 79q24 -21 58 -21q37 0 58 28t41 105l133 505h316l-123 -700h-82l110 624h-159l-114 -422q-23 -85 -46.5 -131.5t-54 -65.5t-76.5 -19q-21 0 -42.5 5z" />
    <glyph glyph-name="uni041C" unicode="&#x41c;" horiz-adv-x="602" 
d="M102 0h-80l124 700h89l62 -460l224 460h95l-124 -700h-80l89 504l-180 -364h-75l-55 364z" />
    <glyph glyph-name="uni041D" unicode="&#x41d;" horiz-adv-x="550" 
d="M104 0h-82l124 700h82l-52 -293h254l52 293h82l-124 -700h-82l59 331h-254z" />
    <glyph glyph-name="uni041E" unicode="&#x41e;" horiz-adv-x="565" 
d="M144.5 13q-44.5 27 -70 76.5t-25.5 115.5q0 32 6 66l28 158q26 148 94.5 216.5t176.5 68.5q57 0 102 -27t70.5 -76.5t25.5 -115.5q0 -31 -6 -66l-28 -158q-26 -148 -95 -216.5t-177 -68.5q-57 0 -101.5 27zM372.5 110.5q44.5 49.5 62.5 153.5l30 172q5 25 5 57
q0 69 -33 107.5t-92 38.5q-72 0 -116.5 -49.5t-62.5 -153.5l-30 -172q-5 -25 -5 -57q0 -69 33 -107.5t91 -38.5q73 0 117.5 49.5z" />
    <glyph glyph-name="uni041F" unicode="&#x41f;" horiz-adv-x="550" 
d="M104 0h-82l124 700h418l-124 -700h-82l110 624h-254z" />
    <glyph glyph-name="uni0420" unicode="&#x420;" horiz-adv-x="474" 
d="M22 0l124 700h185q71 0 113.5 -42t42.5 -117q0 -101 -59 -159.5t-164 -58.5h-103l-57 -323h-82zM272 395q66 0 99.5 36.5t33.5 100.5q0 47 -24 71t-68 24h-98l-41 -232h98z" />
    <glyph glyph-name="uni0421" unicode="&#x421;" horiz-adv-x="525" 
d="M101 44q-52 58 -52 158q0 33 6 70l28 160q49 282 270 282q86 0 132.5 -51.5t50.5 -144.5l-77 -18q-3 64 -32 101.5t-85 37.5q-68 0 -113 -50.5t-62 -147.5l-31 -176q-5 -26 -5 -58q0 -68 30.5 -107t83.5 -39q66 0 101.5 34t58.5 106l71 -20q-33 -101 -86 -148t-151 -47
q-86 0 -138 58z" />
    <glyph glyph-name="uni0422" unicode="&#x422;" horiz-adv-x="432" 
d="M488 700l-14 -75h-150l-111 -625h-82l111 625h-152l14 75h384z" />
    <glyph glyph-name="uni0423" unicode="&#x423;" horiz-adv-x="435" 
d="M408 700h88l-271 -584q-34 -72 -71 -100.5t-94 -28.5q-22 0 -45 5.5t-37 13.5l15 80q34 -23 74 -23q30 0 49 18t38 61l22 48l-78 510h82l53 -385z" />
    <glyph glyph-name="uni0424" unicode="&#x424;" horiz-adv-x="524" 
d="M369 626q66 -13 101 -59t35 -113q0 -26 -4 -47l-20 -114q-17 -95 -69.5 -153.5t-139.5 -67.5l-15 -86h-82l16 88q-66 13 -101 59t-35 113q0 26 4 47l20 114q17 95 69.5 153.5t139.5 67.5l15 86h82zM141 292q-3 -19 -3 -38q0 -40 16.5 -67t49.5 -37l70 400
q-46 -11 -74.5 -47.5t-38.5 -94.5zM419 408q3 20 3 38q0 40 -16.5 67t-49.5 37l-70 -400q46 10 74.5 46.5t38.5 95.5z" />
    <glyph glyph-name="uni0425" unicode="&#x425;" horiz-adv-x="463" 
d="M74 0h-98l231 367l-97 333h86l68 -257l160 257h93l-221 -341l103 -359h-84l-79 278z" />
    <glyph glyph-name="uni0426" unicode="&#x426;" horiz-adv-x="586" 
d="M479 -142h-80l25 142h-401l123 700h82l-110 -624h254l110 624h82l-110 -625h63z" />
    <glyph glyph-name="uni0427" unicode="&#x427;" horiz-adv-x="514" 
d="M375 301q-26 -17 -59.5 -28t-72.5 -11q-70 0 -109.5 42t-39.5 110q0 24 4 45l43 241h82l-44 -248q-3 -15 -3 -29q0 -41 22.5 -63.5t61.5 -22.5q72 0 130 48l56 315h82l-124 -700h-82z" />
    <glyph glyph-name="uni0428" unicode="&#x428;" horiz-adv-x="790" 
d="M406 76h206l110 624h82l-124 -700h-658l124 700h82l-110 -624h206l110 624h82z" />
    <glyph glyph-name="uni0429" unicode="&#x429;" horiz-adv-x="826" 
d="M612 76l110 624h82l-110 -625h63l-38 -217h-80l25 142h-641l123 700h82l-110 -624h206l110 624h82l-110 -624h206z" />
    <glyph glyph-name="uni042A" unicode="&#x42a;" horiz-adv-x="561" 
d="M104 0l110 625h-113l14 75h195l-57 -323h90q76 0 122.5 -43.5t46.5 -122.5q0 -97 -58 -154t-165 -57h-185zM297 73q64 0 98.5 36.5t34.5 99.5q0 47 -29 71.5t-76 24.5h-85l-41 -232h98z" />
    <glyph glyph-name="uni042B" unicode="&#x42b;" horiz-adv-x="662" 
d="M22 0l124 700h82l-57 -323h90q76 0 122.5 -43.5t46.5 -122.5q0 -97 -58 -154t-165 -57h-185zM215 73q64 0 98.5 36.5t34.5 99.5q0 47 -29 71.5t-76 24.5h-85l-41 -232h98zM552 0h-82l124 700h82z" />
    <glyph glyph-name="uni042C" unicode="&#x42c;" horiz-adv-x="479" 
d="M22 0l124 700h82l-57 -323h90q76 0 122.5 -43.5t46.5 -122.5q0 -97 -58 -154t-165 -57h-185zM215 73q64 0 98.5 36.5t34.5 99.5q0 47 -29 71.5t-76 24.5h-85l-41 -232h98z" />
    <glyph glyph-name="uni042D" unicode="&#x42d;" horiz-adv-x="525" 
d="M460 656q52 -58 52 -158q0 -32 -6 -70l-28 -160q-25 -145 -91.5 -213.5t-176.5 -68.5q-84 0 -132 53t-53 143l77 18q3 -64 32 -101.5t85 -37.5q140 0 175 198l10 54h-216l14 74h215l8 48q5 26 5 58q0 68 -30.5 107t-83.5 39q-65 0 -102.5 -34.5t-57.5 -105.5l-71 20
q26 98 82 146.5t155 48.5q86 0 138 -58z" />
    <glyph glyph-name="uni042E" unicode="&#x42e;" horiz-adv-x="739" 
d="M634 687.5q43 -26.5 67.5 -76t24.5 -115.5q0 -31 -6 -67l-28 -158q-26 -148 -92.5 -216.5t-171.5 -68.5q-55 0 -98 26.5t-67 75.5t-24 115q0 32 6 68l11 60h-93l-59 -331h-82l124 700h82l-52 -293h93l4 22q26 148 92 216.5t171 68.5q55 0 98 -26.5zM639 436q6 32 6 60
q0 68 -31 105.5t-87 37.5q-71 0 -112 -49t-59 -154l-30 -172q-6 -33 -6 -62q0 -67 30.5 -104t86.5 -37q72 0 113 49t59 154z" />
    <glyph glyph-name="uni042F" unicode="&#x42f;" horiz-adv-x="494" 
d="M83 254q15 47 34 72t48 35q-33 18 -53.5 52t-20.5 82q0 100 58.5 152.5t161.5 52.5h197l-124 -700h-82l57 323h-109q-35 0 -55 -17.5t-33 -62.5l-72 -243h-84zM372 395l41 232h-112q-57 0 -92.5 -37.5t-35.5 -91.5q0 -48 24 -75.5t65 -27.5h110z" />
    <glyph glyph-name="uni0430" unicode="&#x430;" horiz-adv-x="477" 
d="M103 10.5q-34 22.5 -53 62t-19 87.5q0 25 4 45l17 94q19 104 72.5 156.5t137.5 52.5q41 0 71.5 -18t45.5 -46l9 52h74l-88 -496h-74l10 56q-23 -34 -54.5 -51t-76.5 -17q-42 0 -76 22.5zM292 95.5q34 36.5 46 106.5l16 92q3 18 3 33q0 50 -26.5 80t-70.5 30
q-51 0 -85 -36t-47 -107l-16 -92q-3 -18 -3 -34q0 -50 27 -79.5t70 -29.5q52 0 86 36.5z" />
    <glyph glyph-name="uni0431" unicode="&#x431;" horiz-adv-x="447" 
d="M72 30.5q-43 43.5 -43 116.5q0 26 4 47l46 257q19 107 72.5 155.5t150.5 48.5q55 0 93 13.5t72 41.5l-15 -82q-29 -23 -63.5 -33t-98.5 -10q-55 0 -88 -30.5t-44 -95.5l-11 -63q17 27 48 44.5t76 17.5q63 0 101 -43t38 -108q0 -18 -3 -38l-16 -93q-32 -189 -206 -189
q-70 0 -113 43.5zM272 90.5q31 31.5 40 84.5l17 95q3 15 3 29q0 41 -23 64t-66 23q-47 0 -78 -31.5t-40 -84.5l-17 -95q-3 -15 -3 -28q0 -40 23 -64t65 -24q48 0 79 31.5z" />
    <glyph glyph-name="uni0432" unicode="&#x432;" horiz-adv-x="406" 
d="M15 0l88 496h152q56 0 89.5 -31t33.5 -78q0 -8 -2 -22l-1 -6q-6 -39 -25.5 -60.5t-49.5 -33.5q25 -12 41 -36t16 -60q0 -14 -3 -29l-2 -11q-12 -66 -54 -97.5t-120 -31.5h-163zM221 292q32 0 52.5 16.5t25.5 48.5l2 12q1 4 1 12q0 23 -16 36t-43 13h-77l-24 -138h79z
M181 68q42 0 66 17.5t31 57.5l2 11q2 12 2 18q0 29 -19 44.5t-53 15.5h-79l-29 -164h79z" />
    <glyph glyph-name="uni0433" unicode="&#x433;" horiz-adv-x="367" 
d="M90 0h-75l88 496h280l-12 -68h-205z" />
    <glyph glyph-name="uni0434" unicode="&#x434;" horiz-adv-x="475" 
d="M-41 -122l33 190h43q30 56 50 110t37 125l46 193h268l-75 -428h58l-33 -190h-72l21 122h-283l-21 -122h-72zM289 68l63 360h-127l-30 -124q-18 -76 -37 -129.5t-45 -106.5h176z" />
    <glyph glyph-name="uni0435" unicode="&#x435;" horiz-adv-x="456" 
d="M381 461q44 -47 44 -123q0 -24 -4 -44l-10 -59h-294l-6 -36q-4 -28 -4 -39q0 -49 24.5 -76.5t65.5 -27.5q46 0 74.5 24t46.5 71l67 -21q-28 -71 -73 -106.5t-121 -35.5q-72 0 -116 48.5t-44 123.5q0 25 4 45l16 87q19 104 74 160t142 56q70 0 114 -47zM128 293h220l2 14
q3 15 3 30q0 47 -26 75.5t-70 28.5q-51 0 -83.5 -36.5t-44.5 -105.5z" />
    <glyph glyph-name="uni0436" unicode="&#x436;" horiz-adv-x="609" 
d="M71 0h-88l202 250l-114 246h78l104 -220h19l39 220h75l-39 -220h18l173 220h88l-202 -250l114 -246h-78l-104 220h-19l-39 -220h-75l39 220h-18z" />
    <glyph glyph-name="uni0437" unicode="&#x437;" horiz-adv-x="367" 
d="M46 26q-39 39 -38 106l72 10q-2 -39 19 -63t58 -24q75 0 89 75l4 21q2 14 2 19q0 29 -19 44.5t-52 15.5h-39l11 62h39q42 0 65.5 23.5t23.5 59.5q0 33 -19 50t-52 17q-67 0 -87 -75l-67 12q33 129 166 129q64 0 97.5 -34.5t33.5 -93.5q0 -45 -24.5 -77t-60.5 -41
q56 -19 56 -84q0 -18 -2 -27l-4 -22q-13 -71 -53.5 -106.5t-116.5 -35.5q-63 0 -102 39z" />
    <glyph glyph-name="uni0438" unicode="&#x438;" horiz-adv-x="470" 
d="M88 0h-73l88 496h73l-64 -360l270 360h73l-88 -496h-73l64 360z" />
    <glyph glyph-name="uni0439" unicode="&#x439;" horiz-adv-x="470" 
d="M88 0h-73l88 496h73l-64 -360l270 360h73l-88 -496h-73l64 360zM232 600.5q-23 25.5 -23 65.5q0 16 2 25h59q-2 -18 -2 -23q0 -40 34 -40q45 0 55 63h59q-21 -116 -123 -116q-38 0 -61 25.5z" />
    <glyph glyph-name="uni043A" unicode="&#x43a;" horiz-adv-x="401" 
d="M330 496h88l-202 -250l114 -246h-78l-103 220h-20l-39 -220h-75l88 496h75l-39 -220h17z" />
    <glyph glyph-name="uni043B" unicode="&#x43b;" horiz-adv-x="468" 
d="M-19 -5l13 74q20 -11 43 -11q19 0 31 13t20 46l91 379h274l-88 -496h-75l76 428h-132l-79 -324q-16 -64 -42.5 -90.5t-76.5 -26.5q-36 0 -55 8z" />
    <glyph glyph-name="uni043C" unicode="&#x43c;" horiz-adv-x="509" 
d="M88 0h-73l88 496h81l55 -314l167 314h88l-88 -496h-74l59 334l-128 -235h-68l-48 235z" />
    <glyph glyph-name="uni043D" unicode="&#x43d;" horiz-adv-x="469" 
d="M344 297l35 199h75l-88 -496h-75l41 229h-201l-41 -229h-75l88 496h75l-35 -199h201z" />
    <glyph glyph-name="uni043E" unicode="&#x43e;" horiz-adv-x="469" 
d="M77.5 35.5q-46.5 47.5 -46.5 123.5q0 24 4 45l16 88q19 104 76.5 160t144.5 56q73 0 119.5 -47.5t46.5 -123.5q0 -24 -4 -45l-16 -88q-19 -104 -76.5 -160t-145.5 -56q-72 0 -118.5 47.5zM293 95.5q35 36.5 47 106.5l16 92q3 18 3 35q0 50 -26 79t-68 29q-55 0 -90 -36.5
t-47 -106.5l-16 -92q-3 -18 -3 -35q0 -50 26 -79t68 -29q55 0 90 36.5z" />
    <glyph glyph-name="uni043F" unicode="&#x43f;" horiz-adv-x="461" 
d="M90 0h-75l88 496h343l-88 -496h-75l76 428h-193z" />
    <glyph glyph-name="uni0440" unicode="&#x440;" horiz-adv-x="478" 
d="M-21 -204l124 700h75l-10 -57q22 31 55 50t75 19q68 0 109 -44t41 -120q0 -23 -5 -53l-18 -98q-38 -205 -208 -205q-42 0 -73.5 19t-43.5 48l-46 -259h-75zM349 202l16 92q3 21 3 38q0 51 -25.5 78t-69.5 27q-52 0 -87 -37t-47 -106l-16 -92q-3 -18 -3 -34
q0 -50 26.5 -79.5t68.5 -29.5q109 0 134 143z" />
    <glyph glyph-name="uni0441" unicode="&#x441;" horiz-adv-x="450" 
d="M76 37.5q-44 49.5 -44 124.5q0 24 4 44l16 92q17 98 74.5 154t145.5 56q73 0 113.5 -41t46.5 -111l-73 -22q-4 49 -28 76t-67 27q-53 0 -88.5 -36.5t-47.5 -105.5l-16 -94q-4 -28 -4 -38q0 -49 25.5 -76.5t67.5 -27.5q46 0 75.5 25t50.5 79l68 -22q-54 -153 -204 -153
q-71 0 -115 49.5z" />
    <glyph glyph-name="uni0442" unicode="&#x442;" horiz-adv-x="356" 
d="M382 496l-12 -68h-123l-76 -428h-75l76 428h-122l12 68h320z" />
    <glyph glyph-name="uni0443" unicode="&#x443;" horiz-adv-x="429" 
d="M376 496h81l-305 -591q-24 -47 -44.5 -71.5t-47 -35t-67.5 -10.5q-33 0 -61 10l15 75q24 -15 57 -15q27 0 46.5 16.5t40.5 58.5l37 73l-70 490h78l47 -382z" />
    <glyph glyph-name="uni0444" unicode="&#x444;" horiz-adv-x="477" 
d="M321 504q57 -11 91 -55t34 -109q0 -19 -3 -40l-18 -104q-16 -91 -65.5 -143t-129.5 -63l-34 -194h-75l35 195q-57 12 -91.5 55.5t-34.5 107.5q0 22 4 42l18 104q16 91 65.5 143.5t129.5 62.5l34 194h75zM111 194q-4 -19 -4 -38q0 -37 16 -60.5t45 -31.5l66 369
q-82 -20 -103 -131zM367 302q4 19 4 38q0 37 -16.5 60t-45.5 32l-66 -369q83 20 104 131z" />
    <glyph glyph-name="uni0445" unicode="&#x445;" horiz-adv-x="387" 
d="M57 0h-86l184 265l-77 231h76l54 -169l116 169h86l-169 -234l87 -262h-78l-63 199z" />
    <glyph glyph-name="uni0446" unicode="&#x446;" horiz-adv-x="485" 
d="M396 -122h-72l21 122h-329l87 496h75l-75 -428h193l75 428h75l-75 -428h58z" />
    <glyph glyph-name="uni0447" unicode="&#x447;" horiz-adv-x="441" 
d="M352 496h74l-88 -496h-74l37 209q-42 -30 -106 -30q-54 0 -89 32t-35 89q0 16 3 34l29 162h75l-28 -157q-2 -9 -2 -25q0 -31 17 -49t49 -18q61 0 102 46z" />
    <glyph glyph-name="uni0448" unicode="&#x448;" horiz-adv-x="661" 
d="M336 68h159l76 428h75l-88 -496h-543l88 496h75l-76 -428h159l76 428h75z" />
    <glyph glyph-name="uni0449" unicode="&#x449;" horiz-adv-x="713" 
d="M624 -122h-72l21 122h-557l87 496h75l-75 -428h159l75 428h75l-75 -428h159l75 428h75l-75 -428h86z" />
    <glyph glyph-name="uni044A" unicode="&#x44a;" horiz-adv-x="439" 
d="M67 0l76 428h-93l12 68h168l-35 -198h60q64 0 98.5 -30.5t34.5 -83.5q0 -16 -3 -33l-3 -17q-13 -70 -54 -102t-116 -32h-145zM217 68q41 0 62.5 17.5t28.5 55.5l3 17q2 12 2 18q0 26 -17 41t-50 15h-63l-29 -164h63z" />
    <glyph glyph-name="uni044B" unicode="&#x44b;" horiz-adv-x="550" 
d="M15 0l88 496h75l-35 -198h60q64 0 98.5 -30.5t34.5 -83.5q0 -16 -3 -33l-3 -17q-13 -70 -54 -102t-116 -32h-145zM165 68q41 0 62.5 17.5t28.5 55.5l3 17q2 12 2 18q0 26 -17 41t-50 15h-63l-29 -164h63zM447 0h-75l88 496h75z" />
    <glyph glyph-name="uni044C" unicode="&#x44c;" horiz-adv-x="387" 
d="M15 0l88 496h75l-35 -198h60q64 0 98.5 -30.5t34.5 -83.5q0 -16 -3 -33l-3 -17q-13 -70 -54 -102t-116 -32h-145zM165 68q41 0 62.5 17.5t28.5 55.5l3 17q2 12 2 18q0 26 -17 41t-50 15h-63l-29 -164h63z" />
    <glyph glyph-name="uni044D" unicode="&#x44d;" horiz-adv-x="450" 
d="M374 458.5q44 -49.5 44 -124.5q0 -24 -4 -44l-16 -92q-17 -99 -73.5 -154.5t-146.5 -55.5q-71 0 -112.5 41t-47.5 111l73 22q4 -49 28 -76t67 -27q53 0 88.5 36.5t47.5 105.5l2 13h-166l12 68h166l2 13q4 28 4 38q0 49 -25.5 76.5t-67.5 27.5q-48 0 -77.5 -25t-48.5 -79
l-68 22q26 74 75 113.5t129 39.5q71 0 115 -49.5z" />
    <glyph glyph-name="uni044E" unicode="&#x44e;" horiz-adv-x="632" 
d="M554.5 460.5q46.5 -47.5 46.5 -123.5q0 -24 -4 -45l-16 -88q-19 -104 -76.5 -160t-145.5 -56q-72 0 -118.5 47.5t-46.5 123.5q0 24 4 45l5 25h-72l-41 -229h-75l88 496h75l-35 -199h72q19 102 76.5 156.5t143.5 54.5q73 0 119.5 -47.5zM519 294q3 18 3 35q0 50 -26 79
t-68 29q-55 0 -90 -36.5t-47 -106.5l-16 -92q-3 -18 -3 -35q0 -50 26 -79t68 -29q55 0 90 36.5t47 106.5z" />
    <glyph glyph-name="uni044F" unicode="&#x44f;" horiz-adv-x="423" 
d="M57 183q10 31 25.5 47t41.5 21q-24 12 -39.5 36.5t-15.5 57.5q0 72 44.5 111.5t130.5 39.5h164l-88 -496h-75l39 218h-96q-42 0 -57 -45l-53 -173h-79zM295 284l26 144h-84q-43 0 -68.5 -20.5t-25.5 -59.5q0 -30 19 -47t49 -17h84z" />
    <glyph glyph-name="uni0450" unicode="&#x450;" horiz-adv-x="456" 
d="M381 461q44 -47 44 -123q0 -24 -4 -44l-10 -59h-294l-6 -36q-4 -28 -4 -39q0 -49 24.5 -76.5t65.5 -27.5q46 0 74.5 24t46.5 71l67 -21q-28 -71 -73 -106.5t-121 -35.5q-72 0 -116 48.5t-44 123.5q0 25 4 45l16 87q19 104 74 160t142 56q70 0 114 -47zM128 293h220l2 14
q3 15 3 30q0 47 -26 75.5t-70 28.5q-51 0 -83.5 -36.5t-44.5 -105.5zM320 577h-59l-75 149h89z" />
    <glyph glyph-name="uni0451" unicode="&#x451;" horiz-adv-x="456" 
d="M381 461q44 -47 44 -123q0 -24 -4 -44l-10 -59h-294l-6 -36q-4 -28 -4 -39q0 -49 24.5 -76.5t65.5 -27.5q46 0 74.5 24t46.5 71l67 -21q-28 -71 -73 -106.5t-121 -35.5q-72 0 -116 48.5t-44 123.5q0 25 4 45l16 87q19 104 74 160t142 56q70 0 114 -47zM128 293h220l2 14
q3 15 3 30q0 47 -26 75.5t-70 28.5q-51 0 -83.5 -36.5t-44.5 -105.5zM186 609.5q-16 16.5 -16 38.5q0 23 16 39t39 16t39 -16t16 -39t-16 -39t-39 -16t-39 16.5zM341 609.5q-16 16.5 -16 38.5q0 23 16 39t39 16t39 -16t16 -39t-16 -39t-39 -16t-39 16.5z" />
    <glyph glyph-name="uni0452" unicode="&#x452;" horiz-adv-x="465" 
d="M388 471q36 -37 36 -99q0 -17 -3 -37l-73 -412q-13 -73 -45.5 -104t-87.5 -31q-36 0 -57 9l12 70q23 -10 44 -10q25 0 39 15t20 49l72 409q2 16 2 24q0 38 -22.5 61.5t-60.5 23.5q-45 0 -76 -29t-40 -80l-58 -330h-75l103 581h-64l10 58h64l11 61h75l-11 -61h131l-10 -58
h-131l-24 -134q17 28 48.5 44.5t75.5 16.5q59 0 95 -37z" />
    <glyph glyph-name="uni0453" unicode="&#x453;" horiz-adv-x="367" 
d="M90 0h-75l88 496h280l-12 -68h-205zM290 577h-66l91 149h95z" />
    <glyph glyph-name="uni0454" unicode="&#x454;" horiz-adv-x="450" 
d="M276.5 84q29.5 25 50.5 79l68 -22q-54 -153 -204 -153q-71 0 -115 49.5t-44 124.5q0 24 4 44l16 92q17 98 74.5 154t145.5 56q73 0 113.5 -41t46.5 -111l-73 -22q-4 49 -28 76t-67 27q-53 0 -88.5 -36.5t-47.5 -105.5l-2 -13h166l-12 -68h-166l-2 -13q-4 -28 -4 -38
q0 -49 25.5 -76.5t67.5 -27.5q46 0 75.5 25z" />
    <glyph glyph-name="uni0455" unicode="&#x455;" horiz-adv-x="396" 
d="M66 23.5q-38 37.5 -47 96.5l70 22q5 -40 28 -64.5t60 -24.5q39 0 62 21.5t23 59.5q0 31 -19.5 52t-65.5 45q-100 52 -100 140q0 62 41.5 98.5t109.5 36.5q60 0 97 -30t45 -84l-66 -23q-6 35 -28 54.5t-54 19.5q-33 0 -54 -19t-21 -48q0 -28 19 -49.5t62 -44.5
q55 -29 81.5 -61t26.5 -81q0 -69 -46 -111.5t-118 -42.5q-68 0 -106 37.5z" />
    <glyph glyph-name="uni0456" unicode="&#x456;" 
d="M128 608.5q-17 16.5 -17 39.5q0 24 16.5 40t40.5 16q23 0 39.5 -16t16.5 -40q0 -23 -16.5 -39.5t-39.5 -16.5t-40 16.5zM91 0h-75l87 496h75z" />
    <glyph glyph-name="uni0457" unicode="&#x457;" 
d="M90 0h-75l88 496h75zM52 609.5q-16 16.5 -16 38.5q0 23 16 39t39 16t39 -16t16 -39t-16 -39t-39 -16t-39 16.5zM207 609.5q-16 16.5 -16 38.5q0 23 16 39t39 16t39 -16t16 -39t-16 -39t-39 -16t-39 16.5z" />
    <glyph glyph-name="uni0458" unicode="&#x458;" 
d="M128 608.5q-17 16.5 -17 39.5q0 24 16.5 40t40.5 16q23 0 39.5 -16t16.5 -40q0 -23 -16.5 -39.5t-39.5 -16.5t-40 16.5zM-113 -203l12 70q23 -10 44 -10q25 0 39 15t20 49l101 575h75l-101 -573q-13 -73 -45.5 -104t-87.5 -31q-36 0 -57 9z" />
    <glyph glyph-name="uni0459" unicode="&#x459;" horiz-adv-x="662" 
d="M-19 -5l13 74q20 -11 43 -11q19 0 31 13t20 46l91 379h274l-35 -198h60q64 0 98.5 -30.5t34.5 -83.5q0 -16 -3 -33l-3 -17q-13 -70 -54 -102t-116 -32h-145l76 428h-132l-79 -324q-16 -64 -42.5 -90.5t-76.5 -26.5q-36 0 -55 8zM440 68q41 0 62.5 17.5t28.5 55.5l3 17
q2 12 2 18q0 26 -17 41t-50 15h-63l-29 -164h63z" />
    <glyph glyph-name="uni045A" unicode="&#x45a;" horiz-adv-x="663" 
d="M15 0l88 496h75l-35 -199h201l35 199h75l-35 -199h60q64 0 98.5 -30.5t34.5 -83.5q0 -15 -3 -32l-3 -17q-13 -70 -54 -102t-116 -32h-145l41 229h-201l-41 -229h-75zM441 68q41 0 62.5 17.5t28.5 55.5l3 17q2 12 2 17q0 25 -17 39.5t-50 14.5h-63l-29 -161h63z" />
    <glyph glyph-name="uni045B" unicode="&#x45b;" horiz-adv-x="445" 
d="M388 471q36 -37 36 -99q0 -17 -3 -37l-59 -335h-75l58 330q2 16 2 24q0 38 -22.5 61.5t-60.5 23.5q-45 0 -76 -29t-40 -80l-58 -330h-75l103 581h-64l10 58h64l11 61h75l-11 -61h131l-10 -58h-131l-24 -134q17 28 48.5 44.5t75.5 16.5q59 0 95 -37z" />
    <glyph glyph-name="uni045C" unicode="&#x45c;" horiz-adv-x="401" 
d="M330 496h88l-202 -250l114 -246h-78l-103 220h-20l-39 -220h-75l88 496h75l-39 -220h17zM304 577h-66l91 149h95z" />
    <glyph glyph-name="uni045D" unicode="&#x45d;" horiz-adv-x="470" 
d="M88 0h-73l88 496h73l-64 -360l270 360h73l-88 -496h-73l64 360zM324 577h-59l-75 149h89z" />
    <glyph glyph-name="uni045E" unicode="&#x45e;" horiz-adv-x="429" 
d="M376 496h81l-305 -591q-24 -47 -44.5 -71.5t-47 -35t-67.5 -10.5q-33 0 -61 10l15 75q24 -15 57 -15q27 0 46.5 16.5t40.5 58.5l37 73l-70 490h78l47 -382zM211 600.5q-23 25.5 -23 65.5q0 16 2 25h59q-2 -18 -2 -23q0 -40 34 -40q45 0 55 63h59q-21 -116 -123 -116
q-38 0 -61 25.5z" />
    <glyph glyph-name="uni045F" unicode="&#x45f;" horiz-adv-x="462" 
d="M203 -122h-72l21 122h-136l87 496h75l-75 -428h193l75 428h75l-87 -496h-135z" />
    <glyph glyph-name="uni0462" unicode="&#x462;" horiz-adv-x="551" 
d="M333 377q76 0 122.5 -43.5t46.5 -122.5q0 -97 -58 -154t-165 -57h-185l90 508h-123l14 75h122l21 117h82l-21 -117h180l-14 -75h-179l-23 -131h90zM287 73q64 0 98.5 36.5t34.5 99.5q0 47 -29 71.5t-76 24.5h-85l-41 -232h98z" />
    <glyph glyph-name="uni0463" unicode="&#x463;" horiz-adv-x="441" 
d="M257 298q64 0 98.5 -30.5t34.5 -83.5q0 -16 -3 -33l-3 -17q-13 -70 -54 -102t-116 -32h-145l76 430h-95l12 66h95l36 204h75l-36 -204h163l-12 -66h-163l-23 -132h60zM313 158q2 12 2 18q0 26 -17 41t-50 15h-63l-29 -164h63q41 0 62.5 17.5t28.5 55.5z" />
    <glyph glyph-name="uni0472" unicode="&#x472;" horiz-adv-x="565" 
d="M456 687q45 -27 70.5 -76.5t25.5 -115.5q0 -31 -6 -66l-28 -158q-26 -148 -95 -216.5t-177 -68.5q-57 0 -101.5 27t-70 76.5t-25.5 115.5q0 32 6 66l28 158q26 148 94.5 216.5t176.5 68.5q57 0 102 -27zM465 436q5 25 5 57q0 69 -33 107.5t-92 38.5q-72 0 -116.5 -49.5
t-62.5 -153.5l-9 -53q36 19 71 19q22 0 39.5 -4t43.5 -13q21 -8 35.5 -11.5t30.5 -3.5q24 0 42.5 7.5t39.5 24.5zM372.5 110.5q44.5 49.5 62.5 153.5l9 54q-35 -20 -72 -20q-22 0 -39.5 4t-43.5 13q-21 8 -35.5 11.5t-30.5 3.5q-23 0 -41.5 -7.5t-39.5 -23.5l-6 -35
q-5 -25 -5 -57q0 -69 33 -107.5t91 -38.5q73 0 117.5 49.5z" />
    <glyph glyph-name="uni0473" unicode="&#x473;" horiz-adv-x="469" 
d="M391.5 460.5q46.5 -47.5 46.5 -123.5q0 -24 -4 -45l-16 -88q-19 -104 -76.5 -160t-145.5 -56q-72 0 -118.5 47.5t-46.5 123.5q0 24 4 45l16 88q19 104 76.5 160t144.5 56q73 0 119.5 -47.5zM175.5 401q-34.5 -36 -47.5 -105q20 5 37 5q19 0 35 -5t44 -16
q22 -10 36.5 -14.5t29.5 -4.5q21 0 41 7l5 26q3 18 3 35q0 50 -26 79t-68 29q-55 0 -89.5 -36zM292.5 95q34.5 36 47.5 104q-24 -4 -35 -4q-19 0 -35 5t-44 16q-22 10 -36.5 14.5t-29.5 4.5q-24 0 -44 -8l-4 -25q-3 -18 -3 -35q0 -50 26 -79t68 -29q55 0 89.5 36z" />
    <glyph glyph-name="uni0474" unicode="&#x474;" horiz-adv-x="580" 
d="M159 0l-65 700h85l45 -593l216 505q24 57 56.5 79.5t82.5 22.5q48 0 75 -22l-39 -70q-17 17 -39 17q-20 0 -31.5 -10t-22.5 -34l-265 -595h-98z" />
    <glyph glyph-name="uni0475" unicode="&#x475;" horiz-adv-x="474" 
d="M124 0l-71 496h80l47 -397l149 317q24 53 50.5 72.5t64.5 19.5q40 0 65 -22l-36 -64q-13 11 -28 11t-24.5 -8t-19.5 -28l-195 -397h-82z" />
    <glyph glyph-name="uni0490" unicode="&#x490;" horiz-adv-x="439" 
d="M105 0h-82l123 700h258l25 137h82l-38 -212h-258z" />
    <glyph glyph-name="uni0491" unicode="&#x491;" horiz-adv-x="368" 
d="M91 0h-75l87 496h205l23 129h75l-35 -197h-205z" />
    <glyph glyph-name="Wgrave" unicode="&#x1e80;" horiz-adv-x="656" 
d="M176 0h-95l26 700h77l-28 -563l192 481h85l24 -481l171 563h81l-221 -700h-92l-24 497zM453 781h-59l-75 149h89z" />
    <glyph glyph-name="wgrave" unicode="&#x1e81;" horiz-adv-x="589" 
d="M159 0h-82l-18 496h72l6 -383l159 383h81l23 -383l142 383h76l-192 -496h-82l-21 403zM384 577h-59l-75 149h89z" />
    <glyph glyph-name="Wacute" unicode="&#x1e82;" horiz-adv-x="656" 
d="M176 0h-95l26 700h77l-28 -563l192 481h85l24 -481l171 563h81l-221 -700h-92l-24 497zM455 781h-66l91 149h95z" />
    <glyph glyph-name="wacute" unicode="&#x1e83;" horiz-adv-x="589" 
d="M159 0h-82l-18 496h72l6 -383l159 383h81l23 -383l142 383h76l-192 -496h-82l-21 403zM386 577h-66l91 149h95z" />
    <glyph glyph-name="Wdieresis" unicode="&#x1e84;" horiz-adv-x="656" 
d="M176 0h-95l26 700h77l-28 -563l192 481h85l24 -481l171 563h81l-221 -700h-92l-24 497zM319 813.5q-16 16.5 -16 38.5q0 23 16 39t39 16t39 -16t16 -39t-16 -39t-39 -16t-39 16.5zM474 813.5q-16 16.5 -16 38.5q0 23 16 39t39 16t39 -16t16 -39t-16 -39t-39 -16t-39 16.5
z" />
    <glyph glyph-name="wdieresis" unicode="&#x1e85;" horiz-adv-x="589" 
d="M159 0h-82l-18 496h72l6 -383l159 383h81l23 -383l142 383h76l-192 -496h-82l-21 403zM250 609.5q-16 16.5 -16 38.5q0 23 16 39t39 16t39 -16t16 -39t-16 -39t-39 -16t-39 16.5zM405 609.5q-16 16.5 -16 38.5q0 23 16 39t39 16t39 -16t16 -39t-16 -39t-39 -16t-39 16.5z
" />
    <glyph glyph-name="uni1E9E" unicode="&#x1e9e;" horiz-adv-x="540" 
d="M153 4l15 78q15 -10 39.5 -16t50.5 -6q54 0 86.5 30.5t42.5 93.5l9 53q3 17 3 30q0 48 -31.5 74.5t-91.5 26.5l11 63l147 196h-115q-54 0 -84 -27t-40 -84l-91 -516h-82l91 516q16 91 66.5 137.5t140.5 46.5h218l-12 -69l-157 -205q48 -12 79.5 -49t31.5 -97
q0 -12 -4 -40l-9 -52q-18 -105 -68.5 -152.5t-147.5 -47.5q-55 0 -98 16z" />
    <glyph glyph-name="Ygrave" unicode="&#x1ef2;" horiz-adv-x="477" 
d="M235 0h-82l52 293l-113 407h90l79 -311l186 311h98l-258 -407zM363 781h-59l-75 149h89z" />
    <glyph glyph-name="ygrave" unicode="&#x1ef3;" horiz-adv-x="429" 
d="M376 496h81l-305 -591q-24 -47 -44.5 -71.5t-47 -35t-67.5 -10.5q-33 0 -61 10l15 75q24 -15 57 -15q27 0 46.5 16.5t40.5 58.5l37 73l-70 490h78l47 -382zM303 577h-59l-75 149h89z" />
    <glyph glyph-name="endash" unicode="&#x2013;" horiz-adv-x="409" 
d="M383 280h-346l12 66h346z" />
    <glyph glyph-name="emdash" unicode="&#x2014;" horiz-adv-x="542" 
d="M516 280h-479l12 66h479z" />
    <glyph glyph-name="quoteleft" unicode="&#x2018;" horiz-adv-x="223" 
d="M115 484.5q-16 17.5 -16 43.5q0 65 83 142l40 38l21 -18l-32 -40q-12 -15 -21.5 -34t-12.5 -34q16 -4 27 -18.5t11 -33.5q0 -29 -16.5 -46t-44.5 -17q-23 0 -39 17.5z" />
    <glyph glyph-name="quoteright" unicode="&#x2019;" horiz-adv-x="223" 
d="M114 467l-21 18l32 40q12 15 21.5 34t12.5 34q-16 4 -27 18.5t-11 33.5q0 30 17 46.5t44 16.5q23 0 39 -17.5t16 -43.5q0 -65 -83 -142z" />
    <glyph glyph-name="quotesinglbase" unicode="&#x201a;" horiz-adv-x="223" 
d="M8 -131l-21 18l32 40q12 15 21.5 34t12.5 34q-16 4 -27 18.5t-11 33.5q0 30 17 46.5t44 16.5q23 0 39 -17.5t16 -43.5q0 -65 -83 -142z" />
    <glyph glyph-name="quotedblleft" unicode="&#x201c;" horiz-adv-x="381" 
d="M273 484.5q-16 17.5 -16 43.5q0 65 83 142l40 38l21 -18l-32 -40q-12 -15 -21.5 -34t-12.5 -34q16 -4 27 -18.5t11 -33.5q0 -29 -16.5 -46t-44.5 -17q-23 0 -39 17.5zM115 484.5q-16 17.5 -16 43.5q0 65 83 142l40 38l21 -18l-32 -40q-12 -15 -21.5 -34t-12.5 -34
q16 -4 27 -18.5t11 -33.5q0 -29 -16.5 -46t-44.5 -17q-23 0 -39 17.5z" />
    <glyph glyph-name="quotedblright" unicode="&#x201d;" horiz-adv-x="381" 
d="M272 467l-21 18l32 40q12 15 21.5 34t12.5 34q-16 4 -27 18.5t-11 33.5q0 30 17 46.5t44 16.5q23 0 39 -17.5t16 -43.5q0 -65 -83 -142zM114 467l-21 18l32 40q12 15 21.5 34t12.5 34q-16 4 -27 18.5t-11 33.5q0 30 17 46.5t44 16.5q23 0 39 -17.5t16 -43.5
q0 -65 -83 -142z" />
    <glyph glyph-name="quotedblbase" unicode="&#x201e;" horiz-adv-x="381" 
d="M8 -131l-21 18l32 40q12 15 21.5 34t12.5 34q-16 4 -27 18.5t-11 33.5q0 30 17 46.5t44 16.5q23 0 39 -17.5t16 -43.5q0 -65 -83 -142zM166 -131l-21 18l32 40q12 15 21.5 34t12.5 34q-16 4 -27 18.5t-11 33.5q0 30 17 46.5t44 16.5q23 0 39 -17.5t16 -43.5
q0 -65 -83 -142z" />
    <glyph glyph-name="dagger" unicode="&#x2020;" horiz-adv-x="305" 
d="M254 623h85l-10 -59h-85l-45 -254h-69l45 254h-87l10 59h87l16 90l76 37z" />
    <glyph glyph-name="daggerdbl" unicode="&#x2021;" horiz-adv-x="305" 
d="M339 623l-10 -59h-85l-14 -79h85l-11 -60h-85l-20 -115h-69l20 115h-87l11 60h87l14 79h-87l10 59h87l16 90l76 37l-23 -127h85z" />
    <glyph glyph-name="bullet" unicode="&#x2022;" horiz-adv-x="424" 
d="M166 240.5q-30 17.5 -47.5 47.5t-17.5 65t17.5 65t47.5 47.5t65 17.5t65 -17.5t47.5 -47.5t17.5 -65t-17.5 -65t-47.5 -47.5t-65 -17.5t-65 17.5z" />
    <glyph glyph-name="ellipsis" unicode="&#x2026;" horiz-adv-x="614" 
d="M231 7.5q-17 17.5 -17 40.5q0 24 17 41t41 17t40.5 -17t16.5 -41t-16.5 -41t-40.5 -17t-41 17.5zM427 7.5q-17 17.5 -17 40.5q0 24 17 41t41 17t40.5 -17t16.5 -41t-16.5 -41t-40.5 -17t-41 17.5zM36 7.5q-17 17.5 -17 40.5q0 24 17 41t41 17t40.5 -17t16.5 -41
t-16.5 -41t-40.5 -17t-41 17.5z" />
    <glyph glyph-name="perthousand" unicode="&#x2030;" horiz-adv-x="1049" 
d="M114.5 400.5q-33.5 34.5 -33.5 88.5q0 15 3 31l7 38q14 74 55.5 114t106.5 40q52 0 85 -34.5t33 -88.5q0 -14 -3 -31l-7 -38q-14 -74 -55.5 -114t-105.5 -40q-52 0 -85.5 34.5zM178 0h-74l472 700h75zM264.5 450.5q22.5 24.5 30.5 66.5l8 44q2 9 2 24q0 31 -15.5 49
t-45.5 18q-35 0 -57.5 -24.5t-30.5 -66.5l-8 -44q-2 -9 -2 -25q0 -31 16 -48.5t46 -17.5q34 0 56.5 24.5zM417.5 22.5q-33.5 34.5 -33.5 88.5q0 15 3 31l7 38q14 74 55.5 114t106.5 40q52 0 85 -34.5t33 -88.5q0 -14 -3 -31l-7 -38q-14 -74 -55.5 -114t-105.5 -40
q-52 0 -85.5 34.5zM747.5 22.5q-33.5 34.5 -33.5 88.5q0 15 3 31l7 38q14 74 55.5 114t106.5 40q52 0 85 -34.5t33 -88.5q0 -14 -3 -31l-7 -38q-14 -74 -55.5 -114t-105.5 -40q-52 0 -85.5 34.5zM567.5 72.5q22.5 24.5 30.5 66.5l8 44q2 9 2 24q0 31 -15.5 49t-45.5 18
q-35 0 -57.5 -24.5t-30.5 -66.5l-8 -44q-2 -9 -2 -25q0 -31 16 -48.5t46 -17.5q34 0 56.5 24.5zM897.5 72.5q22.5 24.5 30.5 66.5l8 44q2 9 2 24q0 31 -15.5 49t-45.5 18q-35 0 -57.5 -24.5t-30.5 -66.5l-8 -44q-2 -9 -2 -25q0 -31 16 -48.5t46 -17.5q34 0 56.5 24.5z" />
    <glyph glyph-name="guilsinglleft" unicode="&#x2039;" horiz-adv-x="222" 
d="M170 120h-71l-57 176l113 176h77l-115 -179z" />
    <glyph glyph-name="guilsinglright" unicode="&#x203a;" horiz-adv-x="222" 
d="M82 120h-76l117 179l-55 173h72l56 -176z" />
    <glyph glyph-name="fraction" unicode="&#x2044;" horiz-adv-x="257" 
d="M-49 0h-75l467 700h74z" />
    <glyph glyph-name="uni2070" unicode="&#x2070;" horiz-adv-x="298" 
d="M92.5 374.5q-30.5 31.5 -30.5 84.5q0 15 3 31l12 70q26 147 144 147q53 0 82.5 -31.5t29.5 -83.5q0 -15 -3 -32l-12 -70q-13 -75 -48.5 -111t-96.5 -36q-50 0 -80.5 31.5zM227.5 421q16.5 20 24.5 66l14 76q3 15 3 27q0 29 -14.5 44t-39.5 15q-29 0 -47 -20.5t-26 -65.5
l-14 -76q-3 -13 -3 -26q0 -29 14.5 -44.5t40.5 -15.5q31 0 47.5 20z" />
    <glyph glyph-name="uni2074" unicode="&#x2074;" horiz-adv-x="263" 
d="M227 350h-60l14 76h-136l9 53l175 221h60l-39 -221h43l-9 -53h-43zM211 600l-96 -121h75z" />
    <glyph glyph-name="uni2075" unicode="&#x2075;" horiz-adv-x="271" 
d="M87.5 372.5q-28.5 28.5 -30.5 73.5l60 9q3 -54 49 -54q50 0 60 55l4 22q1 4 1 11q0 19 -13 31t-35 12q-18 0 -31 -8.5t-25 -24.5l-50 17l49 184h194l-9 -52h-145l-25 -89q25 23 64 23q41 0 64.5 -22t23.5 -60q0 -7 -2 -23l-4 -23q-9 -52 -40.5 -81t-85.5 -29
q-45 0 -73.5 28.5z" />
    <glyph glyph-name="uni2076" unicode="&#x2076;" horiz-adv-x="253" 
d="M79.5 372q-25.5 28 -25.5 77q0 31 11.5 56.5t34.5 56.5l103 138h64l-103 -134q10 7 28 7q38 0 60 -24t22 -62q0 -7 -2 -23l-3 -17q-8 -49 -39.5 -76t-80.5 -27q-44 0 -69.5 28zM213 453l2 12q1 4 1 13q0 20 -12 32t-32 12q-24 0 -38.5 -15t-19.5 -42l-2 -12q-1 -4 -1 -11
q0 -20 12 -33t32 -13q49 0 58 57z" />
    <glyph glyph-name="uni2077" unicode="&#x2077;" horiz-adv-x="225" 
d="M134 350h-61l151 298h-141l9 52h199l-9 -52z" />
    <glyph glyph-name="uni2078" unicode="&#x2078;" horiz-adv-x="264" 
d="M83 370.5q-27 26.5 -27 65.5q0 35 16.5 61.5t49.5 40.5q-12 10 -19.5 26t-7.5 33q0 47 31.5 77t85.5 30q42 0 63.5 -24.5t21.5 -61.5q0 -29 -15 -52t-40 -33q15 -8 25.5 -25.5t10.5 -40.5q0 -58 -34.5 -90.5t-93.5 -32.5q-40 0 -67 26.5zM223.5 570.5
q13.5 15.5 13.5 40.5q0 20 -9 32t-25 12q-23 0 -37 -15.5t-14 -42.5q0 -19 10 -30.5t26 -11.5q22 0 35.5 15.5zM204 414.5q16 18.5 16 49.5q0 19 -11 32.5t-31 13.5q-28 0 -45 -19.5t-17 -48.5q0 -20 12 -33t31 -13q29 0 45 18.5z" />
    <glyph glyph-name="uni2079" unicode="&#x2079;" horiz-adv-x="253" 
d="M187 484q-10 -7 -28 -7q-38 0 -60 24t-22 62q0 7 2 23l3 17q8 49 39.5 76t80.5 27q44 0 69.5 -28t25.5 -77q0 -31 -11.5 -56.5t-34.5 -56.5l-103 -138h-64zM217.5 543q14.5 15 19.5 42l2 12q1 4 1 11q0 20 -12 33t-32 13q-49 0 -58 -57l-2 -12q-1 -4 -1 -13q0 -20 12 -32
t32 -12q24 0 38.5 15z" />
    <glyph glyph-name="uni2080" unicode="&#x2080;" horiz-adv-x="298" 
d="M11.5 -85.5q-30.5 31.5 -30.5 84.5q0 15 3 31l12 70q26 147 144 147q53 0 82.5 -31.5t29.5 -83.5q0 -15 -3 -32l-12 -70q-13 -75 -48.5 -111t-96.5 -36q-50 0 -80.5 31.5zM146.5 -39q16.5 20 24.5 66l14 76q3 15 3 27q0 29 -14.5 44t-39.5 15q-29 0 -47 -20.5t-26 -65.5
l-14 -76q-3 -13 -3 -26q0 -29 14.5 -44.5t40.5 -15.5q31 0 47.5 20z" />
    <glyph glyph-name="uni2081" unicode="&#x2081;" horiz-adv-x="179" 
d="M85 -110h-65l49 281l-80 -49l12 69l81 49h65z" />
    <glyph glyph-name="uni2082" unicode="&#x2082;" horiz-adv-x="252" 
d="M-36 -110l9 54l134 123q26 23 36 42.5t10 41.5q0 19 -11 30t-30 11q-44 0 -57 -52l-55 9q11 47 39 72t79 25q46 0 72.5 -26t26.5 -63q0 -39 -17.5 -67t-55.5 -61l-94 -85h133l-9 -54h-210z" />
    <glyph glyph-name="uni2083" unicode="&#x2083;" horiz-adv-x="264" 
d="M-1.5 -87.5q-29.5 28.5 -28.5 76.5l59 8q1 -28 13 -43.5t35 -15.5q52 0 59 57l2 17q6 53 -66 53l7 44l74 80h-137l9 51h203l-9 -51l-81 -84q28 -6 45.5 -26.5t17.5 -52.5q0 -12 -1 -18l-2 -14q-16 -110 -125 -110q-45 0 -74.5 28.5z" />
    <glyph glyph-name="uni2084" unicode="&#x2084;" horiz-adv-x="263" 
d="M146 -110h-60l14 76h-136l9 53l175 221h60l-39 -221h43l-9 -53h-43zM130 140l-96 -121h75z" />
    <glyph glyph-name="uni2085" unicode="&#x2085;" horiz-adv-x="271" 
d="M6.5 -87.5q-28.5 28.5 -30.5 73.5l60 9q3 -54 49 -54q50 0 60 55l4 22q1 4 1 11q0 19 -13 31t-35 12q-18 0 -31 -8.5t-25 -24.5l-50 17l49 184h194l-9 -52h-145l-25 -89q25 23 64 23q41 0 64.5 -22t23.5 -60q0 -7 -2 -23l-4 -23q-9 -52 -40.5 -81t-85.5 -29
q-45 0 -73.5 28.5z" />
    <glyph glyph-name="uni2086" unicode="&#x2086;" horiz-adv-x="253" 
d="M-1.5 -88q-25.5 28 -25.5 77q0 31 11.5 56.5t34.5 56.5l103 138h64l-103 -134q10 7 28 7q38 0 60 -24t22 -62q0 -7 -2 -23l-3 -17q-8 -49 -39.5 -76t-80.5 -27q-44 0 -69.5 28zM132 -7l2 12q1 4 1 13q0 20 -12 32t-32 12q-24 0 -38.5 -15t-19.5 -42l-2 -12q-1 -4 -1 -11
q0 -20 12 -33t32 -13q49 0 58 57z" />
    <glyph glyph-name="uni2087" unicode="&#x2087;" horiz-adv-x="225" 
d="M53 -110h-61l151 298h-141l9 52h199l-9 -52z" />
    <glyph glyph-name="uni2088" unicode="&#x2088;" horiz-adv-x="264" 
d="M2 -89.5q-27 26.5 -27 65.5q0 35 16.5 61.5t49.5 40.5q-12 10 -19.5 26t-7.5 33q0 47 31.5 77t85.5 30q42 0 63.5 -24.5t21.5 -61.5q0 -29 -15 -52t-40 -33q15 -8 25.5 -25.5t10.5 -40.5q0 -58 -34.5 -90.5t-93.5 -32.5q-40 0 -67 26.5zM142.5 110.5q13.5 15.5 13.5 40.5
q0 20 -9 32t-25 12q-23 0 -37 -15.5t-14 -42.5q0 -19 10 -30.5t26 -11.5q22 0 35.5 15.5zM123 -45.5q16 18.5 16 49.5q0 19 -11 32.5t-31 13.5q-28 0 -45 -19.5t-17 -48.5q0 -20 12 -33t31 -13q29 0 45 18.5z" />
    <glyph glyph-name="uni2089" unicode="&#x2089;" horiz-adv-x="253" 
d="M106 24q-10 -7 -28 -7q-38 0 -60 24t-22 62q0 7 2 23l3 17q8 49 39.5 76t80.5 27q44 0 69.5 -28t25.5 -77q0 -31 -11.5 -56.5t-34.5 -56.5l-103 -138h-64zM136.5 83q14.5 15 19.5 42l2 12q1 4 1 11q0 20 -12 33t-32 13q-49 0 -58 -57l-2 -12q-1 -4 -1 -13q0 -20 12 -32
t32 -12q24 0 38.5 15z" />
    <glyph glyph-name="Euro" unicode="&#x20ac;" horiz-adv-x="551" 
d="M369.5 87q33.5 27 56.5 83l70 -22q-35 -83 -85.5 -122.5t-139.5 -39.5q-57 0 -100 28t-66.5 78.5t-23.5 114.5q0 22 3 46h-65l23 56h52l14 82h-65l23 56h53q28 131 97 199t172 68q80 0 125 -41t56 -114l-75 -18q-7 46 -36 72.5t-82 26.5q-69 0 -114 -49t-63 -144h217
l-23 -56h-204l-14 -82h182l-23 -56h-169q-4 -24 -4 -50q0 -68 31 -105.5t87 -37.5q57 0 90.5 27z" />
    <glyph glyph-name="uni20B4" unicode="&#x20b4;" horiz-adv-x="470" 
d="M428 673q43 -39 43 -102q0 -18 -2 -27l-1 -6q-5 -29 -16 -51t-32 -40h45l-10 -56h-414l10 56h269q31 21 48 43t21 49l1 6q2 12 2 18q0 35 -24 54.5t-63 19.5q-43 0 -77 -26.5t-54 -76.5l-67 23q49 155 212 155q66 0 109 -39zM17 253l10 56h414l-10 -56h-289
q-23 -26 -31 -66l-2 -11q-2 -14 -2 -21q0 -41 28 -67.5t70 -26.5q59 0 92 32.5t52 99.5l72 -20q-25 -93 -75.5 -140t-153.5 -47q-73 0 -120 44t-47 113q0 17 3 35l2 11q8 37 29 64h-42z" />
    <glyph glyph-name="uni20BA" unicode="&#x20ba;" horiz-adv-x="502" 
d="M459 250q-43 -250 -291 -250h-115l28 158l-80 -58l15 83l80 58l16 91l-80 -58l14 83l81 58l50 285h82l-38 -217l127 92l-15 -83l-127 -92l-16 -90l127 92l-14 -83l-127 -92l-27 -152h36q84 0 131 46.5t61 128.5h82z" />
    <glyph glyph-name="uni20BD" unicode="&#x20bd;" horiz-adv-x="506" 
d="M193 323l-20 -112h185l-10 -62h-186l-26 -149h-82l26 149h-73l10 62h74l87 489h185q71 0 113.5 -42t42.5 -117q0 -101 -59 -159.5t-164 -58.5h-103zM247 627l-41 -232h98q66 0 99.5 36.5t33.5 100.5q0 47 -24 71t-68 24h-98z" />
    <glyph glyph-name="uni2113" unicode="&#x2113;" horiz-adv-x="437" 
d="M306 128l62 -31q-23 -53 -59 -82t-90 -29q-52 0 -87.5 41.5t-44.5 117.5q-11 -6 -51 -24l-20 63q38 16 68 33q3 134 31.5 248t78 181.5t111.5 67.5q51 0 76 -31.5t25 -89.5q0 -104 -61.5 -213.5t-183.5 -191.5q1 -64 18.5 -98t48.5 -34q52 0 78 72zM239 595
q-29 -52 -49.5 -138.5t-26.5 -185.5q86 70 128.5 159t42.5 165q0 26 -8.5 39t-26.5 13q-31 0 -60 -52z" />
    <glyph glyph-name="uni2116" unicode="&#x2116;" horiz-adv-x="936" 
d="M621.5 294q-39.5 40 -39.5 110q0 25 4 46l12 68q17 97 70.5 146.5t135.5 49.5q63 0 102 -40t39 -110q0 -25 -4 -46l-12 -68q-17 -97 -70.5 -146.5t-135.5 -49.5q-62 0 -101.5 40zM101 0h-79l124 700h88l136 -520l92 520h79l-124 -700h-74l-146 547zM809 356.5
q31 31.5 42 91.5l13 72q4 28 4 37q0 42 -20.5 64t-56.5 22q-43 0 -73.5 -31.5t-41.5 -91.5l-13 -72q-4 -19 -4 -38q0 -42 20.5 -63.5t55.5 -21.5q43 0 74 31.5zM855 129h-308l12 68h308z" />
    <glyph glyph-name="trademark" unicode="&#x2122;" horiz-adv-x="436" 
d="M254 700l-8 -44h-59l-42 -236h-48l42 236h-59l8 44h166zM357 530l82 170h57l-50 -280h-47l32 178l-59 -122h-44l-17 122l-32 -178h-46l50 280h52z" />
    <glyph glyph-name="uni2126" unicode="&#x2126;" horiz-adv-x="546" 
d="M197 0h-168l13 72h93l5 30q-74 81 -74 196q0 37 7 75l17 95q21 116 84.5 181t174.5 65q88 0 139 -54.5t51 -140.5q0 -21 -5 -51l-17 -95q-20 -111 -60.5 -171t-103.5 -100l-5 -30h93l-13 -72h-167l22 125q64 45 100 98.5t52 142.5l18 104q4 21 4 44q0 62 -32.5 95.5
t-88.5 33.5q-68 0 -109 -45t-56 -128l-18 -104q-7 -45 -7 -70q0 -54 18.5 -94t54.5 -77z" />
    <glyph glyph-name="estimated" unicode="&#x212e;" horiz-adv-x="826" 
d="M238 113q39 -35 89 -54t107 -19q89 0 159 45t106 120h65q-40 -99 -127.5 -159t-202.5 -60q-102 0 -184 48.5t-128 132t-46 183.5t46 183.5t128 132t184 48.5t184 -48.5t128 -132t46 -183.5h-554v-237zM629 588q-39 34 -88.5 53t-106.5 19t-107 -19t-89 -54v-189h391v190z
" />
    <glyph glyph-name="partialdiff" unicode="&#x2202;" horiz-adv-x="478" 
d="M401 443q18 -48 27 -81.5t9 -71.5q0 -31 -5 -56l-4 -23q-20 -116 -76 -169.5t-150 -53.5q-76 0 -123.5 48t-47.5 124q0 23 4 43l6 34q18 102 74 153.5t140 51.5q43 0 72 -14l-108 272h82zM359 244q4 24 4 49q0 22 -5 47q-21 20 -44 28.5t-56 8.5q-55 0 -93 -38.5
t-49 -104.5l-6 -36q-3 -15 -3 -29q0 -50 28.5 -81t72.5 -31q58 0 95.5 35.5t48.5 106.5z" />
    <glyph glyph-name="uni2206" unicode="&#x2206;" horiz-adv-x="505" 
d="M427 0h-437l13 73l281 627h96l60 -627zM316 595l-227 -522h270z" />
    <glyph glyph-name="product" unicode="&#x220f;" horiz-adv-x="585" 
d="M641 700l-14 -75h-89l-147 -829h-82l147 829h-193l-147 -829h-82l147 829h-91l14 75h537z" />
    <glyph glyph-name="summation" unicode="&#x2211;" horiz-adv-x="414" 
d="M316 -128h-345l13 75l227 344l-107 334l13 75h338l-13 -75h-257l111 -339l-222 -339h255z" />
    <glyph glyph-name="minus" unicode="&#x2212;" horiz-adv-x="397" 
d="M376 277h-344l12 71h344z" />
    <glyph glyph-name="uni2215" unicode="&#x2215;" horiz-adv-x="397" 
d="M96 0h-80l321 700h80z" />
    <glyph glyph-name="uni2219" unicode="&#x2219;" horiz-adv-x="397" 
d="M145 202.5q-30 17.5 -47.5 47.5t-17.5 65t17.5 65t47.5 47.5t65 17.5t65 -17.5t47.5 -47.5t17.5 -65t-17.5 -65t-47.5 -47.5t-65 -17.5t-65 17.5z" />
    <glyph glyph-name="radical" unicode="&#x221a;" horiz-adv-x="502" 
d="M202 382l20 -284l258 602h88l-311 -700h-98l-31 314h-92l12 68h154z" />
    <glyph glyph-name="infinity" unicode="&#x221e;" horiz-adv-x="712" 
d="M646 419q44 -45 44 -119q0 -73 -44 -118.5t-112 -45.5q-52 0 -92.5 26t-76.5 77q-35 -50 -76 -76.5t-92 -26.5q-68 0 -112.5 45.5t-44.5 118.5q0 74 44 119t113 45q51 0 92 -26t76 -76q35 50 76 76t93 26q68 0 112 -45zM268 225q30 24 60 75q-30 51 -59.5 75t-72.5 24
q-37 0 -61 -26.5t-24 -72.5q0 -45 24.5 -72t60.5 -27q42 0 72 24zM595.5 228q24.5 27 24.5 72q0 46 -24.5 72.5t-61.5 26.5q-42 0 -71.5 -24t-59.5 -75q30 -51 59.5 -75t71.5 -24q37 0 61.5 27z" />
    <glyph glyph-name="integral" unicode="&#x222b;" horiz-adv-x="312" 
d="M-99 -207l13 71q26 -13 54 -13t46 17t23 47l117 657q13 70 53.5 105t105.5 35q34 0 61 -11l-13 -71q-27 13 -57 13t-49.5 -18t-26.5 -52l-116 -658q-12 -67 -51 -100t-100 -33q-32 0 -60 11z" />
    <glyph glyph-name="approxequal" unicode="&#x2248;" horiz-adv-x="397" 
d="M43 362q31 96 110 96q22 0 38.5 -7t42.5 -21q19 -12 32.5 -17.5t28.5 -5.5q41 0 56 50l55 -19q-31 -96 -112 -96q-22 0 -38 6.5t-44 21.5q-19 12 -32.5 17.5t-28.5 5.5q-20 0 -34 -13t-19 -37zM12 184q31 96 110 96q22 0 38.5 -7t42.5 -21q19 -12 32.5 -17.5t28.5 -5.5
q41 0 56 50l55 -19q-31 -96 -112 -96q-22 0 -38 6.5t-44 21.5q-19 12 -32.5 17.5t-28.5 5.5q-20 0 -34 -13t-19 -37z" />
    <glyph glyph-name="notequal" unicode="&#x2260;" horiz-adv-x="395" 
d="M359 568l52 -39l-66 -88h59l-13 -70h-98l-87 -116h165l-13 -71h-205l-95 -127l-52 40l65 87h-57l13 71h97l87 116h-164l13 70h204z" />
    <glyph glyph-name="lessequal" unicode="&#x2264;" horiz-adv-x="395" 
d="M45 366l370 147l-14 -77l-299 -116l259 -116l-12 -69l-319 146zM326 0h-344l12 71h344z" />
    <glyph glyph-name="greaterequal" unicode="&#x2265;" horiz-adv-x="395" 
d="M375 282l-370 -147l14 77l299 116l-259 116l12 69l319 -146zM326 0h-344l12 71h344z" />
    <glyph glyph-name="lozenge" unicode="&#x25ca;" horiz-adv-x="436" 
d="M32 350l218 350h95l95 -350l-219 -350h-95zM289 631l-177 -288l69 -274l177 288z" />
    <glyph glyph-name="fi" unicode="&#xfb01;" horiz-adv-x="505" 
d="M253.5 625q-19.5 -18 -25.5 -52l-14 -77h123l-12 -66h-122l-76 -430h-75l76 430h-78l12 66h78l13 76q13 73 50 106.5t104 33.5q31 0 66 -11l-13 -71q-17 7 -29 10t-28 3q-30 0 -49.5 -18zM440 608.5q-17 16.5 -17 39.5q0 24 16.5 40t40.5 16q23 0 39.5 -16t16.5 -40
q0 -23 -16.5 -39.5t-39.5 -16.5t-40 16.5zM403 0h-75l87 496h75z" />
    <glyph glyph-name="fl" unicode="&#xfb02;" horiz-adv-x="536" 
d="M253.5 625q-19.5 -18 -25.5 -52l-14 -77h123l-12 -66h-122l-76 -430h-75l76 430h-78l12 66h78l13 76q13 73 50 106.5t104 33.5q31 0 66 -11l-13 -71q-17 7 -29 10t-28 3q-30 0 -49.5 -18zM367 11q-23 23 -23 66q0 15 3 31l104 592h75l-105 -593q-1 -4 -1 -12
q0 -17 9 -27.5t24 -10.5q18 0 37 10l-13 -72q-24 -7 -49 -7q-38 0 -61 23z" />
    <glyph glyph-name="NULL" horiz-adv-x="600" 
 />
    <glyph glyph-name="i.loclTRK" 
d="M90 0h-75l88 496h75zM128 608.5q-17 16.5 -17 39.5q0 24 16.5 40t40.5 16q23 0 39.5 -16t16.5 -40q0 -23 -16.5 -39.5t-39.5 -16.5t-40 16.5z" />
    <glyph glyph-name="a.ss01" horiz-adv-x="466" 
d="M52 24.5q-36 36.5 -36 94.5q0 73 45.5 113t128.5 61l131 32l3 16q2 8 2 23q0 36 -21.5 57.5t-60.5 21.5q-41 0 -70.5 -22t-44.5 -67l-60 22q42 132 185 132q67 0 106.5 -36.5t39.5 -97.5q0 -16 -3 -33l-43 -248q-1 -4 -1 -12q0 -29 27 -29q19 0 34 7l-11 -60
q-25 -11 -53 -11q-34 0 -52 21.5t-18 55.5q-23 -38 -54.5 -57.5t-81.5 -19.5q-56 0 -92 36.5zM253.5 95q35.5 42 47.5 115l9 53l-105 -27q-57 -14 -84 -41t-27 -72q0 -30 19.5 -50t51.5 -20q53 0 88.5 42z" />
    <glyph glyph-name="aacute.ss01" horiz-adv-x="466" 
d="M52 24.5q-36 36.5 -36 94.5q0 73 45.5 113t128.5 61l131 32l3 16q2 8 2 23q0 36 -21.5 57.5t-60.5 21.5q-41 0 -70.5 -22t-44.5 -67l-60 22q42 132 185 132q67 0 106.5 -36.5t39.5 -97.5q0 -16 -3 -33l-43 -248q-1 -4 -1 -12q0 -29 27 -29q19 0 34 7l-11 -60
q-25 -11 -53 -11q-34 0 -52 21.5t-18 55.5q-23 -38 -54.5 -57.5t-81.5 -19.5q-56 0 -92 36.5zM253.5 95q35.5 42 47.5 115l9 53l-105 -27q-57 -14 -84 -41t-27 -72q0 -30 19.5 -50t51.5 -20q53 0 88.5 42zM308 577h-66l91 149h95z" />
    <glyph glyph-name="abreve.ss01" horiz-adv-x="466" 
d="M52 24.5q-36 36.5 -36 94.5q0 73 45.5 113t128.5 61l131 32l3 16q2 8 2 23q0 36 -21.5 57.5t-60.5 21.5q-41 0 -70.5 -22t-44.5 -67l-60 22q42 132 185 132q67 0 106.5 -36.5t39.5 -97.5q0 -16 -3 -33l-43 -248q-1 -4 -1 -12q0 -29 27 -29q19 0 34 7l-11 -60
q-25 -11 -53 -11q-34 0 -52 21.5t-18 55.5q-23 -38 -54.5 -57.5t-81.5 -19.5q-56 0 -92 36.5zM253.5 95q35.5 42 47.5 115l9 53l-105 -27q-57 -14 -84 -41t-27 -72q0 -30 19.5 -50t51.5 -20q53 0 88.5 42zM216.5 599.5q-23.5 24.5 -23.5 62.5q0 6 2 20h59q-2 -12 -2 -16
q0 -18 8.5 -28t23.5 -10q39 0 49 54h59q-9 -50 -35.5 -78.5t-77.5 -28.5q-39 0 -62.5 24.5z" />
    <glyph glyph-name="acircumflex.ss01" horiz-adv-x="466" 
d="M52 24.5q-36 36.5 -36 94.5q0 73 45.5 113t128.5 61l131 32l3 16q2 8 2 23q0 36 -21.5 57.5t-60.5 21.5q-41 0 -70.5 -22t-44.5 -67l-60 22q42 132 185 132q67 0 106.5 -36.5t39.5 -97.5q0 -16 -3 -33l-43 -248q-1 -4 -1 -12q0 -29 27 -29q19 0 34 7l-11 -60
q-25 -11 -53 -11q-34 0 -52 21.5t-18 55.5q-23 -38 -54.5 -57.5t-81.5 -19.5q-56 0 -92 36.5zM253.5 95q35.5 42 47.5 115l9 53l-105 -27q-57 -14 -84 -41t-27 -72q0 -30 19.5 -50t51.5 -20q53 0 88.5 42zM217 577h-65l114 149h69l62 -149h-59l-47 84z" />
    <glyph glyph-name="adieresis.ss01" horiz-adv-x="466" 
d="M52 24.5q-36 36.5 -36 94.5q0 73 45.5 113t128.5 61l131 32l3 16q2 8 2 23q0 36 -21.5 57.5t-60.5 21.5q-41 0 -70.5 -22t-44.5 -67l-60 22q42 132 185 132q67 0 106.5 -36.5t39.5 -97.5q0 -16 -3 -33l-43 -248q-1 -4 -1 -12q0 -29 27 -29q19 0 34 7l-11 -60
q-25 -11 -53 -11q-34 0 -52 21.5t-18 55.5q-23 -38 -54.5 -57.5t-81.5 -19.5q-56 0 -92 36.5zM253.5 95q35.5 42 47.5 115l9 53l-105 -27q-57 -14 -84 -41t-27 -72q0 -30 19.5 -50t51.5 -20q53 0 88.5 42zM172 609.5q-16 16.5 -16 38.5q0 23 16 39t39 16t39 -16t16 -39
t-16 -39t-39 -16t-39 16.5zM327 609.5q-16 16.5 -16 38.5q0 23 16 39t39 16t39 -16t16 -39t-16 -39t-39 -16t-39 16.5z" />
    <glyph glyph-name="agrave.ss01" horiz-adv-x="466" 
d="M52 24.5q-36 36.5 -36 94.5q0 73 45.5 113t128.5 61l131 32l3 16q2 8 2 23q0 36 -21.5 57.5t-60.5 21.5q-41 0 -70.5 -22t-44.5 -67l-60 22q42 132 185 132q67 0 106.5 -36.5t39.5 -97.5q0 -16 -3 -33l-43 -248q-1 -4 -1 -12q0 -29 27 -29q19 0 34 7l-11 -60
q-25 -11 -53 -11q-34 0 -52 21.5t-18 55.5q-23 -38 -54.5 -57.5t-81.5 -19.5q-56 0 -92 36.5zM253.5 95q35.5 42 47.5 115l9 53l-105 -27q-57 -14 -84 -41t-27 -72q0 -30 19.5 -50t51.5 -20q53 0 88.5 42zM306 577h-59l-75 149h89z" />
    <glyph glyph-name="amacron.ss01" horiz-adv-x="466" 
d="M52 24.5q-36 36.5 -36 94.5q0 73 45.5 113t128.5 61l131 32l3 16q2 8 2 23q0 36 -21.5 57.5t-60.5 21.5q-41 0 -70.5 -22t-44.5 -67l-60 22q42 132 185 132q67 0 106.5 -36.5t39.5 -97.5q0 -16 -3 -33l-43 -248q-1 -4 -1 -12q0 -29 27 -29q19 0 34 7l-11 -60
q-25 -11 -53 -11q-34 0 -52 21.5t-18 55.5q-23 -38 -54.5 -57.5t-81.5 -19.5q-56 0 -92 36.5zM253.5 95q35.5 42 47.5 115l9 53l-105 -27q-57 -14 -84 -41t-27 -72q0 -30 19.5 -50t51.5 -20q53 0 88.5 42zM386 621h-205l10 61h205z" />
    <glyph glyph-name="aogonek.ss01" horiz-adv-x="466" 
d="M403 -1q-35 -19 -57.5 -49.5t-22.5 -59.5q0 -16 8 -25t22 -9q15 0 33 7l-10 -56q-23 -9 -46 -9q-32 0 -52 21.5t-20 59.5q0 72 60 115q-19 9 -28.5 28t-9.5 43q-23 -38 -54.5 -57.5t-81.5 -19.5q-56 0 -92 36.5t-36 94.5q0 73 45.5 113t128.5 61l131 32l3 16q2 8 2 23
q0 36 -21.5 57.5t-60.5 21.5q-41 0 -70.5 -22t-44.5 -67l-60 22q42 132 185 132q67 0 106.5 -36.5t39.5 -97.5q0 -16 -3 -33l-43 -248q-1 -4 -1 -12q0 -29 27 -29q19 0 34 7zM310 263l-105 -27q-57 -14 -84 -41t-27 -72q0 -30 19.5 -50t51.5 -20q53 0 88.5 42t47.5 115z" />
    <glyph glyph-name="aring.ss01" horiz-adv-x="466" 
d="M52 24.5q-36 36.5 -36 94.5q0 73 45.5 113t128.5 61l131 32l3 16q2 8 2 23q0 36 -21.5 57.5t-60.5 21.5q-41 0 -70.5 -22t-44.5 -67l-60 22q42 132 185 132q67 0 106.5 -36.5t39.5 -97.5q0 -16 -3 -33l-43 -248q-1 -4 -1 -12q0 -29 27 -29q19 0 34 7l-11 -60
q-25 -11 -53 -11q-34 0 -52 21.5t-18 55.5q-23 -38 -54.5 -57.5t-81.5 -19.5q-56 0 -92 36.5zM253.5 95q35.5 42 47.5 115l9 53l-105 -27q-57 -14 -84 -41t-27 -72q0 -30 19.5 -50t51.5 -20q53 0 88.5 42zM222 583.5q-20 22.5 -20 56.5q0 11 1 17l2 13q7 45 32.5 69t64.5 24
q35 0 55 -22.5t20 -56.5q0 -11 -1 -17l-2 -13q-7 -45 -32 -69t-64 -24q-36 0 -56 22.5zM309.5 622q10.5 12 13.5 33l2 14q1 4 1 10q0 16 -7.5 25.5t-20.5 9.5q-17 0 -28 -12t-14 -33l-2 -14q-1 -3 -1 -10q0 -16 8 -25.5t21 -9.5q17 0 27.5 12z" />
    <glyph glyph-name="atilde.ss01" horiz-adv-x="466" 
d="M52 24.5q-36 36.5 -36 94.5q0 73 45.5 113t128.5 61l131 32l3 16q2 8 2 23q0 36 -21.5 57.5t-60.5 21.5q-41 0 -70.5 -22t-44.5 -67l-60 22q42 132 185 132q67 0 106.5 -36.5t39.5 -97.5q0 -16 -3 -33l-43 -248q-1 -4 -1 -12q0 -29 27 -29q19 0 34 7l-11 -60
q-25 -11 -53 -11q-34 0 -52 21.5t-18 55.5q-23 -38 -54.5 -57.5t-81.5 -19.5q-56 0 -92 36.5zM253.5 95q35.5 42 47.5 115l9 53l-105 -27q-57 -14 -84 -41t-27 -72q0 -30 19.5 -50t51.5 -20q53 0 88.5 42zM157 627q8 34 30 53t54 19q17 0 30 -5.5t28 -15.5q8 -5 17 -9.5
t18 -4.5q16 0 26 8.5t17 26.5l44 -16q-8 -34 -30.5 -53t-54.5 -19q-17 0 -30 5.5t-28 15.5q-9 5 -18 9.5t-17 4.5q-16 0 -25.5 -8.5t-15.5 -26.5z" />
    <glyph glyph-name="ae.ss01" horiz-adv-x="718" 
d="M643 461q44 -47 44 -123q0 -24 -4 -44l-10 -59h-294l-6 -36q-4 -28 -4 -39q0 -49 24.5 -76.5t65.5 -27.5q46 0 74.5 24t46.5 71l67 -21q-28 -71 -73 -106.5t-121 -35.5q-50 0 -87 27t-54 74q-51 -101 -164 -101q-57 0 -95 34t-38 92q0 72 45.5 114t134.5 52l118 13l9 49
q2 8 2 23q0 35 -21.5 56.5t-60.5 21.5q-41 0 -70.5 -22t-44.5 -67l-60 22q42 132 185 132q48 0 81.5 -17t50.5 -48q56 65 145 65q70 0 114 -47zM390 293h220l2 14q3 15 3 30q0 47 -26 75.5t-70 28.5q-51 0 -83.5 -36.5t-44.5 -105.5zM250 94.5q37 41.5 48 112.5l4 26
l-99 -12q-111 -13 -111 -97q0 -32 19 -51.5t49 -19.5q53 0 90 41.5z" />
    <glyph glyph-name="aeacute.ss01" horiz-adv-x="718" 
d="M643 461q44 -47 44 -123q0 -24 -4 -44l-10 -59h-294l-6 -36q-4 -28 -4 -39q0 -49 24.5 -76.5t65.5 -27.5q46 0 74.5 24t46.5 71l67 -21q-28 -71 -73 -106.5t-121 -35.5q-50 0 -87 27t-54 74q-51 -101 -164 -101q-57 0 -95 34t-38 92q0 72 45.5 114t134.5 52l118 13l9 49
q2 8 2 23q0 35 -21.5 56.5t-60.5 21.5q-41 0 -70.5 -22t-44.5 -67l-60 22q42 132 185 132q48 0 81.5 -17t50.5 -48q56 65 145 65q70 0 114 -47zM390 293h220l2 14q3 15 3 30q0 47 -26 75.5t-70 28.5q-51 0 -83.5 -36.5t-44.5 -105.5zM250 94.5q37 41.5 48 112.5l4 26
l-99 -12q-111 -13 -111 -97q0 -32 19 -51.5t49 -19.5q53 0 90 41.5zM443 577h-66l91 149h95z" />
    <glyph glyph-name="l.ss02" 
d="M90 0h-75l124 700h75z" />
    <glyph glyph-name="lacute.ss02" 
d="M90 0h-75l124 700h75zM224 781h-66l91 149h95z" />
    <glyph glyph-name="lcaron.ss02" 
d="M90 0h-75l124 700h75zM263 487l-21 17l21 25q28 32 36 70q-15 3 -26.5 16t-11.5 30q0 26 15 43t40 17q22 0 35 -14.5t13 -38.5q0 -34 -20.5 -70.5t-52.5 -67.5z" />
    <glyph glyph-name="uni013C.ss02" 
d="M90 0h-75l124 700h75zM-23 -236l-17 14l16 20q17 21 24 42q-12 4 -20.5 15.5t-8.5 24.5q0 22 13.5 37t36.5 15q21 0 33.5 -13.5t12.5 -33.5q0 -49 -66 -102z" />
    <glyph glyph-name="ldot.ss02" horiz-adv-x="346" 
d="M90 0h-75l124 700h75zM238 309.5q-17 17.5 -17 40.5q0 24 17 41t41 17t40.5 -17t16.5 -41t-16.5 -41t-40.5 -17t-41 17.5z" />
    <glyph glyph-name="lslash.ss02" 
d="M158 385l74 53l-15 -84l-74 -53l-53 -301h-75l42 239l-74 -53l15 84l74 53l67 377h75z" />
    <glyph glyph-name="f_l.ss02" horiz-adv-x="505" 
d="M253.5 625q-19.5 -18 -25.5 -52l-14 -77h123l-12 -66h-122l-76 -430h-75l76 430h-78l12 66h78l13 76q13 73 50 106.5t104 33.5q31 0 66 -11l-13 -71q-17 7 -29 10t-28 3q-30 0 -49.5 -18zM402 0h-75l124 700h75z" />
    <glyph glyph-name="fl.ss02" horiz-adv-x="505" 
d="M253.5 625q-19.5 -18 -25.5 -52l-14 -77h123l-12 -66h-122l-76 -430h-75l76 430h-78l12 66h78l13 76q13 73 50 106.5t104 33.5q31 0 66 -11l-13 -71q-17 7 -29 10t-28 3q-30 0 -49.5 -18zM402 0h-75l124 700h75z" />
    <glyph glyph-name="ordfeminine.ss01" horiz-adv-x="309" 
d="M74 398.5q-23 24.5 -23 60.5q0 47 28 72t86 39l84 20l1 7q1 4 1 12q0 24 -13 37t-38 13t-43 -13.5t-27 -40.5l-46 18q30 84 124 84q48 0 74 -25t26 -65q0 -7 -2 -23l-25 -146q-1 -3 -1 -7q0 -18 18 -18q11 0 20 4l-8 -45q-13 -8 -39 -8q-20 0 -33 13.5t-13 37.5
q-17 -24 -38.5 -37.5t-52.5 -13.5q-37 0 -60 24.5zM207 449.5q22 25.5 29 65.5l5 29l-64 -15q-33 -7 -49.5 -21.5t-16.5 -41.5q0 -18 12 -30t31 -12q31 0 53 25.5z" />
    <glyph glyph-name="uni0414.loclBGR" horiz-adv-x="588" 
d="M421 700l54 -625h44l-38 -217h-80l25 142h-352l-25 -142h-80l38 217h46l272 625h96zM359 601l-220 -526h255z" />
    <glyph glyph-name="uni041B.loclBGR" horiz-adv-x="503" 
d="M61 0h-91l312 700h98l65 -700h-85l-45 593z" />
    <glyph glyph-name="uni0432.loclBGR" horiz-adv-x="418" 
d="M75 24q-37 38 -37 95q0 14 3 29l73 414q12 72 55.5 112t115.5 40q68 0 102.5 -36t34.5 -92q0 -14 -3 -31l-9 -52q-10 -57 -35 -85.5t-61 -41.5q30 -9 46.5 -33.5t16.5 -64.5q0 -17 -3 -37l-16 -91q-29 -164 -181 -164q-65 0 -102 38zM235 403q38 0 66.5 23.5t35.5 69.5
l9 55q2 16 2 22q0 34 -19 54t-51 20q-74 0 -89 -87l-28 -157h74zM285 151l16 94q2 18 2 24q0 35 -20 52.5t-56 17.5h-77l-33 -189q-2 -9 -2 -25q0 -34 18 -52.5t53 -18.5q83 0 99 97z" />
    <glyph glyph-name="uni0433.loclBGR" horiz-adv-x="396" 
d="M55.5 21.5q-37.5 35.5 -37.5 96.5q0 64 40 100.5t122 64.5q55 19 84.5 41t29.5 57q0 29 -17.5 45.5t-51.5 16.5q-36 0 -59.5 -17t-35.5 -57l-58 23q17 59 55.5 86.5t104.5 27.5q59 0 94.5 -33.5t35.5 -85.5q0 -63 -37 -98t-116 -64q-44 -16 -67.5 -28t-36.5 -29.5
t-13 -44.5q0 -33 19 -51.5t51 -18.5q41 0 66 21.5t37 65.5l66 -20q-21 -69 -61 -101.5t-119 -32.5q-58 0 -95.5 35.5z" />
    <glyph glyph-name="uni0434.loclBGR" horiz-adv-x="485" 
d="M50.5 -176q-43.5 40 -56.5 106l71 25q9 -47 35.5 -75t68.5 -28q57 0 90 33.5t46 104.5l15 84q-21 -33 -53.5 -50.5t-82.5 -17.5q-41 0 -75.5 21.5t-54 60.5t-19.5 90q0 25 4 46l13 75q18 104 74.5 156.5t137.5 52.5q44 0 76.5 -18.5t44.5 -48.5l10 55h75l-89 -503
q-18 -105 -71 -157t-149 -52q-67 0 -110.5 40zM301 115q36 38 49 108l12 68q3 20 3 36q0 51 -27.5 80.5t-74.5 29.5q-54 0 -88 -37t-47 -109l-12 -68q-4 -28 -4 -38q0 -51 26.5 -79.5t72.5 -28.5q54 0 90 38z" />
    <glyph glyph-name="uni0436.loclBGR" horiz-adv-x="609" 
d="M71 0h-88l202 250l-114 246h78l104 -220h19l75 424h75l-75 -424h18l173 220h88l-202 -250l114 -246h-78l-104 220h-19l-39 -220h-75l39 220h-18z" />
    <glyph glyph-name="uni0437.loclBGR" horiz-adv-x="381" 
d="M8.5 -172q-37.5 46 -32.5 123l71 9q-6 -110 78 -110q42 0 69 28.5t37 82.5l13 74q3 20 3 34q0 36 -18 52t-55 16h-49l11 66h49q38 0 65.5 25t35.5 71l9 50q2 8 2 24q0 33 -19.5 51t-55.5 18q-40 0 -65 -23.5t-36 -75.5l-67 11q13 72 59 113t121 41q61 0 98 -32.5
t37 -88.5q0 -14 -3 -31l-10 -57q-9 -53 -30 -80.5t-55 -41.5q26 -13 38 -34.5t12 -55.5q0 -19 -5 -49l-14 -80q-16 -89 -61.5 -132.5t-125.5 -43.5q-69 0 -106.5 46z" />
    <glyph glyph-name="uni0438.loclBGR" horiz-adv-x="459" 
d="M74 23.5q-34 35.5 -34 94.5q0 18 3 37l60 341h75l-59 -331q-2 -18 -2 -25q0 -38 21.5 -60.5t60.5 -22.5q45 0 74 28t38 81l58 330h75l-88 -496h-75l9 50q-16 -29 -49 -45.5t-73 -16.5q-60 0 -94 35.5z" />
    <glyph glyph-name="uni0439.loclBGR" horiz-adv-x="459" 
d="M74 23.5q-34 35.5 -34 94.5q0 18 3 37l60 341h75l-59 -331q-2 -18 -2 -25q0 -38 21.5 -60.5t60.5 -22.5q45 0 74 28t38 81l58 330h75l-88 -496h-75l9 50q-16 -29 -49 -45.5t-73 -16.5q-60 0 -94 35.5zM227 600.5q-23 25.5 -23 65.5q0 16 2 25h59q-2 -18 -2 -23
q0 -40 34 -40q45 0 55 63h59q-21 -116 -123 -116q-38 0 -61 25.5z" />
    <glyph glyph-name="uni043A.loclBGR" horiz-adv-x="401" 
d="M330 496h88l-202 -250l114 -246h-78l-103 220h-20l-39 -220h-75l124 700h75l-75 -424h17z" />
    <glyph glyph-name="uni043B.loclBGR" horiz-adv-x="416" 
d="M49 0h-83l244 496h82l70 -496h-78l-48 397z" />
    <glyph glyph-name="uni043F.loclBGR" horiz-adv-x="459" 
d="M15 0l88 496h75l-9 -50q16 29 49 45.5t73 16.5q60 0 94 -35.5t34 -94.5q0 -17 -3 -37l-60 -341h-75l59 331q2 18 2 25q0 38 -21.5 60.5t-60.5 22.5q-45 0 -74 -28t-38 -81l-58 -330h-75z" />
    <glyph glyph-name="uni0442.loclBGR" horiz-adv-x="647" 
d="M15 0l88 496h74l-8 -43q16 24 44.5 39.5t62.5 15.5q37 0 61.5 -16.5t36.5 -45.5q19 29 51 45.5t73 16.5q52 0 83 -31t31 -81q0 -15 -3 -30l-65 -366h-74l63 355q2 14 2 20q0 30 -17.5 47.5t-50.5 17.5q-34 0 -57 -23t-30 -62l-63 -355h-74l63 355q2 14 2 20
q0 30 -18 47.5t-50 17.5q-34 0 -57.5 -23t-30.5 -62l-63 -355h-74z" />
    <glyph glyph-name="uni0446.loclBGR" horiz-adv-x="482" 
d="M321 -122l21 122h-61l9 50q-16 -29 -49 -45.5t-73 -16.5q-60 0 -94 35.5t-34 94.5q0 18 3 37l60 341h75l-59 -331q-2 -18 -2 -25q0 -38 21.5 -60.5t60.5 -22.5q45 0 74 28t38 81l58 330h75l-76 -428h58l-33 -190h-72z" />
    <glyph glyph-name="uni0448.loclBGR" horiz-adv-x="647" 
d="M66 19q-31 31 -31 81q0 15 3 30l65 366h74l-63 -355q-2 -14 -2 -20q0 -30 17.5 -47.5t50.5 -17.5q34 0 57 23t30 62l63 355h74l-63 -355q-2 -14 -2 -20q0 -30 18 -47.5t50 -17.5q34 0 57.5 23t30.5 62l63 355h74l-88 -496h-74l8 43q-16 -24 -44.5 -39.5t-62.5 -15.5
q-37 0 -61.5 16.5t-36.5 45.5q-19 -29 -51 -45.5t-73 -16.5q-52 0 -83 31z" />
    <glyph glyph-name="uni0449.loclBGR" horiz-adv-x="670" 
d="M509 -122l21 122h-60l8 43q-16 -24 -44.5 -39.5t-62.5 -15.5q-37 0 -61.5 16.5t-36.5 45.5q-19 -29 -51 -45.5t-73 -16.5q-52 0 -83 31t-31 81q0 15 3 30l65 366h74l-63 -355q-2 -14 -2 -20q0 -30 17.5 -47.5t50.5 -17.5q34 0 57 23t30 62l63 355h74l-63 -355
q-2 -14 -2 -20q0 -30 18 -47.5t50 -17.5q34 0 57.5 23t30.5 62l63 355h74l-76 -428h58l-33 -190h-72z" />
    <glyph glyph-name="uni044C.loclBGR" horiz-adv-x="404" 
d="M75 21.5q-36 35.5 -36 93.5q0 17 3 33l61 348h75l-36 -204q45 16 85 16q60 0 93.5 -32.5t33.5 -87.5q0 -14 -3 -31l-3 -18q-26 -153 -178 -153q-59 0 -95 35.5zM241.5 75q23.5 21 30.5 63l3 19q2 14 2 20q0 30 -17.5 47.5t-51.5 17.5q-20 0 -43 -6t-36 -15l-14 -81
q-2 -16 -2 -22q0 -31 18 -47.5t49 -16.5q38 0 61.5 21z" />
    <glyph glyph-name="uni044A.loclBGR" horiz-adv-x="456" 
d="M372.5 275.5q33.5 -32.5 33.5 -87.5q0 -14 -3 -31l-3 -18q-26 -153 -178 -153q-59 0 -95 35.5t-36 93.5q0 17 3 33l49 280h-93l12 68h168l-36 -204q45 16 85 16q60 0 93.5 -32.5zM327 157q2 14 2 20q0 30 -17.5 47.5t-51.5 17.5q-20 0 -43 -6t-36 -15l-14 -81
q-2 -16 -2 -22q0 -31 18 -47.5t49 -16.5q38 0 61.5 21t30.5 63z" />
    <glyph glyph-name="uni044E.loclBGR" horiz-adv-x="632" 
d="M554.5 460.5q46.5 -47.5 46.5 -123.5q0 -24 -4 -45l-16 -88q-19 -104 -76.5 -160t-145.5 -56q-72 0 -118.5 47.5t-46.5 123.5q0 24 4 45l5 25h-72l-41 -229h-75l124 700h75l-71 -403h72q19 102 76.5 156.5t143.5 54.5q73 0 119.5 -47.5zM519 294q3 18 3 35q0 50 -26 79
t-68 29q-55 0 -90 -36.5t-47 -106.5l-16 -92q-3 -18 -3 -35q0 -50 26 -79t68 -29q55 0 90 36.5t47 106.5z" />
    <glyph glyph-name="zero.lf" horiz-adv-x="494" 
d="M79 38.5q-45 52.5 -45 141.5q0 28 7 70l36 200q24 134 84 199t164 65q81 0 125.5 -53.5t44.5 -141.5q0 -33 -6 -69l-36 -200q-24 -134 -84 -199t-164 -65q-81 0 -126 52.5zM318.5 104q38.5 46 55.5 143l36 206q6 33 6 60q0 63 -28 96t-75 33q-64 0 -102 -45.5t-55 -143.5
l-36 -206q-6 -33 -6 -60q0 -63 27.5 -96t75.5 -33q63 0 101.5 46z" />
    <glyph glyph-name="one.lf" horiz-adv-x="300" 
d="M190 0h-80l108 610l-149 -105l16 89l149 106h80z" />
    <glyph glyph-name="two.lf" horiz-adv-x="438" 
d="M3 0l13 71l234 248q63 67 88 115.5t25 113.5q0 43 -24 68t-65 25q-47 0 -76 -31.5t-44 -93.5l-71 14q38 182 202 182q73 0 115.5 -46t42.5 -115q0 -57 -16.5 -103t-46 -86t-78.5 -92l-189 -199h260l-13 -71h-357z" />
    <glyph glyph-name="three.lf" horiz-adv-x="471" 
d="M54 41.5q-47 53.5 -48 151.5l75 11q-1 -69 27.5 -106.5t77.5 -37.5q58 0 90.5 35t45.5 106l5 27q3 17 3 31q0 53 -36.5 81.5t-103.5 28.5l11 61l158 200h-257l13 70h346l-13 -70l-165 -203q55 -8 90.5 -52t35.5 -106q0 -18 -3 -36l-6 -34q-37 -211 -220 -211
q-79 0 -126 53.5z" />
    <glyph glyph-name="four.lf" horiz-adv-x="446" 
d="M304 0h-77l30 170h-244l13 73l325 457h77l-81 -458h78l-13 -72h-78zM325 555l-219 -313h164z" />
    <glyph glyph-name="five.lf" horiz-adv-x="476" 
d="M114.5 12.5q-39.5 24.5 -61 69.5t-20.5 104l78 12q-1 -64 26 -100t76 -36q113 0 137 139l9 52q3 18 3 35q0 50 -26.5 78.5t-75.5 28.5q-78 0 -125 -83l-62 26l90 362h336l-13 -70h-268l-59 -221q21 25 52 40t69 15q74 0 118 -47.5t44 -120.5q0 -19 -3 -39l-11 -64
q-18 -103 -73 -154t-149 -51q-52 0 -91.5 24.5z" />
    <glyph glyph-name="six.lf" horiz-adv-x="464" 
d="M105 10q-37 22 -58.5 61.5t-21.5 91.5q0 26 4 47l4 22q12 64 35 108.5t66 101.5l192 258h86l-213 -282q15 12 37 18t43 6q69 0 110 -43.5t41 -116.5q0 -21 -5 -51l-5 -26q-21 -110 -77.5 -163.5t-153.5 -53.5q-47 0 -84 22zM296 93.5q37 36.5 49 106.5l6 34q3 18 3 34
q0 50 -27.5 79.5t-75.5 29.5q-56 0 -93.5 -38.5t-48.5 -104.5l-6 -34q-3 -16 -3 -33q0 -50 27 -80t72 -30q60 0 97 36.5z" />
    <glyph glyph-name="seven.lf" horiz-adv-x="389" 
d="M135 0h-78l296 629h-262l13 71h338l-13 -71z" />
    <glyph glyph-name="eight.lf" horiz-adv-x="448" 
d="M103 8.5q-37 20.5 -58 56.5t-21 81q0 18 3 34l5 28q13 70 44 109t80 61q-23 17 -38.5 49t-15.5 65q0 7 2 21l5 26q15 76 65 122.5t128 46.5q65 0 104 -37.5t39 -97.5q0 -16 -3 -34l-5 -27q-19 -105 -101 -145q30 -16 49.5 -49t19.5 -77q0 -16 -3 -34l-5 -29
q-16 -94 -71.5 -142t-138.5 -48q-47 0 -84 20.5zM325 427.5q28 26.5 37 78.5l5 28q2 9 2 26q0 38 -20.5 58.5t-55.5 20.5q-41 0 -72 -28t-39 -77l-4 -25q-2 -16 -2 -23q0 -38 21 -61.5t57 -23.5q43 0 71 26.5zM321 182l5 30q2 9 2 26q0 44 -25.5 70.5t-69.5 26.5
q-51 0 -82.5 -32.5t-41.5 -90.5l-5 -30q-2 -10 -2 -28q0 -44 25 -69.5t67 -25.5q106 0 127 123z" />
    <glyph glyph-name="nine.lf" horiz-adv-x="464" 
d="M301 282q-15 -12 -37 -18t-43 -6q-65 0 -107.5 45.5t-42.5 118.5q0 25 4 45l5 28q39 217 229 217q74 0 120 -49t46 -127q0 -25 -4 -46l-4 -22q-12 -64 -35 -108.5t-66 -101.5l-192 -258h-86zM342.5 361.5q37.5 38.5 48.5 104.5l6 34q3 17 3 33q0 50 -27 80t-72 30
q-60 0 -97 -36.5t-49 -106.5l-6 -34q-3 -18 -3 -34q0 -50 27.5 -79.5t75.5 -29.5q56 0 93.5 38.5z" />
    <glyph glyph-name="zero.tf" horiz-adv-x="420" 
d="M57.5 33q-44.5 47 -44.5 128q0 28 6 59l46 260q21 116 74 175t133 59q81 0 126 -47t45 -128q0 -27 -6 -59l-46 -260q-21 -117 -73.5 -175.5t-133.5 -58.5q-82 0 -126.5 47zM265.5 94.5q31.5 36.5 46.5 122.5l46 266q5 30 5 49q0 54 -24.5 82t-65.5 28q-52 0 -83 -36
t-46 -123l-46 -266q-5 -30 -5 -50q0 -54 24.5 -81.5t65.5 -27.5q51 0 82.5 36.5z" />
    <glyph glyph-name="one.tf" horiz-adv-x="420" 
d="M279 0h-80l107 608l-189 -105l17 91l189 106h80z" />
    <glyph glyph-name="two.tf" horiz-adv-x="420" 
d="M-6 0l13 71l234 248q63 67 88 115.5t25 113.5q0 43 -24 68t-65 25q-47 0 -76 -31.5t-44 -93.5l-71 14q38 182 202 182q73 0 115.5 -46t42.5 -115q0 -57 -16.5 -103t-46 -86t-78.5 -92l-189 -199h260l-13 -71h-357z" />
    <glyph glyph-name="three.tf" horiz-adv-x="420" 
d="M49 41.5q-47 53.5 -48 151.5l75 11q-1 -69 27.5 -106.5t77.5 -37.5q58 0 90.5 35t45.5 106l5 27q3 17 3 31q0 53 -36.5 81.5t-103.5 28.5l11 61l158 200h-257l13 70h346l-13 -70l-165 -203q55 -8 90.5 -52t35.5 -106q0 -18 -3 -36l-6 -34q-37 -211 -220 -211
q-79 0 -126 53.5z" />
    <glyph glyph-name="four.tf" horiz-adv-x="420" 
d="M295 0h-77l30 170h-232l13 73l313 457h77l-81 -458h58l-13 -72h-58zM316 555l-207 -313h152z" />
    <glyph glyph-name="five.tf" horiz-adv-x="420" 
d="M57 42q-46 54 -44 144l78 12q-2 -66 22.5 -101t74.5 -35q52 0 80 34t40 105l9 52q4 28 4 39q0 47 -24 75t-68 28q-32 0 -62 -22t-52 -61l-62 26l90 362h325l-13 -70h-265l-51 -221q46 55 110 55q71 0 111.5 -45t40.5 -117q0 -25 -4 -45l-11 -64q-35 -205 -205 -205
q-78 0 -124 54z" />
    <glyph glyph-name="six.tf" horiz-adv-x="420" 
d="M90.5 10q-36.5 22 -57.5 61.5t-21 90.5q0 20 5 48l4 22q12 64 35 108.5t66 101.5l192 258h86l-213 -282q27 24 70 24q63 0 102 -43t39 -115q0 -29 -5 -53l-5 -26q-21 -110 -73 -163.5t-142 -53.5q-46 0 -82.5 22zM313 200l6 34q3 18 3 36q0 48 -25 77.5t-68 29.5
q-52 0 -86.5 -38t-45.5 -105l-6 -34q-3 -18 -3 -35q0 -49 24.5 -78.5t64.5 -29.5q111 0 136 143z" />
    <glyph glyph-name="seven.tf" horiz-adv-x="420" 
d="M142 0h-79l307 629h-273l13 71h350l-13 -71z" />
    <glyph glyph-name="eight.tf" horiz-adv-x="420" 
d="M89 8.5q-37 20.5 -58 56.5t-21 81q0 18 3 34l5 28q13 70 44 109t80 61q-23 17 -38.5 49t-15.5 65q0 7 2 21l5 26q15 76 65 122.5t128 46.5q65 0 104 -37.5t39 -97.5q0 -16 -3 -34l-5 -27q-19 -105 -101 -145q30 -16 49.5 -49t19.5 -77q0 -16 -3 -34l-5 -29
q-16 -94 -71.5 -142t-138.5 -48q-47 0 -84 20.5zM311 427.5q28 26.5 37 78.5l5 28q2 9 2 26q0 38 -20.5 58.5t-55.5 20.5q-41 0 -72 -28t-39 -77l-4 -25q-2 -16 -2 -23q0 -38 21 -61.5t57 -23.5q43 0 71 26.5zM307 182l5 30q2 9 2 26q0 44 -25.5 70.5t-69.5 26.5
q-51 0 -82.5 -32.5t-41.5 -90.5l-5 -30q-2 -10 -2 -28q0 -44 25 -69.5t67 -25.5q106 0 127 123z" />
    <glyph glyph-name="nine.tf" horiz-adv-x="420" 
d="M269 282q-27 -24 -70 -24q-63 0 -102 43t-39 115q0 29 5 53l5 26q21 110 73 163.5t142 53.5q73 0 117 -47t44 -124q0 -21 -5 -51l-4 -22q-12 -64 -35 -108.5t-66 -101.5l-192 -258h-86zM313.5 361q34.5 38 45.5 105l6 34q3 18 3 35q0 49 -24.5 78.5t-64.5 29.5
q-111 0 -136 -143l-6 -34q-3 -18 -3 -36q0 -48 25 -77.5t68 -29.5q52 0 86.5 38z" />
    <glyph glyph-name="zero.dnom" horiz-adv-x="298" 
d="M30.5 24.5q-30.5 31.5 -30.5 84.5q0 15 3 31l12 70q26 147 144 147q53 0 82.5 -31.5t29.5 -83.5q0 -15 -3 -32l-12 -70q-13 -75 -48.5 -111t-96.5 -36q-50 0 -80.5 31.5zM165.5 71q16.5 20 24.5 66l14 76q3 15 3 27q0 29 -14.5 44t-39.5 15q-29 0 -47 -20.5t-26 -65.5
l-14 -76q-3 -13 -3 -26q0 -29 14.5 -44.5t40.5 -15.5q31 0 47.5 20z" />
    <glyph glyph-name="one.dnom" horiz-adv-x="179" 
d="M104 0h-65l49 281l-80 -49l12 69l81 49h65z" />
    <glyph glyph-name="two.dnom" horiz-adv-x="252" 
d="M-17 0l9 54l134 123q26 23 36 42.5t10 41.5q0 19 -11 30t-30 11q-44 0 -57 -52l-55 9q11 47 39 72t79 25q46 0 72.5 -26t26.5 -63q0 -39 -17.5 -67t-55.5 -61l-94 -85h133l-9 -54h-210z" />
    <glyph glyph-name="three.dnom" horiz-adv-x="264" 
d="M17.5 22.5q-29.5 28.5 -28.5 76.5l59 8q1 -28 13 -43.5t35 -15.5q52 0 59 57l2 17q6 53 -66 53l7 44l74 80h-137l9 51h203l-9 -51l-81 -84q28 -6 45.5 -26.5t17.5 -52.5q0 -12 -1 -18l-2 -14q-16 -110 -125 -110q-45 0 -74.5 28.5z" />
    <glyph glyph-name="four.dnom" horiz-adv-x="263" 
d="M165 0h-60l14 76h-136l9 53l175 221h60l-39 -221h43l-9 -53h-43zM149 250l-96 -121h75z" />
    <glyph glyph-name="five.dnom" horiz-adv-x="271" 
d="M25.5 22.5q-28.5 28.5 -30.5 73.5l60 9q3 -54 49 -54q50 0 60 55l4 22q1 4 1 11q0 19 -13 31t-35 12q-18 0 -31 -8.5t-25 -24.5l-50 17l49 184h194l-9 -52h-145l-25 -89q25 23 64 23q41 0 64.5 -22t23.5 -60q0 -7 -2 -23l-4 -23q-9 -52 -40.5 -81t-85.5 -29
q-45 0 -73.5 28.5z" />
    <glyph glyph-name="six.dnom" horiz-adv-x="253" 
d="M17.5 22q-25.5 28 -25.5 77q0 31 11.5 56.5t34.5 56.5l103 138h64l-103 -134q10 7 28 7q38 0 60 -24t22 -62q0 -7 -2 -23l-3 -17q-8 -49 -39.5 -76t-80.5 -27q-44 0 -69.5 28zM151 103l2 12q1 4 1 13q0 20 -12 32t-32 12q-24 0 -38.5 -15t-19.5 -42l-2 -12q-1 -4 -1 -11
q0 -20 12 -33t32 -13q49 0 58 57z" />
    <glyph glyph-name="seven.dnom" horiz-adv-x="225" 
d="M72 0h-61l151 298h-141l9 52h199l-9 -52z" />
    <glyph glyph-name="eight.dnom" horiz-adv-x="264" 
d="M21 20.5q-27 26.5 -27 65.5q0 35 16.5 61.5t49.5 40.5q-12 10 -19.5 26t-7.5 33q0 47 31.5 77t85.5 30q42 0 63.5 -24.5t21.5 -61.5q0 -29 -15 -52t-40 -33q15 -8 25.5 -25.5t10.5 -40.5q0 -58 -34.5 -90.5t-93.5 -32.5q-40 0 -67 26.5zM161.5 220.5q13.5 15.5 13.5 40.5
q0 20 -9 32t-25 12q-23 0 -37 -15.5t-14 -42.5q0 -19 10 -30.5t26 -11.5q22 0 35.5 15.5zM142 64.5q16 18.5 16 49.5q0 19 -11 32.5t-31 13.5q-28 0 -45 -19.5t-17 -48.5q0 -20 12 -33t31 -13q29 0 45 18.5z" />
    <glyph glyph-name="nine.dnom" horiz-adv-x="253" 
d="M125 134q-10 -7 -28 -7q-38 0 -60 24t-22 62q0 7 2 23l3 17q8 49 39.5 76t80.5 27q44 0 69.5 -28t25.5 -77q0 -31 -11.5 -56.5t-34.5 -56.5l-103 -138h-64zM155.5 193q14.5 15 19.5 42l2 12q1 4 1 11q0 20 -12 33t-32 13q-49 0 -58 -57l-2 -12q-1 -4 -1 -13q0 -20 12 -32
t32 -12q24 0 38.5 15z" />
    <glyph glyph-name="zero.numr" horiz-adv-x="298" 
d="M92.5 374.5q-30.5 31.5 -30.5 84.5q0 15 3 31l12 70q26 147 144 147q53 0 82.5 -31.5t29.5 -83.5q0 -15 -3 -32l-12 -70q-13 -75 -48.5 -111t-96.5 -36q-50 0 -80.5 31.5zM227.5 421q16.5 20 24.5 66l14 76q3 15 3 27q0 29 -14.5 44t-39.5 15q-29 0 -47 -20.5t-26 -65.5
l-14 -76q-3 -13 -3 -26q0 -29 14.5 -44.5t40.5 -15.5q31 0 47.5 20z" />
    <glyph glyph-name="one.numr" horiz-adv-x="179" 
d="M166 350h-65l49 281l-80 -49l12 69l81 49h65z" />
    <glyph glyph-name="two.numr" horiz-adv-x="252" 
d="M45 350l9 54l134 123q26 23 36 42.5t10 41.5q0 19 -11 30t-30 11q-44 0 -57 -52l-55 9q11 47 39 72t79 25q46 0 72.5 -26t26.5 -63q0 -39 -17.5 -67t-55.5 -61l-94 -85h133l-9 -54h-210z" />
    <glyph glyph-name="three.numr" horiz-adv-x="264" 
d="M79.5 372.5q-29.5 28.5 -28.5 76.5l59 8q1 -28 13 -43.5t35 -15.5q52 0 59 57l2 17q6 53 -66 53l7 44l74 80h-137l9 51h203l-9 -51l-81 -84q28 -6 45.5 -26.5t17.5 -52.5q0 -12 -1 -18l-2 -14q-16 -110 -125 -110q-45 0 -74.5 28.5z" />
    <glyph glyph-name="four.numr" horiz-adv-x="263" 
d="M227 350h-60l14 76h-136l9 53l175 221h60l-39 -221h43l-9 -53h-43zM211 600l-96 -121h75z" />
    <glyph glyph-name="five.numr" horiz-adv-x="271" 
d="M87.5 372.5q-28.5 28.5 -30.5 73.5l60 9q3 -54 49 -54q50 0 60 55l4 22q1 4 1 11q0 19 -13 31t-35 12q-18 0 -31 -8.5t-25 -24.5l-50 17l49 184h194l-9 -52h-145l-25 -89q25 23 64 23q41 0 64.5 -22t23.5 -60q0 -7 -2 -23l-4 -23q-9 -52 -40.5 -81t-85.5 -29
q-45 0 -73.5 28.5z" />
    <glyph glyph-name="six.numr" horiz-adv-x="253" 
d="M79.5 372q-25.5 28 -25.5 77q0 31 11.5 56.5t34.5 56.5l103 138h64l-103 -134q10 7 28 7q38 0 60 -24t22 -62q0 -7 -2 -23l-3 -17q-8 -49 -39.5 -76t-80.5 -27q-44 0 -69.5 28zM213 453l2 12q1 4 1 13q0 20 -12 32t-32 12q-24 0 -38.5 -15t-19.5 -42l-2 -12q-1 -4 -1 -11
q0 -20 12 -33t32 -13q49 0 58 57z" />
    <glyph glyph-name="seven.numr" horiz-adv-x="225" 
d="M134 350h-61l151 298h-141l9 52h199l-9 -52z" />
    <glyph glyph-name="eight.numr" horiz-adv-x="264" 
d="M83 370.5q-27 26.5 -27 65.5q0 35 16.5 61.5t49.5 40.5q-12 10 -19.5 26t-7.5 33q0 47 31.5 77t85.5 30q42 0 63.5 -24.5t21.5 -61.5q0 -29 -15 -52t-40 -33q15 -8 25.5 -25.5t10.5 -40.5q0 -58 -34.5 -90.5t-93.5 -32.5q-40 0 -67 26.5zM223.5 570.5
q13.5 15.5 13.5 40.5q0 20 -9 32t-25 12q-23 0 -37 -15.5t-14 -42.5q0 -19 10 -30.5t26 -11.5q22 0 35.5 15.5zM204 414.5q16 18.5 16 49.5q0 19 -11 32.5t-31 13.5q-28 0 -45 -19.5t-17 -48.5q0 -20 12 -33t31 -13q29 0 45 18.5z" />
    <glyph glyph-name="nine.numr" horiz-adv-x="253" 
d="M187 484q-10 -7 -28 -7q-38 0 -60 24t-22 62q0 7 2 23l3 17q8 49 39.5 76t80.5 27q44 0 69.5 -28t25.5 -77q0 -31 -11.5 -56.5t-34.5 -56.5l-103 -138h-64zM217.5 543q14.5 15 19.5 42l2 12q1 4 1 11q0 20 -12 33t-32 13q-49 0 -58 -57l-2 -12q-1 -4 -1 -13q0 -20 12 -32
t32 -12q24 0 38.5 15z" />
    <glyph glyph-name="uni030C.alt" horiz-adv-x="0" 
d="M-72 487l-21 17l21 25q28 32 36 70q-15 3 -26.5 16t-11.5 30q0 26 15 43t40 17q22 0 35 -14.5t13 -38.5q0 -34 -20.5 -70.5t-52.5 -67.5z" />
    <glyph glyph-name="brevecombcy" horiz-adv-x="0" 
d="M-114 600.5q-23 25.5 -23 65.5q0 16 2 25h59q-2 -18 -2 -23q0 -40 34 -40q45 0 55 63h59q-21 -116 -123 -116q-38 0 -61 25.5z" />
    </font>
</defs>
</svg>
