<?xml version="1.0" standalone="no"?>
<!DOCTYPE svg PUBLIC "-//W3C//DTD SVG 1.1//EN" "http://www.w3.org/Graphics/SVG/1.1/DTD/svg11.dtd" >
<svg xmlns="http://www.w3.org/2000/svg" xmlns:xlink="http://www.w3.org/1999/xlink" version="1.1">
<metadata>
Created by FontForge 20170731 at Mon Sep  6 17:59:10 2021
 By Aleksey,,,
Copyright (c) 2020 by F. Hoffmann-La Roche AG. All rights reserved.
</metadata>
<defs>
<font id="RocheSans-LightItalic" horiz-adv-x="534" >
  <font-face 
    font-family="Roche Sans Light"
    font-weight="300"
    font-style="italic"
    font-stretch="normal"
    units-per-em="1000"
    panose-1="2 11 3 4 3 2 1 4 1 1"
    ascent="800"
    descent="-200"
    x-height="496"
    cap-height="700"
    bbox="-254 -229 1084 965"
    underline-thickness="50"
    underline-position="-150"
    slope="-10"
    unicode-range="U+000D-FB02"
  />
<missing-glyph horiz-adv-x="791" 
d="M621 123h-425l-173 200l173 200h425l173 -202zM49 321l156 -178h407l156 178l-156 182h-407z" />
    <glyph glyph-name="f_i" unicode="fi" horiz-adv-x="527" 
d="M251.5 643q-21.5 -19 -28.5 -60l-15 -87h143l-9 -50h-143l-79 -446h-54l79 446h-90l9 50h90l15 86q11 64 48.5 97t98.5 33q44 0 71 -12l-10 -52q-31 14 -67 14q-37 0 -58.5 -19zM465.5 616.5q-14.5 14.5 -14.5 33.5q0 20 14 34t34 14t34 -14t14 -34t-14 -34t-34 -14
q-19 0 -33.5 14.5zM411 0h-54l88 496h54z" />
    <glyph glyph-name="f_l" unicode="fl" horiz-adv-x="564" 
d="M251.5 643q-21.5 -19 -28.5 -60l-15 -87h143l-9 -50h-143l-79 -446h-54l79 446h-90l9 50h90l15 86q11 64 48.5 97t98.5 33q44 0 71 -12l-10 -52q-31 14 -67 14q-37 0 -58.5 -19zM393.5 13q-20.5 25 -20.5 63q0 17 2 25l106 599h54l-106 -600q-1 -5 -1 -15q0 -21 10.5 -34
t29.5 -13q22 0 44 12l-9 -51q-24 -11 -55 -11q-34 0 -54.5 25z" />
    <glyph glyph-name=".notdef" horiz-adv-x="791" 
d="M621 123h-425l-173 200l173 200h425l173 -202zM49 321l156 -178h407l156 178l-156 182h-407z" />
    <glyph glyph-name=".null" horiz-adv-x="0" 
 />
    <glyph glyph-name="nonmarkingreturn" unicode="&#xd;" horiz-adv-x="600" 
 />
    <glyph glyph-name="space" unicode=" " horiz-adv-x="210" 
 />
    <glyph glyph-name="exclam" unicode="!" horiz-adv-x="241" 
d="M138 188h-55l90 512h55zM49.5 4.5q-14.5 14.5 -14.5 33.5q0 21 14 35t34 14q21 0 35 -14t14 -35q0 -20 -14 -34t-35 -14q-19 0 -33.5 14.5z" />
    <glyph glyph-name="quotedbl" unicode="&#x22;" horiz-adv-x="348" 
d="M168 486h-56l38 214h56zM320 486h-56l38 214h56z" />
    <glyph glyph-name="numbersign" unicode="#" horiz-adv-x="549" 
d="M573 489l-10 -52h-103l-54 -174h95l-10 -52h-101l-66 -211h-59l66 211h-163l-66 -211h-59l66 211h-98l10 52h104l54 174h-96l10 52h102l66 211h59l-66 -211h163l66 211h59l-66 -211h97zM184 263h163l54 174h-163z" />
    <glyph glyph-name="dollar" unicode="$" horiz-adv-x="539" 
d="M325 387q75 -30 115.5 -71.5t40.5 -107.5q0 -62 -27.5 -111t-79 -78.5t-120.5 -32.5l-13 -74h-57l14 77q-73 10 -113.5 56t-54.5 116l56 25q14 -62 43 -98t78 -45l54 306q-72 31 -108.5 75t-36.5 110q0 81 55 128t154 50l13 74h57l-14 -78q56 -10 95.5 -45.5t55.5 -92.5
l-53 -25q-12 43 -40 70.5t-67 37.5zM198 464q23 -29 74 -54l43 248q-65 -4 -102.5 -36.5t-37.5 -87.5q0 -41 23 -70zM264 41q69 7 112.5 48t43.5 103q0 50 -25.5 81t-80.5 55z" />
    <glyph glyph-name="percent" unicode="%" horiz-adv-x="777" 
d="M126.5 406q-37.5 38 -37.5 97q0 15 3 30l4 22q13 73 58.5 115t111.5 42q61 0 98.5 -38t37.5 -96q0 -15 -3 -30l-3 -19q-13 -75 -59 -118t-112 -43q-61 0 -98.5 38zM172 0h-62l532 700h62zM305.5 448q29.5 30 38.5 83l3 17q2 16 2 24q0 40 -23.5 65t-63.5 25
q-47 0 -76 -30t-38 -80l-4 -20q-2 -9 -2 -25q0 -41 23 -65t63 -24q48 0 77.5 30zM448.5 26q-37.5 38 -37.5 97q0 15 3 30l3 17q13 76 59 119t112 43q61 0 98.5 -38t37.5 -96q0 -15 -3 -30l-4 -20q-13 -74 -58.5 -117t-111.5 -43q-61 0 -98.5 38zM627.5 68q29.5 30 38.5 83
l3 20q2 16 2 23q0 38 -23.5 63t-63.5 25q-47 0 -76.5 -30.5t-38.5 -82.5l-3 -17q-2 -9 -2 -25q0 -41 23 -65t63 -24q48 0 77.5 30z" />
    <glyph glyph-name="ampersand" unicode="&#x26;" horiz-adv-x="554" 
d="M501 292q-37 -99 -85 -171l68 -121h-63l-41 72q-34 -41 -78.5 -62.5t-107.5 -21.5q-44 0 -82 22t-61 62.5t-23 91.5q0 80 44.5 137t125.5 91q-36 72 -36 137q0 81 47 132t127 51q62 0 99 -36.5t37 -96.5q0 -73 -50 -122.5t-146 -86.5l113 -202q30 47 65 141zM248 623
q-28 -35 -28 -91q0 -30 7.5 -58t24.5 -60q80 31 120.5 66.5t40.5 92.5q0 38 -22.5 61.5t-61.5 23.5q-53 0 -81 -35zM286.5 60.5q34.5 18.5 67.5 56.5l-131 231q-66 -28 -101 -71.5t-35 -101.5q0 -61 34 -97t85 -36q46 0 80.5 18.5z" />
    <glyph glyph-name="quotesingle" unicode="'" horiz-adv-x="196" 
d="M168 486h-56l38 214h56z" />
    <glyph glyph-name="parenleft" unicode="(" horiz-adv-x="263" 
d="M103 -140q-27 56 -45 138.5t-18 176.5q0 161 58 320t159 265h60q-104 -110 -161.5 -269.5t-57.5 -318.5q0 -179 59 -312h-54z" />
    <glyph glyph-name="parenright" unicode=")" horiz-adv-x="263" 
d="M-32 -140q104 110 161.5 269.5t57.5 318.5q0 179 -59 312h54q27 -56 45 -138.5t18 -176.5q0 -161 -58 -320t-159 -265h-60z" />
    <glyph glyph-name="asterisk" unicode="*" horiz-adv-x="392" 
d="M403 634l21 -48l-137 -64l109 -66l-30 -44l-106 74l-20 -142h-53l29 141l-129 -75l-22 48l137 64l-109 66l31 44l105 -74l20 142h53l-29 -141z" />
    <glyph glyph-name="plus" unicode="+" horiz-adv-x="433" 
d="M260 339h161l-10 -54h-161l-29 -165h-54l29 165h-161l10 54h161l29 165h54z" />
    <glyph glyph-name="comma" unicode="," horiz-adv-x="253" 
d="M28 -131l-18 15l43 64q18 26 22 44q-15 5 -24.5 17.5t-9.5 28.5q0 21 14 35t34 14q21 0 35 -14t14 -35q0 -23 -14 -46.5t-46 -62.5z" />
    <glyph glyph-name="hyphen" unicode="-" horiz-adv-x="308" 
d="M285 287h-247l8 50h247z" />
    <glyph glyph-name="period" unicode="." horiz-adv-x="253" 
d="M55.5 4.5q-14.5 14.5 -14.5 33.5q0 21 14 35t34 14q21 0 35 -14t14 -35q0 -20 -14 -34t-35 -14q-19 0 -33.5 14.5z" />
    <glyph glyph-name="slash" unicode="/" horiz-adv-x="305" 
d="M7 -140h-57l370 900h57z" />
    <glyph glyph-name="zero" unicode="0" horiz-adv-x="560" 
d="M107 49q-50 63 -50 175q0 46 9 98l10 58q29 168 100.5 251t175.5 83q87 0 137 -63t50 -175q0 -45 -9 -98l-10 -58q-29 -168 -101 -251t-175 -83q-87 0 -137 63zM382 107.5q55 69.5 79 207.5l12 67q9 51 9 94q0 88 -35 137t-98 49q-78 0 -133.5 -67.5t-80.5 -209.5
l-12 -67q-9 -51 -9 -94q0 -88 35 -137t98 -49q80 0 135 69.5z" />
    <glyph glyph-name="one" unicode="1" horiz-adv-x="560" 
d="M340 0h-56l111 635l-212 -115l11 63l214 117h56z" />
    <glyph glyph-name="two" unicode="2" horiz-adv-x="560" 
d="M46 0l10 54l262 258q74 73 102 121.5t28 102.5q0 59 -32.5 90.5t-87.5 31.5q-116 0 -149 -140l-54 13q21 91 74 136t135 45q81 0 128.5 -46.5t47.5 -120.5q0 -53 -16 -95t-47.5 -81.5t-88.5 -95.5l-222 -219h304l-10 -54h-384z" />
    <glyph glyph-name="three" unicode="3" horiz-adv-x="560" 
d="M111.5 42q-51.5 54 -55.5 147l57 12q5 -77 41 -118t99 -41q70 0 112.5 42.5t55.5 119.5l1 6q4 28 4 40q0 65 -42 97.5t-122 32.5l9 48l193 218h-306l10 54h376l-10 -54l-195 -220q67 -12 106.5 -57.5t39.5 -112.5q0 -12 -4 -40l-3 -18q-36 -210 -231 -210
q-84 0 -135.5 54z" />
    <glyph glyph-name="four" unicode="4" horiz-adv-x="560" 
d="M379 0h-57l32 179h-291l10 55l373 466h57l-83 -467h85l-9 -54h-85zM427 595l-291 -362h227z" />
    <glyph glyph-name="five" unicode="5" horiz-adv-x="560" 
d="M110.5 42q-49.5 54 -50.5 144l58 12q0 -73 35 -114.5t98 -41.5q70 0 118 44.5t62 126.5l4 23q4 20 4 44q0 62 -33.5 97.5t-97.5 35.5q-88 0 -158 -91l-46 19l90 359h359l-10 -54h-306l-63 -243q24 27 64 44t86 17q81 0 127.5 -50t46.5 -130q0 -26 -4 -47l-4 -23
q-19 -109 -81 -167.5t-163 -58.5q-86 0 -135.5 54z" />
    <glyph glyph-name="six" unicode="6" horiz-adv-x="560" 
d="M149 10q-41 22 -65.5 64.5t-24.5 99.5q0 25 4 46l1 6q10 61 36 106t74 102l222 266h69l-244 -288q40 29 96 29q50 0 89.5 -22.5t61.5 -62.5t22 -91q0 -23 -4 -42l-3 -17q-17 -98 -84.5 -158t-161.5 -60q-47 0 -88 22zM364.5 86.5q47.5 44.5 61.5 123.5l3 17q3 18 3 34
q0 60 -36 95.5t-95 35.5q-67 0 -115.5 -44.5t-60.5 -115.5l-3 -18q-3 -19 -3 -37q0 -62 36 -98.5t92 -36.5q70 0 117.5 44.5z" />
    <glyph glyph-name="seven" unicode="7" horiz-adv-x="560" 
d="M207 0h-61l356 646h-371l10 54h429l-10 -54z" />
    <glyph glyph-name="eight" unicode="8" horiz-adv-x="560" 
d="M152.5 10.5q-40.5 22.5 -63 61t-22.5 84.5q0 17 3 33l4 22q11 61 48.5 103t92.5 60q-29 19 -47.5 54t-18.5 75q0 7 2 23l2 12q13 77 65.5 123.5t130.5 46.5q71 0 114.5 -42.5t43.5 -108.5q0 -17 -3 -35q-13 -71 -41 -103.5t-76 -49.5q38 -18 61 -57t23 -89q0 -20 -2 -30
l-3 -21q-12 -83 -72.5 -133.5t-147.5 -50.5q-53 0 -93.5 22.5zM402 428.5q36 31.5 42 83.5l2 16q2 16 2 23q0 48 -27 75.5t-76 27.5q-52 0 -89 -33t-44 -88l-2 -15q-1 -6 -1 -17q0 -43 26.5 -73.5t70.5 -30.5q60 0 96 31.5zM356 79.5q42 37.5 53 106.5l3 19q2 14 2 21
q0 51 -35 84t-91 33q-59 0 -102.5 -37t-53.5 -96l-4 -22q-3 -13 -3 -27q0 -51 34 -85t86 -34q69 0 111 37.5z" />
    <glyph glyph-name="nine" unicode="9" horiz-adv-x="560" 
d="M376 288q-40 -29 -96 -29q-51 0 -90 23t-61 63.5t-22 91.5q0 14 4 42l2 12q17 102 83 161.5t164 59.5q47 0 88 -22t65.5 -64.5t24.5 -99.5q0 -25 -4 -46l-1 -6q-10 -61 -36 -106t-74 -102l-222 -266h-69zM411 353.5q48 45.5 62 121.5l2 11q3 20 3 38q0 61 -36 97.5
t-92 36.5q-70 0 -117.5 -45t-61.5 -125l-2 -11q-4 -26 -4 -38q0 -60 36.5 -95.5t94.5 -35.5q67 0 115 45.5z" />
    <glyph glyph-name="colon" unicode=":" horiz-adv-x="253" 
d="M55.5 4.5q-14.5 14.5 -14.5 33.5q0 21 14 35t34 14q21 0 35 -14t14 -35q0 -20 -14 -34t-35 -14q-19 0 -33.5 14.5zM129.5 424.5q-14.5 14.5 -14.5 33.5q0 21 14 35t34 14q21 0 35 -14t14 -35q0 -20 -14 -34t-35 -14q-19 0 -33.5 14.5z" />
    <glyph glyph-name="semicolon" unicode=";" horiz-adv-x="253" 
d="M28 -131l-18 15l43 64q18 26 22 44q-15 5 -24.5 17.5t-9.5 28.5q0 21 14 35t34 14q21 0 35 -14t14 -35q0 -23 -14 -46.5t-46 -62.5zM129.5 424.5q-14.5 14.5 -14.5 33.5q0 21 14 35t34 14q21 0 35 -14t14 -35q0 -20 -14 -34t-35 -14q-19 0 -33.5 14.5z" />
    <glyph glyph-name="less" unicode="&#x3c;" horiz-adv-x="431" 
d="M385 148l-10 -57l-344 182l12 68l408 182l-10 -64l-356 -155z" />
    <glyph glyph-name="equal" unicode="=" horiz-adv-x="433" 
d="M428 382h-376l10 54h376zM394 188h-376l10 54h376z" />
    <glyph glyph-name="greater" unicode="&#x3e;" horiz-adv-x="432" 
d="M409 273l-408 -182l10 64l356 155l-300 156l10 57l344 -182z" />
    <glyph glyph-name="question" unicode="?" horiz-adv-x="450" 
d="M197 225q10 62 37 101t85 81q52 38 72.5 70t20.5 83q0 46 -34 74t-89 28q-64 0 -102 -33t-59 -97l-47 17q21 74 74 119.5t141 45.5q52 0 91.5 -20t60.5 -54.5t21 -76.5q0 -64 -28 -106.5t-89 -87.5q-48 -36 -70.5 -68.5t-30.5 -81.5l-5 -31h-55zM157.5 4.5
q-14.5 14.5 -14.5 33.5q0 21 14 35t34 14q21 0 35 -14t14 -35q0 -20 -14 -34t-35 -14q-19 0 -33.5 14.5z" />
    <glyph glyph-name="at" unicode="@" horiz-adv-x="808" 
d="M189 -54.5q-69 42.5 -107 120t-38 178.5q0 38 6 78l3 21q16 114 75 197.5t149.5 127.5t199.5 44q95 0 165.5 -38.5t108.5 -109t38 -164.5q0 -38 -6 -79l-3 -19q-16 -102 -64.5 -158t-112.5 -56q-40 0 -64.5 25t-23.5 66q-23 -42 -63.5 -66.5t-92.5 -24.5q-43 0 -77 21
t-54 61t-20 93q0 19 3 38l3 23q8 60 38 106.5t76 72t101 25.5q47 0 79.5 -22.5t43.5 -57.5l12 68h54l-53 -298q-2 -9 -2 -25q0 -53 48 -53q39 0 71.5 46.5t42.5 120.5l2 14q5 31 5 71q0 129 -70.5 198.5t-193.5 69.5q-92 0 -168.5 -39.5t-126.5 -112t-64 -167.5l-3 -20
q-6 -42 -6 -80q0 -88 31.5 -152.5t89.5 -99t135 -34.5q64 0 113 17t101 49l23 -45q-100 -73 -246 -73q-89 0 -158 42.5zM474 183q44 43 55 112l3 19q3 20 3 37q0 58 -29 91.5t-79 33.5q-63 0 -104.5 -41.5t-52.5 -113.5l-3 -19q-3 -19 -3 -38q0 -57 28 -90.5t77 -33.5
q61 0 105 43z" />
    <glyph glyph-name="A" unicode="A" horiz-adv-x="584" 
d="M520 0h-61l-28 182h-298l-92 -182h-65l359 700h71zM362 632l-201 -395h262z" />
    <glyph glyph-name="B" unicode="B" horiz-adv-x="568" 
d="M37 0l124 700h212q77 0 121.5 -44.5t44.5 -114.5q0 -60 -32 -105t-86 -67q38 -20 62 -56t24 -88q0 -66 -28 -117t-81 -79.5t-127 -28.5h-234zM209 646l-44 -251h160q71 0 112 39.5t41 102.5q0 51 -31 80t-82 29h-156zM155 341l-50 -287h170q80 0 126.5 44t46.5 117
q0 59 -32.5 92.5t-90.5 33.5h-170z" />
    <glyph glyph-name="C" unicode="C" horiz-adv-x="626" 
d="M121 55.5q-63 69.5 -63 186.5q0 42 7 81l12 68q28 159 115 241t221 82q80 0 137 -43t84 -119l-51 -27q-55 136 -178 136q-104 0 -177 -73t-95 -208l-10 -60q-6 -36 -6 -68q0 -97 49 -155t137 -58q73 0 124 34.5t94 102.5l43 -26q-47 -81 -110.5 -122.5t-159.5 -41.5
q-110 0 -173 69.5z" />
    <glyph glyph-name="D" unicode="D" horiz-adv-x="596" 
d="M37 0l124 700h163q73 0 130 -31.5t88.5 -89t31.5 -132.5q0 -27 -7 -69l-13 -70q-27 -147 -117.5 -227.5t-232.5 -80.5h-167zM204 54q118 0 194 67.5t100 200.5l10 56q6 33 6 64q0 95 -54.5 149.5t-151.5 54.5h-99l-104 -592h99z" />
    <glyph glyph-name="E" unicode="E" horiz-adv-x="545" 
d="M444 0h-407l124 700h403l-10 -54h-345l-45 -258h293l-10 -54h-293l-49 -280h349z" />
    <glyph glyph-name="F" unicode="F" horiz-adv-x="509" 
d="M95 0h-58l124 700h381l-10 -54h-323l-49 -277h283l-9 -54h-283z" />
    <glyph glyph-name="G" unicode="G" horiz-adv-x="644" 
d="M168.5 19.5q-54.5 33.5 -83 92t-28.5 133.5q0 35 8 78l13 68q29 150 114.5 236.5t222.5 86.5q80 0 135.5 -43t83.5 -119l-51 -27q-52 136 -172 136q-114 0 -185 -75t-93 -206l-10 -61q-5 -26 -5 -62q0 -95 49 -156.5t138 -61.5q124 0 200 88l31 177h-199l9 52h256
l-45 -255q-53 -57 -115 -86t-146 -29q-73 0 -127.5 33.5z" />
    <glyph glyph-name="H" unicode="H" horiz-adv-x="639" 
d="M95 0h-58l124 700h58l-54 -304h361l54 304h58l-124 -700h-58l61 342h-361z" />
    <glyph glyph-name="I" unicode="I" horiz-adv-x="220" 
d="M95 0h-58l124 700h58z" />
    <glyph glyph-name="J" unicode="J" horiz-adv-x="488" 
d="M75.5 28q-42.5 42 -56.5 113l59 20q10 -55 38.5 -88t78.5 -33q66 0 101.5 39.5t50.5 122.5l88 498h58l-90 -508q-18 -103 -71.5 -154.5t-146.5 -51.5q-67 0 -109.5 42z" />
    <glyph glyph-name="K" unicode="K" horiz-adv-x="506" 
d="M245 348l185 -348h-65l-174 323h-39l-57 -323h-58l124 700h58l-57 -323h38l280 323h74z" />
    <glyph glyph-name="L" unicode="L" horiz-adv-x="504" 
d="M419 0h-382l124 700h58l-114 -646h324z" />
    <glyph glyph-name="M" unicode="M" horiz-adv-x="693" 
d="M95 0h-58l124 700h57l119 -489l293 489h62l-124 -700h-59l99 561l-252 -421h-54l-108 421z" />
    <glyph glyph-name="N" unicode="N" horiz-adv-x="599" 
d="M94 0h-57l124 700h63l214 -581l103 581h57l-124 -700h-50l-222 605z" />
    <glyph glyph-name="O" unicode="O" horiz-adv-x="690" 
d="M178.5 22q-57.5 36 -88.5 98t-31 137q0 33 6 66l12 68q28 158 115 240.5t221 82.5q76 0 133.5 -36.5t89 -98.5t31.5 -137q0 -32 -6 -65l-12 -68q-28 -159 -114.5 -241t-221.5 -82q-77 0 -134.5 36zM498 111.5q74 72.5 95 207.5l10 62q4 25 4 54q0 66 -25.5 117.5
t-70.5 80t-101 28.5q-108 0 -182 -72.5t-95 -207.5l-10 -62q-5 -33 -5 -58q0 -65 24.5 -115.5t69.5 -78.5t104 -28q108 0 182 72.5z" />
    <glyph glyph-name="P" unicode="P" horiz-adv-x="538" 
d="M37 0l124 700h208q76 0 122 -47t46 -118q0 -92 -60.5 -147t-164.5 -55h-158l-59 -333h-58zM315 387q77 0 120 39.5t43 103.5q0 55 -32.5 85.5t-87.5 30.5h-149l-45 -259h151z" />
    <glyph glyph-name="Q" unicode="Q" horiz-adv-x="690" 
d="M546.5 677.5q57.5 -36.5 89 -98.5t31.5 -137q0 -32 -6 -65l-12 -68q-34 -196 -159 -275l58 -106h-65l-44 80q-56 -22 -126 -22q-77 0 -134.5 36t-88.5 98t-31 137q0 33 6 66l12 68q28 158 115 240.5t221 82.5q76 0 133.5 -36.5zM603 381q4 25 4 54q0 66 -25.5 117.5
t-70.5 80t-101 28.5q-108 0 -182 -72.5t-95 -207.5l-10 -62q-5 -33 -5 -58q0 -65 24.5 -115.5t69.5 -78.5t104 -28q108 0 182 72.5t95 207.5z" />
    <glyph glyph-name="R" unicode="R" horiz-adv-x="555" 
d="M37 0l124 700h221q75 0 119.5 -42.5t44.5 -115.5t-38 -120.5t-100 -64.5q27 -10 39.5 -32t11.5 -68l-5 -257h-57l4 244q1 51 -14 70t-58 19h-175l-59 -333h-58zM324 386q78 0 120 39t42 107q0 53 -32.5 83.5t-88.5 30.5h-156l-46 -260h161z" />
    <glyph glyph-name="S" unicode="S" horiz-adv-x="539" 
d="M96 33.5q-50 47.5 -66 127.5l56 25q16 -72 53 -109t101 -37q78 0 129 42t51 110q0 58 -32.5 89.5t-106.5 59.5q-81 31 -123 77t-42 116q0 83 58.5 130.5t162.5 47.5q73 0 124.5 -37t70.5 -105l-53 -25q-15 54 -55.5 83.5t-92.5 29.5q-71 0 -113.5 -33t-42.5 -91
q0 -49 33.5 -82t109.5 -62q79 -30 121 -72.5t42 -109.5q0 -64 -29.5 -114.5t-84.5 -79t-129 -28.5q-92 0 -142 47.5z" />
    <glyph glyph-name="T" unicode="T" horiz-adv-x="515" 
d="M565 700l-10 -54h-199l-114 -646h-58l114 646h-198l10 54h455z" />
    <glyph glyph-name="U" unicode="U" horiz-adv-x="602" 
d="M120 39.5q-51 53.5 -51 142.5q0 33 5 58l81 460h58l-82 -463q-4 -23 -4 -49q0 -68 37 -108t101 -40q86 0 134 46.5t67 150.5l82 463h59l-81 -460q-22 -121 -87.5 -187.5t-176.5 -66.5q-91 0 -142 53.5z" />
    <glyph glyph-name="V" unicode="V" horiz-adv-x="574" 
d="M277 0h-68l-109 700h60l93 -631l316 631h65z" />
    <glyph glyph-name="W" unicode="W" horiz-adv-x="801" 
d="M205 0h-71l-28 700h57l22 -617l255 578h64l53 -578l237 617h61l-275 -700h-72l-49 576z" />
    <glyph glyph-name="X" unicode="X" horiz-adv-x="512" 
d="M53 0h-71l261 361l-128 339h62l108 -291l210 291h69l-255 -347l133 -353h-60l-115 302z" />
    <glyph glyph-name="Y" unicode="Y" horiz-adv-x="517" 
d="M243 0h-58l52 291l-140 409h63l115 -347l235 347h70l-285 -409z" />
    <glyph glyph-name="Z" unicode="Z" horiz-adv-x="498" 
d="M406 0h-411l10 54l436 592h-321l10 54h387l-10 -54l-435 -592h344z" />
    <glyph glyph-name="bracketleft" unicode="[" horiz-adv-x="289" 
d="M189 -140h-176l158 900h176l-9 -55h-118l-140 -790h118z" />
    <glyph glyph-name="backslash" unicode="\" horiz-adv-x="305" 
d="M219 -140h-53l-58 900h53z" />
    <glyph glyph-name="bracketright" unicode="]" horiz-adv-x="290" 
d="M141 -140h-177l9 55h118l140 790h-118l9 55h177z" />
    <glyph glyph-name="asciicircum" unicode="^" horiz-adv-x="432" 
d="M138 438h-64l191 262h62l99 -262h-55l-81 216z" />
    <glyph glyph-name="underscore" unicode="_" horiz-adv-x="438" 
d="M348 -93h-377l8 50h377z" />
    <glyph glyph-name="grave" unicode="`" horiz-adv-x="184" 
d="M224 581h-48l-74 143h72z" />
    <glyph glyph-name="a" unicode="a" 
d="M122.5 11q-39.5 23 -62 66t-22.5 101q0 23 5 55l6 34q21 121 83.5 181t156.5 60q55 0 94 -25t56 -61l13 74h54l-88 -496h-54l13 70q-31 -41 -70 -61.5t-96 -20.5q-49 0 -88.5 23zM341.5 91q50.5 51 66.5 142l6 34q4 20 4 43q0 67 -36 106.5t-92 39.5q-72 0 -120.5 -49.5
t-64.5 -142.5l-6 -35q-4 -21 -4 -44q0 -66 35 -105.5t90 -39.5q71 0 121.5 51z" />
    <glyph glyph-name="b" unicode="b" horiz-adv-x="535" 
d="M151.5 14q-40.5 26 -55.5 65l-14 -79h-54l124 700h54l-49 -275q23 36 65 59.5t98 23.5q80 0 128 -52t48 -139q0 -23 -5 -55l-6 -35q-21 -123 -83.5 -181t-157.5 -58q-52 0 -92.5 26zM429 226l6 37q4 23 4 49q0 68 -34.5 106t-94.5 38q-70 0 -119.5 -51t-63.5 -137l-7 -40
q-4 -21 -4 -45q0 -67 36 -105t95 -38q152 0 182 186z" />
    <glyph glyph-name="c" unicode="c" horiz-adv-x="500" 
d="M126.5 13.5q-41.5 25.5 -64 70.5t-22.5 101q0 27 4 48l6 35q42 240 252 240q69 0 114.5 -38t58.5 -102l-51 -16q-13 49 -45.5 76.5t-85.5 27.5q-75 0 -122.5 -49t-64.5 -143l-6 -32q-5 -27 -5 -46q0 -67 37.5 -106.5t96.5 -39.5q58 0 95 28t66 81l47 -24
q-32 -67 -84.5 -102t-129.5 -35q-55 0 -96.5 25.5z" />
    <glyph glyph-name="d" unicode="d" 
d="M122.5 11q-39.5 23 -62 66t-22.5 101q0 23 5 55l6 34q21 121 83.5 181t156.5 60q55 0 94 -25t56 -61l49 278h54l-124 -700h-54l13 70q-31 -41 -70 -61.5t-96 -20.5q-49 0 -88.5 23zM341.5 91q50.5 51 66.5 142l6 34q4 20 4 43q0 67 -36 106.5t-92 39.5
q-72 0 -120.5 -49.5t-64.5 -142.5l-6 -35q-4 -21 -4 -44q0 -66 35 -105.5t90 -39.5q71 0 121.5 51z" />
    <glyph glyph-name="e" unicode="e" horiz-adv-x="514" 
d="M391.5 485.5q39.5 -22.5 62 -65t22.5 -99.5q0 -25 -4 -48l-5 -32h-367l-1 -8q-4 -23 -4 -48q0 -67 34 -106t92 -39t98 26.5t67 76.5l47 -25q-73 -130 -216 -130q-80 0 -129 54t-49 143q0 22 5 54l5 28q19 112 84.5 176.5t168.5 64.5q50 0 89.5 -22.5zM177.5 411.5
q-48.5 -44.5 -68.5 -123.5h311q2 20 2 30q0 64 -36.5 101t-92.5 37q-67 0 -115.5 -44.5z" />
    <glyph glyph-name="f" unicode="f" horiz-adv-x="329" 
d="M251.5 643q-21.5 -19 -28.5 -60l-15 -87h143l-9 -50h-143l-79 -446h-54l79 446h-90l9 50h90l15 86q11 64 48.5 97t98.5 33q44 0 71 -12l-10 -52q-31 14 -67 14q-37 0 -58.5 -19z" />
    <glyph glyph-name="g" unicode="g" horiz-adv-x="535" 
d="M63.5 -181q-45.5 35 -62.5 94l52 23q13 -47 46.5 -74t86.5 -27q75 0 120.5 45.5t59.5 130.5l14 81q-21 -38 -64.5 -61.5t-98.5 -23.5q-51 0 -91 23t-62.5 65.5t-22.5 98.5q0 22 5 52l5 28q19 111 82 172.5t156 61.5q56 0 95 -25t54 -65l14 78h55l-86 -488
q-19 -107 -78.5 -165.5t-162.5 -58.5q-71 0 -116.5 35zM347 109.5q50 49.5 64 130.5l6 36q3 20 3 38q0 65 -37 103.5t-97 38.5q-69 0 -117 -50.5t-63 -135.5l-5 -28q-4 -21 -4 -46q0 -64 34.5 -100t95.5 -36q70 0 120 49.5z" />
    <glyph glyph-name="h" unicode="h" horiz-adv-x="509" 
d="M28 0l124 700h54l-47 -267q20 33 58.5 54t90.5 21q68 0 107 -41.5t39 -106.5q0 -12 -4 -40l-57 -320h-54l56 317q3 18 3 35q0 50 -28.5 78t-81.5 28t-96.5 -40t-53.5 -101l-56 -317h-54z" />
    <glyph glyph-name="i" unicode="i" horiz-adv-x="198" 
d="M136.5 616.5q-14.5 14.5 -14.5 33.5q0 20 14 34t34 14t34 -14t14 -34t-14 -34t-34 -14q-19 0 -33.5 14.5zM82 0h-54l88 496h54z" />
    <glyph glyph-name="j" unicode="j" horiz-adv-x="198" 
d="M136.5 616.5q-14.5 14.5 -14.5 33.5q0 20 14 34t34 14t34 -14t14 -34t-14 -34t-34 -14q-19 0 -33.5 14.5zM-111 -201l9 51q24 -12 49 -12q27 0 43 18t23 55l104 585h54l-103 -582q-12 -69 -41.5 -97.5t-81.5 -28.5q-37 0 -56 11z" />
    <glyph glyph-name="k" unicode="k" horiz-adv-x="423" 
d="M362 496h71l-238 -248l150 -248h-62l-135 224h-26l-40 -224h-54l124 700h54l-76 -428h20z" />
    <glyph glyph-name="l" unicode="l" horiz-adv-x="235" 
d="M64.5 13q-20.5 25 -20.5 63q0 17 2 25l106 599h54l-106 -600q-1 -5 -1 -15q0 -21 10.5 -34t29.5 -13q22 0 44 12l-9 -51q-24 -11 -55 -11q-34 0 -54.5 25z" />
    <glyph glyph-name="m" unicode="m" horiz-adv-x="724" 
d="M28 0l88 496h54l-9 -52q18 29 50 46.5t75 17.5q45 0 72.5 -21.5t39.5 -55.5q48 77 143 77q58 0 95 -36.5t37 -93.5q0 -14 -3 -29l-62 -349h-55l61 342q2 9 2 26q0 42 -25.5 66t-66.5 24q-46 0 -78 -32.5t-41 -84.5l-60 -341h-55l61 342q2 9 2 26q0 42 -25.5 66t-66.5 24
q-46 0 -78 -32.5t-41 -84.5l-60 -341h-54z" />
    <glyph glyph-name="n" unicode="n" horiz-adv-x="503" 
d="M28 0l88 496h54l-11 -62q22 35 56 54.5t87 19.5q67 0 106.5 -40t39.5 -105q0 -12 -4 -40l-58 -323h-54l57 322q3 17 3 31q0 48 -29 76.5t-77 28.5q-55 0 -95.5 -37.5t-51.5 -99.5l-57 -321h-54z" />
    <glyph glyph-name="o" unicode="o" 
d="M132 13q-44 25 -68.5 70t-24.5 102q0 25 4 48l7 39q20 113 85.5 174.5t162.5 61.5q58 0 102.5 -25t69 -70t24.5 -104q0 -25 -4 -46l-6 -37q-19 -113 -85 -175.5t-165 -62.5q-58 0 -102 25zM362 91.5q52 51.5 66 137.5l6 37q3 21 3 40q0 69 -39 109.5t-99 40.5
q-76 0 -126.5 -51t-66.5 -138l-7 -37q-4 -20 -4 -43q0 -66 39.5 -106.5t98.5 -40.5q77 0 129 51.5z" />
    <glyph glyph-name="p" unicode="p" horiz-adv-x="535" 
d="M-7 -202l123 698h54l-12 -72q21 36 65 60t99 24q51 0 90.5 -25.5t61 -70.5t21.5 -101q0 -26 -4 -47l-6 -37q-20 -122 -81.5 -180.5t-157.5 -58.5q-56 0 -93 23.5t-57 59.5l-49 -273h-54zM365.5 88.5q47.5 48.5 65.5 149.5l5 29q4 20 4 44q0 67 -36 106t-95 39
q-67 0 -116 -50t-66 -140l-6 -34q-5 -30 -5 -51q0 -66 35 -103.5t96 -37.5q71 0 118.5 48.5z" />
    <glyph glyph-name="q" unicode="q" horiz-adv-x="535" 
d="M377 69q-52 -81 -162 -81q-51 0 -91 23.5t-62.5 67t-22.5 101.5q0 23 5 53l6 36q20 122 84 180.5t160 58.5q53 0 92 -26t53 -62l14 76h54l-124 -700h-54zM305.5 63q38.5 23 66 66t37.5 101l6 34q5 30 5 50q0 67 -35 104.5t-96 37.5q-74 0 -120.5 -49.5t-62.5 -140.5
l-6 -34q-5 -28 -5 -49q0 -67 35 -105t94 -38q43 0 81.5 23z" />
    <glyph glyph-name="r" unicode="r" horiz-adv-x="338" 
d="M28 0l88 496h54l-10 -58q16 33 50.5 51.5t79.5 18.5q28 0 55 -9l-9 -53q-27 12 -63 12q-48 0 -86 -37.5t-48 -97.5l-57 -323h-54z" />
    <glyph glyph-name="s" unicode="s" horiz-adv-x="437" 
d="M79 20.5q-39 34.5 -52 89.5l51 22q14 -47 40 -71.5t71 -24.5q56 0 89.5 27.5t33.5 76.5q0 35 -24 55t-75 35q-60 18 -92 54.5t-32 84.5q0 63 43.5 100t119.5 37q57 0 96 -28t54 -79l-49 -19q-11 39 -41 58.5t-67 19.5q-44 0 -73.5 -22.5t-29.5 -61.5q0 -36 23 -58.5
t74 -39.5q64 -21 96 -51.5t32 -80.5q0 -70 -50.5 -114t-132.5 -44q-66 0 -105 34.5z" />
    <glyph glyph-name="t" unicode="t" horiz-adv-x="343" 
d="M209 446l-59 -335q-2 -12 -2 -16q0 -26 15.5 -41.5t41.5 -15.5q36 0 72 18l-10 -54q-35 -14 -80 -14q-41 0 -67.5 28t-26.5 74q0 14 3 29l58 327h-94l9 50h94l16 91l60 30l-21 -121h136l-9 -50h-136z" />
    <glyph glyph-name="u" unicode="u" horiz-adv-x="503" 
d="M94.5 28q-39.5 40 -39.5 105q0 12 4 40l58 323h54l-57 -322q-3 -16 -3 -31q0 -48 29 -76.5t77 -28.5q55 0 95.5 37.5t51.5 99.5l57 321h54l-88 -496h-54l11 62q-22 -35 -56 -54.5t-87 -19.5q-67 0 -106.5 40z" />
    <glyph glyph-name="v" unicode="v" horiz-adv-x="434" 
d="M204 0h-60l-88 496h57l70 -428l221 428h62z" />
    <glyph glyph-name="w" unicode="w" horiz-adv-x="637" 
d="M158 0h-61l-36 496h56l23 -417l191 417h59l45 -417l171 417h58l-210 -496h-60l-43 426z" />
    <glyph glyph-name="x" unicode="x" horiz-adv-x="417" 
d="M42 0h-62l199 265l-98 231h60l74 -191l143 191h64l-182 -238l109 -258h-58l-89 216z" />
    <glyph glyph-name="y" unicode="y" horiz-adv-x="455" 
d="M419 496h60l-321 -590q-37 -68 -73 -93t-92 -25q-31 0 -57 11l9 55q32 -16 59 -16q35 0 58.5 20.5t49.5 68.5l47 86l-97 483h58l77 -411z" />
    <glyph glyph-name="z" unicode="z" horiz-adv-x="414" 
d="M329 0h-343l9 50l336 396h-256l9 50h319l-9 -50l-335 -396h279z" />
    <glyph glyph-name="braceleft" unicode="{" horiz-adv-x="311" 
d="M148 -140q-41 0 -64 22.5t-23 62.5q0 14 3 29l45 259q1 5 1 13q0 37 -42 37h-41l10 54h41q24 0 39 13t20 37l47 269q9 52 38.5 78t81.5 26h65l-9 -55h-60q-26 0 -39.5 -12t-18.5 -37l-46 -260q-7 -41 -23 -60t-44 -26q40 -11 40 -59q0 -12 -3 -27l-46 -260q-1 -5 -1 -13
q0 -36 41 -36h60l-9 -55h-63z" />
    <glyph glyph-name="bar" unicode="|" horiz-adv-x="220" 
d="M59 -204h-58l160 904h58z" />
    <glyph glyph-name="braceright" unicode="}" horiz-adv-x="311" 
d="M-36 -140l9 55h60q26 0 39.5 12t18.5 37l46 260q7 41 23 60t44 26q-40 11 -40 59q0 12 3 27l46 260q1 5 1 13q0 36 -41 36h-60l9 55h63q41 0 64 -22.5t23 -62.5q0 -14 -3 -29l-45 -259q-1 -5 -1 -13q0 -37 42 -37h41l-10 -54h-41q-24 0 -39 -13t-20 -37l-47 -269
q-9 -52 -38.5 -78t-81.5 -26h-65z" />
    <glyph glyph-name="asciitilde" unicode="~" horiz-adv-x="433" 
d="M33 264q15 49 42 73.5t70 24.5q23 0 42 -7.5t47 -23.5q25 -13 40 -19.5t32 -6.5q27 0 43.5 14.5t27.5 44.5l44 -14q-15 -49 -42.5 -73.5t-72.5 -24.5q-22 0 -41 7.5t-49 23.5q-25 13 -40 19.5t-32 6.5q-25 0 -41.5 -14.5t-25.5 -44.5z" />
    <glyph glyph-name="uni00A0" unicode="&#xa0;" horiz-adv-x="210" 
 />
    <glyph glyph-name="exclamdown" unicode="&#xa1;" horiz-adv-x="241" 
d="M123 423q-14 14 -14 35q0 20 14 34t34 14t34.5 -14t14.5 -34q0 -21 -14.5 -35t-34.5 -14t-34 14zM68 -204h-55l91 512h55z" />
    <glyph glyph-name="cent" unicode="&#xa2;" horiz-adv-x="499" 
d="M341 170q37 28 66 81l47 -24q-30 -62 -77 -96.5t-115 -39.5l-16 -91h-56l17 93q-69 11 -110 64t-41 128q0 22 5 50l6 33q42 229 231 241l16 91h56l-16 -93q55 -9 91 -45.5t47 -91.5l-51 -16q-13 49 -45.5 76.5t-85.5 27.5q-75 0 -122.5 -49t-64.5 -143l-6 -32
q-5 -27 -5 -46q0 -67 37.5 -106.5t96.5 -39.5q58 0 95 28z" />
    <glyph glyph-name="sterling" unicode="&#xa3;" horiz-adv-x="470" 
d="M187.5 609q-37.5 -49 -37.5 -130q0 -34 10 -106l6 -43h194l-8 -48h-181q1 -10 1 -29q0 -67 -25.5 -112.5t-74.5 -86.5h331l-10 -54h-401l9 49q60 52 88 97t28 104q0 22 -1 32h-75l8 48h62q-4 30 -7 45q-1 9 -6 42.5t-5 66.5q0 106 55 167t151 61q78 0 126.5 -43.5
t59.5 -121.5l-53 -18q-9 63 -44 96t-90 33q-73 0 -110.5 -49z" />
    <glyph glyph-name="currency" unicode="&#xa4;" horiz-adv-x="589" 
d="M491 345q0 -66 -29 -113l75 -75l-41 -41l-72 72q-47 -38 -112 -38q-63 0 -111 38l-72 -72l-41 41l75 75q-29 47 -29 113v10q0 66 29 113l-75 75l41 41l72 -72q48 38 111 38q65 0 112 -38l72 72l41 -41l-75 -75q29 -47 29 -113v-10zM401 241.5q33 39.5 33 102.5v12
q0 63 -33 102.5t-89 39.5q-55 0 -88.5 -40t-33.5 -102v-12q0 -62 33.5 -102t88.5 -40q56 0 89 39.5z" />
    <glyph glyph-name="yen" unicode="&#xa5;" horiz-adv-x="504" 
d="M504 700h69l-247 -344h119l-9 -49h-145l-15 -86h145l-8 -49h-146l-30 -172h-58l30 172h-144l8 49h145l15 86h-145l9 49h118l-125 344h64l117 -334z" />
    <glyph glyph-name="brokenbar" unicode="&#xa6;" horiz-adv-x="220" 
d="M155 339h-58l64 361h58zM59 -204h-58l64 361h58z" />
    <glyph glyph-name="section" unicode="&#xa7;" horiz-adv-x="520" 
d="M423 341q45 -42 45 -102q0 -51 -23.5 -86.5t-68.5 -61.5q45 -37 45 -100q0 -62 -29 -109.5t-80.5 -73.5t-118.5 -26q-77 0 -130 38t-74 102l56 30q17 -55 56.5 -85.5t91.5 -30.5q49 0 87.5 18.5t59.5 50.5t21 70q0 92 -142 121q-77 16 -123.5 58t-46.5 105q0 49 26.5 86
t71.5 61q-51 46 -51 113q0 57 29.5 101t81 68t113.5 24q150 0 200 -130l-54 -29q-20 52 -58.5 78.5t-87.5 26.5q-47 0 -85 -16.5t-59.5 -46t-21.5 -65.5q0 -52 36 -84.5t109 -46.5q79 -16 124 -58zM390 167.5q19 27.5 19 64.5q0 46 -34 74.5t-113 44.5q-45 10 -73 26
q-81 -43 -81 -108q0 -47 34.5 -78t110.5 -47q43 -9 79 -25q39 21 58 48.5z" />
    <glyph glyph-name="dieresis" unicode="&#xa8;" horiz-adv-x="332" 
d="M101.5 616.5q-14.5 14.5 -14.5 33.5q0 20 14.5 34t34.5 14t34 -14t14 -34t-14 -34t-34 -14t-34.5 14.5zM304 616.5q-14 14.5 -14 33.5q0 20 14 34t34 14t34.5 -14t14.5 -34t-14.5 -34t-34.5 -14t-34 14.5z" />
    <glyph glyph-name="copyright" unicode="&#xa9;" horiz-adv-x="765" 
d="M230 32.5q-75 46.5 -116.5 127t-41.5 179.5v22q0 99 41.5 179.5t116.5 127t170 46.5t170 -46.5t117 -127t42 -179.5v-22q0 -99 -42 -179.5t-117 -127t-170 -46.5t-170 46.5zM542 74.5q63 39.5 98.5 109t35.5 154.5v24q0 85 -35.5 154.5t-98.5 109t-142 39.5t-142 -39.5
t-98.5 -109t-35.5 -154.5v-24q0 -85 35.5 -154.5t98.5 -109t142 -39.5t142 39.5zM308.5 167.5q-40.5 25.5 -63.5 70.5t-23 103v18q0 57 22.5 102.5t63 71t92.5 25.5q54 0 94 -29t56 -81l-43 -18q-12 37 -40 58.5t-67 21.5q-59 0 -93 -41.5t-34 -109.5v-18q0 -68 34 -109.5
t93 -41.5q42 0 69 22t40 59l46 -18q-21 -52 -61 -81.5t-94 -29.5q-51 0 -91.5 25.5z" />
    <glyph glyph-name="ordfeminine" unicode="&#xaa;" horiz-adv-x="351" 
d="M107.5 409q-31.5 35 -31.5 92q0 17 3 36l3 19q13 74 54 112.5t103 38.5q33 0 57 -15t35 -36l8 43h48l-56 -317h-48l7 41q-19 -25 -42.5 -37t-58.5 -12q-50 0 -81.5 35zM272.5 449.5q29.5 29.5 39.5 83.5l3 17q2 9 2 25q0 38 -21.5 62t-55.5 24q-41 0 -69.5 -28t-38.5 -80
l-3 -19q-2 -9 -2 -27q0 -40 20.5 -63.5t54.5 -23.5q41 0 70.5 29.5z" />
    <glyph glyph-name="guillemotleft" unicode="&#xab;" horiz-adv-x="379" 
d="M322 124h-53l-73 172l127 172h59l-130 -175zM172 124h-53l-73 172l127 172h59l-130 -175z" />
    <glyph glyph-name="logicalnot" unicode="&#xac;" horiz-adv-x="433" 
d="M382 120h-54l29 165h-322l9 54h376z" />
    <glyph glyph-name="uni00AD" unicode="&#xad;" horiz-adv-x="308" 
d="M285 287h-247l8 50h247z" />
    <glyph glyph-name="registered" unicode="&#xae;" horiz-adv-x="397" 
d="M145 447.5q-42 43.5 -42 109.5v6q0 66 42 109.5t108 43.5q43 0 77.5 -20t54 -55t19.5 -78v-6q0 -43 -19.5 -78t-54 -55t-77.5 -20q-66 0 -108 43.5zM339 466q34 36 34 90v8q0 54 -34 90t-86 36t-86 -36t-34 -90v-8q0 -54 34 -90t86 -36t86 36zM201 466v188h61
q25 0 39 -13.5t14 -37.5q0 -16 -8.5 -27t-20.5 -16q15 -3 18 -25l11 -69h-26l-9 66q-3 19 -21 19h-32v-85h-26zM261 572q13 0 21 7.5t8 22.5q0 14 -8 22t-21 8h-34v-60h34z" />
    <glyph glyph-name="macron" unicode="&#xaf;" horiz-adv-x="264" 
d="M309 626h-220l8 50h220z" />
    <glyph glyph-name="degree" unicode="&#xb0;" horiz-adv-x="330" 
d="M135.5 490q-28.5 30 -28.5 72q0 60 37.5 99t96.5 39q43 0 71 -30t28 -72q0 -60 -37 -99t-96 -39q-43 0 -71.5 30zM269.5 530q22.5 24 22.5 63q0 26 -16 43.5t-41 17.5q-34 0 -56.5 -24t-22.5 -63q0 -26 16 -43.5t41 -17.5q34 0 56.5 24z" />
    <glyph glyph-name="plusminus" unicode="&#xb1;" horiz-adv-x="432" 
d="M287 496l-24 -139h161l-10 -54h-161l-24 -139h-54l24 139h-161l10 54h161l24 139h54zM360 0h-376l10 54h376z" />
    <glyph glyph-name="uni00B2" unicode="&#xb2;" horiz-adv-x="269" 
d="M48 350l8 45l134 117q33 29 47.5 50.5t14.5 47.5q0 23 -14 37.5t-38 14.5q-28 0 -45 -15t-27 -46l-44 10q11 45 41.5 70t81.5 25q45 0 72 -25t27 -67q0 -41 -19 -68.5t-59 -62.5l-101 -88h146l-8 -45h-217z" />
    <glyph glyph-name="uni00B3" unicode="&#xb3;" horiz-adv-x="279" 
d="M84 371.5q-29 27.5 -30 74.5l48 9q4 -31 19.5 -48t41.5 -17q36 0 57.5 21.5t21.5 57.5q0 29 -21 45t-59 16l7 39l85 88h-151l7 43h211l-7 -43l-91 -91q31 -7 51 -31t20 -60q0 -58 -37 -94.5t-97 -36.5q-47 0 -76 27.5z" />
    <glyph glyph-name="acute" unicode="&#xb4;" horiz-adv-x="184" 
d="M128 581h-52l96 143h78z" />
    <glyph glyph-name="uni00B5" unicode="&#xb5;" horiz-adv-x="502" 
d="M-8 -204l124 700h54l-57 -322q-3 -16 -3 -31q0 -48 29 -76.5t77 -28.5q55 0 95.5 37.5t51.5 99.5l57 321h54l-88 -496h-54l11 62q-22 -35 -56 -54.5t-88 -19.5q-37 0 -65.5 13t-44.5 39l-43 -244h-54z" />
    <glyph glyph-name="paragraph" unicode="&#xb6;" horiz-adv-x="628" 
d="M203 -204l96 544h-38q-75 0 -120.5 40t-45.5 110q0 94 61 152t169 58h353l-10 -54h-78l-150 -850h-59l150 850h-120l-150 -850h-58z" />
    <glyph glyph-name="periodcentered" unicode="&#xb7;" horiz-adv-x="253" 
d="M110.5 316.5q-14.5 14.5 -14.5 33.5q0 21 14 35t34 14q21 0 35 -14t14 -35q0 -20 -14 -34t-35 -14q-19 0 -33.5 14.5z" />
    <glyph glyph-name="cedilla" unicode="&#xb8;" horiz-adv-x="187" 
d="M96 -64q21 -21 21 -55q0 -44 -28 -70.5t-76 -26.5t-80 18l20 42q10 -7 26.5 -11.5t33.5 -4.5q25 0 39 13.5t14 37.5q0 17 -11 28t-27 11q-25 0 -44 -17l-32 21l36 90h43l-31 -66q19 11 42 11q33 0 54 -21z" />
    <glyph glyph-name="uni00B9" unicode="&#xb9;" horiz-adv-x="185" 
d="M165 350h-51l51 292l-92 -55l10 58l93 55h51z" />
    <glyph glyph-name="ordmasculine" unicode="&#xba;" horiz-adv-x="353" 
d="M110.5 409q-35.5 35 -35.5 91q0 16 3 32l3 17q14 77 59.5 117.5t112.5 40.5q58 0 93 -35t35 -91q0 -15 -3 -32l-3 -17q-14 -79 -58.5 -118.5t-111.5 -39.5q-59 0 -94.5 35zM285 448q30 28 39 81l4 23q2 9 2 25q0 39 -21.5 61.5t-59.5 22.5q-49 0 -78.5 -28.5t-39.5 -81.5
l-4 -22q-2 -16 -2 -24q0 -38 22 -61.5t62 -23.5q46 0 76 28z" />
    <glyph glyph-name="guillemotright" unicode="&#xbb;" horiz-adv-x="380" 
d="M223 124h-59l130 175l-70 169h53l73 -172zM73 124h-59l130 175l-70 169h53l73 -172z" />
    <glyph glyph-name="onequarter" unicode="&#xbc;" horiz-adv-x="668" 
d="M165 350h-51l51 292l-92 -55l10 58l93 55h51zM118 0h-63l531 700h63zM562 0h-49l14 80h-151l8 46l191 224h49l-40 -224h50l-8 -46h-50zM560 270l-122 -144h97z" />
    <glyph glyph-name="onehalf" unicode="&#xbd;" horiz-adv-x="725" 
d="M165 350h-51l51 292l-92 -55l10 58l93 55h51zM118 0h-63l531 700h63zM442 0l8 45l134 117q33 29 47.5 50.5t14.5 47.5q0 23 -14 37.5t-38 14.5q-28 0 -45 -15t-27 -46l-44 10q11 45 41.5 70t81.5 25q45 0 72 -25t27 -67q0 -41 -19 -68.5t-59 -62.5l-101 -88h146l-8 -45
h-217z" />
    <glyph glyph-name="threequarters" unicode="&#xbe;" horiz-adv-x="720" 
d="M84 371.5q-29 27.5 -30 74.5l48 9q4 -31 19.5 -48t41.5 -17q36 0 57.5 21.5t21.5 57.5q0 29 -21 45t-59 16l7 39l85 88h-151l7 43h211l-7 -43l-91 -91q31 -7 51 -31t20 -60q0 -58 -37 -94.5t-97 -36.5q-47 0 -76 27.5zM170 0h-63l531 700h63zM614 0h-49l14 80h-151l8 46
l191 224h49l-40 -224h50l-8 -46h-50zM612 270l-122 -144h97z" />
    <glyph glyph-name="questiondown" unicode="&#xbf;" horiz-adv-x="451" 
d="M225 425q-14 14 -14 35q0 20 14 34t35 14q20 0 34 -14t14 -34q0 -21 -14 -35t-34 -14q-21 0 -35 14zM63.5 -196q-39.5 20 -60.5 54.5t-21 76.5q0 64 28 106.5t89 87.5q48 36 70.5 68.5t30.5 81.5l5 31h55l-6 -37q-10 -62 -37 -101t-85 -81q-52 -38 -72.5 -70t-20.5 -83
q0 -46 34 -74t89 -28q64 0 102 33t59 97l47 -17q-21 -74 -74 -119.5t-141 -45.5q-52 0 -91.5 20z" />
    <glyph glyph-name="Agrave" unicode="&#xc0;" horiz-adv-x="584" 
d="M520 0h-61l-28 182h-298l-92 -182h-65l359 700h71zM362 632l-201 -395h262zM412 785h-48l-74 143h72z" />
    <glyph glyph-name="Aacute" unicode="&#xc1;" horiz-adv-x="584" 
d="M520 0h-61l-28 182h-298l-92 -182h-65l359 700h71zM362 632l-201 -395h262zM414 785h-52l96 143h78z" />
    <glyph glyph-name="Acircumflex" unicode="&#xc2;" horiz-adv-x="584" 
d="M520 0h-61l-28 182h-298l-92 -182h-65l359 700h71zM362 632l-201 -395h262zM321 785h-55l116 143h61l65 -143h-49l-55 85z" />
    <glyph glyph-name="Atilde" unicode="&#xc3;" horiz-adv-x="584" 
d="M520 0h-61l-28 182h-298l-92 -182h-65l359 700h71zM362 632l-201 -395h262zM260 834q21 68 88 68q17 0 31.5 -6t30.5 -16q16 -9 25.5 -13.5t20.5 -4.5q17 0 28.5 10t20.5 30l36 -16q-23 -68 -89 -68q-18 0 -31 5.5t-32 16.5q-16 9 -25.5 13.5t-20.5 4.5q-31 0 -47 -39z
" />
    <glyph glyph-name="Adieresis" unicode="&#xc4;" horiz-adv-x="584" 
d="M520 0h-61l-28 182h-298l-92 -182h-65l359 700h71zM362 632l-201 -395h262zM263.5 820.5q-14.5 14.5 -14.5 33.5q0 20 14.5 34t34.5 14t34 -14t14 -34t-14 -34t-34 -14t-34.5 14.5zM466 820.5q-14 14.5 -14 33.5q0 20 14 34t34 14t34.5 -14t14.5 -34t-14.5 -34t-34.5 -14
t-34 14.5z" />
    <glyph glyph-name="Aring" unicode="&#xc5;" horiz-adv-x="584" 
d="M520 0h-61l-28 182h-298l-92 -182h-65l359 700h71zM362 632l-201 -395h262zM330 790.5q-23 23.5 -23 62.5q0 48 30 80t75 32q37 0 59.5 -24t22.5 -62q0 -47 -29.5 -79.5t-74.5 -32.5q-37 0 -60 23.5zM432.5 829q14.5 18 14.5 45q0 21 -10.5 34t-29.5 13q-23 0 -37.5 -18
t-14.5 -45q0 -21 10.5 -34t29.5 -13q23 0 37.5 18z" />
    <glyph glyph-name="AE" unicode="&#xc6;" horiz-adv-x="865" 
d="M883 700l-10 -54h-344l-45 -258h292l-10 -54h-292l-49 -280h349l-10 -54h-408l33 188h-223l-120 -188h-70l452 700h455zM201 243h198l71 403h-12z" />
    <glyph glyph-name="Ccedilla" unicode="&#xc7;" horiz-adv-x="626" 
d="M123 320q-6 -36 -6 -68q0 -97 49 -155t137 -58q73 0 124 34.5t94 102.5l43 -26q-47 -81 -110.5 -122.5t-159.5 -41.5q-14 0 -21 1l-19 -41q19 11 42 11q33 0 54 -21t21 -55q0 -44 -28 -70.5t-76 -26.5t-80 18l20 42q10 -7 26.5 -11.5t33.5 -4.5q25 0 39 13.5t14 37.5
q0 17 -11 28t-27 11q-25 0 -44 -17l-32 21l28 70q-83 18 -129.5 84.5t-46.5 165.5q0 42 7 81l12 68q28 159 115 241t221 82q80 0 137 -43t84 -119l-51 -27q-55 136 -178 136q-104 0 -177 -73t-95 -208z" />
    <glyph glyph-name="Egrave" unicode="&#xc8;" horiz-adv-x="545" 
d="M444 0h-407l124 700h403l-10 -54h-345l-45 -258h293l-10 -54h-293l-49 -280h349zM405 785h-48l-74 143h72z" />
    <glyph glyph-name="Eacute" unicode="&#xc9;" horiz-adv-x="545" 
d="M444 0h-407l124 700h403l-10 -54h-345l-45 -258h293l-10 -54h-293l-49 -280h349zM407 785h-52l96 143h78z" />
    <glyph glyph-name="Ecircumflex" unicode="&#xca;" horiz-adv-x="545" 
d="M444 0h-407l124 700h403l-10 -54h-345l-45 -258h293l-10 -54h-293l-49 -280h349zM314 785h-55l116 143h61l65 -143h-49l-55 85z" />
    <glyph glyph-name="Edieresis" unicode="&#xcb;" horiz-adv-x="545" 
d="M444 0h-407l124 700h403l-10 -54h-345l-45 -258h293l-10 -54h-293l-49 -280h349zM256.5 820.5q-14.5 14.5 -14.5 33.5q0 20 14.5 34t34.5 14t34 -14t14 -34t-14 -34t-34 -14t-34.5 14.5zM459 820.5q-14 14.5 -14 33.5q0 20 14 34t34 14t34.5 -14t14.5 -34t-14.5 -34
t-34.5 -14t-34 14.5z" />
    <glyph glyph-name="Igrave" unicode="&#xcc;" horiz-adv-x="220" 
d="M95 0h-58l124 700h58zM230 785h-48l-74 143h72z" />
    <glyph glyph-name="Iacute" unicode="&#xcd;" horiz-adv-x="220" 
d="M95 0h-58l124 700h58zM232 785h-52l96 143h78z" />
    <glyph glyph-name="Icircumflex" unicode="&#xce;" horiz-adv-x="220" 
d="M95 0h-58l124 700h58zM139 785h-55l116 143h61l65 -143h-49l-55 85z" />
    <glyph glyph-name="Idieresis" unicode="&#xcf;" horiz-adv-x="220" 
d="M95 0h-58l124 700h58zM81.5 820.5q-14.5 14.5 -14.5 33.5q0 20 14.5 34t34.5 14t34 -14t14 -34t-14 -34t-34 -14t-34.5 14.5zM284 820.5q-14 14.5 -14 33.5q0 20 14 34t34 14t34.5 -14t14.5 -34t-14.5 -34t-34.5 -14t-34 14.5z" />
    <glyph glyph-name="Eth" unicode="&#xd0;" horiz-adv-x="566" 
d="M324 700q73 0 130 -31.5t88.5 -89t31.5 -132.5q0 -27 -7 -69l-13 -70q-27 -147 -117.5 -227.5t-232.5 -80.5h-167l57 323h-91l10 54h91l57 323h163zM508 378q6 33 6 64q0 95 -54.5 149.5t-151.5 54.5h-99l-47 -269h148l-10 -54h-148l-47 -269h99q118 0 194 67.5
t100 200.5z" />
    <glyph glyph-name="Ntilde" unicode="&#xd1;" horiz-adv-x="599" 
d="M94 0h-57l124 700h63l214 -581l103 581h57l-124 -700h-50l-222 605zM268 834q21 68 88 68q17 0 31.5 -6t30.5 -16q16 -9 25.5 -13.5t20.5 -4.5q17 0 28.5 10t20.5 30l36 -16q-23 -68 -89 -68q-18 0 -31 5.5t-32 16.5q-16 9 -25.5 13.5t-20.5 4.5q-31 0 -47 -39z" />
    <glyph glyph-name="Ograve" unicode="&#xd2;" horiz-adv-x="690" 
d="M178.5 22q-57.5 36 -88.5 98t-31 137q0 33 6 66l12 68q28 158 115 240.5t221 82.5q76 0 133.5 -36.5t89 -98.5t31.5 -137q0 -32 -6 -65l-12 -68q-28 -159 -114.5 -241t-221.5 -82q-77 0 -134.5 36zM498 111.5q74 72.5 95 207.5l10 62q4 25 4 54q0 66 -25.5 117.5
t-70.5 80t-101 28.5q-108 0 -182 -72.5t-95 -207.5l-10 -62q-5 -33 -5 -58q0 -65 24.5 -115.5t69.5 -78.5t104 -28q108 0 182 72.5zM465 785h-48l-74 143h72z" />
    <glyph glyph-name="Oacute" unicode="&#xd3;" horiz-adv-x="690" 
d="M178.5 22q-57.5 36 -88.5 98t-31 137q0 33 6 66l12 68q28 158 115 240.5t221 82.5q76 0 133.5 -36.5t89 -98.5t31.5 -137q0 -32 -6 -65l-12 -68q-28 -159 -114.5 -241t-221.5 -82q-77 0 -134.5 36zM498 111.5q74 72.5 95 207.5l10 62q4 25 4 54q0 66 -25.5 117.5
t-70.5 80t-101 28.5q-108 0 -182 -72.5t-95 -207.5l-10 -62q-5 -33 -5 -58q0 -65 24.5 -115.5t69.5 -78.5t104 -28q108 0 182 72.5zM467 785h-52l96 143h78z" />
    <glyph glyph-name="Ocircumflex" unicode="&#xd4;" horiz-adv-x="690" 
d="M178.5 22q-57.5 36 -88.5 98t-31 137q0 33 6 66l12 68q28 158 115 240.5t221 82.5q76 0 133.5 -36.5t89 -98.5t31.5 -137q0 -32 -6 -65l-12 -68q-28 -159 -114.5 -241t-221.5 -82q-77 0 -134.5 36zM498 111.5q74 72.5 95 207.5l10 62q4 25 4 54q0 66 -25.5 117.5
t-70.5 80t-101 28.5q-108 0 -182 -72.5t-95 -207.5l-10 -62q-5 -33 -5 -58q0 -65 24.5 -115.5t69.5 -78.5t104 -28q108 0 182 72.5zM374 785h-55l116 143h61l65 -143h-49l-55 85z" />
    <glyph glyph-name="Otilde" unicode="&#xd5;" horiz-adv-x="690" 
d="M178.5 22q-57.5 36 -88.5 98t-31 137q0 33 6 66l12 68q28 158 115 240.5t221 82.5q76 0 133.5 -36.5t89 -98.5t31.5 -137q0 -32 -6 -65l-12 -68q-28 -159 -114.5 -241t-221.5 -82q-77 0 -134.5 36zM498 111.5q74 72.5 95 207.5l10 62q4 25 4 54q0 66 -25.5 117.5
t-70.5 80t-101 28.5q-108 0 -182 -72.5t-95 -207.5l-10 -62q-5 -33 -5 -58q0 -65 24.5 -115.5t69.5 -78.5t104 -28q108 0 182 72.5zM313 834q21 68 88 68q17 0 31.5 -6t30.5 -16q16 -9 25.5 -13.5t20.5 -4.5q17 0 28.5 10t20.5 30l36 -16q-23 -68 -89 -68q-18 0 -31 5.5
t-32 16.5q-16 9 -25.5 13.5t-20.5 4.5q-31 0 -47 -39z" />
    <glyph glyph-name="Odieresis" unicode="&#xd6;" horiz-adv-x="690" 
d="M178.5 22q-57.5 36 -88.5 98t-31 137q0 33 6 66l12 68q28 158 115 240.5t221 82.5q76 0 133.5 -36.5t89 -98.5t31.5 -137q0 -32 -6 -65l-12 -68q-28 -159 -114.5 -241t-221.5 -82q-77 0 -134.5 36zM498 111.5q74 72.5 95 207.5l10 62q4 25 4 54q0 66 -25.5 117.5
t-70.5 80t-101 28.5q-108 0 -182 -72.5t-95 -207.5l-10 -62q-5 -33 -5 -58q0 -65 24.5 -115.5t69.5 -78.5t104 -28q108 0 182 72.5zM316.5 820.5q-14.5 14.5 -14.5 33.5q0 20 14.5 34t34.5 14t34 -14t14 -34t-14 -34t-34 -14t-34.5 14.5zM519 820.5q-14 14.5 -14 33.5
q0 20 14 34t34 14t34.5 -14t14.5 -34t-14.5 -34t-34.5 -14t-34 14.5z" />
    <glyph glyph-name="multiply" unicode="&#xd7;" horiz-adv-x="432" 
d="M407 501l33 -40l-175 -149l123 -149l-42 -36l-123 149l-178 -151l-33 40l178 151l-121 147l42 36l121 -147z" />
    <glyph glyph-name="Oslash" unicode="&#xd8;" horiz-adv-x="690" 
d="M582 651q41 -37 63 -91t22 -118q0 -32 -6 -65l-12 -68q-28 -159 -114.5 -241t-221.5 -82q-72 0 -127 32l-61 -98h-61l80 128q-41 37 -63 91.5t-22 117.5q0 32 6 66l12 68q28 158 115 240.5t221 82.5q69 0 127 -32l61 98h61zM123 319q-5 -33 -5 -58q0 -50 15 -91.5
t42 -71.5l334 535q-44 28 -99 28q-108 0 -182 -72.5t-95 -207.5zM603 381q5 32 5 55q0 49 -15 91t-43 73l-334 -535q43 -26 100 -26q108 0 182 72.5t95 207.5z" />
    <glyph glyph-name="Ugrave" unicode="&#xd9;" horiz-adv-x="602" 
d="M120 39.5q-51 53.5 -51 142.5q0 33 5 58l81 460h58l-82 -463q-4 -23 -4 -49q0 -68 37 -108t101 -40q86 0 134 46.5t67 150.5l82 463h59l-81 -460q-22 -121 -87.5 -187.5t-176.5 -66.5q-91 0 -142 53.5zM421 785h-48l-74 143h72z" />
    <glyph glyph-name="Uacute" unicode="&#xda;" horiz-adv-x="602" 
d="M120 39.5q-51 53.5 -51 142.5q0 33 5 58l81 460h58l-82 -463q-4 -23 -4 -49q0 -68 37 -108t101 -40q86 0 134 46.5t67 150.5l82 463h59l-81 -460q-22 -121 -87.5 -187.5t-176.5 -66.5q-91 0 -142 53.5zM423 785h-52l96 143h78z" />
    <glyph glyph-name="Ucircumflex" unicode="&#xdb;" horiz-adv-x="602" 
d="M120 39.5q-51 53.5 -51 142.5q0 33 5 58l81 460h58l-82 -463q-4 -23 -4 -49q0 -68 37 -108t101 -40q86 0 134 46.5t67 150.5l82 463h59l-81 -460q-22 -121 -87.5 -187.5t-176.5 -66.5q-91 0 -142 53.5zM330 785h-55l116 143h61l65 -143h-49l-55 85z" />
    <glyph glyph-name="Udieresis" unicode="&#xdc;" horiz-adv-x="602" 
d="M120 39.5q-51 53.5 -51 142.5q0 33 5 58l81 460h58l-82 -463q-4 -23 -4 -49q0 -68 37 -108t101 -40q86 0 134 46.5t67 150.5l82 463h59l-81 -460q-22 -121 -87.5 -187.5t-176.5 -66.5q-91 0 -142 53.5zM272.5 820.5q-14.5 14.5 -14.5 33.5q0 20 14.5 34t34.5 14t34 -14
t14 -34t-14 -34t-34 -14t-34.5 14.5zM475 820.5q-14 14.5 -14 33.5q0 20 14 34t34 14t34.5 -14t14.5 -34t-14.5 -34t-34.5 -14t-34 14.5z" />
    <glyph glyph-name="Yacute" unicode="&#xdd;" horiz-adv-x="517" 
d="M243 0h-58l52 291l-140 409h63l115 -347l235 347h70l-285 -409zM380 785h-52l96 143h78z" />
    <glyph glyph-name="Thorn" unicode="&#xde;" horiz-adv-x="538" 
d="M37 0l124 700h59l-30 -166h150q76 0 122 -47t46 -118q0 -92 -60.5 -147.5t-164.5 -55.5h-158l-30 -166h-58zM286 221q77 0 120 39.5t43 103.5q0 55 -32 85t-88 30h-149l-45 -258h151z" />
    <glyph glyph-name="germandbls" unicode="&#xdf;" horiz-adv-x="513" 
d="M142 7l10 55q43 -24 96 -24q126 0 153 154l3 17q3 18 3 35q0 57 -34.5 88.5t-94.5 31.5h-25l9 51h24q43 0 75.5 19.5t50 51.5t17.5 70q0 48 -31 77t-79 29q-62 0 -97.5 -35.5t-48.5 -109.5l-91 -517h-54l91 516q34 196 209 196q68 0 112 -41.5t44 -107.5
q0 -64 -33 -108.5t-92 -64.5q49 -15 76.5 -54t27.5 -93q0 -16 -3 -34l-4 -24q-16 -96 -71.5 -146.5t-139.5 -50.5q-57 0 -103 19z" />
    <glyph glyph-name="agrave" unicode="&#xe0;" 
d="M122.5 11q-39.5 23 -62 66t-22.5 101q0 23 5 55l6 34q21 121 83.5 181t156.5 60q55 0 94 -25t56 -61l13 74h54l-88 -496h-54l13 70q-31 -41 -70 -61.5t-96 -20.5q-49 0 -88.5 23zM341.5 91q50.5 51 66.5 142l6 34q4 20 4 43q0 67 -36 106.5t-92 39.5q-72 0 -120.5 -49.5
t-64.5 -142.5l-6 -35q-4 -21 -4 -44q0 -66 35 -105.5t90 -39.5q71 0 121.5 51zM345 581h-48l-74 143h72z" />
    <glyph glyph-name="aacute" unicode="&#xe1;" 
d="M122.5 11q-39.5 23 -62 66t-22.5 101q0 23 5 55l6 34q21 121 83.5 181t156.5 60q55 0 94 -25t56 -61l13 74h54l-88 -496h-54l13 70q-31 -41 -70 -61.5t-96 -20.5q-49 0 -88.5 23zM341.5 91q50.5 51 66.5 142l6 34q4 20 4 43q0 67 -36 106.5t-92 39.5q-72 0 -120.5 -49.5
t-64.5 -142.5l-6 -35q-4 -21 -4 -44q0 -66 35 -105.5t90 -39.5q71 0 121.5 51zM347 581h-52l96 143h78z" />
    <glyph glyph-name="acircumflex" unicode="&#xe2;" 
d="M122.5 11q-39.5 23 -62 66t-22.5 101q0 23 5 55l6 34q21 121 83.5 181t156.5 60q55 0 94 -25t56 -61l13 74h54l-88 -496h-54l13 70q-31 -41 -70 -61.5t-96 -20.5q-49 0 -88.5 23zM341.5 91q50.5 51 66.5 142l6 34q4 20 4 43q0 67 -36 106.5t-92 39.5q-72 0 -120.5 -49.5
t-64.5 -142.5l-6 -35q-4 -21 -4 -44q0 -66 35 -105.5t90 -39.5q71 0 121.5 51zM254 581h-55l116 143h61l65 -143h-49l-55 85z" />
    <glyph glyph-name="atilde" unicode="&#xe3;" 
d="M122.5 11q-39.5 23 -62 66t-22.5 101q0 23 5 55l6 34q21 121 83.5 181t156.5 60q55 0 94 -25t56 -61l13 74h54l-88 -496h-54l13 70q-31 -41 -70 -61.5t-96 -20.5q-49 0 -88.5 23zM341.5 91q50.5 51 66.5 142l6 34q4 20 4 43q0 67 -36 106.5t-92 39.5q-72 0 -120.5 -49.5
t-64.5 -142.5l-6 -35q-4 -21 -4 -44q0 -66 35 -105.5t90 -39.5q71 0 121.5 51zM193 630q21 68 88 68q17 0 31.5 -6t30.5 -16q16 -9 25.5 -13.5t20.5 -4.5q17 0 28.5 10t20.5 30l36 -16q-23 -68 -89 -68q-18 0 -31 5.5t-32 16.5q-16 9 -25.5 13.5t-20.5 4.5q-31 0 -47 -39z
" />
    <glyph glyph-name="adieresis" unicode="&#xe4;" 
d="M122.5 11q-39.5 23 -62 66t-22.5 101q0 23 5 55l6 34q21 121 83.5 181t156.5 60q55 0 94 -25t56 -61l13 74h54l-88 -496h-54l13 70q-31 -41 -70 -61.5t-96 -20.5q-49 0 -88.5 23zM341.5 91q50.5 51 66.5 142l6 34q4 20 4 43q0 67 -36 106.5t-92 39.5q-72 0 -120.5 -49.5
t-64.5 -142.5l-6 -35q-4 -21 -4 -44q0 -66 35 -105.5t90 -39.5q71 0 121.5 51zM196.5 616.5q-14.5 14.5 -14.5 33.5q0 20 14.5 34t34.5 14t34 -14t14 -34t-14 -34t-34 -14t-34.5 14.5zM399 616.5q-14 14.5 -14 33.5q0 20 14 34t34 14t34.5 -14t14.5 -34t-14.5 -34t-34.5 -14
t-34 14.5z" />
    <glyph glyph-name="aring" unicode="&#xe5;" 
d="M122.5 11q-39.5 23 -62 66t-22.5 101q0 23 5 55l6 34q21 121 83.5 181t156.5 60q55 0 94 -25t56 -61l13 74h54l-88 -496h-54l13 70q-31 -41 -70 -61.5t-96 -20.5q-49 0 -88.5 23zM341.5 91q50.5 51 66.5 142l6 34q4 20 4 43q0 67 -36 106.5t-92 39.5q-72 0 -120.5 -49.5
t-64.5 -142.5l-6 -35q-4 -21 -4 -44q0 -66 35 -105.5t90 -39.5q71 0 121.5 51zM263 586.5q-23 23.5 -23 62.5q0 48 30 80t75 32q37 0 59.5 -24t22.5 -62q0 -47 -29.5 -79.5t-74.5 -32.5q-37 0 -60 23.5zM365.5 625q14.5 18 14.5 45q0 21 -10.5 34t-29.5 13q-23 0 -37.5 -18
t-14.5 -45q0 -21 10.5 -34t29.5 -13q23 0 37.5 18z" />
    <glyph glyph-name="ae" unicode="&#xe6;" horiz-adv-x="875" 
d="M122.5 11q-39.5 23 -62 66t-22.5 101q0 23 5 55l6 34q21 121 83.5 181t156.5 60q55 0 94 -25t56 -61l13 74h54l-13 -73q60 85 170 85q50 0 89.5 -22.5t62 -65t22.5 -99.5q0 -25 -4 -48l-5 -32h-367q-3 -25 -3 -49q0 -73 32.5 -112.5t91.5 -39.5q58 0 98 26.5t67 76.5
l47 -25q-73 -130 -216 -130q-49 0 -87 24.5t-59 67.5l-14 -80h-54l13 70q-31 -41 -70 -61.5t-96 -20.5q-49 0 -88.5 23zM341.5 91q50.5 51 66.5 142l6 34q4 20 4 43q0 67 -36 106.5t-92 39.5q-72 0 -120.5 -49.5t-64.5 -142.5l-6 -35q-4 -21 -4 -44q0 -66 35 -105.5
t90 -39.5q71 0 121.5 51zM781 288q2 20 2 30q0 64 -36.5 101t-92.5 37q-67 0 -115.5 -44.5t-68.5 -123.5h311z" />
    <glyph glyph-name="ccedilla" unicode="&#xe7;" horiz-adv-x="500" 
d="M324 68q37 28 66 81l47 -24q-32 -67 -84.5 -102t-129.5 -35q-13 0 -19 1l-20 -43q19 11 42 11q33 0 54 -21t21 -55q0 -44 -28 -70.5t-76 -26.5q-49 0 -80 18l20 42q10 -7 26.5 -11.5t33.5 -4.5q25 0 39 13.5t14 37.5q0 17 -11 28t-27 11q-25 0 -44 -17l-32 21l30 74
q-59 18 -92.5 69t-33.5 121q0 26 4 47l6 35q42 240 252 240q69 0 114.5 -38t58.5 -102l-51 -16q-13 49 -45.5 76.5t-85.5 27.5q-75 0 -122.5 -49t-64.5 -143l-6 -32q-5 -27 -5 -46q0 -67 37.5 -106.5t96.5 -39.5q58 0 95 28z" />
    <glyph glyph-name="egrave" unicode="&#xe8;" horiz-adv-x="514" 
d="M391.5 485.5q39.5 -22.5 62 -65t22.5 -99.5q0 -25 -4 -48l-5 -32h-367l-1 -8q-4 -23 -4 -48q0 -67 34 -106t92 -39t98 26.5t67 76.5l47 -25q-73 -130 -216 -130q-80 0 -129 54t-49 143q0 22 5 54l5 28q19 112 84.5 176.5t168.5 64.5q50 0 89.5 -22.5zM177.5 411.5
q-48.5 -44.5 -68.5 -123.5h311q2 20 2 30q0 64 -36.5 101t-92.5 37q-67 0 -115.5 -44.5zM345 581h-48l-74 143h72z" />
    <glyph glyph-name="eacute" unicode="&#xe9;" horiz-adv-x="514" 
d="M391.5 485.5q39.5 -22.5 62 -65t22.5 -99.5q0 -25 -4 -48l-5 -32h-367l-1 -8q-4 -23 -4 -48q0 -67 34 -106t92 -39t98 26.5t67 76.5l47 -25q-73 -130 -216 -130q-80 0 -129 54t-49 143q0 22 5 54l5 28q19 112 84.5 176.5t168.5 64.5q50 0 89.5 -22.5zM177.5 411.5
q-48.5 -44.5 -68.5 -123.5h311q2 20 2 30q0 64 -36.5 101t-92.5 37q-67 0 -115.5 -44.5zM347 581h-52l96 143h78z" />
    <glyph glyph-name="ecircumflex" unicode="&#xea;" horiz-adv-x="514" 
d="M391.5 485.5q39.5 -22.5 62 -65t22.5 -99.5q0 -25 -4 -48l-5 -32h-367l-1 -8q-4 -23 -4 -48q0 -67 34 -106t92 -39t98 26.5t67 76.5l47 -25q-73 -130 -216 -130q-80 0 -129 54t-49 143q0 22 5 54l5 28q19 112 84.5 176.5t168.5 64.5q50 0 89.5 -22.5zM177.5 411.5
q-48.5 -44.5 -68.5 -123.5h311q2 20 2 30q0 64 -36.5 101t-92.5 37q-67 0 -115.5 -44.5zM254 581h-55l116 143h61l65 -143h-49l-55 85z" />
    <glyph glyph-name="edieresis" unicode="&#xeb;" horiz-adv-x="514" 
d="M391.5 485.5q39.5 -22.5 62 -65t22.5 -99.5q0 -25 -4 -48l-5 -32h-367l-1 -8q-4 -23 -4 -48q0 -67 34 -106t92 -39t98 26.5t67 76.5l47 -25q-73 -130 -216 -130q-80 0 -129 54t-49 143q0 22 5 54l5 28q19 112 84.5 176.5t168.5 64.5q50 0 89.5 -22.5zM177.5 411.5
q-48.5 -44.5 -68.5 -123.5h311q2 20 2 30q0 64 -36.5 101t-92.5 37q-67 0 -115.5 -44.5zM196.5 616.5q-14.5 14.5 -14.5 33.5q0 20 14.5 34t34.5 14t34 -14t14 -34t-14 -34t-34 -14t-34.5 14.5zM399 616.5q-14 14.5 -14 33.5q0 20 14 34t34 14t34.5 -14t14.5 -34t-14.5 -34
t-34.5 -14t-34 14.5z" />
    <glyph glyph-name="igrave" unicode="&#xec;" horiz-adv-x="198" 
d="M82 0h-54l88 496h54zM183 581h-48l-74 143h72z" />
    <glyph glyph-name="iacute" unicode="&#xed;" horiz-adv-x="198" 
d="M82 0h-54l88 496h54zM185 581h-52l96 143h78z" />
    <glyph glyph-name="icircumflex" unicode="&#xee;" horiz-adv-x="198" 
d="M82 0h-54l88 496h54zM92 581h-55l116 143h61l65 -143h-49l-55 85z" />
    <glyph glyph-name="idieresis" unicode="&#xef;" horiz-adv-x="198" 
d="M82 0h-54l88 496h54zM34.5 616.5q-14.5 14.5 -14.5 33.5q0 20 14.5 34t34.5 14t34 -14t14 -34t-14 -34t-34 -14t-34.5 14.5zM237 616.5q-14 14.5 -14 33.5q0 20 14 34t34 14t34.5 -14t14.5 -34t-14.5 -34t-34.5 -14t-34 14.5z" />
    <glyph glyph-name="eth" unicode="&#xf0;" horiz-adv-x="518" 
d="M420 471q26 -47 40.5 -89t14.5 -89q0 -21 -5 -53l-3 -18q-22 -119 -88 -176.5t-161 -57.5q-54 0 -94.5 25.5t-62.5 69.5t-22 98q0 25 4 46l3 19q18 104 84.5 164.5t158.5 60.5q64 0 93 -32l-75 129l-92 -60l-24 35l95 61l-56 96h61l38 -68l106 68l23 -35l-108 -70z
M411 238q5 30 5 50q0 63 -32.5 98.5t-89.5 35.5q-74 0 -124 -47t-65 -130l-4 -19q-4 -23 -4 -47q0 -64 34.5 -100.5t92.5 -36.5q71 0 119.5 45t64.5 134z" />
    <glyph glyph-name="ntilde" unicode="&#xf1;" horiz-adv-x="503" 
d="M28 0l88 496h54l-11 -62q22 35 56 54.5t87 19.5q67 0 106.5 -40t39.5 -105q0 -12 -4 -40l-58 -323h-54l57 322q3 17 3 31q0 48 -29 76.5t-77 28.5q-55 0 -95.5 -37.5t-51.5 -99.5l-57 -321h-54zM183 630q21 68 88 68q17 0 31.5 -6t30.5 -16q16 -9 25.5 -13.5t20.5 -4.5
q17 0 28.5 10t20.5 30l36 -16q-23 -68 -89 -68q-18 0 -31 5.5t-32 16.5q-16 9 -25.5 13.5t-20.5 4.5q-31 0 -47 -39z" />
    <glyph glyph-name="ograve" unicode="&#xf2;" 
d="M132 13q-44 25 -68.5 70t-24.5 102q0 25 4 48l7 39q20 113 85.5 174.5t162.5 61.5q58 0 102.5 -25t69 -70t24.5 -104q0 -25 -4 -46l-6 -37q-19 -113 -85 -175.5t-165 -62.5q-58 0 -102 25zM362 91.5q52 51.5 66 137.5l6 37q3 21 3 40q0 69 -39 109.5t-99 40.5
q-76 0 -126.5 -51t-66.5 -138l-7 -37q-4 -20 -4 -43q0 -66 39.5 -106.5t98.5 -40.5q77 0 129 51.5zM350 581h-48l-74 143h72z" />
    <glyph glyph-name="oacute" unicode="&#xf3;" 
d="M132 13q-44 25 -68.5 70t-24.5 102q0 25 4 48l7 39q20 113 85.5 174.5t162.5 61.5q58 0 102.5 -25t69 -70t24.5 -104q0 -25 -4 -46l-6 -37q-19 -113 -85 -175.5t-165 -62.5q-58 0 -102 25zM362 91.5q52 51.5 66 137.5l6 37q3 21 3 40q0 69 -39 109.5t-99 40.5
q-76 0 -126.5 -51t-66.5 -138l-7 -37q-4 -20 -4 -43q0 -66 39.5 -106.5t98.5 -40.5q77 0 129 51.5zM352 581h-52l96 143h78z" />
    <glyph glyph-name="ocircumflex" unicode="&#xf4;" 
d="M132 13q-44 25 -68.5 70t-24.5 102q0 25 4 48l7 39q20 113 85.5 174.5t162.5 61.5q58 0 102.5 -25t69 -70t24.5 -104q0 -25 -4 -46l-6 -37q-19 -113 -85 -175.5t-165 -62.5q-58 0 -102 25zM362 91.5q52 51.5 66 137.5l6 37q3 21 3 40q0 69 -39 109.5t-99 40.5
q-76 0 -126.5 -51t-66.5 -138l-7 -37q-4 -20 -4 -43q0 -66 39.5 -106.5t98.5 -40.5q77 0 129 51.5zM259 581h-55l116 143h61l65 -143h-49l-55 85z" />
    <glyph glyph-name="otilde" unicode="&#xf5;" 
d="M132 13q-44 25 -68.5 70t-24.5 102q0 25 4 48l7 39q20 113 85.5 174.5t162.5 61.5q58 0 102.5 -25t69 -70t24.5 -104q0 -25 -4 -46l-6 -37q-19 -113 -85 -175.5t-165 -62.5q-58 0 -102 25zM362 91.5q52 51.5 66 137.5l6 37q3 21 3 40q0 69 -39 109.5t-99 40.5
q-76 0 -126.5 -51t-66.5 -138l-7 -37q-4 -20 -4 -43q0 -66 39.5 -106.5t98.5 -40.5q77 0 129 51.5zM198 630q21 68 88 68q17 0 31.5 -6t30.5 -16q16 -9 25.5 -13.5t20.5 -4.5q17 0 28.5 10t20.5 30l36 -16q-23 -68 -89 -68q-18 0 -31 5.5t-32 16.5q-16 9 -25.5 13.5
t-20.5 4.5q-31 0 -47 -39z" />
    <glyph glyph-name="odieresis" unicode="&#xf6;" 
d="M132 13q-44 25 -68.5 70t-24.5 102q0 25 4 48l7 39q20 113 85.5 174.5t162.5 61.5q58 0 102.5 -25t69 -70t24.5 -104q0 -25 -4 -46l-6 -37q-19 -113 -85 -175.5t-165 -62.5q-58 0 -102 25zM362 91.5q52 51.5 66 137.5l6 37q3 21 3 40q0 69 -39 109.5t-99 40.5
q-76 0 -126.5 -51t-66.5 -138l-7 -37q-4 -20 -4 -43q0 -66 39.5 -106.5t98.5 -40.5q77 0 129 51.5zM201.5 616.5q-14.5 14.5 -14.5 33.5q0 20 14.5 34t34.5 14t34 -14t14 -34t-14 -34t-34 -14t-34.5 14.5zM404 616.5q-14 14.5 -14 33.5q0 20 14 34t34 14t34.5 -14t14.5 -34
t-14.5 -34t-34.5 -14t-34 14.5z" />
    <glyph glyph-name="divide" unicode="&#xf7;" horiz-adv-x="433" 
d="M411 285h-376l10 54h376zM164.5 112.5q-14.5 14.5 -14.5 33.5q0 21 14 35t34 14q21 0 35 -14t14 -35q0 -20 -14 -34t-35 -14q-19 0 -33.5 14.5zM223.5 443.5q-14.5 14.5 -14.5 33.5q0 21 14 35t34 14q21 0 35 -14t14 -35q0 -20 -14 -34t-35 -14q-19 0 -33.5 14.5z" />
    <glyph glyph-name="oslash" unicode="&#xf8;" 
d="M435 459q29 -26 45 -63.5t16 -83.5q0 -21 -5 -49l-6 -34q-20 -114 -85.5 -177.5t-164.5 -63.5q-51 0 -93 20l-49 -76h-61l68 105q-29 26 -45 63.5t-16 83.5q0 21 5 49l6 34q20 114 86 177.5t163 63.5q51 0 94 -20l49 76h61zM100 230q-4 -19 -4 -41q0 -64 35 -104l232 357
q-30 14 -63 14q-76 0 -127.5 -52t-66.5 -139zM435 266q4 19 4 41q0 64 -35 104l-232 -357q28 -14 62 -14q77 0 128.5 52t66.5 139z" />
    <glyph glyph-name="ugrave" unicode="&#xf9;" horiz-adv-x="503" 
d="M94.5 28q-39.5 40 -39.5 105q0 12 4 40l58 323h54l-57 -322q-3 -16 -3 -31q0 -48 29 -76.5t77 -28.5q55 0 95.5 37.5t51.5 99.5l57 321h54l-88 -496h-54l11 62q-22 -35 -56 -54.5t-87 -19.5q-67 0 -106.5 40zM336 581h-48l-74 143h72z" />
    <glyph glyph-name="uacute" unicode="&#xfa;" horiz-adv-x="503" 
d="M94.5 28q-39.5 40 -39.5 105q0 12 4 40l58 323h54l-57 -322q-3 -16 -3 -31q0 -48 29 -76.5t77 -28.5q55 0 95.5 37.5t51.5 99.5l57 321h54l-88 -496h-54l11 62q-22 -35 -56 -54.5t-87 -19.5q-67 0 -106.5 40zM338 581h-52l96 143h78z" />
    <glyph glyph-name="ucircumflex" unicode="&#xfb;" horiz-adv-x="503" 
d="M94.5 28q-39.5 40 -39.5 105q0 12 4 40l58 323h54l-57 -322q-3 -16 -3 -31q0 -48 29 -76.5t77 -28.5q55 0 95.5 37.5t51.5 99.5l57 321h54l-88 -496h-54l11 62q-22 -35 -56 -54.5t-87 -19.5q-67 0 -106.5 40zM245 581h-55l116 143h61l65 -143h-49l-55 85z" />
    <glyph glyph-name="udieresis" unicode="&#xfc;" horiz-adv-x="503" 
d="M94.5 28q-39.5 40 -39.5 105q0 12 4 40l58 323h54l-57 -322q-3 -16 -3 -31q0 -48 29 -76.5t77 -28.5q55 0 95.5 37.5t51.5 99.5l57 321h54l-88 -496h-54l11 62q-22 -35 -56 -54.5t-87 -19.5q-67 0 -106.5 40zM187.5 616.5q-14.5 14.5 -14.5 33.5q0 20 14.5 34t34.5 14
t34 -14t14 -34t-14 -34t-34 -14t-34.5 14.5zM390 616.5q-14 14.5 -14 33.5q0 20 14 34t34 14t34.5 -14t14.5 -34t-14.5 -34t-34.5 -14t-34 14.5z" />
    <glyph glyph-name="yacute" unicode="&#xfd;" horiz-adv-x="455" 
d="M419 496h60l-321 -590q-37 -68 -73 -93t-92 -25q-31 0 -57 11l9 55q32 -16 59 -16q35 0 58.5 20.5t49.5 68.5l47 86l-97 483h58l77 -411zM313 581h-52l96 143h78z" />
    <glyph glyph-name="thorn" unicode="&#xfe;" 
d="M-7 -202l159 902h54l-48 -276q21 36 65 60t99 24q51 0 90 -25t61 -69.5t22 -99.5q0 -27 -4 -50l-6 -34q-21 -123 -82.5 -182.5t-156.5 -59.5q-56 0 -93 23.5t-57 59.5l-49 -273h-54zM365.5 87.5q47.5 47.5 64.5 144.5l6 35q4 20 4 44q0 67 -36 106t-95 39
q-68 0 -116.5 -50.5t-65.5 -141.5l-6 -32q-5 -30 -5 -51q0 -66 35 -103.5t96 -37.5q71 0 118.5 47.5z" />
    <glyph glyph-name="ydieresis" unicode="&#xff;" horiz-adv-x="455" 
d="M419 496h60l-321 -590q-37 -68 -73 -93t-92 -25q-31 0 -57 11l9 55q32 -16 59 -16q35 0 58.5 20.5t49.5 68.5l47 86l-97 483h58l77 -411zM162.5 616.5q-14.5 14.5 -14.5 33.5q0 20 14.5 34t34.5 14t34 -14t14 -34t-14 -34t-34 -14t-34.5 14.5zM365 616.5
q-14 14.5 -14 33.5q0 20 14 34t34 14t34.5 -14t14.5 -34t-14.5 -34t-34.5 -14t-34 14.5z" />
    <glyph glyph-name="Amacron" unicode="&#x100;" horiz-adv-x="584" 
d="M520 0h-61l-28 182h-298l-92 -182h-65l359 700h71zM362 632l-201 -395h262zM505 830h-220l8 50h220z" />
    <glyph glyph-name="amacron" unicode="&#x101;" 
d="M122.5 11q-39.5 23 -62 66t-22.5 101q0 23 5 55l6 34q21 121 83.5 181t156.5 60q55 0 94 -25t56 -61l13 74h54l-88 -496h-54l13 70q-31 -41 -70 -61.5t-96 -20.5q-49 0 -88.5 23zM341.5 91q50.5 51 66.5 142l6 34q4 20 4 43q0 67 -36 106.5t-92 39.5q-72 0 -120.5 -49.5
t-64.5 -142.5l-6 -35q-4 -21 -4 -44q0 -66 35 -105.5t90 -39.5q71 0 121.5 51zM438 626h-220l8 50h220z" />
    <glyph glyph-name="Abreve" unicode="&#x102;" horiz-adv-x="584" 
d="M520 0h-61l-28 182h-298l-92 -182h-65l359 700h71zM362 632l-201 -395h262zM325.5 802q-22.5 24 -22.5 60q0 6 2 20h52q-1 -6 -1 -16q0 -40 38 -40q23 0 38 15t20 41h52q-8 -47 -36 -75.5t-80 -28.5q-40 0 -62.5 24z" />
    <glyph glyph-name="abreve" unicode="&#x103;" 
d="M122.5 11q-39.5 23 -62 66t-22.5 101q0 23 5 55l6 34q21 121 83.5 181t156.5 60q55 0 94 -25t56 -61l13 74h54l-88 -496h-54l13 70q-31 -41 -70 -61.5t-96 -20.5q-49 0 -88.5 23zM341.5 91q50.5 51 66.5 142l6 34q4 20 4 43q0 67 -36 106.5t-92 39.5q-72 0 -120.5 -49.5
t-64.5 -142.5l-6 -35q-4 -21 -4 -44q0 -66 35 -105.5t90 -39.5q71 0 121.5 51zM258.5 598q-22.5 24 -22.5 60q0 6 2 20h52q-1 -6 -1 -16q0 -40 38 -40q23 0 38 15t20 41h52q-8 -47 -36 -75.5t-80 -28.5q-40 0 -62.5 24z" />
    <glyph glyph-name="Aogonek" unicode="&#x104;" horiz-adv-x="584" 
d="M444.5 -135q10.5 -11 27.5 -11q20 0 38 10l-9 -52q-18 -10 -49 -10q-34 0 -55 21.5t-21 59.5t22.5 72.5t59.5 52.5l-27 174h-298l-92 -182h-65l359 700h71l114 -700q-37 -17 -61.5 -46t-24.5 -59q0 -19 10.5 -30zM362 632l-201 -395h262z" />
    <glyph glyph-name="aogonek" unicode="&#x105;" 
d="M418 0q-37 -17 -61.5 -46t-24.5 -59q0 -19 10.5 -30t27.5 -11q20 0 38 10l-9 -52q-18 -10 -49 -10q-34 0 -55 21.5t-21 59.5q0 40 25.5 75.5t66.5 52.5l11 59q-31 -41 -70 -61.5t-96 -20.5q-49 0 -88.5 23t-62 66t-22.5 101q0 23 5 55l6 34q21 121 83.5 181t156.5 60
q55 0 94 -25t56 -61l13 74h54zM341.5 91q50.5 51 66.5 142l6 34q4 20 4 43q0 67 -36 106.5t-92 39.5q-72 0 -120.5 -49.5t-64.5 -142.5l-6 -35q-4 -21 -4 -44q0 -66 35 -105.5t90 -39.5q71 0 121.5 51z" />
    <glyph glyph-name="Cacute" unicode="&#x106;" horiz-adv-x="626" 
d="M121 55.5q-63 69.5 -63 186.5q0 42 7 81l12 68q28 159 115 241t221 82q80 0 137 -43t84 -119l-51 -27q-55 136 -178 136q-104 0 -177 -73t-95 -208l-10 -60q-6 -36 -6 -68q0 -97 49 -155t137 -58q73 0 124 34.5t94 102.5l43 -26q-47 -81 -110.5 -122.5t-159.5 -41.5
q-110 0 -173 69.5zM462 785h-52l96 143h78z" />
    <glyph glyph-name="cacute" unicode="&#x107;" horiz-adv-x="500" 
d="M126.5 13.5q-41.5 25.5 -64 70.5t-22.5 101q0 27 4 48l6 35q42 240 252 240q69 0 114.5 -38t58.5 -102l-51 -16q-13 49 -45.5 76.5t-85.5 27.5q-75 0 -122.5 -49t-64.5 -143l-6 -32q-5 -27 -5 -46q0 -67 37.5 -106.5t96.5 -39.5q58 0 95 28t66 81l47 -24
q-32 -67 -84.5 -102t-129.5 -35q-55 0 -96.5 25.5zM350 581h-52l96 143h78z" />
    <glyph glyph-name="Ccircumflex" unicode="&#x108;" horiz-adv-x="626" 
d="M121 55.5q-63 69.5 -63 186.5q0 42 7 81l12 68q28 159 115 241t221 82q80 0 137 -43t84 -119l-51 -27q-55 136 -178 136q-104 0 -177 -73t-95 -208l-10 -60q-6 -36 -6 -68q0 -97 49 -155t137 -58q73 0 124 34.5t94 102.5l43 -26q-47 -81 -110.5 -122.5t-159.5 -41.5
q-110 0 -173 69.5zM369 785h-55l116 143h61l65 -143h-49l-55 85z" />
    <glyph glyph-name="ccircumflex" unicode="&#x109;" horiz-adv-x="500" 
d="M126.5 13.5q-41.5 25.5 -64 70.5t-22.5 101q0 27 4 48l6 35q42 240 252 240q69 0 114.5 -38t58.5 -102l-51 -16q-13 49 -45.5 76.5t-85.5 27.5q-75 0 -122.5 -49t-64.5 -143l-6 -32q-5 -27 -5 -46q0 -67 37.5 -106.5t96.5 -39.5q58 0 95 28t66 81l47 -24
q-32 -67 -84.5 -102t-129.5 -35q-55 0 -96.5 25.5zM257 581h-55l116 143h61l65 -143h-49l-55 85z" />
    <glyph glyph-name="Cdotaccent" unicode="&#x10a;" horiz-adv-x="626" 
d="M121 55.5q-63 69.5 -63 186.5q0 42 7 81l12 68q28 159 115 241t221 82q80 0 137 -43t84 -119l-51 -27q-55 136 -178 136q-104 0 -177 -73t-95 -208l-10 -60q-6 -36 -6 -68q0 -97 49 -155t137 -58q73 0 124 34.5t94 102.5l43 -26q-47 -81 -110.5 -122.5t-159.5 -41.5
q-110 0 -173 69.5zM413 820.5q-14 14.5 -14 33.5q0 20 14 34t34 14t34 -14t14 -34t-14 -34t-34 -14t-34 14.5z" />
    <glyph glyph-name="cdotaccent" unicode="&#x10b;" horiz-adv-x="500" 
d="M126.5 13.5q-41.5 25.5 -64 70.5t-22.5 101q0 27 4 48l6 35q42 240 252 240q69 0 114.5 -38t58.5 -102l-51 -16q-13 49 -45.5 76.5t-85.5 27.5q-75 0 -122.5 -49t-64.5 -143l-6 -32q-5 -27 -5 -46q0 -67 37.5 -106.5t96.5 -39.5q58 0 95 28t66 81l47 -24
q-32 -67 -84.5 -102t-129.5 -35q-55 0 -96.5 25.5zM301 616.5q-14 14.5 -14 33.5q0 20 14 34t34 14t34 -14t14 -34t-14 -34t-34 -14t-34 14.5z" />
    <glyph glyph-name="Ccaron" unicode="&#x10c;" horiz-adv-x="626" 
d="M121 55.5q-63 69.5 -63 186.5q0 42 7 81l12 68q28 159 115 241t221 82q80 0 137 -43t84 -119l-51 -27q-55 136 -178 136q-104 0 -177 -73t-95 -208l-10 -60q-6 -36 -6 -68q0 -97 49 -155t137 -58q73 0 124 34.5t94 102.5l43 -26q-47 -81 -110.5 -122.5t-159.5 -41.5
q-110 0 -173 69.5zM466 785h-61l-65 143h49l55 -85l83 85h55z" />
    <glyph glyph-name="ccaron" unicode="&#x10d;" horiz-adv-x="500" 
d="M126.5 13.5q-41.5 25.5 -64 70.5t-22.5 101q0 27 4 48l6 35q42 240 252 240q69 0 114.5 -38t58.5 -102l-51 -16q-13 49 -45.5 76.5t-85.5 27.5q-75 0 -122.5 -49t-64.5 -143l-6 -32q-5 -27 -5 -46q0 -67 37.5 -106.5t96.5 -39.5q58 0 95 28t66 81l47 -24
q-32 -67 -84.5 -102t-129.5 -35q-55 0 -96.5 25.5zM354 581h-61l-65 143h49l55 -85l83 85h55z" />
    <glyph glyph-name="Dcaron" unicode="&#x10e;" horiz-adv-x="596" 
d="M37 0l124 700h163q73 0 130 -31.5t88.5 -89t31.5 -132.5q0 -27 -7 -69l-13 -70q-27 -147 -117.5 -227.5t-232.5 -80.5h-167zM204 54q118 0 194 67.5t100 200.5l10 56q6 33 6 64q0 95 -54.5 149.5t-151.5 54.5h-99l-104 -592h99zM380 785h-61l-65 143h49l55 -85l83 85h55z
" />
    <glyph glyph-name="dcaron" unicode="&#x10f;" horiz-adv-x="636" 
d="M122.5 11q-39.5 23 -62 66t-22.5 101q0 23 5 55l6 34q21 121 83.5 181t156.5 60q55 0 94 -25t56 -61l49 278h54l-124 -700h-54l13 70q-31 -41 -70 -61.5t-96 -20.5q-49 0 -88.5 23zM341.5 91q50.5 51 66.5 142l6 34q4 20 4 43q0 67 -36 106.5t-92 39.5
q-72 0 -120.5 -49.5t-64.5 -142.5l-6 -35q-4 -21 -4 -44q0 -66 35 -105.5t90 -39.5q71 0 121.5 51zM610 499l-18 15l34 53q21 33 25 44q-14 4 -24.5 16t-10.5 27q0 25 15 39.5t38 14.5q21 0 33 -14t12 -35q0 -25 -12.5 -44.5t-48.5 -63.5z" />
    <glyph glyph-name="Dcroat" unicode="&#x110;" horiz-adv-x="566" 
d="M324 700q73 0 130 -31.5t88.5 -89t31.5 -132.5q0 -27 -7 -69l-13 -70q-27 -147 -117.5 -227.5t-232.5 -80.5h-167l57 323h-91l10 54h91l57 323h163zM508 378q6 33 6 64q0 95 -54.5 149.5t-151.5 54.5h-99l-47 -269h148l-10 -54h-148l-47 -269h99q118 0 194 67.5
t100 200.5z" />
    <glyph glyph-name="dcroat" unicode="&#x111;" horiz-adv-x="527" 
d="M596 635l-8 -50h-66l-104 -585h-54l13 70q-31 -41 -70 -61.5t-96 -20.5q-49 0 -88.5 23t-62 66t-22.5 101q0 23 5 55l6 34q21 121 83.5 181t156.5 60q55 0 94 -25t56 -61l29 163h-172l8 50h173l11 65h54l-12 -65h66zM414 267q4 20 4 43q0 67 -36 106.5t-92 39.5
q-72 0 -120.5 -49.5t-64.5 -142.5l-6 -35q-4 -21 -4 -44q0 -66 35 -105.5t90 -39.5q71 0 121.5 51t66.5 142z" />
    <glyph glyph-name="Emacron" unicode="&#x112;" horiz-adv-x="545" 
d="M444 0h-407l124 700h403l-10 -54h-345l-45 -258h293l-10 -54h-293l-49 -280h349zM498 830h-220l8 50h220z" />
    <glyph glyph-name="emacron" unicode="&#x113;" horiz-adv-x="514" 
d="M391.5 485.5q39.5 -22.5 62 -65t22.5 -99.5q0 -25 -4 -48l-5 -32h-367l-1 -8q-4 -23 -4 -48q0 -67 34 -106t92 -39t98 26.5t67 76.5l47 -25q-73 -130 -216 -130q-80 0 -129 54t-49 143q0 22 5 54l5 28q19 112 84.5 176.5t168.5 64.5q50 0 89.5 -22.5zM177.5 411.5
q-48.5 -44.5 -68.5 -123.5h311q2 20 2 30q0 64 -36.5 101t-92.5 37q-67 0 -115.5 -44.5zM438 626h-220l8 50h220z" />
    <glyph glyph-name="Ebreve" unicode="&#x114;" horiz-adv-x="545" 
d="M444 0h-407l124 700h403l-10 -54h-345l-45 -258h293l-10 -54h-293l-49 -280h349zM318.5 802q-22.5 24 -22.5 60q0 6 2 20h52q-1 -6 -1 -16q0 -40 38 -40q23 0 38 15t20 41h52q-8 -47 -36 -75.5t-80 -28.5q-40 0 -62.5 24z" />
    <glyph glyph-name="ebreve" unicode="&#x115;" horiz-adv-x="514" 
d="M391.5 485.5q39.5 -22.5 62 -65t22.5 -99.5q0 -25 -4 -48l-5 -32h-367l-1 -8q-4 -23 -4 -48q0 -67 34 -106t92 -39t98 26.5t67 76.5l47 -25q-73 -130 -216 -130q-80 0 -129 54t-49 143q0 22 5 54l5 28q19 112 84.5 176.5t168.5 64.5q50 0 89.5 -22.5zM177.5 411.5
q-48.5 -44.5 -68.5 -123.5h311q2 20 2 30q0 64 -36.5 101t-92.5 37q-67 0 -115.5 -44.5zM258.5 598q-22.5 24 -22.5 60q0 6 2 20h52q-1 -6 -1 -16q0 -40 38 -40q23 0 38 15t20 41h52q-8 -47 -36 -75.5t-80 -28.5q-40 0 -62.5 24z" />
    <glyph glyph-name="Edotaccent" unicode="&#x116;" horiz-adv-x="545" 
d="M444 0h-407l124 700h403l-10 -54h-345l-45 -258h293l-10 -54h-293l-49 -280h349zM358 820.5q-14 14.5 -14 33.5q0 20 14 34t34 14t34 -14t14 -34t-14 -34t-34 -14t-34 14.5z" />
    <glyph glyph-name="edotaccent" unicode="&#x117;" horiz-adv-x="514" 
d="M391.5 485.5q39.5 -22.5 62 -65t22.5 -99.5q0 -25 -4 -48l-5 -32h-367l-1 -8q-4 -23 -4 -48q0 -67 34 -106t92 -39t98 26.5t67 76.5l47 -25q-73 -130 -216 -130q-80 0 -129 54t-49 143q0 22 5 54l5 28q19 112 84.5 176.5t168.5 64.5q50 0 89.5 -22.5zM177.5 411.5
q-48.5 -44.5 -68.5 -123.5h311q2 20 2 30q0 64 -36.5 101t-92.5 37q-67 0 -115.5 -44.5zM298 616.5q-14 14.5 -14 33.5q0 20 14 34t34 14t34 -14t14 -34t-14 -34t-34 -14t-34 14.5z" />
    <glyph glyph-name="Eogonek" unicode="&#x118;" horiz-adv-x="545" 
d="M554 646h-345l-45 -258h293l-10 -54h-293l-49 -280h349l-10 -54q-37 -17 -61.5 -46t-24.5 -59q0 -19 10.5 -30t27.5 -11q20 0 38 10l-9 -52q-18 -10 -49 -10q-34 0 -55 21.5t-21 59.5q0 34 18.5 65.5t48.5 51.5h-330l124 700h403z" />
    <glyph glyph-name="eogonek" unicode="&#x119;" horiz-adv-x="514" 
d="M391.5 485.5q39.5 -22.5 62 -65t22.5 -99.5q0 -25 -4 -48l-5 -32h-367l-1 -8q-4 -23 -4 -48q0 -67 34 -106t92 -39t98 26.5t67 76.5l47 -25q-54 -99 -149 -122q-34 -18 -56 -45.5t-22 -55.5q0 -19 10.5 -30t27.5 -11q20 0 38 10l-9 -52q-18 -10 -49 -10q-34 0 -55 21.5
t-21 59.5q0 29 14 57.5t38 48.5q-73 6 -117 59t-44 136q0 23 5 55l5 28q19 112 84.5 176.5t168.5 64.5q50 0 89.5 -22.5zM177.5 411.5q-48.5 -44.5 -68.5 -123.5h311q2 20 2 30q0 64 -36.5 101t-92.5 37q-67 0 -115.5 -44.5z" />
    <glyph glyph-name="Ecaron" unicode="&#x11a;" horiz-adv-x="545" 
d="M444 0h-407l124 700h403l-10 -54h-345l-45 -258h293l-10 -54h-293l-49 -280h349zM411 785h-61l-65 143h49l55 -85l83 85h55z" />
    <glyph glyph-name="ecaron" unicode="&#x11b;" horiz-adv-x="514" 
d="M391.5 485.5q39.5 -22.5 62 -65t22.5 -99.5q0 -25 -4 -48l-5 -32h-367l-1 -8q-4 -23 -4 -48q0 -67 34 -106t92 -39t98 26.5t67 76.5l47 -25q-73 -130 -216 -130q-80 0 -129 54t-49 143q0 22 5 54l5 28q19 112 84.5 176.5t168.5 64.5q50 0 89.5 -22.5zM177.5 411.5
q-48.5 -44.5 -68.5 -123.5h311q2 20 2 30q0 64 -36.5 101t-92.5 37q-67 0 -115.5 -44.5zM351 581h-61l-65 143h49l55 -85l83 85h55z" />
    <glyph glyph-name="Gcircumflex" unicode="&#x11c;" horiz-adv-x="644" 
d="M168.5 19.5q-54.5 33.5 -83 92t-28.5 133.5q0 35 8 78l13 68q29 150 114.5 236.5t222.5 86.5q80 0 135.5 -43t83.5 -119l-51 -27q-52 136 -172 136q-114 0 -185 -75t-93 -206l-10 -61q-5 -26 -5 -62q0 -95 49 -156.5t138 -61.5q124 0 200 88l31 177h-199l9 52h256
l-45 -255q-53 -57 -115 -86t-146 -29q-73 0 -127.5 33.5zM369 785h-55l116 143h61l65 -143h-49l-55 85z" />
    <glyph glyph-name="gcircumflex" unicode="&#x11d;" horiz-adv-x="535" 
d="M63.5 -181q-45.5 35 -62.5 94l52 23q13 -47 46.5 -74t86.5 -27q75 0 120.5 45.5t59.5 130.5l14 81q-21 -38 -64.5 -61.5t-98.5 -23.5q-51 0 -91 23t-62.5 65.5t-22.5 98.5q0 22 5 52l5 28q19 111 82 172.5t156 61.5q56 0 95 -25t54 -65l14 78h55l-86 -488
q-19 -107 -78.5 -165.5t-162.5 -58.5q-71 0 -116.5 35zM347 109.5q50 49.5 64 130.5l6 36q3 20 3 38q0 65 -37 103.5t-97 38.5q-69 0 -117 -50.5t-63 -135.5l-5 -28q-4 -21 -4 -46q0 -64 34.5 -100t95.5 -36q70 0 120 49.5zM252 581h-55l116 143h61l65 -143h-49l-55 85z" />
    <glyph glyph-name="Gbreve" unicode="&#x11e;" horiz-adv-x="644" 
d="M168.5 19.5q-54.5 33.5 -83 92t-28.5 133.5q0 35 8 78l13 68q29 150 114.5 236.5t222.5 86.5q80 0 135.5 -43t83.5 -119l-51 -27q-52 136 -172 136q-114 0 -185 -75t-93 -206l-10 -61q-5 -26 -5 -62q0 -95 49 -156.5t138 -61.5q124 0 200 88l31 177h-199l9 52h256
l-45 -255q-53 -57 -115 -86t-146 -29q-73 0 -127.5 33.5zM373.5 802q-22.5 24 -22.5 60q0 6 2 20h52q-1 -6 -1 -16q0 -40 38 -40q23 0 38 15t20 41h52q-8 -47 -36 -75.5t-80 -28.5q-40 0 -62.5 24z" />
    <glyph glyph-name="gbreve" unicode="&#x11f;" horiz-adv-x="535" 
d="M63.5 -181q-45.5 35 -62.5 94l52 23q13 -47 46.5 -74t86.5 -27q75 0 120.5 45.5t59.5 130.5l14 81q-21 -38 -64.5 -61.5t-98.5 -23.5q-51 0 -91 23t-62.5 65.5t-22.5 98.5q0 22 5 52l5 28q19 111 82 172.5t156 61.5q56 0 95 -25t54 -65l14 78h55l-86 -488
q-19 -107 -78.5 -165.5t-162.5 -58.5q-71 0 -116.5 35zM347 109.5q50 49.5 64 130.5l6 36q3 20 3 38q0 65 -37 103.5t-97 38.5q-69 0 -117 -50.5t-63 -135.5l-5 -28q-4 -21 -4 -46q0 -64 34.5 -100t95.5 -36q70 0 120 49.5zM256.5 598q-22.5 24 -22.5 60q0 6 2 20h52
q-1 -6 -1 -16q0 -40 38 -40q23 0 38 15t20 41h52q-8 -47 -36 -75.5t-80 -28.5q-40 0 -62.5 24z" />
    <glyph glyph-name="Gdotaccent" unicode="&#x120;" horiz-adv-x="644" 
d="M168.5 19.5q-54.5 33.5 -83 92t-28.5 133.5q0 35 8 78l13 68q29 150 114.5 236.5t222.5 86.5q80 0 135.5 -43t83.5 -119l-51 -27q-52 136 -172 136q-114 0 -185 -75t-93 -206l-10 -61q-5 -26 -5 -62q0 -95 49 -156.5t138 -61.5q124 0 200 88l31 177h-199l9 52h256
l-45 -255q-53 -57 -115 -86t-146 -29q-73 0 -127.5 33.5zM413 820.5q-14 14.5 -14 33.5q0 20 14 34t34 14t34 -14t14 -34t-14 -34t-34 -14t-34 14.5z" />
    <glyph glyph-name="gdotaccent" unicode="&#x121;" horiz-adv-x="535" 
d="M63.5 -181q-45.5 35 -62.5 94l52 23q13 -47 46.5 -74t86.5 -27q75 0 120.5 45.5t59.5 130.5l14 81q-21 -38 -64.5 -61.5t-98.5 -23.5q-51 0 -91 23t-62.5 65.5t-22.5 98.5q0 22 5 52l5 28q19 111 82 172.5t156 61.5q56 0 95 -25t54 -65l14 78h55l-86 -488
q-19 -107 -78.5 -165.5t-162.5 -58.5q-71 0 -116.5 35zM347 109.5q50 49.5 64 130.5l6 36q3 20 3 38q0 65 -37 103.5t-97 38.5q-69 0 -117 -50.5t-63 -135.5l-5 -28q-4 -21 -4 -46q0 -64 34.5 -100t95.5 -36q70 0 120 49.5zM296 616.5q-14 14.5 -14 33.5q0 20 14 34t34 14
t34 -14t14 -34t-14 -34t-34 -14t-34 14.5z" />
    <glyph glyph-name="uni0122" unicode="&#x122;" horiz-adv-x="644" 
d="M168.5 19.5q-54.5 33.5 -83 92t-28.5 133.5q0 35 8 78l13 68q29 150 114.5 236.5t222.5 86.5q80 0 135.5 -43t83.5 -119l-51 -27q-52 136 -172 136q-114 0 -185 -75t-93 -206l-10 -61q-5 -26 -5 -62q0 -95 49 -156.5t138 -61.5q124 0 200 88l31 177h-199l9 52h256
l-45 -255q-53 -57 -115 -86t-146 -29q-73 0 -127.5 33.5zM240 -229l-15 13l20 23q20 23 23 41q-14 0 -24.5 11.5t-10.5 26.5q0 21 12.5 34.5t33.5 13.5q20 0 32 -12.5t12 -32.5q0 -46 -61 -99z" />
    <glyph glyph-name="uni0123" unicode="&#x123;" horiz-adv-x="535" 
d="M63.5 -181q-45.5 35 -62.5 94l52 23q13 -47 46.5 -74t86.5 -27q75 0 120.5 45.5t59.5 130.5l14 81q-21 -38 -64.5 -61.5t-98.5 -23.5q-51 0 -91 23t-62.5 65.5t-22.5 98.5q0 22 5 52l5 28q19 111 82 172.5t156 61.5q56 0 95 -25t54 -65l14 78h55l-86 -488
q-19 -107 -78.5 -165.5t-162.5 -58.5q-71 0 -116.5 35zM347 109.5q50 49.5 64 130.5l6 36q3 20 3 38q0 65 -37 103.5t-97 38.5q-69 0 -117 -50.5t-63 -135.5l-5 -28q-4 -21 -4 -46q0 -64 34.5 -100t95.5 -36q70 0 120 49.5zM289 587.5q-12 12.5 -12 32.5q0 46 61 99l22 19
l15 -13l-20 -23q-20 -23 -23 -41q14 0 24.5 -11.5t10.5 -26.5q0 -21 -12.5 -34.5t-33.5 -13.5q-20 0 -32 12.5z" />
    <glyph glyph-name="Hcircumflex" unicode="&#x124;" horiz-adv-x="639" 
d="M95 0h-58l124 700h58l-54 -304h361l54 304h58l-124 -700h-58l61 342h-361zM349 785h-55l116 143h61l65 -143h-49l-55 85z" />
    <glyph glyph-name="hcircumflex" unicode="&#x125;" horiz-adv-x="509" 
d="M28 0l124 700h54l-47 -267q20 33 58.5 54t90.5 21q68 0 107 -41.5t39 -106.5q0 -12 -4 -40l-57 -320h-54l56 317q3 18 3 35q0 50 -28.5 78t-81.5 28t-96.5 -40t-53.5 -101l-56 -317h-54zM128 785h-55l116 143h61l65 -143h-49l-55 85z" />
    <glyph glyph-name="Hbar" unicode="&#x126;" horiz-adv-x="639" 
d="M620 596h63l-10 -54h-63l-96 -542h-58l61 342h-361l-61 -342h-58l96 542h-65l10 54h65l18 104h58l-18 -104h361l18 104h58zM165 396h361l26 146h-361z" />
    <glyph glyph-name="hbar" unicode="&#x127;" horiz-adv-x="487" 
d="M415 466.5q39 -41.5 39 -106.5q0 -12 -4 -40l-57 -320h-54l56 317q3 18 3 35q0 50 -28.5 78t-81.5 28t-96.5 -40t-53.5 -101l-56 -317h-54l104 585h-74l8 50h74l12 65h54l-11 -65h162l-8 -50h-163l-27 -152q20 33 58.5 54t90.5 21q68 0 107 -41.5z" />
    <glyph glyph-name="Itilde" unicode="&#x128;" horiz-adv-x="220" 
d="M95 0h-58l124 700h58zM78 834q21 68 88 68q17 0 31.5 -6t30.5 -16q16 -9 25.5 -13.5t20.5 -4.5q17 0 28.5 10t20.5 30l36 -16q-23 -68 -89 -68q-18 0 -31 5.5t-32 16.5q-16 9 -25.5 13.5t-20.5 4.5q-31 0 -47 -39z" />
    <glyph glyph-name="itilde" unicode="&#x129;" horiz-adv-x="198" 
d="M82 0h-54l88 496h54zM31 630q21 68 88 68q17 0 31.5 -6t30.5 -16q16 -9 25.5 -13.5t20.5 -4.5q17 0 28.5 10t20.5 30l36 -16q-23 -68 -89 -68q-18 0 -31 5.5t-32 16.5q-16 9 -25.5 13.5t-20.5 4.5q-31 0 -47 -39z" />
    <glyph glyph-name="Imacron" unicode="&#x12a;" horiz-adv-x="220" 
d="M95 0h-58l124 700h58zM323 830h-220l8 50h220z" />
    <glyph glyph-name="imacron" unicode="&#x12b;" horiz-adv-x="198" 
d="M82 0h-54l88 496h54zM276 626h-220l8 50h220z" />
    <glyph glyph-name="Ibreve" unicode="&#x12c;" horiz-adv-x="220" 
d="M95 0h-58l124 700h58zM143.5 802q-22.5 24 -22.5 60q0 6 2 20h52q-1 -6 -1 -16q0 -40 38 -40q23 0 38 15t20 41h52q-8 -47 -36 -75.5t-80 -28.5q-40 0 -62.5 24z" />
    <glyph glyph-name="ibreve" unicode="&#x12d;" horiz-adv-x="198" 
d="M82 0h-54l88 496h54zM96.5 598q-22.5 24 -22.5 60q0 6 2 20h52q-1 -6 -1 -16q0 -40 38 -40q23 0 38 15t20 41h52q-8 -47 -36 -75.5t-80 -28.5q-40 0 -62.5 24z" />
    <glyph glyph-name="Iogonek" unicode="&#x12e;" horiz-adv-x="220" 
d="M95 0q-37 -17 -61.5 -46t-24.5 -59q0 -19 10.5 -30t27.5 -11q20 0 38 10l-9 -52q-18 -10 -49 -10q-34 0 -55 21.5t-21 59.5q0 39 24.5 75.5t63.5 52.5l122 689h58z" />
    <glyph glyph-name="iogonek" unicode="&#x12f;" horiz-adv-x="198" 
d="M204 684q14 -14 14 -34t-14 -34t-34 -14q-19 0 -33.5 14.5t-14.5 33.5q0 20 14 34t34 14t34 -14zM116 496h54l-88 -496q-37 -17 -61.5 -46t-24.5 -59q0 -19 10.5 -30t27.5 -11q20 0 38 10l-9 -52q-18 -10 -49 -10q-34 0 -55 21.5t-21 59.5q0 39 26 75.5t66 52.5z" />
    <glyph glyph-name="Idotaccent" unicode="&#x130;" horiz-adv-x="220" 
d="M95 0h-58l124 700h58zM183 820.5q-14 14.5 -14 33.5q0 20 14 34t34 14t34 -14t14 -34t-14 -34t-34 -14t-34 14.5z" />
    <glyph glyph-name="dotlessi" unicode="&#x131;" horiz-adv-x="198" 
d="M82 0h-54l88 496h54z" />
    <glyph glyph-name="IJ" unicode="&#x132;" horiz-adv-x="708" 
d="M95 0h-58l124 700h58zM295.5 28q-42.5 42 -56.5 113l59 20q10 -55 38.5 -88t78.5 -33q66 0 101.5 39.5t50.5 122.5l88 498h58l-90 -508q-18 -103 -71.5 -154.5t-146.5 -51.5q-67 0 -109.5 42z" />
    <glyph glyph-name="ij" unicode="&#x133;" horiz-adv-x="396" 
d="M136.5 616.5q-14.5 14.5 -14.5 33.5q0 20 14 34t34 14t34 -14t14 -34t-14 -34t-34 -14q-19 0 -33.5 14.5zM82 0h-54l88 496h54zM334.5 616.5q-14.5 14.5 -14.5 33.5q0 20 14 34t34 14t34 -14t14 -34t-14 -34t-34 -14q-19 0 -33.5 14.5zM87 -201l9 51q24 -12 49 -12
q27 0 43 18t23 55l104 585h54l-103 -582q-12 -69 -41.5 -97.5t-81.5 -28.5q-37 0 -56 11z" />
    <glyph glyph-name="Jcircumflex" unicode="&#x134;" horiz-adv-x="488" 
d="M75.5 28q-42.5 42 -56.5 113l59 20q10 -55 38.5 -88t78.5 -33q66 0 101.5 39.5t50.5 122.5l88 498h58l-90 -508q-18 -103 -71.5 -154.5t-146.5 -51.5q-67 0 -109.5 42zM413 785h-55l116 143h61l65 -143h-49l-55 85z" />
    <glyph glyph-name="jcircumflex" unicode="&#x135;" horiz-adv-x="198" 
d="M-112 -201l9 51q24 -12 49 -12q27 0 43 18t23 55l104 585h54l-103 -582q-12 -69 -41.5 -97.5t-81.5 -28.5q-37 0 -56 11zM90 581h-55l116 143h61l65 -143h-49l-55 85z" />
    <glyph glyph-name="uni0136" unicode="&#x136;" horiz-adv-x="506" 
d="M245 348l185 -348h-65l-174 323h-39l-57 -323h-58l124 700h58l-57 -323h38l280 323h74zM164 -229l-15 13l20 23q20 23 23 41q-14 0 -24.5 11.5t-10.5 26.5q0 21 12.5 34.5t33.5 13.5q20 0 32 -12.5t12 -32.5q0 -46 -61 -99z" />
    <glyph glyph-name="uni0137" unicode="&#x137;" horiz-adv-x="423" 
d="M362 496h71l-238 -248l150 -248h-62l-135 224h-26l-40 -224h-54l124 700h54l-76 -428h20zM119 -229l-15 13l20 23q20 23 23 41q-14 0 -24.5 11.5t-10.5 26.5q0 21 12.5 34.5t33.5 13.5q20 0 32 -12.5t12 -32.5q0 -46 -61 -99z" />
    <glyph glyph-name="kgreenlandic" unicode="&#x138;" horiz-adv-x="423" 
d="M362 496h71l-238 -248l150 -248h-62l-135 224h-26l-40 -224h-54l88 496h54l-40 -224h20z" />
    <glyph glyph-name="Lacute" unicode="&#x139;" horiz-adv-x="504" 
d="M419 0h-382l124 700h58l-114 -646h324zM232 785h-52l96 143h78z" />
    <glyph glyph-name="lacute" unicode="&#x13a;" horiz-adv-x="235" 
d="M64.5 13q-20.5 25 -20.5 63q0 17 2 25l106 599h54l-106 -600q-1 -5 -1 -15q0 -21 10.5 -34t29.5 -13q22 0 44 12l-9 -51q-24 -11 -55 -11q-34 0 -54.5 25zM221 785h-52l96 143h78z" />
    <glyph glyph-name="uni013B" unicode="&#x13b;" horiz-adv-x="504" 
d="M419 0h-382l124 700h58l-114 -646h324zM174 -229l-15 13l20 23q20 23 23 41q-14 0 -24.5 11.5t-10.5 26.5q0 21 12.5 34.5t33.5 13.5q20 0 32 -12.5t12 -32.5q0 -46 -61 -99z" />
    <glyph glyph-name="uni013C" unicode="&#x13c;" horiz-adv-x="235" 
d="M64.5 13q-20.5 25 -20.5 63q0 17 2 25l106 599h54l-106 -600q-1 -5 -1 -15q0 -21 10.5 -34t29.5 -13q22 0 44 12l-9 -51q-24 -11 -55 -11q-34 0 -54.5 25zM61 -229l-15 13l20 23q20 23 23 41q-14 0 -24.5 11.5t-10.5 26.5q0 21 12.5 34.5t33.5 13.5q20 0 32 -12.5
t12 -32.5q0 -46 -61 -99z" />
    <glyph glyph-name="Lcaron" unicode="&#x13d;" horiz-adv-x="504" 
d="M419 0h-382l124 700h58l-114 -646h324zM443 499l-18 15l34 53q21 33 25 44q-14 4 -24.5 16t-10.5 27q0 25 15 39.5t38 14.5q21 0 33 -14t12 -35q0 -25 -12.5 -44.5t-48.5 -63.5z" />
    <glyph glyph-name="lcaron" unicode="&#x13e;" horiz-adv-x="300" 
d="M64.5 13q-20.5 25 -20.5 63q0 17 2 25l106 599h54l-106 -600q-1 -5 -1 -15q0 -21 10.5 -34t29.5 -13q22 0 44 12l-9 -51q-24 -11 -55 -11q-34 0 -54.5 25zM274 499l-18 15l34 53q21 33 25 44q-14 4 -24.5 16t-10.5 27q0 25 15 39.5t38 14.5q21 0 33 -14t12 -35
q0 -25 -12.5 -44.5t-48.5 -63.5z" />
    <glyph glyph-name="Ldot" unicode="&#x13f;" horiz-adv-x="488" 
d="M419 0h-382l124 700h58l-114 -646h324zM318.5 316.5q-14.5 14.5 -14.5 33.5q0 21 14 35t34 14q21 0 35 -14t14 -35q0 -20 -14 -34t-35 -14q-19 0 -33.5 14.5z" />
    <glyph glyph-name="ldot" unicode="&#x140;" horiz-adv-x="358" 
d="M64.5 13q-20.5 25 -20.5 63q0 17 2 25l106 599h54l-106 -600q-1 -5 -1 -15q0 -21 10.5 -34t29.5 -13q22 0 44 12l-9 -51q-24 -11 -55 -11q-34 0 -54.5 25zM261.5 316.5q-14.5 14.5 -14.5 33.5q0 21 14 35t34 14q21 0 35 -14t14 -35q0 -20 -14 -34t-35 -14
q-19 0 -33.5 14.5z" />
    <glyph glyph-name="Lslash" unicode="&#x141;" horiz-adv-x="546" 
d="M182 252l-35 -198h324l-10 -54h-382l37 207l-95 -64l12 68l95 64l75 425h58l-67 -380l162 110l-12 -68z" />
    <glyph glyph-name="lslash" unicode="&#x142;" horiz-adv-x="220" 
d="M135 301l-35 -201q-1 -5 -1 -15q0 -21 10.5 -34t29.5 -13q22 0 44 12l-9 -51q-24 -11 -55 -11q-34 0 -54.5 25t-20.5 63q0 17 2 25l27 155l-87 -64l11 65l88 64l67 379h54l-59 -334l82 60l-11 -65z" />
    <glyph glyph-name="Nacute" unicode="&#x143;" horiz-adv-x="599" 
d="M94 0h-57l124 700h63l214 -581l103 581h57l-124 -700h-50l-222 605zM422 785h-52l96 143h78z" />
    <glyph glyph-name="nacute" unicode="&#x144;" horiz-adv-x="503" 
d="M28 0l88 496h54l-11 -62q22 35 56 54.5t87 19.5q67 0 106.5 -40t39.5 -105q0 -12 -4 -40l-58 -323h-54l57 322q3 17 3 31q0 48 -29 76.5t-77 28.5q-55 0 -95.5 -37.5t-51.5 -99.5l-57 -321h-54zM337 581h-52l96 143h78z" />
    <glyph glyph-name="uni0145" unicode="&#x145;" horiz-adv-x="599" 
d="M94 0h-57l124 700h63l214 -581l103 581h57l-124 -700h-50l-222 605zM200 -229l-15 13l20 23q20 23 23 41q-14 0 -24.5 11.5t-10.5 26.5q0 21 12.5 34.5t33.5 13.5q20 0 32 -12.5t12 -32.5q0 -46 -61 -99z" />
    <glyph glyph-name="uni0146" unicode="&#x146;" horiz-adv-x="503" 
d="M28 0l88 496h54l-11 -62q22 35 56 54.5t87 19.5q67 0 106.5 -40t39.5 -105q0 -12 -4 -40l-58 -323h-54l57 322q3 17 3 31q0 48 -29 76.5t-77 28.5q-55 0 -95.5 -37.5t-51.5 -99.5l-57 -321h-54zM151 -229l-15 13l20 23q20 23 23 41q-14 0 -24.5 11.5t-10.5 26.5
q0 21 12.5 34.5t33.5 13.5q20 0 32 -12.5t12 -32.5q0 -46 -61 -99z" />
    <glyph glyph-name="Ncaron" unicode="&#x147;" horiz-adv-x="599" 
d="M94 0h-57l124 700h63l214 -581l103 581h57l-124 -700h-50l-222 605zM426 785h-61l-65 143h49l55 -85l83 85h55z" />
    <glyph glyph-name="ncaron" unicode="&#x148;" horiz-adv-x="503" 
d="M28 0l88 496h54l-11 -62q22 35 56 54.5t87 19.5q67 0 106.5 -40t39.5 -105q0 -12 -4 -40l-58 -323h-54l57 322q3 17 3 31q0 48 -29 76.5t-77 28.5q-55 0 -95.5 -37.5t-51.5 -99.5l-57 -321h-54zM341 581h-61l-65 143h49l55 -85l83 85h55z" />
    <glyph glyph-name="Eng" unicode="&#x14a;" horiz-adv-x="599" 
d="M241 -203q-28 13 -48 36l42 46q25 -41 76 -41q78 0 97 109l11 62l-217 595l-108 -604h-57l124 700h63l214 -581l103 581h57l-133 -751q-16 -87 -54 -126t-109 -39q-33 0 -61 13z" />
    <glyph glyph-name="eng" unicode="&#x14b;" horiz-adv-x="503" 
d="M192 -201l9 51q24 -12 49 -12q27 0 43 18t23 55l73 411q3 17 3 31q0 48 -29 76.5t-77 28.5q-55 0 -95.5 -37.5t-51.5 -99.5l-57 -321h-54l88 496h54l-11 -62q22 35 56 54.5t87 19.5q67 0 106.5 -40t39.5 -105q0 -12 -4 -40l-73 -409q-12 -69 -41.5 -97.5t-81.5 -28.5
q-37 0 -56 11z" />
    <glyph glyph-name="Omacron" unicode="&#x14c;" horiz-adv-x="690" 
d="M178.5 22q-57.5 36 -88.5 98t-31 137q0 33 6 66l12 68q28 158 115 240.5t221 82.5q76 0 133.5 -36.5t89 -98.5t31.5 -137q0 -32 -6 -65l-12 -68q-28 -159 -114.5 -241t-221.5 -82q-77 0 -134.5 36zM498 111.5q74 72.5 95 207.5l10 62q4 25 4 54q0 66 -25.5 117.5
t-70.5 80t-101 28.5q-108 0 -182 -72.5t-95 -207.5l-10 -62q-5 -33 -5 -58q0 -65 24.5 -115.5t69.5 -78.5t104 -28q108 0 182 72.5zM558 830h-220l8 50h220z" />
    <glyph glyph-name="omacron" unicode="&#x14d;" 
d="M132 13q-44 25 -68.5 70t-24.5 102q0 25 4 48l7 39q20 113 85.5 174.5t162.5 61.5q58 0 102.5 -25t69 -70t24.5 -104q0 -25 -4 -46l-6 -37q-19 -113 -85 -175.5t-165 -62.5q-58 0 -102 25zM362 91.5q52 51.5 66 137.5l6 37q3 21 3 40q0 69 -39 109.5t-99 40.5
q-76 0 -126.5 -51t-66.5 -138l-7 -37q-4 -20 -4 -43q0 -66 39.5 -106.5t98.5 -40.5q77 0 129 51.5zM443 626h-220l8 50h220z" />
    <glyph glyph-name="Obreve" unicode="&#x14e;" horiz-adv-x="690" 
d="M178.5 22q-57.5 36 -88.5 98t-31 137q0 33 6 66l12 68q28 158 115 240.5t221 82.5q76 0 133.5 -36.5t89 -98.5t31.5 -137q0 -32 -6 -65l-12 -68q-28 -159 -114.5 -241t-221.5 -82q-77 0 -134.5 36zM498 111.5q74 72.5 95 207.5l10 62q4 25 4 54q0 66 -25.5 117.5
t-70.5 80t-101 28.5q-108 0 -182 -72.5t-95 -207.5l-10 -62q-5 -33 -5 -58q0 -65 24.5 -115.5t69.5 -78.5t104 -28q108 0 182 72.5zM378.5 802q-22.5 24 -22.5 60q0 6 2 20h52q-1 -6 -1 -16q0 -40 38 -40q23 0 38 15t20 41h52q-8 -47 -36 -75.5t-80 -28.5q-40 0 -62.5 24z
" />
    <glyph glyph-name="obreve" unicode="&#x14f;" 
d="M132 13q-44 25 -68.5 70t-24.5 102q0 25 4 48l7 39q20 113 85.5 174.5t162.5 61.5q58 0 102.5 -25t69 -70t24.5 -104q0 -25 -4 -46l-6 -37q-19 -113 -85 -175.5t-165 -62.5q-58 0 -102 25zM362 91.5q52 51.5 66 137.5l6 37q3 21 3 40q0 69 -39 109.5t-99 40.5
q-76 0 -126.5 -51t-66.5 -138l-7 -37q-4 -20 -4 -43q0 -66 39.5 -106.5t98.5 -40.5q77 0 129 51.5zM263.5 598q-22.5 24 -22.5 60q0 6 2 20h52q-1 -6 -1 -16q0 -40 38 -40q23 0 38 15t20 41h52q-8 -47 -36 -75.5t-80 -28.5q-40 0 -62.5 24z" />
    <glyph glyph-name="Ohungarumlaut" unicode="&#x150;" horiz-adv-x="690" 
d="M178.5 22q-57.5 36 -88.5 98t-31 137q0 33 6 66l12 68q28 158 115 240.5t221 82.5q76 0 133.5 -36.5t89 -98.5t31.5 -137q0 -32 -6 -65l-12 -68q-28 -159 -114.5 -241t-221.5 -82q-77 0 -134.5 36zM498 111.5q74 72.5 95 207.5l10 62q4 25 4 54q0 66 -25.5 117.5
t-70.5 80t-101 28.5q-108 0 -182 -72.5t-95 -207.5l-10 -62q-5 -33 -5 -58q0 -65 24.5 -115.5t69.5 -78.5t104 -28q108 0 182 72.5zM386 785h-49l74 143h76zM546 785h-49l74 143h76z" />
    <glyph glyph-name="ohungarumlaut" unicode="&#x151;" 
d="M132 13q-44 25 -68.5 70t-24.5 102q0 25 4 48l7 39q20 113 85.5 174.5t162.5 61.5q58 0 102.5 -25t69 -70t24.5 -104q0 -25 -4 -46l-6 -37q-19 -113 -85 -175.5t-165 -62.5q-58 0 -102 25zM362 91.5q52 51.5 66 137.5l6 37q3 21 3 40q0 69 -39 109.5t-99 40.5
q-76 0 -126.5 -51t-66.5 -138l-7 -37q-4 -20 -4 -43q0 -66 39.5 -106.5t98.5 -40.5q77 0 129 51.5zM271 581h-49l74 143h76zM431 581h-49l74 143h76z" />
    <glyph glyph-name="OE" unicode="&#x152;" horiz-adv-x="1045" 
d="M178.5 22q-57.5 36 -88.5 98t-31 137q0 33 6 66l12 68q28 158 115 240.5t221 82.5q80 0 139 -40t85 -110l24 136h403l-10 -54h-345l-45 -258h293l-10 -54h-293l-49 -280h349l-10 -54h-407l21 116q-44 -69 -104.5 -99.5t-140.5 -30.5q-77 0 -134.5 36zM496 111.5
q73 72.5 97 207.5l11 62q5 25 5 57q0 65 -26 115.5t-71.5 79t-101.5 28.5q-108 0 -182 -72.5t-95 -207.5l-10 -62q-5 -33 -5 -58q0 -65 24.5 -115.5t69.5 -78.5t104 -28q107 0 180 72.5z" />
    <glyph glyph-name="oe" unicode="&#x153;" horiz-adv-x="900" 
d="M777.5 485.5q39.5 -22.5 62 -65t22.5 -99.5q0 -25 -4 -48l-5 -32h-367l-1 -8q-4 -23 -4 -48q0 -67 34 -106t92 -39t98 26.5t67 76.5l47 -25q-73 -130 -216 -130q-59 0 -103 32t-62 87q-33 -58 -84.5 -88.5t-119.5 -30.5q-57 0 -101.5 25t-69 69.5t-24.5 101.5q0 26 4 49
l7 40q20 110 85.5 172.5t162.5 62.5q67 0 114.5 -32.5t66.5 -89.5q33 59 86 90.5t123 31.5q50 0 89.5 -22.5zM361.5 92q51.5 52 66.5 139l6 35q4 28 4 41q0 68 -39.5 108.5t-99.5 40.5q-76 0 -127.5 -53t-67.5 -146l-5 -27q-4 -28 -4 -41q0 -68 39 -108.5t99 -40.5
q77 0 128.5 52zM563.5 411.5q-48.5 -44.5 -68.5 -123.5h311q2 20 2 30q0 64 -36.5 101t-92.5 37q-67 0 -115.5 -44.5z" />
    <glyph glyph-name="Racute" unicode="&#x154;" horiz-adv-x="555" 
d="M37 0l124 700h221q75 0 119.5 -42.5t44.5 -115.5t-38 -120.5t-100 -64.5q27 -10 39.5 -32t11.5 -68l-5 -257h-57l4 244q1 51 -14 70t-58 19h-175l-59 -333h-58zM324 386q78 0 120 39t42 107q0 53 -32.5 83.5t-88.5 30.5h-156l-46 -260h161zM400 785h-52l96 143h78z" />
    <glyph glyph-name="racute" unicode="&#x155;" horiz-adv-x="338" 
d="M28 0l88 496h54l-10 -58q16 33 50.5 51.5t79.5 18.5q28 0 55 -9l-9 -53q-27 12 -63 12q-48 0 -86 -37.5t-48 -97.5l-57 -323h-54zM279 581h-52l96 143h78z" />
    <glyph glyph-name="uni0156" unicode="&#x156;" horiz-adv-x="555" 
d="M37 0l124 700h221q75 0 119.5 -42.5t44.5 -115.5t-38 -120.5t-100 -64.5q27 -10 39.5 -32t11.5 -68l-5 -257h-57l4 244q1 51 -14 70t-58 19h-175l-59 -333h-58zM324 386q78 0 120 39t42 107q0 53 -32.5 83.5t-88.5 30.5h-156l-46 -260h161zM178 -229l-15 13l20 23
q20 23 23 41q-14 0 -24.5 11.5t-10.5 26.5q0 21 12.5 34.5t33.5 13.5q20 0 32 -12.5t12 -32.5q0 -46 -61 -99z" />
    <glyph glyph-name="uni0157" unicode="&#x157;" horiz-adv-x="338" 
d="M28 0l88 496h54l-10 -58q16 33 50.5 51.5t79.5 18.5q28 0 55 -9l-9 -53q-27 12 -63 12q-48 0 -86 -37.5t-48 -97.5l-57 -323h-54zM-1 -229l-15 13l20 23q20 23 23 41q-14 0 -24.5 11.5t-10.5 26.5q0 21 12.5 34.5t33.5 13.5q20 0 32 -12.5t12 -32.5q0 -46 -61 -99z" />
    <glyph glyph-name="Rcaron" unicode="&#x158;" horiz-adv-x="555" 
d="M37 0l124 700h221q75 0 119.5 -42.5t44.5 -115.5t-38 -120.5t-100 -64.5q27 -10 39.5 -32t11.5 -68l-5 -257h-57l4 244q1 51 -14 70t-58 19h-175l-59 -333h-58zM324 386q78 0 120 39t42 107q0 53 -32.5 83.5t-88.5 30.5h-156l-46 -260h161zM404 785h-61l-65 143h49
l55 -85l83 85h55z" />
    <glyph glyph-name="rcaron" unicode="&#x159;" horiz-adv-x="338" 
d="M28 0l88 496h54l-10 -58q16 33 50.5 51.5t79.5 18.5q28 0 55 -9l-9 -53q-27 12 -63 12q-48 0 -86 -37.5t-48 -97.5l-57 -323h-54zM283 581h-61l-65 143h49l55 -85l83 85h55z" />
    <glyph glyph-name="Sacute" unicode="&#x15a;" horiz-adv-x="539" 
d="M96 33.5q-50 47.5 -66 127.5l56 25q16 -72 53 -109t101 -37q78 0 129 42t51 110q0 58 -32.5 89.5t-106.5 59.5q-81 31 -123 77t-42 116q0 83 58.5 130.5t162.5 47.5q73 0 124.5 -37t70.5 -105l-53 -25q-15 54 -55.5 83.5t-92.5 29.5q-71 0 -113.5 -33t-42.5 -91
q0 -49 33.5 -82t109.5 -62q79 -30 121 -72.5t42 -109.5q0 -64 -29.5 -114.5t-84.5 -79t-129 -28.5q-92 0 -142 47.5zM392 785h-52l96 143h78z" />
    <glyph glyph-name="sacute" unicode="&#x15b;" horiz-adv-x="437" 
d="M79 20.5q-39 34.5 -52 89.5l51 22q14 -47 40 -71.5t71 -24.5q56 0 89.5 27.5t33.5 76.5q0 35 -24 55t-75 35q-60 18 -92 54.5t-32 84.5q0 63 43.5 100t119.5 37q57 0 96 -28t54 -79l-49 -19q-11 39 -41 58.5t-67 19.5q-44 0 -73.5 -22.5t-29.5 -61.5q0 -36 23 -58.5
t74 -39.5q64 -21 96 -51.5t32 -80.5q0 -70 -50.5 -114t-132.5 -44q-66 0 -105 34.5zM307 581h-52l96 143h78z" />
    <glyph glyph-name="Scircumflex" unicode="&#x15c;" horiz-adv-x="539" 
d="M96 33.5q-50 47.5 -66 127.5l56 25q16 -72 53 -109t101 -37q78 0 129 42t51 110q0 58 -32.5 89.5t-106.5 59.5q-81 31 -123 77t-42 116q0 83 58.5 130.5t162.5 47.5q73 0 124.5 -37t70.5 -105l-53 -25q-15 54 -55.5 83.5t-92.5 29.5q-71 0 -113.5 -33t-42.5 -91
q0 -49 33.5 -82t109.5 -62q79 -30 121 -72.5t42 -109.5q0 -64 -29.5 -114.5t-84.5 -79t-129 -28.5q-92 0 -142 47.5zM299 785h-55l116 143h61l65 -143h-49l-55 85z" />
    <glyph glyph-name="scircumflex" unicode="&#x15d;" horiz-adv-x="437" 
d="M79 20.5q-39 34.5 -52 89.5l51 22q14 -47 40 -71.5t71 -24.5q56 0 89.5 27.5t33.5 76.5q0 35 -24 55t-75 35q-60 18 -92 54.5t-32 84.5q0 63 43.5 100t119.5 37q57 0 96 -28t54 -79l-49 -19q-11 39 -41 58.5t-67 19.5q-44 0 -73.5 -22.5t-29.5 -61.5q0 -36 23 -58.5
t74 -39.5q64 -21 96 -51.5t32 -80.5q0 -70 -50.5 -114t-132.5 -44q-66 0 -105 34.5zM214 581h-55l116 143h61l65 -143h-49l-55 85z" />
    <glyph glyph-name="Scedilla" unicode="&#x15e;" horiz-adv-x="539" 
d="M439 317.5q42 -42.5 42 -109.5q0 -64 -29.5 -114.5t-84.5 -79t-129 -28.5q-17 0 -25 1l-19 -41q19 11 42 11q33 0 54 -21t21 -55q0 -44 -28 -70.5t-76 -26.5t-80 18l20 42q10 -7 26.5 -11.5t33.5 -4.5q25 0 39 13.5t14 37.5q0 17 -11 28t-27 11q-25 0 -44 -17l-32 21
l28 71q-116 30 -144 168l56 25q16 -72 53 -109t101 -37q78 0 129 42t51 110q0 58 -32.5 89.5t-106.5 59.5q-81 31 -123 77t-42 116q0 83 58.5 130.5t162.5 47.5q73 0 124.5 -37t70.5 -105l-53 -25q-15 54 -55.5 83.5t-92.5 29.5q-71 0 -113.5 -33t-42.5 -91q0 -49 33.5 -82
t109.5 -62q79 -30 121 -72.5z" />
    <glyph glyph-name="scedilla" unicode="&#x15f;" horiz-adv-x="437" 
d="M335 224.5q32 -30.5 32 -80.5q0 -70 -50.5 -114t-132.5 -44q-16 0 -24 1l-19 -41q19 11 42 11q33 0 54 -21t21 -55q0 -44 -28 -70.5t-76 -26.5q-49 0 -80 18l20 42q10 -7 26.5 -11.5t33.5 -4.5q25 0 39 13.5t14 37.5q0 17 -11 28t-27 11q-25 0 -44 -17l-32 21l30 74
q-39 14 -62.5 44t-33.5 70l51 22q14 -47 40 -71.5t71 -24.5q56 0 89.5 27.5t33.5 76.5q0 35 -24 55t-75 35q-60 18 -92 54.5t-32 84.5q0 63 43.5 100t119.5 37q57 0 96 -28t54 -79l-49 -19q-11 39 -41 58.5t-67 19.5q-44 0 -73.5 -22.5t-29.5 -61.5q0 -36 23 -58.5t74 -39.5
q64 -21 96 -51.5z" />
    <glyph glyph-name="Scaron" unicode="&#x160;" horiz-adv-x="539" 
d="M96 33.5q-50 47.5 -66 127.5l56 25q16 -72 53 -109t101 -37q78 0 129 42t51 110q0 58 -32.5 89.5t-106.5 59.5q-81 31 -123 77t-42 116q0 83 58.5 130.5t162.5 47.5q73 0 124.5 -37t70.5 -105l-53 -25q-15 54 -55.5 83.5t-92.5 29.5q-71 0 -113.5 -33t-42.5 -91
q0 -49 33.5 -82t109.5 -62q79 -30 121 -72.5t42 -109.5q0 -64 -29.5 -114.5t-84.5 -79t-129 -28.5q-92 0 -142 47.5zM396 785h-61l-65 143h49l55 -85l83 85h55z" />
    <glyph glyph-name="scaron" unicode="&#x161;" horiz-adv-x="437" 
d="M79 20.5q-39 34.5 -52 89.5l51 22q14 -47 40 -71.5t71 -24.5q56 0 89.5 27.5t33.5 76.5q0 35 -24 55t-75 35q-60 18 -92 54.5t-32 84.5q0 63 43.5 100t119.5 37q57 0 96 -28t54 -79l-49 -19q-11 39 -41 58.5t-67 19.5q-44 0 -73.5 -22.5t-29.5 -61.5q0 -36 23 -58.5
t74 -39.5q64 -21 96 -51.5t32 -80.5q0 -70 -50.5 -114t-132.5 -44q-66 0 -105 34.5zM311 581h-61l-65 143h49l55 -85l83 85h55z" />
    <glyph glyph-name="uni0162" unicode="&#x162;" horiz-adv-x="515" 
d="M242 0h-46l-25 -54q19 11 42 11q33 0 54 -21t21 -55q0 -44 -28 -70.5t-76 -26.5t-80 18l20 42q10 -7 26.5 -11.5t33.5 -4.5q25 0 39 13.5t14 37.5q0 17 -11 28t-27 11q-25 0 -44 -17l-32 21l36 90h27l112 634h-198l10 54h455l-10 -54h-199z" />
    <glyph glyph-name="uni0163" unicode="&#x163;" horiz-adv-x="343" 
d="M209 446l-59 -335q-2 -12 -2 -16q0 -26 15.5 -41.5t41.5 -15.5q36 0 72 18l-10 -54q-35 -14 -80 -14q-7 0 -19 2l-21 -44q19 11 42 11q33 0 54 -21t21 -55q0 -44 -28 -70.5t-76 -26.5t-80 18l20 42q10 -7 26.5 -11.5t33.5 -4.5q25 0 39 13.5t14 37.5q0 17 -11 28t-27 11
q-25 0 -44 -17l-32 21l33 83q-39 29 -39 85q0 14 3 29l58 327h-94l9 50h94l16 91l60 30l-21 -121h136l-9 -50h-136z" />
    <glyph glyph-name="Tcaron" unicode="&#x164;" horiz-adv-x="515" 
d="M565 700l-10 -54h-199l-114 -646h-58l114 646h-198l10 54h455zM383 785h-61l-65 143h49l55 -85l83 85h55z" />
    <glyph glyph-name="tcaron" unicode="&#x165;" horiz-adv-x="343" 
d="M209 446l-59 -335q-2 -12 -2 -16q0 -26 15.5 -41.5t41.5 -15.5q36 0 72 18l-10 -54q-35 -14 -80 -14q-41 0 -67.5 28t-26.5 74q0 14 3 29l58 327h-94l9 50h94l16 91l60 30l-21 -121h136l-9 -50h-136zM310 539l-18 15l34 53q21 33 25 44q-14 4 -24.5 16t-10.5 27
q0 25 15 39.5t38 14.5q21 0 33 -14t12 -35q0 -25 -12.5 -44.5t-48.5 -63.5z" />
    <glyph glyph-name="Tbar" unicode="&#x166;" horiz-adv-x="493" 
d="M565 700l-10 -54h-199l-46 -260h126l-10 -54h-125l-59 -332h-58l59 332h-126l10 54h125l46 260h-198l10 54h455z" />
    <glyph glyph-name="tbar" unicode="&#x167;" horiz-adv-x="344" 
d="M345 446h-136l-31 -173h113l-8 -50h-113l-20 -112q-2 -12 -2 -16q0 -26 15.5 -41.5t41.5 -15.5q36 0 72 18l-10 -54q-35 -14 -80 -14q-41 0 -67.5 28t-26.5 74q0 14 3 29l18 104h-81l8 50h82l31 173h-94l9 50h94l16 91l60 30l-21 -121h136z" />
    <glyph glyph-name="Utilde" unicode="&#x168;" horiz-adv-x="602" 
d="M120 39.5q-51 53.5 -51 142.5q0 33 5 58l81 460h58l-82 -463q-4 -23 -4 -49q0 -68 37 -108t101 -40q86 0 134 46.5t67 150.5l82 463h59l-81 -460q-22 -121 -87.5 -187.5t-176.5 -66.5q-91 0 -142 53.5zM269 834q21 68 88 68q17 0 31.5 -6t30.5 -16q16 -9 25.5 -13.5
t20.5 -4.5q17 0 28.5 10t20.5 30l36 -16q-23 -68 -89 -68q-18 0 -31 5.5t-32 16.5q-16 9 -25.5 13.5t-20.5 4.5q-31 0 -47 -39z" />
    <glyph glyph-name="utilde" unicode="&#x169;" horiz-adv-x="503" 
d="M94.5 28q-39.5 40 -39.5 105q0 12 4 40l58 323h54l-57 -322q-3 -16 -3 -31q0 -48 29 -76.5t77 -28.5q55 0 95.5 37.5t51.5 99.5l57 321h54l-88 -496h-54l11 62q-22 -35 -56 -54.5t-87 -19.5q-67 0 -106.5 40zM184 630q21 68 88 68q17 0 31.5 -6t30.5 -16
q16 -9 25.5 -13.5t20.5 -4.5q17 0 28.5 10t20.5 30l36 -16q-23 -68 -89 -68q-18 0 -31 5.5t-32 16.5q-16 9 -25.5 13.5t-20.5 4.5q-31 0 -47 -39z" />
    <glyph glyph-name="Umacron" unicode="&#x16a;" horiz-adv-x="602" 
d="M120 39.5q-51 53.5 -51 142.5q0 33 5 58l81 460h58l-82 -463q-4 -23 -4 -49q0 -68 37 -108t101 -40q86 0 134 46.5t67 150.5l82 463h59l-81 -460q-22 -121 -87.5 -187.5t-176.5 -66.5q-91 0 -142 53.5zM514 830h-220l8 50h220z" />
    <glyph glyph-name="umacron" unicode="&#x16b;" horiz-adv-x="503" 
d="M94.5 28q-39.5 40 -39.5 105q0 12 4 40l58 323h54l-57 -322q-3 -16 -3 -31q0 -48 29 -76.5t77 -28.5q55 0 95.5 37.5t51.5 99.5l57 321h54l-88 -496h-54l11 62q-22 -35 -56 -54.5t-87 -19.5q-67 0 -106.5 40zM429 626h-220l8 50h220z" />
    <glyph glyph-name="Ubreve" unicode="&#x16c;" horiz-adv-x="602" 
d="M120 39.5q-51 53.5 -51 142.5q0 33 5 58l81 460h58l-82 -463q-4 -23 -4 -49q0 -68 37 -108t101 -40q86 0 134 46.5t67 150.5l82 463h59l-81 -460q-22 -121 -87.5 -187.5t-176.5 -66.5q-91 0 -142 53.5zM334.5 802q-22.5 24 -22.5 60q0 6 2 20h52q-1 -6 -1 -16
q0 -40 38 -40q23 0 38 15t20 41h52q-8 -47 -36 -75.5t-80 -28.5q-40 0 -62.5 24z" />
    <glyph glyph-name="ubreve" unicode="&#x16d;" horiz-adv-x="503" 
d="M94.5 28q-39.5 40 -39.5 105q0 12 4 40l58 323h54l-57 -322q-3 -16 -3 -31q0 -48 29 -76.5t77 -28.5q55 0 95.5 37.5t51.5 99.5l57 321h54l-88 -496h-54l11 62q-22 -35 -56 -54.5t-87 -19.5q-67 0 -106.5 40zM249.5 598q-22.5 24 -22.5 60q0 6 2 20h52q-1 -6 -1 -16
q0 -40 38 -40q23 0 38 15t20 41h52q-8 -47 -36 -75.5t-80 -28.5q-40 0 -62.5 24z" />
    <glyph glyph-name="Uring" unicode="&#x16e;" horiz-adv-x="602" 
d="M120 39.5q-51 53.5 -51 142.5q0 33 5 58l81 460h58l-82 -463q-4 -23 -4 -49q0 -68 37 -108t101 -40q86 0 134 46.5t67 150.5l82 463h59l-81 -460q-22 -121 -87.5 -187.5t-176.5 -66.5q-91 0 -142 53.5zM339 790.5q-23 23.5 -23 62.5q0 48 30 80t75 32q37 0 59.5 -24
t22.5 -62q0 -47 -29.5 -79.5t-74.5 -32.5q-37 0 -60 23.5zM441.5 829q14.5 18 14.5 45q0 21 -10.5 34t-29.5 13q-23 0 -37.5 -18t-14.5 -45q0 -21 10.5 -34t29.5 -13q23 0 37.5 18z" />
    <glyph glyph-name="uring" unicode="&#x16f;" horiz-adv-x="503" 
d="M94.5 28q-39.5 40 -39.5 105q0 12 4 40l58 323h54l-57 -322q-3 -16 -3 -31q0 -48 29 -76.5t77 -28.5q55 0 95.5 37.5t51.5 99.5l57 321h54l-88 -496h-54l11 62q-22 -35 -56 -54.5t-87 -19.5q-67 0 -106.5 40zM254 586.5q-23 23.5 -23 62.5q0 48 30 80t75 32
q37 0 59.5 -24t22.5 -62q0 -47 -29.5 -79.5t-74.5 -32.5q-37 0 -60 23.5zM356.5 625q14.5 18 14.5 45q0 21 -10.5 34t-29.5 13q-23 0 -37.5 -18t-14.5 -45q0 -21 10.5 -34t29.5 -13q23 0 37.5 18z" />
    <glyph glyph-name="Uhungarumlaut" unicode="&#x170;" horiz-adv-x="602" 
d="M120 39.5q-51 53.5 -51 142.5q0 33 5 58l81 460h58l-82 -463q-4 -23 -4 -49q0 -68 37 -108t101 -40q86 0 134 46.5t67 150.5l82 463h59l-81 -460q-22 -121 -87.5 -187.5t-176.5 -66.5q-91 0 -142 53.5zM342 785h-49l74 143h76zM502 785h-49l74 143h76z" />
    <glyph glyph-name="uhungarumlaut" unicode="&#x171;" horiz-adv-x="503" 
d="M94.5 28q-39.5 40 -39.5 105q0 12 4 40l58 323h54l-57 -322q-3 -16 -3 -31q0 -48 29 -76.5t77 -28.5q55 0 95.5 37.5t51.5 99.5l57 321h54l-88 -496h-54l11 62q-22 -35 -56 -54.5t-87 -19.5q-67 0 -106.5 40zM257 581h-49l74 143h76zM417 581h-49l74 143h76z" />
    <glyph glyph-name="Uogonek" unicode="&#x172;" horiz-adv-x="602" 
d="M548 700h59l-81 -460q-19 -102 -68 -165.5t-130 -81.5q-32 -18 -52 -44.5t-20 -53.5q0 -19 10.5 -30t27.5 -11q20 0 38 10l-9 -52q-18 -10 -49 -10q-34 0 -55 21.5t-21 59.5q0 28 13 55.5t36 47.5q-84 4 -131 57.5t-47 138.5q0 33 5 58l81 460h58l-82 -463q-4 -23 -4 -49
q0 -68 37 -108t101 -40q86 0 134 46.5t67 150.5z" />
    <glyph glyph-name="uogonek" unicode="&#x173;" horiz-adv-x="503" 
d="M387 0q-37 -17 -61.5 -46t-24.5 -59q0 -19 10.5 -30t27.5 -11q20 0 38 10l-9 -52q-18 -10 -49 -10q-34 0 -55 21.5t-21 59.5q0 39 26 75t66 53l9 51q-22 -35 -56 -54.5t-87 -19.5q-67 0 -106.5 40t-39.5 105q0 12 4 40l58 323h54l-57 -322q-3 -16 -3 -31q0 -48 29 -76.5
t77 -28.5q55 0 95.5 37.5t51.5 99.5l57 321h54z" />
    <glyph glyph-name="Wcircumflex" unicode="&#x174;" horiz-adv-x="801" 
d="M205 0h-71l-28 700h57l22 -617l255 578h64l53 -578l237 617h61l-275 -700h-72l-49 576zM430 785h-55l116 143h61l65 -143h-49l-55 85z" />
    <glyph glyph-name="wcircumflex" unicode="&#x175;" horiz-adv-x="637" 
d="M158 0h-61l-36 496h56l23 -417l191 417h59l45 -417l171 417h58l-210 -496h-60l-43 426zM312 581h-55l116 143h61l65 -143h-49l-55 85z" />
    <glyph glyph-name="Ycircumflex" unicode="&#x176;" horiz-adv-x="517" 
d="M243 0h-58l52 291l-140 409h63l115 -347l235 347h70l-285 -409zM287 785h-55l116 143h61l65 -143h-49l-55 85z" />
    <glyph glyph-name="ycircumflex" unicode="&#x177;" horiz-adv-x="455" 
d="M419 496h60l-321 -590q-37 -68 -73 -93t-92 -25q-31 0 -57 11l9 55q32 -16 59 -16q35 0 58.5 20.5t49.5 68.5l47 86l-97 483h58l77 -411zM220 581h-55l116 143h61l65 -143h-49l-55 85z" />
    <glyph glyph-name="Ydieresis" unicode="&#x178;" horiz-adv-x="517" 
d="M243 0h-58l52 291l-140 409h63l115 -347l235 347h70l-285 -409zM229.5 820.5q-14.5 14.5 -14.5 33.5q0 20 14.5 34t34.5 14t34 -14t14 -34t-14 -34t-34 -14t-34.5 14.5zM432 820.5q-14 14.5 -14 33.5q0 20 14 34t34 14t34.5 -14t14.5 -34t-14.5 -34t-34.5 -14t-34 14.5z
" />
    <glyph glyph-name="Zacute" unicode="&#x179;" horiz-adv-x="498" 
d="M406 0h-411l10 54l436 592h-321l10 54h387l-10 -54l-435 -592h344zM367 785h-52l96 143h78z" />
    <glyph glyph-name="zacute" unicode="&#x17a;" horiz-adv-x="414" 
d="M329 0h-343l9 50l336 396h-256l9 50h319l-9 -50l-335 -396h279zM289 581h-52l96 143h78z" />
    <glyph glyph-name="Zdotaccent" unicode="&#x17b;" horiz-adv-x="498" 
d="M406 0h-411l10 54l436 592h-321l10 54h387l-10 -54l-435 -592h344zM318 820.5q-14 14.5 -14 33.5q0 20 14 34t34 14t34 -14t14 -34t-14 -34t-34 -14t-34 14.5z" />
    <glyph glyph-name="zdotaccent" unicode="&#x17c;" horiz-adv-x="414" 
d="M329 0h-343l9 50l336 396h-256l9 50h319l-9 -50l-335 -396h279zM240 616.5q-14 14.5 -14 33.5q0 20 14 34t34 14t34 -14t14 -34t-14 -34t-34 -14t-34 14.5z" />
    <glyph glyph-name="Zcaron" unicode="&#x17d;" horiz-adv-x="498" 
d="M406 0h-411l10 54l436 592h-321l10 54h387l-10 -54l-435 -592h344zM371 785h-61l-65 143h49l55 -85l83 85h55z" />
    <glyph glyph-name="zcaron" unicode="&#x17e;" horiz-adv-x="414" 
d="M329 0h-343l9 50l336 396h-256l9 50h319l-9 -50l-335 -396h279zM293 581h-61l-65 143h49l55 -85l83 85h55z" />
    <glyph glyph-name="florin" unicode="&#x192;" horiz-adv-x="329" 
d="M254.5 641.5q-23.5 -20.5 -30.5 -58.5l-15 -87h143l-9 -50h-143l-96 -538q-11 -62 -47.5 -94t-91.5 -32q-34 0 -66 12l9 54q30 -16 62 -16t53 20t27 55l95 539h-89l9 50h89l15 86q12 64 51 97t99 33q36 0 68 -12l-9 -54q-32 16 -64 16q-36 0 -59.5 -20.5z" />
    <glyph glyph-name="uni01B5" unicode="&#x1b5;" horiz-adv-x="498" 
d="M130 700h387l-10 -54l-191 -260h99l-10 -54h-129l-204 -278h344l-10 -54h-411l10 54l205 278h-110l10 54h140l191 260h-321z" />
    <glyph glyph-name="uni01B6" unicode="&#x1b6;" horiz-adv-x="414" 
d="M84 496h319l-9 -50l-146 -173h92l-8 -50h-127l-146 -173h279l-9 -50h-343l9 50l147 173h-92l8 50h126l147 173h-256z" />
    <glyph glyph-name="AEacute" unicode="&#x1fc;" horiz-adv-x="865" 
d="M883 700l-10 -54h-344l-45 -258h292l-10 -54h-292l-49 -280h349l-10 -54h-408l33 188h-223l-120 -188h-70l452 700h455zM201 243h198l71 403h-12zM648 785h-52l96 143h78z" />
    <glyph glyph-name="aeacute" unicode="&#x1fd;" horiz-adv-x="875" 
d="M122.5 11q-39.5 23 -62 66t-22.5 101q0 23 5 55l6 34q21 121 83.5 181t156.5 60q55 0 94 -25t56 -61l13 74h54l-13 -73q60 85 170 85q50 0 89.5 -22.5t62 -65t22.5 -99.5q0 -25 -4 -48l-5 -32h-367q-3 -25 -3 -49q0 -73 32.5 -112.5t91.5 -39.5q58 0 98 26.5t67 76.5
l47 -25q-73 -130 -216 -130q-49 0 -87 24.5t-59 67.5l-14 -80h-54l13 70q-31 -41 -70 -61.5t-96 -20.5q-49 0 -88.5 23zM341.5 91q50.5 51 66.5 142l6 34q4 20 4 43q0 67 -36 106.5t-92 39.5q-72 0 -120.5 -49.5t-64.5 -142.5l-6 -35q-4 -21 -4 -44q0 -66 35 -105.5
t90 -39.5q71 0 121.5 51zM781 288q2 20 2 30q0 64 -36.5 101t-92.5 37q-67 0 -115.5 -44.5t-68.5 -123.5h311zM521 581h-52l96 143h78z" />
    <glyph glyph-name="uni0218" unicode="&#x218;" horiz-adv-x="539" 
d="M96 33.5q-50 47.5 -66 127.5l56 25q16 -72 53 -109t101 -37q78 0 129 42t51 110q0 58 -32.5 89.5t-106.5 59.5q-81 31 -123 77t-42 116q0 83 58.5 130.5t162.5 47.5q73 0 124.5 -37t70.5 -105l-53 -25q-15 54 -55.5 83.5t-92.5 29.5q-71 0 -113.5 -33t-42.5 -91
q0 -49 33.5 -82t109.5 -62q79 -30 121 -72.5t42 -109.5q0 -64 -29.5 -114.5t-84.5 -79t-129 -28.5q-92 0 -142 47.5zM180 -229l-15 13l20 23q20 23 23 41q-14 0 -24.5 11.5t-10.5 26.5q0 21 12.5 34.5t33.5 13.5q20 0 32 -12.5t12 -32.5q0 -46 -61 -99z" />
    <glyph glyph-name="uni0219" unicode="&#x219;" horiz-adv-x="437" 
d="M79 20.5q-39 34.5 -52 89.5l51 22q14 -47 40 -71.5t71 -24.5q56 0 89.5 27.5t33.5 76.5q0 35 -24 55t-75 35q-60 18 -92 54.5t-32 84.5q0 63 43.5 100t119.5 37q57 0 96 -28t54 -79l-49 -19q-11 39 -41 58.5t-67 19.5q-44 0 -73.5 -22.5t-29.5 -61.5q0 -36 23 -58.5
t74 -39.5q64 -21 96 -51.5t32 -80.5q0 -70 -50.5 -114t-132.5 -44q-66 0 -105 34.5zM127 -229l-15 13l20 23q20 23 23 41q-14 0 -24.5 11.5t-10.5 26.5q0 21 12.5 34.5t33.5 13.5q20 0 32 -12.5t12 -32.5q0 -46 -61 -99z" />
    <glyph glyph-name="uni021A" unicode="&#x21a;" horiz-adv-x="515" 
d="M565 700l-10 -54h-199l-114 -646h-58l114 646h-198l10 54h455zM157 -229l-15 13l20 23q20 23 23 41q-14 0 -24.5 11.5t-10.5 26.5q0 21 12.5 34.5t33.5 13.5q20 0 32 -12.5t12 -32.5q0 -46 -61 -99z" />
    <glyph glyph-name="uni021B" unicode="&#x21b;" horiz-adv-x="343" 
d="M209 446l-59 -335q-2 -12 -2 -16q0 -26 15.5 -41.5t41.5 -15.5q36 0 72 18l-10 -54q-35 -14 -80 -14q-41 0 -67.5 28t-26.5 74q0 14 3 29l58 327h-94l9 50h94l16 91l60 30l-21 -121h136l-9 -50h-136zM133 -229l-15 13l20 23q20 23 23 41q-14 0 -24.5 11.5t-10.5 26.5
q0 21 12.5 34.5t33.5 13.5q20 0 32 -12.5t12 -32.5q0 -46 -61 -99z" />
    <glyph glyph-name="uni0237" unicode="&#x237;" horiz-adv-x="198" 
d="M-112 -201l9 51q24 -12 49 -12q27 0 43 18t23 55l104 585h54l-103 -582q-12 -69 -41.5 -97.5t-81.5 -28.5q-37 0 -56 11z" />
    <glyph glyph-name="circumflex" unicode="&#x2c6;" horiz-adv-x="278" 
d="M132 581h-55l116 143h61l65 -143h-49l-55 85z" />
    <glyph glyph-name="caron" unicode="&#x2c7;" horiz-adv-x="278" 
d="M228 581h-61l-65 143h49l55 -85l83 85h55z" />
    <glyph glyph-name="uni02C9" unicode="&#x2c9;" horiz-adv-x="264" 
d="M309 626h-220l8 50h220z" />
    <glyph glyph-name="breve" unicode="&#x2d8;" horiz-adv-x="219" 
d="M106.5 598q-22.5 24 -22.5 60q0 6 2 20h52q-1 -6 -1 -16q0 -40 38 -40q23 0 38 15t20 41h52q-8 -47 -36 -75.5t-80 -28.5q-40 0 -62.5 24z" />
    <glyph glyph-name="dotaccent" unicode="&#x2d9;" horiz-adv-x="176" 
d="M125 616.5q-14 14.5 -14 33.5q0 20 14 34t34 14t34 -14t14 -34t-14 -34t-34 -14t-34 14.5z" />
    <glyph glyph-name="ring" unicode="&#x2da;" horiz-adv-x="224" 
d="M114 586.5q-23 23.5 -23 62.5q0 48 30 80t75 32q37 0 59.5 -24t22.5 -62q0 -47 -29.5 -79.5t-74.5 -32.5q-37 0 -60 23.5zM216.5 625q14.5 18 14.5 45q0 21 -10.5 34t-29.5 13q-23 0 -37.5 -18t-14.5 -45q0 -21 10.5 -34t29.5 -13q23 0 37.5 18z" />
    <glyph glyph-name="ogonek" unicode="&#x2db;" horiz-adv-x="161" 
d="M-32 -176.5q-21 21.5 -21 59.5q0 40 25 76.5t65 52.5l54 -12q-37 -17 -61.5 -46t-24.5 -59q0 -19 10.5 -30t27.5 -11q20 0 38 10l-9 -52q-18 -10 -49 -10q-34 0 -55 21.5z" />
    <glyph glyph-name="tilde" unicode="&#x2dc;" horiz-adv-x="302" 
d="M82 630q21 68 88 68q17 0 31.5 -6t30.5 -16q16 -9 25.5 -13.5t20.5 -4.5q17 0 28.5 10t20.5 30l36 -16q-23 -68 -89 -68q-18 0 -31 5.5t-32 16.5q-16 9 -25.5 13.5t-20.5 4.5q-31 0 -47 -39z" />
    <glyph glyph-name="hungarumlaut" unicode="&#x2dd;" horiz-adv-x="288" 
d="M127 581h-49l74 143h76zM287 581h-49l74 143h76z" />
    <glyph glyph-name="gravecomb" unicode="&#x300;" horiz-adv-x="0" 
d="M40 581h-48l-74 143h72z" />
    <glyph glyph-name="acutecomb" unicode="&#x301;" horiz-adv-x="0" 
d="M-56 581h-52l96 143h78z" />
    <glyph glyph-name="uni0302" unicode="&#x302;" horiz-adv-x="0" 
d="M-146 581h-55l116 143h61l65 -143h-49l-55 85z" />
    <glyph glyph-name="tildecomb" unicode="&#x303;" horiz-adv-x="0" 
d="M-220 630q21 68 88 68q17 0 31.5 -6t30.5 -16q16 -9 25.5 -13.5t20.5 -4.5q17 0 28.5 10t20.5 30l36 -16q-23 -68 -89 -68q-18 0 -31 5.5t-32 16.5q-16 9 -25.5 13.5t-20.5 4.5q-31 0 -47 -39z" />
    <glyph glyph-name="uni0304" unicode="&#x304;" horiz-adv-x="0" 
d="M45 626h-220l8 50h220z" />
    <glyph glyph-name="uni0306" unicode="&#x306;" horiz-adv-x="0" 
d="M-112.5 598q-22.5 24 -22.5 60q0 6 2 20h52q-1 -6 -1 -16q0 -40 38 -40q23 0 38 15t20 41h52q-8 -47 -36 -75.5t-80 -28.5q-40 0 -62.5 24z" />
    <glyph glyph-name="uni0307" unicode="&#x307;" horiz-adv-x="0" 
d="M-51 616.5q-14 14.5 -14 33.5q0 20 14 34t34 14t34 -14t14 -34t-14 -34t-34 -14t-34 14.5z" />
    <glyph glyph-name="uni0308" unicode="&#x308;" horiz-adv-x="0" 
d="M-230.5 616.5q-14.5 14.5 -14.5 33.5q0 20 14.5 34t34.5 14t34 -14t14 -34t-14 -34t-34 -14t-34.5 14.5zM-28 616.5q-14 14.5 -14 33.5q0 20 14 34t34 14t34.5 -14t14.5 -34t-14.5 -34t-34.5 -14t-34 14.5z" />
    <glyph glyph-name="uni030A" unicode="&#x30a;" horiz-adv-x="0" 
d="M-110 586.5q-23 23.5 -23 62.5q0 48 30 80t75 32q37 0 59.5 -24t22.5 -62q0 -47 -29.5 -79.5t-74.5 -32.5q-37 0 -60 23.5zM-7.5 625q14.5 18 14.5 45q0 21 -10.5 34t-29.5 13q-23 0 -37.5 -18t-14.5 -45q0 -21 10.5 -34t29.5 -13q23 0 37.5 18z" />
    <glyph glyph-name="uni030B" unicode="&#x30b;" horiz-adv-x="0" 
d="M-201 581h-49l74 143h76zM-41 581h-49l74 143h76z" />
    <glyph glyph-name="uni030C" unicode="&#x30c;" horiz-adv-x="0" 
d="M-50 581h-61l-65 143h49l55 -85l83 85h55z" />
    <glyph glyph-name="uni0312" unicode="&#x312;" horiz-adv-x="0" 
d="M-41 587.5q-12 12.5 -12 32.5q0 46 61 99l22 19l15 -13l-20 -23q-20 -23 -23 -41q14 0 24.5 -11.5t10.5 -26.5q0 -21 -12.5 -34.5t-33.5 -13.5q-20 0 -32 12.5z" />
    <glyph glyph-name="uni0326" unicode="&#x326;" horiz-adv-x="0" 
d="M-169 -229l-15 13l20 23q20 23 23 41q-14 0 -24.5 11.5t-10.5 26.5q0 21 12.5 34.5t33.5 13.5q20 0 32 -12.5t12 -32.5q0 -46 -61 -99z" />
    <glyph glyph-name="uni0327" unicode="&#x327;" horiz-adv-x="0" 
d="M-91 -64q21 -21 21 -55q0 -44 -28 -70.5t-76 -26.5t-80 18l20 42q10 -7 26.5 -11.5t33.5 -4.5q25 0 39 13.5t14 37.5q0 17 -11 28t-27 11q-25 0 -44 -17l-32 21l36 90h43l-31 -66q19 11 42 11q33 0 54 -21z" />
    <glyph glyph-name="uni0328" unicode="&#x328;" horiz-adv-x="0" 
d="M-193 -176.5q-21 21.5 -21 59.5q0 40 25 76.5t65 52.5l54 -12q-37 -17 -61.5 -46t-24.5 -59q0 -19 10.5 -30t27.5 -11q20 0 38 10l-9 -52q-18 -10 -49 -10q-34 0 -55 21.5z" />
    <glyph glyph-name="pi" unicode="&#x3c0;" horiz-adv-x="582" 
d="M474 446l-61 -344q-2 -12 -2 -17q0 -22 11.5 -34.5t32.5 -12.5q30 0 61 17l-9 -52q-27 -15 -68 -15q-37 0 -59.5 24.5t-22.5 64.5q0 17 2 26l61 343h-194l-79 -446h-54l79 446h-112l9 50h525l-9 -50h-111z" />
    <glyph glyph-name="uni0400" unicode="&#x400;" horiz-adv-x="545" 
d="M444 0h-407l124 700h403l-10 -54h-345l-45 -258h293l-10 -54h-293l-49 -280h349zM405 785h-48l-74 143h72z" />
    <glyph glyph-name="uni0401" unicode="&#x401;" horiz-adv-x="545" 
d="M444 0h-407l124 700h403l-10 -54h-345l-45 -258h293l-10 -54h-293l-49 -280h349zM256.5 820.5q-14.5 14.5 -14.5 33.5q0 20 14.5 34t34.5 14t34 -14t14 -34t-14 -34t-34 -14t-34.5 14.5zM459 820.5q-14 14.5 -14 33.5q0 20 14 34t34 14t34.5 -14t14.5 -34t-14.5 -34
t-34.5 -14t-34 14.5z" />
    <glyph glyph-name="uni0402" unicode="&#x402;" horiz-adv-x="697" 
d="M348.5 -7.5q-31.5 6.5 -50.5 16.5l10 54q54 -27 110 -27q89 0 137.5 55.5t48.5 147.5q0 75 -41.5 117t-110.5 42q-38 0 -76 -9t-69 -25l-64 -364h-58l113 646h-198l10 54h505l-10 -54h-249l-40 -231q68 33 157 33q51 0 94 -24.5t68 -70.5t25 -108q0 -122 -65 -190.5
t-183 -68.5q-32 0 -63.5 6.5z" />
    <glyph glyph-name="uni0403" unicode="&#x403;" horiz-adv-x="509" 
d="M95 0h-58l124 700h381l-10 -54h-323zM393 785h-52l96 143h78z" />
    <glyph glyph-name="uni0404" unicode="&#x404;" horiz-adv-x="600" 
d="M210 588q-73 -73 -95 -208v-3h319l-10 -54h-318l-1 -3q-6 -36 -6 -68q0 -97 49 -155t137 -58q73 0 124 34.5t94 102.5l43 -26q-47 -81 -110.5 -122.5t-159.5 -41.5q-110 0 -173 69.5t-63 186.5q0 42 7 81l12 68q28 159 115 241t221 82q80 0 137 -43t84 -119l-51 -27
q-55 136 -178 136q-104 0 -177 -73z" />
    <glyph glyph-name="uni0405" unicode="&#x405;" horiz-adv-x="539" 
d="M96 33.5q-50 47.5 -66 127.5l56 25q16 -72 53 -109t101 -37q78 0 129 42t51 110q0 58 -32.5 89.5t-106.5 59.5q-81 31 -123 77t-42 116q0 83 58.5 130.5t162.5 47.5q73 0 124.5 -37t70.5 -105l-53 -25q-15 54 -55.5 83.5t-92.5 29.5q-71 0 -113.5 -33t-42.5 -91
q0 -49 33.5 -82t109.5 -62q79 -30 121 -72.5t42 -109.5q0 -64 -29.5 -114.5t-84.5 -79t-129 -28.5q-92 0 -142 47.5z" />
    <glyph glyph-name="uni0406" unicode="&#x406;" horiz-adv-x="220" 
d="M95 0h-58l124 700h58z" />
    <glyph glyph-name="uni0407" unicode="&#x407;" horiz-adv-x="220" 
d="M95 0h-58l124 700h58zM81.5 820.5q-14.5 14.5 -14.5 33.5q0 20 14.5 34t34.5 14t34 -14t14 -34t-14 -34t-34 -14t-34.5 14.5zM284 820.5q-14 14.5 -14 33.5q0 20 14 34t34 14t34.5 -14t14.5 -34t-14.5 -34t-34.5 -14t-34 14.5z" />
    <glyph glyph-name="uni0408" unicode="&#x408;" horiz-adv-x="488" 
d="M75.5 28q-42.5 42 -56.5 113l59 20q10 -55 38.5 -88t78.5 -33q66 0 101.5 39.5t50.5 122.5l88 498h58l-90 -508q-18 -103 -71.5 -154.5t-146.5 -51.5q-67 0 -109.5 42z" />
    <glyph glyph-name="uni0409" unicode="&#x409;" horiz-adv-x="958" 
d="M14.5 -8q-18.5 6 -27.5 14l9 56q11 -10 26.5 -15.5t30.5 -5.5q41 0 64 31.5t42 112.5l121 515h358l-58 -333h147q78 0 125 -42t47 -119q0 -62 -28 -108.5t-79 -72t-119 -25.5h-216l113 646h-246l-114 -476q-23 -95 -57.5 -139.5t-100.5 -44.5q-19 0 -37.5 6zM676 54
q80 0 122 39.5t42 108.5q0 56 -31.5 83.5t-90.5 27.5h-148l-45 -259h151z" />
    <glyph glyph-name="uni040A" unicode="&#x40a;" horiz-adv-x="966" 
d="M37 0l124 700h58l-54 -304h361l54 304h58l-54 -304h138q87 0 136.5 -47t49.5 -134q0 -101 -62 -158t-174 -57h-216l61 342h-361l-61 -342h-58zM675 54q85 0 130 39t45 113q0 68 -37 102t-107 34h-131l-51 -288h151z" />
    <glyph glyph-name="uni040B" unicode="&#x40b;" horiz-adv-x="691" 
d="M184 0l114 646h-198l10 54h505l-10 -54h-249l-40 -231q64 33 149 33q76 0 118 -39.5t42 -107.5q0 -22 -4 -41l-47 -260h-55l46 257q3 17 3 33q0 50 -30.5 79t-90.5 29q-35 0 -72 -9t-68 -25l-65 -364h-58z" />
    <glyph glyph-name="uni040C" unicode="&#x40c;" horiz-adv-x="506" 
d="M245 348l185 -348h-65l-174 323h-39l-57 -323h-58l124 700h58l-57 -323h38l280 323h74zM386 785h-52l96 143h78z" />
    <glyph glyph-name="uni040D" unicode="&#x40d;" horiz-adv-x="599" 
d="M89 0h-52l124 700h57l-102 -579l415 579h67l-124 -700h-57l107 605zM419 785h-48l-74 143h72z" />
    <glyph glyph-name="uni040E" unicode="&#x40e;" horiz-adv-x="517" 
d="M513 700h67l-359 -606q-34 -58 -74 -82.5t-95 -24.5q-22 0 -46 8t-38 20l10 59q39 -30 81 -30q69 0 116 80l49 83l-127 493h60l105 -428zM282.5 806.5q-25.5 28.5 -25.5 69.5q0 6 2 20h52q-2 -12 -2 -18q0 -24 12.5 -38t34.5 -14q30 0 47 17.5t23 52.5h52
q-20 -118 -127 -118q-43 0 -68.5 28.5z" />
    <glyph glyph-name="uni040F" unicode="&#x40f;" horiz-adv-x="620" 
d="M271 -142h-58l25 142h-200l123 700h58l-114 -646h341l114 646h58l-123 -700h-199z" />
    <glyph glyph-name="uni0410" unicode="&#x410;" horiz-adv-x="584" 
d="M520 0h-61l-28 182h-298l-92 -182h-65l359 700h71zM362 632l-201 -395h262z" />
    <glyph glyph-name="uni0411" unicode="&#x411;" horiz-adv-x="558" 
d="M37 0l124 700h369l-10 -54h-311l-49 -279h167q78 0 125 -42t47 -119q0 -62 -28 -108.5t-79 -72t-119 -25.5h-236zM276 54q80 0 122 39.5t42 108.5q0 56 -31.5 83.5t-90.5 27.5h-168l-45 -259h171z" />
    <glyph glyph-name="uni0412" unicode="&#x412;" horiz-adv-x="568" 
d="M37 0l124 700h212q77 0 121.5 -44.5t44.5 -114.5q0 -60 -32 -105t-86 -67q38 -20 62 -56t24 -88q0 -66 -28 -117t-81 -79.5t-127 -28.5h-234zM209 646l-44 -251h160q71 0 112 39.5t41 102.5q0 51 -31 80t-82 29h-156zM155 341l-50 -287h170q80 0 126.5 44t46.5 117
q0 59 -32.5 92.5t-90.5 33.5h-170z" />
    <glyph glyph-name="uni0413" unicode="&#x413;" horiz-adv-x="509" 
d="M95 0h-58l124 700h381l-10 -54h-323z" />
    <glyph glyph-name="uni0414" unicode="&#x414;" horiz-adv-x="662" 
d="M-38 -142l34 196h94q34 72 55.5 128t38.5 131l89 387h357l-114 -646h86l-34 -196h-58l25 142h-490l-25 -142h-58zM458 54l105 592h-242l-77 -332q-19 -83 -39.5 -140.5t-50.5 -119.5h304z" />
    <glyph glyph-name="uni0415" unicode="&#x415;" horiz-adv-x="545" 
d="M444 0h-407l124 700h403l-10 -54h-345l-45 -258h293l-10 -54h-293l-49 -280h349z" />
    <glyph glyph-name="uni0416" unicode="&#x416;" horiz-adv-x="792" 
d="M62 0h-74l313 356l-189 344h68l173 -323h37l57 323h58l-57 -323h38l279 323h75l-309 -352l185 -348h-65l-173 323h-40l-57 -323h-58l57 323h-35z" />
    <glyph glyph-name="uni0417" unicode="&#x417;" horiz-adv-x="566" 
d="M147 13q-44 25 -69 71t-26 105l58 12q-1 -74 40.5 -116.5t107.5 -42.5q81 0 126.5 48t45.5 131q0 65 -33.5 96.5t-84.5 31.5h-50l9 52h50q43 0 76.5 19t52 51.5t18.5 71.5q0 52 -33.5 84.5t-89.5 32.5q-59 0 -100.5 -34t-62.5 -98l-52 15q24 83 80.5 127t144.5 44
q50 0 89 -21t61 -58t22 -84q0 -62 -33 -108.5t-88 -66.5q38 -20 61 -57.5t23 -90.5q0 -71 -29 -125t-83.5 -84.5t-129.5 -30.5q-57 0 -101 25z" />
    <glyph glyph-name="uni0418" unicode="&#x418;" horiz-adv-x="599" 
d="M89 0h-52l124 700h57l-102 -579l415 579h67l-124 -700h-57l107 605z" />
    <glyph glyph-name="uni0419" unicode="&#x419;" horiz-adv-x="599" 
d="M89 0h-52l124 700h57l-102 -579l415 579h67l-124 -700h-57l107 605zM327.5 806.5q-25.5 28.5 -25.5 69.5q0 6 2 20h52q-2 -12 -2 -18q0 -24 12.5 -38t34.5 -14q30 0 47 17.5t23 52.5h52q-20 -118 -127 -118q-43 0 -68.5 28.5z" />
    <glyph glyph-name="uni041A" unicode="&#x41a;" horiz-adv-x="506" 
d="M245 348l185 -348h-65l-174 323h-39l-57 -323h-58l124 700h58l-57 -323h38l280 323h74z" />
    <glyph glyph-name="uni041B" unicode="&#x41b;" horiz-adv-x="640" 
d="M14.5 -8q-18.5 6 -27.5 14l9 56q11 -10 26.5 -15.5t30.5 -5.5q41 0 64 31.5t42 112.5l121 515h358l-123 -700h-58l113 646h-246l-114 -476q-23 -95 -57.5 -139.5t-100.5 -44.5q-19 0 -37.5 6z" />
    <glyph glyph-name="uni041C" unicode="&#x41c;" horiz-adv-x="693" 
d="M95 0h-58l124 700h57l119 -489l293 489h62l-124 -700h-59l99 561l-252 -421h-54l-108 421z" />
    <glyph glyph-name="uni041D" unicode="&#x41d;" horiz-adv-x="639" 
d="M95 0h-58l124 700h58l-54 -304h361l54 304h58l-124 -700h-58l61 342h-361z" />
    <glyph glyph-name="uni041E" unicode="&#x41e;" horiz-adv-x="690" 
d="M178.5 22q-57.5 36 -88.5 98t-31 137q0 33 6 66l12 68q28 158 115 240.5t221 82.5q76 0 133.5 -36.5t89 -98.5t31.5 -137q0 -32 -6 -65l-12 -68q-28 -159 -114.5 -241t-221.5 -82q-77 0 -134.5 36zM498 111.5q74 72.5 95 207.5l10 62q4 25 4 54q0 66 -25.5 117.5
t-70.5 80t-101 28.5q-108 0 -182 -72.5t-95 -207.5l-10 -62q-5 -33 -5 -58q0 -65 24.5 -115.5t69.5 -78.5t104 -28q108 0 182 72.5z" />
    <glyph glyph-name="uni041F" unicode="&#x41f;" horiz-adv-x="619" 
d="M95 0h-58l124 700h457l-124 -700h-58l114 646h-341z" />
    <glyph glyph-name="uni0420" unicode="&#x420;" horiz-adv-x="538" 
d="M37 0l124 700h208q76 0 122 -47t46 -118q0 -92 -60.5 -147t-164.5 -55h-158l-59 -333h-58zM315 387q77 0 120 39.5t43 103.5q0 55 -32.5 85.5t-87.5 30.5h-149l-45 -259h151z" />
    <glyph glyph-name="uni0421" unicode="&#x421;" horiz-adv-x="626" 
d="M121 55.5q-63 69.5 -63 186.5q0 42 7 81l12 68q28 159 115 241t221 82q80 0 137 -43t84 -119l-51 -27q-55 136 -178 136q-104 0 -177 -73t-95 -208l-10 -60q-6 -36 -6 -68q0 -97 49 -155t137 -58q73 0 124 34.5t94 102.5l43 -26q-47 -81 -110.5 -122.5t-159.5 -41.5
q-110 0 -173 69.5z" />
    <glyph glyph-name="uni0422" unicode="&#x422;" horiz-adv-x="515" 
d="M565 700l-10 -54h-199l-114 -646h-58l114 646h-198l10 54h455z" />
    <glyph glyph-name="uni0423" unicode="&#x423;" horiz-adv-x="517" 
d="M513 700h67l-359 -606q-34 -58 -74 -82.5t-95 -24.5q-22 0 -46 8t-38 20l10 59q39 -30 81 -30q69 0 116 80l49 83l-127 493h60l105 -428z" />
    <glyph glyph-name="uni0424" unicode="&#x424;" horiz-adv-x="666" 
d="M429 629q97 -8 153 -68t56 -151q0 -23 -5 -55l-4 -22q-22 -124 -98 -189.5t-200 -72.5l-15 -85h-58l15 85q-65 5 -112 35.5t-72 79.5t-25 108q0 23 5 51l4 22q22 122 98 188.5t200 73.5l15 85h58zM127 344q-4 -21 -4 -48q0 -72 39.5 -119t119.5 -54l80 454
q-102 -7 -159 -63t-72 -146zM575 356q5 28 5 50q0 70 -39.5 116.5t-120.5 54.5l-80 -454q101 7 158.5 63t72.5 146z" />
    <glyph glyph-name="uni0425" unicode="&#x425;" horiz-adv-x="512" 
d="M53 0h-71l261 361l-128 339h62l108 -291l210 291h69l-255 -347l133 -353h-60l-115 302z" />
    <glyph glyph-name="uni0426" unicode="&#x426;" horiz-adv-x="650" 
d="M556 -142h-58l25 142h-485l123 700h58l-114 -646h341l114 646h58l-114 -646h86z" />
    <glyph glyph-name="uni0427" unicode="&#x427;" horiz-adv-x="586" 
d="M462 332q-79 -70 -194 -70q-77 0 -118.5 45t-41.5 110q0 17 3 35l44 248h58l-44 -247q-3 -16 -3 -32q0 -49 30 -77t84 -28q103 0 193 78l54 306h58l-124 -700h-58z" />
    <glyph glyph-name="uni0428" unicode="&#x428;" horiz-adv-x="818" 
d="M693 0h-656l124 700h58l-114 -646h241l114 646h58l-114 -646h241l114 646h58z" />
    <glyph glyph-name="uni0429" unicode="&#x429;" horiz-adv-x="849" 
d="M755 -142h-58l25 142h-684l123 700h58l-114 -646h241l114 646h58l-114 -646h241l114 646h58l-114 -646h86z" />
    <glyph glyph-name="uni042A" unicode="&#x42a;" horiz-adv-x="679" 
d="M178 0l114 646h-192l10 54h249l-58 -333h147q78 0 125 -42t47 -119q0 -62 -28 -108.5t-79 -72t-119 -25.5h-216zM397 54q80 0 122 39.5t42 108.5q0 56 -31.5 83.5t-90.5 27.5h-148l-45 -259h151z" />
    <glyph glyph-name="uni042B" unicode="&#x42b;" horiz-adv-x="738" 
d="M37 0l124 700h57l-58 -333h147q78 0 125 -42t47 -119q0 -62 -28 -108.5t-79 -72t-119 -25.5h-216zM256 54q80 0 122 39.5t42 108.5q0 56 -31.5 83.5t-90.5 27.5h-148l-45 -259h151zM613 0h-58l124 700h58z" />
    <glyph glyph-name="uni042C" unicode="&#x42c;" horiz-adv-x="538" 
d="M37 0l124 700h57l-58 -333h147q78 0 125 -42t47 -119q0 -62 -28 -108.5t-79 -72t-119 -25.5h-216zM256 54q80 0 122 39.5t42 108.5q0 56 -31.5 83.5t-90.5 27.5h-148l-45 -259h151z" />
    <glyph glyph-name="uni042D" unicode="&#x42d;" horiz-adv-x="626" 
d="M541 644.5q63 -69.5 63 -186.5q0 -42 -7 -81l-12 -68q-28 -159 -115 -241t-221 -82q-80 0 -137 43t-84 119l51 27q55 -136 178 -136q104 0 177 73t95 208l1 3h-320l10 54h319v3q6 36 6 68q0 97 -49 155t-137 58q-73 0 -124 -34.5t-94 -102.5l-43 26q47 81 110.5 122.5
t159.5 41.5q110 0 173 -69.5z" />
    <glyph glyph-name="uni042E" unicode="&#x42e;" horiz-adv-x="917" 
d="M777 678q56 -36 86.5 -98t30.5 -137q0 -33 -6 -66l-12 -68q-28 -159 -113 -241t-216 -82q-75 0 -131.5 35.5t-86.5 97.5t-30 137q0 33 6 67l3 19h-152l-61 -342h-58l124 700h58l-54 -304h153q29 156 113.5 237t215.5 81q74 0 130 -36zM830 381q5 32 5 55q0 65 -25 116.5
t-68.5 80t-97.5 28.5q-106 0 -178 -72.5t-93 -207.5l-10 -62q-5 -33 -5 -59q0 -65 24 -115t67.5 -78t100.5 -28q105 0 177 72.5t93 207.5z" />
    <glyph glyph-name="uni042F" unicode="&#x42f;" horiz-adv-x="537" 
d="M82 257q16 48 37.5 74t51.5 36q-37 18 -61 50.5t-24 84.5q0 58 26.5 102.5t77 70t118.5 25.5h228l-124 -700h-58l59 333h-175q-42 0 -63.5 -18.5t-39.5 -70.5l-82 -244h-58zM422 386l46 260h-161q-81 0 -121.5 -38t-40.5 -104q0 -54 31.5 -86t84.5 -32h161z" />
    <glyph glyph-name="uni0430" unicode="&#x430;" 
d="M122.5 11q-39.5 23 -62 66t-22.5 101q0 23 5 55l6 34q21 121 83.5 181t156.5 60q55 0 94 -25t56 -61l13 74h54l-88 -496h-54l13 70q-31 -41 -70 -61.5t-96 -20.5q-49 0 -88.5 23zM341.5 91q50.5 51 66.5 142l6 34q4 20 4 43q0 67 -36 106.5t-92 39.5q-72 0 -120.5 -49.5
t-64.5 -142.5l-6 -35q-4 -21 -4 -44q0 -66 35 -105.5t90 -39.5q71 0 121.5 51z" />
    <glyph glyph-name="uni0431" unicode="&#x431;" horiz-adv-x="506" 
d="M121 9.5q-40 22.5 -62.5 63.5t-22.5 94q0 25 4 45l35 199q23 128 90 186t178 58q60 0 96 12.5t68 42.5l-11 -60q-24 -24 -60.5 -34.5t-101.5 -10.5q-82 0 -137 -49.5t-74 -156.5l-7 -38q22 42 67 69.5t102 27.5q82 0 129.5 -47.5t47.5 -127.5q0 -20 -5 -50l-5 -28
q-20 -111 -79.5 -164.5t-160.5 -53.5q-51 0 -91 22.5zM338 82q44 43 59 129l4 23q4 21 4 46q0 61 -33.5 93.5t-95.5 32.5q-146 0 -176 -172l-4 -23q-4 -20 -4 -43q0 -61 34 -95t92 -34q76 0 120 43z" />
    <glyph glyph-name="uni0432" unicode="&#x432;" horiz-adv-x="483" 
d="M28 0l88 496h177q63 0 100.5 -31.5t37.5 -83.5q0 -41 -25 -72t-67 -46q32 -15 51.5 -41.5t19.5 -64.5q0 -71 -50 -114t-138 -43h-194zM261 285q53 0 83.5 25t30.5 65q0 34 -24.5 53t-63.5 19h-124l-30 -162h128zM225 50q60 0 95 28t35 74q0 40 -25.5 62.5t-70.5 22.5
h-134l-34 -187h134z" />
    <glyph glyph-name="uni0433" unicode="&#x433;" horiz-adv-x="398" 
d="M82 0h-54l88 496h296l-9 -49h-242z" />
    <glyph glyph-name="uni0434" unicode="&#x434;" horiz-adv-x="528" 
d="M-42 -122l30 172h65q31 58 51.5 113t41.5 140l48 193h280l-78 -446h72l-30 -172h-58l21 122h-364l-21 -122h-58zM342 50l69 392h-178l-34 -138q-22 -90 -40.5 -143.5t-47.5 -110.5h231z" />
    <glyph glyph-name="uni0435" unicode="&#x435;" horiz-adv-x="514" 
d="M391.5 485.5q39.5 -22.5 62 -65t22.5 -99.5q0 -25 -4 -48l-5 -32h-367l-1 -8q-4 -23 -4 -48q0 -67 34 -106t92 -39t98 26.5t67 76.5l47 -25q-73 -130 -216 -130q-80 0 -129 54t-49 143q0 22 5 54l5 28q19 112 84.5 176.5t168.5 64.5q50 0 89.5 -22.5zM177.5 411.5
q-48.5 -44.5 -68.5 -123.5h311q2 20 2 30q0 64 -36.5 101t-92.5 37q-67 0 -115.5 -44.5z" />
    <glyph glyph-name="uni0436" unicode="&#x436;" horiz-adv-x="648" 
d="M59 0h-69l239 254l-151 242h64l136 -224h23l40 224h54l-40 -224h23l213 224h67l-239 -250l151 -246h-63l-137 224h-23l-40 -224h-54l40 224h-23z" />
    <glyph glyph-name="uni0437" unicode="&#x437;" horiz-adv-x="408" 
d="M60.5 24.5q-39.5 38.5 -41.5 107.5l51 9q2 -50 27.5 -77.5t73.5 -27.5q57 0 90.5 32t33.5 88q0 41 -23.5 61t-62.5 20h-36l9 48h36q50 0 78 26t28 73q0 34 -24 55t-66 21q-79 0 -114 -88l-46 14q19 58 61.5 90t106.5 32q62 0 98 -35t36 -85t-24 -82t-68 -45
q31 -15 47.5 -38.5t16.5 -64.5q0 -79 -51 -125.5t-134 -46.5q-63 0 -102.5 38.5z" />
    <glyph glyph-name="uni0438" unicode="&#x438;" horiz-adv-x="508" 
d="M82 0h-54l88 496h54l-71 -405l327 405h54l-88 -496h-54l71 405z" />
    <glyph glyph-name="uni0439" unicode="&#x439;" horiz-adv-x="508" 
d="M82 0h-54l88 496h54l-71 -405l327 405h54l-88 -496h-54l71 405zM246.5 602.5q-25.5 28.5 -25.5 69.5q0 6 2 20h52q-2 -12 -2 -18q0 -24 12.5 -38t34.5 -14q30 0 47 17.5t23 52.5h52q-20 -118 -127 -118q-43 0 -68.5 28.5z" />
    <glyph glyph-name="uni043A" unicode="&#x43a;" horiz-adv-x="423" 
d="M82 0h-54l88 496h54l-40 -224h20l212 224h71l-238 -248l150 -248h-62l-135 224h-26z" />
    <glyph glyph-name="uni043B" unicode="&#x43b;" horiz-adv-x="508" 
d="M1 -7.5q-16 5.5 -27 13.5l10 52q24 -22 51 -22q23 0 36 12.5t20 41.5l105 406h284l-88 -496h-54l79 447h-182l-95 -372q-22 -88 -106 -88q-17 0 -33 5.5z" />
    <glyph glyph-name="uni043C" unicode="&#x43c;" horiz-adv-x="551" 
d="M71 0h-54l88 496h55l97 -334l218 334h59l-88 -496h-55l68 378l-183 -279h-51l-86 279z" />
    <glyph glyph-name="uni043D" unicode="&#x43d;" horiz-adv-x="500" 
d="M82 0h-54l88 496h54l-37 -209h248l37 209h54l-88 -496h-54l42 238h-248z" />
    <glyph glyph-name="uni043E" unicode="&#x43e;" 
d="M132 13q-44 25 -68.5 70t-24.5 102q0 25 4 48l7 39q20 113 85.5 174.5t162.5 61.5q58 0 102.5 -25t69 -70t24.5 -104q0 -25 -4 -46l-6 -37q-19 -113 -85 -175.5t-165 -62.5q-58 0 -102 25zM362 91.5q52 51.5 66 137.5l6 37q3 21 3 40q0 69 -39 109.5t-99 40.5
q-76 0 -126.5 -51t-66.5 -138l-7 -37q-4 -20 -4 -43q0 -66 39.5 -106.5t98.5 -40.5q77 0 129 51.5z" />
    <glyph glyph-name="uni043F" unicode="&#x43f;" horiz-adv-x="500" 
d="M82 0h-54l88 496h356l-88 -496h-54l79 447h-248z" />
    <glyph glyph-name="uni0440" unicode="&#x440;" horiz-adv-x="535" 
d="M-7 -202l123 698h54l-12 -72q21 36 65 60t99 24q51 0 90.5 -25.5t61 -70.5t21.5 -101q0 -26 -4 -47l-6 -37q-20 -122 -81.5 -180.5t-157.5 -58.5q-56 0 -93 23.5t-57 59.5l-49 -273h-54zM365.5 88.5q47.5 48.5 65.5 149.5l5 29q4 20 4 44q0 67 -36 106t-95 39
q-67 0 -116 -50t-66 -140l-6 -34q-5 -30 -5 -51q0 -66 35 -103.5t96 -37.5q71 0 118.5 48.5z" />
    <glyph glyph-name="uni0441" unicode="&#x441;" horiz-adv-x="500" 
d="M126.5 13.5q-41.5 25.5 -64 70.5t-22.5 101q0 27 4 48l6 35q42 240 252 240q69 0 114.5 -38t58.5 -102l-51 -16q-13 49 -45.5 76.5t-85.5 27.5q-75 0 -122.5 -49t-64.5 -143l-6 -32q-5 -27 -5 -46q0 -67 37.5 -106.5t96.5 -39.5q58 0 95 28t66 81l47 -24
q-32 -67 -84.5 -102t-129.5 -35q-55 0 -96.5 25.5z" />
    <glyph glyph-name="uni0442" unicode="&#x442;" horiz-adv-x="378" 
d="M172 0h-54l79 447h-147l9 49h348l-9 -49h-147z" />
    <glyph glyph-name="uni0443" unicode="&#x443;" horiz-adv-x="455" 
d="M419 496h60l-321 -590q-37 -68 -73 -93t-92 -25q-31 0 -57 11l9 55q32 -16 59 -16q35 0 58.5 20.5t49.5 68.5l47 86l-97 483h58l77 -411z" />
    <glyph glyph-name="uni0444" unicode="&#x444;" horiz-adv-x="549" 
d="M348 506q73 -11 117 -64t44 -133q0 -26 -4 -49l-6 -34q-20 -109 -81.5 -169.5t-161.5 -67.5l-34 -193h-54l34 194q-72 10 -117 64t-45 134q0 27 4 48l6 34q18 104 81.5 167t162.5 70l34 193h54zM100 234q-4 -23 -4 -47q0 -61 30.5 -99t85.5 -46l73 413q-72 -7 -118 -56.5
t-61 -130.5zM448 257q4 23 4 48q0 61 -30 100t-84 49l-73 -413q72 7 118 56.5t60 130.5z" />
    <glyph glyph-name="uni0445" unicode="&#x445;" horiz-adv-x="417" 
d="M42 0h-62l199 265l-98 231h60l74 -191l143 191h64l-182 -238l109 -258h-58l-89 216z" />
    <glyph glyph-name="uni0446" unicode="&#x446;" horiz-adv-x="526" 
d="M472 496l-78 -447h72l-30 -171h-58l21 122h-370l87 496h54l-78 -447h248l78 447h54z" />
    <glyph glyph-name="uni0447" unicode="&#x447;" horiz-adv-x="497" 
d="M366 222q-29 -23 -63 -33t-78 -10q-64 0 -101 39t-37 98q0 16 3 34l26 146h55l-24 -135q-3 -19 -3 -37q0 -95 100 -95q40 0 70.5 12.5t62.5 42.5l38 212h54l-88 -496h-54z" />
    <glyph glyph-name="uni0448" unicode="&#x448;" horiz-adv-x="682" 
d="M566 0h-538l88 496h54l-79 -447h188l79 447h54l-79 -447h188l79 447h54z" />
    <glyph glyph-name="uni0449" unicode="&#x449;" horiz-adv-x="708" 
d="M618 -122h-58l21 122h-552l87 496h54l-78 -447h188l78 447h54l-78 -447h188l78 447h54l-78 -447h72z" />
    <glyph glyph-name="uni044A" unicode="&#x44a;" horiz-adv-x="556" 
d="M104 0l79 448h-128l9 48h182l-37 -211h134q67 0 105.5 -34t38.5 -93q0 -72 -50 -115t-139 -43h-194zM302 50q62 0 95.5 27.5t33.5 76.5q0 40 -24.5 61.5t-73.5 21.5h-133l-33 -187h135z" />
    <glyph glyph-name="uni044B" unicode="&#x44b;" horiz-adv-x="628" 
d="M28 0l88 496h54l-37 -211h134q67 0 105.5 -34t38.5 -93q0 -72 -50 -115t-139 -43h-194zM226 50q62 0 95.5 27.5t33.5 76.5q0 40 -24.5 61.5t-73.5 21.5h-133l-33 -187h135zM512 0h-54l88 496h54z" />
    <glyph glyph-name="uni044C" unicode="&#x44c;" horiz-adv-x="480" 
d="M28 0l88 496h54l-37 -211h134q67 0 105.5 -34t38.5 -93q0 -72 -50 -115t-139 -43h-194zM226 50q62 0 95.5 27.5t33.5 76.5q0 40 -24.5 61.5t-73.5 21.5h-133l-33 -187h135z" />
    <glyph glyph-name="uni044D" unicode="&#x44d;" horiz-adv-x="500" 
d="M373.5 482.5q41.5 -25.5 64 -70.5t22.5 -101q0 -27 -4 -48l-6 -35q-20 -118 -84 -179t-168 -61q-69 0 -114.5 38t-58.5 102l54 16q11 -49 43 -76.5t85 -27.5q73 0 120 47t65 137h-206l8 49h208q3 20 3 37q0 67 -37.5 106.5t-96.5 39.5t-97 -28t-64 -81l-47 24
q30 65 84 101t130 36q55 0 96.5 -25.5z" />
    <glyph glyph-name="uni044E" unicode="&#x44e;" horiz-adv-x="686" 
d="M594 453.5q52 -54.5 52 -142.5q0 -25 -4 -48l-6 -37q-19 -114 -83 -176t-161 -62q-87 0 -138.5 54t-51.5 140q0 21 5 51l1 5h-84l-42 -238h-54l88 496h54l-37 -209h84q22 106 84.5 163.5t154.5 57.5q86 0 138 -54.5zM586 266q3 21 3 41q0 68 -37.5 108.5t-94.5 40.5
q-76 0 -122.5 -48.5t-64.5 -140.5l-7 -37q-4 -20 -4 -44q0 -66 37.5 -106t94.5 -40q76 0 125 49t64 140z" />
    <glyph glyph-name="uni044F" unicode="&#x44f;" horiz-adv-x="452" 
d="M67 178q13 37 28 53t41 24q-28 11 -47 36.5t-19 61.5q0 66 45 104.5t127 38.5h182l-88 -496h-55l41 230h-128q-31 0 -48 -13t-28 -46l-59 -171h-55zM330 278l30 170h-120q-56 0 -85.5 -24.5t-29.5 -67.5q0 -38 21.5 -58t63.5 -20h120z" />
    <glyph glyph-name="uni0450" unicode="&#x450;" horiz-adv-x="514" 
d="M391.5 485.5q39.5 -22.5 62 -65t22.5 -99.5q0 -25 -4 -48l-5 -32h-367l-1 -8q-4 -23 -4 -48q0 -67 34 -106t92 -39t98 26.5t67 76.5l47 -25q-73 -130 -216 -130q-80 0 -129 54t-49 143q0 22 5 54l5 28q19 112 84.5 176.5t168.5 64.5q50 0 89.5 -22.5zM177.5 411.5
q-48.5 -44.5 -68.5 -123.5h311q2 20 2 30q0 64 -36.5 101t-92.5 37q-67 0 -115.5 -44.5zM345 581h-48l-74 143h72z" />
    <glyph glyph-name="uni0451" unicode="&#x451;" horiz-adv-x="514" 
d="M391.5 485.5q39.5 -22.5 62 -65t22.5 -99.5q0 -25 -4 -48l-5 -32h-367l-1 -8q-4 -23 -4 -48q0 -67 34 -106t92 -39t98 26.5t67 76.5l47 -25q-73 -130 -216 -130q-80 0 -129 54t-49 143q0 22 5 54l5 28q19 112 84.5 176.5t168.5 64.5q50 0 89.5 -22.5zM177.5 411.5
q-48.5 -44.5 -68.5 -123.5h311q2 20 2 30q0 64 -36.5 101t-92.5 37q-67 0 -115.5 -44.5zM196.5 616.5q-14.5 14.5 -14.5 33.5q0 20 14.5 34t34.5 14t34 -14t14 -34t-14 -34t-34 -14t-34.5 14.5zM399 616.5q-14 14.5 -14 33.5q0 20 14 34t34 14t34.5 -14t14.5 -34t-14.5 -34
t-34.5 -14t-34 14.5z" />
    <glyph glyph-name="uni0452" unicode="&#x452;" horiz-adv-x="487" 
d="M199 -201l9 51q24 -12 49 -12q27 0 43 18t23 55l72 406q3 18 3 35q0 50 -28.5 78t-81.5 28t-96.5 -40t-53.5 -101l-56 -317h-54l104 585h-74l8 50h74l12 65h54l-11 -65h162l-8 -50h-163l-27 -152q20 33 58.5 54t90.5 21q68 0 107 -41.5t39 -106.5q0 -12 -4 -40l-72 -406
q-12 -69 -41.5 -97.5t-81.5 -28.5q-37 0 -56 11z" />
    <glyph glyph-name="uni0453" unicode="&#x453;" horiz-adv-x="398" 
d="M82 0h-54l88 496h296l-9 -49h-242zM306 581h-52l96 143h78z" />
    <glyph glyph-name="uni0454" unicode="&#x454;" horiz-adv-x="500" 
d="M324 68q37 28 66 81l47 -24q-32 -67 -84.5 -102t-129.5 -35q-55 0 -96.5 25.5t-64 70.5t-22.5 101q0 27 4 48l6 35q42 240 252 240q69 0 114.5 -38t58.5 -102l-51 -16q-13 49 -45.5 76.5t-85.5 27.5q-73 0 -120 -46.5t-65 -136.5h206l-8 -49h-207q-3 -19 -3 -39
q0 -66 37 -105.5t96 -39.5q58 0 95 28z" />
    <glyph glyph-name="uni0455" unicode="&#x455;" horiz-adv-x="437" 
d="M79 20.5q-39 34.5 -52 89.5l51 22q14 -47 40 -71.5t71 -24.5q56 0 89.5 27.5t33.5 76.5q0 35 -24 55t-75 35q-60 18 -92 54.5t-32 84.5q0 63 43.5 100t119.5 37q57 0 96 -28t54 -79l-49 -19q-11 39 -41 58.5t-67 19.5q-44 0 -73.5 -22.5t-29.5 -61.5q0 -36 23 -58.5
t74 -39.5q64 -21 96 -51.5t32 -80.5q0 -70 -50.5 -114t-132.5 -44q-66 0 -105 34.5z" />
    <glyph glyph-name="uni0456" unicode="&#x456;" horiz-adv-x="198" 
d="M136.5 616.5q-14.5 14.5 -14.5 33.5q0 20 14 34t34 14t34 -14t14 -34t-14 -34t-34 -14q-19 0 -33.5 14.5zM82 0h-54l88 496h54z" />
    <glyph glyph-name="uni0457" unicode="&#x457;" horiz-adv-x="198" 
d="M54.5 616.5q-14.5 14.5 -14.5 33.5q0 20 14.5 34t34.5 14t34 -14t14 -34t-14 -34t-34 -14t-34.5 14.5zM217.5 616.5q-14.5 14.5 -14.5 33.5q0 20 14 34t34 14t34.5 -14t14.5 -34t-14.5 -34t-34.5 -14q-19 0 -33.5 14.5zM82 0h-54l88 496h54z" />
    <glyph glyph-name="uni0458" unicode="&#x458;" horiz-adv-x="198" 
d="M136.5 616.5q-14.5 14.5 -14.5 33.5q0 20 14 34t34 14t34 -14t14 -34t-14 -34t-34 -14q-19 0 -33.5 14.5zM-111 -201l9 51q24 -12 49 -12q27 0 43 18t23 55l104 585h54l-103 -582q-12 -69 -41.5 -97.5t-81.5 -28.5q-37 0 -56 11z" />
    <glyph glyph-name="uni0459" unicode="&#x459;" horiz-adv-x="790" 
d="M1 -7.5q-16 5.5 -27 13.5l10 52q24 -22 51 -22q23 0 36 12.5t20 41.5l105 406h284l-37 -211h134q67 0 105.5 -34t38.5 -93q0 -72 -50 -115t-139 -43h-194l79 447h-182l-95 -372q-22 -88 -106 -88q-17 0 -33 5.5zM536 50q62 0 95.5 27.5t33.5 76.5q0 40 -24.5 61.5
t-73.5 21.5h-133l-33 -187h135z" />
    <glyph glyph-name="uni045A" unicode="&#x45a;" horiz-adv-x="782" 
d="M28 0l88 496h54l-37 -209h248l37 209h54l-37 -209h134q67 0 105.5 -34.5t38.5 -94.5q0 -72 -50 -115t-139 -43h-194l42 238h-248l-42 -238h-54zM528 50q62 0 95.5 27.5t33.5 76.5q0 41 -24.5 62.5t-73.5 21.5h-133l-33 -188h135z" />
    <glyph glyph-name="uni045B" unicode="&#x45b;" horiz-adv-x="487" 
d="M415 466.5q39 -41.5 39 -106.5q0 -12 -4 -40l-57 -320h-54l56 317q3 18 3 35q0 50 -28.5 78t-81.5 28t-96.5 -40t-53.5 -101l-56 -317h-54l104 585h-74l8 50h74l12 65h54l-11 -65h162l-8 -50h-163l-27 -152q20 33 58.5 54t90.5 21q68 0 107 -41.5z" />
    <glyph glyph-name="uni045C" unicode="&#x45c;" horiz-adv-x="423" 
d="M82 0h-54l88 496h54l-40 -224h20l212 224h71l-238 -248l150 -248h-62l-135 224h-26zM301 581h-52l96 143h78z" />
    <glyph glyph-name="uni045D" unicode="&#x45d;" horiz-adv-x="508" 
d="M82 0h-54l88 496h54l-71 -405l327 405h54l-88 -496h-54l71 405zM338 581h-48l-74 143h72z" />
    <glyph glyph-name="uni045E" unicode="&#x45e;" horiz-adv-x="455" 
d="M419 496h60l-321 -590q-37 -68 -73 -93t-92 -25q-31 0 -57 11l9 55q32 -16 59 -16q35 0 58.5 20.5t49.5 68.5l47 86l-97 483h58l77 -411zM208.5 602.5q-25.5 28.5 -25.5 69.5q0 6 2 20h52q-2 -12 -2 -18q0 -24 12.5 -38t34.5 -14q30 0 47 17.5t23 52.5h52
q-20 -118 -127 -118q-43 0 -68.5 28.5z" />
    <glyph glyph-name="uni045F" unicode="&#x45f;" horiz-adv-x="501" 
d="M215 -122h-58l21 122h-149l87 496h54l-78 -447h248l78 447h54l-87 -496h-149z" />
    <glyph glyph-name="uni0462" unicode="&#x462;" horiz-adv-x="658" 
d="M427 367q78 0 125 -42t47 -119q0 -62 -28 -108.5t-79 -72t-119 -25.5h-216l90 508h-171l10 54h171l24 138h57l-24 -138h217l-10 -54h-216l-25 -141h147zM376 54q80 0 122 39.5t42 108.5q0 56 -31.5 83.5t-90.5 27.5h-148l-45 -259h151z" />
    <glyph glyph-name="uni0463" unicode="&#x463;" horiz-adv-x="545" 
d="M332 285q67 0 105.5 -34t38.5 -93q0 -72 -50 -115t-139 -43h-194l79 446h-107l9 50h107l36 204h54l-36 -204h194l-9 -50h-194l-28 -161h134zM291 50q62 0 95.5 27.5t33.5 76.5q0 40 -24.5 61.5t-73.5 21.5h-133l-33 -187h135z" />
    <glyph glyph-name="uni0472" unicode="&#x472;" horiz-adv-x="690" 
d="M546.5 677.5q57.5 -36.5 89 -98.5t31.5 -137q0 -32 -6 -65l-12 -68q-28 -159 -114.5 -241t-221.5 -82q-77 0 -134.5 36t-88.5 98t-31 137q0 33 6 66l12 68q28 158 115 240.5t221 82.5q76 0 133.5 -36.5zM228 588.5q-74 -72.5 -95 -207.5l-1 -7q54 33 118 33q30 0 55 -7.5
t66 -23.5q34 -14 57.5 -21.5t48.5 -7.5q27 0 60.5 9t65.5 27q4 24 4 52q0 66 -25.5 117.5t-70.5 80t-101 28.5q-108 0 -182 -72.5zM498 111.5q74 72.5 95 207.5l1 7q-54 -33 -118 -33q-30 0 -55 7.5t-66 23.5q-34 14 -57.5 21.5t-48.5 7.5q-27 0 -60.5 -9t-65.5 -27
q-4 -25 -4 -56q0 -65 24.5 -115.5t69 -78.5t103.5 -28q108 0 182 72.5z" />
    <glyph glyph-name="uni0473" unicode="&#x473;" 
d="M400.5 483q44.5 -25 69 -70t24.5 -104q0 -25 -4 -46l-6 -37q-19 -113 -85 -175.5t-165 -62.5q-58 0 -102 25t-68.5 70t-24.5 102q0 25 4 48l7 39q20 113 85.5 174.5t162.5 61.5q58 0 102.5 -25zM176 408q-50 -48 -68 -130q30 19 69 19q24 0 42.5 -5.5t46.5 -16.5
q28 -12 49 -18t48 -6q40 0 72 23q2 22 2 32q0 68 -39 109t-99 41q-73 0 -123 -48zM359 88q51 48 67 130q-30 -19 -69 -19q-24 0 -42.5 5.5t-46.5 16.5q-28 12 -49 18t-48 6q-42 0 -74 -24q-3 -18 -3 -34q0 -66 39.5 -106.5t99.5 -40.5q75 0 126 48z" />
    <glyph glyph-name="uni0474" unicode="&#x474;" horiz-adv-x="657" 
d="M209 0l-109 700h60l93 -631l277 552q25 51 53 72t69 21q44 0 72 -24l-31 -51q-21 19 -45 19q-20 0 -34 -13t-31 -46l-306 -599h-68z" />
    <glyph glyph-name="uni0475" unicode="&#x475;" horiz-adv-x="503" 
d="M144 0l-88 496h57l70 -428l191 369q21 40 43.5 55.5t57.5 15.5q37 0 60 -21l-30 -46q-8 8 -16 11.5t-19 3.5q-12 0 -24 -9t-21 -27l-221 -420h-60z" />
    <glyph glyph-name="uni0490" unicode="&#x490;" horiz-adv-x="509" 
d="M95 0h-58l124 700h323l24 137h58l-34 -191h-323z" />
    <glyph glyph-name="uni0491" unicode="&#x491;" horiz-adv-x="399" 
d="M83 0h-54l87 496h243l22 129h54l-31 -178h-243z" />
    <glyph glyph-name="Wgrave" unicode="&#x1e80;" horiz-adv-x="801" 
d="M205 0h-71l-28 700h57l22 -617l255 578h64l53 -578l237 617h61l-275 -700h-72l-49 576zM521 785h-48l-74 143h72z" />
    <glyph glyph-name="wgrave" unicode="&#x1e81;" horiz-adv-x="637" 
d="M158 0h-61l-36 496h56l23 -417l191 417h59l45 -417l171 417h58l-210 -496h-60l-43 426zM403 581h-48l-74 143h72z" />
    <glyph glyph-name="Wacute" unicode="&#x1e82;" horiz-adv-x="801" 
d="M205 0h-71l-28 700h57l22 -617l255 578h64l53 -578l237 617h61l-275 -700h-72l-49 576zM523 785h-52l96 143h78z" />
    <glyph glyph-name="wacute" unicode="&#x1e83;" horiz-adv-x="637" 
d="M158 0h-61l-36 496h56l23 -417l191 417h59l45 -417l171 417h58l-210 -496h-60l-43 426zM405 581h-52l96 143h78z" />
    <glyph glyph-name="Wdieresis" unicode="&#x1e84;" horiz-adv-x="801" 
d="M205 0h-71l-28 700h57l22 -617l255 578h64l53 -578l237 617h61l-275 -700h-72l-49 576zM372.5 820.5q-14.5 14.5 -14.5 33.5q0 20 14.5 34t34.5 14t34 -14t14 -34t-14 -34t-34 -14t-34.5 14.5zM575 820.5q-14 14.5 -14 33.5q0 20 14 34t34 14t34.5 -14t14.5 -34
t-14.5 -34t-34.5 -14t-34 14.5z" />
    <glyph glyph-name="wdieresis" unicode="&#x1e85;" horiz-adv-x="637" 
d="M158 0h-61l-36 496h56l23 -417l191 417h59l45 -417l171 417h58l-210 -496h-60l-43 426zM254.5 616.5q-14.5 14.5 -14.5 33.5q0 20 14.5 34t34.5 14t34 -14t14 -34t-14 -34t-34 -14t-34.5 14.5zM457 616.5q-14 14.5 -14 33.5q0 20 14 34t34 14t34.5 -14t14.5 -34
t-14.5 -34t-34.5 -14t-34 14.5z" />
    <glyph glyph-name="uni1E9E" unicode="&#x1e9e;" horiz-adv-x="571" 
d="M203.5 -5.5q-32.5 6.5 -50.5 15.5l11 63q43 -31 116 -31q70 0 115.5 40t58.5 118l4 24q3 18 3 33q0 58 -37 90.5t-106 32.5l9 48l170 218h-154q-133 0 -159 -144l-89 -502h-58l89 502q35 198 214 198h242l-9 -49l-180 -225q53 -9 89.5 -55t36.5 -112q0 -22 -4 -41l-3 -17
q-38 -213 -240 -213q-36 0 -68.5 6.5z" />
    <glyph glyph-name="Ygrave" unicode="&#x1ef2;" horiz-adv-x="517" 
d="M243 0h-58l52 291l-140 409h63l115 -347l235 347h70l-285 -409zM378 785h-48l-74 143h72z" />
    <glyph glyph-name="ygrave" unicode="&#x1ef3;" horiz-adv-x="455" 
d="M419 496h60l-321 -590q-37 -68 -73 -93t-92 -25q-31 0 -57 11l9 55q32 -16 59 -16q35 0 58.5 20.5t49.5 68.5l47 86l-97 483h58l77 -411zM311 581h-48l-74 143h72z" />
    <glyph glyph-name="endash" unicode="&#x2013;" horiz-adv-x="438" 
d="M415 287h-377l8 50h377z" />
    <glyph glyph-name="emdash" unicode="&#x2014;" horiz-adv-x="606" 
d="M583 287h-545l8 50h545z" />
    <glyph glyph-name="quoteleft" unicode="&#x2018;" horiz-adv-x="229" 
d="M128 498q-13 14 -13 35q0 25 14 46.5t50 61.5l61 67l19 -15l-52 -68q-20 -25 -26 -44q14 -4 25 -16t11 -27q0 -25 -15.5 -39.5t-39.5 -14.5q-21 0 -34 14z" />
    <glyph glyph-name="quoteright" unicode="&#x2019;" horiz-adv-x="229" 
d="M126 484l-18 15l50 68q19 26 25 44q-14 4 -24.5 16t-10.5 27q0 25 15 39.5t38 14.5q21 0 33 -14t12 -35q0 -25 -13.5 -46.5t-47.5 -61.5z" />
    <glyph glyph-name="quotesinglbase" unicode="&#x201a;" horiz-adv-x="229" 
d="M18 -126l-18 15l50 68q19 26 25 44q-14 4 -24.5 16t-10.5 27q0 25 15 39.5t38 14.5q21 0 33 -14t12 -35q0 -25 -13.5 -46.5t-47.5 -61.5z" />
    <glyph glyph-name="quotedblleft" unicode="&#x201c;" horiz-adv-x="391" 
d="M290 498q-13 14 -13 35q0 25 14 46.5t50 61.5l61 67l19 -15l-52 -68q-20 -25 -26 -44q14 -4 25 -16t11 -27q0 -25 -15.5 -39.5t-39.5 -14.5q-21 0 -34 14zM128 498q-13 14 -13 35q0 25 14 46.5t50 61.5l61 67l19 -15l-52 -68q-20 -25 -26 -44q14 -4 25 -16t11 -27
q0 -25 -15.5 -39.5t-39.5 -14.5q-21 0 -34 14z" />
    <glyph glyph-name="quotedblright" unicode="&#x201d;" horiz-adv-x="391" 
d="M288 484l-18 15l50 68q19 26 25 44q-14 4 -24.5 16t-10.5 27q0 25 15 39.5t38 14.5q21 0 33 -14t12 -35q0 -25 -13.5 -46.5t-47.5 -61.5zM126 484l-18 15l50 68q19 26 25 44q-14 4 -24.5 16t-10.5 27q0 25 15 39.5t38 14.5q21 0 33 -14t12 -35q0 -25 -13.5 -46.5
t-47.5 -61.5z" />
    <glyph glyph-name="quotedblbase" unicode="&#x201e;" horiz-adv-x="391" 
d="M18 -126l-18 15l50 68q19 26 25 44q-14 4 -24.5 16t-10.5 27q0 25 15 39.5t38 14.5q21 0 33 -14t12 -35q0 -25 -13.5 -46.5t-47.5 -61.5zM180 -126l-18 15l50 68q19 26 25 44q-14 4 -24.5 16t-10.5 27q0 25 15 39.5t38 14.5q21 0 33 -14t12 -35q0 -25 -13.5 -46.5
t-47.5 -61.5z" />
    <glyph glyph-name="dagger" unicode="&#x2020;" horiz-adv-x="323" 
d="M253 611h99l-9 -50h-99l-48 -271h-54l48 271h-100l9 50h100l19 109l60 30z" />
    <glyph glyph-name="daggerdbl" unicode="&#x2021;" horiz-adv-x="323" 
d="M352 611l-9 -50h-99l-14 -82h99l-9 -50h-99l-25 -139h-54l25 139h-100l9 50h99l15 82h-100l9 50h100l19 109l60 30l-25 -139h99z" />
    <glyph glyph-name="bullet" unicode="&#x2022;" horiz-adv-x="424" 
d="M166 240.5q-30 17.5 -47.5 47.5t-17.5 65t17.5 65t47.5 47.5t65 17.5t65 -17.5t47.5 -47.5t17.5 -65t-17.5 -65t-47.5 -47.5t-65 -17.5t-65 17.5z" />
    <glyph glyph-name="ellipsis" unicode="&#x2026;" horiz-adv-x="653" 
d="M255.5 4.5q-14.5 14.5 -14.5 33.5q0 21 14 35t34 14q21 0 35 -14t14 -35q0 -20 -14 -34t-35 -14q-19 0 -33.5 14.5zM455.5 4.5q-14.5 14.5 -14.5 33.5q0 21 14 35t34 14q21 0 35 -14t14 -35q0 -20 -14 -34t-35 -14q-19 0 -33.5 14.5zM55.5 4.5q-14.5 14.5 -14.5 33.5
q0 21 14 35t34 14q21 0 35 -14t14 -35q0 -20 -14 -34t-35 -14q-19 0 -33.5 14.5z" />
    <glyph glyph-name="perthousand" unicode="&#x2030;" horiz-adv-x="1137" 
d="M127 406q-38 38 -38 96q0 15 3 31l4 22q14 73 59 115t111 42q61 0 98 -38t37 -97q0 -19 -2 -29l-3 -19q-12 -75 -58.5 -118t-112.5 -43q-60 0 -98 38zM172 0h-62l532 700h62zM305.5 448q29.5 30 38.5 83l3 17q2 16 2 24q0 40 -23.5 65t-63.5 25q-47 0 -75.5 -29.5
t-38.5 -80.5l-4 -20q-3 -13 -3 -26q0 -40 23.5 -64t63.5 -24q48 0 77.5 30zM448.5 26q-37.5 38 -37.5 97q0 15 3 30l3 17q13 76 59 119t112 43q60 0 98 -37.5t38 -94.5q0 -15 -3 -32l-4 -20q-15 -74 -60 -117t-110 -43q-61 0 -98.5 38zM808.5 26q-37.5 38 -37.5 97
q0 15 3 30l3 17q13 76 59 119t112 43q61 0 98.5 -38t37.5 -96q0 -15 -3 -30l-4 -20q-13 -74 -58.5 -117t-111.5 -43q-61 0 -98.5 38zM628.5 68q29.5 30 37.5 83l3 20q1 7 1 20q0 40 -23 65.5t-63 25.5q-47 0 -76.5 -30.5t-38.5 -82.5l-3 -17q-2 -9 -2 -25q0 -41 23 -65
t63 -24q49 0 78.5 30zM987 67.5q29 29.5 38 82.5l4 21q2 16 2 23q0 38 -23.5 63t-63.5 25q-47 0 -76.5 -30t-38.5 -81l-3 -19q-2 -9 -2 -25q0 -41 23 -65t63 -24q48 0 77 29.5z" />
    <glyph glyph-name="guilsinglleft" unicode="&#x2039;" horiz-adv-x="229" 
d="M172 124h-53l-73 172l127 172h59l-130 -175z" />
    <glyph glyph-name="guilsinglright" unicode="&#x203a;" horiz-adv-x="230" 
d="M73 124h-59l130 175l-70 169h53l73 -172z" />
    <glyph glyph-name="fraction" unicode="&#x2044;" horiz-adv-x="314" 
d="M-59 0h-63l531 700h63z" />
    <glyph glyph-name="uni2070" unicode="&#x2070;" horiz-adv-x="307" 
d="M96 378.5q-30 35.5 -30 94.5q0 18 3 39l4 24q13 80 53.5 125.5t105.5 45.5q52 0 81 -33t29 -92q0 -23 -4 -44l-4 -24q-14 -83 -56 -127t-102 -44q-50 0 -80 35.5zM245.5 422q26.5 32 36.5 92l4 25q3 21 3 38q0 40 -16 61.5t-45 21.5q-39 0 -66 -32t-37 -93l-4 -24
q-3 -21 -3 -39q0 -39 16.5 -60.5t45.5 -21.5q39 0 65.5 32z" />
    <glyph glyph-name="uni2074" unicode="&#x2074;" horiz-adv-x="277" 
d="M233 350h-49l14 80h-151l8 46l191 224h49l-40 -224h50l-8 -46h-50zM231 620l-122 -144h97z" />
    <glyph glyph-name="uni2075" unicode="&#x2075;" horiz-adv-x="283" 
d="M91 371.5q-30 27.5 -32 72.5l51 10q3 -29 19 -46t42 -17q33 0 53 18t25 51l1 6q1 5 1 15q0 26 -15.5 42t-43.5 16q-41 0 -69 -37l-42 15l48 183h200l-7 -44h-156l-27 -98q27 24 69 24q45 0 70.5 -25.5t25.5 -68.5q0 -7 -2 -23l-1 -5q-9 -56 -43 -86t-90 -30
q-47 0 -77 27.5z" />
    <glyph glyph-name="uni2076" unicode="&#x2076;" horiz-adv-x="268" 
d="M85.5 372q-29.5 28 -29.5 73q0 40 14.5 66.5t47.5 66.5l103 122h58l-119 -137q13 9 38 9q39 0 64.5 -26t25.5 -66q0 -60 -37 -98t-94 -38q-42 0 -71.5 28zM218 408.5q22 21.5 22 60.5q0 27 -16 44t-43 17q-34 0 -55.5 -24t-21.5 -60q0 -26 16 -42.5t42 -16.5
q34 0 56 21.5z" />
    <glyph glyph-name="uni2077" unicode="&#x2077;" horiz-adv-x="242" 
d="M130 350h-52l170 306h-162l8 44h213l-8 -44z" />
    <glyph glyph-name="uni2078" unicode="&#x2078;" horiz-adv-x="272" 
d="M85.5 369q-29.5 25 -29.5 66t21.5 68t51.5 36q-15 11 -23.5 27t-8.5 35q0 46 30 74.5t85 28.5q41 0 65.5 -22.5t24.5 -59.5q0 -31 -16.5 -54.5t-44.5 -34.5q19 -9 32 -27.5t13 -43.5q0 -52 -35.5 -85t-94.5 -33q-41 0 -70.5 25zM237.5 570q17.5 17 17.5 47
q0 20 -13.5 32.5t-35.5 12.5q-30 0 -46.5 -16t-16.5 -45q0 -20 13.5 -34t34.5 -14q29 0 46.5 17zM216 406.5q21 18.5 21 52.5q0 23 -15.5 38.5t-40.5 15.5q-33 0 -54.5 -19t-21.5 -53q0 -23 16 -38t41 -15q33 0 54 18.5z" />
    <glyph glyph-name="uni2079" unicode="&#x2079;" horiz-adv-x="269" 
d="M206 487q-14 -9 -38 -9q-38 0 -64 27.5t-26 68.5q0 60 37 96t94 36q42 0 71.5 -28t29.5 -73q0 -40 -14.5 -66.5t-47.5 -66.5l-103 -122h-58zM240.5 544q21.5 24 21.5 60q0 26 -16 42.5t-42 16.5q-34 0 -56 -21.5t-22 -60.5q0 -27 16 -44t43 -17q34 0 55.5 24z" />
    <glyph glyph-name="uni2080" unicode="&#x2080;" horiz-adv-x="307" 
d="M15 -81.5q-30 35.5 -30 94.5q0 18 3 39l4 24q13 80 53.5 125.5t105.5 45.5q52 0 81 -33t29 -92q0 -23 -4 -44l-4 -24q-14 -83 -56 -127t-102 -44q-50 0 -80 35.5zM164.5 -38q26.5 32 36.5 92l4 25q3 21 3 38q0 40 -16 61.5t-45 21.5q-39 0 -66 -32t-37 -93l-4 -24
q-3 -21 -3 -39q0 -39 16.5 -60.5t45.5 -21.5q39 0 65.5 32z" />
    <glyph glyph-name="uni2081" unicode="&#x2081;" horiz-adv-x="185" 
d="M84 -110h-51l51 292l-92 -55l10 58l93 55h51z" />
    <glyph glyph-name="uni2082" unicode="&#x2082;" horiz-adv-x="269" 
d="M-33 -110l8 45l134 117q33 29 47.5 50.5t14.5 47.5q0 23 -14 37.5t-38 14.5q-28 0 -45 -15t-27 -46l-44 10q11 45 41.5 70t81.5 25q45 0 72 -25t27 -67q0 -41 -19 -68.5t-59 -62.5l-101 -88h146l-8 -45h-217z" />
    <glyph glyph-name="uni2083" unicode="&#x2083;" horiz-adv-x="279" 
d="M3 -88.5q-29 27.5 -30 74.5l48 9q4 -31 19.5 -48t41.5 -17q36 0 57.5 21.5t21.5 57.5q0 29 -21 45t-59 16l7 39l85 88h-151l7 43h211l-7 -43l-91 -91q31 -7 51 -31t20 -60q0 -58 -37 -94.5t-97 -36.5q-47 0 -76 27.5z" />
    <glyph glyph-name="uni2084" unicode="&#x2084;" horiz-adv-x="277" 
d="M152 -110h-49l14 80h-151l8 46l191 224h49l-40 -224h50l-8 -46h-50zM150 160l-122 -144h97z" />
    <glyph glyph-name="uni2085" unicode="&#x2085;" horiz-adv-x="283" 
d="M10 -88.5q-30 27.5 -32 72.5l51 10q3 -29 19 -46t42 -17q33 0 53 18t25 51l1 6q1 5 1 15q0 26 -15.5 42t-43.5 16q-41 0 -69 -37l-42 15l48 183h200l-7 -44h-156l-27 -98q27 24 69 24q45 0 70.5 -25.5t25.5 -68.5q0 -7 -2 -23l-1 -5q-9 -56 -43 -86t-90 -30
q-47 0 -77 27.5z" />
    <glyph glyph-name="uni2086" unicode="&#x2086;" horiz-adv-x="268" 
d="M4.5 -88q-29.5 28 -29.5 73q0 40 14.5 66.5t47.5 66.5l103 122h58l-119 -137q13 9 38 9q39 0 64.5 -26t25.5 -66q0 -60 -37 -98t-94 -38q-42 0 -71.5 28zM137 -51.5q22 21.5 22 60.5q0 27 -16 44t-43 17q-34 0 -55.5 -24t-21.5 -60q0 -26 16 -42.5t42 -16.5q34 0 56 21.5
z" />
    <glyph glyph-name="uni2087" unicode="&#x2087;" horiz-adv-x="242" 
d="M49 -110h-52l170 306h-162l8 44h213l-8 -44z" />
    <glyph glyph-name="uni2088" unicode="&#x2088;" horiz-adv-x="272" 
d="M4.5 -91q-29.5 25 -29.5 66t21.5 68t51.5 36q-15 11 -23.5 27t-8.5 35q0 46 30 74.5t85 28.5q41 0 65.5 -22.5t24.5 -59.5q0 -31 -16.5 -54.5t-44.5 -34.5q19 -9 32 -27.5t13 -43.5q0 -52 -35.5 -85t-94.5 -33q-41 0 -70.5 25zM156.5 110q17.5 17 17.5 47
q0 20 -13.5 32.5t-35.5 12.5q-30 0 -46.5 -16t-16.5 -45q0 -20 13.5 -34t34.5 -14q29 0 46.5 17zM135 -53.5q21 18.5 21 52.5q0 23 -15.5 38.5t-40.5 15.5q-33 0 -54.5 -19t-21.5 -53q0 -23 16 -38t41 -15q33 0 54 18.5z" />
    <glyph glyph-name="uni2089" unicode="&#x2089;" horiz-adv-x="269" 
d="M125 27q-14 -9 -38 -9q-38 0 -64 27.5t-26 68.5q0 60 37 96t94 36q42 0 71.5 -28t29.5 -73q0 -40 -14.5 -66.5t-47.5 -66.5l-103 -122h-58zM159.5 84q21.5 24 21.5 60q0 26 -16 42.5t-42 16.5q-34 0 -56 -21.5t-22 -60.5q0 -27 16 -44t43 -17q34 0 55.5 24z" />
    <glyph glyph-name="Euro" unicode="&#x20ac;" horiz-adv-x="653" 
d="M292 607q-67 -54 -100 -156h285l-19 -47h-279q-4 -16 -5 -25l-10 -58l-4 -25h255l-19 -47h-238q1 -95 50.5 -152.5t136.5 -57.5q127 0 197 120l45 -29q-45 -72 -106 -108t-145 -36q-72 0 -126.5 32.5t-83 92t-27.5 138.5h-79l19 47h63q2 18 4 27l12 67l3 14h-73l19 47h65
q36 131 119.5 197t205.5 66q78 0 131 -36t78 -98l-51 -25q-21 48 -61.5 77t-105.5 29q-89 0 -156 -54z" />
    <glyph glyph-name="uni20B4" unicode="&#x20b4;" horiz-adv-x="550" 
d="M557 451l-8 -47h-493l8 47h352q32 22 47 47.5t15 58.5q0 44 -39 72.5t-95 28.5q-60 0 -98 -25.5t-67 -84.5l-50 22q60 142 225 142q50 0 92 -20t66.5 -54.5t24.5 -76.5q1 -32 -12 -60.5t-38 -49.5h70zM28 249l9 47h493l-9 -47h-384q-31 -42 -31 -82q0 -54 35.5 -90.5
t95.5 -36.5q57 0 94 16t61 46.5t46 80.5l51 -22q-25 -58 -55 -95.5t-79.5 -58.5t-124.5 -21q-54 0 -95.5 21.5t-65 59.5t-23.5 87q0 52 28 95h-46z" />
    <glyph glyph-name="uni20BA" unicode="&#x20ba;" horiz-adv-x="541" 
d="M501 280q-22 -130 -95.5 -205t-233.5 -75h-104l29 161l-93 -62l12 68l93 62l18 102l-93 -62l12 68l93 62l53 301h59l-45 -256l168 113l-12 -68l-168 -113l-18 -102l168 113l-12 -68l-168 -113l-27 -152h48q120 0 179.5 59t78.5 167h58z" />
    <glyph glyph-name="uni20BD" unicode="&#x20bd;" horiz-adv-x="572" 
d="M188 333l-23 -129h228l-8 -48h-228l-28 -156h-58l28 156h-87l8 48h87l88 496h208q76 0 122 -47t46 -118q0 -92 -60.5 -147t-164.5 -55h-158zM243 646l-45 -259h151q77 0 120 39.5t43 103.5q0 55 -32.5 85.5t-87.5 30.5h-149z" />
    <glyph glyph-name="uni2113" unicode="&#x2113;" horiz-adv-x="465" 
d="M345 119l45 -29q-28 -49 -65.5 -76.5t-91.5 -27.5t-90.5 43t-44.5 122l-60 -27l-17 47q45 18 75 34q1 136 33 253t85.5 186.5t115.5 69.5q48 0 73.5 -31.5t25.5 -89.5q0 -114 -67 -222.5t-209 -190.5q3 -68 25.5 -104t60.5 -36q65 0 106 79zM245.5 600.5
q-38.5 -59.5 -63 -156.5t-28.5 -206q114 74 166.5 169t52.5 188q0 65 -45 65q-44 0 -82.5 -59.5z" />
    <glyph glyph-name="uni2116" unicode="&#x2116;" horiz-adv-x="1043" 
d="M695.5 299.5q-44.5 45.5 -44.5 123.5q0 25 4 46l5 30q18 108 75.5 161.5t148.5 53.5q71 0 116 -46t45 -124q0 -24 -4 -45l-5 -30q-18 -108 -76 -161.5t-149 -53.5q-71 0 -115.5 45.5zM94 0h-57l124 700h63l214 -581l103 581h57l-124 -700h-50l-222 605zM923.5 346
q43.5 40 56.5 122l5 32q4 30 4 42q0 60 -31 90t-83 30q-60 0 -103 -40t-56 -122l-5 -32q-4 -30 -4 -43q0 -60 30.5 -89.5t82.5 -29.5q60 0 103.5 40zM972 145h-368l9 52h368z" />
    <glyph glyph-name="trademark" unicode="&#x2122;" horiz-adv-x="484" 
d="M153 420h-39l43 243h-76l7 37h191l-7 -37h-76zM298 420h-39l50 280h41l41 -182l105 182h45l-50 -280h-38l35 199l-83 -143h-38l-34 143z" />
    <glyph glyph-name="uni2126" unicode="&#x2126;" horiz-adv-x="651" 
d="M45 0l10 54h132l5 31q-52 36 -86.5 95.5t-34.5 142.5q0 33 6 69l7 40q22 125 100 203.5t210 78.5q74 0 128.5 -31.5t83.5 -85.5t29 -120q0 -27 -4 -50l-7 -40q-40 -226 -222 -302l-5 -31h132l-10 -54h-190l19 110q64 30 105.5 63t70 85t43.5 132l7 39q4 23 4 49
q0 82 -49 133t-138 51q-106 0 -168.5 -66t-80.5 -168l-7 -39q-7 -38 -7 -74q0 -74 32 -123.5t95 -81.5l-19 -110h-191z" />
    <glyph glyph-name="estimated" unicode="&#x212e;" horiz-adv-x="826" 
d="M238 113q39 -35 89 -54t107 -19q89 0 159 45t106 120h65q-40 -99 -127.5 -159t-202.5 -60q-102 0 -184 48.5t-128 132t-46 183.5t46 183.5t128 132t184 48.5t184 -48.5t128 -132t46 -183.5h-554v-237zM629 588q-39 34 -88.5 53t-106.5 19t-107 -19t-89 -54v-189h391v190z
" />
    <glyph glyph-name="partialdiff" unicode="&#x2202;" horiz-adv-x="515" 
d="M422 435q46 -95 46 -167q0 -10 -2 -30l-3 -21q-16 -112 -82.5 -170.5t-163.5 -58.5q-49 0 -90 24.5t-65.5 67.5t-24.5 97q0 18 3 36l3 19q10 66 44 113t84 71.5t107 24.5q50 0 90 -21l-137 280h63zM406 225q6 32 6 55q0 35 -14 74q-53 38 -123 38q-69 0 -117 -44
t-58 -122l-2 -15q-2 -20 -2 -29q0 -64 37 -102t94 -38q70 0 115 42.5t61 124.5z" />
    <glyph glyph-name="uni2206" unicode="&#x2206;" horiz-adv-x="584" 
d="M501 0h-507l10 54l332 646h70l105 -646zM362 632l-293 -578h381z" />
    <glyph glyph-name="product" unicode="&#x220f;" horiz-adv-x="669" 
d="M122 -204h-58l150 850h-114l10 54h609l-10 -54h-115l-150 -850h-58l150 850h-264z" />
    <glyph glyph-name="summation" unicode="&#x2211;" horiz-adv-x="475" 
d="M369 -128h-387l10 54l268 366l-142 354l10 54h377l-10 -54h-318l146 -362l-264 -358h320z" />
    <glyph glyph-name="minus" unicode="&#x2212;" horiz-adv-x="433" 
d="M411 285h-376l10 54h376z" />
    <glyph glyph-name="uni2215" unicode="&#x2215;" horiz-adv-x="433" 
d="M95 0h-57l335 700h57z" />
    <glyph glyph-name="uni2219" unicode="&#x2219;" horiz-adv-x="433" 
d="M163 202.5q-30 17.5 -47.5 47.5t-17.5 65t17.5 65t47.5 47.5t65 17.5t65 -17.5t47.5 -47.5t17.5 -65t-17.5 -65t-47.5 -47.5t-65 -17.5t-65 17.5z" />
    <glyph glyph-name="radical" unicode="&#x221a;" horiz-adv-x="556" 
d="M259 0h-68l-50 320h-103l9 50h146l41 -301l317 631h65z" />
    <glyph glyph-name="infinity" unicode="&#x221e;" horiz-adv-x="795" 
d="M685 449q39 -21 61 -60t22 -89t-22 -89t-61 -60t-86 -21q-59 0 -105 30.5t-87 88.5q-41 -58 -87.5 -88.5t-105.5 -30.5q-47 0 -86 21t-61 60t-22 89t22 89t61 60t86 21q59 0 105.5 -30.5t87.5 -88.5q41 58 87 88.5t105 30.5q47 0 86 -21zM300.5 210.5
q36.5 28.5 74.5 89.5q-38 61 -74.5 89.5t-87.5 28.5q-49 0 -80.5 -31.5t-31.5 -86.5t31.5 -86.5t80.5 -31.5q51 0 87.5 28.5zM680.5 213.5q31.5 31.5 31.5 86.5t-31.5 86.5t-80.5 31.5q-51 0 -87.5 -28.5t-74.5 -89.5q38 -61 74.5 -89.5t87.5 -28.5q49 0 80.5 31.5z" />
    <glyph glyph-name="integral" unicode="&#x222b;" horiz-adv-x="329" 
d="M-101 -206l9 54q30 -16 62 -16t53 20t27 55l119 675q12 64 51 97t99 33q36 0 68 -12l-9 -54q-32 16 -64 16q-36 0 -59.5 -20.5t-30.5 -58.5l-120 -675q-11 -62 -47.5 -94t-91.5 -32q-34 0 -66 12z" />
    <glyph glyph-name="approxequal" unicode="&#x2248;" horiz-adv-x="433" 
d="M49 354q15 49 42 73.5t70 24.5q23 0 42 -7.5t47 -23.5q25 -13 40 -19.5t32 -6.5q27 0 43.5 14.5t27.5 44.5l44 -14q-15 -49 -42.5 -73.5t-72.5 -24.5q-22 0 -41 7.5t-49 23.5q-25 13 -40 19.5t-32 6.5q-25 0 -41.5 -14.5t-25.5 -44.5zM19 184q15 49 42 73.5t70 24.5
q23 0 42 -7.5t47 -23.5q25 -13 40 -19.5t32 -6.5q27 0 43.5 14.5t27.5 44.5l44 -14q-15 -49 -42.5 -73.5t-72.5 -24.5q-22 0 -41 7.5t-49 23.5q-25 13 -40 19.5t-32 6.5q-25 0 -41.5 -14.5t-25.5 -44.5z" />
    <glyph glyph-name="notequal" unicode="&#x2260;" horiz-adv-x="433" 
d="M394 575l44 -31l-82 -108h82l-10 -54h-113l-106 -140h195l-10 -54h-226l-106 -139l-44 31l82 108h-82l10 54h113l106 140h-195l10 54h226z" />
    <glyph glyph-name="lessequal" unicode="&#x2264;" horiz-adv-x="432" 
d="M393 185l-10 -54l-348 160l12 69l404 159l-11 -60l-352 -137zM360 0h-376l10 54h376z" />
    <glyph glyph-name="greaterequal" unicode="&#x2265;" horiz-adv-x="432" 
d="M411 290l-404 -159l11 60l352 137l-305 137l10 54l348 -160zM360 0h-376l10 54h376z" />
    <glyph glyph-name="lozenge" unicode="&#x25ca;" horiz-adv-x="500" 
d="M240 0h-70l-132 350l256 350h70l134 -350zM100 344l110 -297l226 309l-110 297z" />
    <glyph glyph-name="fi" unicode="&#xfb01;" horiz-adv-x="527" 
d="M251.5 643q-21.5 -19 -28.5 -60l-15 -87h143l-9 -50h-143l-79 -446h-54l79 446h-90l9 50h90l15 86q11 64 48.5 97t98.5 33q44 0 71 -12l-10 -52q-31 14 -67 14q-37 0 -58.5 -19zM465.5 616.5q-14.5 14.5 -14.5 33.5q0 20 14 34t34 14t34 -14t14 -34t-14 -34t-34 -14
q-19 0 -33.5 14.5zM411 0h-54l88 496h54z" />
    <glyph glyph-name="fl" unicode="&#xfb02;" horiz-adv-x="564" 
d="M251.5 643q-21.5 -19 -28.5 -60l-15 -87h143l-9 -50h-143l-79 -446h-54l79 446h-90l9 50h90l15 86q11 64 48.5 97t98.5 33q44 0 71 -12l-10 -52q-31 14 -67 14q-37 0 -58.5 -19zM393.5 13q-20.5 25 -20.5 63q0 17 2 25l106 599h54l-106 -600q-1 -5 -1 -15q0 -21 10.5 -34
t29.5 -13q22 0 44 12l-9 -51q-24 -11 -55 -11q-34 0 -54.5 25z" />
    <glyph glyph-name="NULL" horiz-adv-x="600" 
 />
    <glyph glyph-name="i.loclTRK" horiz-adv-x="198" 
d="M82 0h-54l88 496h54zM136 616.5q-14 14.5 -14 33.5q0 20 14 34t34 14t34 -14t14 -34t-14 -34t-34 -14t-34 14.5z" />
    <glyph glyph-name="a.ss01" horiz-adv-x="508" 
d="M91.5 4.5q-30.5 16.5 -49 46t-18.5 66.5q0 71 44.5 113t134.5 58l163 29l3 18q2 18 2 24q0 46 -29.5 71.5t-78.5 25.5q-48 0 -85.5 -25t-57.5 -73l-45 20q52 130 195 130q71 0 114 -39.5t43 -101.5q0 -14 -3 -31l-44 -249q-1 -5 -1 -13q0 -38 36 -38q17 0 35 8l-8 -47
q-19 -9 -50 -9q-34 0 -52.5 24t-14.5 63q-27 -43 -65.5 -65t-101.5 -22q-36 0 -66.5 16.5zM287.5 87q45.5 49 63.5 143l7 37l-145 -26q-66 -12 -98.5 -39.5t-32.5 -73.5q0 -39 24.5 -64.5t66.5 -25.5q69 0 114.5 49z" />
    <glyph glyph-name="aacute.ss01" horiz-adv-x="508" 
d="M91.5 4.5q-30.5 16.5 -49 46t-18.5 66.5q0 71 44.5 113t134.5 58l163 29l3 18q2 18 2 24q0 46 -29.5 71.5t-78.5 25.5q-48 0 -85.5 -25t-57.5 -73l-45 20q52 130 195 130q71 0 114 -39.5t43 -101.5q0 -14 -3 -31l-44 -249q-1 -5 -1 -13q0 -38 36 -38q17 0 35 8l-8 -47
q-19 -9 -50 -9q-34 0 -52.5 24t-14.5 63q-27 -43 -65.5 -65t-101.5 -22q-36 0 -66.5 16.5zM287.5 87q45.5 49 63.5 143l7 37l-145 -26q-66 -12 -98.5 -39.5t-32.5 -73.5q0 -39 24.5 -64.5t66.5 -25.5q69 0 114.5 49zM320 581h-52l96 143h78z" />
    <glyph glyph-name="abreve.ss01" horiz-adv-x="508" 
d="M91.5 4.5q-30.5 16.5 -49 46t-18.5 66.5q0 71 44.5 113t134.5 58l163 29l3 18q2 18 2 24q0 46 -29.5 71.5t-78.5 25.5q-48 0 -85.5 -25t-57.5 -73l-45 20q52 130 195 130q71 0 114 -39.5t43 -101.5q0 -14 -3 -31l-44 -249q-1 -5 -1 -13q0 -38 36 -38q17 0 35 8l-8 -47
q-19 -9 -50 -9q-34 0 -52.5 24t-14.5 63q-27 -43 -65.5 -65t-101.5 -22q-36 0 -66.5 16.5zM287.5 87q45.5 49 63.5 143l7 37l-145 -26q-66 -12 -98.5 -39.5t-32.5 -73.5q0 -39 24.5 -64.5t66.5 -25.5q69 0 114.5 49zM231.5 598q-22.5 24 -22.5 60q0 6 2 20h52q-1 -6 -1 -16
q0 -40 38 -40q23 0 38 15t20 41h52q-8 -47 -36 -75.5t-80 -28.5q-40 0 -62.5 24z" />
    <glyph glyph-name="acircumflex.ss01" horiz-adv-x="508" 
d="M91.5 4.5q-30.5 16.5 -49 46t-18.5 66.5q0 71 44.5 113t134.5 58l163 29l3 18q2 18 2 24q0 46 -29.5 71.5t-78.5 25.5q-48 0 -85.5 -25t-57.5 -73l-45 20q52 130 195 130q71 0 114 -39.5t43 -101.5q0 -14 -3 -31l-44 -249q-1 -5 -1 -13q0 -38 36 -38q17 0 35 8l-8 -47
q-19 -9 -50 -9q-34 0 -52.5 24t-14.5 63q-27 -43 -65.5 -65t-101.5 -22q-36 0 -66.5 16.5zM287.5 87q45.5 49 63.5 143l7 37l-145 -26q-66 -12 -98.5 -39.5t-32.5 -73.5q0 -39 24.5 -64.5t66.5 -25.5q69 0 114.5 49zM227 581h-55l116 143h61l65 -143h-49l-55 85z" />
    <glyph glyph-name="adieresis.ss01" horiz-adv-x="508" 
d="M91.5 4.5q-30.5 16.5 -49 46t-18.5 66.5q0 71 44.5 113t134.5 58l163 29l3 18q2 18 2 24q0 46 -29.5 71.5t-78.5 25.5q-48 0 -85.5 -25t-57.5 -73l-45 20q52 130 195 130q71 0 114 -39.5t43 -101.5q0 -14 -3 -31l-44 -249q-1 -5 -1 -13q0 -38 36 -38q17 0 35 8l-8 -47
q-19 -9 -50 -9q-34 0 -52.5 24t-14.5 63q-27 -43 -65.5 -65t-101.5 -22q-36 0 -66.5 16.5zM287.5 87q45.5 49 63.5 143l7 37l-145 -26q-66 -12 -98.5 -39.5t-32.5 -73.5q0 -39 24.5 -64.5t66.5 -25.5q69 0 114.5 49zM169.5 616.5q-14.5 14.5 -14.5 33.5q0 20 14.5 34
t34.5 14t34 -14t14 -34t-14 -34t-34 -14t-34.5 14.5zM372 616.5q-14 14.5 -14 33.5q0 20 14 34t34 14t34.5 -14t14.5 -34t-14.5 -34t-34.5 -14t-34 14.5z" />
    <glyph glyph-name="agrave.ss01" horiz-adv-x="508" 
d="M91.5 4.5q-30.5 16.5 -49 46t-18.5 66.5q0 71 44.5 113t134.5 58l163 29l3 18q2 18 2 24q0 46 -29.5 71.5t-78.5 25.5q-48 0 -85.5 -25t-57.5 -73l-45 20q52 130 195 130q71 0 114 -39.5t43 -101.5q0 -14 -3 -31l-44 -249q-1 -5 -1 -13q0 -38 36 -38q17 0 35 8l-8 -47
q-19 -9 -50 -9q-34 0 -52.5 24t-14.5 63q-27 -43 -65.5 -65t-101.5 -22q-36 0 -66.5 16.5zM287.5 87q45.5 49 63.5 143l7 37l-145 -26q-66 -12 -98.5 -39.5t-32.5 -73.5q0 -39 24.5 -64.5t66.5 -25.5q69 0 114.5 49zM318 581h-48l-74 143h72z" />
    <glyph glyph-name="amacron.ss01" horiz-adv-x="508" 
d="M91.5 4.5q-30.5 16.5 -49 46t-18.5 66.5q0 71 44.5 113t134.5 58l163 29l3 18q2 18 2 24q0 46 -29.5 71.5t-78.5 25.5q-48 0 -85.5 -25t-57.5 -73l-45 20q52 130 195 130q71 0 114 -39.5t43 -101.5q0 -14 -3 -31l-44 -249q-1 -5 -1 -13q0 -38 36 -38q17 0 35 8l-8 -47
q-19 -9 -50 -9q-34 0 -52.5 24t-14.5 63q-27 -43 -65.5 -65t-101.5 -22q-36 0 -66.5 16.5zM287.5 87q45.5 49 63.5 143l7 37l-145 -26q-66 -12 -98.5 -39.5t-32.5 -73.5q0 -39 24.5 -64.5t66.5 -25.5q69 0 114.5 49zM411 626h-220l8 50h220z" />
    <glyph glyph-name="aogonek.ss01" horiz-adv-x="508" 
d="M442 -3q-37 -17 -61.5 -46t-24.5 -59q0 -19 10.5 -30t27.5 -11q20 0 38 10l-9 -52q-18 -10 -49 -10q-34 0 -55 21.5t-21 59.5q0 33 17 63.5t46 50.5q-20 10 -29.5 31t-6.5 50q-27 -43 -65.5 -65t-101.5 -22q-36 0 -66.5 16.5t-49 46t-18.5 66.5q0 71 44.5 113t134.5 58
l163 29l3 18q2 18 2 24q0 46 -29.5 71.5t-78.5 25.5q-48 0 -85.5 -25t-57.5 -73l-45 20q52 130 195 130q71 0 114 -39.5t43 -101.5q0 -14 -3 -31l-44 -249q-1 -5 -1 -13q0 -38 36 -38q17 0 35 8zM358 267l-145 -26q-66 -12 -98.5 -39.5t-32.5 -73.5q0 -39 24.5 -64.5
t66.5 -25.5q69 0 114.5 49t63.5 143z" />
    <glyph glyph-name="aring.ss01" horiz-adv-x="508" 
d="M91.5 4.5q-30.5 16.5 -49 46t-18.5 66.5q0 71 44.5 113t134.5 58l163 29l3 18q2 18 2 24q0 46 -29.5 71.5t-78.5 25.5q-48 0 -85.5 -25t-57.5 -73l-45 20q52 130 195 130q71 0 114 -39.5t43 -101.5q0 -14 -3 -31l-44 -249q-1 -5 -1 -13q0 -38 36 -38q17 0 35 8l-8 -47
q-19 -9 -50 -9q-34 0 -52.5 24t-14.5 63q-27 -43 -65.5 -65t-101.5 -22q-36 0 -66.5 16.5zM287.5 87q45.5 49 63.5 143l7 37l-145 -26q-66 -12 -98.5 -39.5t-32.5 -73.5q0 -39 24.5 -64.5t66.5 -25.5q69 0 114.5 49zM236 586.5q-23 23.5 -23 62.5q0 48 30 80t75 32
q37 0 59.5 -24t22.5 -62q0 -47 -29.5 -79.5t-74.5 -32.5q-37 0 -60 23.5zM338.5 625q14.5 18 14.5 45q0 21 -10.5 34t-29.5 13q-23 0 -37.5 -18t-14.5 -45q0 -21 10.5 -34t29.5 -13q23 0 37.5 18z" />
    <glyph glyph-name="atilde.ss01" horiz-adv-x="508" 
d="M91.5 4.5q-30.5 16.5 -49 46t-18.5 66.5q0 71 44.5 113t134.5 58l163 29l3 18q2 18 2 24q0 46 -29.5 71.5t-78.5 25.5q-48 0 -85.5 -25t-57.5 -73l-45 20q52 130 195 130q71 0 114 -39.5t43 -101.5q0 -14 -3 -31l-44 -249q-1 -5 -1 -13q0 -38 36 -38q17 0 35 8l-8 -47
q-19 -9 -50 -9q-34 0 -52.5 24t-14.5 63q-27 -43 -65.5 -65t-101.5 -22q-36 0 -66.5 16.5zM287.5 87q45.5 49 63.5 143l7 37l-145 -26q-66 -12 -98.5 -39.5t-32.5 -73.5q0 -39 24.5 -64.5t66.5 -25.5q69 0 114.5 49zM166 630q21 68 88 68q17 0 31.5 -6t30.5 -16
q16 -9 25.5 -13.5t20.5 -4.5q17 0 28.5 10t20.5 30l36 -16q-23 -68 -89 -68q-18 0 -31 5.5t-32 16.5q-16 9 -25.5 13.5t-20.5 4.5q-31 0 -47 -39z" />
    <glyph glyph-name="ae.ss01" horiz-adv-x="821" 
d="M698.5 485.5q39.5 -22.5 62 -65t22.5 -99.5q0 -25 -4 -48l-5 -32h-367l-1 -8q-4 -23 -4 -48q0 -67 34 -106t92 -39t98 26.5t67 76.5l47 -25q-73 -130 -216 -130q-59 0 -102.5 32.5t-60.5 89.5q-35 -62 -79.5 -92t-118.5 -30q-59 0 -99 37.5t-40 94.5q0 70 46 110t132 47
l159 12l8 46q2 18 2 24q0 46 -29.5 71.5t-78.5 25.5q-48 0 -85.5 -25t-57.5 -73l-45 20q52 130 195 130q57 0 96 -25.5t54 -69.5q68 95 189 95q50 0 89.5 -22.5zM484.5 411.5q-48.5 -44.5 -68.5 -123.5h311q2 20 2 30q0 64 -36.5 101t-92.5 37q-67 0 -115.5 -44.5zM290.5 84
q42.5 46 60.5 146l2 11l-140 -11q-131 -11 -131 -102q0 -40 24.5 -65t69.5 -25q72 0 114.5 46z" />
    <glyph glyph-name="aeacute.ss01" horiz-adv-x="821" 
d="M698.5 485.5q39.5 -22.5 62 -65t22.5 -99.5q0 -25 -4 -48l-5 -32h-367l-1 -8q-4 -23 -4 -48q0 -67 34 -106t92 -39t98 26.5t67 76.5l47 -25q-73 -130 -216 -130q-59 0 -102.5 32.5t-60.5 89.5q-35 -62 -79.5 -92t-118.5 -30q-59 0 -99 37.5t-40 94.5q0 70 46 110t132 47
l159 12l8 46q2 18 2 24q0 46 -29.5 71.5t-78.5 25.5q-48 0 -85.5 -25t-57.5 -73l-45 20q52 130 195 130q57 0 96 -25.5t54 -69.5q68 95 189 95q50 0 89.5 -22.5zM484.5 411.5q-48.5 -44.5 -68.5 -123.5h311q2 20 2 30q0 64 -36.5 101t-92.5 37q-67 0 -115.5 -44.5zM290.5 84
q42.5 46 60.5 146l2 11l-140 -11q-131 -11 -131 -102q0 -40 24.5 -65t69.5 -25q72 0 114.5 46zM473 581h-52l96 143h78z" />
    <glyph glyph-name="l.ss02" horiz-adv-x="198" 
d="M82 0h-54l124 700h54z" />
    <glyph glyph-name="lacute.ss02" horiz-adv-x="198" 
d="M82 0h-54l124 700h54zM221 785h-52l96 143h78z" />
    <glyph glyph-name="lcaron.ss02" horiz-adv-x="307" 
d="M82 0h-54l124 700h54zM274 499l-18 15l34 53q21 33 25 44q-14 4 -24.5 16t-10.5 27q0 25 15 39.5t38 14.5q21 0 33 -14t12 -35q0 -25 -12.5 -44.5t-48.5 -63.5z" />
    <glyph glyph-name="uni013C.ss02" horiz-adv-x="198" 
d="M82 0h-54l124 700h54zM-1 -229l-15 13l20 23q20 23 23 41q-14 0 -24.5 11.5t-10.5 26.5q0 21 12.5 34.5t33.5 13.5q20 0 32 -12.5t12 -32.5q0 -46 -61 -99z" />
    <glyph glyph-name="ldot.ss02" horiz-adv-x="358" 
d="M82 0h-54l124 700h54zM261.5 316.5q-14.5 14.5 -14.5 33.5q0 21 14 35t34 14q21 0 35 -14t14 -35q0 -20 -14 -34t-35 -14q-19 0 -33.5 14.5z" />
    <glyph glyph-name="lslash.ss02" horiz-adv-x="198" 
d="M147 364l84 62l-11 -65l-85 -62l-53 -299h-54l45 254l-85 -62l11 65l86 62l67 381h54z" />
    <glyph glyph-name="f_l.ss02" horiz-adv-x="527" 
d="M251.5 643q-21.5 -19 -28.5 -60l-15 -87h143l-9 -50h-143l-79 -446h-54l79 446h-90l9 50h90l15 86q11 64 48.5 97t98.5 33q44 0 71 -12l-10 -52q-31 14 -67 14q-37 0 -58.5 -19zM411 0h-54l124 700h54z" />
    <glyph glyph-name="fl.ss02" horiz-adv-x="527" 
d="M251.5 643q-21.5 -19 -28.5 -60l-15 -87h143l-9 -50h-143l-79 -446h-54l79 446h-90l9 50h90l15 86q11 64 48.5 97t98.5 33q44 0 71 -12l-10 -52q-31 14 -67 14q-37 0 -58.5 -19zM411 0h-54l124 700h54z" />
    <glyph glyph-name="ordfeminine.ss01" horiz-adv-x="338" 
d="M81.5 397q-26.5 23 -26.5 60q0 49 31 75t90 36l99 17l2 11q1 4 1 11q0 25 -19 41.5t-49 16.5q-28 0 -50 -15t-34 -43l-39 17q15 38 49.5 60.5t82.5 22.5q50 0 79 -26t29 -68q0 -7 -2 -21l-26 -146q-1 -3 -1 -9q0 -22 22 -22q11 0 24 5l-7 -39q-12 -7 -38 -7q-24 0 -36 14
t-12 38q-35 -52 -102 -52q-41 0 -67.5 23zM226.5 442.5q27.5 26.5 36.5 76.5l5 28l-87 -16q-39 -7 -57.5 -23t-18.5 -45q0 -20 14 -33.5t38 -13.5q42 0 69.5 26.5z" />
    <glyph glyph-name="uni0414.loclBGR" horiz-adv-x="662" 
d="M447 700l99 -646h56l-34 -196h-58l25 142h-490l-25 -142h-58l34 196h57l324 646h70zM403 632l-284 -578h367z" />
    <glyph glyph-name="uni041B.loclBGR" horiz-adv-x="574" 
d="M42 0h-66l357 700h67l110 -700h-61l-92 631z" />
    <glyph glyph-name="uni0432.loclBGR" horiz-adv-x="457" 
d="M90 26.5q-36 40.5 -36 102.5q0 13 4 39l68 388q28 158 183 158q63 0 101.5 -37.5t38.5 -97.5q0 -15 -3 -30l-5 -29q-12 -69 -39 -100t-76 -48q35 -13 55.5 -44t20.5 -73q0 -15 -3 -32l-10 -53q-18 -97 -66 -140.5t-131 -43.5q-66 0 -102 40.5zM257 395q49 0 84.5 30
t44.5 88l5 32q2 18 2 26q0 45 -25.5 69.5t-67.5 24.5q-51 0 -80.5 -27.5t-39.5 -83.5l-28 -159h105zM290.5 68.5q31.5 32.5 43.5 102.5l10 56q3 15 3 29q0 42 -24.5 66.5t-67.5 24.5h-112l-31 -180q-3 -16 -3 -32q0 -44 23.5 -71.5t68.5 -27.5q58 0 89.5 32.5z" />
    <glyph glyph-name="uni0433.loclBGR" horiz-adv-x="436" 
d="M69 21.5q-40 35.5 -40 93.5q0 69 43.5 106t134.5 57q67 15 100 38t33 67q0 36 -25.5 55.5t-67.5 19.5q-76 0 -116 -78l-41 23q48 103 166 103q60 0 98.5 -31t38.5 -85q0 -68 -45 -104t-131 -56q-69 -16 -101.5 -39t-32.5 -68q0 -40 27 -63.5t70 -23.5q97 0 135 98l46 -24
q-24 -61 -66.5 -92.5t-123.5 -31.5q-62 0 -102 35.5z" />
    <glyph glyph-name="uni0434.loclBGR" horiz-adv-x="535" 
d="M63.5 -181q-45.5 35 -62.5 94l52 23q13 -47 46.5 -74t86.5 -27q75 0 120.5 45.5t59.5 130.5l14 81q-21 -38 -64.5 -61.5t-98.5 -23.5q-51 0 -91 23t-62.5 65.5t-22.5 98.5q0 22 5 52l5 28q19 111 82 172.5t156 61.5q56 0 95 -25t54 -65l14 78h55l-86 -488
q-19 -107 -78.5 -165.5t-162.5 -58.5q-71 0 -116.5 35zM347 109.5q50 49.5 64 130.5l6 36q3 20 3 38q0 65 -37 103.5t-97 38.5q-69 0 -117 -50.5t-63 -135.5l-5 -28q-4 -21 -4 -46q0 -64 34.5 -100t95.5 -36q70 0 120 49.5z" />
    <glyph glyph-name="uni0436.loclBGR" horiz-adv-x="580" 
d="M25 0h-69l239 254l-151 242h64l136 -224h23l76 428h54l-76 -428h23l213 224h67l-239 -250l151 -246h-63l-137 224h-23l-40 -224h-54l40 224h-23z" />
    <glyph glyph-name="uni0437.loclBGR" horiz-adv-x="474" 
d="M35.5 -170.5q-46.5 47.5 -47.5 129.5l55 9q2 -66 34 -101t91 -35q81 0 124 55t43 142q0 60 -33 89t-89 29h-36l9 48h36q46 0 81 19.5t54 52.5t19 71q0 59 -30 90.5t-83 31.5q-54 0 -93.5 -30t-56.5 -88l-44 11q19 70 73.5 112.5t128.5 42.5q75 0 116.5 -44.5t41.5 -118.5
q0 -60 -34 -105.5t-94 -65.5q89 -38 89 -140q0 -114 -61.5 -183t-169.5 -69q-77 0 -123.5 47.5z" />
    <glyph glyph-name="uni0438.loclBGR" horiz-adv-x="503" 
d="M94.5 28q-39.5 40 -39.5 105q0 12 4 40l58 323h54l-57 -322q-3 -16 -3 -31q0 -48 29 -76.5t77 -28.5q55 0 95.5 37.5t51.5 99.5l57 321h54l-88 -496h-54l11 62q-22 -35 -56 -54.5t-87 -19.5q-67 0 -106.5 40z" />
    <glyph glyph-name="uni0439.loclBGR" horiz-adv-x="503" 
d="M94.5 28q-39.5 40 -39.5 105q0 12 4 40l58 323h54l-57 -322q-3 -16 -3 -31q0 -48 29 -76.5t77 -28.5q55 0 95.5 37.5t51.5 99.5l57 321h54l-88 -496h-54l11 62q-22 -35 -56 -54.5t-87 -19.5q-67 0 -106.5 40zM244.5 602.5q-25.5 28.5 -25.5 69.5q0 6 2 20h52
q-2 -12 -2 -18q0 -24 12.5 -38t34.5 -14q30 0 47 17.5t23 52.5h52q-20 -118 -127 -118q-43 0 -68.5 28.5z" />
    <glyph glyph-name="uni043A.loclBGR" horiz-adv-x="423" 
d="M362 496h71l-238 -248l150 -248h-62l-135 224h-26l-40 -224h-54l124 700h54l-76 -428h20z" />
    <glyph glyph-name="uni043B.loclBGR" horiz-adv-x="434" 
d="M30 0h-62l262 496h60l88 -496h-57l-70 428z" />
    <glyph glyph-name="uni043F.loclBGR" horiz-adv-x="503" 
d="M28 0l88 496h54l-11 -62q22 35 56 54.5t87 19.5q67 0 106.5 -40t39.5 -105q0 -12 -4 -40l-58 -323h-54l57 322q3 17 3 31q0 48 -29 76.5t-77 28.5q-55 0 -95.5 -37.5t-51.5 -99.5l-57 -321h-54z" />
    <glyph glyph-name="uni0442.loclBGR" horiz-adv-x="724" 
d="M28 0l88 496h54l-9 -52q18 29 50 46.5t75 17.5q45 0 72.5 -21.5t39.5 -55.5q48 77 143 77q58 0 95 -36.5t37 -93.5q0 -14 -3 -29l-62 -349h-55l61 342q2 9 2 26q0 42 -25.5 66t-66.5 24q-46 0 -78 -32.5t-41 -84.5l-60 -341h-55l61 342q2 9 2 26q0 42 -25.5 66t-66.5 24
q-46 0 -78 -32.5t-41 -84.5l-60 -341h-54z" />
    <glyph glyph-name="uni0446.loclBGR" horiz-adv-x="528" 
d="M380 -122l21 122h-68l11 62q-22 -35 -56 -54.5t-87 -19.5q-67 0 -106.5 40t-39.5 105q0 12 4 40l58 323h54l-57 -322q-3 -16 -3 -31q0 -48 29 -76.5t77 -28.5q55 0 95.5 37.5t51.5 99.5l57 321h54l-79 -447h72l-30 -171h-58z" />
    <glyph glyph-name="uni0448.loclBGR" horiz-adv-x="724" 
d="M88 24.5q-37 36.5 -37 93.5q0 14 3 29l62 349h55l-61 -342q-2 -9 -2 -26q0 -42 25.5 -66t66.5 -24q46 0 78 32.5t41 84.5l60 341h55l-61 -342q-2 -9 -2 -26q0 -42 25.5 -66t66.5 -24q46 0 78 32.5t41 84.5l60 341h54l-88 -496h-54l9 52q-18 -29 -50 -46.5t-75 -17.5
q-45 0 -72.5 21.5t-39.5 55.5q-48 -77 -143 -77q-58 0 -95 36.5z" />
    <glyph glyph-name="uni0449.loclBGR" horiz-adv-x="749" 
d="M601 -122l21 122h-68l9 52q-18 -29 -50 -46.5t-75 -17.5q-45 0 -72.5 21.5t-39.5 55.5q-48 -77 -143 -77q-58 0 -95 36.5t-37 93.5q0 14 3 29l62 349h55l-61 -342q-2 -9 -2 -26q0 -42 25.5 -66t66.5 -24q46 0 78 32.5t41 84.5l60 341h55l-61 -342q-2 -9 -2 -26
q0 -42 25.5 -66t66.5 -24q46 0 78 32.5t41 84.5l60 341h54l-79 -447h72l-30 -171h-58z" />
    <glyph glyph-name="uni044C.loclBGR" horiz-adv-x="464" 
d="M94 27q-38 41 -38 108q0 24 4 44l56 317h54l-36 -206q20 17 50 29.5t69 12.5q65 0 105.5 -38.5t40.5 -112.5q0 -55 -24.5 -99.5t-69 -70t-104.5 -25.5q-69 0 -107 41zM280 56q31 20 47 52t16 68q0 51 -26.5 79.5t-73.5 28.5q-68 0 -119 -47l-12 -69q-3 -16 -3 -31
q0 -46 26 -73.5t70 -27.5t75 20z" />
    <glyph glyph-name="uni044A.loclBGR" horiz-adv-x="540" 
d="M170 27q-38 41 -38 108q0 24 4 44l47 269h-128l9 48h182l-36 -206q20 17 50 29.5t69 12.5q65 0 105.5 -38.5t40.5 -112.5q0 -55 -24.5 -99.5t-69 -70t-104.5 -25.5q-69 0 -107 41zM356 56q31 20 47 52t16 68q0 51 -26.5 79.5t-73.5 28.5q-68 0 -119 -47l-12 -69
q-3 -16 -3 -31q0 -46 26 -73.5t70 -27.5t75 20z" />
    <glyph glyph-name="uni044E.loclBGR" horiz-adv-x="686" 
d="M594 453.5q52 -54.5 52 -142.5q0 -25 -4 -48l-6 -37q-19 -114 -83 -176t-161 -62q-87 0 -138.5 54t-51.5 140q0 21 5 51l1 5h-84l-42 -238h-54l124 700h54l-73 -413h84q22 106 84.5 163.5t154.5 57.5q86 0 138 -54.5zM586 266q3 21 3 41q0 68 -37.5 108.5t-94.5 40.5
q-76 0 -122.5 -48.5t-64.5 -140.5l-7 -37q-4 -20 -4 -44q0 -66 37.5 -106t94.5 -40q76 0 125 49t64 140z" />
    <glyph glyph-name="zero.lf" 
d="M94 49q-50 63 -50 175q0 46 9 98l10 58q29 168 100.5 251t175.5 83q87 0 137 -63t50 -175q0 -45 -9 -98l-10 -58q-29 -168 -101 -251t-175 -83q-87 0 -137 63zM369 107.5q55 69.5 79 207.5l12 67q9 51 9 94q0 88 -35 137t-98 49q-78 0 -133.5 -67.5t-80.5 -209.5l-12 -67
q-9 -51 -9 -94q0 -88 35 -137t98 -49q80 0 135 69.5z" />
    <glyph glyph-name="one.lf" horiz-adv-x="317" 
d="M192 0h-56l111 632l-173 -116l12 67l174 117h56z" />
    <glyph glyph-name="two.lf" horiz-adv-x="486" 
d="M12 0l10 54l262 258q74 73 102 121.5t28 102.5q0 59 -32.5 90.5t-87.5 31.5q-116 0 -149 -140l-54 13q21 91 74 136t135 45q81 0 128.5 -46.5t47.5 -120.5q0 -53 -16 -95t-47.5 -81.5t-88.5 -95.5l-222 -219h304l-10 -54h-384z" />
    <glyph glyph-name="three.lf" horiz-adv-x="510" 
d="M83.5 42q-51.5 54 -55.5 147l57 12q5 -77 41 -118t99 -41q70 0 112.5 42.5t55.5 119.5l1 6q4 28 4 40q0 65 -42 97.5t-122 32.5l9 48l193 218h-306l10 54h376l-10 -54l-195 -220q67 -12 106.5 -57.5t39.5 -112.5q0 -12 -4 -40l-3 -18q-36 -210 -231 -210q-84 0 -135.5 54
z" />
    <glyph glyph-name="four.lf" horiz-adv-x="488" 
d="M325 0h-57l32 179h-281l10 55l363 466h57l-83 -467h95l-9 -54h-95zM373 595l-281 -362h217z" />
    <glyph glyph-name="five.lf" horiz-adv-x="514" 
d="M88.5 42q-49.5 54 -50.5 144l58 12q0 -73 35 -114.5t98 -41.5q70 0 118 44.5t62 126.5l4 23q4 20 4 44q0 62 -33.5 97.5t-97.5 35.5q-88 0 -158 -91l-46 19l90 359h359l-10 -54h-306l-63 -243q24 27 64 44t86 17q81 0 127.5 -50t46.5 -130q0 -26 -4 -47l-4 -23
q-19 -109 -81 -167.5t-163 -58.5q-86 0 -135.5 54z" />
    <glyph glyph-name="six.lf" horiz-adv-x="501" 
d="M120 10q-41 22 -65.5 64.5t-24.5 99.5q0 25 4 46l1 6q10 61 36 106t74 102l222 266h69l-244 -288q40 29 96 29q50 0 89.5 -22.5t61.5 -62.5t22 -91q0 -23 -4 -42l-3 -17q-17 -98 -84.5 -158t-161.5 -60q-47 0 -88 22zM335.5 86.5q47.5 44.5 61.5 123.5l3 17q3 18 3 34
q0 60 -36 95.5t-95 35.5q-67 0 -115.5 -44.5t-60.5 -115.5l-3 -18q-3 -19 -3 -37q0 -62 36 -98.5t92 -36.5q70 0 117.5 44.5z" />
    <glyph glyph-name="seven.lf" horiz-adv-x="437" 
d="M136 0h-61l344 646h-321l10 54h379l-10 -54z" />
    <glyph glyph-name="eight.lf" horiz-adv-x="486" 
d="M115.5 10.5q-40.5 22.5 -63 61t-22.5 84.5q0 17 3 33l4 22q11 61 48.5 103t92.5 60q-29 19 -47.5 54t-18.5 75q0 7 2 23l2 12q13 77 65.5 123.5t130.5 46.5q71 0 114.5 -42.5t43.5 -108.5q0 -17 -3 -35q-13 -71 -41 -103.5t-76 -49.5q38 -18 61 -57t23 -89q0 -20 -2 -30
l-3 -21q-12 -83 -72.5 -133.5t-147.5 -50.5q-53 0 -93.5 22.5zM365 428.5q36 31.5 42 83.5l2 16q2 16 2 23q0 48 -27 75.5t-76 27.5q-52 0 -89 -33t-44 -88l-2 -15q-1 -6 -1 -17q0 -43 26.5 -73.5t70.5 -30.5q60 0 96 31.5zM319 79.5q42 37.5 53 106.5l3 19q2 14 2 21
q0 51 -35 84t-91 33q-59 0 -102.5 -37t-53.5 -96l-4 -22q-3 -13 -3 -27q0 -51 34 -85t86 -34q69 0 111 37.5z" />
    <glyph glyph-name="nine.lf" horiz-adv-x="502" 
d="M346 288q-40 -29 -96 -29q-51 0 -90 23t-61 63.5t-22 91.5q0 14 4 42l2 12q17 102 83 161.5t164 59.5q47 0 88 -22t65.5 -64.5t24.5 -99.5q0 -25 -4 -46l-1 -6q-10 -61 -36 -106t-74 -102l-222 -266h-69zM381 353.5q48 45.5 62 121.5l2 11q3 20 3 38q0 61 -36 97.5
t-92 36.5q-70 0 -117.5 -45t-61.5 -125l-2 -11q-4 -26 -4 -38q0 -60 36.5 -95.5t94.5 -35.5q67 0 115 45.5z" />
    <glyph glyph-name="zero.tf" horiz-adv-x="560" 
d="M107 49q-50 63 -50 175q0 46 9 98l10 58q29 168 100.5 251t175.5 83q87 0 137 -63t50 -175q0 -45 -9 -98l-10 -58q-29 -168 -101 -251t-175 -83q-87 0 -137 63zM382 107.5q55 69.5 79 207.5l12 67q9 51 9 94q0 88 -35 137t-98 49q-78 0 -133.5 -67.5t-80.5 -209.5
l-12 -67q-9 -51 -9 -94q0 -88 35 -137t98 -49q80 0 135 69.5z" />
    <glyph glyph-name="one.tf" horiz-adv-x="560" 
d="M340 0h-56l111 635l-212 -115l11 63l214 117h56z" />
    <glyph glyph-name="two.tf" horiz-adv-x="560" 
d="M46 0l10 54l262 258q74 73 102 121.5t28 102.5q0 59 -32.5 90.5t-87.5 31.5q-116 0 -149 -140l-54 13q21 91 74 136t135 45q81 0 128.5 -46.5t47.5 -120.5q0 -53 -16 -95t-47.5 -81.5t-88.5 -95.5l-222 -219h304l-10 -54h-384z" />
    <glyph glyph-name="three.tf" horiz-adv-x="560" 
d="M111.5 42q-51.5 54 -55.5 147l57 12q5 -77 41 -118t99 -41q70 0 112.5 42.5t55.5 119.5l1 6q4 28 4 40q0 65 -42 97.5t-122 32.5l9 48l193 218h-306l10 54h376l-10 -54l-195 -220q67 -12 106.5 -57.5t39.5 -112.5q0 -12 -4 -40l-3 -18q-36 -210 -231 -210
q-84 0 -135.5 54z" />
    <glyph glyph-name="four.tf" horiz-adv-x="560" 
d="M379 0h-57l32 179h-291l10 55l373 466h57l-83 -467h85l-9 -54h-85zM427 595l-291 -362h227z" />
    <glyph glyph-name="five.tf" horiz-adv-x="560" 
d="M110.5 42q-49.5 54 -50.5 144l58 12q0 -73 35 -114.5t98 -41.5q70 0 118 44.5t62 126.5l4 23q4 20 4 44q0 62 -33.5 97.5t-97.5 35.5q-88 0 -158 -91l-46 19l90 359h359l-10 -54h-306l-63 -243q24 27 64 44t86 17q81 0 127.5 -50t46.5 -130q0 -26 -4 -47l-4 -23
q-19 -109 -81 -167.5t-163 -58.5q-86 0 -135.5 54z" />
    <glyph glyph-name="six.tf" horiz-adv-x="560" 
d="M149 10q-41 22 -65.5 64.5t-24.5 99.5q0 25 4 46l1 6q10 61 36 106t74 102l222 266h69l-244 -288q40 29 96 29q50 0 89.5 -22.5t61.5 -62.5t22 -91q0 -23 -4 -42l-3 -17q-17 -98 -84.5 -158t-161.5 -60q-47 0 -88 22zM364.5 86.5q47.5 44.5 61.5 123.5l3 17q3 18 3 34
q0 60 -36 95.5t-95 35.5q-67 0 -115.5 -44.5t-60.5 -115.5l-3 -18q-3 -19 -3 -37q0 -62 36 -98.5t92 -36.5q70 0 117.5 44.5z" />
    <glyph glyph-name="seven.tf" horiz-adv-x="560" 
d="M207 0h-61l356 646h-371l10 54h429l-10 -54z" />
    <glyph glyph-name="eight.tf" horiz-adv-x="560" 
d="M152.5 10.5q-40.5 22.5 -63 61t-22.5 84.5q0 17 3 33l4 22q11 61 48.5 103t92.5 60q-29 19 -47.5 54t-18.5 75q0 7 2 23l2 12q13 77 65.5 123.5t130.5 46.5q71 0 114.5 -42.5t43.5 -108.5q0 -17 -3 -35q-13 -71 -41 -103.5t-76 -49.5q38 -18 61 -57t23 -89q0 -20 -2 -30
l-3 -21q-12 -83 -72.5 -133.5t-147.5 -50.5q-53 0 -93.5 22.5zM402 428.5q36 31.5 42 83.5l2 16q2 16 2 23q0 48 -27 75.5t-76 27.5q-52 0 -89 -33t-44 -88l-2 -15q-1 -6 -1 -17q0 -43 26.5 -73.5t70.5 -30.5q60 0 96 31.5zM356 79.5q42 37.5 53 106.5l3 19q2 14 2 21
q0 51 -35 84t-91 33q-59 0 -102.5 -37t-53.5 -96l-4 -22q-3 -13 -3 -27q0 -51 34 -85t86 -34q69 0 111 37.5z" />
    <glyph glyph-name="nine.tf" horiz-adv-x="560" 
d="M376 288q-40 -29 -96 -29q-51 0 -90 23t-61 63.5t-22 91.5q0 14 4 42l2 12q17 102 83 161.5t164 59.5q47 0 88 -22t65.5 -64.5t24.5 -99.5q0 -25 -4 -46l-1 -6q-10 -61 -36 -106t-74 -102l-222 -266h-69zM411 353.5q48 45.5 62 121.5l2 11q3 20 3 38q0 61 -36 97.5
t-92 36.5q-70 0 -117.5 -45t-61.5 -125l-2 -11q-4 -26 -4 -38q0 -60 36.5 -95.5t94.5 -35.5q67 0 115 45.5z" />
    <glyph glyph-name="zero.dnom" horiz-adv-x="307" 
d="M34 28.5q-30 35.5 -30 94.5q0 18 3 39l4 24q13 80 53.5 125.5t105.5 45.5q52 0 81 -33t29 -92q0 -23 -4 -44l-4 -24q-14 -83 -56 -127t-102 -44q-50 0 -80 35.5zM183.5 72q26.5 32 36.5 92l4 25q3 21 3 38q0 40 -16 61.5t-45 21.5q-39 0 -66 -32t-37 -93l-4 -24
q-3 -21 -3 -39q0 -39 16.5 -60.5t45.5 -21.5q39 0 65.5 32z" />
    <glyph glyph-name="one.dnom" horiz-adv-x="185" 
d="M103 0h-51l51 292l-92 -55l10 58l93 55h51z" />
    <glyph glyph-name="two.dnom" horiz-adv-x="269" 
d="M-14 0l8 45l134 117q33 29 47.5 50.5t14.5 47.5q0 23 -14 37.5t-38 14.5q-28 0 -45 -15t-27 -46l-44 10q11 45 41.5 70t81.5 25q45 0 72 -25t27 -67q0 -41 -19 -68.5t-59 -62.5l-101 -88h146l-8 -45h-217z" />
    <glyph glyph-name="three.dnom" horiz-adv-x="279" 
d="M22 21.5q-29 27.5 -30 74.5l48 9q4 -31 19.5 -48t41.5 -17q36 0 57.5 21.5t21.5 57.5q0 29 -21 45t-59 16l7 39l85 88h-151l7 43h211l-7 -43l-91 -91q31 -7 51 -31t20 -60q0 -58 -37 -94.5t-97 -36.5q-47 0 -76 27.5z" />
    <glyph glyph-name="four.dnom" horiz-adv-x="277" 
d="M171 0h-49l14 80h-151l8 46l191 224h49l-40 -224h50l-8 -46h-50zM169 270l-122 -144h97z" />
    <glyph glyph-name="five.dnom" horiz-adv-x="283" 
d="M29 21.5q-30 27.5 -32 72.5l51 10q3 -29 19 -46t42 -17q33 0 53 18t25 51l1 6q1 5 1 15q0 26 -15.5 42t-43.5 16q-41 0 -69 -37l-42 15l48 183h200l-7 -44h-156l-27 -98q27 24 69 24q45 0 70.5 -25.5t25.5 -68.5q0 -7 -2 -23l-1 -5q-9 -56 -43 -86t-90 -30
q-47 0 -77 27.5z" />
    <glyph glyph-name="six.dnom" horiz-adv-x="268" 
d="M23.5 22q-29.5 28 -29.5 73q0 40 14.5 66.5t47.5 66.5l103 122h58l-119 -137q13 9 38 9q39 0 64.5 -26t25.5 -66q0 -60 -37 -98t-94 -38q-42 0 -71.5 28zM156 58.5q22 21.5 22 60.5q0 27 -16 44t-43 17q-34 0 -55.5 -24t-21.5 -60q0 -26 16 -42.5t42 -16.5q34 0 56 21.5z
" />
    <glyph glyph-name="seven.dnom" horiz-adv-x="242" 
d="M68 0h-52l170 306h-162l8 44h213l-8 -44z" />
    <glyph glyph-name="eight.dnom" horiz-adv-x="272" 
d="M23.5 19q-29.5 25 -29.5 66t21.5 68t51.5 36q-15 11 -23.5 27t-8.5 35q0 46 30 74.5t85 28.5q41 0 65.5 -22.5t24.5 -59.5q0 -31 -16.5 -54.5t-44.5 -34.5q19 -9 32 -27.5t13 -43.5q0 -52 -35.5 -85t-94.5 -33q-41 0 -70.5 25zM175.5 220q17.5 17 17.5 47
q0 20 -13.5 32.5t-35.5 12.5q-30 0 -46.5 -16t-16.5 -45q0 -20 13.5 -34t34.5 -14q29 0 46.5 17zM154 56.5q21 18.5 21 52.5q0 23 -15.5 38.5t-40.5 15.5q-33 0 -54.5 -19t-21.5 -53q0 -23 16 -38t41 -15q33 0 54 18.5z" />
    <glyph glyph-name="nine.dnom" horiz-adv-x="269" 
d="M144 137q-14 -9 -38 -9q-38 0 -64 27.5t-26 68.5q0 60 37 96t94 36q42 0 71.5 -28t29.5 -73q0 -40 -14.5 -66.5t-47.5 -66.5l-103 -122h-58zM178.5 194q21.5 24 21.5 60q0 26 -16 42.5t-42 16.5q-34 0 -56 -21.5t-22 -60.5q0 -27 16 -44t43 -17q34 0 55.5 24z" />
    <glyph glyph-name="zero.numr" horiz-adv-x="307" 
d="M96 378.5q-30 35.5 -30 94.5q0 18 3 39l4 24q13 80 53.5 125.5t105.5 45.5q52 0 81 -33t29 -92q0 -23 -4 -44l-4 -24q-14 -83 -56 -127t-102 -44q-50 0 -80 35.5zM245.5 422q26.5 32 36.5 92l4 25q3 21 3 38q0 40 -16 61.5t-45 21.5q-39 0 -66 -32t-37 -93l-4 -24
q-3 -21 -3 -39q0 -39 16.5 -60.5t45.5 -21.5q39 0 65.5 32z" />
    <glyph glyph-name="one.numr" horiz-adv-x="185" 
d="M165 350h-51l51 292l-92 -55l10 58l93 55h51z" />
    <glyph glyph-name="two.numr" horiz-adv-x="269" 
d="M48 350l8 45l134 117q33 29 47.5 50.5t14.5 47.5q0 23 -14 37.5t-38 14.5q-28 0 -45 -15t-27 -46l-44 10q11 45 41.5 70t81.5 25q45 0 72 -25t27 -67q0 -41 -19 -68.5t-59 -62.5l-101 -88h146l-8 -45h-217z" />
    <glyph glyph-name="three.numr" horiz-adv-x="279" 
d="M84 371.5q-29 27.5 -30 74.5l48 9q4 -31 19.5 -48t41.5 -17q36 0 57.5 21.5t21.5 57.5q0 29 -21 45t-59 16l7 39l85 88h-151l7 43h211l-7 -43l-91 -91q31 -7 51 -31t20 -60q0 -58 -37 -94.5t-97 -36.5q-47 0 -76 27.5z" />
    <glyph glyph-name="four.numr" horiz-adv-x="277" 
d="M233 350h-49l14 80h-151l8 46l191 224h49l-40 -224h50l-8 -46h-50zM231 620l-122 -144h97z" />
    <glyph glyph-name="five.numr" horiz-adv-x="283" 
d="M91 371.5q-30 27.5 -32 72.5l51 10q3 -29 19 -46t42 -17q33 0 53 18t25 51l1 6q1 5 1 15q0 26 -15.5 42t-43.5 16q-41 0 -69 -37l-42 15l48 183h200l-7 -44h-156l-27 -98q27 24 69 24q45 0 70.5 -25.5t25.5 -68.5q0 -7 -2 -23l-1 -5q-9 -56 -43 -86t-90 -30
q-47 0 -77 27.5z" />
    <glyph glyph-name="six.numr" horiz-adv-x="268" 
d="M85.5 372q-29.5 28 -29.5 73q0 40 14.5 66.5t47.5 66.5l103 122h58l-119 -137q13 9 38 9q39 0 64.5 -26t25.5 -66q0 -60 -37 -98t-94 -38q-42 0 -71.5 28zM218 408.5q22 21.5 22 60.5q0 27 -16 44t-43 17q-34 0 -55.5 -24t-21.5 -60q0 -26 16 -42.5t42 -16.5
q34 0 56 21.5z" />
    <glyph glyph-name="seven.numr" horiz-adv-x="242" 
d="M130 350h-52l170 306h-162l8 44h213l-8 -44z" />
    <glyph glyph-name="eight.numr" horiz-adv-x="272" 
d="M85.5 369q-29.5 25 -29.5 66t21.5 68t51.5 36q-15 11 -23.5 27t-8.5 35q0 46 30 74.5t85 28.5q41 0 65.5 -22.5t24.5 -59.5q0 -31 -16.5 -54.5t-44.5 -34.5q19 -9 32 -27.5t13 -43.5q0 -52 -35.5 -85t-94.5 -33q-41 0 -70.5 25zM237.5 570q17.5 17 17.5 47
q0 20 -13.5 32.5t-35.5 12.5q-30 0 -46.5 -16t-16.5 -45q0 -20 13.5 -34t34.5 -14q29 0 46.5 17zM216 406.5q21 18.5 21 52.5q0 23 -15.5 38.5t-40.5 15.5q-33 0 -54.5 -19t-21.5 -53q0 -23 16 -38t41 -15q33 0 54 18.5z" />
    <glyph glyph-name="nine.numr" horiz-adv-x="269" 
d="M206 487q-14 -9 -38 -9q-38 0 -64 27.5t-26 68.5q0 60 37 96t94 36q42 0 71.5 -28t29.5 -73q0 -40 -14.5 -66.5t-47.5 -66.5l-103 -122h-58zM240.5 544q21.5 24 21.5 60q0 26 -16 42.5t-42 16.5q-34 0 -56 -21.5t-22 -60.5q0 -27 16 -44t43 -17q34 0 55.5 24z" />
    <glyph glyph-name="uni030C.alt" horiz-adv-x="0" 
d="M-73 499l-18 15l34 53q21 33 25 44q-14 4 -24.5 16t-10.5 27q0 25 15 39.5t38 14.5q21 0 33 -14t12 -35q0 -25 -12.5 -44.5t-48.5 -63.5z" />
    <glyph glyph-name="brevecombcy" horiz-adv-x="0" 
d="M-117.5 602.5q-25.5 28.5 -25.5 69.5q0 6 2 20h52q-2 -12 -2 -18q0 -24 12.5 -38t34.5 -14q30 0 47 17.5t23 52.5h52q-20 -118 -127 -118q-43 0 -68.5 28.5z" />
    </font>
</defs>
</svg>
