<?xml version="1.0" standalone="no"?>
<!DOCTYPE svg PUBLIC "-//W3C//DTD SVG 1.1//EN" "http://www.w3.org/Graphics/SVG/1.1/DTD/svg11.dtd" >
<svg xmlns="http://www.w3.org/2000/svg" xmlns:xlink="http://www.w3.org/1999/xlink" version="1.1">
<metadata>
Created by FontForge 20170731 at Mon Sep  6 17:59:12 2021
 By Aleksey,,,
Copyright (c) 2020 by F. Hoffmann-La Roche AG. All rights reserved.
</metadata>
<defs>
<font id="RocheSans-Regular" horiz-adv-x="546" >
  <font-face 
    font-family="Roche Sans"
    font-weight="400"
    font-stretch="normal"
    units-per-em="1000"
    panose-1="2 11 5 4 3 2 1 4 1 1"
    ascent="800"
    descent="-200"
    x-height="496"
    cap-height="700"
    bbox="-345 -245 1100 968"
    underline-thickness="50"
    underline-position="-150"
    unicode-range="U+000D-FB02"
  />
<missing-glyph horiz-adv-x="791" 
d="M608 123h-425l-173 200l173 200h425l173 -202zM36 321l156 -178h407l156 178l-156 182h-407z" />
    <glyph glyph-name="f_i" unicode="fi" horiz-adv-x="598" 
d="M215 609.5q-18 -18.5 -18 -52.5v-61h133v-79h-133v-417h-91v417h-87v79h87v63q0 73 41 113t111 40q36 0 72 -12v-85q-34 13 -64 13q-33 0 -51 -18.5zM428.5 601q-19.5 19 -19.5 46t19.5 46t45.5 19q27 0 46 -19t19 -46t-19 -46t-46 -19q-26 0 -45.5 19zM520 0h-91v496h91
v-496z" />
    <glyph glyph-name="f_l" unicode="fl" horiz-adv-x="636" 
d="M215 609.5q-18 -18.5 -18 -52.5v-61h133v-79h-133v-417h-91v417h-87v79h87v63q0 73 41 113t111 40q36 0 72 -12v-85q-34 13 -64 13q-33 0 -51 -18.5zM459.5 24q-30.5 36 -30.5 101v575h91v-573q0 -26 11 -40.5t33 -14.5q19 0 44 11v-84q-27 -11 -62 -11q-56 0 -86.5 36z
" />
    <glyph glyph-name=".notdef" horiz-adv-x="791" 
d="M608 123h-425l-173 200l173 200h425l173 -202zM36 321l156 -178h407l156 178l-156 182h-407z" />
    <glyph glyph-name=".null" horiz-adv-x="0" 
 />
    <glyph glyph-name="nonmarkingreturn" unicode="&#xd;" horiz-adv-x="600" 
 />
    <glyph glyph-name="space" unicode=" " horiz-adv-x="196" 
 />
    <glyph glyph-name="exclam" unicode="!" horiz-adv-x="245" 
d="M163 218h-81l-10 482h101zM75.5 10.5q-19.5 19.5 -19.5 47.5q0 27 19.5 46.5t47.5 19.5q27 0 46.5 -19.5t19.5 -46.5q0 -28 -19.5 -47.5t-46.5 -19.5q-28 0 -47.5 19.5z" />
    <glyph glyph-name="quotedbl" unicode="&#x22;" horiz-adv-x="383" 
d="M149 446h-86v254h86v-254zM320 446h-86v254h86v-254z" />
    <glyph glyph-name="numbersign" unicode="#" horiz-adv-x="575" 
d="M557 504v-80h-103l-20 -148h90v-80h-101l-26 -196h-86l26 196h-142l-26 -196h-86l26 196h-91v80h102l20 148h-90v80h101l26 196h86l-26 -196h142l26 196h86l-26 -196h92zM206 276h142l20 148h-142z" />
    <glyph glyph-name="dollar" unicode="$" horiz-adv-x="567" 
d="M328 403q91 -29 139.5 -78t48.5 -129v-4q0 -83 -51.5 -137.5t-136.5 -65.5v-77h-85v77q-78 11 -129 58t-71 117l89 40q31 -101 111 -121v247q-177 58 -177 200v3q0 71 50.5 119.5t126.5 58.5v75h85v-75q125 -18 174 -145l-82 -43q-14 34 -38 58t-54 34v-212zM163 531
q0 -32 19.5 -55.5t60.5 -43.5v187q-37 -8 -58.5 -31t-21.5 -56v-1zM417 191q0 38 -21.5 64t-67.5 46v-218q41 10 65 37.5t24 67.5v3z" />
    <glyph glyph-name="percent" unicode="%" horiz-adv-x="787" 
d="M83 412q-44 47 -44 120v12q0 48 20 86.5t55.5 60t80.5 21.5t81 -21.5t56 -60t20 -86.5v-12q0 -48 -20 -86t-56 -59.5t-81 -21.5q-68 0 -112 47zM238 0h-88l399 700h88zM253.5 461q21.5 27 21.5 70v15q0 42 -21.5 69.5t-58.5 27.5q-36 0 -58 -27.5t-22 -69.5v-15
q0 -43 22 -70t58 -27q37 0 58.5 27zM511 9.5q-36 21.5 -56 60t-20 86.5v12q0 48 20 86t55.5 59.5t80.5 21.5t81 -21.5t56 -59.5t20 -86v-12q0 -48 -20 -86.5t-56 -60t-81 -21.5q-44 0 -80 21.5zM650 84q22 27 22 70v15q0 42 -22 69.5t-59 27.5q-36 0 -58 -27.5t-22 -69.5
v-15q0 -43 22 -70t58 -27q37 0 59 27z" />
    <glyph glyph-name="ampersand" unicode="&#x26;" horiz-adv-x="577" 
d="M553 0h-103l-41 56q-30 -33 -72 -50.5t-102 -17.5q-55 0 -99.5 24t-70 69t-25.5 105v8q0 69 34.5 118.5t89.5 80.5q-55 81 -55 156q0 76 46.5 119.5t116.5 43.5q71 0 115 -43t44 -113q0 -62 -36 -108t-107 -83l117 -161q19 43 36 121l75 -29q-16 -91 -57 -167zM217 609.5
q-21 -22.5 -21 -62.5q0 -30 11 -58t34 -60q55 25 79 55t24 70q0 35 -19.5 56.5t-52.5 21.5q-34 0 -55 -22.5zM310 85.5q28 12.5 50 38.5l-148 203q-80 -45 -80 -131v-7q0 -52 31 -84t81 -32q38 0 66 12.5z" />
    <glyph glyph-name="quotesingle" unicode="'" horiz-adv-x="212" 
d="M149 446h-86v254h86v-254z" />
    <glyph glyph-name="parenleft" unicode="(" horiz-adv-x="284" 
d="M161 -140q-52 79 -88 194.5t-36 255.5t36 255.5t88 194.5h90q-54 -92 -85 -206t-31 -244t31 -244t85 -206h-90z" />
    <glyph glyph-name="parenright" unicode=")" horiz-adv-x="285" 
d="M33 -140q54 93 85.5 206.5t31.5 243.5t-31.5 243.5t-85.5 206.5h90q52 -80 88.5 -195t36.5 -255t-36.5 -255t-88.5 -195h-90z" />
    <glyph glyph-name="asterisk" unicode="*" horiz-adv-x="398" 
d="M339 639l34 -59l-120 -61l120 -61l-34 -60l-114 74l7 -134h-67l6 133l-112 -73l-34 60l119 61l-119 61l34 59l112 -73l-6 134h67l-7 -135z" />
    <glyph glyph-name="plus" unicode="+" horiz-adv-x="457" 
d="M271 355h158v-83h-158v-163h-85v163h-158v83h158v163h85v-163z" />
    <glyph glyph-name="comma" unicode="," horiz-adv-x="243" 
d="M89 -148l-28 15l37 80q11 26 15 43q-25 4 -41.5 22.5t-16.5 43.5q0 28 19.5 48t45.5 20q29 0 48.5 -19.5t19.5 -48.5q0 -30 -12 -58t-37 -68z" />
    <glyph glyph-name="hyphen" unicode="-" horiz-adv-x="334" 
d="M303 274h-272v78h272v-78z" />
    <glyph glyph-name="period" unicode="." horiz-adv-x="243" 
d="M74.5 10.5q-19.5 19.5 -19.5 47.5q0 27 19.5 46.5t47.5 19.5q27 0 46.5 -19.5t19.5 -46.5q0 -28 -19.5 -47.5t-46.5 -19.5q-28 0 -47.5 19.5z" />
    <glyph glyph-name="slash" unicode="/" horiz-adv-x="346" 
d="M115 -140h-98l214 900h98z" />
    <glyph glyph-name="zero" unicode="0" horiz-adv-x="560" 
d="M105 76.5q-63 90.5 -63 247.5v52q0 157 63 247.5t175 90.5t175 -90.5t63 -247.5v-52q0 -157 -63 -247.5t-175 -90.5t-175 90.5zM384.5 138.5q36.5 64.5 36.5 183.5v56q0 119 -36.5 183.5t-104.5 64.5t-104.5 -64.5t-36.5 -183.5v-56q0 -119 36.5 -183.5t104.5 -64.5
t104.5 64.5z" />
    <glyph glyph-name="one" unicode="1" horiz-adv-x="560" 
d="M406 0h-97v598l-195 -108v100l195 110h97v-700z" />
    <glyph glyph-name="two" unicode="2" horiz-adv-x="560" 
d="M89 0v85l212 238q44 50 64 91.5t20 90.5q0 58 -29.5 90t-79.5 32q-48 0 -78.5 -31t-40.5 -93l-86 21q11 86 66 137t139 51q63 0 109 -25.5t70.5 -71t24.5 -103.5q0 -71 -26.5 -124.5t-84.5 -119.5l-160 -183h283v-85h-403z" />
    <glyph glyph-name="three" unicode="3" horiz-adv-x="560" 
d="M321 432q81 -14 127 -66.5t46 -142.5v-10q0 -66 -27 -117t-76 -79.5t-114 -28.5q-96 0 -154.5 54t-69.5 150l87 17q11 -63 46 -99t90 -36q57 0 89.5 38t32.5 101v9q0 141 -171 141v74l138 181h-289v82h391v-82z" />
    <glyph glyph-name="four" unicode="4" horiz-adv-x="560" 
d="M433 0h-92v163h-283v87l283 450h92v-451h82v-86h-82v-163zM341 552l-189 -303h189v303z" />
    <glyph glyph-name="five" unicode="5" horiz-adv-x="560" 
d="M129.5 41.5q-59.5 53.5 -72.5 146.5l90 18q10 -60 45 -94.5t90 -34.5q57 0 91 38.5t34 104.5v15q0 67 -34 106.5t-96 39.5q-37 0 -68.5 -20t-51.5 -54l-82 28l28 365h374v-84h-296l-21 -207q23 25 58 40t76 15q97 0 152.5 -62.5t55.5 -166.5v-17q0 -64 -27.5 -116.5
t-77.5 -83t-115 -30.5q-93 0 -152.5 53.5z" />
    <glyph glyph-name="six" unicode="6" horiz-adv-x="560" 
d="M172 14.5q-50 26.5 -80 79t-30 126.5v8q0 63 20 112t61 113l157 247h103l-182 -277q12 9 30.5 14.5t37.5 5.5q61 0 108.5 -27t74 -77.5t26.5 -116.5v-9q0 -65 -29 -116.5t-79 -80t-110 -28.5q-58 0 -108 26.5zM372 109q37 39 37 103v10q0 64 -37.5 103t-93.5 39
t-91.5 -39t-35.5 -103v-10q0 -64 37 -103t92 -39t92 39z" />
    <glyph glyph-name="seven" unicode="7" horiz-adv-x="560" 
d="M253 0h-94l248 616h-337v84h426v-84z" />
    <glyph glyph-name="eight" unicode="8" horiz-adv-x="560" 
d="M171.5 13q-47.5 25 -74.5 71t-27 107v7q0 64 29 108.5t74 65.5q-36 22 -58.5 59.5t-22.5 88.5v8q0 51 23.5 92t66.5 64.5t98 23.5q54 0 97 -23.5t66.5 -64.5t23.5 -92v-8q0 -51 -22.5 -88.5t-58.5 -59.5q45 -21 74 -65.5t29 -108.5v-7q0 -61 -27 -107t-74.5 -71
t-107.5 -25q-61 0 -108.5 25zM352.5 434q28.5 29 28.5 78v8q0 49 -28.5 78t-72.5 29q-45 0 -73.5 -29t-28.5 -78v-8q0 -49 28.5 -78t73.5 -29q44 0 72.5 29zM365 105.5q33 33.5 33 89.5v9q0 56 -33 89.5t-85 33.5t-85.5 -33.5t-33.5 -89.5v-9q0 -56 33 -89.5t86 -33.5
q52 0 85 33.5z" />
    <glyph glyph-name="nine" unicode="9" horiz-adv-x="560" 
d="M339 277q-11 -10 -29.5 -15t-38.5 -5q-60 0 -107.5 27t-74.5 77.5t-27 116.5v9q0 66 29 117t79 79.5t111 28.5q59 0 108.5 -26.5t79 -79t29.5 -126.5v-8q0 -62 -19.5 -111t-60.5 -114l-158 -247h-102zM373.5 375q35.5 39 35.5 103v10q0 64 -36.5 103t-91.5 39t-92.5 -39
t-37.5 -103v-10q0 -64 38 -103t93 -39q56 0 91.5 39z" />
    <glyph glyph-name="colon" unicode=":" horiz-adv-x="243" 
d="M74.5 10.5q-19.5 19.5 -19.5 47.5q0 27 19.5 46.5t47.5 19.5q27 0 46.5 -19.5t19.5 -46.5q0 -28 -19.5 -47.5t-46.5 -19.5q-28 0 -47.5 19.5zM74.5 396.5q-19.5 19.5 -19.5 47.5q0 27 19.5 46.5t47.5 19.5q27 0 46.5 -19.5t19.5 -46.5q0 -28 -19.5 -47.5t-46.5 -19.5
q-28 0 -47.5 19.5z" />
    <glyph glyph-name="semicolon" unicode=";" horiz-adv-x="243" 
d="M89 -148l-28 15l37 80q11 26 15 43q-25 4 -41.5 22.5t-16.5 43.5q0 28 19.5 48t45.5 20q29 0 48.5 -19.5t19.5 -48.5q0 -30 -12 -58t-37 -68zM74.5 396.5q-19.5 19.5 -19.5 47.5q0 27 19.5 46.5t47.5 19.5q27 0 46.5 -19.5t19.5 -46.5q0 -28 -19.5 -47.5t-46.5 -19.5
q-28 0 -47.5 19.5z" />
    <glyph glyph-name="less" unicode="&#x3c;" horiz-adv-x="457" 
d="M429 168v-93l-401 187v97l401 186v-92l-314 -143z" />
    <glyph glyph-name="equal" unicode="=" horiz-adv-x="457" 
d="M429 377h-401v83h401v-83zM429 167h-401v83h401v-83z" />
    <glyph glyph-name="greater" unicode="&#x3e;" horiz-adv-x="457" 
d="M429 262l-401 -187v93l314 142l-314 143v92l401 -186v-97z" />
    <glyph glyph-name="question" unicode="?" horiz-adv-x="475" 
d="M197 240q0 56 20.5 93t65.5 81q35 34 49 59.5t14 59.5q0 43 -31.5 70t-80.5 27q-47 0 -80.5 -29.5t-48.5 -84.5l-80 27q16 76 71.5 123.5t137.5 47.5q61 0 107.5 -22.5t72 -61.5t25.5 -89q0 -54 -21 -93t-63 -80q-40 -39 -55 -67t-15 -71v-22h-88v32zM196.5 10.5
q-19.5 19.5 -19.5 47.5q0 27 19.5 46.5t47.5 19.5q27 0 46.5 -19.5t19.5 -46.5q0 -28 -19.5 -47.5t-46.5 -19.5q-28 0 -47.5 19.5z" />
    <glyph glyph-name="at" unicode="@" horiz-adv-x="816" 
d="M217 -48q-86 49 -135 139.5t-49 210.5v12q0 119 50 209.5t136.5 139.5t192.5 49q114 0 197.5 -48t128 -136.5t44.5 -206.5v-8q0 -69 -20.5 -120t-55.5 -78t-77 -27t-70.5 25t-35.5 64q-18 -41 -55.5 -65t-86.5 -24q-51 0 -91.5 26t-64 74t-23.5 112v16q0 64 23.5 112
t65.5 74t94 26q40 0 71 -18t47 -47v53h74v-285q0 -35 13.5 -54t39.5 -19q32 0 51 41.5t19 110.5v9q0 152 -77 235t-211 83q-85 0 -153 -40.5t-106 -114t-38 -168.5v-12q0 -96 38 -169.5t105 -114.5t153 -41q59 0 104 15t89 44l37 -67q-51 -33 -106 -49.5t-124 -16.5
q-108 0 -194 49zM476 197q32 39 32 104v14q0 65 -32 104t-82 39t-81.5 -39t-31.5 -104v-14q0 -65 31.5 -104t81.5 -39t82 39z" />
    <glyph glyph-name="A" unicode="A" horiz-adv-x="626" 
d="M607 0h-104l-51 158h-278l-51 -158h-104l237 700h114zM313 583l-110 -337h220z" />
    <glyph glyph-name="B" unicode="B" horiz-adv-x="603" 
d="M84 0v700h243q93 0 146 -47.5t53 -125.5v-2q0 -54 -25.5 -91.5t-64.5 -57.5q113 -50 113 -173v-3q0 -63 -27.5 -108t-75 -68.5t-106.5 -23.5h-256zM328 411q48 0 76.5 25t28.5 74v1q0 49 -28.5 74.5t-76.5 25.5h-144v-200h144zM333 92q55 0 86.5 30.5t31.5 84.5v3
q0 54 -31.5 84.5t-86.5 30.5h-149v-233h149z" />
    <glyph glyph-name="C" unicode="C" horiz-adv-x="650" 
d="M195 28.5q-68 42.5 -105.5 119.5t-37.5 178v48q0 101 37.5 178t105.5 119.5t156 42.5q92 0 155.5 -44t97.5 -125l-80 -44q-55 121 -172 121q-60 0 -105 -31t-69.5 -86.5t-24.5 -127.5v-54q0 -72 24.5 -127.5t69.5 -86.5t105 -31q117 0 172 121l81 -44q-37 -81 -100 -125
t-154 -44q-88 0 -156 42.5z" />
    <glyph glyph-name="D" unicode="D" horiz-adv-x="637" 
d="M84 0v700h191q92 0 162.5 -40t109 -113.5t38.5 -171.5v-50q0 -98 -38.5 -171.5t-109 -113.5t-162.5 -40h-191zM272 92q98 0 154.5 62t56.5 171v50q0 109 -56.5 171t-154.5 62h-88v-516h88z" />
    <glyph glyph-name="E" unicode="E" horiz-adv-x="575" 
d="M519 0h-435v700h432v-92h-332v-203h278v-89h-278v-224h335v-92z" />
    <glyph glyph-name="F" unicode="F" 
d="M184 0h-100v700h412v-92h-312v-223h269v-91h-269v-294z" />
    <glyph glyph-name="G" unicode="G" horiz-adv-x="667" 
d="M195 28.5q-68 42.5 -105.5 119.5t-37.5 178v48q0 101 37.5 178t105.5 119.5t156 42.5q92 0 156 -44t97 -125l-80 -44q-55 121 -172 121q-60 0 -105 -31t-69.5 -86.5t-24.5 -127.5v-54q0 -72 24.5 -127.5t70 -86.5t106.5 -31q95 0 155 77v124h-171v85h269v-247
q-47 -62 -108.5 -96.5t-146.5 -34.5q-89 0 -157 42.5z" />
    <glyph glyph-name="H" unicode="H" horiz-adv-x="685" 
d="M184 0h-100v700h100v-285h317v285h100v-700h-100v323h-317v-323z" />
    <glyph glyph-name="I" unicode="I" horiz-adv-x="268" 
d="M184 0h-100v700h100v-700z" />
    <glyph glyph-name="J" unicode="J" horiz-adv-x="531" 
d="M114 29q-54 43 -76 117l93 37q13 -50 43.5 -77t76.5 -27q106 0 106 142v479h100v-473q0 -115 -52.5 -178t-155.5 -63q-81 0 -135 43z" />
    <glyph glyph-name="K" unicode="K" horiz-adv-x="561" 
d="M412 700h115l-228 -350l228 -350h-114l-200 305h-29v-305h-100v700h100v-309h30z" />
    <glyph glyph-name="L" unicode="L" horiz-adv-x="537" 
d="M495 0h-411v700h100v-608h311v-92z" />
    <glyph glyph-name="M" unicode="M" horiz-adv-x="750" 
d="M180 0h-96v700h102l189 -461l189 461h102v-700h-96v500l-150 -360h-90l-150 360v-500z" />
    <glyph glyph-name="N" unicode="N" horiz-adv-x="670" 
d="M180 0h-96v700h106l300 -520v520h96v-700h-91l-315 546v-546z" />
    <glyph glyph-name="O" unicode="O" horiz-adv-x="692" 
d="M190.5 28.5q-66.5 42.5 -102.5 119.5t-36 178v48q0 101 36 178t102.5 119.5t155.5 42.5t155.5 -42.5t102.5 -119.5t36 -178v-48q0 -101 -36 -178t-102.5 -119.5t-155.5 -42.5t-155.5 42.5zM488 144q50 66 50 179v54q0 113 -50 179t-142 66t-142 -66t-50 -179v-54
q0 -113 50 -179t142 -66t142 66z" />
    <glyph glyph-name="P" unicode="P" horiz-adv-x="564" 
d="M84 0v700h234q93 0 147.5 -50t54.5 -143t-54.5 -143t-147.5 -50h-134v-314h-100zM311 402q53 0 81 26t28 79t-28 79t-81 26h-127v-210h127z" />
    <glyph glyph-name="Q" unicode="Q" horiz-adv-x="692" 
d="M640 326q0 -86 -26.5 -155t-75.5 -114l86 -129h-103l-55 82q-52 -24 -120 -24q-89 0 -155.5 42.5t-102.5 119.5t-36 178v48q0 101 36 178t102.5 119.5t155.5 42.5t155.5 -42.5t102.5 -119.5t36 -178v-48zM154 323q0 -113 50 -179t142 -66t142 66t50 179v54q0 113 -50 179
t-142 66t-142 -66t-50 -179v-54z" />
    <glyph glyph-name="R" unicode="R" horiz-adv-x="593" 
d="M84 0v700h250q89 0 142 -49.5t53 -135.5q0 -61 -31 -101t-78 -57q34 -9 52 -35t26 -77l36 -245h-100l-33 238q-6 43 -23 59.5t-53 16.5h-141v-314h-100zM321 401q51 0 79.5 27.5t28.5 78.5t-28.5 78t-79.5 27h-137v-211h137z" />
    <glyph glyph-name="S" unicode="S" horiz-adv-x="567" 
d="M128.5 35q-62.5 49 -85.5 129l89 40q40 -126 154 -126q59 0 95 30t36 80v3q0 49 -37 79.5t-118 53.5q-196 56 -196 206v3q0 53 29 94.5t78 64t108 22.5q86 0 139.5 -38t81.5 -110l-82 -43q-20 47 -56 73.5t-82 26.5q-53 0 -86 -25t-33 -66v-1q0 -44 36.5 -72.5
t117.5 -52.5q96 -28 147.5 -77.5t51.5 -132.5v-4q0 -62 -29.5 -108.5t-81.5 -72t-119 -25.5q-95 0 -157.5 49z" />
    <glyph glyph-name="T" unicode="T" horiz-adv-x="535" 
d="M506 700v-92h-189v-608h-99v608h-189v92h477z" />
    <glyph glyph-name="U" unicode="U" horiz-adv-x="634" 
d="M184 20.5q-55 34.5 -82.5 94.5t-27.5 138v447h100v-453q0 -76 38.5 -122t105.5 -46q66 0 104 46t38 122v453h100v-447q0 -119 -62.5 -193t-179.5 -74q-79 0 -134 34.5z" />
    <glyph glyph-name="V" unicode="V" horiz-adv-x="615" 
d="M363 0h-112l-232 700h110l179 -572l179 572h109z" />
    <glyph glyph-name="W" unicode="W" horiz-adv-x="842" 
d="M290 0h-115l-149 700h98l113 -565l133 526h102l133 -526l113 565h98l-149 -700h-115l-131 524z" />
    <glyph glyph-name="X" unicode="X" horiz-adv-x="572" 
d="M139 0h-112l201 362l-190 338h109l141 -255l146 255h108l-197 -342l200 -358h-113l-148 273z" />
    <glyph glyph-name="Y" unicode="Y" horiz-adv-x="566" 
d="M333 0h-99v287l-218 413h110l157 -309l158 309h109l-217 -413v-287z" />
    <glyph glyph-name="Z" unicode="Z" horiz-adv-x="534" 
d="M485 0h-443v92l321 516h-310v92h418v-92l-321 -516h335v-92z" />
    <glyph glyph-name="bracketleft" unicode="[" horiz-adv-x="325" 
d="M298 -140h-214v900h214v-85h-121v-730h121v-85z" />
    <glyph glyph-name="backslash" unicode="\" horiz-adv-x="346" 
d="M329 -140h-98l-214 900h98z" />
    <glyph glyph-name="bracketright" unicode="]" horiz-adv-x="324" 
d="M240 -140h-213v85h120v730h-120v85h213v-900z" />
    <glyph glyph-name="asciicircum" unicode="^" horiz-adv-x="457" 
d="M125 418h-93l148 282h97l149 -282h-94l-103 205z" />
    <glyph glyph-name="underscore" unicode="_" horiz-adv-x="462" 
d="M431 -106h-400v78h400v-78z" />
    <glyph glyph-name="grave" unicode="`" horiz-adv-x="216" 
d="M201 575h-75l-111 152h109z" />
    <glyph glyph-name="a" unicode="a" horiz-adv-x="528" 
d="M93.5 27.5q-41.5 39.5 -41.5 104.5v3q0 67 44.5 105.5t119.5 53.5l129 25v14q0 44 -26.5 71t-73.5 27q-84 0 -113 -85l-76 30q19 60 69 96t120 36q90 0 139.5 -47.5t49.5 -126.5v-223q0 -21 10 -33.5t30 -12.5q16 0 32 8v-73q-25 -12 -60 -12q-40 0 -65 23.5t-29 62.5
q-45 -86 -151 -86q-66 0 -107.5 39.5zM312 106q33 41 33 115v31l-115 -23q-87 -19 -87 -90v-1q0 -32 21.5 -52.5t56.5 -20.5q58 0 91 41z" />
    <glyph glyph-name="b" unicode="b" horiz-adv-x="569" 
d="M227 7q-37 19 -58 54v-61h-91v700h91v-265q19 31 57.5 52t85.5 21q60 0 106.5 -30.5t72.5 -86.5t26 -130v-26q0 -74 -26.5 -130t-73 -86.5t-106.5 -30.5q-47 0 -84 19zM388.5 117.5q34.5 42.5 34.5 116.5v28q0 74 -34.5 116.5t-94.5 42.5t-94.5 -42.5t-34.5 -116.5v-28
q0 -74 34.5 -116.5t94.5 -42.5t94.5 42.5z" />
    <glyph glyph-name="c" unicode="c" horiz-adv-x="521" 
d="M161.5 19.5q-51.5 31.5 -80.5 88t-29 127.5v26q0 71 29 127.5t80.5 88t117.5 31.5q76 0 127 -37t73 -105l-80 -36q-15 43 -45.5 67t-74.5 24q-60 0 -96.5 -43.5t-36.5 -114.5v-30q0 -71 36.5 -114.5t96.5 -43.5q44 0 74.5 24.5t46.5 67.5l81 -36q-26 -68 -76.5 -105.5
t-125.5 -37.5q-66 0 -117.5 31.5z" />
    <glyph glyph-name="d" unicode="d" horiz-adv-x="569" 
d="M150.5 18.5q-46.5 30.5 -72.5 86t-26 130.5v26q0 75 26 130.5t73 86t109 30.5q48 0 84 -19t56 -49v260h91v-700h-91v63q-45 -75 -142 -75q-61 0 -107.5 30.5zM369.5 117.5q34.5 42.5 34.5 116.5v28q0 74 -34.5 116.5t-94.5 42.5t-94.5 -42.5t-34.5 -116.5v-28
q0 -74 34.5 -116.5t94.5 -42.5t94.5 42.5z" />
    <glyph glyph-name="e" unicode="e" horiz-adv-x="544" 
d="M492 230h-348q0 -73 37 -117.5t96 -44.5q46 0 75.5 22.5t46.5 64.5l82 -31q-55 -136 -204 -136q-66 0 -117 31.5t-79.5 88t-28.5 127.5v26q0 72 29 128t80.5 87.5t116.5 31.5q61 0 109.5 -28t76.5 -82t28 -130v-38zM188.5 393.5q-34.5 -35.5 -42.5 -95.5h256
q-4 60 -38.5 95.5t-85.5 35.5q-55 0 -89.5 -35.5z" />
    <glyph glyph-name="f" unicode="f" horiz-adv-x="351" 
d="M215 609.5q-18 -18.5 -18 -52.5v-61h133v-79h-133v-417h-91v417h-87v79h87v63q0 73 41 113t111 40q36 0 72 -12v-85q-34 13 -64 13q-33 0 -51 -18.5z" />
    <glyph glyph-name="g" unicode="g" horiz-adv-x="569" 
d="M141 -181q-54 35 -78 93l80 43q37 -86 130 -86q61 0 94 40t33 107v66q-21 -34 -57 -54.5t-87 -20.5q-59 0 -105.5 29.5t-72.5 84t-26 126.5v21q0 72 26.5 126.5t73 84t105.5 29.5q49 0 85.5 -19.5t57.5 -51.5v59h91v-478q0 -108 -58 -171t-160 -63q-78 0 -132 35z
M369.5 135q34.5 42 34.5 112v21q0 70 -34.5 112t-94.5 42t-94.5 -42t-34.5 -112v-21q0 -70 34.5 -112t94.5 -42t94.5 42z" />
    <glyph glyph-name="h" unicode="h" horiz-adv-x="553" 
d="M78 0v700h91v-259q16 28 52.5 47.5t81.5 19.5q79 0 125.5 -50t46.5 -132v-326h-91v306q0 53 -30 85.5t-77 32.5t-77.5 -33t-30.5 -85v-306h-91z" />
    <glyph glyph-name="i" unicode="i" horiz-adv-x="247" 
d="M77.5 601q-19.5 19 -19.5 46t19.5 46t45.5 19q27 0 46 -19t19 -46t-19 -46t-46 -19q-26 0 -45.5 19zM169 0h-91v496h91v-496z" />
    <glyph glyph-name="j" unicode="j" horiz-adv-x="247" 
d="M77.5 601q-19.5 19 -19.5 46t19.5 46t45.5 19q27 0 46 -19t19 -46t-19 -46t-46 -19q-26 0 -45.5 19zM-20 -202v85q25 -11 48 -11q24 0 37 16.5t13 48.5v559h91v-555q0 -76 -32 -114.5t-92 -38.5q-38 0 -65 10z" />
    <glyph glyph-name="k" unicode="k" horiz-adv-x="473" 
d="M334 496h105l-169 -248l169 -248h-105l-145 216h-20v-216h-91v700h91v-420h20z" />
    <glyph glyph-name="l" unicode="l" horiz-adv-x="285" 
d="M108.5 24q-30.5 36 -30.5 101v575h91v-573q0 -26 11 -40.5t33 -14.5q19 0 44 11v-84q-27 -11 -62 -11q-56 0 -86.5 36z" />
    <glyph glyph-name="m" unicode="m" horiz-adv-x="775" 
d="M78 0v496h90v-51q13 26 45 44.5t74 18.5q44 0 76.5 -19t48.5 -52q19 32 54.5 51.5t81.5 19.5q71 0 110 -44.5t39 -119.5v-344h-90v329q0 44 -24 70t-63 26t-63 -27t-24 -70v-328h-91v329q0 45 -24 70.5t-63 25.5t-63 -27t-24 -70v-328h-90z" />
    <glyph glyph-name="n" unicode="n" 
d="M78 0v496h91v-55q15 29 50.5 48t80.5 19q79 0 123.5 -48.5t44.5 -131.5v-328h-91v311q0 52 -28.5 82.5t-75.5 30.5t-75.5 -30.5t-28.5 -82.5v-311h-91z" />
    <glyph glyph-name="o" unicode="o" horiz-adv-x="561" 
d="M163 19.5q-52 31.5 -81.5 88t-29.5 127.5v26q0 71 29.5 127.5t81.5 88t118 31.5t118 -31.5t81 -88t29 -127.5v-26q0 -71 -29 -127.5t-81 -88t-118 -31.5t-118 31.5zM378.5 118.5q36.5 43.5 36.5 115.5v28q0 72 -36.5 115.5t-97.5 43.5q-62 0 -98.5 -43.5t-36.5 -115.5
v-28q0 -72 36.5 -115.5t98.5 -43.5q61 0 97.5 43.5z" />
    <glyph glyph-name="p" unicode="p" horiz-adv-x="569" 
d="M78 -203v699h91v-64q20 34 57.5 55t85.5 21q59 0 105.5 -30.5t73 -86.5t26.5 -130v-26q0 -74 -26.5 -130t-73 -86.5t-105.5 -30.5q-49 0 -86 19t-57 50v-260h-91zM387 118q36 43 36 116v28q0 73 -36 116t-93 43q-58 0 -93.5 -43t-35.5 -116v-28q0 -73 35.5 -116t93.5 -43
q57 0 93 43z" />
    <glyph glyph-name="q" unicode="q" horiz-adv-x="569" 
d="M400 62q-21 -34 -56.5 -54t-86.5 -20q-59 0 -105.5 30.5t-73 86.5t-26.5 130v26q0 74 26.5 130t73 86.5t105.5 30.5q48 0 85.5 -20t57.5 -53v61h91v-700h-91v266zM368 118q36 43 36 116v28q0 73 -36 116t-93 43t-93 -43t-36 -116v-28q0 -73 36 -116t93 -43t93 43z" />
    <glyph glyph-name="r" unicode="r" horiz-adv-x="388" 
d="M78 0v496h91v-60q14 32 47 52t75 20q29 0 51 -8v-88q-30 12 -63 12q-49 0 -79.5 -35t-30.5 -92v-297h-91z" />
    <glyph glyph-name="s" unicode="s" horiz-adv-x="459" 
d="M113.5 21q-48.5 35 -66.5 92l78 38q13 -39 41 -62t65 -23q39 0 64.5 18t25.5 50q0 33 -25.5 52t-84.5 33q-69 16 -108.5 55.5t-39.5 96.5q0 40 22.5 71t61 48.5t84.5 17.5q65 0 108.5 -29t62.5 -81l-70 -35q-13 33 -40.5 52t-61.5 19q-37 0 -61 -17.5t-24 -44.5
q0 -29 26 -49t86 -34q76 -17 114.5 -53t38.5 -99q0 -45 -23.5 -79t-65 -53t-91.5 -19q-68 0 -116.5 35z" />
    <glyph glyph-name="t" unicode="t" horiz-adv-x="384" 
d="M347 417h-134v-276q0 -33 15.5 -51t47.5 -18q34 0 71 18v-85q-39 -17 -90 -17q-67 0 -101 39t-34 112v278h-94v79h94v95l91 42v-137h134v-79z" />
    <glyph glyph-name="u" unicode="u" 
d="M122 36.5q-44 48.5 -44 132.5v327h91v-311q0 -53 28.5 -83t75.5 -30t75.5 31t28.5 82v311h91v-496h-91v55q-16 -29 -51 -48t-80 -19q-80 0 -124 48.5z" />
    <glyph glyph-name="v" unicode="v" horiz-adv-x="478" 
d="M288 0h-98l-175 496h98l126 -380l126 380h98z" />
    <glyph glyph-name="w" unicode="w" horiz-adv-x="686" 
d="M242 0h-97l-127 496h93l85 -370l99 370h95l100 -370l84 370h94l-127 -496h-98l-100 387z" />
    <glyph glyph-name="x" unicode="x" horiz-adv-x="462" 
d="M127 0h-106l155 263l-144 233h107l92 -160l90 160h107l-146 -236l159 -260h-106l-106 184z" />
    <glyph glyph-name="y" unicode="y" horiz-adv-x="496" 
d="M376 496h98l-208 -573q-27 -72 -66 -103.5t-104 -31.5q-41 0 -69 13v91q34 -19 71 -19q33 0 54 20t36 63l17 50l-188 490h101l130 -367z" />
    <glyph glyph-name="z" unicode="z" horiz-adv-x="432" 
d="M393 0h-361v79l249 338h-239v79h338v-79l-248 -338h261v-79z" />
    <glyph glyph-name="braceleft" unicode="{" horiz-adv-x="337" 
d="M199 404q0 -76 -60 -94q60 -18 60 -94v-221q0 -23 13.5 -36.5t36.5 -13.5h61v-85h-77q-61 0 -94 32t-33 93v232q0 25 -13 38.5t-38 13.5h-37v82h37q25 0 38 13.5t13 38.5v232q0 61 33 93t94 32h77v-85h-61q-23 0 -36.5 -13.5t-13.5 -36.5v-221z" />
    <glyph glyph-name="bar" unicode="|" horiz-adv-x="268" 
d="M184 -204h-100v904h100v-904z" />
    <glyph glyph-name="braceright" unicode="}" horiz-adv-x="337" 
d="M319 351v-82h-37q-52 0 -52 -52v-232q0 -61 -33 -93t-94 -32h-76v85h61q23 0 36 13.5t13 36.5v221q0 76 60 94q-60 18 -60 94v221q0 23 -13 36.5t-36 13.5h-61v85h76q61 0 94 -32t33 -93v-232q0 -52 52 -52h37z" />
    <glyph glyph-name="asciitilde" unicode="~" horiz-adv-x="457" 
d="M24 265q11 52 41.5 80.5t76.5 28.5q28 0 50.5 -8.5t52.5 -25.5q22 -12 36 -18t28 -6q42 0 55 55l69 -22q-11 -52 -42 -80.5t-78 -28.5q-27 0 -49.5 8.5t-52.5 25.5q-25 13 -38 18.5t-27 5.5q-21 0 -34 -14.5t-18 -40.5z" />
    <glyph glyph-name="uni00A0" unicode="&#xa0;" horiz-adv-x="196" 
 />
    <glyph glyph-name="exclamdown" unicode="&#xa1;" horiz-adv-x="245" 
d="M75.5 391.5q-19.5 19.5 -19.5 46.5q0 28 19.5 47.5t47.5 19.5q27 0 46.5 -19.5t19.5 -47.5q0 -27 -19.5 -46.5t-46.5 -19.5q-28 0 -47.5 19.5zM173 -204h-101l10 482h81z" />
    <glyph glyph-name="cent" unicode="&#xa2;" horiz-adv-x="521" 
d="M481 233q-22 -58 -62.5 -94t-98.5 -46v-93h-84v94q-83 14 -133.5 80.5t-50.5 162.5v26q0 96 50.5 162t133.5 81v94h84v-93q60 -10 100 -45.5t59 -93.5l-80 -36q-15 43 -45.5 67t-74.5 24q-60 0 -96.5 -43.5t-36.5 -114.5v-30q0 -71 36.5 -114.5t96.5 -43.5
q44 0 74.5 24.5t46.5 67.5z" />
    <glyph glyph-name="sterling" unicode="&#xa3;" horiz-adv-x="500" 
d="M185.5 157q-15.5 -36 -43.5 -71h325v-86h-428v83q73 76 73 155q0 19 -3 37h-74v73h55q-3 8 -15 39.5t-18 62.5t-6 61q0 61 26 106.5t73 70t107 24.5q87 0 140 -43t70 -124l-88 -27q-25 108 -121 108q-49 0 -79.5 -31.5t-30.5 -87.5q0 -33 6.5 -62.5t19.5 -69.5l8 -27h193
v-73h-176q2 -24 2 -37q0 -45 -15.5 -81z" />
    <glyph glyph-name="currency" unicode="&#xa4;" horiz-adv-x="535" 
d="M458 345q0 -60 -27 -109l76 -75l-60 -60l-74 73q-47 -30 -106 -30q-58 0 -105 30l-74 -73l-60 60l76 75q-27 49 -27 109v10q0 60 27 109l-76 75l60 60l74 -73q47 30 105 30q59 0 106 -30l74 73l60 -60l-76 -75q27 -49 27 -109v-10zM341 260q27 32 27 84v12q0 52 -27 84
t-74 32q-46 0 -73 -32t-27 -84v-12q0 -52 27 -84t73 -32q47 0 74 32z" />
    <glyph glyph-name="yen" unicode="&#xa5;" horiz-adv-x="552" 
d="M430 700h113l-177 -330h101v-74h-141v-77h141v-74h-141v-145h-100v145h-141v74h141v77h-141v74h101l-177 330h113l154 -304z" />
    <glyph glyph-name="brokenbar" unicode="&#xa6;" horiz-adv-x="268" 
d="M184 333h-100v367h100v-367zM184 -204h-100v367h100v-367z" />
    <glyph glyph-name="section" unicode="&#xa7;" horiz-adv-x="550" 
d="M493 -28q0 -55 -27.5 -98.5t-78 -67.5t-115.5 -24q-85 0 -142.5 39t-83.5 107l85 44q19 -48 55 -73.5t86 -25.5q55 0 89 26.5t34 70.5q0 45 -35 71t-117 42q-93 18 -146.5 63.5t-53.5 123.5q0 72 60 125q-56 51 -56 134q0 53 28 95t78.5 65t113.5 23q83 0 136.5 -33.5
t82.5 -100.5l-80 -46q-20 44 -56 66.5t-82 22.5q-54 0 -89 -26t-35 -68q0 -43 38 -71t119 -45q98 -21 148 -64t50 -122q0 -76 -57 -126q51 -48 51 -127zM174.5 209q35.5 -27 120.5 -45q45 -10 75 -22q33 33 33 76t-36 68.5t-122 43.5q-44 10 -73 22q-33 -31 -33 -73
q0 -43 35.5 -70z" />
    <glyph glyph-name="dieresis" unicode="&#xa8;" horiz-adv-x="365" 
d="M40 603.5q-18 18.5 -18 43.5q0 26 18 44t44 18t44 -18t18 -44t-18 -44t-44 -18t-44 18.5zM236.5 603.5q-18.5 18.5 -18.5 43.5t18.5 43.5t43.5 18.5q26 0 44 -18t18 -44t-18 -44t-44 -18q-25 0 -43.5 18.5z" />
    <glyph glyph-name="copyright" unicode="&#xa9;" horiz-adv-x="748" 
d="M203 32.5q-75 46.5 -117 127.5t-42 181v18q0 100 42 181t117 127.5t171 46.5t171 -46.5t117 -127.5t42 -181v-18q0 -100 -42 -181t-117 -127.5t-171 -46.5t-171 46.5zM511.5 81.5q61.5 38.5 96.5 106.5t35 152v20q0 84 -35 152t-96.5 106.5t-137.5 38.5t-137.5 -38.5
t-96.5 -106.5t-35 -152v-20q0 -84 35 -152t96.5 -106.5t137.5 -38.5t137.5 38.5zM281 167.5q-41 25.5 -64 71t-23 104.5v14q0 59 23 104.5t64 71t93 25.5q55 0 96 -29t58 -81l-49 -22q-13 36 -40.5 56.5t-64.5 20.5q-56 0 -88.5 -40t-32.5 -105v-16q0 -66 32.5 -105.5
t88.5 -39.5q40 0 66.5 21t40.5 57l52 -21q-21 -52 -62.5 -82t-96.5 -30q-52 0 -93 25.5z" />
    <glyph glyph-name="ordfeminine" unicode="&#xaa;" horiz-adv-x="342" 
d="M55.5 399.5q-27.5 25.5 -27.5 67.5v2q0 82 109 102l81 16v7q0 26 -16.5 42.5t-45.5 16.5q-26 0 -44 -13.5t-26 -38.5l-56 22q13 38 46.5 61t79.5 23q61 0 94.5 -30.5t33.5 -81.5v-136q0 -13 6.5 -21t18.5 -8q9 0 21 5v-52q-18 -9 -42 -9q-26 0 -43 14t-21 39
q-29 -53 -98 -53q-43 0 -70.5 25.5zM198 454.5q20 24.5 20 67.5v18l-71 -15q-53 -11 -53 -52q0 -19 13.5 -31t34.5 -12q36 0 56 24.5z" />
    <glyph glyph-name="guillemotleft" unicode="&#xab;" horiz-adv-x="431" 
d="M310 478h88l-97 -182l97 -182h-88l-100 182zM136 478h88l-97 -182l97 -182h-88l-100 182z" />
    <glyph glyph-name="logicalnot" unicode="&#xac;" horiz-adv-x="457" 
d="M28 355h401v-246h-85v163h-316v83z" />
    <glyph glyph-name="uni00AD" unicode="&#xad;" horiz-adv-x="334" 
d="M303 274h-272v78h272v-78z" />
    <glyph glyph-name="registered" unicode="&#xae;" horiz-adv-x="393" 
d="M86.5 447.5q-42.5 43.5 -42.5 110.5v4q0 67 42.5 110.5t110.5 43.5q44 0 78.5 -20t54 -55.5t19.5 -78.5v-4q0 -43 -19.5 -78.5t-54 -55.5t-78.5 -20q-68 0 -110.5 43.5zM282 469q32 35 32 89v4q0 54 -32 89t-85 35q-54 0 -86 -35t-32 -89v-4q0 -54 32 -89t86 -35
q53 0 85 35zM143 466v188h62q27 0 40.5 -14t13.5 -37q0 -16 -8 -27t-20 -16q15 -4 18 -25l10 -69h-31l-8 64q-1 18 -20 18h-27v-82h-30zM204 574q12 0 18.5 7t6.5 20t-7 20.5t-18 7.5h-31v-55h31z" />
    <glyph glyph-name="macron" unicode="&#xaf;" horiz-adv-x="273" 
d="M251 616h-229v71h229v-71z" />
    <glyph glyph-name="degree" unicode="&#xb0;" horiz-adv-x="332" 
d="M78.5 483.5q-34.5 35.5 -34.5 90.5t34.5 90.5t87.5 35.5t87.5 -35.5t34.5 -90.5t-34.5 -90.5t-87.5 -35.5t-87.5 35.5zM208 526.5q16 18.5 16 47.5t-16 47.5t-42 18.5q-25 0 -41.5 -18.5t-16.5 -47.5t16.5 -47.5t41.5 -18.5q26 0 42 18.5z" />
    <glyph glyph-name="plusminus" unicode="&#xb1;" horiz-adv-x="457" 
d="M271 518v-136h158v-83h-158v-135h-85v135h-158v83h158v136h85zM429 0h-401v83h401v-83z" />
    <glyph glyph-name="uni00B2" unicode="&#xb2;" horiz-adv-x="270" 
d="M29 350v62l107 107q22 21 32 38.5t10 39.5t-13 35t-33 13q-44 0 -53 -52l-62 14q6 45 36 72t79 27q54 0 84.5 -28.5t30.5 -75.5q0 -36 -14.5 -62.5t-46.5 -57.5l-69 -70h135v-62h-223z" />
    <glyph glyph-name="uni00B3" unicode="&#xb3;" horiz-adv-x="280" 
d="M178 567q37 -9 59 -35t22 -67v-4q0 -53 -33.5 -85t-88.5 -32q-52 0 -84.5 28.5t-37.5 76.5l63 11q5 -25 19.5 -39.5t38.5 -14.5q25 0 39 15.5t14 40.5v3q0 58 -80 58v48l60 71h-140v58h216v-58z" />
    <glyph glyph-name="acute" unicode="&#xb4;" horiz-adv-x="216" 
d="M89 575h-74l77 152h109z" />
    <glyph glyph-name="uni00B5" unicode="&#xb5;" 
d="M78 -204v700h91v-311q0 -53 28.5 -83t75.5 -30t75.5 31t28.5 82v311h91v-496h-91v55q-16 -29 -51 -48t-80 -19q-48 0 -77 32v-224h-91z" />
    <glyph glyph-name="paragraph" unicode="&#xb6;" horiz-adv-x="673" 
d="M280 -204v525h-31q-91 0 -148 50.5t-57 139.5q0 88 57 138.5t148 50.5h395v-84h-74v-820h-94v820h-103v-820h-93z" />
    <glyph glyph-name="periodcentered" unicode="&#xb7;" horiz-adv-x="243" 
d="M74.5 302.5q-19.5 19.5 -19.5 47.5q0 27 19.5 46.5t47.5 19.5q27 0 46.5 -19.5t19.5 -46.5q0 -28 -19.5 -47.5t-46.5 -19.5q-28 0 -47.5 19.5z" />
    <glyph glyph-name="cedilla" unicode="&#xb8;" horiz-adv-x="192" 
d="M161.5 -65.5q22.5 -21.5 22.5 -60.5q0 -42 -28.5 -66t-74.5 -24q-45 0 -78 16l22 52q23 -15 53 -15q45 0 45 37q0 15 -10 25t-26 10q-10 0 -19.5 -3.5t-15.5 -8.5l-42 19l21 96h53l-16 -64q18 8 34 8q37 0 59.5 -21.5z" />
    <glyph glyph-name="uni00B9" unicode="&#xb9;" horiz-adv-x="195" 
d="M165 350h-73v277l-80 -52v73l80 52h73v-350z" />
    <glyph glyph-name="ordmasculine" unicode="&#xba;" horiz-adv-x="356" 
d="M68.5 418.5q-42.5 44.5 -42.5 114.5v16q0 69 42.5 113.5t109.5 44.5t109.5 -44.5t42.5 -113.5v-16q0 -70 -42.5 -114.5t-109.5 -44.5t-109.5 44.5zM239 464q23 26 23 68v18q0 42 -23 68t-61 26t-60.5 -26t-22.5 -68v-18q0 -42 22.5 -68t60.5 -26t61 26z" />
    <glyph glyph-name="guillemotright" unicode="&#xbb;" horiz-adv-x="431" 
d="M207 478h89l99 -182l-99 -182h-89l98 182zM33 478h89l99 -182l-99 -182h-89l98 182z" />
    <glyph glyph-name="onequarter" unicode="&#xbc;" horiz-adv-x="689" 
d="M165 350h-73v277l-80 -52v73l80 52h73v-350zM199 0h-89l399 700h89zM630 0h-68v72h-147v60l147 218h68v-218h48v-60h-48v-72zM562 252l-81 -120h81v120z" />
    <glyph glyph-name="onehalf" unicode="&#xbd;" horiz-adv-x="723" 
d="M165 350h-73v277l-80 -52v73l80 52h73v-350zM199 0h-89l399 700h89zM482 0v62l107 107q22 21 32 38.5t10 39.5t-13 35t-33 13q-44 0 -53 -52l-62 14q6 45 36 72t79 27q54 0 84.5 -28.5t30.5 -75.5q0 -36 -14.5 -62.5t-46.5 -57.5l-69 -70h135v-62h-223z" />
    <glyph glyph-name="threequarters" unicode="&#xbe;" horiz-adv-x="724" 
d="M178 567q37 -9 59 -35t22 -67v-4q0 -53 -33.5 -85t-88.5 -32q-52 0 -84.5 28.5t-37.5 76.5l63 11q5 -25 19.5 -39.5t38.5 -14.5q25 0 39 15.5t14 40.5v3q0 58 -80 58v48l60 71h-140v58h216v-58zM234 0h-89l399 700h89zM665 0h-68v72h-147v60l147 218h68v-218h48v-60h-48
v-72zM597 252l-81 -120h81v120z" />
    <glyph glyph-name="questiondown" unicode="&#xbf;" horiz-adv-x="475" 
d="M184.5 393.5q-19.5 19.5 -19.5 46.5q0 28 19.5 47.5t47.5 19.5q27 0 46.5 -19.5t19.5 -47.5q0 -27 -19.5 -46.5t-46.5 -19.5q-28 0 -47.5 19.5zM132.5 -194q-46.5 22 -71.5 61.5t-25 89.5q0 54 21 93.5t63 79.5q40 39 55 67t15 71v22h88v-32q0 -56 -20.5 -93t-65.5 -81
q-35 -33 -49 -59t-14 -60q0 -43 31.5 -70t79.5 -27t81.5 29.5t47.5 84.5l81 -27q-16 -76 -72 -123.5t-138 -47.5q-61 0 -107.5 22z" />
    <glyph glyph-name="Agrave" unicode="&#xc0;" horiz-adv-x="626" 
d="M607 0h-104l-51 158h-278l-51 -158h-104l237 700h114zM313 583l-110 -337h220zM350 779h-75l-111 152h109z" />
    <glyph glyph-name="Aacute" unicode="&#xc1;" horiz-adv-x="626" 
d="M607 0h-104l-51 158h-278l-51 -158h-104l237 700h114zM313 583l-110 -337h220zM350 779h-74l77 152h109z" />
    <glyph glyph-name="Acircumflex" unicode="&#xc2;" horiz-adv-x="626" 
d="M607 0h-104l-51 158h-278l-51 -158h-104l237 700h114zM313 583l-110 -337h220zM246 779h-71l99 152h77l99 -152h-70l-67 80z" />
    <glyph glyph-name="Atilde" unicode="&#xc3;" horiz-adv-x="626" 
d="M607 0h-104l-51 158h-278l-51 -158h-104l237 700h114zM313 583l-110 -337h220zM167 831q9 37 31.5 56.5t55.5 19.5q22 0 36.5 -5.5t34.5 -16.5q13 -8 21 -11.5t17 -3.5q15 0 25 9t16 27l54 -22q-9 -37 -31.5 -56.5t-56.5 -19.5q-21 0 -36 5.5t-33 16.5q-10 6 -20.5 10.5
t-19.5 4.5q-29 0 -40 -35z" />
    <glyph glyph-name="Adieresis" unicode="&#xc4;" horiz-adv-x="626" 
d="M607 0h-104l-51 158h-278l-51 -158h-104l237 700h114zM313 583l-110 -337h220zM171 807.5q-18 18.5 -18 43.5q0 26 18 44t44 18t44 -18t18 -44t-18 -44t-44 -18t-44 18.5zM367.5 807.5q-18.5 18.5 -18.5 43.5t18.5 43.5t43.5 18.5q26 0 44 -18t18 -44t-18 -44t-44 -18
q-25 0 -43.5 18.5z" />
    <glyph glyph-name="Aring" unicode="&#xc5;" horiz-adv-x="626" 
d="M607 0h-104l-51 158h-278l-51 -158h-104l237 700h114zM313 583l-110 -337h220zM245 792.5q-27 28.5 -27 72.5v3q0 43 27 71.5t68 28.5t68 -28.5t27 -71.5v-3q0 -44 -27 -72.5t-68 -28.5t-68 28.5zM341 831q11 13 11 33v4q0 20 -11 33t-28 13t-28 -13t-11 -33v-4
q0 -20 11 -33t28 -13t28 13z" />
    <glyph glyph-name="AE" unicode="&#xc6;" horiz-adv-x="897" 
d="M506 316v-224h335v-92h-435v163h-205l-69 -163h-113l308 700h512v-92h-333v-203h278v-89h-278zM391 608l-152 -357h167v357h-15z" />
    <glyph glyph-name="Ccedilla" unicode="&#xc7;" horiz-adv-x="650" 
d="M350 -14l-10 -38q18 8 34 8q37 0 59.5 -21.5t22.5 -60.5q0 -42 -28.5 -66t-74.5 -24q-45 0 -78 16l22 52q23 -15 53 -15q45 0 45 37q0 15 -10 25t-26 10q-10 0 -19.5 -3.5t-15.5 -8.5l-42 19l16 74q-74 12 -129.5 57t-86 117t-30.5 162v48q0 101 37.5 178t105.5 119.5
t156 42.5q92 0 155.5 -44t97.5 -125l-80 -44q-55 121 -172 121q-60 0 -105 -31t-69.5 -86.5t-24.5 -127.5v-54q0 -72 24.5 -127.5t69.5 -86.5t105 -31q117 0 172 121l81 -44q-37 -81 -100 -125t-154 -44h-1z" />
    <glyph glyph-name="Egrave" unicode="&#xc8;" horiz-adv-x="575" 
d="M519 0h-435v700h432v-92h-332v-203h278v-89h-278v-224h335v-92zM339 779h-75l-111 152h109z" />
    <glyph glyph-name="Eacute" unicode="&#xc9;" horiz-adv-x="575" 
d="M519 0h-435v700h432v-92h-332v-203h278v-89h-278v-224h335v-92zM339 779h-74l77 152h109z" />
    <glyph glyph-name="Ecircumflex" unicode="&#xca;" horiz-adv-x="575" 
d="M519 0h-435v700h432v-92h-332v-203h278v-89h-278v-224h335v-92zM235 779h-71l99 152h77l99 -152h-70l-67 80z" />
    <glyph glyph-name="Edieresis" unicode="&#xcb;" horiz-adv-x="575" 
d="M519 0h-435v700h432v-92h-332v-203h278v-89h-278v-224h335v-92zM160 807.5q-18 18.5 -18 43.5q0 26 18 44t44 18t44 -18t18 -44t-18 -44t-44 -18t-44 18.5zM356.5 807.5q-18.5 18.5 -18.5 43.5t18.5 43.5t43.5 18.5q26 0 44 -18t18 -44t-18 -44t-44 -18q-25 0 -43.5 18.5
z" />
    <glyph glyph-name="Igrave" unicode="&#xcc;" horiz-adv-x="268" 
d="M184 0h-100v700h100v-700zM171 779h-75l-111 152h109z" />
    <glyph glyph-name="Iacute" unicode="&#xcd;" horiz-adv-x="268" 
d="M184 0h-100v700h100v-700zM171 779h-74l77 152h109z" />
    <glyph glyph-name="Icircumflex" unicode="&#xce;" horiz-adv-x="268" 
d="M184 0h-100v700h100v-700zM67 779h-71l99 152h77l99 -152h-70l-67 80z" />
    <glyph glyph-name="Idieresis" unicode="&#xcf;" horiz-adv-x="268" 
d="M184 0h-100v700h100v-700zM-8 807.5q-18 18.5 -18 43.5q0 26 18 44t44 18t44 -18t18 -44t-18 -44t-44 -18t-44 18.5zM188.5 807.5q-18.5 18.5 -18.5 43.5t18.5 43.5t43.5 18.5q26 0 44 -18t18 -44t-18 -44t-44 -18q-25 0 -43.5 18.5z" />
    <glyph glyph-name="Eth" unicode="&#xd0;" horiz-adv-x="597" 
d="M275 700q92 0 162.5 -40t109 -113.5t38.5 -171.5v-50q0 -98 -38.5 -171.5t-109 -113.5t-162.5 -40h-191v305h-80v90h80v305h191zM483 375q0 109 -56.5 171t-154.5 62h-88v-213h144v-90h-144v-213h88q98 0 154.5 62t56.5 171v50z" />
    <glyph glyph-name="Ntilde" unicode="&#xd1;" horiz-adv-x="670" 
d="M180 0h-96v700h106l300 -520v520h96v-700h-91l-315 546v-546zM189 831q9 37 31.5 56.5t55.5 19.5q22 0 36.5 -5.5t34.5 -16.5q13 -8 21 -11.5t17 -3.5q15 0 25 9t16 27l54 -22q-9 -37 -31.5 -56.5t-56.5 -19.5q-21 0 -36 5.5t-33 16.5q-10 6 -20.5 10.5t-19.5 4.5
q-29 0 -40 -35z" />
    <glyph glyph-name="Ograve" unicode="&#xd2;" horiz-adv-x="692" 
d="M190.5 28.5q-66.5 42.5 -102.5 119.5t-36 178v48q0 101 36 178t102.5 119.5t155.5 42.5t155.5 -42.5t102.5 -119.5t36 -178v-48q0 -101 -36 -178t-102.5 -119.5t-155.5 -42.5t-155.5 42.5zM488 144q50 66 50 179v54q0 113 -50 179t-142 66t-142 -66t-50 -179v-54
q0 -113 50 -179t142 -66t142 66zM382 779h-75l-111 152h109z" />
    <glyph glyph-name="Oacute" unicode="&#xd3;" horiz-adv-x="692" 
d="M190.5 28.5q-66.5 42.5 -102.5 119.5t-36 178v48q0 101 36 178t102.5 119.5t155.5 42.5t155.5 -42.5t102.5 -119.5t36 -178v-48q0 -101 -36 -178t-102.5 -119.5t-155.5 -42.5t-155.5 42.5zM488 144q50 66 50 179v54q0 113 -50 179t-142 66t-142 -66t-50 -179v-54
q0 -113 50 -179t142 -66t142 66zM382 779h-74l77 152h109z" />
    <glyph glyph-name="Ocircumflex" unicode="&#xd4;" horiz-adv-x="692" 
d="M190.5 28.5q-66.5 42.5 -102.5 119.5t-36 178v48q0 101 36 178t102.5 119.5t155.5 42.5t155.5 -42.5t102.5 -119.5t36 -178v-48q0 -101 -36 -178t-102.5 -119.5t-155.5 -42.5t-155.5 42.5zM488 144q50 66 50 179v54q0 113 -50 179t-142 66t-142 -66t-50 -179v-54
q0 -113 50 -179t142 -66t142 66zM278 779h-71l99 152h77l99 -152h-70l-67 80z" />
    <glyph glyph-name="Otilde" unicode="&#xd5;" horiz-adv-x="692" 
d="M190.5 28.5q-66.5 42.5 -102.5 119.5t-36 178v48q0 101 36 178t102.5 119.5t155.5 42.5t155.5 -42.5t102.5 -119.5t36 -178v-48q0 -101 -36 -178t-102.5 -119.5t-155.5 -42.5t-155.5 42.5zM488 144q50 66 50 179v54q0 113 -50 179t-142 66t-142 -66t-50 -179v-54
q0 -113 50 -179t142 -66t142 66zM199 831q9 37 31.5 56.5t55.5 19.5q22 0 36.5 -5.5t34.5 -16.5q13 -8 21 -11.5t17 -3.5q15 0 25 9t16 27l54 -22q-9 -37 -31.5 -56.5t-56.5 -19.5q-21 0 -36 5.5t-33 16.5q-10 6 -20.5 10.5t-19.5 4.5q-29 0 -40 -35z" />
    <glyph glyph-name="Odieresis" unicode="&#xd6;" horiz-adv-x="692" 
d="M190.5 28.5q-66.5 42.5 -102.5 119.5t-36 178v48q0 101 36 178t102.5 119.5t155.5 42.5t155.5 -42.5t102.5 -119.5t36 -178v-48q0 -101 -36 -178t-102.5 -119.5t-155.5 -42.5t-155.5 42.5zM488 144q50 66 50 179v54q0 113 -50 179t-142 66t-142 -66t-50 -179v-54
q0 -113 50 -179t142 -66t142 66zM203 807.5q-18 18.5 -18 43.5q0 26 18 44t44 18t44 -18t18 -44t-18 -44t-44 -18t-44 18.5zM399.5 807.5q-18.5 18.5 -18.5 43.5t18.5 43.5t43.5 18.5q26 0 44 -18t18 -44t-18 -44t-44 -18q-25 0 -43.5 18.5z" />
    <glyph glyph-name="multiply" unicode="&#xd7;" horiz-adv-x="457" 
d="M369 514l60 -60l-141 -141l141 -141l-59 -59l-141 141l-141 -142l-60 61l141 141l-141 141l59 59l141 -141z" />
    <glyph glyph-name="Oslash" unicode="&#xd8;" horiz-adv-x="692" 
d="M526 654q55 -44 84.5 -116.5t29.5 -163.5v-48q0 -101 -36 -178t-102.5 -119.5t-155.5 -42.5q-57 0 -105 18l-37 -84h-93l55 126q-55 44 -84.5 116.5t-29.5 163.5v48q0 101 36 178t102.5 119.5t155.5 42.5q58 0 106 -18l37 84h93zM154 323q0 -118 54 -183l206 470
q-30 12 -68 12q-92 0 -142 -66t-50 -179v-54zM538 377q0 117 -53 182l-207 -470q33 -11 68 -11q92 0 142 66t50 179v54z" />
    <glyph glyph-name="Ugrave" unicode="&#xd9;" horiz-adv-x="634" 
d="M184 20.5q-55 34.5 -82.5 94.5t-27.5 138v447h100v-453q0 -76 38.5 -122t105.5 -46q66 0 104 46t38 122v453h100v-447q0 -119 -62.5 -193t-179.5 -74q-79 0 -134 34.5zM355 779h-75l-111 152h109z" />
    <glyph glyph-name="Uacute" unicode="&#xda;" horiz-adv-x="634" 
d="M184 20.5q-55 34.5 -82.5 94.5t-27.5 138v447h100v-453q0 -76 38.5 -122t105.5 -46q66 0 104 46t38 122v453h100v-447q0 -119 -62.5 -193t-179.5 -74q-79 0 -134 34.5zM355 779h-74l77 152h109z" />
    <glyph glyph-name="Ucircumflex" unicode="&#xdb;" horiz-adv-x="634" 
d="M184 20.5q-55 34.5 -82.5 94.5t-27.5 138v447h100v-453q0 -76 38.5 -122t105.5 -46q66 0 104 46t38 122v453h100v-447q0 -119 -62.5 -193t-179.5 -74q-79 0 -134 34.5zM251 779h-71l99 152h77l99 -152h-70l-67 80z" />
    <glyph glyph-name="Udieresis" unicode="&#xdc;" horiz-adv-x="634" 
d="M184 20.5q-55 34.5 -82.5 94.5t-27.5 138v447h100v-453q0 -76 38.5 -122t105.5 -46q66 0 104 46t38 122v453h100v-447q0 -119 -62.5 -193t-179.5 -74q-79 0 -134 34.5zM176 807.5q-18 18.5 -18 43.5q0 26 18 44t44 18t44 -18t18 -44t-18 -44t-44 -18t-44 18.5z
M372.5 807.5q-18.5 18.5 -18.5 43.5t18.5 43.5t43.5 18.5q26 0 44 -18t18 -44t-18 -44t-44 -18q-25 0 -43.5 18.5z" />
    <glyph glyph-name="Yacute" unicode="&#xdd;" horiz-adv-x="566" 
d="M333 0h-99v287l-218 413h110l157 -309l158 309h109l-217 -413v-287zM320 779h-74l77 152h109z" />
    <glyph glyph-name="Thorn" unicode="&#xde;" horiz-adv-x="564" 
d="M84 0v700h100v-157h134q93 0 147.5 -50t54.5 -143t-54.5 -143t-147.5 -50h-134v-157h-100zM311 245q53 0 81 26t28 79t-28 79t-81 26h-127v-210h127z" />
    <glyph glyph-name="germandbls" unicode="&#xdf;" horiz-adv-x="554" 
d="M222 4v90q36 -19 81 -19q50 0 79 33t29 92v11q0 63 -36.5 97.5t-94.5 34.5h-23v80h22q45 0 71.5 28t26.5 75v4q0 47 -28 73.5t-74 26.5q-48 0 -77 -31.5t-29 -90.5v-508h-91v508q0 96 53 150t143 54q87 0 139 -48t52 -127v-4q0 -51 -24.5 -88t-61.5 -55q55 -18 89 -64
t34 -119v-13q0 -96 -52 -151t-136 -55q-49 0 -92 16z" />
    <glyph glyph-name="agrave" unicode="&#xe0;" horiz-adv-x="528" 
d="M93.5 27.5q-41.5 39.5 -41.5 104.5v3q0 67 44.5 105.5t119.5 53.5l129 25v14q0 44 -26.5 71t-73.5 27q-84 0 -113 -85l-76 30q19 60 69 96t120 36q90 0 139.5 -47.5t49.5 -126.5v-223q0 -21 10 -33.5t30 -12.5q16 0 32 8v-73q-25 -12 -60 -12q-40 0 -65 23.5t-29 62.5
q-45 -86 -151 -86q-66 0 -107.5 39.5zM312 106q33 41 33 115v31l-115 -23q-87 -19 -87 -90v-1q0 -32 21.5 -52.5t56.5 -20.5q58 0 91 41zM286 575h-75l-111 152h109z" />
    <glyph glyph-name="aacute" unicode="&#xe1;" horiz-adv-x="528" 
d="M93.5 27.5q-41.5 39.5 -41.5 104.5v3q0 67 44.5 105.5t119.5 53.5l129 25v14q0 44 -26.5 71t-73.5 27q-84 0 -113 -85l-76 30q19 60 69 96t120 36q90 0 139.5 -47.5t49.5 -126.5v-223q0 -21 10 -33.5t30 -12.5q16 0 32 8v-73q-25 -12 -60 -12q-40 0 -65 23.5t-29 62.5
q-45 -86 -151 -86q-66 0 -107.5 39.5zM312 106q33 41 33 115v31l-115 -23q-87 -19 -87 -90v-1q0 -32 21.5 -52.5t56.5 -20.5q58 0 91 41zM286 575h-74l77 152h109z" />
    <glyph glyph-name="acircumflex" unicode="&#xe2;" horiz-adv-x="528" 
d="M93.5 27.5q-41.5 39.5 -41.5 104.5v3q0 67 44.5 105.5t119.5 53.5l129 25v14q0 44 -26.5 71t-73.5 27q-84 0 -113 -85l-76 30q19 60 69 96t120 36q90 0 139.5 -47.5t49.5 -126.5v-223q0 -21 10 -33.5t30 -12.5q16 0 32 8v-73q-25 -12 -60 -12q-40 0 -65 23.5t-29 62.5
q-45 -86 -151 -86q-66 0 -107.5 39.5zM312 106q33 41 33 115v31l-115 -23q-87 -19 -87 -90v-1q0 -32 21.5 -52.5t56.5 -20.5q58 0 91 41zM182 575h-71l99 152h77l99 -152h-70l-67 80z" />
    <glyph glyph-name="atilde" unicode="&#xe3;" horiz-adv-x="528" 
d="M93.5 27.5q-41.5 39.5 -41.5 104.5v3q0 67 44.5 105.5t119.5 53.5l129 25v14q0 44 -26.5 71t-73.5 27q-84 0 -113 -85l-76 30q19 60 69 96t120 36q90 0 139.5 -47.5t49.5 -126.5v-223q0 -21 10 -33.5t30 -12.5q16 0 32 8v-73q-25 -12 -60 -12q-40 0 -65 23.5t-29 62.5
q-45 -86 -151 -86q-66 0 -107.5 39.5zM312 106q33 41 33 115v31l-115 -23q-87 -19 -87 -90v-1q0 -32 21.5 -52.5t56.5 -20.5q58 0 91 41zM103 627q9 37 31.5 56.5t55.5 19.5q22 0 36.5 -5.5t34.5 -16.5q13 -8 21 -11.5t17 -3.5q15 0 25 9t16 27l54 -22q-9 -37 -31.5 -56.5
t-56.5 -19.5q-21 0 -36 5.5t-33 16.5q-10 6 -20.5 10.5t-19.5 4.5q-29 0 -40 -35z" />
    <glyph glyph-name="adieresis" unicode="&#xe4;" horiz-adv-x="528" 
d="M93.5 27.5q-41.5 39.5 -41.5 104.5v3q0 67 44.5 105.5t119.5 53.5l129 25v14q0 44 -26.5 71t-73.5 27q-84 0 -113 -85l-76 30q19 60 69 96t120 36q90 0 139.5 -47.5t49.5 -126.5v-223q0 -21 10 -33.5t30 -12.5q16 0 32 8v-73q-25 -12 -60 -12q-40 0 -65 23.5t-29 62.5
q-45 -86 -151 -86q-66 0 -107.5 39.5zM312 106q33 41 33 115v31l-115 -23q-87 -19 -87 -90v-1q0 -32 21.5 -52.5t56.5 -20.5q58 0 91 41zM107 603.5q-18 18.5 -18 43.5q0 26 18 44t44 18t44 -18t18 -44t-18 -44t-44 -18t-44 18.5zM303.5 603.5q-18.5 18.5 -18.5 43.5
t18.5 43.5t43.5 18.5q26 0 44 -18t18 -44t-18 -44t-44 -18q-25 0 -43.5 18.5z" />
    <glyph glyph-name="aring" unicode="&#xe5;" horiz-adv-x="528" 
d="M93.5 27.5q-41.5 39.5 -41.5 104.5v3q0 67 44.5 105.5t119.5 53.5l129 25v14q0 44 -26.5 71t-73.5 27q-84 0 -113 -85l-76 30q19 60 69 96t120 36q90 0 139.5 -47.5t49.5 -126.5v-223q0 -21 10 -33.5t30 -12.5q16 0 32 8v-73q-25 -12 -60 -12q-40 0 -65 23.5t-29 62.5
q-45 -86 -151 -86q-66 0 -107.5 39.5zM312 106q33 41 33 115v31l-115 -23q-87 -19 -87 -90v-1q0 -32 21.5 -52.5t56.5 -20.5q58 0 91 41zM181 588.5q-27 28.5 -27 72.5v3q0 43 27 71.5t68 28.5t68 -28.5t27 -71.5v-3q0 -44 -27 -72.5t-68 -28.5t-68 28.5zM277 627
q11 13 11 33v4q0 20 -11 33t-28 13t-28 -13t-11 -33v-4q0 -20 11 -33t28 -13t28 13z" />
    <glyph glyph-name="ae" unicode="&#xe6;" horiz-adv-x="837" 
d="M785 230h-348q0 -73 37 -117.5t96 -44.5q46 0 75.5 22.5t46.5 64.5l81 -30q-53 -137 -203 -137q-62 0 -111 28.5t-78 80.5q-25 -52 -68 -80.5t-109 -28.5t-109 39.5t-43 104.5q0 71 46.5 109t123.5 45l123 10v36q0 44 -26.5 71.5t-73.5 27.5q-84 0 -113 -85l-76 30
q19 60 69 96t120 36q56 0 97 -19t64 -54q30 35 72 54t92 19q61 0 110 -28t77 -82t28 -130v-38zM480.5 393.5q-34.5 -35.5 -41.5 -95.5h256q-5 60 -39.5 95.5t-85.5 35.5q-55 0 -89.5 -35.5zM345 227l-112 -9q-90 -8 -90 -80q0 -32 21.5 -52.5t57.5 -20.5q59 0 91 39.5
t32 109.5v13z" />
    <glyph glyph-name="ccedilla" unicode="&#xe7;" horiz-adv-x="521" 
d="M269 -12l-10 -40q18 8 34 8q37 0 59.5 -21.5t22.5 -60.5q0 -42 -28.5 -66t-74.5 -24q-45 0 -78 16l22 52q23 -15 53 -15q45 0 45 37q0 15 -10 25t-26 10q-10 0 -19.5 -3.5t-15.5 -8.5l-42 19l17 80q-75 20 -120.5 84.5t-45.5 154.5v26q0 71 29 127.5t80.5 88t117.5 31.5
q76 0 127 -37t73 -105l-80 -36q-15 43 -45.5 67t-74.5 24q-60 0 -96.5 -43.5t-36.5 -114.5v-30q0 -71 36.5 -114.5t96.5 -43.5q44 0 74.5 24.5t46.5 67.5l81 -36q-26 -68 -76.5 -105.5t-125.5 -37.5h-10z" />
    <glyph glyph-name="egrave" unicode="&#xe8;" horiz-adv-x="544" 
d="M492 230h-348q0 -73 37 -117.5t96 -44.5q46 0 75.5 22.5t46.5 64.5l82 -31q-55 -136 -204 -136q-66 0 -117 31.5t-79.5 88t-28.5 127.5v26q0 72 29 128t80.5 87.5t116.5 31.5q61 0 109.5 -28t76.5 -82t28 -130v-38zM188.5 393.5q-34.5 -35.5 -42.5 -95.5h256
q-4 60 -38.5 95.5t-85.5 35.5q-55 0 -89.5 -35.5zM314 575h-75l-111 152h109z" />
    <glyph glyph-name="eacute" unicode="&#xe9;" horiz-adv-x="544" 
d="M492 230h-348q0 -73 37 -117.5t96 -44.5q46 0 75.5 22.5t46.5 64.5l82 -31q-55 -136 -204 -136q-66 0 -117 31.5t-79.5 88t-28.5 127.5v26q0 72 29 128t80.5 87.5t116.5 31.5q61 0 109.5 -28t76.5 -82t28 -130v-38zM188.5 393.5q-34.5 -35.5 -42.5 -95.5h256
q-4 60 -38.5 95.5t-85.5 35.5q-55 0 -89.5 -35.5zM314 575h-74l77 152h109z" />
    <glyph glyph-name="ecircumflex" unicode="&#xea;" horiz-adv-x="544" 
d="M492 230h-348q0 -73 37 -117.5t96 -44.5q46 0 75.5 22.5t46.5 64.5l82 -31q-55 -136 -204 -136q-66 0 -117 31.5t-79.5 88t-28.5 127.5v26q0 72 29 128t80.5 87.5t116.5 31.5q61 0 109.5 -28t76.5 -82t28 -130v-38zM188.5 393.5q-34.5 -35.5 -42.5 -95.5h256
q-4 60 -38.5 95.5t-85.5 35.5q-55 0 -89.5 -35.5zM210 575h-71l99 152h77l99 -152h-70l-67 80z" />
    <glyph glyph-name="edieresis" unicode="&#xeb;" horiz-adv-x="544" 
d="M492 230h-348q0 -73 37 -117.5t96 -44.5q46 0 75.5 22.5t46.5 64.5l82 -31q-55 -136 -204 -136q-66 0 -117 31.5t-79.5 88t-28.5 127.5v26q0 72 29 128t80.5 87.5t116.5 31.5q61 0 109.5 -28t76.5 -82t28 -130v-38zM188.5 393.5q-34.5 -35.5 -42.5 -95.5h256
q-4 60 -38.5 95.5t-85.5 35.5q-55 0 -89.5 -35.5zM135 603.5q-18 18.5 -18 43.5q0 26 18 44t44 18t44 -18t18 -44t-18 -44t-44 -18t-44 18.5zM331.5 603.5q-18.5 18.5 -18.5 43.5t18.5 43.5t43.5 18.5q26 0 44 -18t18 -44t-18 -44t-44 -18q-25 0 -43.5 18.5z" />
    <glyph glyph-name="igrave" unicode="&#xec;" horiz-adv-x="247" 
d="M169 0h-91v496h91v-496zM160 575h-75l-111 152h109z" />
    <glyph glyph-name="iacute" unicode="&#xed;" horiz-adv-x="247" 
d="M169 0h-91v496h91v-496zM160 575h-74l77 152h109z" />
    <glyph glyph-name="icircumflex" unicode="&#xee;" horiz-adv-x="247" 
d="M169 0h-91v496h91v-496zM56 575h-71l99 152h77l99 -152h-70l-67 80z" />
    <glyph glyph-name="idieresis" unicode="&#xef;" horiz-adv-x="247" 
d="M169 0h-91v496h91v-496zM-19 603.5q-18 18.5 -18 43.5q0 26 18 44t44 18t44 -18t18 -44t-18 -44t-44 -18t-44 18.5zM177.5 603.5q-18.5 18.5 -18.5 43.5t18.5 43.5t43.5 18.5q26 0 44 -18t18 -44t-18 -44t-44 -18q-25 0 -43.5 18.5z" />
    <glyph glyph-name="eth" unicode="&#xf0;" horiz-adv-x="542" 
d="M407 475q43 -62 63 -114t20 -119v-10q0 -78 -29.5 -133t-79.5 -83t-109 -28q-62 0 -112.5 30t-79 84t-28.5 124v9q0 71 27.5 124.5t74.5 82.5t105 29q43 0 70 -21l-74 101l-82 -54l-33 56l77 51l-70 96h102l35 -50l81 54l34 -57l-77 -51zM401 236q0 73 -35 114.5
t-93 41.5t-94.5 -42t-36.5 -114v-11q0 -71 36.5 -113t93.5 -42t93 41.5t36 113.5v11z" />
    <glyph glyph-name="ntilde" unicode="&#xf1;" 
d="M78 0v496h91v-55q15 29 50.5 48t80.5 19q79 0 123.5 -48.5t44.5 -131.5v-328h-91v311q0 52 -28.5 82.5t-75.5 30.5t-75.5 -30.5t-28.5 -82.5v-311h-91zM126 627q9 37 31.5 56.5t55.5 19.5q22 0 36.5 -5.5t34.5 -16.5q13 -8 21 -11.5t17 -3.5q15 0 25 9t16 27l54 -22
q-9 -37 -31.5 -56.5t-56.5 -19.5q-21 0 -36 5.5t-33 16.5q-10 6 -20.5 10.5t-19.5 4.5q-29 0 -40 -35z" />
    <glyph glyph-name="ograve" unicode="&#xf2;" horiz-adv-x="561" 
d="M163 19.5q-52 31.5 -81.5 88t-29.5 127.5v26q0 71 29.5 127.5t81.5 88t118 31.5t118 -31.5t81 -88t29 -127.5v-26q0 -71 -29 -127.5t-81 -88t-118 -31.5t-118 31.5zM378.5 118.5q36.5 43.5 36.5 115.5v28q0 72 -36.5 115.5t-97.5 43.5q-62 0 -98.5 -43.5t-36.5 -115.5
v-28q0 -72 36.5 -115.5t98.5 -43.5q61 0 97.5 43.5zM318 575h-75l-111 152h109z" />
    <glyph glyph-name="oacute" unicode="&#xf3;" horiz-adv-x="561" 
d="M163 19.5q-52 31.5 -81.5 88t-29.5 127.5v26q0 71 29.5 127.5t81.5 88t118 31.5t118 -31.5t81 -88t29 -127.5v-26q0 -71 -29 -127.5t-81 -88t-118 -31.5t-118 31.5zM378.5 118.5q36.5 43.5 36.5 115.5v28q0 72 -36.5 115.5t-97.5 43.5q-62 0 -98.5 -43.5t-36.5 -115.5
v-28q0 -72 36.5 -115.5t98.5 -43.5q61 0 97.5 43.5zM318 575h-74l77 152h109z" />
    <glyph glyph-name="ocircumflex" unicode="&#xf4;" horiz-adv-x="561" 
d="M163 19.5q-52 31.5 -81.5 88t-29.5 127.5v26q0 71 29.5 127.5t81.5 88t118 31.5t118 -31.5t81 -88t29 -127.5v-26q0 -71 -29 -127.5t-81 -88t-118 -31.5t-118 31.5zM378.5 118.5q36.5 43.5 36.5 115.5v28q0 72 -36.5 115.5t-97.5 43.5q-62 0 -98.5 -43.5t-36.5 -115.5
v-28q0 -72 36.5 -115.5t98.5 -43.5q61 0 97.5 43.5zM214 575h-71l99 152h77l99 -152h-70l-67 80z" />
    <glyph glyph-name="otilde" unicode="&#xf5;" horiz-adv-x="561" 
d="M163 19.5q-52 31.5 -81.5 88t-29.5 127.5v26q0 71 29.5 127.5t81.5 88t118 31.5t118 -31.5t81 -88t29 -127.5v-26q0 -71 -29 -127.5t-81 -88t-118 -31.5t-118 31.5zM378.5 118.5q36.5 43.5 36.5 115.5v28q0 72 -36.5 115.5t-97.5 43.5q-62 0 -98.5 -43.5t-36.5 -115.5
v-28q0 -72 36.5 -115.5t98.5 -43.5q61 0 97.5 43.5zM135 627q9 37 31.5 56.5t55.5 19.5q22 0 36.5 -5.5t34.5 -16.5q13 -8 21 -11.5t17 -3.5q15 0 25 9t16 27l54 -22q-9 -37 -31.5 -56.5t-56.5 -19.5q-21 0 -36 5.5t-33 16.5q-10 6 -20.5 10.5t-19.5 4.5q-29 0 -40 -35z" />
    <glyph glyph-name="odieresis" unicode="&#xf6;" horiz-adv-x="561" 
d="M163 19.5q-52 31.5 -81.5 88t-29.5 127.5v26q0 71 29.5 127.5t81.5 88t118 31.5t118 -31.5t81 -88t29 -127.5v-26q0 -71 -29 -127.5t-81 -88t-118 -31.5t-118 31.5zM378.5 118.5q36.5 43.5 36.5 115.5v28q0 72 -36.5 115.5t-97.5 43.5q-62 0 -98.5 -43.5t-36.5 -115.5
v-28q0 -72 36.5 -115.5t98.5 -43.5q61 0 97.5 43.5zM139 603.5q-18 18.5 -18 43.5q0 26 18 44t44 18t44 -18t18 -44t-18 -44t-44 -18t-44 18.5zM335.5 603.5q-18.5 18.5 -18.5 43.5t18.5 43.5t43.5 18.5q26 0 44 -18t18 -44t-18 -44t-44 -18q-25 0 -43.5 18.5z" />
    <glyph glyph-name="divide" unicode="&#xf7;" horiz-adv-x="457" 
d="M429 272h-401v83h401v-83zM181.5 92.5q-19.5 19.5 -19.5 47.5q0 27 19.5 46.5t47.5 19.5q27 0 46.5 -19.5t19.5 -46.5q0 -28 -19.5 -47.5t-46.5 -19.5q-28 0 -47.5 19.5zM181.5 440.5q-19.5 19.5 -19.5 47.5q0 27 19.5 46.5t47.5 19.5q27 0 46.5 -19.5t19.5 -46.5
q0 -28 -19.5 -47.5t-46.5 -19.5q-28 0 -47.5 19.5z" />
    <glyph glyph-name="oslash" unicode="&#xf8;" horiz-adv-x="561" 
d="M422 460q41 -34 64 -85t23 -114v-26q0 -71 -29 -127.5t-81 -88t-118 -31.5q-41 0 -75 12l-32 -68h-84l49 104q-41 34 -64 85t-23 114v26q0 71 29.5 127.5t81.5 88t118 31.5q41 0 75 -12l32 68h83zM143 234q0 -72 35 -116l142 302q-20 5 -39 5q-63 0 -100.5 -44.5
t-37.5 -118.5v-28zM418 262q0 72 -35 115l-141 -301q20 -5 39 -5q63 0 100 44.5t37 118.5v28z" />
    <glyph glyph-name="ugrave" unicode="&#xf9;" 
d="M122 36.5q-44 48.5 -44 132.5v327h91v-311q0 -53 28.5 -83t75.5 -30t75.5 31t28.5 82v311h91v-496h-91v55q-16 -29 -51 -48t-80 -19q-80 0 -124 48.5zM310 575h-75l-111 152h109z" />
    <glyph glyph-name="uacute" unicode="&#xfa;" 
d="M122 36.5q-44 48.5 -44 132.5v327h91v-311q0 -53 28.5 -83t75.5 -30t75.5 31t28.5 82v311h91v-496h-91v55q-16 -29 -51 -48t-80 -19q-80 0 -124 48.5zM310 575h-74l77 152h109z" />
    <glyph glyph-name="ucircumflex" unicode="&#xfb;" 
d="M122 36.5q-44 48.5 -44 132.5v327h91v-311q0 -53 28.5 -83t75.5 -30t75.5 31t28.5 82v311h91v-496h-91v55q-16 -29 -51 -48t-80 -19q-80 0 -124 48.5zM206 575h-71l99 152h77l99 -152h-70l-67 80z" />
    <glyph glyph-name="udieresis" unicode="&#xfc;" 
d="M122 36.5q-44 48.5 -44 132.5v327h91v-311q0 -53 28.5 -83t75.5 -30t75.5 31t28.5 82v311h91v-496h-91v55q-16 -29 -51 -48t-80 -19q-80 0 -124 48.5zM131 603.5q-18 18.5 -18 43.5q0 26 18 44t44 18t44 -18t18 -44t-18 -44t-44 -18t-44 18.5zM327.5 603.5
q-18.5 18.5 -18.5 43.5t18.5 43.5t43.5 18.5q26 0 44 -18t18 -44t-18 -44t-44 -18q-25 0 -43.5 18.5z" />
    <glyph glyph-name="yacute" unicode="&#xfd;" horiz-adv-x="496" 
d="M376 496h98l-208 -573q-27 -72 -66 -103.5t-104 -31.5q-41 0 -69 13v91q34 -19 71 -19q33 0 54 20t36 63l17 50l-188 490h101l130 -367zM284 575h-74l77 152h109z" />
    <glyph glyph-name="thorn" unicode="&#xfe;" horiz-adv-x="569" 
d="M78 -203v903h91v-268q20 34 57.5 55t85.5 21q59 0 105.5 -30.5t73 -86.5t26.5 -130v-26q0 -74 -26.5 -130t-73 -86.5t-105.5 -30.5q-49 0 -86 19t-57 50v-260h-91zM387 118q36 43 36 116v28q0 73 -36 116t-93 43q-58 0 -93.5 -43t-35.5 -116v-28q0 -73 35.5 -116
t93.5 -43q57 0 93 43z" />
    <glyph glyph-name="ydieresis" unicode="&#xff;" horiz-adv-x="496" 
d="M376 496h98l-208 -573q-27 -72 -66 -103.5t-104 -31.5q-41 0 -69 13v91q34 -19 71 -19q33 0 54 20t36 63l17 50l-188 490h101l130 -367zM105 603.5q-18 18.5 -18 43.5q0 26 18 44t44 18t44 -18t18 -44t-18 -44t-44 -18t-44 18.5zM301.5 603.5q-18.5 18.5 -18.5 43.5
t18.5 43.5t43.5 18.5q26 0 44 -18t18 -44t-18 -44t-44 -18q-25 0 -43.5 18.5z" />
    <glyph glyph-name="Amacron" unicode="&#x100;" horiz-adv-x="626" 
d="M607 0h-104l-51 158h-278l-51 -158h-104l237 700h114zM313 583l-110 -337h220zM428 820h-229v71h229v-71z" />
    <glyph glyph-name="amacron" unicode="&#x101;" horiz-adv-x="528" 
d="M93.5 27.5q-41.5 39.5 -41.5 104.5v3q0 67 44.5 105.5t119.5 53.5l129 25v14q0 44 -26.5 71t-73.5 27q-84 0 -113 -85l-76 30q19 60 69 96t120 36q90 0 139.5 -47.5t49.5 -126.5v-223q0 -21 10 -33.5t30 -12.5q16 0 32 8v-73q-25 -12 -60 -12q-40 0 -65 23.5t-29 62.5
q-45 -86 -151 -86q-66 0 -107.5 39.5zM312 106q33 41 33 115v31l-115 -23q-87 -19 -87 -90v-1q0 -32 21.5 -52.5t56.5 -20.5q58 0 91 41zM364 616h-229v71h229v-71z" />
    <glyph glyph-name="Abreve" unicode="&#x102;" horiz-adv-x="626" 
d="M607 0h-104l-51 158h-278l-51 -158h-104l237 700h114zM313 583l-110 -337h220zM234.5 807.5q-28.5 32.5 -28.5 80.5h65q0 -25 10.5 -39.5t31.5 -14.5t31.5 14.5t10.5 39.5h65q0 -48 -28.5 -80.5t-78.5 -32.5t-78.5 32.5z" />
    <glyph glyph-name="abreve" unicode="&#x103;" horiz-adv-x="528" 
d="M93.5 27.5q-41.5 39.5 -41.5 104.5v3q0 67 44.5 105.5t119.5 53.5l129 25v14q0 44 -26.5 71t-73.5 27q-84 0 -113 -85l-76 30q19 60 69 96t120 36q90 0 139.5 -47.5t49.5 -126.5v-223q0 -21 10 -33.5t30 -12.5q16 0 32 8v-73q-25 -12 -60 -12q-40 0 -65 23.5t-29 62.5
q-45 -86 -151 -86q-66 0 -107.5 39.5zM312 106q33 41 33 115v31l-115 -23q-87 -19 -87 -90v-1q0 -32 21.5 -52.5t56.5 -20.5q58 0 91 41zM170.5 603.5q-28.5 32.5 -28.5 80.5h65q0 -25 10.5 -39.5t31.5 -14.5t31.5 14.5t10.5 39.5h65q0 -48 -28.5 -80.5t-78.5 -32.5
t-78.5 32.5z" />
    <glyph glyph-name="Aogonek" unicode="&#x104;" horiz-adv-x="626" 
d="M617 -130v-62q-22 -11 -50 -11q-41 0 -68 24t-27 71q0 33 14.5 61t37.5 47h-21l-51 158h-278l-51 -158h-104l237 700h114l237 -700q-30 -18 -48 -43.5t-18 -53.5q0 -19 11 -30t29 -11t36 8zM313 583l-110 -337h220z" />
    <glyph glyph-name="aogonek" unicode="&#x105;" horiz-adv-x="528" 
d="M516 -130v-62q-22 -11 -50 -11q-41 0 -68 24t-27 71q0 57 43 100q-26 8 -42.5 29.5t-19.5 52.5q-45 -86 -151 -86q-66 0 -107.5 39.5t-41.5 104.5v3q0 67 44.5 105.5t119.5 53.5l129 25v14q0 44 -26.5 71t-73.5 27q-84 0 -113 -85l-76 30q19 60 69 96t120 36
q90 0 139.5 -47.5t49.5 -126.5v-223q0 -21 10 -33.5t30 -12.5q16 0 32 8v-73q-30 -18 -48 -43.5t-18 -53.5q0 -19 11 -30t29 -11t36 8zM345 252l-115 -23q-87 -19 -87 -90v-1q0 -32 21.5 -52.5t56.5 -20.5q58 0 91 41t33 115v31z" />
    <glyph glyph-name="Cacute" unicode="&#x106;" horiz-adv-x="650" 
d="M195 28.5q-68 42.5 -105.5 119.5t-37.5 178v48q0 101 37.5 178t105.5 119.5t156 42.5q92 0 155.5 -44t97.5 -125l-80 -44q-55 121 -172 121q-60 0 -105 -31t-69.5 -86.5t-24.5 -127.5v-54q0 -72 24.5 -127.5t69.5 -86.5t105 -31q117 0 172 121l81 -44q-37 -81 -100 -125
t-154 -44q-88 0 -156 42.5zM389 779h-74l77 152h109z" />
    <glyph glyph-name="cacute" unicode="&#x107;" horiz-adv-x="521" 
d="M161.5 19.5q-51.5 31.5 -80.5 88t-29 127.5v26q0 71 29 127.5t80.5 88t117.5 31.5q76 0 127 -37t73 -105l-80 -36q-15 43 -45.5 67t-74.5 24q-60 0 -96.5 -43.5t-36.5 -114.5v-30q0 -71 36.5 -114.5t96.5 -43.5q44 0 74.5 24.5t46.5 67.5l81 -36q-26 -68 -76.5 -105.5
t-125.5 -37.5q-66 0 -117.5 31.5zM316 575h-74l77 152h109z" />
    <glyph glyph-name="Ccircumflex" unicode="&#x108;" horiz-adv-x="650" 
d="M195 28.5q-68 42.5 -105.5 119.5t-37.5 178v48q0 101 37.5 178t105.5 119.5t156 42.5q92 0 155.5 -44t97.5 -125l-80 -44q-55 121 -172 121q-60 0 -105 -31t-69.5 -86.5t-24.5 -127.5v-54q0 -72 24.5 -127.5t69.5 -86.5t105 -31q117 0 172 121l81 -44q-37 -81 -100 -125
t-154 -44q-88 0 -156 42.5zM285 779h-71l99 152h77l99 -152h-70l-67 80z" />
    <glyph glyph-name="ccircumflex" unicode="&#x109;" horiz-adv-x="521" 
d="M161.5 19.5q-51.5 31.5 -80.5 88t-29 127.5v26q0 71 29 127.5t80.5 88t117.5 31.5q76 0 127 -37t73 -105l-80 -36q-15 43 -45.5 67t-74.5 24q-60 0 -96.5 -43.5t-36.5 -114.5v-30q0 -71 36.5 -114.5t96.5 -43.5q44 0 74.5 24.5t46.5 67.5l81 -36q-26 -68 -76.5 -105.5
t-125.5 -37.5q-66 0 -117.5 31.5zM212 575h-71l99 152h77l99 -152h-70l-67 80z" />
    <glyph glyph-name="Cdotaccent" unicode="&#x10a;" horiz-adv-x="650" 
d="M195 28.5q-68 42.5 -105.5 119.5t-37.5 178v48q0 101 37.5 178t105.5 119.5t156 42.5q92 0 155.5 -44t97.5 -125l-80 -44q-55 121 -172 121q-60 0 -105 -31t-69.5 -86.5t-24.5 -127.5v-54q0 -72 24.5 -127.5t69.5 -86.5t105 -31q117 0 172 121l81 -44q-37 -81 -100 -125
t-154 -44q-88 0 -156 42.5zM306.5 805q-19.5 19 -19.5 46t19.5 46t45.5 19q28 0 46.5 -19t18.5 -46t-18.5 -46t-46.5 -19q-26 0 -45.5 19z" />
    <glyph glyph-name="cdotaccent" unicode="&#x10b;" horiz-adv-x="521" 
d="M161.5 19.5q-51.5 31.5 -80.5 88t-29 127.5v26q0 71 29 127.5t80.5 88t117.5 31.5q76 0 127 -37t73 -105l-80 -36q-15 43 -45.5 67t-74.5 24q-60 0 -96.5 -43.5t-36.5 -114.5v-30q0 -71 36.5 -114.5t96.5 -43.5q44 0 74.5 24.5t46.5 67.5l81 -36q-26 -68 -76.5 -105.5
t-125.5 -37.5q-66 0 -117.5 31.5zM233.5 601q-19.5 19 -19.5 46t19.5 46t45.5 19q28 0 46.5 -19t18.5 -46t-18.5 -46t-46.5 -19q-26 0 -45.5 19z" />
    <glyph glyph-name="Ccaron" unicode="&#x10c;" horiz-adv-x="650" 
d="M195 28.5q-68 42.5 -105.5 119.5t-37.5 178v48q0 101 37.5 178t105.5 119.5t156 42.5q92 0 155.5 -44t97.5 -125l-80 -44q-55 121 -172 121q-60 0 -105 -31t-69.5 -86.5t-24.5 -127.5v-54q0 -72 24.5 -127.5t69.5 -86.5t105 -31q117 0 172 121l81 -44q-37 -81 -100 -125
t-154 -44q-88 0 -156 42.5zM390 779h-77l-99 152h71l67 -79l67 79h70z" />
    <glyph glyph-name="ccaron" unicode="&#x10d;" horiz-adv-x="521" 
d="M161.5 19.5q-51.5 31.5 -80.5 88t-29 127.5v26q0 71 29 127.5t80.5 88t117.5 31.5q76 0 127 -37t73 -105l-80 -36q-15 43 -45.5 67t-74.5 24q-60 0 -96.5 -43.5t-36.5 -114.5v-30q0 -71 36.5 -114.5t96.5 -43.5q44 0 74.5 24.5t46.5 67.5l81 -36q-26 -68 -76.5 -105.5
t-125.5 -37.5q-66 0 -117.5 31.5zM317 575h-77l-99 152h71l67 -79l67 79h70z" />
    <glyph glyph-name="Dcaron" unicode="&#x10e;" horiz-adv-x="637" 
d="M84 0v700h191q92 0 162.5 -40t109 -113.5t38.5 -171.5v-50q0 -98 -38.5 -171.5t-109 -113.5t-162.5 -40h-191zM272 92q98 0 154.5 62t56.5 171v50q0 109 -56.5 171t-154.5 62h-88v-516h88zM321 779h-77l-99 152h71l67 -79l67 79h70z" />
    <glyph glyph-name="dcaron" unicode="&#x10f;" horiz-adv-x="686" 
d="M150.5 18.5q-46.5 30.5 -72.5 86t-26 130.5v26q0 75 26 130.5t73 86t109 30.5q48 0 84 -19t56 -49v260h91v-700h-91v63q-45 -75 -142 -75q-61 0 -107.5 30.5zM369.5 117.5q34.5 42.5 34.5 116.5v28q0 74 -34.5 116.5t-94.5 42.5t-94.5 -42.5t-34.5 -116.5v-28
q0 -74 34.5 -116.5t94.5 -42.5t94.5 42.5zM596 474l-25 17l26 48q18 32 21 48q-22 4 -37.5 20.5t-15.5 39.5q0 26 17.5 43.5t43.5 17.5q27 0 43.5 -17.5t16.5 -46.5t-12 -54.5t-38 -61.5z" />
    <glyph glyph-name="Dcroat" unicode="&#x110;" horiz-adv-x="597" 
d="M275 700q92 0 162.5 -40t109 -113.5t38.5 -171.5v-50q0 -98 -38.5 -171.5t-109 -113.5t-162.5 -40h-191v305h-80v90h80v305h191zM483 375q0 109 -56.5 171t-154.5 62h-88v-213h144v-90h-144v-213h88q98 0 154.5 62t56.5 171v50z" />
    <glyph glyph-name="dcroat" unicode="&#x111;" horiz-adv-x="569" 
d="M562 644v-68h-71v-576h-91v63q-45 -75 -142 -75q-61 0 -107.5 30.5t-72.5 86t-26 130.5v26q0 75 26 130.5t73 86t109 30.5q48 0 84 -19t56 -49v136h-147v68h147v56h91v-56h71zM404 262q0 74 -34.5 116.5t-94.5 42.5t-94.5 -42.5t-34.5 -116.5v-28q0 -74 34.5 -116.5
t94.5 -42.5t94.5 42.5t34.5 116.5v28z" />
    <glyph glyph-name="Emacron" unicode="&#x112;" horiz-adv-x="575" 
d="M519 0h-435v700h432v-92h-332v-203h278v-89h-278v-224h335v-92zM417 820h-229v71h229v-71z" />
    <glyph glyph-name="emacron" unicode="&#x113;" horiz-adv-x="544" 
d="M492 230h-348q0 -73 37 -117.5t96 -44.5q46 0 75.5 22.5t46.5 64.5l82 -31q-55 -136 -204 -136q-66 0 -117 31.5t-79.5 88t-28.5 127.5v26q0 72 29 128t80.5 87.5t116.5 31.5q61 0 109.5 -28t76.5 -82t28 -130v-38zM188.5 393.5q-34.5 -35.5 -42.5 -95.5h256
q-4 60 -38.5 95.5t-85.5 35.5q-55 0 -89.5 -35.5zM392 616h-229v71h229v-71z" />
    <glyph glyph-name="Ebreve" unicode="&#x114;" horiz-adv-x="575" 
d="M519 0h-435v700h432v-92h-332v-203h278v-89h-278v-224h335v-92zM223.5 807.5q-28.5 32.5 -28.5 80.5h65q0 -25 10.5 -39.5t31.5 -14.5t31.5 14.5t10.5 39.5h65q0 -48 -28.5 -80.5t-78.5 -32.5t-78.5 32.5z" />
    <glyph glyph-name="ebreve" unicode="&#x115;" horiz-adv-x="544" 
d="M492 230h-348q0 -73 37 -117.5t96 -44.5q46 0 75.5 22.5t46.5 64.5l82 -31q-55 -136 -204 -136q-66 0 -117 31.5t-79.5 88t-28.5 127.5v26q0 72 29 128t80.5 87.5t116.5 31.5q61 0 109.5 -28t76.5 -82t28 -130v-38zM188.5 393.5q-34.5 -35.5 -42.5 -95.5h256
q-4 60 -38.5 95.5t-85.5 35.5q-55 0 -89.5 -35.5zM198.5 603.5q-28.5 32.5 -28.5 80.5h65q0 -25 10.5 -39.5t31.5 -14.5t31.5 14.5t10.5 39.5h65q0 -48 -28.5 -80.5t-78.5 -32.5t-78.5 32.5z" />
    <glyph glyph-name="Edotaccent" unicode="&#x116;" horiz-adv-x="575" 
d="M519 0h-435v700h432v-92h-332v-203h278v-89h-278v-224h335v-92zM256.5 805q-19.5 19 -19.5 46t19.5 46t45.5 19q28 0 46.5 -19t18.5 -46t-18.5 -46t-46.5 -19q-26 0 -45.5 19z" />
    <glyph glyph-name="edotaccent" unicode="&#x117;" horiz-adv-x="544" 
d="M492 230h-348q0 -73 37 -117.5t96 -44.5q46 0 75.5 22.5t46.5 64.5l82 -31q-55 -136 -204 -136q-66 0 -117 31.5t-79.5 88t-28.5 127.5v26q0 72 29 128t80.5 87.5t116.5 31.5q61 0 109.5 -28t76.5 -82t28 -130v-38zM188.5 393.5q-34.5 -35.5 -42.5 -95.5h256
q-4 60 -38.5 95.5t-85.5 35.5q-55 0 -89.5 -35.5zM231.5 601q-19.5 19 -19.5 46t19.5 46t45.5 19q28 0 46.5 -19t18.5 -46t-18.5 -46t-46.5 -19q-26 0 -45.5 19z" />
    <glyph glyph-name="Eogonek" unicode="&#x118;" horiz-adv-x="575" 
d="M529 -130v-62q-22 -11 -50 -11q-41 0 -68 24t-27 71q0 33 14.5 61t37.5 47h-352v700h432v-92h-332v-203h278v-89h-278v-224h335v-92q-30 -18 -48 -43.5t-18 -53.5q0 -19 11 -30t29 -11t36 8z" />
    <glyph glyph-name="eogonek" unicode="&#x119;" horiz-adv-x="544" 
d="M492 230h-348q0 -73 37 -117.5t96 -44.5q46 0 75.5 22.5t46.5 64.5l82 -31q-38 -95 -124 -124q-30 -18 -48 -43.5t-18 -53.5q0 -19 11 -30t29 -11t36 8v-62q-22 -11 -50 -11q-41 0 -68 24t-27 71q0 55 39 96q-61 4 -108.5 36.5t-74 87.5t-26.5 123v26q0 72 29 128
t80.5 87.5t116.5 31.5q61 0 109.5 -28t76.5 -82t28 -130v-38zM188.5 393.5q-34.5 -35.5 -42.5 -95.5h256q-4 60 -38.5 95.5t-85.5 35.5q-55 0 -89.5 -35.5z" />
    <glyph glyph-name="Ecaron" unicode="&#x11a;" horiz-adv-x="575" 
d="M519 0h-435v700h432v-92h-332v-203h278v-89h-278v-224h335v-92zM340 779h-77l-99 152h71l67 -79l67 79h70z" />
    <glyph glyph-name="ecaron" unicode="&#x11b;" horiz-adv-x="544" 
d="M492 230h-348q0 -73 37 -117.5t96 -44.5q46 0 75.5 22.5t46.5 64.5l82 -31q-55 -136 -204 -136q-66 0 -117 31.5t-79.5 88t-28.5 127.5v26q0 72 29 128t80.5 87.5t116.5 31.5q61 0 109.5 -28t76.5 -82t28 -130v-38zM188.5 393.5q-34.5 -35.5 -42.5 -95.5h256
q-4 60 -38.5 95.5t-85.5 35.5q-55 0 -89.5 -35.5zM315 575h-77l-99 152h71l67 -79l67 79h70z" />
    <glyph glyph-name="Gcircumflex" unicode="&#x11c;" horiz-adv-x="667" 
d="M195 28.5q-68 42.5 -105.5 119.5t-37.5 178v48q0 101 37.5 178t105.5 119.5t156 42.5q92 0 156 -44t97 -125l-80 -44q-55 121 -172 121q-60 0 -105 -31t-69.5 -86.5t-24.5 -127.5v-54q0 -72 24.5 -127.5t70 -86.5t106.5 -31q95 0 155 77v124h-171v85h269v-247
q-47 -62 -108.5 -96.5t-146.5 -34.5q-89 0 -157 42.5zM284 779h-71l99 152h77l99 -152h-70l-67 80z" />
    <glyph glyph-name="gcircumflex" unicode="&#x11d;" horiz-adv-x="569" 
d="M141 -181q-54 35 -78 93l80 43q37 -86 130 -86q61 0 94 40t33 107v66q-21 -34 -57 -54.5t-87 -20.5q-59 0 -105.5 29.5t-72.5 84t-26 126.5v21q0 72 26.5 126.5t73 84t105.5 29.5q49 0 85.5 -19.5t57.5 -51.5v59h91v-478q0 -108 -58 -171t-160 -63q-78 0 -132 35z
M369.5 135q34.5 42 34.5 112v21q0 70 -34.5 112t-94.5 42t-94.5 -42t-34.5 -112v-21q0 -70 34.5 -112t94.5 -42t94.5 42zM209 575h-71l99 152h77l99 -152h-70l-67 80z" />
    <glyph glyph-name="Gbreve" unicode="&#x11e;" horiz-adv-x="667" 
d="M195 28.5q-68 42.5 -105.5 119.5t-37.5 178v48q0 101 37.5 178t105.5 119.5t156 42.5q92 0 156 -44t97 -125l-80 -44q-55 121 -172 121q-60 0 -105 -31t-69.5 -86.5t-24.5 -127.5v-54q0 -72 24.5 -127.5t70 -86.5t106.5 -31q95 0 155 77v124h-171v85h269v-247
q-47 -62 -108.5 -96.5t-146.5 -34.5q-89 0 -157 42.5zM272.5 807.5q-28.5 32.5 -28.5 80.5h65q0 -25 10.5 -39.5t31.5 -14.5t31.5 14.5t10.5 39.5h65q0 -48 -28.5 -80.5t-78.5 -32.5t-78.5 32.5z" />
    <glyph glyph-name="gbreve" unicode="&#x11f;" horiz-adv-x="569" 
d="M141 -181q-54 35 -78 93l80 43q37 -86 130 -86q61 0 94 40t33 107v66q-21 -34 -57 -54.5t-87 -20.5q-59 0 -105.5 29.5t-72.5 84t-26 126.5v21q0 72 26.5 126.5t73 84t105.5 29.5q49 0 85.5 -19.5t57.5 -51.5v59h91v-478q0 -108 -58 -171t-160 -63q-78 0 -132 35z
M369.5 135q34.5 42 34.5 112v21q0 70 -34.5 112t-94.5 42t-94.5 -42t-34.5 -112v-21q0 -70 34.5 -112t94.5 -42t94.5 42zM197.5 603.5q-28.5 32.5 -28.5 80.5h65q0 -25 10.5 -39.5t31.5 -14.5t31.5 14.5t10.5 39.5h65q0 -48 -28.5 -80.5t-78.5 -32.5t-78.5 32.5z" />
    <glyph glyph-name="Gdotaccent" unicode="&#x120;" horiz-adv-x="667" 
d="M195 28.5q-68 42.5 -105.5 119.5t-37.5 178v48q0 101 37.5 178t105.5 119.5t156 42.5q92 0 156 -44t97 -125l-80 -44q-55 121 -172 121q-60 0 -105 -31t-69.5 -86.5t-24.5 -127.5v-54q0 -72 24.5 -127.5t70 -86.5t106.5 -31q95 0 155 77v124h-171v85h269v-247
q-47 -62 -108.5 -96.5t-146.5 -34.5q-89 0 -157 42.5zM305.5 805q-19.5 19 -19.5 46t19.5 46t45.5 19q28 0 46.5 -19t18.5 -46t-18.5 -46t-46.5 -19q-26 0 -45.5 19z" />
    <glyph glyph-name="gdotaccent" unicode="&#x121;" horiz-adv-x="569" 
d="M141 -181q-54 35 -78 93l80 43q37 -86 130 -86q61 0 94 40t33 107v66q-21 -34 -57 -54.5t-87 -20.5q-59 0 -105.5 29.5t-72.5 84t-26 126.5v21q0 72 26.5 126.5t73 84t105.5 29.5q49 0 85.5 -19.5t57.5 -51.5v59h91v-478q0 -108 -58 -171t-160 -63q-78 0 -132 35z
M369.5 135q34.5 42 34.5 112v21q0 70 -34.5 112t-94.5 42t-94.5 -42t-34.5 -112v-21q0 -70 34.5 -112t94.5 -42t94.5 42zM230.5 601q-19.5 19 -19.5 46t19.5 46t45.5 19q28 0 46.5 -19t18.5 -46t-18.5 -46t-46.5 -19q-26 0 -45.5 19z" />
    <glyph glyph-name="uni0122" unicode="&#x122;" horiz-adv-x="667" 
d="M195 28.5q-68 42.5 -105.5 119.5t-37.5 178v48q0 101 37.5 178t105.5 119.5t156 42.5q92 0 156 -44t97 -125l-80 -44q-55 121 -172 121q-60 0 -105 -31t-69.5 -86.5t-24.5 -127.5v-54q0 -72 24.5 -127.5t70 -86.5t106.5 -31q95 0 155 77v124h-171v85h269v-247
q-47 -62 -108.5 -96.5t-146.5 -34.5q-89 0 -157 42.5zM330 -245l-19 13l18 28q13 19 16 39q-19 2 -32 14.5t-13 32.5q0 22 14 37t37 15t37 -15t14 -38q0 -51 -48 -101z" />
    <glyph glyph-name="uni0123" unicode="&#x123;" horiz-adv-x="569" 
d="M141 -181q-54 35 -78 93l80 43q37 -86 130 -86q61 0 94 40t33 107v66q-21 -34 -57 -54.5t-87 -20.5q-59 0 -105.5 29.5t-72.5 84t-26 126.5v21q0 72 26.5 126.5t73 84t105.5 29.5q49 0 85.5 -19.5t57.5 -51.5v59h91v-478q0 -108 -58 -171t-160 -63q-78 0 -132 35z
M369.5 135q34.5 42 34.5 112v21q0 70 -34.5 112t-94.5 42t-94.5 -42t-34.5 -112v-21q0 -70 34.5 -112t94.5 -42t94.5 42zM240 585q-14 16 -14 39q0 50 46 98l26 27l18 -15l-17 -25q-15 -23 -16 -41q18 -2 31.5 -14.5t13.5 -32.5q0 -22 -14 -37t-37 -15t-37 16z" />
    <glyph glyph-name="Hcircumflex" unicode="&#x124;" horiz-adv-x="685" 
d="M184 0h-100v700h100v-285h317v285h100v-700h-100v323h-317v-323zM275 779h-71l99 152h77l99 -152h-70l-67 80z" />
    <glyph glyph-name="hcircumflex" unicode="&#x125;" horiz-adv-x="553" 
d="M78 0v700h91v-259q16 28 52.5 47.5t81.5 19.5q79 0 125.5 -50t46.5 -132v-326h-91v306q0 53 -30 85.5t-77 32.5t-77.5 -33t-30.5 -85v-306h-91zM56 779h-71l99 152h77l99 -152h-70l-67 80z" />
    <glyph glyph-name="Hbar" unicode="&#x126;" horiz-adv-x="685" 
d="M601 611h58v-84h-58v-527h-100v323h-317v-323h-100v527h-58v84h58v89h100v-89h317v89h100v-89zM184 415h317v112h-317v-112z" />
    <glyph glyph-name="hbar" unicode="&#x127;" horiz-adv-x="553" 
d="M428.5 458q46.5 -50 46.5 -132v-326h-91v306q0 53 -30 85.5t-77 32.5t-77.5 -33t-30.5 -85v-306h-91v576h-71v68h71v56h91v-56h147v-68h-147v-135q16 28 52.5 47.5t81.5 19.5q79 0 125.5 -50z" />
    <glyph glyph-name="Itilde" unicode="&#x128;" horiz-adv-x="268" 
d="M184 0h-100v700h100v-700zM-12 831q9 37 31.5 56.5t55.5 19.5q22 0 36.5 -5.5t34.5 -16.5q13 -8 21 -11.5t17 -3.5q15 0 25 9t16 27l54 -22q-9 -37 -31.5 -56.5t-56.5 -19.5q-21 0 -36 5.5t-33 16.5q-10 6 -20.5 10.5t-19.5 4.5q-29 0 -40 -35z" />
    <glyph glyph-name="itilde" unicode="&#x129;" horiz-adv-x="247" 
d="M169 0h-91v496h91v-496zM-23 627q9 37 31.5 56.5t55.5 19.5q22 0 36.5 -5.5t34.5 -16.5q13 -8 21 -11.5t17 -3.5q15 0 25 9t16 27l54 -22q-9 -37 -31.5 -56.5t-56.5 -19.5q-21 0 -36 5.5t-33 16.5q-10 6 -20.5 10.5t-19.5 4.5q-29 0 -40 -35z" />
    <glyph glyph-name="Imacron" unicode="&#x12a;" horiz-adv-x="268" 
d="M184 0h-100v700h100v-700zM249 820h-229v71h229v-71z" />
    <glyph glyph-name="imacron" unicode="&#x12b;" horiz-adv-x="247" 
d="M169 0h-91v496h91v-496zM238 616h-229v71h229v-71z" />
    <glyph glyph-name="Ibreve" unicode="&#x12c;" horiz-adv-x="268" 
d="M184 0h-100v700h100v-700zM55.5 807.5q-28.5 32.5 -28.5 80.5h65q0 -25 10.5 -39.5t31.5 -14.5t31.5 14.5t10.5 39.5h65q0 -48 -28.5 -80.5t-78.5 -32.5t-78.5 32.5z" />
    <glyph glyph-name="ibreve" unicode="&#x12d;" horiz-adv-x="247" 
d="M169 0h-91v496h91v-496zM44.5 603.5q-28.5 32.5 -28.5 80.5h65q0 -25 10.5 -39.5t31.5 -14.5t31.5 14.5t10.5 39.5h65q0 -48 -28.5 -80.5t-78.5 -32.5t-78.5 32.5z" />
    <glyph glyph-name="Iogonek" unicode="&#x12e;" horiz-adv-x="268" 
d="M194 -130v-62q-22 -11 -50 -11q-41 0 -68 24t-27 71q0 33 14.5 61t37.5 47h-17v700h100v-700q-30 -18 -48 -43.5t-18 -53.5q0 -19 11 -30t29 -11t36 8z" />
    <glyph glyph-name="iogonek" unicode="&#x12f;" horiz-adv-x="247" 
d="M77.5 601q-19.5 19 -19.5 46t19.5 46t45.5 19q28 0 46.5 -19t18.5 -46t-18.5 -46t-46.5 -19q-26 0 -45.5 19zM114 -127q11 -11 29 -11t36 8v-62q-22 -11 -50 -11q-41 0 -68 24t-27 71q0 33 14.5 61t37.5 47h-8v496h91v-496q-30 -18 -48 -43.5t-18 -53.5q0 -19 11 -30z
" />
    <glyph glyph-name="Idotaccent" unicode="&#x130;" horiz-adv-x="268" 
d="M184 0h-100v700h100v-700zM88.5 805q-19.5 19 -19.5 46t19.5 46t45.5 19q28 0 46.5 -19t18.5 -46t-18.5 -46t-46.5 -19q-26 0 -45.5 19z" />
    <glyph glyph-name="dotlessi" unicode="&#x131;" horiz-adv-x="247" 
d="M169 0h-91v496h91v-496z" />
    <glyph glyph-name="IJ" unicode="&#x132;" horiz-adv-x="799" 
d="M184 0h-100v700h100v-700zM382 29q-54 43 -76 117l93 37q13 -50 43.5 -77t76.5 -27q106 0 106 142v479h100v-473q0 -115 -52.5 -178t-155.5 -63q-81 0 -135 43z" />
    <glyph glyph-name="ij" unicode="&#x133;" horiz-adv-x="494" 
d="M77.5 601q-19.5 19 -19.5 46t19.5 46t45.5 19q27 0 46 -19t19 -46t-19 -46t-46 -19q-26 0 -45.5 19zM169 0h-91v496h91v-496zM324.5 601q-19.5 19 -19.5 46t19.5 46t45.5 19q27 0 46 -19t19 -46t-19 -46t-46 -19q-26 0 -45.5 19zM227 -202v85q25 -11 48 -11q24 0 37 16.5
t13 48.5v559h91v-555q0 -76 -32 -114.5t-92 -38.5q-38 0 -65 10z" />
    <glyph glyph-name="Jcircumflex" unicode="&#x134;" horiz-adv-x="531" 
d="M114 29q-54 43 -76 117l93 37q13 -50 43.5 -77t76.5 -27q106 0 106 142v479h100v-473q0 -115 -52.5 -178t-155.5 -63q-81 0 -135 43zM340 779h-71l99 152h77l99 -152h-70l-67 80z" />
    <glyph glyph-name="jcircumflex" unicode="&#x135;" horiz-adv-x="247" 
d="M-20 -202v85q25 -11 48 -11q24 0 37 16.5t13 48.5v559h91v-555q0 -76 -32 -114.5t-92 -38.5q-38 0 -65 10zM56 575h-71l99 152h77l99 -152h-70l-67 80z" />
    <glyph glyph-name="uni0136" unicode="&#x136;" horiz-adv-x="561" 
d="M412 700h115l-228 -350l228 -350h-114l-200 305h-29v-305h-100v700h100v-309h30zM267 -245l-19 13l18 28q13 19 16 39q-19 2 -32 14.5t-13 32.5q0 22 14 37t37 15t37 -15t14 -38q0 -51 -48 -101z" />
    <glyph glyph-name="uni0137" unicode="&#x137;" horiz-adv-x="473" 
d="M334 496h105l-169 -248l169 -248h-105l-145 216h-20v-216h-91v700h91v-420h20zM228 -245l-19 13l18 28q13 19 16 39q-19 2 -32 14.5t-13 32.5q0 22 14 37t37 15t37 -15t14 -38q0 -51 -48 -101z" />
    <glyph glyph-name="kgreenlandic" unicode="&#x138;" horiz-adv-x="474" 
d="M335 496h105l-169 -248l169 -248h-105l-145 216h-21v-216h-91v496h91v-216h21z" />
    <glyph glyph-name="Lacute" unicode="&#x139;" horiz-adv-x="537" 
d="M495 0h-411v700h100v-608h311v-92zM171 779h-74l77 152h109z" />
    <glyph glyph-name="lacute" unicode="&#x13a;" horiz-adv-x="285" 
d="M108.5 24q-30.5 36 -30.5 101v575h91v-573q0 -26 11 -40.5t33 -14.5q19 0 44 11v-84q-27 -11 -62 -11q-56 0 -86.5 36zM160 779h-74l77 152h109z" />
    <glyph glyph-name="uni013B" unicode="&#x13b;" horiz-adv-x="537" 
d="M495 0h-411v700h100v-608h311v-92zM270 -245l-19 13l18 28q13 19 16 39q-19 2 -32 14.5t-13 32.5q0 22 14 37t37 15t37 -15t14 -38q0 -51 -48 -101z" />
    <glyph glyph-name="uni013C" unicode="&#x13c;" horiz-adv-x="285" 
d="M108.5 24q-30.5 36 -30.5 101v575h91v-573q0 -26 11 -40.5t33 -14.5q19 0 44 11v-84q-27 -11 -62 -11q-56 0 -86.5 36zM168 -245l-19 13l18 28q13 19 16 39q-19 2 -32 14.5t-13 32.5q0 22 14 37t37 15t37 -15t14 -38q0 -51 -48 -101z" />
    <glyph glyph-name="Lcaron" unicode="&#x13d;" horiz-adv-x="537" 
d="M495 0h-411v700h100v-608h311v-92zM424 474l-25 17l26 48q18 32 21 48q-22 4 -37.5 20.5t-15.5 39.5q0 26 17.5 43.5t43.5 17.5q27 0 43.5 -17.5t16.5 -46.5t-12 -54.5t-38 -61.5z" />
    <glyph glyph-name="lcaron" unicode="&#x13e;" horiz-adv-x="364" 
d="M108.5 24q-30.5 36 -30.5 101v575h91v-573q0 -26 11 -40.5t33 -14.5q19 0 44 11v-84q-27 -11 -62 -11q-56 0 -86.5 36zM274 474l-25 17l26 48q18 32 21 48q-22 4 -37.5 20.5t-15.5 39.5q0 26 17.5 43.5t43.5 17.5q27 0 43.5 -17.5t16.5 -46.5t-12 -54.5t-38 -61.5z" />
    <glyph glyph-name="Ldot" unicode="&#x13f;" horiz-adv-x="507" 
d="M495 0h-411v700h100v-608h311v-92zM316.5 302.5q-19.5 19.5 -19.5 47.5q0 27 19.5 46.5t47.5 19.5q27 0 46.5 -19.5t19.5 -46.5q0 -28 -19.5 -47.5t-46.5 -19.5q-28 0 -47.5 19.5z" />
    <glyph glyph-name="ldot" unicode="&#x140;" horiz-adv-x="433" 
d="M108.5 24q-30.5 36 -30.5 101v575h91v-573q0 -26 11 -40.5t33 -14.5q19 0 44 11v-84q-27 -11 -62 -11q-56 0 -86.5 36zM292.5 302.5q-19.5 19.5 -19.5 47.5q0 27 19.5 46.5t47.5 19.5q27 0 46.5 -19.5t19.5 -46.5q0 -28 -19.5 -47.5t-46.5 -19.5q-28 0 -47.5 19.5z" />
    <glyph glyph-name="Lslash" unicode="&#x141;" horiz-adv-x="575" 
d="M222 264v-172h311v-92h-411v187l-86 -66v99l86 66v414h100v-337l127 97v-99z" />
    <glyph glyph-name="lslash" unicode="&#x142;" horiz-adv-x="285" 
d="M257 83v-84q-27 -11 -62 -11q-56 0 -86.5 36t-30.5 101v103l-71 -58v94l71 58v378h91v-305l71 58v-94l-71 -58v-174q0 -26 11 -40.5t33 -14.5q19 0 44 11z" />
    <glyph glyph-name="Nacute" unicode="&#x143;" horiz-adv-x="670" 
d="M180 0h-96v700h106l300 -520v520h96v-700h-91l-315 546v-546zM372 779h-74l77 152h109z" />
    <glyph glyph-name="nacute" unicode="&#x144;" 
d="M78 0v496h91v-55q15 29 50.5 48t80.5 19q79 0 123.5 -48.5t44.5 -131.5v-328h-91v311q0 52 -28.5 82.5t-75.5 30.5t-75.5 -30.5t-28.5 -82.5v-311h-91zM309 575h-74l77 152h109z" />
    <glyph glyph-name="uni0145" unicode="&#x145;" horiz-adv-x="670" 
d="M180 0h-96v700h106l300 -520v520h96v-700h-91l-315 546v-546zM314 -245l-19 13l18 28q13 19 16 39q-19 2 -32 14.5t-13 32.5q0 22 14 37t37 15t37 -15t14 -38q0 -51 -48 -101z" />
    <glyph glyph-name="uni0146" unicode="&#x146;" 
d="M78 0v496h91v-55q15 29 50.5 48t80.5 19q79 0 123.5 -48.5t44.5 -131.5v-328h-91v311q0 52 -28.5 82.5t-75.5 30.5t-75.5 -30.5t-28.5 -82.5v-311h-91zM251 -245l-19 13l18 28q13 19 16 39q-19 2 -32 14.5t-13 32.5q0 22 14 37t37 15t37 -15t14 -38q0 -51 -48 -101z" />
    <glyph glyph-name="Ncaron" unicode="&#x147;" horiz-adv-x="670" 
d="M180 0h-96v700h106l300 -520v520h96v-700h-91l-315 546v-546zM373 779h-77l-99 152h71l67 -79l67 79h70z" />
    <glyph glyph-name="ncaron" unicode="&#x148;" 
d="M78 0v496h91v-55q15 29 50.5 48t80.5 19q79 0 123.5 -48.5t44.5 -131.5v-328h-91v311q0 52 -28.5 82.5t-75.5 30.5t-75.5 -30.5t-28.5 -82.5v-311h-91zM310 575h-77l-99 152h71l67 -79l67 79h70z" />
    <glyph glyph-name="Eng" unicode="&#x14a;" horiz-adv-x="670" 
d="M286 -163l55 75q30 -38 76 -38q35 0 54 23.5t19 66.5v46l-310 536v-546h-96v700h106l300 -520v520h96v-731q0 -90 -42 -137.5t-125 -47.5q-82 0 -133 53z" />
    <glyph glyph-name="eng" unicode="&#x14b;" horiz-adv-x="545" 
d="M278 -202v85q25 -11 48 -11q24 0 37 16.5t13 48.5v374q0 53 -28.5 83t-75.5 30t-75 -30.5t-28 -82.5v-311h-91v496h91v-55q15 29 50 48t80 19q79 0 123.5 -48.5t44.5 -131.5v-387q0 -76 -31.5 -114.5t-92.5 -38.5q-38 0 -65 10z" />
    <glyph glyph-name="Omacron" unicode="&#x14c;" horiz-adv-x="692" 
d="M190.5 28.5q-66.5 42.5 -102.5 119.5t-36 178v48q0 101 36 178t102.5 119.5t155.5 42.5t155.5 -42.5t102.5 -119.5t36 -178v-48q0 -101 -36 -178t-102.5 -119.5t-155.5 -42.5t-155.5 42.5zM488 144q50 66 50 179v54q0 113 -50 179t-142 66t-142 -66t-50 -179v-54
q0 -113 50 -179t142 -66t142 66zM460 820h-229v71h229v-71z" />
    <glyph glyph-name="omacron" unicode="&#x14d;" horiz-adv-x="561" 
d="M163 19.5q-52 31.5 -81.5 88t-29.5 127.5v26q0 71 29.5 127.5t81.5 88t118 31.5t118 -31.5t81 -88t29 -127.5v-26q0 -71 -29 -127.5t-81 -88t-118 -31.5t-118 31.5zM378.5 118.5q36.5 43.5 36.5 115.5v28q0 72 -36.5 115.5t-97.5 43.5q-62 0 -98.5 -43.5t-36.5 -115.5
v-28q0 -72 36.5 -115.5t98.5 -43.5q61 0 97.5 43.5zM396 616h-229v71h229v-71z" />
    <glyph glyph-name="Obreve" unicode="&#x14e;" horiz-adv-x="692" 
d="M190.5 28.5q-66.5 42.5 -102.5 119.5t-36 178v48q0 101 36 178t102.5 119.5t155.5 42.5t155.5 -42.5t102.5 -119.5t36 -178v-48q0 -101 -36 -178t-102.5 -119.5t-155.5 -42.5t-155.5 42.5zM488 144q50 66 50 179v54q0 113 -50 179t-142 66t-142 -66t-50 -179v-54
q0 -113 50 -179t142 -66t142 66zM266.5 807.5q-28.5 32.5 -28.5 80.5h65q0 -25 10.5 -39.5t31.5 -14.5t31.5 14.5t10.5 39.5h65q0 -48 -28.5 -80.5t-78.5 -32.5t-78.5 32.5z" />
    <glyph glyph-name="obreve" unicode="&#x14f;" horiz-adv-x="561" 
d="M163 19.5q-52 31.5 -81.5 88t-29.5 127.5v26q0 71 29.5 127.5t81.5 88t118 31.5t118 -31.5t81 -88t29 -127.5v-26q0 -71 -29 -127.5t-81 -88t-118 -31.5t-118 31.5zM378.5 118.5q36.5 43.5 36.5 115.5v28q0 72 -36.5 115.5t-97.5 43.5q-62 0 -98.5 -43.5t-36.5 -115.5
v-28q0 -72 36.5 -115.5t98.5 -43.5q61 0 97.5 43.5zM202.5 603.5q-28.5 32.5 -28.5 80.5h65q0 -25 10.5 -39.5t31.5 -14.5t31.5 14.5t10.5 39.5h65q0 -48 -28.5 -80.5t-78.5 -32.5t-78.5 32.5z" />
    <glyph glyph-name="Ohungarumlaut" unicode="&#x150;" horiz-adv-x="692" 
d="M190.5 28.5q-66.5 42.5 -102.5 119.5t-36 178v48q0 101 36 178t102.5 119.5t155.5 42.5t155.5 -42.5t102.5 -119.5t36 -178v-48q0 -101 -36 -178t-102.5 -119.5t-155.5 -42.5t-155.5 42.5zM488 144q50 66 50 179v54q0 113 -50 179t-142 66t-142 -66t-50 -179v-54
q0 -113 50 -179t142 -66t142 66zM290 779h-67l50 152h99zM467 779h-67l50 152h99z" />
    <glyph glyph-name="ohungarumlaut" unicode="&#x151;" horiz-adv-x="561" 
d="M163 19.5q-52 31.5 -81.5 88t-29.5 127.5v26q0 71 29.5 127.5t81.5 88t118 31.5t118 -31.5t81 -88t29 -127.5v-26q0 -71 -29 -127.5t-81 -88t-118 -31.5t-118 31.5zM378.5 118.5q36.5 43.5 36.5 115.5v28q0 72 -36.5 115.5t-97.5 43.5q-62 0 -98.5 -43.5t-36.5 -115.5
v-28q0 -72 36.5 -115.5t98.5 -43.5q61 0 97.5 43.5zM226 575h-67l50 152h99zM403 575h-67l50 152h99z" />
    <glyph glyph-name="OE" unicode="&#x152;" horiz-adv-x="1029" 
d="M191 28.5q-66 42.5 -102.5 120t-36.5 177.5v48q0 100 36.5 177.5t102.5 120t151 42.5q63 0 113.5 -27t82.5 -78v91h433v-92h-333v-203h278v-89h-278v-224h335v-92h-435v91q-32 -51 -82.5 -78t-113.5 -27q-85 0 -151 42.5zM488 144q50 66 50 179v54q0 113 -50 179t-142 66
t-142 -66t-50 -179v-54q0 -113 50 -179t142 -66t142 66z" />
    <glyph glyph-name="oe" unicode="&#x153;" horiz-adv-x="907" 
d="M855 230h-348q0 -73 37 -117.5t96 -44.5q46 0 75.5 22.5t46.5 64.5l82 -30q-54 -137 -204 -137q-57 0 -103.5 24t-76.5 67q-30 -43 -76.5 -67t-102.5 -24q-66 0 -118 31.5t-81.5 88t-29.5 127.5v26q0 71 29.5 127.5t81.5 88t118 31.5q56 0 103 -24.5t77 -67.5
q30 44 76.5 68t103.5 24q61 0 109.5 -28t76.5 -82t28 -130v-38zM551.5 393.5q-34.5 -35.5 -42.5 -95.5h256q-4 60 -38.5 95.5t-85.5 35.5q-55 0 -89.5 -35.5zM415 262q0 72 -36.5 115.5t-97.5 43.5q-62 0 -98.5 -43.5t-36.5 -115.5v-28q0 -72 36.5 -115.5t98.5 -43.5
q61 0 97.5 43.5t36.5 115.5v28z" />
    <glyph glyph-name="Racute" unicode="&#x154;" horiz-adv-x="593" 
d="M84 0v700h250q89 0 142 -49.5t53 -135.5q0 -61 -31 -101t-78 -57q34 -9 52 -35t26 -77l36 -245h-100l-33 238q-6 43 -23 59.5t-53 16.5h-141v-314h-100zM321 401q51 0 79.5 27.5t28.5 78.5t-28.5 78t-79.5 27h-137v-211h137zM336 779h-74l77 152h109z" />
    <glyph glyph-name="racute" unicode="&#x155;" horiz-adv-x="388" 
d="M78 0v496h91v-60q14 32 47 52t75 20q29 0 51 -8v-88q-30 12 -63 12q-49 0 -79.5 -35t-30.5 -92v-297h-91zM257 575h-74l77 152h109z" />
    <glyph glyph-name="uni0156" unicode="&#x156;" horiz-adv-x="593" 
d="M84 0v700h250q89 0 142 -49.5t53 -135.5q0 -61 -31 -101t-78 -57q34 -9 52 -35t26 -77l36 -245h-100l-33 238q-6 43 -23 59.5t-53 16.5h-141v-314h-100zM321 401q51 0 79.5 27.5t28.5 78.5t-28.5 78t-79.5 27h-137v-211h137zM280 -245l-19 13l18 28q13 19 16 39
q-19 2 -32 14.5t-13 32.5q0 22 14 37t37 15t37 -15t14 -38q0 -51 -48 -101z" />
    <glyph glyph-name="uni0157" unicode="&#x157;" horiz-adv-x="388" 
d="M78 0v496h91v-60q14 32 47 52t75 20q29 0 51 -8v-88q-30 12 -63 12q-49 0 -79.5 -35t-30.5 -92v-297h-91zM102 -245l-19 13l18 28q13 19 16 39q-19 2 -32 14.5t-13 32.5q0 22 14 37t37 15t37 -15t14 -38q0 -51 -48 -101z" />
    <glyph glyph-name="Rcaron" unicode="&#x158;" horiz-adv-x="593" 
d="M84 0v700h250q89 0 142 -49.5t53 -135.5q0 -61 -31 -101t-78 -57q34 -9 52 -35t26 -77l36 -245h-100l-33 238q-6 43 -23 59.5t-53 16.5h-141v-314h-100zM321 401q51 0 79.5 27.5t28.5 78.5t-28.5 78t-79.5 27h-137v-211h137zM337 779h-77l-99 152h71l67 -79l67 79h70z
" />
    <glyph glyph-name="rcaron" unicode="&#x159;" horiz-adv-x="388" 
d="M78 0v496h91v-60q14 32 47 52t75 20q29 0 51 -8v-88q-30 12 -63 12q-49 0 -79.5 -35t-30.5 -92v-297h-91zM258 575h-77l-99 152h71l67 -79l67 79h70z" />
    <glyph glyph-name="Sacute" unicode="&#x15a;" horiz-adv-x="567" 
d="M128.5 35q-62.5 49 -85.5 129l89 40q40 -126 154 -126q59 0 95 30t36 80v3q0 49 -37 79.5t-118 53.5q-196 56 -196 206v3q0 53 29 94.5t78 64t108 22.5q86 0 139.5 -38t81.5 -110l-82 -43q-20 47 -56 73.5t-82 26.5q-53 0 -86 -25t-33 -66v-1q0 -44 36.5 -72.5
t117.5 -52.5q96 -28 147.5 -77.5t51.5 -132.5v-4q0 -62 -29.5 -108.5t-81.5 -72t-119 -25.5q-95 0 -157.5 49zM320 779h-74l77 152h109z" />
    <glyph glyph-name="sacute" unicode="&#x15b;" horiz-adv-x="459" 
d="M113.5 21q-48.5 35 -66.5 92l78 38q13 -39 41 -62t65 -23q39 0 64.5 18t25.5 50q0 33 -25.5 52t-84.5 33q-69 16 -108.5 55.5t-39.5 96.5q0 40 22.5 71t61 48.5t84.5 17.5q65 0 108.5 -29t62.5 -81l-70 -35q-13 33 -40.5 52t-61.5 19q-37 0 -61 -17.5t-24 -44.5
q0 -29 26 -49t86 -34q76 -17 114.5 -53t38.5 -99q0 -45 -23.5 -79t-65 -53t-91.5 -19q-68 0 -116.5 35zM265 575h-74l77 152h109z" />
    <glyph glyph-name="Scircumflex" unicode="&#x15c;" horiz-adv-x="567" 
d="M128.5 35q-62.5 49 -85.5 129l89 40q40 -126 154 -126q59 0 95 30t36 80v3q0 49 -37 79.5t-118 53.5q-196 56 -196 206v3q0 53 29 94.5t78 64t108 22.5q86 0 139.5 -38t81.5 -110l-82 -43q-20 47 -56 73.5t-82 26.5q-53 0 -86 -25t-33 -66v-1q0 -44 36.5 -72.5
t117.5 -52.5q96 -28 147.5 -77.5t51.5 -132.5v-4q0 -62 -29.5 -108.5t-81.5 -72t-119 -25.5q-95 0 -157.5 49zM216 779h-71l99 152h77l99 -152h-70l-67 80z" />
    <glyph glyph-name="scircumflex" unicode="&#x15d;" horiz-adv-x="459" 
d="M113.5 21q-48.5 35 -66.5 92l78 38q13 -39 41 -62t65 -23q39 0 64.5 18t25.5 50q0 33 -25.5 52t-84.5 33q-69 16 -108.5 55.5t-39.5 96.5q0 40 22.5 71t61 48.5t84.5 17.5q65 0 108.5 -29t62.5 -81l-70 -35q-13 33 -40.5 52t-61.5 19q-37 0 -61 -17.5t-24 -44.5
q0 -29 26 -49t86 -34q76 -17 114.5 -53t38.5 -99q0 -45 -23.5 -79t-65 -53t-91.5 -19q-68 0 -116.5 35zM161 575h-71l99 152h77l99 -152h-70l-67 80z" />
    <glyph glyph-name="Scedilla" unicode="&#x15e;" horiz-adv-x="567" 
d="M464.5 328.5q51.5 -49.5 51.5 -132.5v-4q0 -62 -29.5 -108.5t-81.5 -72t-119 -25.5h-4l-10 -38q18 8 34 8q37 0 59.5 -21.5t22.5 -60.5q0 -42 -28.5 -66t-74.5 -24q-45 0 -78 16l22 52q23 -15 53 -15q45 0 45 37q0 15 -10 25t-26 10q-10 0 -19.5 -3.5t-15.5 -8.5l-42 19
l16 75q-72 14 -119.5 60t-67.5 113l89 40q40 -126 154 -126q59 0 95 30t36 80v3q0 49 -37 79.5t-118 53.5q-196 56 -196 206v3q0 53 29 94.5t78 64t108 22.5q86 0 139.5 -38t81.5 -110l-82 -43q-20 47 -56 73.5t-82 26.5q-53 0 -86 -25t-33 -66v-1q0 -44 36.5 -72.5
t117.5 -52.5q96 -28 147.5 -77.5z" />
    <glyph glyph-name="scedilla" unicode="&#x15f;" horiz-adv-x="459" 
d="M220 -52q18 8 34 8q37 0 59.5 -21.5t22.5 -60.5q0 -42 -28.5 -66t-74.5 -24q-45 0 -78 16l22 52q23 -15 53 -15q45 0 45 37q0 15 -10 25t-26 10q-10 0 -19.5 -3.5t-15.5 -8.5l-42 19l17 76q-49 12 -83.5 44t-48.5 77l78 38q13 -39 41 -62t65 -23q39 0 64.5 18t25.5 50
q0 33 -25.5 52t-84.5 33q-69 16 -108.5 55.5t-39.5 96.5q0 40 22.5 71t61 48.5t84.5 17.5q65 0 108.5 -29t62.5 -81l-70 -35q-13 33 -40.5 52t-61.5 19q-37 0 -61 -17.5t-24 -44.5q0 -29 26 -49t86 -34q76 -17 114.5 -53t38.5 -99q0 -45 -23.5 -79t-65 -53t-91.5 -19z" />
    <glyph glyph-name="Scaron" unicode="&#x160;" horiz-adv-x="567" 
d="M128.5 35q-62.5 49 -85.5 129l89 40q40 -126 154 -126q59 0 95 30t36 80v3q0 49 -37 79.5t-118 53.5q-196 56 -196 206v3q0 53 29 94.5t78 64t108 22.5q86 0 139.5 -38t81.5 -110l-82 -43q-20 47 -56 73.5t-82 26.5q-53 0 -86 -25t-33 -66v-1q0 -44 36.5 -72.5
t117.5 -52.5q96 -28 147.5 -77.5t51.5 -132.5v-4q0 -62 -29.5 -108.5t-81.5 -72t-119 -25.5q-95 0 -157.5 49zM321 779h-77l-99 152h71l67 -79l67 79h70z" />
    <glyph glyph-name="scaron" unicode="&#x161;" horiz-adv-x="459" 
d="M113.5 21q-48.5 35 -66.5 92l78 38q13 -39 41 -62t65 -23q39 0 64.5 18t25.5 50q0 33 -25.5 52t-84.5 33q-69 16 -108.5 55.5t-39.5 96.5q0 40 22.5 71t61 48.5t84.5 17.5q65 0 108.5 -29t62.5 -81l-70 -35q-13 33 -40.5 52t-61.5 19q-37 0 -61 -17.5t-24 -44.5
q0 -29 26 -49t86 -34q76 -17 114.5 -53t38.5 -99q0 -45 -23.5 -79t-65 -53t-91.5 -19q-68 0 -116.5 35zM266 575h-77l-99 152h71l67 -79l67 79h70z" />
    <glyph glyph-name="uni0162" unicode="&#x162;" horiz-adv-x="535" 
d="M317 0h-37l-13 -52q18 8 34 8q37 0 59.5 -21.5t22.5 -60.5q0 -42 -28.5 -66t-74.5 -24q-45 0 -78 16l22 52q22 -15 53 -15q45 0 45 37q0 15 -10 25t-26 10q-10 0 -19.5 -3.5t-15.5 -8.5l-42 19l18 84h-9v608h-189v92h477v-92h-189v-608z" />
    <glyph glyph-name="uni0163" unicode="&#x163;" horiz-adv-x="384" 
d="M338.5 -65.5q22.5 -21.5 22.5 -60.5q0 -42 -28.5 -66t-74.5 -24q-45 0 -78 16l22 52q23 -15 53 -15q45 0 45 37q0 15 -10 25t-26 10q-10 0 -19.5 -3.5t-15.5 -8.5l-42 19l17 80q-82 27 -82 143v278h-94v79h94v95l91 42v-137h134v-79h-134v-276q0 -33 15.5 -51t47.5 -18
q34 0 71 18v-85q-39 -17 -90 -17h-2l-10 -40q18 8 34 8q37 0 59.5 -21.5z" />
    <glyph glyph-name="Tcaron" unicode="&#x164;" horiz-adv-x="535" 
d="M506 700v-92h-189v-608h-99v608h-189v92h477zM305 779h-77l-99 152h71l67 -79l67 79h70z" />
    <glyph glyph-name="tcaron" unicode="&#x165;" horiz-adv-x="384" 
d="M347 417h-134v-276q0 -33 15.5 -51t47.5 -18q34 0 71 18v-85q-39 -17 -90 -17q-67 0 -101 39t-34 112v278h-94v79h94v95l91 42v-137h134v-79zM308 530l-25 17l26 48q18 32 21 48q-22 4 -37.5 20.5t-15.5 39.5q0 26 17.5 43.5t43.5 17.5q27 0 43.5 -17.5t16.5 -46.5
t-12 -54.5t-38 -61.5z" />
    <glyph glyph-name="Tbar" unicode="&#x166;" horiz-adv-x="515" 
d="M506 700v-92h-189v-219h118v-84h-118v-305h-99v305h-118v84h118v219h-189v92h477z" />
    <glyph glyph-name="tbar" unicode="&#x167;" horiz-adv-x="384" 
d="M347 417h-134v-135h108v-67h-108v-74q0 -33 15.5 -51t47.5 -18q34 0 71 18v-85q-39 -17 -90 -17q-67 0 -101 39t-34 112v76h-78v67h78v135h-94v79h94v95l91 42v-137h134v-79z" />
    <glyph glyph-name="Utilde" unicode="&#x168;" horiz-adv-x="634" 
d="M184 20.5q-55 34.5 -82.5 94.5t-27.5 138v447h100v-453q0 -76 38.5 -122t105.5 -46q66 0 104 46t38 122v453h100v-447q0 -119 -62.5 -193t-179.5 -74q-79 0 -134 34.5zM172 831q9 37 31.5 56.5t55.5 19.5q22 0 36.5 -5.5t34.5 -16.5q13 -8 21 -11.5t17 -3.5q15 0 25 9
t16 27l54 -22q-9 -37 -31.5 -56.5t-56.5 -19.5q-21 0 -36 5.5t-33 16.5q-10 6 -20.5 10.5t-19.5 4.5q-29 0 -40 -35z" />
    <glyph glyph-name="utilde" unicode="&#x169;" 
d="M122 36.5q-44 48.5 -44 132.5v327h91v-311q0 -53 28.5 -83t75.5 -30t75.5 31t28.5 82v311h91v-496h-91v55q-16 -29 -51 -48t-80 -19q-80 0 -124 48.5zM127 627q9 37 31.5 56.5t55.5 19.5q22 0 36.5 -5.5t34.5 -16.5q13 -8 21 -11.5t17 -3.5q15 0 25 9t16 27l54 -22
q-9 -37 -31.5 -56.5t-56.5 -19.5q-21 0 -36 5.5t-33 16.5q-10 6 -20.5 10.5t-19.5 4.5q-29 0 -40 -35z" />
    <glyph glyph-name="Umacron" unicode="&#x16a;" horiz-adv-x="634" 
d="M184 20.5q-55 34.5 -82.5 94.5t-27.5 138v447h100v-453q0 -76 38.5 -122t105.5 -46q66 0 104 46t38 122v453h100v-447q0 -119 -62.5 -193t-179.5 -74q-79 0 -134 34.5zM433 820h-229v71h229v-71z" />
    <glyph glyph-name="umacron" unicode="&#x16b;" 
d="M122 36.5q-44 48.5 -44 132.5v327h91v-311q0 -53 28.5 -83t75.5 -30t75.5 31t28.5 82v311h91v-496h-91v55q-16 -29 -51 -48t-80 -19q-80 0 -124 48.5zM388 616h-229v71h229v-71z" />
    <glyph glyph-name="Ubreve" unicode="&#x16c;" horiz-adv-x="634" 
d="M184 20.5q-55 34.5 -82.5 94.5t-27.5 138v447h100v-453q0 -76 38.5 -122t105.5 -46q66 0 104 46t38 122v453h100v-447q0 -119 -62.5 -193t-179.5 -74q-79 0 -134 34.5zM239.5 807.5q-28.5 32.5 -28.5 80.5h65q0 -25 10.5 -39.5t31.5 -14.5t31.5 14.5t10.5 39.5h65
q0 -48 -28.5 -80.5t-78.5 -32.5t-78.5 32.5z" />
    <glyph glyph-name="ubreve" unicode="&#x16d;" 
d="M122 36.5q-44 48.5 -44 132.5v327h91v-311q0 -53 28.5 -83t75.5 -30t75.5 31t28.5 82v311h91v-496h-91v55q-16 -29 -51 -48t-80 -19q-80 0 -124 48.5zM194.5 603.5q-28.5 32.5 -28.5 80.5h65q0 -25 10.5 -39.5t31.5 -14.5t31.5 14.5t10.5 39.5h65q0 -48 -28.5 -80.5
t-78.5 -32.5t-78.5 32.5z" />
    <glyph glyph-name="Uring" unicode="&#x16e;" horiz-adv-x="634" 
d="M184 20.5q-55 34.5 -82.5 94.5t-27.5 138v447h100v-453q0 -76 38.5 -122t105.5 -46q66 0 104 46t38 122v453h100v-447q0 -119 -62.5 -193t-179.5 -74q-79 0 -134 34.5zM250 792.5q-27 28.5 -27 72.5v3q0 43 27 71.5t68 28.5t68 -28.5t27 -71.5v-3q0 -44 -27 -72.5
t-68 -28.5t-68 28.5zM346 831q11 13 11 33v4q0 20 -11 33t-28 13t-28 -13t-11 -33v-4q0 -20 11 -33t28 -13t28 13z" />
    <glyph glyph-name="uring" unicode="&#x16f;" 
d="M122 36.5q-44 48.5 -44 132.5v327h91v-311q0 -53 28.5 -83t75.5 -30t75.5 31t28.5 82v311h91v-496h-91v55q-16 -29 -51 -48t-80 -19q-80 0 -124 48.5zM205 588.5q-27 28.5 -27 72.5v3q0 43 27 71.5t68 28.5t68 -28.5t27 -71.5v-3q0 -44 -27 -72.5t-68 -28.5t-68 28.5z
M301 627q11 13 11 33v4q0 20 -11 33t-28 13t-28 -13t-11 -33v-4q0 -20 11 -33t28 -13t28 13z" />
    <glyph glyph-name="Uhungarumlaut" unicode="&#x170;" horiz-adv-x="634" 
d="M184 20.5q-55 34.5 -82.5 94.5t-27.5 138v447h100v-453q0 -76 38.5 -122t105.5 -46q66 0 104 46t38 122v453h100v-447q0 -119 -62.5 -193t-179.5 -74q-79 0 -134 34.5zM263 779h-67l50 152h99zM440 779h-67l50 152h99z" />
    <glyph glyph-name="uhungarumlaut" unicode="&#x171;" 
d="M122 36.5q-44 48.5 -44 132.5v327h91v-311q0 -53 28.5 -83t75.5 -30t75.5 31t28.5 82v311h91v-496h-91v55q-16 -29 -51 -48t-80 -19q-80 0 -124 48.5zM218 575h-67l50 152h99zM395 575h-67l50 152h99z" />
    <glyph glyph-name="Uogonek" unicode="&#x172;" horiz-adv-x="634" 
d="M460 700h100v-447q0 -94 -39.5 -161t-114.5 -93q-29 -18 -47 -43.5t-18 -52.5q0 -19 11 -30t29 -11t36 8v-62q-22 -11 -50 -11q-41 0 -68 24t-27 71q0 51 37 94q-113 3 -174 76.5t-61 190.5v447h100v-453q0 -76 38.5 -122t105.5 -46q66 0 104 46t38 122v453z" />
    <glyph glyph-name="uogonek" unicode="&#x173;" 
d="M478 -130v-62q-22 -11 -50 -11q-42 0 -68.5 25.5t-26.5 76.5q0 31 13 58.5t31 42.5v55q-16 -29 -51 -48t-80 -19q-80 0 -124 48.5t-44 132.5v327h91v-311q0 -53 28.5 -83t75.5 -30t75.5 31t28.5 82v311h91v-496q-30 -18 -48 -43.5t-18 -53.5q0 -19 11 -30t29 -11t36 8z
" />
    <glyph glyph-name="Wcircumflex" unicode="&#x174;" horiz-adv-x="842" 
d="M290 0h-115l-149 700h98l113 -565l133 526h102l133 -526l113 565h98l-149 -700h-115l-131 524zM354 779h-71l99 152h77l99 -152h-70l-67 80z" />
    <glyph glyph-name="wcircumflex" unicode="&#x175;" horiz-adv-x="686" 
d="M242 0h-97l-127 496h93l85 -370l99 370h95l100 -370l84 370h94l-127 -496h-98l-100 387zM276 575h-71l99 152h77l99 -152h-70l-67 80z" />
    <glyph glyph-name="Ycircumflex" unicode="&#x176;" horiz-adv-x="566" 
d="M333 0h-99v287l-218 413h110l157 -309l158 309h109l-217 -413v-287zM216 779h-71l99 152h77l99 -152h-70l-67 80z" />
    <glyph glyph-name="ycircumflex" unicode="&#x177;" horiz-adv-x="496" 
d="M376 496h98l-208 -573q-27 -72 -66 -103.5t-104 -31.5q-41 0 -69 13v91q34 -19 71 -19q33 0 54 20t36 63l17 50l-188 490h101l130 -367zM180 575h-71l99 152h77l99 -152h-70l-67 80z" />
    <glyph glyph-name="Ydieresis" unicode="&#x178;" horiz-adv-x="566" 
d="M333 0h-99v287l-218 413h110l157 -309l158 309h109l-217 -413v-287zM141 807.5q-18 18.5 -18 43.5q0 26 18 44t44 18t44 -18t18 -44t-18 -44t-44 -18t-44 18.5zM337.5 807.5q-18.5 18.5 -18.5 43.5t18.5 43.5t43.5 18.5q26 0 44 -18t18 -44t-18 -44t-44 -18
q-25 0 -43.5 18.5z" />
    <glyph glyph-name="Zacute" unicode="&#x179;" horiz-adv-x="534" 
d="M485 0h-443v92l321 516h-310v92h418v-92l-321 -516h335v-92zM300 779h-74l77 152h109z" />
    <glyph glyph-name="zacute" unicode="&#x17a;" horiz-adv-x="432" 
d="M393 0h-361v79l249 338h-239v79h338v-79l-248 -338h261v-79zM250 575h-74l77 152h109z" />
    <glyph glyph-name="Zdotaccent" unicode="&#x17b;" horiz-adv-x="534" 
d="M485 0h-443v92l321 516h-310v92h418v-92l-321 -516h335v-92zM217.5 805q-19.5 19 -19.5 46t19.5 46t45.5 19q28 0 46.5 -19t18.5 -46t-18.5 -46t-46.5 -19q-26 0 -45.5 19z" />
    <glyph glyph-name="zdotaccent" unicode="&#x17c;" horiz-adv-x="432" 
d="M393 0h-361v79l249 338h-239v79h338v-79l-248 -338h261v-79zM167.5 601q-19.5 19 -19.5 46t19.5 46t45.5 19q28 0 46.5 -19t18.5 -46t-18.5 -46t-46.5 -19q-26 0 -45.5 19z" />
    <glyph glyph-name="Zcaron" unicode="&#x17d;" horiz-adv-x="534" 
d="M485 0h-443v92l321 516h-310v92h418v-92l-321 -516h335v-92zM301 779h-77l-99 152h71l67 -79l67 79h70z" />
    <glyph glyph-name="zcaron" unicode="&#x17e;" horiz-adv-x="432" 
d="M393 0h-361v79l249 338h-239v79h338v-79l-248 -338h261v-79zM251 575h-77l-99 152h71l67 -79l67 79h70z" />
    <glyph glyph-name="florin" unicode="&#x192;" horiz-adv-x="351" 
d="M260 609.5q-21 -18.5 -27 -52.5l-11 -61h133l-14 -79h-133l-86 -484q-27 -151 -170 -151q-37 0 -71 12l15 85q31 -13 61 -13t49.5 18t25.5 50l85 483h-87l14 79h87l11 63q28 153 178 153q37 0 71 -12l-15 -85q-33 13 -62 13q-33 0 -54 -18.5z" />
    <glyph glyph-name="uni01B5" unicode="&#x1b5;" horiz-adv-x="534" 
d="M287 313l-137 -221h335v-92h-443v92l137 221h-91v84h144l131 211h-310v92h418v-92l-131 -211h87v-84h-140z" />
    <glyph glyph-name="uni01B6" unicode="&#x1b6;" horiz-adv-x="432" 
d="M232 215l-100 -136h261v-79h-361v79l100 136h-69v67h119l99 135h-239v79h338v-79l-99 -135h82v-67h-131z" />
    <glyph glyph-name="AEacute" unicode="&#x1fc;" horiz-adv-x="897" 
d="M506 316v-224h335v-92h-435v163h-205l-69 -163h-113l308 700h512v-92h-333v-203h278v-89h-278zM391 608l-152 -357h167v357h-15zM572 779h-74l77 152h109z" />
    <glyph glyph-name="aeacute" unicode="&#x1fd;" horiz-adv-x="837" 
d="M785 230h-348q0 -73 37 -117.5t96 -44.5q46 0 75.5 22.5t46.5 64.5l81 -30q-53 -137 -203 -137q-62 0 -111 28.5t-78 80.5q-25 -52 -68 -80.5t-109 -28.5t-109 39.5t-43 104.5q0 71 46.5 109t123.5 45l123 10v36q0 44 -26.5 71.5t-73.5 27.5q-84 0 -113 -85l-76 30
q19 60 69 96t120 36q56 0 97 -19t64 -54q30 35 72 54t92 19q61 0 110 -28t77 -82t28 -130v-38zM480.5 393.5q-34.5 -35.5 -41.5 -95.5h256q-5 60 -39.5 95.5t-85.5 35.5q-55 0 -89.5 -35.5zM345 227l-112 -9q-90 -8 -90 -80q0 -32 21.5 -52.5t57.5 -20.5q59 0 91 39.5
t32 109.5v13zM436 575h-74l77 152h109z" />
    <glyph glyph-name="uni0218" unicode="&#x218;" horiz-adv-x="567" 
d="M128.5 35q-62.5 49 -85.5 129l89 40q40 -126 154 -126q59 0 95 30t36 80v3q0 49 -37 79.5t-118 53.5q-196 56 -196 206v3q0 53 29 94.5t78 64t108 22.5q86 0 139.5 -38t81.5 -110l-82 -43q-20 47 -56 73.5t-82 26.5q-53 0 -86 -25t-33 -66v-1q0 -44 36.5 -72.5
t117.5 -52.5q96 -28 147.5 -77.5t51.5 -132.5v-4q0 -62 -29.5 -108.5t-81.5 -72t-119 -25.5q-95 0 -157.5 49zM262 -245l-19 13l18 28q13 19 16 39q-19 2 -32 14.5t-13 32.5q0 22 14 37t37 15t37 -15t14 -38q0 -51 -48 -101z" />
    <glyph glyph-name="uni0219" unicode="&#x219;" horiz-adv-x="459" 
d="M113.5 21q-48.5 35 -66.5 92l78 38q13 -39 41 -62t65 -23q39 0 64.5 18t25.5 50q0 33 -25.5 52t-84.5 33q-69 16 -108.5 55.5t-39.5 96.5q0 40 22.5 71t61 48.5t84.5 17.5q65 0 108.5 -29t62.5 -81l-70 -35q-13 33 -40.5 52t-61.5 19q-37 0 -61 -17.5t-24 -44.5
q0 -29 26 -49t86 -34q76 -17 114.5 -53t38.5 -99q0 -45 -23.5 -79t-65 -53t-91.5 -19q-68 0 -116.5 35zM211 -245l-19 13l18 28q13 19 16 39q-19 2 -32 14.5t-13 32.5q0 22 14 37t37 15t37 -15t14 -38q0 -51 -48 -101z" />
    <glyph glyph-name="uni021A" unicode="&#x21a;" horiz-adv-x="535" 
d="M506 700v-92h-189v-608h-99v608h-189v92h477zM246 -245l-19 13l18 28q13 19 16 39q-19 2 -32 14.5t-13 32.5q0 22 14 37t37 15t37 -15t14 -38q0 -51 -48 -101z" />
    <glyph glyph-name="uni021B" unicode="&#x21b;" horiz-adv-x="384" 
d="M347 417h-134v-276q0 -33 15.5 -51t47.5 -18q34 0 71 18v-85q-39 -17 -90 -17q-67 0 -101 39t-34 112v278h-94v79h94v95l91 42v-137h134v-79zM236 -245l-19 13l18 28q13 19 16 39q-19 2 -32 14.5t-13 32.5q0 22 14 37t37 15t37 -15t14 -38q0 -51 -48 -101z" />
    <glyph glyph-name="uni0237" unicode="&#x237;" horiz-adv-x="247" 
d="M-20 -202v85q25 -11 48 -11q24 0 37 16.5t13 48.5v559h91v-555q0 -76 -32 -114.5t-92 -38.5q-38 0 -65 10z" />
    <glyph glyph-name="circumflex" unicode="&#x2c6;" horiz-adv-x="312" 
d="M89 575h-71l99 152h77l99 -152h-70l-67 80z" />
    <glyph glyph-name="caron" unicode="&#x2c7;" horiz-adv-x="312" 
d="M194 575h-77l-99 152h71l67 -79l67 79h70z" />
    <glyph glyph-name="uni02C9" unicode="&#x2c9;" horiz-adv-x="273" 
d="M251 616h-229v71h229v-71z" />
    <glyph glyph-name="breve" unicode="&#x2d8;" horiz-adv-x="236" 
d="M39.5 603.5q-28.5 32.5 -28.5 80.5h65q0 -25 10.5 -39.5t31.5 -14.5t31.5 14.5t10.5 39.5h65q0 -48 -28.5 -80.5t-78.5 -32.5t-78.5 32.5z" />
    <glyph glyph-name="dotaccent" unicode="&#x2d9;" horiz-adv-x="201" 
d="M54.5 601q-19.5 19 -19.5 46t19.5 46t45.5 19q28 0 46.5 -19t18.5 -46t-18.5 -46t-46.5 -19q-26 0 -45.5 19z" />
    <glyph glyph-name="ring" unicode="&#x2da;" horiz-adv-x="226" 
d="M45 588.5q-27 28.5 -27 72.5v3q0 43 27 71.5t68 28.5t68 -28.5t27 -71.5v-3q0 -44 -27 -72.5t-68 -28.5t-68 28.5zM141 627q11 13 11 33v4q0 20 -11 33t-28 13t-28 -13t-11 -33v-4q0 -20 11 -33t28 -13t28 13z" />
    <glyph glyph-name="ogonek" unicode="&#x2db;" horiz-adv-x="167" 
d="M37 -179q-27 24 -27 71q0 40 20 71.5t48 48.5l67 -12q-30 -18 -48 -43.5t-18 -53.5q0 -19 11 -30t29 -11t36 8v-62q-22 -11 -50 -11q-41 0 -68 24z" />
    <glyph glyph-name="tilde" unicode="&#x2dc;" horiz-adv-x="319" 
d="M14 627q9 37 31.5 56.5t55.5 19.5q22 0 36.5 -5.5t34.5 -16.5q13 -8 21 -11.5t17 -3.5q15 0 25 9t16 27l54 -22q-9 -37 -31.5 -56.5t-56.5 -19.5q-21 0 -36 5.5t-33 16.5q-10 6 -20.5 10.5t-19.5 4.5q-29 0 -40 -35z" />
    <glyph glyph-name="hungarumlaut" unicode="&#x2dd;" horiz-adv-x="320" 
d="M82 575h-67l50 152h99zM259 575h-67l50 152h99z" />
    <glyph glyph-name="gravecomb" unicode="&#x300;" horiz-adv-x="0" 
d="M-15 575h-75l-111 152h109z" />
    <glyph glyph-name="acutecomb" unicode="&#x301;" horiz-adv-x="0" 
d="M-127 575h-74l77 152h109z" />
    <glyph glyph-name="uni0302" unicode="&#x302;" horiz-adv-x="0" 
d="M-223 575h-71l99 152h77l99 -152h-70l-67 80z" />
    <glyph glyph-name="tildecomb" unicode="&#x303;" horiz-adv-x="0" 
d="M-305 627q9 37 31.5 56.5t55.5 19.5q22 0 36.5 -5.5t34.5 -16.5q13 -8 21 -11.5t17 -3.5q15 0 25 9t16 27l54 -22q-9 -37 -31.5 -56.5t-56.5 -19.5q-21 0 -36 5.5t-33 16.5q-10 6 -20.5 10.5t-19.5 4.5q-29 0 -40 -35z" />
    <glyph glyph-name="uni0304" unicode="&#x304;" horiz-adv-x="0" 
d="M-22 616h-229v71h229v-71z" />
    <glyph glyph-name="uni0306" unicode="&#x306;" horiz-adv-x="0" 
d="M-196.5 603.5q-28.5 32.5 -28.5 80.5h65q0 -25 10.5 -39.5t31.5 -14.5t31.5 14.5t10.5 39.5h65q0 -48 -28.5 -80.5t-78.5 -32.5t-78.5 32.5z" />
    <glyph glyph-name="uni0307" unicode="&#x307;" horiz-adv-x="0" 
d="M-146.5 601q-19.5 19 -19.5 46t19.5 46t45.5 19q28 0 46.5 -19t18.5 -46t-18.5 -46t-46.5 -19q-26 0 -45.5 19z" />
    <glyph glyph-name="uni0308" unicode="&#x308;" horiz-adv-x="0" 
d="M-325 603.5q-18 18.5 -18 43.5q0 26 18 44t44 18t44 -18t18 -44t-18 -44t-44 -18t-44 18.5zM-128.5 603.5q-18.5 18.5 -18.5 43.5t18.5 43.5t43.5 18.5q26 0 44 -18t18 -44t-18 -44t-44 -18q-25 0 -43.5 18.5z" />
    <glyph glyph-name="uni030A" unicode="&#x30a;" horiz-adv-x="0" 
d="M-181 588.5q-27 28.5 -27 72.5v3q0 43 27 71.5t68 28.5t68 -28.5t27 -71.5v-3q0 -44 -27 -72.5t-68 -28.5t-68 28.5zM-85 627q11 13 11 33v4q0 20 -11 33t-28 13t-28 -13t-11 -33v-4q0 -20 11 -33t28 -13t28 13z" />
    <glyph glyph-name="uni030B" unicode="&#x30b;" horiz-adv-x="0" 
d="M-278 575h-67l50 152h99zM-101 575h-67l50 152h99z" />
    <glyph glyph-name="uni030C" unicode="&#x30c;" horiz-adv-x="0" 
d="M-117 575h-77l-99 152h71l67 -79l67 79h70z" />
    <glyph glyph-name="uni0312" unicode="&#x312;" horiz-adv-x="0" 
d="M-123 585q-14 16 -14 39q0 50 46 98l26 27l18 -15l-17 -25q-15 -23 -16 -41q18 -2 31.5 -14.5t13.5 -32.5q0 -22 -14 -37t-37 -15t-37 16z" />
    <glyph glyph-name="uni0326" unicode="&#x326;" horiz-adv-x="0" 
d="M-81 -245l-19 13l18 28q13 19 16 39q-19 2 -32 14.5t-13 32.5q0 22 14 37t37 15t37 -15t14 -38q0 -51 -48 -101z" />
    <glyph glyph-name="uni0327" unicode="&#x327;" horiz-adv-x="0" 
d="M-30.5 -65.5q22.5 -21.5 22.5 -60.5q0 -42 -28.5 -66t-74.5 -24q-45 0 -78 16l22 52q23 -15 53 -15q45 0 45 37q0 15 -10 25t-26 10q-10 0 -19.5 -3.5t-15.5 -8.5l-42 19l21 96h53l-16 -64q18 8 34 8q37 0 59.5 -21.5z" />
    <glyph glyph-name="uni0328" unicode="&#x328;" horiz-adv-x="0" 
d="M-130 -179q-27 24 -27 71q0 40 20 71.5t48 48.5l67 -12q-30 -18 -48 -43.5t-18 -53.5q0 -19 11 -30t29 -11t36 8v-62q-22 -11 -50 -11q-41 0 -68 24z" />
    <glyph glyph-name="pi" unicode="&#x3c0;" horiz-adv-x="643" 
d="M606 417h-112v-283q0 -30 14.5 -46t40.5 -16q28 0 57 16v-85q-33 -15 -74 -15q-63 0 -96 37t-33 107v285h-172v-417h-91v417h-112v79h578v-79z" />
    <glyph glyph-name="uni0400" unicode="&#x400;" horiz-adv-x="575" 
d="M519 0h-435v700h432v-92h-332v-203h278v-89h-278v-224h335v-92zM339 779h-75l-111 152h109z" />
    <glyph glyph-name="uni0401" unicode="&#x401;" horiz-adv-x="575" 
d="M519 0h-435v700h432v-92h-332v-203h278v-89h-278v-224h335v-92zM160 807.5q-18 18.5 -18 43.5q0 26 18 44t44 18t44 -18t18 -44t-18 -44t-44 -18t-44 18.5zM356.5 807.5q-18.5 18.5 -18.5 43.5t18.5 43.5t43.5 18.5q26 0 44 -18t18 -44t-18 -44t-44 -18q-25 0 -43.5 18.5
z" />
    <glyph glyph-name="uni0402" unicode="&#x402;" horiz-adv-x="717" 
d="M391 -4v85q11 -5 32 -8t36 -3q58 0 94 37t36 109q0 73 -43.5 110.5t-116.5 37.5q-59 0 -111 -21v-343h-100v608h-189v92h527v-92h-238v-185q32 13 63.5 19t76.5 6q70 0 122 -28.5t80.5 -81.5t28.5 -122q0 -75 -29.5 -126.5t-80 -77.5t-114.5 -26q-47 0 -74 10z" />
    <glyph glyph-name="uni0403" unicode="&#x403;" 
d="M184 0h-100v700h412v-92h-312v-608zM326 779h-74l77 152h109z" />
    <glyph glyph-name="uni0404" unicode="&#x404;" horiz-adv-x="650" 
d="M605 155q-37 -81 -100 -125t-154 -44q-88 0 -156 42.5t-105.5 119.5t-37.5 178v48q0 101 37.5 178t105.5 119.5t156 42.5q92 0 155.5 -44t97.5 -125l-80 -44q-55 121 -172 121q-87 0 -140.5 -63t-58.5 -165h283v-89h-283q5 -102 59 -164.5t140 -62.5q117 0 172 121z" />
    <glyph glyph-name="uni0405" unicode="&#x405;" horiz-adv-x="567" 
d="M128.5 35q-62.5 49 -85.5 129l89 40q40 -126 154 -126q59 0 95 30t36 80v3q0 49 -37 79.5t-118 53.5q-196 56 -196 206v3q0 53 29 94.5t78 64t108 22.5q86 0 139.5 -38t81.5 -110l-82 -43q-20 47 -56 73.5t-82 26.5q-53 0 -86 -25t-33 -66v-1q0 -44 36.5 -72.5
t117.5 -52.5q96 -28 147.5 -77.5t51.5 -132.5v-4q0 -62 -29.5 -108.5t-81.5 -72t-119 -25.5q-95 0 -157.5 49z" />
    <glyph glyph-name="uni0406" unicode="&#x406;" horiz-adv-x="268" 
d="M184 0h-100v700h100v-700z" />
    <glyph glyph-name="uni0407" unicode="&#x407;" horiz-adv-x="268" 
d="M184 0h-100v700h100v-700zM-8 807.5q-18 18.5 -18 43.5q0 26 18 44t44 18t44 -18t18 -44t-18 -44t-44 -18t-44 18.5zM188.5 807.5q-18.5 18.5 -18.5 43.5t18.5 43.5t43.5 18.5q26 0 44 -18t18 -44t-18 -44t-44 -18q-25 0 -43.5 18.5z" />
    <glyph glyph-name="uni0408" unicode="&#x408;" horiz-adv-x="531" 
d="M114 29q-54 43 -76 117l93 37q13 -50 43.5 -77t76.5 -27q106 0 106 142v479h100v-473q0 -115 -52.5 -178t-155.5 -63q-81 0 -135 43z" />
    <glyph glyph-name="uni0409" unicode="&#x409;" horiz-adv-x="962" 
d="M24 6v97q30 -23 58 -23q41 0 58.5 32t22.5 112l30 476h389v-314h134q93 0 147.5 -50t54.5 -143t-54.5 -143t-147.5 -50h-234v608h-202l-26 -395q-8 -119 -44 -173t-111 -54q-44 0 -75 20zM709 88q53 0 81 26t28 79t-28 79t-81 26h-127v-210h127z" />
    <glyph glyph-name="uni040A" unicode="&#x40a;" horiz-adv-x="981" 
d="M84 0v700h100v-285h317v285h100v-285h114q102 0 162 -54.5t60 -155.5q0 -99 -60 -152t-162 -53h-214v323h-317v-323h-100zM708 88q63 0 96 29t33 88q0 118 -129 118h-107v-235h107z" />
    <glyph glyph-name="uni040B" unicode="&#x40b;" horiz-adv-x="717" 
d="M218 0v608h-189v92h527v-92h-238v-185q32 13 63.5 19t76.5 6q92 0 136.5 -50t44.5 -142v-256h-100v246q0 56 -30 87t-84 31q-32 0 -56.5 -5t-50.5 -16v-343h-100z" />
    <glyph glyph-name="uni040C" unicode="&#x40c;" horiz-adv-x="561" 
d="M412 700h115l-228 -350l228 -350h-114l-200 305h-29v-305h-100v700h100v-309h30zM318 779h-74l77 152h109z" />
    <glyph glyph-name="uni040D" unicode="&#x40d;" horiz-adv-x="670" 
d="M586 700v-700h-96v566l-315 -566h-91v700h96v-540l300 540h106zM372 779h-75l-111 152h109z" />
    <glyph glyph-name="uni040E" unicode="&#x40e;" horiz-adv-x="542" 
d="M424 700h105l-240 -590q-27 -65 -68 -94t-103 -29q-27 0 -52.5 6.5t-43.5 18.5v92q17 -12 42 -19.5t48 -7.5q35 0 58 17t39 57l27 69l-211 480h111l147 -359zM190.5 811q-32.5 36 -32.5 89h65q0 -31 14.5 -48.5t43.5 -17.5t43.5 17.5t14.5 48.5h65q0 -53 -32.5 -89
t-90.5 -36t-90.5 36z" />
    <glyph glyph-name="uni040F" unicode="&#x40f;" horiz-adv-x="685" 
d="M393 -142h-100v142h-209v700h100v-608h317v608h100v-700h-208v-142z" />
    <glyph glyph-name="uni0410" unicode="&#x410;" horiz-adv-x="626" 
d="M607 0h-104l-51 158h-278l-51 -158h-104l237 700h114zM313 583l-110 -337h220z" />
    <glyph glyph-name="uni0411" unicode="&#x411;" horiz-adv-x="564" 
d="M318 386q93 0 147.5 -50t54.5 -143t-54.5 -143t-147.5 -50h-234v700h384v-88h-284v-226h134zM311 88q53 0 81 26t28 79t-28 79t-81 26h-127v-210h127z" />
    <glyph glyph-name="uni0412" unicode="&#x412;" horiz-adv-x="603" 
d="M84 0v700h243q93 0 146 -47.5t53 -125.5v-2q0 -54 -25.5 -91.5t-64.5 -57.5q113 -50 113 -173v-3q0 -63 -27.5 -108t-75 -68.5t-106.5 -23.5h-256zM328 411q48 0 76.5 25t28.5 74v1q0 49 -28.5 74.5t-76.5 25.5h-144v-200h144zM333 92q55 0 86.5 30.5t31.5 84.5v3
q0 54 -31.5 84.5t-86.5 30.5h-149v-233h149z" />
    <glyph glyph-name="uni0413" unicode="&#x413;" 
d="M184 0h-100v700h412v-92h-312v-608z" />
    <glyph glyph-name="uni0414" unicode="&#x414;" horiz-adv-x="690" 
d="M29 -142v234h90q17 59 27 114t14 128l22 366h401v-608h88v-234h-95v142h-452v-142h-95zM483 92v516h-215l-16 -277q-4 -79 -13 -132t-25 -107h269z" />
    <glyph glyph-name="uni0415" unicode="&#x415;" horiz-adv-x="575" 
d="M519 0h-435v700h432v-92h-332v-203h278v-89h-278v-224h335v-92z" />
    <glyph glyph-name="uni0416" unicode="&#x416;" horiz-adv-x="834" 
d="M148 0h-114l222 350l-222 350h115l189 -309h29v309h100v-309h29l189 309h115l-222 -350l222 -350h-114l-191 305h-28v-305h-100v305h-28z" />
    <glyph glyph-name="uni0417" unicode="&#x417;" horiz-adv-x="560" 
d="M124.5 42.5q-61.5 54.5 -72.5 149.5l87 17q10 -64 48.5 -99.5t94.5 -35.5q61 0 95.5 34.5t34.5 93.5v9q0 61 -36.5 91t-111.5 30h-37v78h37q67 0 99 27t32 81v9q0 45 -31.5 73t-84.5 28q-47 0 -80 -28t-42 -77l-87 17q12 80 68.5 127t141.5 47q63 0 111 -22.5t74 -63
t26 -93.5v-10q0 -96 -83 -145q45 -22 72.5 -64t27.5 -104v-10q0 -64 -28 -112.5t-79 -75t-118 -26.5q-97 0 -158.5 54.5z" />
    <glyph glyph-name="uni0418" unicode="&#x418;" horiz-adv-x="670" 
d="M586 700v-700h-96v566l-315 -566h-91v700h96v-540l300 540h106z" />
    <glyph glyph-name="uni0419" unicode="&#x419;" horiz-adv-x="670" 
d="M586 700v-700h-96v566l-315 -566h-91v700h96v-540l300 540h106zM244.5 811q-32.5 36 -32.5 89h65q0 -31 14.5 -48.5t43.5 -17.5t43.5 17.5t14.5 48.5h65q0 -53 -32.5 -89t-90.5 -36t-90.5 36z" />
    <glyph glyph-name="uni041A" unicode="&#x41a;" horiz-adv-x="561" 
d="M412 700h115l-228 -350l228 -350h-114l-200 305h-29v-305h-100v700h100v-309h30z" />
    <glyph glyph-name="uni041B" unicode="&#x41b;" horiz-adv-x="666" 
d="M24 6v97q30 -23 58 -23q41 0 58.5 32t22.5 112l30 476h389v-700h-100v608h-202l-26 -395q-8 -119 -44 -173t-111 -54q-44 0 -75 20z" />
    <glyph glyph-name="uni041C" unicode="&#x41c;" horiz-adv-x="750" 
d="M180 0h-96v700h102l189 -461l189 461h102v-700h-96v500l-150 -360h-90l-150 360v-500z" />
    <glyph glyph-name="uni041D" unicode="&#x41d;" horiz-adv-x="685" 
d="M184 0h-100v700h100v-285h317v285h100v-700h-100v323h-317v-323z" />
    <glyph glyph-name="uni041E" unicode="&#x41e;" horiz-adv-x="692" 
d="M190.5 28.5q-66.5 42.5 -102.5 119.5t-36 178v48q0 101 36 178t102.5 119.5t155.5 42.5t155.5 -42.5t102.5 -119.5t36 -178v-48q0 -101 -36 -178t-102.5 -119.5t-155.5 -42.5t-155.5 42.5zM488 144q50 66 50 179v54q0 113 -50 179t-142 66t-142 -66t-50 -179v-54
q0 -113 50 -179t142 -66t142 66z" />
    <glyph glyph-name="uni041F" unicode="&#x41f;" horiz-adv-x="685" 
d="M184 0h-100v700h517v-700h-100v608h-317v-608z" />
    <glyph glyph-name="uni0420" unicode="&#x420;" horiz-adv-x="564" 
d="M84 0v700h234q93 0 147.5 -50t54.5 -143t-54.5 -143t-147.5 -50h-134v-314h-100zM311 402q53 0 81 26t28 79t-28 79t-81 26h-127v-210h127z" />
    <glyph glyph-name="uni0421" unicode="&#x421;" horiz-adv-x="650" 
d="M195 28.5q-68 42.5 -105.5 119.5t-37.5 178v48q0 101 37.5 178t105.5 119.5t156 42.5q92 0 155.5 -44t97.5 -125l-80 -44q-55 121 -172 121q-60 0 -105 -31t-69.5 -86.5t-24.5 -127.5v-54q0 -72 24.5 -127.5t69.5 -86.5t105 -31q117 0 172 121l81 -44q-37 -81 -100 -125
t-154 -44q-88 0 -156 42.5z" />
    <glyph glyph-name="uni0422" unicode="&#x422;" horiz-adv-x="535" 
d="M506 700v-92h-189v-608h-99v608h-189v92h477z" />
    <glyph glyph-name="uni0423" unicode="&#x423;" horiz-adv-x="542" 
d="M424 700h105l-240 -590q-27 -65 -68 -94t-103 -29q-27 0 -52.5 6.5t-43.5 18.5v92q17 -12 42 -19.5t48 -7.5q35 0 58 17t39 57l27 69l-211 480h111l147 -359z" />
    <glyph glyph-name="uni0424" unicode="&#x424;" horiz-adv-x="752" 
d="M426 627q134 -11 204 -82.5t70 -190.5v-8q0 -120 -70 -191t-204 -82v-87h-100v87q-134 11 -204 82t-70 191v8q0 119 70 190.5t204 82.5v87h100v-87zM154 343q0 -77 43 -122t129 -55v368q-86 -10 -129 -55t-43 -122v-14zM598 357q0 77 -43 122t-129 55v-368q86 10 129 55
t43 122v14z" />
    <glyph glyph-name="uni0425" unicode="&#x425;" horiz-adv-x="572" 
d="M139 0h-112l201 362l-190 338h109l141 -255l146 255h108l-197 -342l200 -358h-113l-148 273z" />
    <glyph glyph-name="uni0426" unicode="&#x426;" horiz-adv-x="687" 
d="M661 -142h-95v142h-482v700h100v-608h317v608h100v-608h60v-234z" />
    <glyph glyph-name="uni0427" unicode="&#x427;" horiz-adv-x="625" 
d="M441 316q-29 -30 -73 -48.5t-92 -18.5q-97 0 -149.5 54.5t-52.5 152.5v244h100v-234q0 -59 31.5 -92t89.5 -33q44 0 79 16t67 46v297h100v-700h-100v316z" />
    <glyph glyph-name="uni0428" unicode="&#x428;" horiz-adv-x="882" 
d="M798 0h-714v700h100v-608h207v608h100v-608h207v608h100v-700z" />
    <glyph glyph-name="uni0429" unicode="&#x429;" horiz-adv-x="884" 
d="M798 92h60v-234h-95v142h-679v700h100v-608h207v608h100v-608h207v608h100v-608z" />
    <glyph glyph-name="uni042A" unicode="&#x42a;" horiz-adv-x="685" 
d="M439 386q93 0 147.5 -50t54.5 -143t-54.5 -143t-147.5 -50h-234v612h-189v88h289v-314h134zM432 88q53 0 81 26t28 79t-28 79t-81 26h-127v-210h127z" />
    <glyph glyph-name="uni042B" unicode="&#x42b;" horiz-adv-x="762" 
d="M84 0v700h100v-314h134q93 0 147.5 -50t54.5 -143t-54.5 -143t-147.5 -50h-234zM311 88q53 0 81 26t28 79t-28 79t-81 26h-127v-210h127zM678 0h-100v700h100v-700z" />
    <glyph glyph-name="uni042C" unicode="&#x42c;" horiz-adv-x="564" 
d="M84 0v700h100v-314h134q93 0 147.5 -50t54.5 -143t-54.5 -143t-147.5 -50h-234zM311 88q53 0 81 26t28 79t-28 79t-81 26h-127v-210h127z" />
    <glyph glyph-name="uni042D" unicode="&#x42d;" horiz-adv-x="650" 
d="M455 671.5q68 -42.5 105.5 -119.5t37.5 -178v-48q0 -101 -37.5 -178t-105.5 -119.5t-156 -42.5q-91 0 -154 44t-100 125l81 44q55 -121 172 -121q86 0 140 62.5t59 164.5h-283v89h283q-5 102 -58.5 165t-140.5 63q-117 0 -172 -121l-80 44q34 81 97.5 125t155.5 44
q88 0 156 -42.5z" />
    <glyph glyph-name="uni042E" unicode="&#x42e;" horiz-adv-x="895" 
d="M707.5 671.5q65.5 -42.5 100.5 -119.5t35 -178v-48q0 -101 -35 -178t-100.5 -119.5t-152.5 -42.5t-152 42.5t-100.5 118.5t-35.5 176h-83v-323h-100v700h100v-285h85q7 89 43.5 157t99 105t143.5 37q87 0 152.5 -42.5zM741 377q0 113 -48.5 179t-137.5 66t-137.5 -66
t-48.5 -179v-54q0 -113 48.5 -179t137.5 -66t137.5 66t48.5 179v54z" />
    <glyph glyph-name="uni042F" unicode="&#x42f;" horiz-adv-x="593" 
d="M95 245q8 51 26 77t52 35q-47 17 -78 57t-31 101q0 86 53 135.5t142 49.5h250v-700h-100v314h-141q-36 0 -53 -16.5t-23 -59.5l-33 -238h-100zM409 401v211h-137q-51 0 -79.5 -27t-28.5 -78t28.5 -78.5t79.5 -27.5h137z" />
    <glyph glyph-name="uni0430" unicode="&#x430;" horiz-adv-x="528" 
d="M93.5 27.5q-41.5 39.5 -41.5 104.5v3q0 67 44.5 105.5t119.5 53.5l129 25v14q0 44 -26.5 71t-73.5 27q-84 0 -113 -85l-76 30q19 60 69 96t120 36q90 0 139.5 -47.5t49.5 -126.5v-223q0 -21 10 -33.5t30 -12.5q16 0 32 8v-73q-25 -12 -60 -12q-40 0 -65 23.5t-29 62.5
q-45 -86 -151 -86q-66 0 -107.5 39.5zM312 106q33 41 33 115v31l-115 -23q-87 -19 -87 -90v-1q0 -32 21.5 -52.5t56.5 -20.5q58 0 91 41z" />
    <glyph glyph-name="uni0431" unicode="&#x431;" 
d="M111.5 53.5q-59.5 66.5 -59.5 193.5v117q0 140 58.5 216t177.5 80q61 2 99 13.5t67 35.5v-87q-22 -21 -55 -30t-105 -12q-76 -3 -116 -47.5t-40 -140.5v-22q19 41 59 64.5t93 23.5q94 0 149 -61t55 -165v-14q0 -70 -27.5 -122t-78 -80.5t-117.5 -28.5q-100 0 -159.5 66.5
zM400 216v15q0 68 -32.5 105.5t-96.5 37.5q-63 0 -95 -37t-32 -105v-16q0 -141 127 -141q129 0 129 141z" />
    <glyph glyph-name="uni0432" unicode="&#x432;" horiz-adv-x="496" 
d="M78 0v496h197q75 0 117 -33.5t42 -89.5q0 -38 -20 -65t-51 -40q89 -37 89 -124v-1q0 -67 -47.5 -105t-119.5 -38h-207zM270 296q36 0 57 16t21 47t-21 47t-57 16h-101v-126h101zM271 77q42 0 66 19t24 54v3q0 35 -24 54t-66 19h-102v-149h102z" />
    <glyph glyph-name="uni0433" unicode="&#x433;" horiz-adv-x="431" 
d="M169 0h-91v496h304v-83h-213v-413z" />
    <glyph glyph-name="uni0434" unicode="&#x434;" horiz-adv-x="568" 
d="M27 -122v205h62q14 52 22.5 99.5t14.5 121.5l14 192h316v-413h63v-205h-88v122h-316v-122h-88zM365 83v330h-146l-8 -114q-6 -77 -14 -123.5t-22 -92.5h190z" />
    <glyph glyph-name="uni0435" unicode="&#x435;" horiz-adv-x="544" 
d="M492 230h-348q0 -73 37 -117.5t96 -44.5q46 0 75.5 22.5t46.5 64.5l82 -31q-55 -136 -204 -136q-66 0 -117 31.5t-79.5 88t-28.5 127.5v26q0 72 29 128t80.5 87.5t116.5 31.5q61 0 109.5 -28t76.5 -82t28 -130v-38zM188.5 393.5q-34.5 -35.5 -42.5 -95.5h256
q-4 60 -38.5 95.5t-85.5 35.5q-55 0 -89.5 -35.5z" />
    <glyph glyph-name="uni0436" unicode="&#x436;" horiz-adv-x="687" 
d="M551 496h102l-170 -248l170 -248h-101l-143 216h-20v-216h-91v216h-20l-143 -216h-101l170 248l-170 248h102l142 -216h20v216h91v-216h20z" />
    <glyph glyph-name="uni0437" unicode="&#x437;" horiz-adv-x="435" 
d="M93.5 27q-46.5 41 -55.5 111l82 15q7 -43 31.5 -66.5t62.5 -23.5q39 0 61 21.5t22 60.5v4q0 37 -22.5 57t-59.5 20h-37v68h38q33 0 52.5 19t19.5 52q0 32 -20 50t-57 18q-31 0 -54.5 -20t-30.5 -53l-79 18q12 59 54.5 94t109.5 35q79 0 122 -37t43 -100q0 -74 -63 -106
q75 -31 75 -117v-5q0 -71 -48 -113.5t-127 -42.5q-73 0 -119.5 41z" />
    <glyph glyph-name="uni0438" unicode="&#x438;" horiz-adv-x="548" 
d="M169 0h-91v496h91v-356l210 356h91v-496h-91v356z" />
    <glyph glyph-name="uni0439" unicode="&#x439;" horiz-adv-x="548" 
d="M169 0h-91v496h91v-356l210 356h91v-496h-91v356zM183.5 607q-32.5 36 -32.5 89h65q0 -31 14.5 -48.5t43.5 -17.5t43.5 17.5t14.5 48.5h65q0 -53 -32.5 -89t-90.5 -36t-90.5 36z" />
    <glyph glyph-name="uni043A" unicode="&#x43a;" horiz-adv-x="473" 
d="M334 496h105l-169 -248l169 -248h-105l-145 216h-20v-216h-91v496h91v-216h20z" />
    <glyph glyph-name="uni043B" unicode="&#x43b;" horiz-adv-x="539" 
d="M11 3v87q27 -19 50 -19q22 0 35 15t15 44l29 366h321v-496h-91v413h-150l-24 -298q-5 -67 -33.5 -97.5t-88.5 -30.5q-36 0 -63 16z" />
    <glyph glyph-name="uni043C" unicode="&#x43c;" horiz-adv-x="620" 
d="M169 0h-91v496h97l135 -301l135 301h97v-496h-91v319l-100 -220h-82l-100 220v-319z" />
    <glyph glyph-name="uni043D" unicode="&#x43d;" horiz-adv-x="542" 
d="M373 306v190h91v-496h-91v223h-204v-223h-91v496h91v-190h204z" />
    <glyph glyph-name="uni043E" unicode="&#x43e;" horiz-adv-x="561" 
d="M163 19.5q-52 31.5 -81.5 88t-29.5 127.5v26q0 71 29.5 127.5t81.5 88t118 31.5t118 -31.5t81 -88t29 -127.5v-26q0 -71 -29 -127.5t-81 -88t-118 -31.5t-118 31.5zM378.5 118.5q36.5 43.5 36.5 115.5v28q0 72 -36.5 115.5t-97.5 43.5q-62 0 -98.5 -43.5t-36.5 -115.5
v-28q0 -72 36.5 -115.5t98.5 -43.5q61 0 97.5 43.5z" />
    <glyph glyph-name="uni043F" unicode="&#x43f;" horiz-adv-x="542" 
d="M169 0h-91v496h386v-496h-91v413h-204v-413z" />
    <glyph glyph-name="uni0440" unicode="&#x440;" horiz-adv-x="569" 
d="M78 -203v699h91v-64q20 34 57.5 55t85.5 21q59 0 105.5 -30.5t73 -86.5t26.5 -130v-26q0 -74 -26.5 -130t-73 -86.5t-105.5 -30.5q-49 0 -86 19t-57 50v-260h-91zM387 118q36 43 36 116v28q0 73 -36 116t-93 43q-58 0 -93.5 -43t-35.5 -116v-28q0 -73 35.5 -116t93.5 -43
q57 0 93 43z" />
    <glyph glyph-name="uni0441" unicode="&#x441;" horiz-adv-x="521" 
d="M161.5 19.5q-51.5 31.5 -80.5 88t-29 127.5v26q0 71 29 127.5t80.5 88t117.5 31.5q76 0 127 -37t73 -105l-80 -36q-15 43 -45.5 67t-74.5 24q-60 0 -96.5 -43.5t-36.5 -114.5v-30q0 -71 36.5 -114.5t96.5 -43.5q44 0 74.5 24.5t46.5 67.5l81 -36q-26 -68 -76.5 -105.5
t-125.5 -37.5q-66 0 -117.5 31.5z" />
    <glyph glyph-name="uni0442" unicode="&#x442;" horiz-adv-x="381" 
d="M236 0h-91v413h-135v83h361v-83h-135v-413z" />
    <glyph glyph-name="uni0443" unicode="&#x443;" horiz-adv-x="496" 
d="M376 496h98l-208 -573q-27 -72 -66 -103.5t-104 -31.5q-41 0 -69 13v91q34 -19 71 -19q33 0 54 20t36 63l17 50l-188 490h101l130 -367z" />
    <glyph glyph-name="uni0444" unicode="&#x444;" horiz-adv-x="601" 
d="M346 505q95 -15 149 -84.5t54 -169.5v-6q0 -100 -54 -169.5t-149 -84.5v-195h-91v195q-95 15 -149 85t-54 169v6q0 99 54 169t149 85v195h91v-195zM455 252q0 63 -27.5 108.5t-81.5 59.5v-344q54 14 81.5 59.5t27.5 108.5v8zM146 244q0 -63 27.5 -108t81.5 -59v342
q-54 -14 -81.5 -59t-27.5 -108v-8z" />
    <glyph glyph-name="uni0445" unicode="&#x445;" horiz-adv-x="462" 
d="M127 0h-106l155 263l-144 233h107l92 -160l90 160h107l-146 -236l159 -260h-106l-106 184z" />
    <glyph glyph-name="uni0446" unicode="&#x446;" horiz-adv-x="576" 
d="M527 -122h-88v122h-361v496h91v-413h204v413h91v-413h63v-205z" />
    <glyph glyph-name="uni0447" unicode="&#x447;" horiz-adv-x="509" 
d="M340 214q-46 -40 -124 -40q-77 0 -121.5 49t-44.5 132v141h91v-128q0 -52 25.5 -81.5t70.5 -29.5q64 0 103 40v199h91v-496h-91v214z" />
    <glyph glyph-name="uni0448" unicode="&#x448;" horiz-adv-x="717" 
d="M639 0h-561v496h91v-413h144v413h91v-413h144v413h91v-496z" />
    <glyph glyph-name="uni0449" unicode="&#x449;" horiz-adv-x="751" 
d="M639 83h63v-205h-88v122h-536v496h91v-413h144v413h91v-413h144v413h91v-413z" />
    <glyph glyph-name="uni044A" unicode="&#x44a;" horiz-adv-x="558" 
d="M136 0v413h-130v83h221v-194h114q74 0 120.5 -38.5t46.5 -108.5v-6q0 -70 -46.5 -109.5t-120.5 -39.5h-205zM327 77q43 0 66 18.5t23 52.5v8q0 34 -23 52t-66 18h-100v-149h100z" />
    <glyph glyph-name="uni044B" unicode="&#x44b;" horiz-adv-x="687" 
d="M78 0v496h91v-194h114q74 0 120.5 -38.5t46.5 -108.5v-6q0 -70 -46.5 -109.5t-120.5 -39.5h-205zM269 77q43 0 66 18.5t23 52.5v8q0 34 -23 52t-66 18h-100v-149h100zM609 0h-91v496h91v-496z" />
    <glyph glyph-name="uni044C" unicode="&#x44c;" horiz-adv-x="500" 
d="M78 0v496h91v-194h114q74 0 120.5 -38.5t46.5 -108.5v-6q0 -70 -46.5 -109.5t-120.5 -39.5h-205zM269 77q43 0 66 18.5t23 52.5v8q0 34 -23 52t-66 18h-100v-149h100z" />
    <glyph glyph-name="uni044D" unicode="&#x44d;" horiz-adv-x="521" 
d="M359.5 476.5q51.5 -31.5 80.5 -88t29 -127.5v-26q0 -71 -29 -127.5t-80.5 -88t-117.5 -31.5q-75 0 -125.5 37.5t-76.5 105.5l81 36q16 -43 46.5 -67.5t74.5 -24.5q54 0 89.5 36t42.5 96h-175v83h174q-7 60 -42 95.5t-89 35.5q-44 0 -74.5 -24t-45.5 -67l-80 36
q22 68 73 105t127 37q66 0 117.5 -31.5z" />
    <glyph glyph-name="uni044E" unicode="&#x44e;" horiz-adv-x="743" 
d="M581 476.5q52 -31.5 81 -88t29 -127.5v-26q0 -71 -29 -127.5t-81 -88t-118 -31.5q-64 0 -115.5 30t-81.5 83.5t-32 121.5h-65v-223h-91v496h91v-190h68q14 91 75.5 146.5t150.5 55.5q66 0 118 -31.5zM597 262q0 72 -36.5 115.5t-97.5 43.5q-62 0 -98.5 -43.5
t-36.5 -115.5v-28q0 -72 36.5 -115.5t98.5 -43.5q61 0 97.5 43.5t36.5 115.5v28z" />
    <glyph glyph-name="uni044F" unicode="&#x44f;" horiz-adv-x="484" 
d="M72 167q6 37 21.5 55.5t44.5 25.5q-41 15 -64 41.5t-23 71.5q0 65 41.5 100t111.5 35h202v-496h-91v216h-92q-53 0 -61 -51l-23 -165h-93zM315 288v133h-96q-35 0 -56 -17.5t-21 -48.5q0 -32 21 -49.5t56 -17.5h96z" />
    <glyph glyph-name="uni0450" unicode="&#x450;" horiz-adv-x="544" 
d="M492 230h-348q0 -73 37 -117.5t96 -44.5q46 0 75.5 22.5t46.5 64.5l82 -31q-55 -136 -204 -136q-66 0 -117 31.5t-79.5 88t-28.5 127.5v26q0 72 29 128t80.5 87.5t116.5 31.5q61 0 109.5 -28t76.5 -82t28 -130v-38zM188.5 393.5q-34.5 -35.5 -42.5 -95.5h256
q-4 60 -38.5 95.5t-85.5 35.5q-55 0 -89.5 -35.5zM314 575h-75l-111 152h109z" />
    <glyph glyph-name="uni0451" unicode="&#x451;" horiz-adv-x="544" 
d="M492 230h-348q0 -73 37 -117.5t96 -44.5q46 0 75.5 22.5t46.5 64.5l82 -31q-55 -136 -204 -136q-66 0 -117 31.5t-79.5 88t-28.5 127.5v26q0 72 29 128t80.5 87.5t116.5 31.5q61 0 109.5 -28t76.5 -82t28 -130v-38zM188.5 393.5q-34.5 -35.5 -42.5 -95.5h256
q-4 60 -38.5 95.5t-85.5 35.5q-55 0 -89.5 -35.5zM135 603.5q-18 18.5 -18 43.5q0 26 18 44t44 18t44 -18t18 -44t-18 -44t-44 -18t-44 18.5zM331.5 603.5q-18.5 18.5 -18.5 43.5t18.5 43.5t43.5 18.5q26 0 44 -18t18 -44t-18 -44t-44 -18q-25 0 -43.5 18.5z" />
    <glyph glyph-name="uni0452" unicode="&#x452;" horiz-adv-x="553" 
d="M286 -202v85q25 -11 48 -11q24 0 37 16.5t13 48.5v369q0 53 -30 85.5t-77 32.5t-77.5 -33t-30.5 -85v-306h-91v576h-71v68h71v56h91v-56h147v-68h-147v-135q16 28 52.5 47.5t81.5 19.5q79 0 125.5 -50t46.5 -132v-385q0 -76 -31.5 -114.5t-92.5 -38.5q-38 0 -65 10z" />
    <glyph glyph-name="uni0453" unicode="&#x453;" horiz-adv-x="431" 
d="M169 0h-91v496h304v-83h-213v-413zM267 575h-74l77 152h109z" />
    <glyph glyph-name="uni0454" unicode="&#x454;" horiz-adv-x="521" 
d="M481 131q-26 -68 -76.5 -105.5t-125.5 -37.5q-66 0 -117.5 31.5t-80.5 88t-29 127.5v26q0 71 29 127.5t80.5 88t117.5 31.5q76 0 127 -37t73 -105l-80 -36q-15 43 -45.5 67t-74.5 24q-54 0 -89 -35.5t-42 -95.5h174v-83h-175q7 -60 42.5 -96t89.5 -36q44 0 74.5 24.5
t46.5 67.5z" />
    <glyph glyph-name="uni0455" unicode="&#x455;" horiz-adv-x="459" 
d="M113.5 21q-48.5 35 -66.5 92l78 38q13 -39 41 -62t65 -23q39 0 64.5 18t25.5 50q0 33 -25.5 52t-84.5 33q-69 16 -108.5 55.5t-39.5 96.5q0 40 22.5 71t61 48.5t84.5 17.5q65 0 108.5 -29t62.5 -81l-70 -35q-13 33 -40.5 52t-61.5 19q-37 0 -61 -17.5t-24 -44.5
q0 -29 26 -49t86 -34q76 -17 114.5 -53t38.5 -99q0 -45 -23.5 -79t-65 -53t-91.5 -19q-68 0 -116.5 35z" />
    <glyph glyph-name="uni0456" unicode="&#x456;" horiz-adv-x="247" 
d="M77.5 601q-19.5 19 -19.5 46t19.5 46t45.5 19q27 0 46 -19t19 -46t-19 -46t-46 -19q-26 0 -45.5 19zM169 0h-91v496h91v-496z" />
    <glyph glyph-name="uni0457" unicode="&#x457;" horiz-adv-x="247" 
d="M169 0h-91v496h91v-496zM-19 603.5q-18 18.5 -18 43.5q0 26 18 44t44 18t44 -18t18 -44t-18 -44t-44 -18t-44 18.5zM177.5 603.5q-18.5 18.5 -18.5 43.5t18.5 43.5t43.5 18.5q26 0 44 -18t18 -44t-18 -44t-44 -18q-25 0 -43.5 18.5z" />
    <glyph glyph-name="uni0458" unicode="&#x458;" horiz-adv-x="247" 
d="M77.5 601q-19.5 19 -19.5 46t19.5 46t45.5 19q27 0 46 -19t19 -46t-19 -46t-46 -19q-26 0 -45.5 19zM-20 -202v85q25 -11 48 -11q24 0 37 16.5t13 48.5v559h91v-555q0 -76 -32 -114.5t-92 -38.5q-38 0 -65 10z" />
    <glyph glyph-name="uni0459" unicode="&#x459;" horiz-adv-x="792" 
d="M11 3v87q27 -19 50 -19q22 0 35 15t15 44l29 366h321v-194h114q74 0 120.5 -38.5t46.5 -108.5v-6q0 -70 -46.5 -109.5t-120.5 -39.5h-205v413h-150l-24 -298q-5 -67 -33.5 -97.5t-88.5 -30.5q-36 0 -63 16zM561 77q43 0 66 18.5t23 52.5v8q0 34 -23 52t-66 18h-100v-149
h100z" />
    <glyph glyph-name="uni045A" unicode="&#x45a;" horiz-adv-x="795" 
d="M78 0v496h91v-190h204v190h91v-190h114q75 0 121 -39.5t46 -111.5v-6q0 -70 -46.5 -109.5t-120.5 -39.5h-205v223h-204v-223h-91zM564 77q43 0 66 18.5t23 52.5v8q0 33 -23 50t-66 17h-100v-146h100z" />
    <glyph glyph-name="uni045B" unicode="&#x45b;" horiz-adv-x="553" 
d="M428.5 458q46.5 -50 46.5 -132v-326h-91v306q0 53 -30 85.5t-77 32.5t-77.5 -33t-30.5 -85v-306h-91v576h-71v68h71v56h91v-56h147v-68h-147v-135q16 28 52.5 47.5t81.5 19.5q79 0 125.5 -50z" />
    <glyph glyph-name="uni045C" unicode="&#x45c;" horiz-adv-x="473" 
d="M334 496h105l-169 -248l169 -248h-105l-145 216h-20v-216h-91v496h91v-216h20zM288 575h-74l77 152h109z" />
    <glyph glyph-name="uni045D" unicode="&#x45d;" horiz-adv-x="548" 
d="M169 0h-91v496h91v-356l210 356h91v-496h-91v356zM311 575h-75l-111 152h109z" />
    <glyph glyph-name="uni045E" unicode="&#x45e;" horiz-adv-x="496" 
d="M376 496h98l-208 -573q-27 -72 -66 -103.5t-104 -31.5q-41 0 -69 13v91q34 -19 71 -19q33 0 54 20t36 63l17 50l-188 490h101l130 -367zM156.5 607q-32.5 36 -32.5 89h65q0 -31 14.5 -48.5t43.5 -17.5t43.5 17.5t14.5 48.5h65q0 -53 -32.5 -89t-90.5 -36t-90.5 36z" />
    <glyph glyph-name="uni045F" unicode="&#x45f;" horiz-adv-x="542" 
d="M373 83v413h91v-496h-149v-122h-88v122h-149v496h91v-413h204z" />
    <glyph glyph-name="uni0462" unicode="&#x462;" horiz-adv-x="644" 
d="M398 386q93 0 147.5 -50t54.5 -143t-54.5 -143t-147.5 -50h-234v508h-145v92h145v100h100v-100h224v-92h-224v-122h134zM391 88q53 0 81 26t28 79t-28 79t-81 26h-127v-210h127z" />
    <glyph glyph-name="uni0463" unicode="&#x463;" horiz-adv-x="550" 
d="M333 302q74 0 120.5 -38.5t46.5 -108.5v-6q0 -70 -46.5 -109.5t-120.5 -39.5h-205v420h-110v76h110v204h91v-204h186v-76h-186v-118h114zM408 156q0 34 -23 52t-66 18h-100v-149h100q43 0 66 18.5t23 52.5v8z" />
    <glyph glyph-name="uni0472" unicode="&#x472;" horiz-adv-x="692" 
d="M501.5 671.5q66.5 -42.5 102.5 -119.5t36 -178v-48q0 -101 -36 -178t-102.5 -119.5t-155.5 -42.5t-155.5 42.5t-102.5 119.5t-36 178v48q0 101 36 178t102.5 119.5t155.5 42.5t155.5 -42.5zM212 565.5q-49 -56.5 -57 -153.5q41 13 86 13q43 0 70.5 -9t58.5 -26
q23 -13 40.5 -19t40.5 -6q43 0 87 16q-1 111 -51 176t-141 65q-85 0 -134 -56.5zM480 134.5q49 56.5 57 153.5q-41 -13 -86 -13q-43 0 -70.5 9t-58.5 26q-23 13 -40.5 19t-40.5 6q-43 0 -87 -16q1 -111 51 -176t141 -65q85 0 134 56.5z" />
    <glyph glyph-name="uni0473" unicode="&#x473;" horiz-adv-x="561" 
d="M399 476.5q52 -31.5 81 -88t29 -127.5v-26q0 -71 -29 -127.5t-81 -88t-118 -31.5t-118 31.5t-81.5 88t-29.5 127.5v26q0 71 29.5 127.5t81.5 88t118 31.5t118 -31.5zM195.5 390q-34.5 -31 -45.5 -84q18 5 36 5q39 0 64 -7.5t52 -21.5q21 -11 37 -16t37 -5q19 0 39 7
q-2 69 -38 111t-96 42q-51 0 -85.5 -31zM365.5 106q34.5 31 45.5 84q-18 -5 -35 -5q-39 0 -64 7.5t-52 21.5q-21 11 -37 16t-37 5q-20 0 -40 -7q2 -69 38.5 -111t96.5 -42q50 0 84.5 31z" />
    <glyph glyph-name="uni0474" unicode="&#x474;" horiz-adv-x="615" 
d="M251 0l-232 700h110l179 -572l149 478q16 53 47.5 80.5t82.5 27.5q65 0 95 -34l-34 -83q-22 22 -48 22q-30 0 -43 -37l-194 -582h-112z" />
    <glyph glyph-name="uni0475" unicode="&#x475;" horiz-adv-x="538" 
d="M190 0l-175 496h98l126 -380l99 297q17 51 42.5 73t72.5 22q22 0 42 -8t33 -22l-36 -77q-17 17 -32 17q-11 0 -20.5 -7.5t-14.5 -21.5l-137 -389h-98z" />
    <glyph glyph-name="uni0490" unicode="&#x490;" 
d="M184 0h-100v700h312v137h100v-229h-312v-608z" />
    <glyph glyph-name="uni0491" unicode="&#x491;" horiz-adv-x="431" 
d="M169 0h-91v496h213v129h91v-212h-213v-413z" />
    <glyph glyph-name="Wgrave" unicode="&#x1e80;" horiz-adv-x="842" 
d="M290 0h-115l-149 700h98l113 -565l133 526h102l133 -526l113 565h98l-149 -700h-115l-131 524zM458 779h-75l-111 152h109z" />
    <glyph glyph-name="wgrave" unicode="&#x1e81;" horiz-adv-x="686" 
d="M242 0h-97l-127 496h93l85 -370l99 370h95l100 -370l84 370h94l-127 -496h-98l-100 387zM380 575h-75l-111 152h109z" />
    <glyph glyph-name="Wacute" unicode="&#x1e82;" horiz-adv-x="842" 
d="M290 0h-115l-149 700h98l113 -565l133 526h102l133 -526l113 565h98l-149 -700h-115l-131 524zM458 779h-74l77 152h109z" />
    <glyph glyph-name="wacute" unicode="&#x1e83;" horiz-adv-x="686" 
d="M242 0h-97l-127 496h93l85 -370l99 370h95l100 -370l84 370h94l-127 -496h-98l-100 387zM380 575h-74l77 152h109z" />
    <glyph glyph-name="Wdieresis" unicode="&#x1e84;" horiz-adv-x="842" 
d="M290 0h-115l-149 700h98l113 -565l133 526h102l133 -526l113 565h98l-149 -700h-115l-131 524zM279 807.5q-18 18.5 -18 43.5q0 26 18 44t44 18t44 -18t18 -44t-18 -44t-44 -18t-44 18.5zM475.5 807.5q-18.5 18.5 -18.5 43.5t18.5 43.5t43.5 18.5q26 0 44 -18t18 -44
t-18 -44t-44 -18q-25 0 -43.5 18.5z" />
    <glyph glyph-name="wdieresis" unicode="&#x1e85;" horiz-adv-x="686" 
d="M242 0h-97l-127 496h93l85 -370l99 370h95l100 -370l84 370h94l-127 -496h-98l-100 387zM201 603.5q-18 18.5 -18 43.5q0 26 18 44t44 18t44 -18t18 -44t-18 -44t-44 -18t-44 18.5zM397.5 603.5q-18.5 18.5 -18.5 43.5t18.5 43.5t43.5 18.5q26 0 44 -18t18 -44t-18 -44
t-44 -18q-25 0 -43.5 18.5z" />
    <glyph glyph-name="uni1E9E" unicode="&#x1e9e;" horiz-adv-x="613" 
d="M241 4v97q40 -26 100 -26q58 0 89 34t31 96v15q0 66 -40 102t-112 36v76l120 178h-139q-106 0 -106 -111v-501h-100v501q0 96 50.5 147.5t143.5 51.5h259v-85l-133 -187q67 -16 110 -68t43 -139v-15q0 -102 -55.5 -160t-154.5 -58q-60 0 -106 16z" />
    <glyph glyph-name="Ygrave" unicode="&#x1ef2;" horiz-adv-x="566" 
d="M333 0h-99v287l-218 413h110l157 -309l158 309h109l-217 -413v-287zM320 779h-75l-111 152h109z" />
    <glyph glyph-name="ygrave" unicode="&#x1ef3;" horiz-adv-x="496" 
d="M376 496h98l-208 -573q-27 -72 -66 -103.5t-104 -31.5q-41 0 -69 13v91q34 -19 71 -19q33 0 54 20t36 63l17 50l-188 490h101l130 -367zM284 575h-75l-111 152h109z" />
    <glyph glyph-name="endash" unicode="&#x2013;" horiz-adv-x="462" 
d="M431 274h-400v78h400v-78z" />
    <glyph glyph-name="emdash" unicode="&#x2014;" horiz-adv-x="648" 
d="M617 274h-586v78h586v-78z" />
    <glyph glyph-name="quoteleft" unicode="&#x2018;" horiz-adv-x="245" 
d="M72 451.5q-19 20.5 -19 52.5q0 31 14 60.5t40 66.5l55 77l27 -16l-42 -78q-12 -25 -18 -49q25 -3 42 -22t17 -45q0 -28 -19.5 -47.5t-47.5 -19.5q-30 0 -49 20.5z" />
    <glyph glyph-name="quoteright" unicode="&#x2019;" horiz-adv-x="245" 
d="M83 431l-27 16l42 78q12 21 18 49q-25 3 -42 22t-17 45q0 28 19.5 47.5t47.5 19.5q30 0 49 -20.5t19 -52.5q0 -31 -14 -60.5t-40 -66.5z" />
    <glyph glyph-name="quotesinglbase" unicode="&#x201a;" horiz-adv-x="245" 
d="M83 -159l-27 16l42 78q12 21 18 49q-25 3 -42 22t-17 45q0 28 19.5 47.5t47.5 19.5q30 0 49 -20.5t19 -52.5q0 -31 -14 -60.5t-40 -66.5z" />
    <glyph glyph-name="quotedblleft" unicode="&#x201c;" horiz-adv-x="428" 
d="M255 451.5q-19 20.5 -19 52.5q0 31 14 60.5t40 66.5l55 77l27 -16l-42 -78q-12 -25 -18 -49q25 -3 42 -22t17 -45q0 -28 -19.5 -47.5t-47.5 -19.5q-30 0 -49 20.5zM72 451.5q-19 20.5 -19 52.5q0 31 14 60.5t40 66.5l55 77l27 -16l-42 -78q-12 -25 -18 -49q25 -3 42 -22
t17 -45q0 -28 -19.5 -47.5t-47.5 -19.5q-30 0 -49 20.5z" />
    <glyph glyph-name="quotedblright" unicode="&#x201d;" horiz-adv-x="428" 
d="M266 431l-27 16l42 78q12 21 18 49q-25 3 -42 22t-17 45q0 28 19.5 47.5t47.5 19.5q30 0 49 -20.5t19 -52.5q0 -31 -14 -60.5t-40 -66.5zM83 431l-27 16l42 78q12 21 18 49q-25 3 -42 22t-17 45q0 28 19.5 47.5t47.5 19.5q30 0 49 -20.5t19 -52.5q0 -31 -14 -60.5
t-40 -66.5z" />
    <glyph glyph-name="quotedblbase" unicode="&#x201e;" horiz-adv-x="428" 
d="M83 -159l-27 16l42 78q12 21 18 49q-25 3 -42 22t-17 45q0 28 19.5 47.5t47.5 19.5q30 0 49 -20.5t19 -52.5q0 -31 -14 -60.5t-40 -66.5zM266 -159l-27 16l42 78q12 21 18 49q-25 3 -42 22t-17 45q0 28 19.5 47.5t47.5 19.5q30 0 49 -20.5t19 -52.5q0 -31 -14 -60.5
t-40 -66.5z" />
    <glyph glyph-name="dagger" unicode="&#x2020;" horiz-adv-x="338" 
d="M209 611h97v-69h-97v-263h-80v263h-97v69h97v97l80 42v-139z" />
    <glyph glyph-name="daggerdbl" unicode="&#x2021;" horiz-adv-x="338" 
d="M306 611v-69h-97v-70h97v-69h-97v-124h-80v124h-97v69h97v70h-97v69h97v97l80 42v-139h97z" />
    <glyph glyph-name="bullet" unicode="&#x2022;" horiz-adv-x="420" 
d="M145 240.5q-30 17.5 -47.5 47.5t-17.5 65t17.5 65t47.5 47.5t65 17.5t65 -17.5t47.5 -47.5t17.5 -65t-17.5 -65t-47.5 -47.5t-65 -17.5t-65 17.5z" />
    <glyph glyph-name="ellipsis" unicode="&#x2026;" horiz-adv-x="694" 
d="M300.5 10.5q-19.5 19.5 -19.5 47.5q0 27 19.5 46.5t47.5 19.5q27 0 46.5 -19.5t19.5 -46.5q0 -28 -19.5 -47.5t-46.5 -19.5q-28 0 -47.5 19.5zM525.5 10.5q-19.5 19.5 -19.5 47.5q0 27 19.5 46.5t47.5 19.5q27 0 46.5 -19.5t19.5 -46.5q0 -28 -19.5 -47.5t-46.5 -19.5
q-28 0 -47.5 19.5zM74.5 10.5q-19.5 19.5 -19.5 47.5q0 27 19.5 46.5t47.5 19.5q27 0 46.5 -19.5t19.5 -46.5q0 -28 -19.5 -47.5t-46.5 -19.5q-28 0 -47.5 19.5z" />
    <glyph glyph-name="perthousand" unicode="&#x2030;" horiz-adv-x="1139" 
d="M114 385.5q-35 20.5 -55 57.5t-20 84v23q0 47 20 84t55 57.5t79 20.5q67 0 111 -45.5t44 -116.5v-23q0 -71 -44 -116.5t-111 -45.5q-44 0 -79 20.5zM237 0h-90l396 700h90zM250 459.5q21 25.5 21 66.5v25q0 40 -21 65.5t-57 25.5q-35 0 -56 -25.5t-21 -65.5v-25
q0 -41 21 -66.5t56 -25.5q36 0 57 25.5zM507 8.5q-35 20.5 -55 57.5t-20 84v23q0 47 20 84t55 57.5t79 20.5q67 0 111 -45.5t44 -116.5v-23q0 -71 -44 -116.5t-111 -45.5q-44 0 -79 20.5zM835.5 33q-43.5 45 -43.5 117v23q0 72 43.5 117t110.5 45t110.5 -45t43.5 -117v-23
q0 -72 -43.5 -117t-110.5 -45t-110.5 45zM642.5 83q20.5 25 20.5 66v25q0 40 -20.5 66t-56.5 26q-35 0 -56 -26t-21 -66v-25q0 -40 21 -65.5t56 -25.5q36 0 56.5 25zM1002 83.5q21 25.5 21 65.5v25q0 40 -21 66t-56 26t-56 -26t-21 -66v-25q0 -40 21 -65.5t56 -25.5t56 25.5
z" />
    <glyph glyph-name="guilsinglleft" unicode="&#x2039;" horiz-adv-x="257" 
d="M136 478h88l-97 -182l97 -182h-88l-100 182z" />
    <glyph glyph-name="guilsinglright" unicode="&#x203a;" horiz-adv-x="257" 
d="M33 478h89l99 -182l-99 -182h-89l98 182z" />
    <glyph glyph-name="fraction" unicode="&#x2044;" horiz-adv-x="318" 
d="M4 0h-89l399 700h89z" />
    <glyph glyph-name="uni2070" unicode="&#x2070;" horiz-adv-x="319" 
d="M58.5 390q-38.5 47 -38.5 125v20q0 78 38.5 125t101.5 47t101.5 -47t38.5 -125v-20q0 -78 -38.5 -125t-101.5 -47t-101.5 47zM208 436.5q18 27.5 18 77.5v22q0 50 -18 77.5t-48 27.5q-31 0 -48.5 -27.5t-17.5 -77.5v-22q0 -50 17.5 -77.5t48.5 -27.5q30 0 48 27.5z" />
    <glyph glyph-name="uni2074" unicode="&#x2074;" horiz-adv-x="286" 
d="M227 350h-68v72h-147v60l147 218h68v-218h48v-60h-48v-72zM159 602l-81 -120h81v120z" />
    <glyph glyph-name="uni2075" unicode="&#x2075;" horiz-adv-x="283" 
d="M61.5 372q-33.5 28 -40.5 73l66 14q4 -23 19 -37t38 -14t37 15t14 41v6q0 26 -14 41t-38 15q-33 0 -51 -30l-61 19l16 185h204v-59h-148l-9 -80q10 9 26.5 15t34.5 6q50 0 80 -30.5t30 -83.5v-6q0 -51 -33 -84.5t-86 -33.5q-51 0 -84.5 28z" />
    <glyph glyph-name="uni2076" unicode="&#x2076;" horiz-adv-x="270" 
d="M52 375.5q-34 31.5 -34 87.5v1q0 33 11 58.5t33 61.5l74 116h70l-87 -133q7 6 21 6q49 0 80 -31t31 -81v-3q0 -50 -33.5 -82t-82.5 -32t-83 31.5zM172 417.5q15 15.5 15 40.5v3q0 24 -15 39.5t-38 15.5t-37.5 -15t-14.5 -40v-3q0 -25 15.5 -40.5t37.5 -15.5t37 15.5z" />
    <glyph glyph-name="uni2077" unicode="&#x2077;" horiz-adv-x="243" 
d="M120 350h-67l112 291h-152v59h216v-59z" />
    <glyph glyph-name="uni2078" unicode="&#x2078;" horiz-adv-x="276" 
d="M54 372.5q-33 28.5 -33 75.5v2q0 30 15 52.5t38 33.5q-18 11 -29.5 30t-11.5 43v2q0 40 29 66.5t76 26.5t76 -26.5t29 -66.5v-2q0 -25 -11.5 -43t-29.5 -30q23 -10 38 -33t15 -53v-2q0 -47 -33 -75.5t-84 -28.5t-84 28.5zM169 569.5q12 12.5 12 32.5v3q0 19 -12 31.5
t-31 12.5t-31.5 -12.5t-12.5 -31.5v-3q0 -20 12.5 -32.5t31.5 -12.5t31 12.5zM175 416.5q14 13.5 14 36.5v3q0 22 -14 36t-37 14t-37 -14t-14 -36v-3q0 -23 14 -36.5t37 -13.5t37 13.5z" />
    <glyph glyph-name="uni2079" unicode="&#x2079;" horiz-adv-x="270" 
d="M152 483q-7 -6 -21 -6q-48 0 -80 31t-32 82v2q0 50 34 82t83 32t82.5 -31.5t33.5 -87.5v-1q0 -32 -10.5 -58.5t-32.5 -61.5l-74 -116h-70zM173.5 549.5q14.5 15.5 14.5 39.5v4q0 25 -15 40.5t-37 15.5t-37.5 -15.5t-15.5 -40.5v-4q0 -24 15.5 -39.5t38.5 -15.5
q22 0 36.5 15.5z" />
    <glyph glyph-name="uni2080" unicode="&#x2080;" horiz-adv-x="319" 
d="M58.5 -70q-38.5 47 -38.5 125v20q0 78 38.5 125t101.5 47t101.5 -47t38.5 -125v-20q0 -78 -38.5 -125t-101.5 -47t-101.5 47zM208 -23.5q18 27.5 18 77.5v22q0 50 -18 77.5t-48 27.5q-31 0 -48.5 -27.5t-17.5 -77.5v-22q0 -50 17.5 -77.5t48.5 -27.5q30 0 48 27.5z" />
    <glyph glyph-name="uni2081" unicode="&#x2081;" horiz-adv-x="195" 
d="M165 -110h-73v277l-80 -52v73l80 52h73v-350z" />
    <glyph glyph-name="uni2082" unicode="&#x2082;" horiz-adv-x="270" 
d="M29 -110v62l107 107q22 21 32 38.5t10 39.5t-13 35t-33 13q-44 0 -53 -52l-62 14q6 45 36 72t79 27q54 0 84.5 -28.5t30.5 -75.5q0 -36 -14.5 -62.5t-46.5 -57.5l-69 -70h135v-62h-223z" />
    <glyph glyph-name="uni2083" unicode="&#x2083;" horiz-adv-x="280" 
d="M178 107q37 -9 59 -35t22 -67v-4q0 -53 -33.5 -85t-88.5 -32q-52 0 -84.5 28.5t-37.5 76.5l63 11q5 -25 19.5 -39.5t38.5 -14.5q25 0 39 15.5t14 40.5v3q0 58 -80 58v48l60 71h-140v58h216v-58z" />
    <glyph glyph-name="uni2084" unicode="&#x2084;" horiz-adv-x="286" 
d="M227 -110h-68v72h-147v60l147 218h68v-218h48v-60h-48v-72zM159 142l-81 -120h81v120z" />
    <glyph glyph-name="uni2085" unicode="&#x2085;" horiz-adv-x="283" 
d="M61.5 -88q-33.5 28 -40.5 73l66 14q4 -23 19 -37t38 -14t37 15t14 41v6q0 26 -14 41t-38 15q-33 0 -51 -30l-61 19l16 185h204v-59h-148l-9 -80q10 9 26.5 15t34.5 6q50 0 80 -30.5t30 -83.5v-6q0 -51 -33 -84.5t-86 -33.5q-51 0 -84.5 28z" />
    <glyph glyph-name="uni2086" unicode="&#x2086;" horiz-adv-x="270" 
d="M52 -84.5q-34 31.5 -34 87.5v1q0 33 11 58.5t33 61.5l74 116h70l-87 -133q7 6 21 6q49 0 80 -31t31 -81v-3q0 -50 -33.5 -82t-82.5 -32t-83 31.5zM172 -42.5q15 15.5 15 40.5v3q0 24 -15 39.5t-38 15.5t-37.5 -15t-14.5 -40v-3q0 -25 15.5 -40.5t37.5 -15.5t37 15.5z" />
    <glyph glyph-name="uni2087" unicode="&#x2087;" horiz-adv-x="243" 
d="M120 -110h-67l112 291h-152v59h216v-59z" />
    <glyph glyph-name="uni2088" unicode="&#x2088;" horiz-adv-x="276" 
d="M54 -87.5q-33 28.5 -33 75.5v2q0 30 15 52.5t38 33.5q-18 11 -29.5 30t-11.5 43v2q0 40 29 66.5t76 26.5t76 -26.5t29 -66.5v-2q0 -25 -11.5 -43t-29.5 -30q23 -10 38 -33t15 -53v-2q0 -47 -33 -75.5t-84 -28.5t-84 28.5zM169 109.5q12 12.5 12 32.5v3q0 19 -12 31.5
t-31 12.5t-31.5 -12.5t-12.5 -31.5v-3q0 -20 12.5 -32.5t31.5 -12.5t31 12.5zM175 -43.5q14 13.5 14 36.5v3q0 22 -14 36t-37 14t-37 -14t-14 -36v-3q0 -23 14 -36.5t37 -13.5t37 13.5z" />
    <glyph glyph-name="uni2089" unicode="&#x2089;" horiz-adv-x="270" 
d="M152 23q-7 -6 -21 -6q-48 0 -80 31t-32 82v2q0 50 34 82t83 32t82.5 -31.5t33.5 -87.5v-1q0 -32 -10.5 -58.5t-32.5 -61.5l-74 -116h-70zM173.5 89.5q14.5 15.5 14.5 39.5v4q0 25 -15 40.5t-37 15.5t-37.5 -15.5t-15.5 -40.5v-4q0 -24 15.5 -39.5t38.5 -15.5
q22 0 36.5 15.5z" />
    <glyph glyph-name="Euro" unicode="&#x20ac;" horiz-adv-x="669" 
d="M624 136q-36 -70 -95.5 -110t-145.5 -40q-113 0 -191 69t-100 187h-75l15 66h53v18v48v18h-68l15 66h60q22 118 100 187t191 69q87 0 147 -37t93 -104l-80 -44q-24 44 -64 69.5t-94 25.5q-74 0 -124 -44.5t-68 -121.5h252l-15 -66h-246v-15v-54v-15h225l-16 -66h-200
q18 -77 68.5 -121.5t123.5 -44.5q104 0 158 104z" />
    <glyph glyph-name="uni20B4" unicode="&#x20b4;" horiz-adv-x="567" 
d="M529 458v-66h-504v66h334q37 30 37 73v1q0 41 -33 66t-86 25q-46 0 -82 -26.5t-56 -73.5l-82 43q28 72 81.5 110t139.5 38q97 0 156 -47t59 -134v-3q0 -38 -22 -72h58zM25 242v66h504v-66h-375q-12 -22 -12 -51v-3q0 -50 36 -80t95 -30q114 0 154 126l89 -40
q-23 -80 -85.5 -129t-157.5 -49q-106 0 -168 52t-62 146v4q0 27 8 54h-26z" />
    <glyph glyph-name="uni20BA" unicode="&#x20ba;" horiz-adv-x="589" 
d="M537 292q0 -131 -67 -211.5t-224 -80.5h-143v142l-75 -55v88l75 55v91l-75 -55v88l75 55v291h100v-217l139 103v-89l-139 -102v-91l139 103v-89l-139 -102v-124h45q98 0 145.5 53t47.5 147h96z" />
    <glyph glyph-name="uni20BD" unicode="&#x20bd;" horiz-adv-x="588" 
d="M208 314v-98h217v-72h-217v-144h-100v144h-82v72h82v484h232q93 0 148.5 -51.5t55.5 -141.5t-55.5 -141.5t-148.5 -51.5h-132zM208 612v-210h125q53 0 82 26.5t29 78.5t-29 78.5t-82 26.5h-125z" />
    <glyph glyph-name="uni2113" unicode="&#x2113;" horiz-adv-x="499" 
d="M358 140l68 -47q-31 -51 -72 -79t-102 -28q-57 0 -97 39.5t-53 111.5l-60 -24l-23 76q47 17 78 31q3 133 36 246t89.5 180.5t127.5 67.5q56 0 85.5 -34.5t29.5 -96.5q0 -112 -67.5 -217t-208.5 -185q4 -53 23.5 -82t50.5 -29q59 0 95 70zM274.5 584q-32.5 -51 -55 -134
t-28.5 -176q95 66 141 149t46 160q0 52 -36 52q-35 0 -67.5 -51z" />
    <glyph glyph-name="uni2116" unicode="&#x2116;" horiz-adv-x="1125" 
d="M765 280q-46 26 -71.5 74t-25.5 111v38q0 63 25.5 111t71.5 74t106 26t106 -26t71 -74t25 -111v-38q0 -63 -25 -111t-71 -74t-106 -26t-106 26zM180 0h-96v700h106l300 -520v520h96v-700h-91l-315 546v-546zM954 370.5q31 35.5 31 93.5v40q0 58 -31 93.5t-83 35.5
q-53 0 -84 -35.5t-31 -93.5v-40q0 -58 31 -93.5t84 -35.5q52 0 83 35.5zM1053 123h-368v74h368v-74z" />
    <glyph glyph-name="trademark" unicode="&#x2122;" horiz-adv-x="508" 
d="M8 700h199v-51h-72v-229h-55v229h-72v51zM361 534l65 166h61v-280h-53v173l-47 -117h-51l-47 117v-173h-53v280h61z" />
    <glyph glyph-name="uni2126" unicode="&#x2126;" horiz-adv-x="671" 
d="M78 0v86h119v24q-63 41 -104 113.5t-41 176.5v27q0 80 33 145t97 103.5t154 38.5q89 0 153 -38.5t97 -103.5t33 -145v-27q0 -104 -41.5 -176.5t-104.5 -113.5v-24h120v-86h-216v138q70 44 106 105.5t36 151.5v31q0 55 -21.5 101t-63 73t-99.5 27t-99.5 -27t-62.5 -73
t-21 -101v-31q0 -90 36 -151.5t106 -105.5v-138h-216z" />
    <glyph glyph-name="estimated" unicode="&#x212e;" horiz-adv-x="820" 
d="M214 113q39 -35 89 -54t107 -19q89 0 159 45t106 120h65q-40 -99 -127.5 -159t-202.5 -60q-102 0 -184 48.5t-128 132t-46 183.5t46 183.5t128 132t184 48.5t184 -48.5t128 -132t46 -183.5h-554v-237zM605 588q-39 34 -88.5 53t-106.5 19t-107 -19t-89 -54v-189h391v190z
" />
    <glyph glyph-name="partialdiff" unicode="&#x2202;" horiz-adv-x="541" 
d="M407 454q42 -65 62 -113.5t20 -112.5v-8q0 -74 -30.5 -126.5t-80 -79t-107.5 -26.5q-60 0 -110.5 28.5t-79.5 80t-29 116.5v9q0 66 27 116.5t75 77.5t109 27q25 0 55 -7l-170 264h102zM399 227q0 62 -19 104q-47 33 -107 33q-56 0 -93.5 -39t-37.5 -103v-10
q0 -64 37 -103t92 -39t91.5 39t36.5 105v13z" />
    <glyph glyph-name="uni2206" unicode="&#x2206;" horiz-adv-x="622" 
d="M575 0h-528v88l207 612h113l208 -612v-88zM311 577l-158 -489h316z" />
    <glyph glyph-name="product" unicode="&#x220f;" horiz-adv-x="707" 
d="M678 700v-92h-112v-812h-100v812h-225v-812h-99v812h-113v92h649z" />
    <glyph glyph-name="summation" unicode="&#x2211;" horiz-adv-x="509" 
d="M467 -128h-418v92l201 322l-201 322v92h408v-92h-300l201 -322l-201 -322h310v-92z" />
    <glyph glyph-name="minus" unicode="&#x2212;" horiz-adv-x="457" 
d="M429 272h-401v83h401v-83z" />
    <glyph glyph-name="uni2215" unicode="&#x2215;" horiz-adv-x="457" 
d="M165 0h-93l221 700h92z" />
    <glyph glyph-name="uni2219" unicode="&#x2219;" horiz-adv-x="457" 
d="M164 202.5q-30 17.5 -47.5 47.5t-17.5 65t17.5 65t47.5 47.5t65 17.5t65 -17.5t47.5 -47.5t17.5 -65t-17.5 -65t-47.5 -47.5t-65 -17.5t-65 17.5z" />
    <glyph glyph-name="radical" unicode="&#x221a;" horiz-adv-x="602" 
d="M295 113l185 587h103l-233 -700h-113l-101 306h-108v80h184z" />
    <glyph glyph-name="infinity" unicode="&#x221e;" horiz-adv-x="792" 
d="M674.5 452.5q40.5 -21.5 63.5 -61t23 -91.5t-23 -91.5t-63.5 -61t-91.5 -21.5q-58 0 -103 27t-84 79q-39 -52 -84 -79t-103 -27q-51 0 -91.5 21.5t-63.5 61t-23 91.5t23 91.5t63.5 61t91.5 21.5q58 0 103 -27t84 -79q39 52 84 79t103 27q51 0 91.5 -21.5zM286.5 225
q31.5 24 65.5 75q-34 51 -65.5 75t-76.5 24q-42 0 -69 -26.5t-27 -72.5t27 -72.5t69 -26.5q45 0 76.5 24zM651 227.5q27 26.5 27 72.5t-27 72.5t-69 26.5q-45 0 -77 -24t-65 -75q33 -51 65 -75t77 -24q42 0 69 26.5z" />
    <glyph glyph-name="integral" unicode="&#x222b;" horiz-adv-x="351" 
d="M-119 -206l15 85q31 -13 61 -13t49.5 18t25.5 50l110 625q28 153 178 153q37 0 71 -12l-15 -85q-33 13 -62 13q-33 0 -54 -18.5t-27 -52.5l-111 -624q-27 -151 -170 -151q-37 0 -71 12z" />
    <glyph glyph-name="approxequal" unicode="&#x2248;" horiz-adv-x="457" 
d="M24 359q11 52 41.5 80.5t76.5 28.5q28 0 50.5 -8.5t52.5 -25.5q22 -12 36 -18t28 -6q42 0 55 55l69 -22q-11 -52 -42 -80.5t-78 -28.5q-27 0 -49.5 8.5t-52.5 25.5q-25 13 -38 18.5t-27 5.5q-21 0 -34 -14.5t-18 -40.5zM24 177q11 52 41.5 80.5t76.5 28.5q28 0 50.5 -8.5
t52.5 -25.5q22 -12 36 -18t28 -6q42 0 55 55l69 -22q-11 -52 -42 -80.5t-78 -28.5q-27 0 -49.5 8.5t-52.5 25.5q-25 13 -38 18.5t-27 5.5q-21 0 -34 -14.5t-18 -40.5z" />
    <glyph glyph-name="notequal" unicode="&#x2260;" horiz-adv-x="457" 
d="M429 460v-83h-116l-73 -127h189v-83h-237l-82 -142l-71 41l58 101h-69v83h117l74 127h-191v83h239l81 141l71 -41l-58 -100h68z" />
    <glyph glyph-name="lessequal" unicode="&#x2264;" horiz-adv-x="457" 
d="M429 225v-85l-401 157v95l401 156v-85l-318 -119zM429 0h-401v83h401v-83z" />
    <glyph glyph-name="greaterequal" unicode="&#x2265;" horiz-adv-x="457" 
d="M429 297l-401 -157v85l319 119l-319 119v85l401 -156v-95zM429 0h-401v83h401v-83z" />
    <glyph glyph-name="lozenge" unicode="&#x25ca;" horiz-adv-x="528" 
d="M207 700h113l189 -350l-189 -350h-113l-188 350zM123 350l141 -266l141 266l-141 266z" />
    <glyph glyph-name="fi" unicode="&#xfb01;" horiz-adv-x="598" 
d="M215 609.5q-18 -18.5 -18 -52.5v-61h133v-79h-133v-417h-91v417h-87v79h87v63q0 73 41 113t111 40q36 0 72 -12v-85q-34 13 -64 13q-33 0 -51 -18.5zM428.5 601q-19.5 19 -19.5 46t19.5 46t45.5 19q27 0 46 -19t19 -46t-19 -46t-46 -19q-26 0 -45.5 19zM520 0h-91v496h91
v-496z" />
    <glyph glyph-name="fl" unicode="&#xfb02;" horiz-adv-x="636" 
d="M215 609.5q-18 -18.5 -18 -52.5v-61h133v-79h-133v-417h-91v417h-87v79h87v63q0 73 41 113t111 40q36 0 72 -12v-85q-34 13 -64 13q-33 0 -51 -18.5zM459.5 24q-30.5 36 -30.5 101v575h91v-573q0 -26 11 -40.5t33 -14.5q19 0 44 11v-84q-27 -11 -62 -11q-56 0 -86.5 36z
" />
    <glyph glyph-name="NULL" horiz-adv-x="600" 
 />
    <glyph glyph-name="i.loclTRK" horiz-adv-x="247" 
d="M169 0h-91v496h91v-496zM77.5 601q-19.5 19 -19.5 46t19.5 46t45.5 19q28 0 46.5 -19t18.5 -46t-18.5 -46t-46.5 -19q-26 0 -45.5 19z" />
    <glyph glyph-name="a.ss01" horiz-adv-x="569" 
d="M151.5 18.5q-46.5 30.5 -73 86.5t-26.5 130v26q0 74 26.5 130t74 86.5t107.5 30.5q48 0 84 -18.5t56 -49.5v56h91v-496h-91v63q-45 -75 -142 -75q-60 0 -106.5 30.5zM368 118q36 43 36 116v28q0 73 -36 116t-93 43t-93 -43t-36 -116v-28q0 -73 36 -116t93 -43t93 43z" />
    <glyph glyph-name="aacute.ss01" horiz-adv-x="569" 
d="M151.5 18.5q-46.5 30.5 -73 86.5t-26.5 130v26q0 74 26.5 130t74 86.5t107.5 30.5q48 0 84 -18.5t56 -49.5v56h91v-496h-91v63q-45 -75 -142 -75q-60 0 -106.5 30.5zM368 118q36 43 36 116v28q0 73 -36 116t-93 43t-93 -43t-36 -116v-28q0 -73 36 -116t93 -43t93 43z
M316 575h-74l77 152h109z" />
    <glyph glyph-name="abreve.ss01" horiz-adv-x="569" 
d="M151.5 18.5q-46.5 30.5 -73 86.5t-26.5 130v26q0 74 26.5 130t74 86.5t107.5 30.5q48 0 84 -18.5t56 -49.5v56h91v-496h-91v63q-45 -75 -142 -75q-60 0 -106.5 30.5zM368 118q36 43 36 116v28q0 73 -36 116t-93 43t-93 -43t-36 -116v-28q0 -73 36 -116t93 -43t93 43z
M200.5 603.5q-28.5 32.5 -28.5 80.5h65q0 -25 10.5 -39.5t31.5 -14.5t31.5 14.5t10.5 39.5h65q0 -48 -28.5 -80.5t-78.5 -32.5t-78.5 32.5z" />
    <glyph glyph-name="acircumflex.ss01" horiz-adv-x="569" 
d="M151.5 18.5q-46.5 30.5 -73 86.5t-26.5 130v26q0 74 26.5 130t74 86.5t107.5 30.5q48 0 84 -18.5t56 -49.5v56h91v-496h-91v63q-45 -75 -142 -75q-60 0 -106.5 30.5zM368 118q36 43 36 116v28q0 73 -36 116t-93 43t-93 -43t-36 -116v-28q0 -73 36 -116t93 -43t93 43z
M212 575h-71l99 152h77l99 -152h-70l-67 80z" />
    <glyph glyph-name="adieresis.ss01" horiz-adv-x="569" 
d="M151.5 18.5q-46.5 30.5 -73 86.5t-26.5 130v26q0 74 26.5 130t74 86.5t107.5 30.5q48 0 84 -18.5t56 -49.5v56h91v-496h-91v63q-45 -75 -142 -75q-60 0 -106.5 30.5zM368 118q36 43 36 116v28q0 73 -36 116t-93 43t-93 -43t-36 -116v-28q0 -73 36 -116t93 -43t93 43z
M137 603.5q-18 18.5 -18 43.5q0 26 18 44t44 18t44 -18t18 -44t-18 -44t-44 -18t-44 18.5zM333.5 603.5q-18.5 18.5 -18.5 43.5t18.5 43.5t43.5 18.5q26 0 44 -18t18 -44t-18 -44t-44 -18q-25 0 -43.5 18.5z" />
    <glyph glyph-name="agrave.ss01" horiz-adv-x="569" 
d="M151.5 18.5q-46.5 30.5 -73 86.5t-26.5 130v26q0 74 26.5 130t74 86.5t107.5 30.5q48 0 84 -18.5t56 -49.5v56h91v-496h-91v63q-45 -75 -142 -75q-60 0 -106.5 30.5zM368 118q36 43 36 116v28q0 73 -36 116t-93 43t-93 -43t-36 -116v-28q0 -73 36 -116t93 -43t93 43z
M316 575h-75l-111 152h109z" />
    <glyph glyph-name="amacron.ss01" horiz-adv-x="569" 
d="M151.5 18.5q-46.5 30.5 -73 86.5t-26.5 130v26q0 74 26.5 130t74 86.5t107.5 30.5q48 0 84 -18.5t56 -49.5v56h91v-496h-91v63q-45 -75 -142 -75q-60 0 -106.5 30.5zM368 118q36 43 36 116v28q0 73 -36 116t-93 43t-93 -43t-36 -116v-28q0 -73 36 -116t93 -43t93 43z
M394 616h-229v71h229v-71z" />
    <glyph glyph-name="aogonek.ss01" horiz-adv-x="569" 
d="M501 -130v-62q-22 -11 -50 -11q-41 0 -68 24t-27 71q0 36 13 64.5t31 43.5v63q-45 -75 -142 -75q-60 0 -106.5 30.5t-73 86.5t-26.5 130v26q0 74 26.5 130t74 86.5t107.5 30.5q48 0 84 -18.5t56 -49.5v56h91v-496q-30 -18 -48 -43.5t-18 -53.5q0 -19 11 -30t29 -11t36 8z
M368 118q36 43 36 116v28q0 73 -36 116t-93 43t-93 -43t-36 -116v-28q0 -73 36 -116t93 -43t93 43z" />
    <glyph glyph-name="aring.ss01" horiz-adv-x="569" 
d="M151.5 18.5q-46.5 30.5 -73 86.5t-26.5 130v26q0 74 26.5 130t74 86.5t107.5 30.5q48 0 84 -18.5t56 -49.5v56h91v-496h-91v63q-45 -75 -142 -75q-60 0 -106.5 30.5zM368 118q36 43 36 116v28q0 73 -36 116t-93 43t-93 -43t-36 -116v-28q0 -73 36 -116t93 -43t93 43z
M211 588.5q-27 28.5 -27 72.5v3q0 43 27 71.5t68 28.5t68 -28.5t27 -71.5v-3q0 -44 -27 -72.5t-68 -28.5t-68 28.5zM307 627q11 13 11 33v4q0 20 -11 33t-28 13t-28 -13t-11 -33v-4q0 -20 11 -33t28 -13t28 13z" />
    <glyph glyph-name="atilde.ss01" horiz-adv-x="569" 
d="M151.5 18.5q-46.5 30.5 -73 86.5t-26.5 130v26q0 74 26.5 130t74 86.5t107.5 30.5q48 0 84 -18.5t56 -49.5v56h91v-496h-91v63q-45 -75 -142 -75q-60 0 -106.5 30.5zM368 118q36 43 36 116v28q0 73 -36 116t-93 43t-93 -43t-36 -116v-28q0 -73 36 -116t93 -43t93 43z
M133 627q9 37 31.5 56.5t55.5 19.5q22 0 36.5 -5.5t34.5 -16.5q13 -8 21 -11.5t17 -3.5q15 0 25 9t16 27l54 -22q-9 -37 -31.5 -56.5t-56.5 -19.5q-21 0 -36 5.5t-33 16.5q-10 6 -20.5 10.5t-19.5 4.5q-29 0 -40 -35z" />
    <glyph glyph-name="ae.ss01" horiz-adv-x="891" 
d="M839 230h-348q0 -73 37 -117.5t96 -44.5q46 0 75.5 22.5t46.5 64.5l81 -30q-53 -137 -196 -137q-42 0 -77.5 17t-62.5 48v-53h-91v63q-45 -75 -142 -75q-60 0 -106.5 30.5t-73 86.5t-26.5 130v26q0 74 26.5 130t74 86.5t107.5 30.5q48 0 84 -18.5t56 -49.5v56h91v-53
q27 31 62.5 48t77.5 17q58 0 105.5 -28t75 -82t27.5 -130v-38zM534.5 393.5q-34.5 -35.5 -41.5 -95.5h255q-4 60 -38.5 95.5t-85.5 35.5q-55 0 -89.5 -35.5zM404 262q0 73 -36 116t-93 43t-93 -43t-36 -116v-28q0 -73 36 -116t93 -43t93 43t36 116v28z" />
    <glyph glyph-name="aeacute.ss01" horiz-adv-x="891" 
d="M839 230h-348q0 -73 37 -117.5t96 -44.5q46 0 75.5 22.5t46.5 64.5l81 -30q-53 -137 -196 -137q-42 0 -77.5 17t-62.5 48v-53h-91v63q-45 -75 -142 -75q-60 0 -106.5 30.5t-73 86.5t-26.5 130v26q0 74 26.5 130t74 86.5t107.5 30.5q48 0 84 -18.5t56 -49.5v56h91v-53
q27 31 62.5 48t77.5 17q58 0 105.5 -28t75 -82t27.5 -130v-38zM534.5 393.5q-34.5 -35.5 -41.5 -95.5h255q-4 60 -38.5 95.5t-85.5 35.5q-55 0 -89.5 -35.5zM404 262q0 73 -36 116t-93 43t-93 -43t-36 -116v-28q0 -73 36 -116t93 -43t93 43t36 116v28zM483 575h-74l77 152
h109z" />
    <glyph glyph-name="l.ss02" horiz-adv-x="247" 
d="M169 0h-91v700h91v-700z" />
    <glyph glyph-name="lacute.ss02" horiz-adv-x="247" 
d="M169 0h-91v700h91v-700zM160 779h-74l77 152h109z" />
    <glyph glyph-name="lcaron.ss02" horiz-adv-x="364" 
d="M169 0h-91v700h91v-700zM274 474l-25 17l26 48q18 32 21 48q-22 4 -37.5 20.5t-15.5 39.5q0 26 17.5 43.5t43.5 17.5q27 0 43.5 -17.5t16.5 -46.5t-12 -54.5t-38 -61.5z" />
    <glyph glyph-name="uni013C.ss02" horiz-adv-x="247" 
d="M169 0h-91v700h91v-700zM102 -245l-19 13l18 28q13 19 16 39q-19 2 -32 14.5t-13 32.5q0 22 14 37t37 15t37 -15t14 -38q0 -51 -48 -101z" />
    <glyph glyph-name="ldot.ss02" horiz-adv-x="403" 
d="M169 0h-91v700h91v-700zM278.5 302.5q-19.5 19.5 -19.5 47.5q0 27 19.5 46.5t47.5 19.5q27 0 46.5 -19.5t19.5 -46.5q0 -28 -19.5 -47.5t-46.5 -19.5q-28 0 -47.5 19.5z" />
    <glyph glyph-name="lslash.ss02" horiz-adv-x="247" 
d="M169 396l70 57v-94l-70 -57v-302h-91v227l-70 -57v94l70 57v379h91v-304z" />
    <glyph glyph-name="f_l.ss02" horiz-adv-x="598" 
d="M215 609.5q-18 -18.5 -18 -52.5v-61h133v-79h-133v-417h-91v417h-87v79h87v63q0 73 41 113t111 40q36 0 72 -12v-85q-34 13 -64 13q-33 0 -51 -18.5zM520 0h-91v700h91v-700z" />
    <glyph glyph-name="fl.ss02" horiz-adv-x="598" 
d="M215 609.5q-18 -18.5 -18 -52.5v-61h133v-79h-133v-417h-91v417h-87v79h87v63q0 73 41 113t111 40q36 0 72 -12v-85q-34 13 -64 13q-33 0 -51 -18.5zM520 0h-91v700h91v-700z" />
    <glyph glyph-name="ordfeminine.ss01" horiz-adv-x="360" 
d="M64.5 418.5q-38.5 44.5 -38.5 116.5v11q0 72 38.5 116.5t99.5 44.5q30 0 53.5 -11t37.5 -31v34h64v-317h-64v39q-15 -23 -38.5 -35t-53.5 -12q-60 0 -98.5 44.5zM234.5 462.5q23.5 27.5 23.5 72.5v11q0 45 -23.5 73t-59.5 28t-59.5 -28t-23.5 -73v-11q0 -45 23.5 -72.5
t59.5 -27.5t59.5 27.5z" />
    <glyph glyph-name="uni0414.loclBGR" horiz-adv-x="700" 
d="M407 700l206 -608h58v-234h-95v142h-452v-142h-95v234h58l206 608h114zM350 583l-160 -491h320z" />
    <glyph glyph-name="uni041B.loclBGR" horiz-adv-x="615" 
d="M129 0h-110l232 700h112l233 -700h-109l-179 572z" />
    <glyph glyph-name="uni0432.loclBGR" horiz-adv-x="502" 
d="M113.5 37q-45.5 51 -45.5 160v334q0 78 45.5 130.5t136.5 52.5q85 0 129.5 -49.5t44.5 -132.5v-14q0 -54 -26.5 -89.5t-64.5 -50.5q50 -17 79.5 -56t29.5 -100v-31q0 -96 -49 -150.5t-138 -54.5q-96 0 -141.5 51zM230 406q51 0 79.5 25.5t28.5 77.5v24q0 49 -24 78
t-65 29q-90 0 -90 -111v-123h71zM325 95q26 32 26 95v33q0 53 -32 83t-88 30h-72v-142q0 -65 23 -98t73 -33q44 0 70 32z" />
    <glyph glyph-name="uni0433.loclBGR" horiz-adv-x="459" 
d="M137.5 5q-41.5 19 -65 53t-23.5 79q0 63 38.5 99t114.5 53q60 14 86 34t26 49q0 27 -24 44.5t-61 17.5q-34 0 -61.5 -19t-40.5 -52l-70 35q19 52 62.5 81t108.5 29q46 0 84.5 -17.5t61 -48.5t22.5 -71q0 -57 -39.5 -96.5t-108.5 -55.5q-59 -14 -84.5 -33t-25.5 -52
q0 -32 25.5 -50t64.5 -18q37 0 65 23t41 62l78 -38q-18 -57 -66.5 -92t-116.5 -35q-50 0 -91.5 19z" />
    <glyph glyph-name="uni0434.loclBGR" horiz-adv-x="569" 
d="M141 -181q-54 35 -78 93l80 43q37 -86 130 -86q61 0 94 40t33 107v66q-21 -34 -57 -54.5t-87 -20.5q-59 0 -105.5 29.5t-72.5 84t-26 126.5v21q0 72 26.5 126.5t73 84t105.5 29.5q49 0 85.5 -19.5t57.5 -51.5v59h91v-478q0 -108 -58 -171t-160 -63q-78 0 -132 35z
M369.5 135q34.5 42 34.5 112v21q0 70 -34.5 112t-94.5 42t-94.5 -42t-34.5 -112v-21q0 -70 34.5 -112t94.5 -42t94.5 42z" />
    <glyph glyph-name="uni0436.loclBGR" horiz-adv-x="687" 
d="M551 496h102l-170 -248l170 -248h-101l-143 216h-20v-216h-91v216h-20l-143 -216h-101l170 248l-170 248h102l142 -216h20v420h91v-420h20z" />
    <glyph glyph-name="uni0437.loclBGR" horiz-adv-x="512" 
d="M104.5 -166q-55.5 52 -66.5 140l86 15q7 -62 41 -96t86 -34q58 0 90.5 35.5t32.5 102.5v18q0 123 -134 123h-55v68h56q50 0 83 32.5t33 86.5q0 49 -30 78.5t-85 29.5q-46 0 -79.5 -30.5t-41.5 -82.5l-77 18q11 78 63.5 123.5t134.5 45.5q95 0 149 -47.5t54 -129.5
q0 -55 -28.5 -93t-70.5 -57q56 -20 87.5 -58t31.5 -109v-15q0 -101 -58 -158.5t-157 -57.5q-90 0 -145.5 52z" />
    <glyph glyph-name="uni0438.loclBGR" 
d="M122 36.5q-44 48.5 -44 132.5v327h91v-311q0 -53 28.5 -83t75.5 -30t75.5 31t28.5 82v311h91v-496h-91v55q-16 -29 -51 -48t-80 -19q-80 0 -124 48.5z" />
    <glyph glyph-name="uni0439.loclBGR" 
d="M122 36.5q-44 48.5 -44 132.5v327h91v-311q0 -53 28.5 -83t75.5 -30t75.5 31t28.5 82v311h91v-496h-91v55q-16 -29 -51 -48t-80 -19q-80 0 -124 48.5zM182.5 607q-32.5 36 -32.5 89h65q0 -31 14.5 -48.5t43.5 -17.5t43.5 17.5t14.5 48.5h65q0 -53 -32.5 -89t-90.5 -36
t-90.5 36z" />
    <glyph glyph-name="uni043A.loclBGR" horiz-adv-x="473" 
d="M334 496h105l-169 -248l169 -248h-105l-145 216h-20v-216h-91v700h91v-420h20z" />
    <glyph glyph-name="uni043B.loclBGR" horiz-adv-x="478" 
d="M113 0h-98l175 496h98l175 -496h-98l-126 380z" />
    <glyph glyph-name="uni043F.loclBGR" 
d="M78 0v496h91v-55q15 29 50.5 48t80.5 19q79 0 123.5 -48.5t44.5 -131.5v-328h-91v311q0 52 -28.5 82.5t-75.5 30.5t-75.5 -30.5t-28.5 -82.5v-311h-91z" />
    <glyph glyph-name="uni0442.loclBGR" horiz-adv-x="775" 
d="M78 0v496h90v-51q13 26 45 44.5t74 18.5q44 0 76.5 -19t48.5 -52q19 32 54.5 51.5t81.5 19.5q71 0 110 -44.5t39 -119.5v-344h-90v329q0 44 -24 70t-63 26t-63 -27t-24 -70v-328h-91v329q0 45 -24 70.5t-63 25.5t-63 -27t-24 -70v-328h-90z" />
    <glyph glyph-name="uni0446.loclBGR" horiz-adv-x="580" 
d="M443 -122v122h-66v55q-16 -29 -51 -48t-80 -19q-80 0 -124 48.5t-44 132.5v327h91v-311q0 -53 28.5 -83t75.5 -30t75.5 31t28.5 82v311h91v-413h63v-205h-88z" />
    <glyph glyph-name="uni0448.loclBGR" horiz-adv-x="775" 
d="M117 32.5q-39 44.5 -39 119.5v344h90v-329q0 -44 24 -70t63 -26t63 27t24 70v328h91v-329q0 -45 24 -70.5t63 -25.5t63 27t24 70v328h90v-496h-90v51q-13 -26 -45 -44.5t-74 -18.5q-44 0 -76.5 19t-48.5 52q-19 -32 -54.5 -51.5t-81.5 -19.5q-71 0 -110 44.5z" />
    <glyph glyph-name="uni0449.loclBGR" horiz-adv-x="809" 
d="M672 -122v122h-65v51q-13 -26 -45 -44.5t-74 -18.5q-44 0 -76.5 19t-48.5 52q-19 -32 -54.5 -51.5t-81.5 -19.5q-71 0 -110 44.5t-39 119.5v344h90v-329q0 -44 24 -70t63 -26t63 27t24 70v328h91v-329q0 -45 24 -70.5t63 -25.5t63 27t24 70v328h90v-413h63v-205h-88z" />
    <glyph glyph-name="uni044C.loclBGR" horiz-adv-x="500" 
d="M126 38.5q-48 52.5 -48 139.5v318h91v-194q42 30 114 30q74 0 120.5 -44t46.5 -123v-6q0 -79 -53 -126t-135 -47q-88 0 -136 52.5zM358 158v8q0 44 -23 67t-66 23q-27 0 -55.5 -8t-44.5 -22v-52q0 -51 24 -81t69 -30q96 0 96 95z" />
    <glyph glyph-name="uni044A.loclBGR" horiz-adv-x="558" 
d="M184 38.5q-48 52.5 -48 139.5v235h-130v83h221v-194q42 30 114 30q74 0 120.5 -44t46.5 -123v-6q0 -79 -53 -126t-135 -47q-88 0 -136 52.5zM416 158v8q0 44 -23 67t-66 23q-27 0 -55.5 -8t-44.5 -22v-52q0 -51 24 -81t69 -30q96 0 96 95z" />
    <glyph glyph-name="uni044E.loclBGR" horiz-adv-x="743" 
d="M581 476.5q52 -31.5 81 -88t29 -127.5v-26q0 -71 -29 -127.5t-81 -88t-118 -31.5q-64 0 -115.5 30t-81.5 83.5t-32 121.5h-65v-223h-91v700h91v-394h68q14 91 75.5 146.5t150.5 55.5q66 0 118 -31.5zM597 262q0 72 -36.5 115.5t-97.5 43.5q-62 0 -98.5 -43.5
t-36.5 -115.5v-28q0 -72 36.5 -115.5t98.5 -43.5q61 0 97.5 43.5t36.5 115.5v28z" />
    <glyph glyph-name="zero.lf" horiz-adv-x="588" 
d="M162 27q-55 41 -84 117t-29 180v52q0 104 29 180t84 117t132 41t132 -41t84 -117t29 -180v-52q0 -104 -29 -180t-84 -117t-132 -41t-132 41zM403.5 138.5q38.5 64.5 38.5 183.5v56q0 119 -38.5 183.5t-109.5 64.5t-109.5 -64.5t-38.5 -183.5v-56q0 -119 38.5 -183.5
t109.5 -64.5t109.5 64.5z" />
    <glyph glyph-name="one.lf" horiz-adv-x="371" 
d="M287 0h-96v598l-153 -112v102l153 112h96v-700z" />
    <glyph glyph-name="two.lf" horiz-adv-x="519" 
d="M65 0v85l212 238q44 50 64 91.5t20 90.5q0 58 -29.5 90t-79.5 32q-48 0 -78.5 -31t-40.5 -93l-86 21q11 86 66 137t139 51q63 0 109 -25.5t70.5 -71t24.5 -103.5q0 -71 -26.5 -124.5t-84.5 -119.5l-160 -183h283v-85h-403z" />
    <glyph glyph-name="three.lf" horiz-adv-x="541" 
d="M312 432q81 -14 127 -66.5t46 -142.5v-10q0 -66 -27 -117t-76 -79.5t-114 -28.5q-96 0 -154.5 54t-69.5 150l87 17q11 -63 46 -99t90 -36q57 0 89.5 38t32.5 101v9q0 141 -171 141v74l138 181h-289v82h391v-82z" />
    <glyph glyph-name="four.lf" horiz-adv-x="534" 
d="M409 0h-92v163h-280v87l280 450h92v-451h92v-86h-92v-163zM317 552l-186 -303h186v303z" />
    <glyph glyph-name="five.lf" horiz-adv-x="547" 
d="M127.5 41.5q-59.5 53.5 -72.5 146.5l90 18q10 -60 45 -94.5t90 -34.5q57 0 91 38.5t34 104.5v15q0 67 -34 106.5t-96 39.5q-37 0 -68.5 -20t-51.5 -54l-82 28l28 365h374v-84h-296l-21 -207q23 25 58 40t76 15q97 0 152.5 -62.5t55.5 -166.5v-17q0 -64 -27.5 -116.5
t-77.5 -83t-115 -30.5q-93 0 -152.5 53.5z" />
    <glyph glyph-name="six.lf" horiz-adv-x="530" 
d="M157 14.5q-50 26.5 -80 79t-30 126.5v8q0 63 20 112t61 113l157 247h103l-182 -277q12 9 30.5 14.5t37.5 5.5q61 0 108.5 -27t74 -77.5t26.5 -116.5v-9q0 -65 -29 -116.5t-79 -80t-110 -28.5q-58 0 -108 26.5zM357 109q37 39 37 103v10q0 64 -37.5 103t-93.5 39
t-91.5 -39t-35.5 -103v-10q0 -64 37 -103t92 -39t92 39z" />
    <glyph glyph-name="seven.lf" horiz-adv-x="468" 
d="M213 0h-94l222 616h-305v84h394v-84z" />
    <glyph glyph-name="eight.lf" horiz-adv-x="521" 
d="M152.5 13q-47.5 25 -74.5 71t-27 107v7q0 64 29 108.5t74 65.5q-36 22 -58.5 59.5t-22.5 88.5v8q0 51 23.5 92t66.5 64.5t98 23.5q54 0 97 -23.5t66.5 -64.5t23.5 -92v-8q0 -51 -22.5 -88.5t-58.5 -59.5q45 -21 74 -65.5t29 -108.5v-7q0 -61 -27 -107t-74.5 -71
t-107.5 -25q-61 0 -108.5 25zM333.5 434q28.5 29 28.5 78v8q0 49 -28.5 78t-72.5 29q-45 0 -73.5 -29t-28.5 -78v-8q0 -49 28.5 -78t73.5 -29q44 0 72.5 29zM346 105.5q33 33.5 33 89.5v9q0 56 -33 89.5t-85 33.5t-85.5 -33.5t-33.5 -89.5v-9q0 -56 33 -89.5t86 -33.5
q52 0 85 33.5z" />
    <glyph glyph-name="nine.lf" horiz-adv-x="530" 
d="M324 277q-11 -10 -29.5 -15t-38.5 -5q-60 0 -107.5 27t-74.5 77.5t-27 116.5v9q0 66 29 117t79 79.5t111 28.5q59 0 108.5 -26.5t79 -79t29.5 -126.5v-8q0 -62 -19.5 -111t-60.5 -114l-158 -247h-102zM358.5 375q35.5 39 35.5 103v10q0 64 -36.5 103t-91.5 39t-92.5 -39
t-37.5 -103v-10q0 -64 38 -103t93 -39q56 0 91.5 39z" />
    <glyph glyph-name="zero.tf" horiz-adv-x="560" 
d="M105 76.5q-63 90.5 -63 247.5v52q0 157 63 247.5t175 90.5t175 -90.5t63 -247.5v-52q0 -157 -63 -247.5t-175 -90.5t-175 90.5zM384.5 138.5q36.5 64.5 36.5 183.5v56q0 119 -36.5 183.5t-104.5 64.5t-104.5 -64.5t-36.5 -183.5v-56q0 -119 36.5 -183.5t104.5 -64.5
t104.5 64.5z" />
    <glyph glyph-name="one.tf" horiz-adv-x="560" 
d="M406 0h-97v598l-195 -108v100l195 110h97v-700z" />
    <glyph glyph-name="two.tf" horiz-adv-x="560" 
d="M89 0v85l212 238q44 50 64 91.5t20 90.5q0 58 -29.5 90t-79.5 32q-48 0 -78.5 -31t-40.5 -93l-86 21q11 86 66 137t139 51q63 0 109 -25.5t70.5 -71t24.5 -103.5q0 -71 -26.5 -124.5t-84.5 -119.5l-160 -183h283v-85h-403z" />
    <glyph glyph-name="three.tf" horiz-adv-x="560" 
d="M321 432q81 -14 127 -66.5t46 -142.5v-10q0 -66 -27 -117t-76 -79.5t-114 -28.5q-96 0 -154.5 54t-69.5 150l87 17q11 -63 46 -99t90 -36q57 0 89.5 38t32.5 101v9q0 141 -171 141v74l138 181h-289v82h391v-82z" />
    <glyph glyph-name="four.tf" horiz-adv-x="560" 
d="M433 0h-92v163h-283v87l283 450h92v-451h82v-86h-82v-163zM341 552l-189 -303h189v303z" />
    <glyph glyph-name="five.tf" horiz-adv-x="560" 
d="M129.5 41.5q-59.5 53.5 -72.5 146.5l90 18q10 -60 45 -94.5t90 -34.5q57 0 91 38.5t34 104.5v15q0 67 -34 106.5t-96 39.5q-37 0 -68.5 -20t-51.5 -54l-82 28l28 365h374v-84h-296l-21 -207q23 25 58 40t76 15q97 0 152.5 -62.5t55.5 -166.5v-17q0 -64 -27.5 -116.5
t-77.5 -83t-115 -30.5q-93 0 -152.5 53.5z" />
    <glyph glyph-name="six.tf" horiz-adv-x="560" 
d="M172 14.5q-50 26.5 -80 79t-30 126.5v8q0 63 20 112t61 113l157 247h103l-182 -277q12 9 30.5 14.5t37.5 5.5q61 0 108.5 -27t74 -77.5t26.5 -116.5v-9q0 -65 -29 -116.5t-79 -80t-110 -28.5q-58 0 -108 26.5zM372 109q37 39 37 103v10q0 64 -37.5 103t-93.5 39
t-91.5 -39t-35.5 -103v-10q0 -64 37 -103t92 -39t92 39z" />
    <glyph glyph-name="seven.tf" horiz-adv-x="560" 
d="M253 0h-94l248 616h-337v84h426v-84z" />
    <glyph glyph-name="eight.tf" horiz-adv-x="560" 
d="M171.5 13q-47.5 25 -74.5 71t-27 107v7q0 64 29 108.5t74 65.5q-36 22 -58.5 59.5t-22.5 88.5v8q0 51 23.5 92t66.5 64.5t98 23.5q54 0 97 -23.5t66.5 -64.5t23.5 -92v-8q0 -51 -22.5 -88.5t-58.5 -59.5q45 -21 74 -65.5t29 -108.5v-7q0 -61 -27 -107t-74.5 -71
t-107.5 -25q-61 0 -108.5 25zM352.5 434q28.5 29 28.5 78v8q0 49 -28.5 78t-72.5 29q-45 0 -73.5 -29t-28.5 -78v-8q0 -49 28.5 -78t73.5 -29q44 0 72.5 29zM365 105.5q33 33.5 33 89.5v9q0 56 -33 89.5t-85 33.5t-85.5 -33.5t-33.5 -89.5v-9q0 -56 33 -89.5t86 -33.5
q52 0 85 33.5z" />
    <glyph glyph-name="nine.tf" horiz-adv-x="560" 
d="M339 277q-11 -10 -29.5 -15t-38.5 -5q-60 0 -107.5 27t-74.5 77.5t-27 116.5v9q0 66 29 117t79 79.5t111 28.5q59 0 108.5 -26.5t79 -79t29.5 -126.5v-8q0 -62 -19.5 -111t-60.5 -114l-158 -247h-102zM373.5 375q35.5 39 35.5 103v10q0 64 -36.5 103t-91.5 39t-92.5 -39
t-37.5 -103v-10q0 -64 38 -103t93 -39q56 0 91.5 39z" />
    <glyph glyph-name="zero.dnom" horiz-adv-x="319" 
d="M58.5 40q-38.5 47 -38.5 125v20q0 78 38.5 125t101.5 47t101.5 -47t38.5 -125v-20q0 -78 -38.5 -125t-101.5 -47t-101.5 47zM208 86.5q18 27.5 18 77.5v22q0 50 -18 77.5t-48 27.5q-31 0 -48.5 -27.5t-17.5 -77.5v-22q0 -50 17.5 -77.5t48.5 -27.5q30 0 48 27.5z" />
    <glyph glyph-name="one.dnom" horiz-adv-x="195" 
d="M165 0h-73v277l-80 -52v73l80 52h73v-350z" />
    <glyph glyph-name="two.dnom" horiz-adv-x="270" 
d="M29 0v62l107 107q22 21 32 38.5t10 39.5t-13 35t-33 13q-44 0 -53 -52l-62 14q6 45 36 72t79 27q54 0 84.5 -28.5t30.5 -75.5q0 -36 -14.5 -62.5t-46.5 -57.5l-69 -70h135v-62h-223z" />
    <glyph glyph-name="three.dnom" horiz-adv-x="280" 
d="M178 217q37 -9 59 -35t22 -67v-4q0 -53 -33.5 -85t-88.5 -32q-52 0 -84.5 28.5t-37.5 76.5l63 11q5 -25 19.5 -39.5t38.5 -14.5q25 0 39 15.5t14 40.5v3q0 58 -80 58v48l60 71h-140v58h216v-58z" />
    <glyph glyph-name="four.dnom" horiz-adv-x="286" 
d="M227 0h-68v72h-147v60l147 218h68v-218h48v-60h-48v-72zM159 252l-81 -120h81v120z" />
    <glyph glyph-name="five.dnom" horiz-adv-x="283" 
d="M61.5 22q-33.5 28 -40.5 73l66 14q4 -23 19 -37t38 -14t37 15t14 41v6q0 26 -14 41t-38 15q-33 0 -51 -30l-61 19l16 185h204v-59h-148l-9 -80q10 9 26.5 15t34.5 6q50 0 80 -30.5t30 -83.5v-6q0 -51 -33 -84.5t-86 -33.5q-51 0 -84.5 28z" />
    <glyph glyph-name="six.dnom" horiz-adv-x="270" 
d="M52 25.5q-34 31.5 -34 87.5v1q0 33 11 58.5t33 61.5l74 116h70l-87 -133q7 6 21 6q49 0 80 -31t31 -81v-3q0 -50 -33.5 -82t-82.5 -32t-83 31.5zM172 67.5q15 15.5 15 40.5v3q0 24 -15 39.5t-38 15.5t-37.5 -15t-14.5 -40v-3q0 -25 15.5 -40.5t37.5 -15.5t37 15.5z" />
    <glyph glyph-name="seven.dnom" horiz-adv-x="243" 
d="M120 0h-67l112 291h-152v59h216v-59z" />
    <glyph glyph-name="eight.dnom" horiz-adv-x="276" 
d="M54 22.5q-33 28.5 -33 75.5v2q0 30 15 52.5t38 33.5q-18 11 -29.5 30t-11.5 43v2q0 40 29 66.5t76 26.5t76 -26.5t29 -66.5v-2q0 -25 -11.5 -43t-29.5 -30q23 -10 38 -33t15 -53v-2q0 -47 -33 -75.5t-84 -28.5t-84 28.5zM169 219.5q12 12.5 12 32.5v3q0 19 -12 31.5
t-31 12.5t-31.5 -12.5t-12.5 -31.5v-3q0 -20 12.5 -32.5t31.5 -12.5t31 12.5zM175 66.5q14 13.5 14 36.5v3q0 22 -14 36t-37 14t-37 -14t-14 -36v-3q0 -23 14 -36.5t37 -13.5t37 13.5z" />
    <glyph glyph-name="nine.dnom" horiz-adv-x="270" 
d="M152 133q-7 -6 -21 -6q-48 0 -80 31t-32 82v2q0 50 34 82t83 32t82.5 -31.5t33.5 -87.5v-1q0 -32 -10.5 -58.5t-32.5 -61.5l-74 -116h-70zM173.5 199.5q14.5 15.5 14.5 39.5v4q0 25 -15 40.5t-37 15.5t-37.5 -15.5t-15.5 -40.5v-4q0 -24 15.5 -39.5t38.5 -15.5
q22 0 36.5 15.5z" />
    <glyph glyph-name="zero.numr" horiz-adv-x="319" 
d="M58.5 390q-38.5 47 -38.5 125v20q0 78 38.5 125t101.5 47t101.5 -47t38.5 -125v-20q0 -78 -38.5 -125t-101.5 -47t-101.5 47zM208 436.5q18 27.5 18 77.5v22q0 50 -18 77.5t-48 27.5q-31 0 -48.5 -27.5t-17.5 -77.5v-22q0 -50 17.5 -77.5t48.5 -27.5q30 0 48 27.5z" />
    <glyph glyph-name="one.numr" horiz-adv-x="195" 
d="M165 350h-73v277l-80 -52v73l80 52h73v-350z" />
    <glyph glyph-name="two.numr" horiz-adv-x="270" 
d="M29 350v62l107 107q22 21 32 38.5t10 39.5t-13 35t-33 13q-44 0 -53 -52l-62 14q6 45 36 72t79 27q54 0 84.5 -28.5t30.5 -75.5q0 -36 -14.5 -62.5t-46.5 -57.5l-69 -70h135v-62h-223z" />
    <glyph glyph-name="three.numr" horiz-adv-x="280" 
d="M178 567q37 -9 59 -35t22 -67v-4q0 -53 -33.5 -85t-88.5 -32q-52 0 -84.5 28.5t-37.5 76.5l63 11q5 -25 19.5 -39.5t38.5 -14.5q25 0 39 15.5t14 40.5v3q0 58 -80 58v48l60 71h-140v58h216v-58z" />
    <glyph glyph-name="four.numr" horiz-adv-x="286" 
d="M227 350h-68v72h-147v60l147 218h68v-218h48v-60h-48v-72zM159 602l-81 -120h81v120z" />
    <glyph glyph-name="five.numr" horiz-adv-x="283" 
d="M61.5 372q-33.5 28 -40.5 73l66 14q4 -23 19 -37t38 -14t37 15t14 41v6q0 26 -14 41t-38 15q-33 0 -51 -30l-61 19l16 185h204v-59h-148l-9 -80q10 9 26.5 15t34.5 6q50 0 80 -30.5t30 -83.5v-6q0 -51 -33 -84.5t-86 -33.5q-51 0 -84.5 28z" />
    <glyph glyph-name="six.numr" horiz-adv-x="270" 
d="M52 375.5q-34 31.5 -34 87.5v1q0 33 11 58.5t33 61.5l74 116h70l-87 -133q7 6 21 6q49 0 80 -31t31 -81v-3q0 -50 -33.5 -82t-82.5 -32t-83 31.5zM172 417.5q15 15.5 15 40.5v3q0 24 -15 39.5t-38 15.5t-37.5 -15t-14.5 -40v-3q0 -25 15.5 -40.5t37.5 -15.5t37 15.5z" />
    <glyph glyph-name="seven.numr" horiz-adv-x="243" 
d="M120 350h-67l112 291h-152v59h216v-59z" />
    <glyph glyph-name="eight.numr" horiz-adv-x="276" 
d="M54 372.5q-33 28.5 -33 75.5v2q0 30 15 52.5t38 33.5q-18 11 -29.5 30t-11.5 43v2q0 40 29 66.5t76 26.5t76 -26.5t29 -66.5v-2q0 -25 -11.5 -43t-29.5 -30q23 -10 38 -33t15 -53v-2q0 -47 -33 -75.5t-84 -28.5t-84 28.5zM169 569.5q12 12.5 12 32.5v3q0 19 -12 31.5
t-31 12.5t-31.5 -12.5t-12.5 -31.5v-3q0 -20 12.5 -32.5t31.5 -12.5t31 12.5zM175 416.5q14 13.5 14 36.5v3q0 22 -14 36t-37 14t-37 -14t-14 -36v-3q0 -23 14 -36.5t37 -13.5t37 13.5z" />
    <glyph glyph-name="nine.numr" horiz-adv-x="270" 
d="M152 483q-7 -6 -21 -6q-48 0 -80 31t-32 82v2q0 50 34 82t83 32t82.5 -31.5t33.5 -87.5v-1q0 -32 -10.5 -58.5t-32.5 -61.5l-74 -116h-70zM173.5 549.5q14.5 15.5 14.5 39.5v4q0 25 -15 40.5t-37 15.5t-37.5 -15.5t-15.5 -40.5v-4q0 -24 15.5 -39.5t38.5 -15.5
q22 0 36.5 15.5z" />
    <glyph glyph-name="uni030C.alt" horiz-adv-x="0" 
d="M-137 474l-25 17l26 48q18 32 21 48q-22 4 -37.5 20.5t-15.5 39.5q0 26 17.5 43.5t43.5 17.5q27 0 43.5 -17.5t16.5 -46.5t-12 -54.5t-38 -61.5z" />
    <glyph glyph-name="brevecombcy" horiz-adv-x="0" 
d="M-213.5 607q-32.5 36 -32.5 89h65q0 -31 14.5 -48.5t43.5 -17.5t43.5 17.5t14.5 48.5h65q0 -53 -32.5 -89t-90.5 -36t-90.5 36z" />
    </font>
</defs>
</svg>
