<?xml version="1.0" standalone="no"?>
<!DOCTYPE svg PUBLIC "-//W3C//DTD SVG 1.1//EN" "http://www.w3.org/Graphics/SVG/1.1/DTD/svg11.dtd" >
<svg xmlns="http://www.w3.org/2000/svg" xmlns:xlink="http://www.w3.org/1999/xlink" version="1.1">
<metadata>
Created by FontForge 20170731 at Mon Sep  6 18:34:02 2021
 By Aleksey,,,
Copyright (c) 2020 by F. Hoffmann-La Roche AG. All rights reserved.
</metadata>
<defs>
<font id="RocheSans-Medium" horiz-adv-x="239" >
  <font-face 
    font-family="Roche Sans Medium"
    font-weight="500"
    font-stretch="normal"
    units-per-em="1000"
    panose-1="2 11 6 4 3 2 1 4 1 1"
    ascent="800"
    descent="-200"
    x-height="496"
    cap-height="700"
    bbox="-388 -258 1171 970"
    underline-thickness="50"
    underline-position="-150"
    unicode-range="U+000D-FB02"
  />
<missing-glyph horiz-adv-x="791" 
d="M608 123h-425l-173 200l173 200h425l173 -202zM36 321l156 -178h407l156 178l-156 182h-407z" />
    <glyph glyph-name="f_i" unicode="fi" horiz-adv-x="619" 
d="M247.5 585q-17.5 -17 -17.5 -48v-41h131v-102h-131v-394h-120v394h-91v102h91v45q0 82 46.5 126.5t125.5 44.5q29 0 79 -12v-111q-21 7 -35 10t-31 3q-30 0 -47.5 -17zM443.5 588.5q-23.5 23.5 -23.5 56.5t23.5 56.5t56.5 23.5t56 -23.5t23 -56.5t-23 -56.5t-56 -23.5
t-56.5 23.5zM560 0h-121v496h121v-496z" />
    <glyph glyph-name="f_l" unicode="fl" horiz-adv-x="660" 
d="M247.5 585q-17.5 -17 -17.5 -48v-41h131v-102h-131v-394h-120v394h-91v102h91v45q0 82 46.5 126.5t125.5 44.5q29 0 79 -12v-111q-21 7 -35 10t-31 3q-30 0 -47.5 -17zM475 29.5q-36 41.5 -36 117.5v553h121v-550q0 -24 10.5 -37.5t31.5 -13.5q19 0 46 11v-111
q-37 -11 -71 -11q-66 0 -102 41.5z" />
    <glyph glyph-name=".notdef" horiz-adv-x="791" 
d="M608 123h-425l-173 200l173 200h425l173 -202zM36 321l156 -178h407l156 178l-156 182h-407z" />
    <glyph glyph-name=".null" horiz-adv-x="0" 
 />
    <glyph glyph-name="nonmarkingreturn" unicode="&#xd;" horiz-adv-x="600" 
 />
    <glyph glyph-name="space" unicode=" " horiz-adv-x="207" 
 />
    <glyph glyph-name="exclam" unicode="!" horiz-adv-x="259" 
d="M181 240h-103l-17 460h138zM72 15q-24 24 -24 58t24 58.5t58 24.5t58 -24.5t24 -58.5t-24 -58t-58 -24t-58 24z" />
    <glyph glyph-name="quotedbl" unicode="&#x22;" horiz-adv-x="421" 
d="M170 412h-110v288h110v-288zM360 412h-110v288h110v-288z" />
    <glyph glyph-name="numbersign" unicode="#" horiz-adv-x="616" 
d="M598 519v-102h-107l-20 -134h90v-102h-105l-26 -181h-108l26 181h-130l-26 -181h-109l26 181h-91v102h106l20 134h-90v102h105l26 181h109l-26 -181h130l26 181h108l-26 -181h92zM233 283h130l20 134h-130z" />
    <glyph glyph-name="dollar" unicode="$" horiz-adv-x="602" 
d="M502.5 343.5q56.5 -50.5 56.5 -137.5v-2q0 -86 -55.5 -143.5t-147.5 -70.5v-78h-106v78q-81 12 -135 59t-77 114l111 61q50 -116 155 -116q57 0 90.5 24.5t33.5 65.5v1q0 42 -38 66.5t-119 43.5q-101 23 -154 75.5t-53 134.5v1q0 74 51.5 125t134.5 63v78h106v-78
q66 -10 112 -45t76 -94l-105 -67q-21 43 -57.5 66.5t-80.5 23.5q-47 0 -78 -20t-31 -52v-1q0 -36 34 -58t120 -42q100 -25 156.5 -75.5z" />
    <glyph glyph-name="percent" unicode="%" horiz-adv-x="837" 
d="M118.5 384.5q-37.5 22.5 -59 62t-21.5 88.5v4q0 49 21.5 88.5t59 62t85.5 22.5q47 0 85 -22.5t59 -62t21 -88.5v-4q0 -49 -21 -88.5t-59 -62t-85 -22.5q-48 0 -85.5 22.5zM270 0h-116l414 700h115zM254.5 471.5q18.5 24.5 18.5 62.5v6q0 38 -18.5 62.5t-50.5 24.5
t-51 -24.5t-19 -62.5v-6q0 -38 19 -62.5t51 -24.5t50.5 24.5zM548.5 10.5q-37.5 22.5 -59 62t-21.5 88.5v4q0 49 21.5 88.5t59 62t85.5 22.5t85.5 -22.5t59 -62t21.5 -88.5v-4q0 -49 -21.5 -88.5t-59 -62t-85.5 -22.5t-85.5 22.5zM685 97.5q19 24.5 19 62.5v6q0 37 -19.5 62
t-50.5 25q-33 0 -51.5 -25t-18.5 -62v-6q0 -39 18.5 -63t51.5 -24q32 0 51 24.5z" />
    <glyph glyph-name="ampersand" unicode="&#x26;" horiz-adv-x="616" 
d="M592 0h-130l-36 48q-31 -29 -74 -44.5t-106 -15.5q-59 0 -106.5 25.5t-75 72t-27.5 108.5v3q0 131 126 199q-50 74 -50 147q0 78 50 123.5t127 45.5q76 0 124 -44.5t48 -116.5q0 -65 -35.5 -109.5t-105.5 -82.5l100 -132q22 49 35 111l97 -39q-16 -92 -61 -167zM242 592
q-18 -19 -18 -53q0 -48 37 -100q48 21 69 47.5t21 61.5q0 28 -16.5 45.5t-45.5 17.5t-47 -19zM361 134l-136 179q-69 -40 -69 -111v-3q0 -47 28.5 -74.5t76.5 -27.5q60 0 100 37z" />
    <glyph glyph-name="quotesingle" unicode="'" horiz-adv-x="231" 
d="M170 412h-110v288h110v-288z" />
    <glyph glyph-name="parenleft" unicode="(" horiz-adv-x="311" 
d="M166 -140q-54 78 -92 193t-38 257t38 257t92 193h114q-115 -203 -115 -450t115 -450h-114z" />
    <glyph glyph-name="parenright" unicode=")" horiz-adv-x="312" 
d="M31 -140q116 205 116 450t-116 450h114q55 -78 93 -193t38 -257t-38 -257t-93 -193h-114z" />
    <glyph glyph-name="asterisk" unicode="*" horiz-adv-x="415" 
d="M352 640l40 -70l-119 -60l119 -60l-40 -71l-112 73l8 -132h-81l7 132l-111 -73l-41 71l119 60l-119 60l41 70l111 -73l-7 133h81l-8 -133z" />
    <glyph glyph-name="plus" unicode="+" horiz-adv-x="496" 
d="M302 367h164v-106h-164v-167h-109v167h-163v106h163v167h109v-167z" />
    <glyph glyph-name="comma" unicode="," 
d="M85 -160l-32 17l40 90q11 22 17 45q-30 4 -51.5 27.5t-21.5 53.5q0 34 24.5 58.5t57.5 24.5q34 0 58.5 -24.5t24.5 -58.5q0 -38 -14 -69.5t-42 -73.5z" />
    <glyph glyph-name="hyphen" unicode="-" horiz-adv-x="359" 
d="M327 263h-296v102h296v-102z" />
    <glyph glyph-name="period" unicode="." 
d="M61.5 15q-24.5 24 -24.5 58t24.5 58.5t57.5 24.5q34 0 58.5 -24.5t24.5 -58.5t-24.5 -58t-58.5 -24q-33 0 -57.5 24z" />
    <glyph glyph-name="slash" unicode="/" horiz-adv-x="388" 
d="M150 -140h-133l221 900h134z" />
    <glyph glyph-name="zero" unicode="0" horiz-adv-x="560" 
d="M97 81q-63 95 -63 259v20q0 163 63.5 258.5t182.5 95.5q120 0 183.5 -95.5t63.5 -258.5v-20q0 -164 -63.5 -259t-183.5 -95t-183 95zM366.5 161.5q30.5 58.5 30.5 177.5v22q0 119 -30.5 177.5t-86.5 58.5t-86.5 -58.5t-30.5 -177.5v-22q0 -119 30.5 -177.5t86.5 -58.5
t86.5 58.5z" />
    <glyph glyph-name="one" unicode="1" horiz-adv-x="560" 
d="M423 0h-128v569l-197 -102v129l197 104h128v-700z" />
    <glyph glyph-name="two" unicode="2" horiz-adv-x="560" 
d="M76 0v111l215 219q43 44 62.5 83t19.5 83q0 50 -26.5 78.5t-71.5 28.5q-90 0 -112 -115l-111 30q13 88 72.5 141t150.5 53q70 0 120.5 -26.5t76.5 -73.5t26 -107q0 -73 -27 -126t-88 -116l-145 -152h268v-111h-430z" />
    <glyph glyph-name="three" unicode="3" horiz-adv-x="560" 
d="M344 437q79 -17 124.5 -71t45.5 -141v-4q0 -106 -62.5 -169.5t-171.5 -63.5q-101 0 -163.5 55t-73.5 150l113 23q9 -53 40.5 -84.5t81.5 -31.5t79.5 34t29.5 87v4q0 125 -161 125v96l127 149h-283v105h417v-104z" />
    <glyph glyph-name="four" unicode="4" horiz-adv-x="560" 
d="M443 0h-120v151h-282v111l282 438h120v-439h77v-110h-77v-151zM323 511l-163 -250h163v250z" />
    <glyph glyph-name="five" unicode="5" horiz-adv-x="560" 
d="M119 42q-64 54 -78 145l118 28q9 -50 41.5 -80t80.5 -30q51 0 81.5 32.5t30.5 88.5v6q0 57 -30.5 90.5t-84.5 33.5q-34 0 -62 -16.5t-45 -44.5l-110 36l31 369h396v-108h-296l-20 -174q24 22 57.5 34t72.5 12q99 0 157 -63t58 -171v-8q0 -65 -29.5 -118.5t-83 -84.5
t-122.5 -31q-99 0 -163 54z" />
    <glyph glyph-name="six" unicode="6" horiz-adv-x="560" 
d="M165.5 15.5q-52.5 27.5 -84.5 81t-32 128.5v2q0 66 22.5 118t67.5 122l151 233h132l-180 -267q15 12 45 12q64 0 115 -28t79.5 -79.5t28.5 -118.5v-4q0 -65 -31 -117t-84 -81t-116 -29q-61 0 -113.5 27.5zM361.5 127q33.5 34 33.5 88v4q0 54 -33.5 88t-83.5 34
q-49 0 -81.5 -33.5t-32.5 -88.5v-4q0 -54 33.5 -88t81.5 -34q49 0 82.5 34z" />
    <glyph glyph-name="seven" unicode="7" horiz-adv-x="560" 
d="M270 0h-129l248 592h-335v108h455v-108z" />
    <glyph glyph-name="eight" unicode="8" horiz-adv-x="560" 
d="M163 13.5q-51 25.5 -80 73t-29 111.5v2q0 62 29.5 106t71.5 65q-34 22 -55.5 59.5t-21.5 87.5v3q0 52 25 95t71 67.5t106 24.5q59 0 105 -24.5t71 -67.5t25 -95v-3q0 -50 -21.5 -87.5t-54.5 -59.5q41 -21 70.5 -65t29.5 -106v-2q0 -64 -28.5 -111.5t-80 -73t-116.5 -25.5
q-66 0 -117 25.5zM346.5 437.5q26.5 26.5 26.5 70.5v3q0 43 -26.5 69.5t-66.5 26.5q-41 0 -68 -26.5t-27 -69.5v-3q0 -44 27 -70.5t68 -26.5q40 0 66.5 26.5zM357 124.5q30 29.5 30 78.5v4q0 49 -30.5 78.5t-76.5 29.5q-47 0 -77.5 -29.5t-30.5 -78.5v-4q0 -49 30.5 -78.5
t77.5 -29.5t77 29.5z" />
    <glyph glyph-name="nine" unicode="9" horiz-adv-x="560" 
d="M319 267q-16 -12 -45 -12q-64 0 -114.5 28t-79.5 79.5t-29 118.5v4q0 65 31 117t83.5 81t115.5 29q62 0 114.5 -27t84 -81t31.5 -129v-2q0 -65 -22 -118.5t-67 -121.5l-151 -233h-132zM364.5 392.5q32.5 33.5 32.5 88.5v4q0 54 -33.5 88t-82.5 34q-48 0 -81.5 -34
t-33.5 -88v-4q0 -54 33.5 -88t83.5 -34q49 0 81.5 33.5z" />
    <glyph glyph-name="colon" unicode=":" 
d="M61.5 15q-24.5 24 -24.5 58t24.5 58.5t57.5 24.5q34 0 58.5 -24.5t24.5 -58.5t-24.5 -58t-58.5 -24q-33 0 -57.5 24zM61.5 367q-24.5 24 -24.5 58t24.5 58.5t57.5 24.5q34 0 58.5 -24.5t24.5 -58.5t-24.5 -58t-58.5 -24q-33 0 -57.5 24z" />
    <glyph glyph-name="semicolon" unicode=";" 
d="M85 -160l-32 17l40 90q11 22 17 45q-30 4 -51.5 27.5t-21.5 53.5q0 34 24.5 58.5t57.5 24.5q34 0 58.5 -24.5t24.5 -58.5q0 -38 -14 -69.5t-42 -73.5zM61.5 367q-24.5 24 -24.5 58t24.5 58.5t57.5 24.5q34 0 58.5 -24.5t24.5 -58.5t-24.5 -58t-58.5 -24q-33 0 -57.5 24z
" />
    <glyph glyph-name="less" unicode="&#x3c;" horiz-adv-x="495" 
d="M465 172v-119l-436 201v117l436 201v-119l-316 -140z" />
    <glyph glyph-name="equal" unicode="=" horiz-adv-x="496" 
d="M466 376h-436v106h436v-106zM466 146h-436v106h436v-106z" />
    <glyph glyph-name="greater" unicode="&#x3e;" horiz-adv-x="495" 
d="M466 254l-436 -201v119l316 141l-316 140v119l436 -201v-117z" />
    <glyph glyph-name="question" unicode="?" horiz-adv-x="512" 
d="M202 251q0 52 20.5 90t65.5 78q35 31 49 53.5t14 51.5q0 35 -28 58t-71 23q-47 0 -79 -26.5t-47 -77.5l-103 41q19 78 81 125t148 47q66 0 116.5 -23t78.5 -64.5t28 -93.5q0 -55 -22.5 -94t-65.5 -76q-40 -34 -54.5 -60t-14.5 -67v-13h-116v28zM205 15q-24 24 -24 58
t24 58.5t58 24.5t58 -24.5t24 -58.5t-24 -58t-58 -24t-58 24z" />
    <glyph glyph-name="at" unicode="@" horiz-adv-x="849" 
d="M223 -47.5q-90 49.5 -141 141t-51 212.5v4q0 120 52.5 211.5t142.5 141t201 49.5q117 0 205.5 -48.5t136.5 -136t48 -201.5v-4q0 -72 -22.5 -125t-60.5 -81t-83 -28q-44 0 -74 25t-39 63q-18 -40 -55.5 -64t-88.5 -24q-54 0 -97 26.5t-67.5 76t-24.5 114.5v6
q0 65 25.5 114.5t69 76t98.5 26.5q37 0 67.5 -15.5t45.5 -38.5v42h90v-274q0 -31 12.5 -50.5t36.5 -19.5q31 0 48 40t17 109v4q0 91 -35 157t-100 101.5t-153 35.5q-85 0 -152 -38.5t-104.5 -109t-37.5 -161.5v-4q0 -92 37.5 -162.5t104 -109.5t151.5 -39q59 0 103 13.5
t88 40.5l44 -86q-54 -31 -109 -45.5t-125 -14.5q-114 0 -204 49.5zM487.5 209.5q30.5 36.5 30.5 95.5v6q0 59 -30.5 95.5t-78.5 36.5q-47 0 -77 -36.5t-30 -95.5v-6q0 -59 30 -95.5t77 -36.5q48 0 78.5 36.5z" />
    <glyph glyph-name="A" unicode="A" horiz-adv-x="699" 
d="M683 0h-147l-49 140h-275l-49 -140h-147l261 700h144zM349 533l-97 -278h195z" />
    <glyph glyph-name="B" unicode="B" horiz-adv-x="628" 
d="M65 0v700h288q96 0 150.5 -47.5t54.5 -127.5q0 -54 -25 -90.5t-65 -56.5q114 -51 114 -174v-1q0 -64 -29 -110t-79 -69.5t-112 -23.5h-297zM352 423q40 0 64 20.5t24 58.5v1q0 39 -24 59.5t-64 20.5h-154v-160h154zM352 122q47 0 74 25.5t27 69.5v1q0 44 -27 69.5
t-74 25.5h-154v-191h154z" />
    <glyph glyph-name="C" unicode="C" horiz-adv-x="684" 
d="M200 31q-75 45 -116.5 125.5t-41.5 184.5v18q0 104 42 184.5t116.5 125.5t169.5 45t165.5 -41.5t112.5 -118.5l-102 -71q-30 51 -71.5 79t-100.5 28t-103.5 -29.5t-68.5 -81.5t-24 -118v-22q0 -66 24 -118t68.5 -81.5t103.5 -29.5q60 0 101 27.5t71 79.5l103 -71
q-93 -160 -279 -160q-95 0 -170 45z" />
    <glyph glyph-name="D" unicode="D" horiz-adv-x="672" 
d="M65 0v700h227q100 0 176.5 -42t119 -119t42.5 -179v-20q0 -102 -42.5 -179t-119 -119t-176.5 -42h-227zM291 122q95 0 148.5 58.5t53.5 159.5v20q0 101 -53.5 159.5t-148.5 58.5h-93v-456h93z" />
    <glyph glyph-name="E" unicode="E" horiz-adv-x="596" 
d="M550 0h-485v700h484v-122h-351v-158h289v-119h-289v-179h352v-122z" />
    <glyph glyph-name="F" unicode="F" horiz-adv-x="560" 
d="M198 0h-133v700h460v-122h-327v-182h279v-122h-279v-274z" />
    <glyph glyph-name="G" unicode="G" horiz-adv-x="697" 
d="M200 31q-75 45 -116.5 125.5t-41.5 184.5v18q0 104 42 184.5t116.5 125.5t169.5 45t165.5 -41.5t112.5 -118.5l-102 -71q-30 51 -71.5 79t-100.5 28t-103.5 -29.5t-68.5 -81.5t-24 -118v-22q0 -66 24 -118t68.5 -81.5t103.5 -29.5q88 0 145 69v80h-160v111h291v-243
q-104 -141 -279 -141q-96 0 -171 45z" />
    <glyph glyph-name="H" unicode="H" horiz-adv-x="716" 
d="M198 0h-133v700h133v-269h320v269h133v-700h-133v307h-320v-307z" />
    <glyph glyph-name="I" unicode="I" horiz-adv-x="263" 
d="M198 0h-133v700h133v-700z" />
    <glyph glyph-name="J" unicode="J" horiz-adv-x="559" 
d="M112.5 31q-59.5 45 -82.5 121l121 53q13 -45 41.5 -69.5t70.5 -24.5q103 0 103 134v455h132v-447q0 -128 -58.5 -197.5t-178.5 -69.5q-89 0 -148.5 45z" />
    <glyph glyph-name="K" unicode="K" horiz-adv-x="594" 
d="M417 700h152l-230 -350l230 -350h-150l-193 291h-28v-291h-133v700h133v-299h26z" />
    <glyph glyph-name="L" unicode="L" horiz-adv-x="559" 
d="M524 0h-459v700h133v-578h326v-122z" />
    <glyph glyph-name="M" unicode="M" horiz-adv-x="778" 
d="M192 0h-127v700h143l181 -418l181 418h143v-700h-128v443l-135 -303h-122l-136 303v-443z" />
    <glyph glyph-name="N" unicode="N" horiz-adv-x="682" 
d="M192 0h-127v700h137l288 -462v462h127v-700h-122l-303 485v-485z" />
    <glyph glyph-name="O" unicode="O" horiz-adv-x="751" 
d="M202 31.5q-76 45.5 -118 126.5t-42 183v18q0 102 42 183t118 126.5t174 45.5t173.5 -45.5t117.5 -126.5t42 -183v-18q0 -102 -42 -183t-117.5 -126.5t-173.5 -45.5t-174 45.5zM481.5 139.5q44.5 29.5 68 81.5t23.5 118v22q0 66 -23.5 118t-68 81.5t-105.5 29.5
t-106 -29.5t-68.5 -81.5t-23.5 -118v-22q0 -66 23.5 -118t68.5 -81.5t106 -29.5t105.5 29.5z" />
    <glyph glyph-name="P" unicode="P" horiz-adv-x="590" 
d="M65 0v700h267q99 0 157 -52t58 -148t-58 -148.5t-157 -52.5h-134v-299h-133zM324 414q43 0 67 21.5t24 64.5q0 42 -24 64t-67 22h-126v-172h126z" />
    <glyph glyph-name="Q" unicode="Q" horiz-adv-x="751" 
d="M709 341q0 -82 -27 -150.5t-77 -116.5l102 -146h-135l-60 85q-61 -27 -136 -27q-98 0 -174 45.5t-118 126.5t-42 183v18q0 102 42 183t118 126.5t174 45.5t173.5 -45.5t117.5 -126.5t42 -183v-18zM178 339q0 -66 23.5 -118t68.5 -81.5t106 -29.5t105.5 29.5t68 81.5
t23.5 118v22q0 66 -23.5 118t-68 81.5t-105.5 29.5t-106 -29.5t-68.5 -81.5t-23.5 -118v-22z" />
    <glyph glyph-name="R" unicode="R" horiz-adv-x="609" 
d="M65 0v700h287q89 0 146 -49.5t57 -137.5q0 -59 -32.5 -99.5t-82.5 -59.5q41 -8 62.5 -38.5t28.5 -84.5l31 -231h-133l-29 230q-5 38 -21 53.5t-50 15.5h-131v-299h-133zM332 413q41 0 65.5 22.5t24.5 64.5q0 41 -24.5 63.5t-65.5 22.5h-134v-173h134z" />
    <glyph glyph-name="S" unicode="S" horiz-adv-x="602" 
d="M132.5 35q-68.5 49 -94.5 128l111 61q50 -116 155 -116q57 0 90.5 24.5t33.5 65.5v1q0 42 -38 66.5t-119 43.5q-101 23 -154 75.5t-53 134.5v1q0 57 31 100.5t85 67.5t120 24q90 0 149 -36t95 -107l-105 -67q-21 43 -57.5 66.5t-80.5 23.5q-47 0 -78 -20t-31 -52v-1
q0 -36 34 -58t120 -42q100 -25 156.5 -75.5t56.5 -137.5v-2q0 -65 -32.5 -114.5t-90.5 -76.5t-132 -27q-103 0 -171.5 49z" />
    <glyph glyph-name="T" unicode="T" horiz-adv-x="568" 
d="M545 700v-122h-195v-578h-132v578h-195v122h522z" />
    <glyph glyph-name="U" unicode="U" horiz-adv-x="651" 
d="M128.5 65q-68.5 79 -68.5 210v425h133v-436q0 -69 35.5 -111t97.5 -42q61 0 96.5 42t35.5 111v436h133v-425q0 -131 -68 -210t-197 -79t-197.5 79z" />
    <glyph glyph-name="V" unicode="V" horiz-adv-x="682" 
d="M412 0h-143l-253 700h150l175 -525l175 525h149z" />
    <glyph glyph-name="W" unicode="W" horiz-adv-x="933" 
d="M340 0h-153l-166 700h137l110 -520l131 500h135l131 -500l109 520h138l-167 -700h-153l-125 495z" />
    <glyph glyph-name="X" unicode="X" horiz-adv-x="637" 
d="M181 0h-159l217 360l-206 340h159l128 -222l134 222h157l-213 -342l217 -358h-162l-138 239z" />
    <glyph glyph-name="Y" unicode="Y" horiz-adv-x="622" 
d="M377 0h-133v283l-232 417h154l144 -280l145 280h155l-233 -417v-283z" />
    <glyph glyph-name="Z" unicode="Z" horiz-adv-x="568" 
d="M529 0h-494v122l328 456h-315v122h464v-122l-328 -456h345v-122z" />
    <glyph glyph-name="bracketleft" unicode="[" horiz-adv-x="338" 
d="M313 -140h-248v900h248v-110h-128v-680h128v-110z" />
    <glyph glyph-name="backslash" unicode="\" horiz-adv-x="387" 
d="M371 -140h-134l-221 900h133z" />
    <glyph glyph-name="bracketright" unicode="]" horiz-adv-x="338" 
d="M273 -140h-248v110h127v680h-127v110h248v-900z" />
    <glyph glyph-name="asciicircum" unicode="^" horiz-adv-x="495" 
d="M149 398h-122l158 302h125l159 -302h-123l-98 199z" />
    <glyph glyph-name="underscore" unicode="_" horiz-adv-x="497" 
d="M466 -117h-435v102h435v-102z" />
    <glyph glyph-name="grave" unicode="`" horiz-adv-x="247" 
d="M234 570h-96l-126 160h138z" />
    <glyph glyph-name="a" unicode="a" horiz-adv-x="542" 
d="M84.5 28.5q-43.5 40.5 -43.5 106.5v2q0 132 176 161l117 20v9q0 38 -23.5 61.5t-64.5 23.5q-78 0 -104 -77l-100 39q24 61 77.5 97.5t126.5 36.5q98 0 151.5 -48.5t53.5 -128.5v-196q0 -46 38 -46q19 0 33 7v-93q-30 -15 -71 -15q-42 0 -69.5 22.5t-34.5 58.5
q-22 -38 -57.5 -59.5t-94.5 -21.5q-67 0 -110.5 40.5zM306 120.5q28 35.5 28 96.5v16l-105 -21q-69 -16 -69 -69q0 -27 18 -42.5t49 -15.5q51 0 79 35.5z" />
    <glyph glyph-name="b" unicode="b" horiz-adv-x="573" 
d="M238 4.5q-36 16.5 -58 46.5v-51h-121v700h121v-255q20 27 56.5 45t80.5 18q64 0 113.5 -31.5t77.5 -89.5t28 -134v-10q0 -76 -28 -134t-77.5 -89.5t-113.5 -31.5q-43 0 -79 16.5zM379 140.5q33 38.5 33 101.5v12q0 63 -33 101.5t-86 38.5t-85.5 -38.5t-32.5 -101.5v-12
q0 -63 32.5 -101.5t85.5 -38.5t86 38.5z" />
    <glyph glyph-name="c" unicode="c" horiz-adv-x="531" 
d="M155.5 21q-55.5 33 -87 91t-31.5 131v10q0 73 31.5 131t87 91t125.5 33q80 0 134.5 -36.5t80.5 -101.5l-103 -54q-15 36 -43.5 57t-68.5 21q-54 0 -87 -39t-33 -101v-12q0 -62 33 -101t87 -39q40 0 68 21t44 57l105 -54q-28 -65 -83 -101.5t-134 -36.5q-70 0 -125.5 33z
" />
    <glyph glyph-name="d" unicode="d" horiz-adv-x="573" 
d="M143 19.5q-50 31.5 -78 89.5t-28 134v10q0 76 28 134t78 89.5t114 31.5q46 0 80.5 -16t55.5 -44v252h121v-700h-121v55q-47 -67 -137 -67q-63 0 -113 31.5zM365.5 140.5q32.5 38.5 32.5 101.5v12q0 63 -32.5 101.5t-85.5 38.5t-86 -38.5t-33 -101.5v-12q0 -63 33 -101.5
t86 -38.5t85.5 38.5z" />
    <glyph glyph-name="e" unicode="e" horiz-adv-x="551" 
d="M514 220h-356q5 -59 37.5 -94.5t85.5 -35.5q43 0 70 18.5t44 55.5l106 -43q-58 -133 -220 -133q-71 0 -126.5 33t-86.5 91t-31 131v10q0 73 31 131t87 91t126 33q65 0 118 -28.5t84 -85t31 -136.5v-38zM202.5 381q-30.5 -27 -40.5 -75h232q-6 45 -37 73.5t-76 28.5
q-48 0 -78.5 -27z" />
    <glyph glyph-name="f" unicode="f" horiz-adv-x="380" 
d="M247.5 585q-17.5 -17 -17.5 -48v-41h131v-102h-131v-394h-120v394h-91v102h91v45q0 82 46.5 126.5t125.5 44.5q29 0 79 -12v-111q-21 7 -35 10t-31 3q-30 0 -47.5 -17z" />
    <glyph glyph-name="g" unicode="g" horiz-adv-x="571" 
d="M132 -183q-58 33 -87 89l105 63q39 -72 124 -72q56 0 86.5 36.5t30.5 98.5v40q-21 -30 -55.5 -48t-81.5 -18q-63 0 -112.5 30.5t-77 86.5t-27.5 130v8q0 74 28 130t77 86.5t111 30.5q46 0 82 -17t56 -44v49h121v-459q0 -119 -64.5 -186t-175.5 -67q-82 0 -140 33z
M363 157q33 37 33 96v8q0 59 -32.5 96t-85.5 37q-52 0 -84.5 -37t-32.5 -96v-8q0 -59 32.5 -96t84.5 -37t85 37z" />
    <glyph glyph-name="h" unicode="h" horiz-adv-x="556" 
d="M59 0v700h121v-257q15 26 53 45.5t82 19.5q84 0 133 -51.5t49 -139.5v-317h-121v290q0 48 -27.5 78t-70.5 30t-70.5 -30t-27.5 -78v-290h-121z" />
    <glyph glyph-name="i" unicode="i" 
d="M63.5 588.5q-23.5 23.5 -23.5 56.5t23.5 56.5t56.5 23.5t56 -23.5t23 -56.5t-23 -56.5t-56 -23.5t-56.5 23.5zM180 0h-121v496h121v-496z" />
    <glyph glyph-name="j" unicode="j" 
d="M63.5 588.5q-23.5 23.5 -23.5 56.5t23.5 56.5t56.5 23.5t56 -23.5t23 -56.5t-23 -56.5t-56 -23.5t-56.5 23.5zM-36 -202v112q29 -12 49 -12q21 0 33.5 16t12.5 46v536h121v-530q0 -178 -143 -178q-43 0 -73 10z" />
    <glyph glyph-name="k" unicode="k" horiz-adv-x="498" 
d="M332 496h138l-160 -248l160 -248h-138l-131 209h-21v-209h-121v700h121v-413h21z" />
    <glyph glyph-name="l" unicode="l" horiz-adv-x="280" 
d="M95 29.5q-36 41.5 -36 117.5v553h121v-550q0 -24 10.5 -37.5t31.5 -13.5q19 0 46 11v-111q-37 -11 -71 -11q-66 0 -102 41.5z" />
    <glyph glyph-name="m" unicode="m" horiz-adv-x="799" 
d="M59 0v496h120v-51q15 26 49 44.5t75 18.5q46 0 80 -18t53 -52q19 30 56 50t85 20q78 0 120.5 -46.5t42.5 -127.5v-334h-120v310q0 40 -22.5 64t-58.5 24q-35 0 -57 -24.5t-22 -64.5v-309h-121v310q0 40 -22 64t-58 24t-58 -24.5t-22 -64.5v-309h-120z" />
    <glyph glyph-name="n" unicode="n" horiz-adv-x="548" 
d="M59 0v496h121v-52q15 26 51.5 45t80.5 19q85 0 131 -50t46 -140v-318h-120v295q0 48 -26.5 75.5t-68.5 27.5t-68 -28t-26 -76v-294h-121z" />
    <glyph glyph-name="o" unicode="o" horiz-adv-x="565" 
d="M156 21q-56 33 -87.5 91t-31.5 131v10q0 73 31.5 131t87.5 91t126 33q71 0 127 -33t87.5 -91t31.5 -131v-10q0 -73 -31.5 -131t-87.5 -91t-127 -33q-70 0 -126 33zM371 141q33 39 33 101v12q0 62 -33 101t-89 39q-55 0 -88 -39t-33 -101v-12q0 -62 33 -101t88 -39
q56 0 89 39z" />
    <glyph glyph-name="p" unicode="p" horiz-adv-x="573" 
d="M59 -203v699h121v-55q19 30 56.5 48.5t82.5 18.5q63 0 112 -31.5t77 -89.5t28 -134v-10q0 -76 -28 -134t-77.5 -89.5t-113.5 -31.5q-46 0 -81 17t-56 44v-252h-121zM379 140.5q33 38.5 33 101.5v12q0 63 -33 101.5t-86 38.5t-85.5 -38.5t-32.5 -101.5v-12
q0 -63 32.5 -101.5t85.5 -38.5t86 38.5z" />
    <glyph glyph-name="q" unicode="q" horiz-adv-x="573" 
d="M393 55q-44 -67 -137 -67q-63 0 -113 31.5t-78 89.5t-28 134v10q0 76 28 133.5t77.5 89.5t111.5 32q46 0 82.5 -18t56.5 -47v53h121v-700h-121v259zM365.5 140.5q32.5 38.5 32.5 101.5v12q0 63 -32.5 101.5t-85.5 38.5t-86 -38.5t-33 -101.5v-12q0 -63 33 -101.5
t86 -38.5t85.5 38.5z" />
    <glyph glyph-name="r" unicode="r" horiz-adv-x="398" 
d="M59 0v496h121v-65q17 34 53 55.5t78 21.5q27 0 53 -8v-117q-32 15 -66 15q-53 0 -85.5 -36t-32.5 -94v-268h-121z" />
    <glyph glyph-name="s" unicode="s" horiz-adv-x="485" 
d="M117.5 20q-54.5 34 -76.5 89l98 57q13 -34 43 -54.5t67 -20.5q36 0 56 14t20 38q0 25 -25 39t-84 28q-76 17 -113 54t-37 98q0 65 50.5 104.5t129.5 39.5q135 0 185 -107l-89 -51q-14 30 -40.5 46.5t-57.5 16.5q-32 0 -51.5 -13t-19.5 -34q0 -22 22 -37t78 -26
q82 -17 125 -52.5t43 -101.5q0 -47 -24 -83.5t-68 -57t-101 -20.5q-76 0 -130.5 34z" />
    <glyph glyph-name="t" unicode="t" horiz-adv-x="411" 
d="M379 394h-138v-229q0 -31 16.5 -48.5t47.5 -17.5q35 0 74 20v-113q-47 -18 -100 -18q-159 0 -159 176v230h-97v102h97v100l121 50v-150h138v-102z" />
    <glyph glyph-name="u" unicode="u" horiz-adv-x="548" 
d="M105 38.5q-46 50.5 -46 139.5v318h121v-295q0 -48 26 -75.5t68 -27.5t68.5 28t26.5 76v294h120v-496h-120v52q-16 -26 -52 -45t-80 -19q-86 0 -132 50.5z" />
    <glyph glyph-name="v" unicode="v" horiz-adv-x="512" 
d="M321 0h-130l-182 496h131l116 -343l116 343h130z" />
    <glyph glyph-name="w" unicode="w" horiz-adv-x="748" 
d="M284 0h-130l-139 496h126l81 -336l88 336h128l88 -336l81 336h126l-139 -496h-129l-91 354z" />
    <glyph glyph-name="x" unicode="x" horiz-adv-x="514" 
d="M164 0h-147l169 264l-158 232h146l84 -136l81 136h145l-158 -238l172 -258h-146l-95 157z" />
    <glyph glyph-name="y" unicode="y" horiz-adv-x="534" 
d="M389 496h130l-212 -559q-30 -79 -73.5 -114t-119.5 -35q-50 0 -82 15v120q40 -22 82 -22q34 0 55 18.5t36 59.5l8 23l-202 494h134l124 -338z" />
    <glyph glyph-name="z" unicode="z" horiz-adv-x="452" 
d="M417 0h-388v102l242 292h-233v102h367v-102l-243 -292h255v-102z" />
    <glyph glyph-name="braceleft" unicode="{" horiz-adv-x="363" 
d="M254 -140q-72 0 -110.5 37.5t-38.5 107.5v197q0 55 -55 55h-34v106h34q55 0 55 55v197q0 70 38.5 107.5t110.5 37.5h85v-110h-63q-23 0 -36.5 -13t-13.5 -37v-186q0 -83 -67 -104q67 -21 67 -104v-186q0 -24 13.5 -37t36.5 -13h63v-110h-85z" />
    <glyph glyph-name="bar" unicode="|" horiz-adv-x="263" 
d="M198 -204h-133v904h133v-904z" />
    <glyph glyph-name="braceright" unicode="}" horiz-adv-x="364" 
d="M25 -140v110h62q24 0 37 13t13 37v186q0 82 68 104q-68 22 -68 104v186q0 24 -13 37t-37 13h-62v110h85q71 0 109.5 -37.5t38.5 -107.5v-197q0 -55 56 -55h34v-106h-34q-56 0 -56 -55v-197q0 -70 -38.5 -107.5t-109.5 -37.5h-85z" />
    <glyph glyph-name="asciitilde" unicode="~" horiz-adv-x="496" 
d="M20 263q13 57 49 89t90 32q33 0 57 -9.5t53 -26.5q20 -12 33 -18t27 -6q41 0 55 55l91 -28q-13 -57 -48.5 -89t-89.5 -32q-33 0 -56.5 9t-54.5 27q-20 12 -33 18t-27 6q-42 0 -54 -55z" />
    <glyph glyph-name="uni00A0" unicode="&#xa0;" horiz-adv-x="207" 
 />
    <glyph glyph-name="exclamdown" unicode="&#xa1;" horiz-adv-x="259" 
d="M72 365q-24 24 -24 58t24 58t58 24q33 0 57.5 -24t24.5 -58t-24.5 -58t-57.5 -24q-34 0 -58 24zM199 -204h-138l17 460h103z" />
    <glyph glyph-name="cent" unicode="&#xa2;" horiz-adv-x="531" 
d="M498 228q-23 -54 -64 -88.5t-100 -44.5v-95h-106v95q-86 18 -138.5 86t-52.5 164v10q0 96 52.5 164t138.5 86v95h106v-95q59 -10 99.5 -44.5t62.5 -88.5l-103 -54q-15 36 -43.5 57t-68.5 21q-54 0 -87 -39t-33 -101v-12q0 -62 33 -101t87 -39q40 0 68 21t44 57z" />
    <glyph glyph-name="sterling" unicode="&#xa3;" horiz-adv-x="544" 
d="M176 111h331v-111h-463v109q33 32 50.5 69t17.5 74q0 11 -1 17h-76v91h54q-18 47 -26 75.5t-8 66.5q0 97 62.5 153.5t166.5 56.5q95 0 151.5 -43t74.5 -124l-117 -38q-10 46 -38.5 70t-70.5 24q-47 0 -74 -27.5t-27 -77.5q0 -28 5.5 -53.5t12.5 -49.5t10 -33h205v-91
h-188v-17q0 -75 -52 -141z" />
    <glyph glyph-name="currency" unicode="&#xa4;" horiz-adv-x="557" 
d="M485 348q0 -58 -27 -106l79 -81l-75 -75l-80 80q-48 -27 -104 -27q-57 0 -104 26l-79 -79l-75 75l79 80q-27 49 -27 107v4q0 58 27 107l-79 80l75 75l79 -79q47 26 104 26q56 0 104 -27l80 80l75 -75l-79 -81q27 -48 27 -106v-4zM369 352q0 44 -25 72t-66 28
q-40 0 -65 -28t-25 -72v-4q0 -44 25 -72t65 -28q41 0 66 28t25 72v4z" />
    <glyph glyph-name="yen" unicode="&#xa5;" horiz-adv-x="615" 
d="M455 700h151l-179 -317h92v-95h-145v-73h145v-96h-145v-119h-133v119h-145v96h145v73h-145v95h92l-179 317h151l147 -285z" />
    <glyph glyph-name="brokenbar" unicode="&#xa6;" horiz-adv-x="263" 
d="M198 326h-133v374h133v-374zM198 -204h-133v374h133v-374z" />
    <glyph glyph-name="section" unicode="&#xa7;" horiz-adv-x="578" 
d="M482 101q43 -49 43 -122q0 -57 -29.5 -102t-83 -70t-122.5 -25q-93 0 -154 39t-90 110l110 57q19 -41 53 -63.5t80 -22.5q50 0 79 20.5t29 55.5q0 36 -34.5 58t-116.5 38q-97 20 -152.5 66t-55.5 129q0 72 55 124q-46 51 -46 125q0 57 30 101t83.5 68.5t121.5 24.5
q89 0 145 -33t91 -101l-104 -65q-19 37 -53.5 58t-77.5 21q-46 0 -77 -21t-31 -54q0 -35 36 -58t117 -40q101 -20 154.5 -65t53.5 -129q0 -73 -54 -124zM201 221q36 -24 122 -41q35 -7 69 -20q17 25 17 52q0 39 -36 61.5t-124 40.5q-32 7 -67 20q-17 -25 -17 -50
q0 -39 36 -63z" />
    <glyph glyph-name="dieresis" unicode="&#xa8;" horiz-adv-x="399" 
d="M32.5 593.5q-21.5 21.5 -21.5 50.5q0 30 21.5 51.5t51.5 21.5t51.5 -21.5t21.5 -51.5q0 -29 -21.5 -50.5t-51.5 -21.5t-51.5 21.5zM263.5 593.5q-21.5 21.5 -21.5 50.5q0 30 21.5 51.5t50.5 21.5q30 0 51.5 -21.5t21.5 -51.5q0 -29 -21.5 -50.5t-51.5 -21.5
q-29 0 -50.5 21.5z" />
    <glyph glyph-name="copyright" unicode="&#xa9;" horiz-adv-x="780" 
d="M212.5 33.5q-78.5 47.5 -122.5 129.5t-44 183v8q0 101 44 183t122.5 129.5t177.5 47.5t177.5 -47.5t122.5 -129.5t44 -183v-8q0 -101 -44 -183t-122.5 -129.5t-177.5 -47.5t-177.5 47.5zM530 88.5q63 39.5 99 107.5t36 150v8q0 82 -36 150t-99 107.5t-140 39.5
t-140 -39.5t-99 -107.5t-36 -150v-8q0 -82 36 -150t99 -107.5t140 -39.5t140 39.5zM291.5 168q-43.5 26 -68.5 72.5t-25 106.5v6q0 60 24.5 106.5t68.5 72.5t99 26q58 0 101.5 -29t62.5 -80l-53 -26q-14 34 -43.5 54t-67.5 20q-58 0 -91.5 -40t-33.5 -104v-6
q0 -65 33.5 -104.5t91.5 -39.5q39 0 68 20.5t45 54.5l56 -26q-24 -52 -68 -81t-101 -29q-55 0 -98.5 26z" />
    <glyph glyph-name="ordfeminine" unicode="&#xaa;" horiz-adv-x="358" 
d="M55.5 400.5q-28.5 26.5 -28.5 68.5q0 47 31 71t85 33l76 13v5q0 23 -15 37t-42 14q-25 0 -42 -12.5t-25 -34.5l-67 26q15 39 50.5 62.5t83.5 23.5q65 0 101 -31t36 -82v-123q0 -13 6 -21t18 -8q11 0 23 5v-62q-22 -11 -49 -11t-45.5 14t-23.5 37q-31 -51 -100 -51
q-44 0 -72.5 26.5zM201 461.5q18 21.5 18 57.5v14l-67 -14q-44 -7 -44 -42q0 -16 12 -26.5t30 -10.5q33 0 51 21.5z" />
    <glyph glyph-name="guillemotleft" unicode="&#xab;" horiz-adv-x="489" 
d="M458 106h-116l-105 190l105 190h116l-104 -190zM256 106h-116l-105 190l105 190h116l-104 -190z" />
    <glyph glyph-name="logicalnot" unicode="&#xac;" horiz-adv-x="496" 
d="M466 94h-109v167h-327v106h436v-273z" />
    <glyph glyph-name="uni00AD" unicode="&#xad;" horiz-adv-x="359" 
d="M327 263h-296v102h296v-102z" />
    <glyph glyph-name="registered" unicode="&#xae;" horiz-adv-x="398" 
d="M88.5 448q-42.5 44 -42.5 111v2q0 67 42.5 111t110.5 44t111 -44t43 -111v-2q0 -67 -43 -111t-111 -44t-110.5 44zM285 471.5q31 34.5 31 87.5v2q0 53 -31 87.5t-86 34.5q-54 0 -85 -34t-31 -88v-2q0 -54 31 -88t85 -34q55 0 86 34.5zM145 466v188h62q28 0 41.5 -14
t13.5 -38q0 -16 -7.5 -27t-19.5 -16q15 -3 18 -25l9 -68h-35l-6 63q-3 18 -19 18h-23v-81h-34zM207 575q10 0 16 6.5t6 19.5q0 12 -6 18.5t-16 6.5h-28v-51h28z" />
    <glyph glyph-name="macron" unicode="&#xaf;" horiz-adv-x="288" 
d="M266 609h-244v88h244v-88z" />
    <glyph glyph-name="degree" unicode="&#xb0;" horiz-adv-x="342" 
d="M78.5 476q-37.5 37 -37.5 94q0 56 37.5 93t92.5 37t92 -36.5t37 -93.5t-37 -94t-92 -37t-92.5 37zM209 527.5q15 16.5 15 42.5q0 25 -15 41.5t-38 16.5q-24 0 -38.5 -16.5t-14.5 -41.5q0 -26 14.5 -42.5t38.5 -16.5q23 0 38 16.5z" />
    <glyph glyph-name="plusminus" unicode="&#xb1;" horiz-adv-x="495" 
d="M302 544v-138h164v-106h-164v-138h-109v138h-163v106h163v138h109zM466 0h-436v106h436v-106z" />
    <glyph glyph-name="uni00B2" unicode="&#xb2;" horiz-adv-x="279" 
d="M30 350v75l104 97q22 21 31 36t9 33t-10.5 29t-27.5 11q-38 0 -46 -45l-75 18q7 46 38.5 74t82.5 28q59 0 90.5 -29.5t31.5 -79.5q0 -36 -15 -62t-46 -55l-57 -55h122v-75h-232z" />
    <glyph glyph-name="uni00B3" unicode="&#xb3;" horiz-adv-x="287" 
d="M51.5 373q-33.5 29 -38.5 77l76 15q4 -21 16.5 -33.5t32.5 -12.5q21 0 33.5 13.5t12.5 34.5q0 27 -18.5 39.5t-56.5 12.5v54l52 57h-132v70h223v-70l-60 -63q35 -9 56 -35t21 -65q0 -56 -35.5 -89.5t-95.5 -33.5q-53 0 -86.5 29z" />
    <glyph glyph-name="acute" unicode="&#xb4;" horiz-adv-x="247" 
d="M109 570h-97l84 160h138z" />
    <glyph glyph-name="uni00B5" unicode="&#xb5;" horiz-adv-x="548" 
d="M59 -204v700h121v-295q0 -48 26 -75.5t68 -27.5t68.5 28t26.5 76v294h120v-496h-120v52q-16 -26 -52 -45t-80 -19q-32 0 -57 17v-209h-121z" />
    <glyph glyph-name="paragraph" unicode="&#xb6;" horiz-adv-x="722" 
d="M287 -204v506h-27q-97 0 -157 53t-60 147t60 146t157 52h438v-108h-73v-796h-122v796h-95v-796h-121z" />
    <glyph glyph-name="periodcentered" unicode="&#xb7;" 
d="M61.5 292q-24.5 24 -24.5 58t24.5 58.5t57.5 24.5q34 0 58.5 -24.5t24.5 -58.5t-24.5 -58t-58.5 -24q-33 0 -57.5 24z" />
    <glyph glyph-name="cedilla" unicode="&#xb8;" horiz-adv-x="195" 
d="M165.5 -61.5q22.5 -22.5 22.5 -62.5q0 -43 -27 -67.5t-76 -24.5q-56 0 -84 16l24 57q22 -13 56 -13q18 0 28 9t10 26q0 15 -9.5 23.5t-25.5 8.5q-21 0 -35 -11l-37 18l17 94h62l-14 -56q17 5 29 5q37 0 59.5 -22.5z" />
    <glyph glyph-name="uni00B9" unicode="&#xb9;" horiz-adv-x="210" 
d="M184 350h-89v263l-84 -53v89l84 51h89v-350z" />
    <glyph glyph-name="ordmasculine" unicode="&#xba;" horiz-adv-x="374" 
d="M103 395.5q-37 21.5 -58 59t-21 83.5v6q0 46 21 83t58 58.5t84 21.5t84 -21.5t57.5 -58.5t20.5 -83v-6q0 -46 -21 -83.5t-58 -59t-83 -21.5q-47 0 -84 21.5zM244 475.5q21 23.5 21 62.5v6q0 38 -21 62t-57 24t-57 -23.5t-21 -62.5v-6q0 -38 21 -62t57 -24t57 23.5z" />
    <glyph glyph-name="guillemotright" unicode="&#xbb;" horiz-adv-x="488" 
d="M348 106h-115l102 190l-102 190h115l105 -190zM146 106h-115l102 190l-102 190h115l105 -190z" />
    <glyph glyph-name="onequarter" unicode="&#xbc;" horiz-adv-x="738" 
d="M184 350h-89v263l-84 -53v89l84 51h89v-350zM223 0h-115l413 700h115zM680 0h-83v66h-150v71l150 213h83v-213h48v-71h-48v-66zM597 239l-69 -102h69v102z" />
    <glyph glyph-name="onehalf" unicode="&#xbd;" horiz-adv-x="774" 
d="M184 350h-89v263l-84 -53v89l84 51h89v-350zM223 0h-115l413 700h115zM525 0v75l104 97q22 21 31 36t9 33t-10.5 29t-27.5 11q-38 0 -46 -45l-75 18q7 46 38.5 74t82.5 28q59 0 90.5 -29.5t31.5 -79.5q0 -36 -15 -62t-46 -55l-57 -55h122v-75h-232z" />
    <glyph glyph-name="threequarters" unicode="&#xbe;" horiz-adv-x="764" 
d="M51.5 373q-33.5 29 -38.5 77l76 15q4 -21 16.5 -33.5t32.5 -12.5q21 0 33.5 13.5t12.5 34.5q0 27 -18.5 39.5t-56.5 12.5v54l52 57h-132v70h223v-70l-60 -63q35 -9 56 -35t21 -65q0 -56 -35.5 -89.5t-95.5 -33.5q-53 0 -86.5 29zM249 0h-115l413 700h115zM706 0h-83v66
h-150v71l150 213h83v-213h48v-71h-48v-66zM623 239l-69 -102h69v102z" />
    <glyph glyph-name="questiondown" unicode="&#xbf;" horiz-adv-x="512" 
d="M192 367q-24 24 -24 58t24 58t58 24q33 0 57 -24t24 -58t-24 -58t-57 -24q-34 0 -58 24zM143.5 -193q-50.5 23 -78.5 64.5t-28 93.5q0 55 22 94t65 76q40 34 55 60t15 67v13h116v-28q0 -52 -20.5 -90t-66.5 -78q-35 -32 -49 -54t-14 -51q0 -35 28.5 -58t71.5 -23
q46 0 78 26.5t48 77.5l104 -41q-20 -78 -82 -125t-148 -47q-66 0 -116.5 23z" />
    <glyph glyph-name="Agrave" unicode="&#xc0;" horiz-adv-x="699" 
d="M683 0h-147l-49 140h-275l-49 -140h-147l261 700h144zM349 533l-97 -278h195zM398 774h-96l-126 160h138z" />
    <glyph glyph-name="Aacute" unicode="&#xc1;" horiz-adv-x="699" 
d="M683 0h-147l-49 140h-275l-49 -140h-147l261 700h144zM349 533l-97 -278h195zM398 774h-97l84 160h138z" />
    <glyph glyph-name="Acircumflex" unicode="&#xc2;" horiz-adv-x="699" 
d="M683 0h-147l-49 140h-275l-49 -140h-147l261 700h144zM349 533l-97 -278h195zM281 774h-86l109 160h91l108 -160h-85l-69 78z" />
    <glyph glyph-name="Atilde" unicode="&#xc3;" horiz-adv-x="699" 
d="M683 0h-147l-49 140h-275l-49 -140h-147l261 700h144zM349 533l-97 -278h195zM191 828q10 43 36 63.5t63 20.5q23 0 38.5 -5.5t36.5 -16.5q9 -5 19 -9t19 -4q28 0 40 34l65 -27q-10 -42 -36 -62.5t-63 -20.5q-22 0 -37.5 5.5t-36.5 15.5q-13 7 -21 10.5t-18 3.5
q-28 0 -39 -35z" />
    <glyph glyph-name="Adieresis" unicode="&#xc4;" horiz-adv-x="699" 
d="M683 0h-147l-49 140h-275l-49 -140h-147l261 700h144zM349 533l-97 -278h195zM182.5 797.5q-21.5 21.5 -21.5 50.5q0 30 21.5 51.5t51.5 21.5t51.5 -21.5t21.5 -51.5q0 -29 -21.5 -50.5t-51.5 -21.5t-51.5 21.5zM413.5 797.5q-21.5 21.5 -21.5 50.5q0 30 21.5 51.5
t50.5 21.5q30 0 51.5 -21.5t21.5 -51.5q0 -29 -21.5 -50.5t-51.5 -21.5q-29 0 -50.5 21.5z" />
    <glyph glyph-name="Aring" unicode="&#xc5;" horiz-adv-x="699" 
d="M683 0h-147l-49 140h-275l-49 -140h-147l261 700h144zM349 533l-97 -278h195zM277.5 792q-28.5 30 -28.5 74t28.5 74t71.5 30t71.5 -30t28.5 -74t-28.5 -74t-71.5 -30t-71.5 30zM375.5 835.5q10.5 11.5 10.5 29.5v2q0 18 -10.5 29.5t-26.5 11.5t-26.5 -11.5t-10.5 -29.5
v-2q0 -18 10.5 -29.5t26.5 -11.5t26.5 11.5z" />
    <glyph glyph-name="AE" unicode="&#xc6;" horiz-adv-x="967" 
d="M569 301v-179h352v-122h-486v142h-205l-61 -142h-153l314 700h589v-122h-350v-158h288v-119h-288zM417 578l-137 -320h155v320h-18z" />
    <glyph glyph-name="Ccedilla" unicode="&#xc7;" horiz-adv-x="684" 
d="M649 146q-43 -75 -110 -116t-157 -44l-8 -30q17 5 29 5q37 0 59.5 -22.5t22.5 -62.5q0 -43 -27 -67.5t-76 -24.5q-56 0 -84 16l24 57q22 -13 56 -13q18 0 28 9t10 26q0 15 -9.5 23.5t-25.5 8.5q-21 0 -35 -11l-37 18l13 71q-83 11 -146.5 58t-98.5 123t-35 171v18
q0 104 42 184.5t116.5 125.5t169.5 45t165.5 -41.5t112.5 -118.5l-102 -71q-30 51 -71.5 79t-100.5 28t-103.5 -29.5t-68.5 -81.5t-24 -118v-22q0 -66 24 -118t68.5 -81.5t103.5 -29.5q60 0 101 27.5t71 79.5z" />
    <glyph glyph-name="Egrave" unicode="&#xc8;" horiz-adv-x="596" 
d="M550 0h-485v700h484v-122h-351v-158h289v-119h-289v-179h352v-122zM356 774h-96l-126 160h138z" />
    <glyph glyph-name="Eacute" unicode="&#xc9;" horiz-adv-x="596" 
d="M550 0h-485v700h484v-122h-351v-158h289v-119h-289v-179h352v-122zM356 774h-97l84 160h138z" />
    <glyph glyph-name="Ecircumflex" unicode="&#xca;" horiz-adv-x="596" 
d="M550 0h-485v700h484v-122h-351v-158h289v-119h-289v-179h352v-122zM240 774h-86l109 160h91l108 -160h-85l-69 78z" />
    <glyph glyph-name="Edieresis" unicode="&#xcb;" horiz-adv-x="596" 
d="M550 0h-485v700h484v-122h-351v-158h289v-119h-289v-179h352v-122zM141.5 797.5q-21.5 21.5 -21.5 50.5q0 30 21.5 51.5t51.5 21.5t51.5 -21.5t21.5 -51.5q0 -29 -21.5 -50.5t-51.5 -21.5t-51.5 21.5zM372.5 797.5q-21.5 21.5 -21.5 50.5q0 30 21.5 51.5t50.5 21.5
q30 0 51.5 -21.5t21.5 -51.5q0 -29 -21.5 -50.5t-51.5 -21.5q-29 0 -50.5 21.5z" />
    <glyph glyph-name="Igrave" unicode="&#xcc;" horiz-adv-x="263" 
d="M198 0h-133v700h133v-700zM179 774h-96l-126 160h138z" />
    <glyph glyph-name="Iacute" unicode="&#xcd;" horiz-adv-x="263" 
d="M198 0h-133v700h133v-700zM180 774h-97l84 160h138z" />
    <glyph glyph-name="Icircumflex" unicode="&#xce;" horiz-adv-x="263" 
d="M198 0h-133v700h133v-700zM63 774h-86l109 160h91l108 -160h-85l-69 78z" />
    <glyph glyph-name="Idieresis" unicode="&#xcf;" horiz-adv-x="263" 
d="M198 0h-133v700h133v-700zM-35.5 797.5q-21.5 21.5 -21.5 50.5q0 30 21.5 51.5t51.5 21.5t51.5 -21.5t21.5 -51.5q0 -29 -21.5 -50.5t-51.5 -21.5t-51.5 21.5zM195.5 797.5q-21.5 21.5 -21.5 50.5q0 30 21.5 51.5t50.5 21.5q30 0 51.5 -21.5t21.5 -51.5
q0 -29 -21.5 -50.5t-51.5 -21.5q-29 0 -50.5 21.5z" />
    <glyph glyph-name="Eth" unicode="&#xd0;" horiz-adv-x="652" 
d="M292 700q100 0 176.5 -42t119 -119t42.5 -179v-20q0 -102 -42.5 -179t-119 -119t-176.5 -42h-227v291h-90v118h90v291h227zM493 360q0 101 -53.5 159.5t-148.5 58.5h-93v-169h144v-118h-144v-169h93q95 0 148.5 58.5t53.5 159.5v20z" />
    <glyph glyph-name="Ntilde" unicode="&#xd1;" horiz-adv-x="682" 
d="M192 0h-127v700h137l288 -462v462h127v-700h-122l-303 485v-485zM182 828q10 43 36 63.5t63 20.5q23 0 38.5 -5.5t36.5 -16.5q9 -5 19 -9t19 -4q28 0 40 34l65 -27q-10 -42 -36 -62.5t-63 -20.5q-22 0 -37.5 5.5t-36.5 15.5q-13 7 -21 10.5t-18 3.5q-28 0 -39 -35z" />
    <glyph glyph-name="Ograve" unicode="&#xd2;" horiz-adv-x="751" 
d="M202 31.5q-76 45.5 -118 126.5t-42 183v18q0 102 42 183t118 126.5t174 45.5t173.5 -45.5t117.5 -126.5t42 -183v-18q0 -102 -42 -183t-117.5 -126.5t-173.5 -45.5t-174 45.5zM481.5 139.5q44.5 29.5 68 81.5t23.5 118v22q0 66 -23.5 118t-68 81.5t-105.5 29.5
t-106 -29.5t-68.5 -81.5t-23.5 -118v-22q0 -66 23.5 -118t68.5 -81.5t106 -29.5t105.5 29.5zM424 774h-96l-126 160h138z" />
    <glyph glyph-name="Oacute" unicode="&#xd3;" horiz-adv-x="751" 
d="M202 31.5q-76 45.5 -118 126.5t-42 183v18q0 102 42 183t118 126.5t174 45.5t173.5 -45.5t117.5 -126.5t42 -183v-18q0 -102 -42 -183t-117.5 -126.5t-173.5 -45.5t-174 45.5zM481.5 139.5q44.5 29.5 68 81.5t23.5 118v22q0 66 -23.5 118t-68 81.5t-105.5 29.5
t-106 -29.5t-68.5 -81.5t-23.5 -118v-22q0 -66 23.5 -118t68.5 -81.5t106 -29.5t105.5 29.5zM424 774h-97l84 160h138z" />
    <glyph glyph-name="Ocircumflex" unicode="&#xd4;" horiz-adv-x="751" 
d="M202 31.5q-76 45.5 -118 126.5t-42 183v18q0 102 42 183t118 126.5t174 45.5t173.5 -45.5t117.5 -126.5t42 -183v-18q0 -102 -42 -183t-117.5 -126.5t-173.5 -45.5t-174 45.5zM481.5 139.5q44.5 29.5 68 81.5t23.5 118v22q0 66 -23.5 118t-68 81.5t-105.5 29.5
t-106 -29.5t-68.5 -81.5t-23.5 -118v-22q0 -66 23.5 -118t68.5 -81.5t106 -29.5t105.5 29.5zM308 774h-86l109 160h91l108 -160h-85l-69 78z" />
    <glyph glyph-name="Otilde" unicode="&#xd5;" horiz-adv-x="751" 
d="M202 31.5q-76 45.5 -118 126.5t-42 183v18q0 102 42 183t118 126.5t174 45.5t173.5 -45.5t117.5 -126.5t42 -183v-18q0 -102 -42 -183t-117.5 -126.5t-173.5 -45.5t-174 45.5zM481.5 139.5q44.5 29.5 68 81.5t23.5 118v22q0 66 -23.5 118t-68 81.5t-105.5 29.5
t-106 -29.5t-68.5 -81.5t-23.5 -118v-22q0 -66 23.5 -118t68.5 -81.5t106 -29.5t105.5 29.5zM218 828q10 43 36 63.5t63 20.5q23 0 38.5 -5.5t36.5 -16.5q9 -5 19 -9t19 -4q28 0 40 34l65 -27q-10 -42 -36 -62.5t-63 -20.5q-22 0 -37.5 5.5t-36.5 15.5q-13 7 -21 10.5
t-18 3.5q-28 0 -39 -35z" />
    <glyph glyph-name="Odieresis" unicode="&#xd6;" horiz-adv-x="751" 
d="M202 31.5q-76 45.5 -118 126.5t-42 183v18q0 102 42 183t118 126.5t174 45.5t173.5 -45.5t117.5 -126.5t42 -183v-18q0 -102 -42 -183t-117.5 -126.5t-173.5 -45.5t-174 45.5zM481.5 139.5q44.5 29.5 68 81.5t23.5 118v22q0 66 -23.5 118t-68 81.5t-105.5 29.5
t-106 -29.5t-68.5 -81.5t-23.5 -118v-22q0 -66 23.5 -118t68.5 -81.5t106 -29.5t105.5 29.5zM209.5 797.5q-21.5 21.5 -21.5 50.5q0 30 21.5 51.5t51.5 21.5t51.5 -21.5t21.5 -51.5q0 -29 -21.5 -50.5t-51.5 -21.5t-51.5 21.5zM440.5 797.5q-21.5 21.5 -21.5 50.5
q0 30 21.5 51.5t50.5 21.5q30 0 51.5 -21.5t21.5 -51.5q0 -29 -21.5 -50.5t-51.5 -21.5q-29 0 -50.5 21.5z" />
    <glyph glyph-name="multiply" unicode="&#xd7;" horiz-adv-x="495" 
d="M389 531l76 -76l-141 -141l140 -141l-75 -75l-140 141l-142 -142l-77 76l142 142l-141 141l75 75l141 -141z" />
    <glyph glyph-name="Oslash" unicode="&#xd8;" horiz-adv-x="751" 
d="M580 648q61 -48 95 -123t34 -166v-18q0 -102 -42 -183t-117.5 -126.5t-173.5 -45.5q-57 0 -105 15l-39 -81h-124l64 133q-62 47 -96 121.5t-34 166.5v18q0 102 42 183t118 126.5t174 45.5q57 0 105 -15l39 81h123zM178 339q0 -101 52 -164l196 409q-22 6 -50 6
q-61 0 -106 -29.5t-68.5 -81.5t-23.5 -118v-22zM573 361q0 101 -52 164l-195 -409q23 -6 50 -6q61 0 105.5 29.5t68 81.5t23.5 118v22z" />
    <glyph glyph-name="Ugrave" unicode="&#xd9;" horiz-adv-x="651" 
d="M128.5 65q-68.5 79 -68.5 210v425h133v-436q0 -69 35.5 -111t97.5 -42q61 0 96.5 42t35.5 111v436h133v-425q0 -131 -68 -210t-197 -79t-197.5 79zM374 774h-96l-126 160h138z" />
    <glyph glyph-name="Uacute" unicode="&#xda;" horiz-adv-x="651" 
d="M128.5 65q-68.5 79 -68.5 210v425h133v-436q0 -69 35.5 -111t97.5 -42q61 0 96.5 42t35.5 111v436h133v-425q0 -131 -68 -210t-197 -79t-197.5 79zM374 774h-97l84 160h138z" />
    <glyph glyph-name="Ucircumflex" unicode="&#xdb;" horiz-adv-x="651" 
d="M128.5 65q-68.5 79 -68.5 210v425h133v-436q0 -69 35.5 -111t97.5 -42q61 0 96.5 42t35.5 111v436h133v-425q0 -131 -68 -210t-197 -79t-197.5 79zM258 774h-86l109 160h91l108 -160h-85l-69 78z" />
    <glyph glyph-name="Udieresis" unicode="&#xdc;" horiz-adv-x="651" 
d="M128.5 65q-68.5 79 -68.5 210v425h133v-436q0 -69 35.5 -111t97.5 -42q61 0 96.5 42t35.5 111v436h133v-425q0 -131 -68 -210t-197 -79t-197.5 79zM159.5 797.5q-21.5 21.5 -21.5 50.5q0 30 21.5 51.5t51.5 21.5t51.5 -21.5t21.5 -51.5q0 -29 -21.5 -50.5t-51.5 -21.5
t-51.5 21.5zM390.5 797.5q-21.5 21.5 -21.5 50.5q0 30 21.5 51.5t50.5 21.5q30 0 51.5 -21.5t21.5 -51.5q0 -29 -21.5 -50.5t-51.5 -21.5q-29 0 -50.5 21.5z" />
    <glyph glyph-name="Yacute" unicode="&#xdd;" horiz-adv-x="622" 
d="M377 0h-133v283l-232 417h154l144 -280l145 280h155l-233 -417v-283zM359 774h-97l84 160h138z" />
    <glyph glyph-name="Thorn" unicode="&#xde;" horiz-adv-x="590" 
d="M65 0v700h133v-150h134q100 0 157.5 -52t57.5 -148t-57.5 -148t-157.5 -52h-134v-150h-133zM324 264q43 0 67 22t24 64t-24 64t-67 22h-126v-172h126z" />
    <glyph glyph-name="germandbls" unicode="&#xdf;" horiz-adv-x="559" 
d="M232 4v115q36 -15 73 -15q45 0 70.5 27.5t25.5 77.5v5q0 53 -32.5 82.5t-85.5 29.5h-25v104h23q40 0 63.5 23t23.5 63v2q0 40 -24 63t-66 23q-45 0 -71.5 -28.5t-26.5 -78.5v-497h-121v495q0 103 58 160t159 57q98 0 153 -49.5t55 -132.5v-1q0 -50 -23.5 -86.5
t-59.5 -54.5q53 -18 87 -65t34 -119v-5q0 -67 -26.5 -114.5t-71 -72t-100.5 -24.5q-48 0 -92 16z" />
    <glyph glyph-name="agrave" unicode="&#xe0;" horiz-adv-x="542" 
d="M84.5 28.5q-43.5 40.5 -43.5 106.5v2q0 132 176 161l117 20v9q0 38 -23.5 61.5t-64.5 23.5q-78 0 -104 -77l-100 39q24 61 77.5 97.5t126.5 36.5q98 0 151.5 -48.5t53.5 -128.5v-196q0 -46 38 -46q19 0 33 7v-93q-30 -15 -71 -15q-42 0 -69.5 22.5t-34.5 58.5
q-22 -38 -57.5 -59.5t-94.5 -21.5q-67 0 -110.5 40.5zM306 120.5q28 35.5 28 96.5v16l-105 -21q-69 -16 -69 -69q0 -27 18 -42.5t49 -15.5q51 0 79 35.5zM300 570h-96l-126 160h138z" />
    <glyph glyph-name="aacute" unicode="&#xe1;" horiz-adv-x="542" 
d="M84.5 28.5q-43.5 40.5 -43.5 106.5v2q0 132 176 161l117 20v9q0 38 -23.5 61.5t-64.5 23.5q-78 0 -104 -77l-100 39q24 61 77.5 97.5t126.5 36.5q98 0 151.5 -48.5t53.5 -128.5v-196q0 -46 38 -46q19 0 33 7v-93q-30 -15 -71 -15q-42 0 -69.5 22.5t-34.5 58.5
q-22 -38 -57.5 -59.5t-94.5 -21.5q-67 0 -110.5 40.5zM306 120.5q28 35.5 28 96.5v16l-105 -21q-69 -16 -69 -69q0 -27 18 -42.5t49 -15.5q51 0 79 35.5zM300 570h-97l84 160h138z" />
    <glyph glyph-name="acircumflex" unicode="&#xe2;" horiz-adv-x="542" 
d="M84.5 28.5q-43.5 40.5 -43.5 106.5v2q0 132 176 161l117 20v9q0 38 -23.5 61.5t-64.5 23.5q-78 0 -104 -77l-100 39q24 61 77.5 97.5t126.5 36.5q98 0 151.5 -48.5t53.5 -128.5v-196q0 -46 38 -46q19 0 33 7v-93q-30 -15 -71 -15q-42 0 -69.5 22.5t-34.5 58.5
q-22 -38 -57.5 -59.5t-94.5 -21.5q-67 0 -110.5 40.5zM306 120.5q28 35.5 28 96.5v16l-105 -21q-69 -16 -69 -69q0 -27 18 -42.5t49 -15.5q51 0 79 35.5zM184 570h-86l109 160h91l108 -160h-85l-69 78z" />
    <glyph glyph-name="atilde" unicode="&#xe3;" horiz-adv-x="542" 
d="M84.5 28.5q-43.5 40.5 -43.5 106.5v2q0 132 176 161l117 20v9q0 38 -23.5 61.5t-64.5 23.5q-78 0 -104 -77l-100 39q24 61 77.5 97.5t126.5 36.5q98 0 151.5 -48.5t53.5 -128.5v-196q0 -46 38 -46q19 0 33 7v-93q-30 -15 -71 -15q-42 0 -69.5 22.5t-34.5 58.5
q-22 -38 -57.5 -59.5t-94.5 -21.5q-67 0 -110.5 40.5zM306 120.5q28 35.5 28 96.5v16l-105 -21q-69 -16 -69 -69q0 -27 18 -42.5t49 -15.5q51 0 79 35.5zM93 624q10 43 36 63.5t63 20.5q23 0 38.5 -5.5t36.5 -16.5q9 -5 19 -9t19 -4q28 0 40 34l65 -27q-10 -42 -36 -62.5
t-63 -20.5q-22 0 -37.5 5.5t-36.5 15.5q-13 7 -21 10.5t-18 3.5q-28 0 -39 -35z" />
    <glyph glyph-name="adieresis" unicode="&#xe4;" horiz-adv-x="542" 
d="M84.5 28.5q-43.5 40.5 -43.5 106.5v2q0 132 176 161l117 20v9q0 38 -23.5 61.5t-64.5 23.5q-78 0 -104 -77l-100 39q24 61 77.5 97.5t126.5 36.5q98 0 151.5 -48.5t53.5 -128.5v-196q0 -46 38 -46q19 0 33 7v-93q-30 -15 -71 -15q-42 0 -69.5 22.5t-34.5 58.5
q-22 -38 -57.5 -59.5t-94.5 -21.5q-67 0 -110.5 40.5zM306 120.5q28 35.5 28 96.5v16l-105 -21q-69 -16 -69 -69q0 -27 18 -42.5t49 -15.5q51 0 79 35.5zM85.5 593.5q-21.5 21.5 -21.5 50.5q0 30 21.5 51.5t51.5 21.5t51.5 -21.5t21.5 -51.5q0 -29 -21.5 -50.5t-51.5 -21.5
t-51.5 21.5zM316.5 593.5q-21.5 21.5 -21.5 50.5q0 30 21.5 51.5t50.5 21.5q30 0 51.5 -21.5t21.5 -51.5q0 -29 -21.5 -50.5t-51.5 -21.5q-29 0 -50.5 21.5z" />
    <glyph glyph-name="aring" unicode="&#xe5;" horiz-adv-x="542" 
d="M84.5 28.5q-43.5 40.5 -43.5 106.5v2q0 132 176 161l117 20v9q0 38 -23.5 61.5t-64.5 23.5q-78 0 -104 -77l-100 39q24 61 77.5 97.5t126.5 36.5q98 0 151.5 -48.5t53.5 -128.5v-196q0 -46 38 -46q19 0 33 7v-93q-30 -15 -71 -15q-42 0 -69.5 22.5t-34.5 58.5
q-22 -38 -57.5 -59.5t-94.5 -21.5q-67 0 -110.5 40.5zM306 120.5q28 35.5 28 96.5v16l-105 -21q-69 -16 -69 -69q0 -27 18 -42.5t49 -15.5q51 0 79 35.5zM179.5 588q-28.5 30 -28.5 74t28.5 74t71.5 30t71.5 -30t28.5 -74t-28.5 -74t-71.5 -30t-71.5 30zM277.5 631.5
q10.5 11.5 10.5 29.5v2q0 18 -10.5 29.5t-26.5 11.5t-26.5 -11.5t-10.5 -29.5v-2q0 -18 10.5 -29.5t26.5 -11.5t26.5 11.5z" />
    <glyph glyph-name="ae" unicode="&#xe6;" horiz-adv-x="848" 
d="M811 220h-357q5 -59 38 -94.5t86 -35.5q43 0 70 18.5t44 55.5l106 -43q-57 -133 -220 -133q-64 0 -115.5 27t-83.5 75q-26 -48 -68 -75t-110 -27q-69 0 -114.5 40.5t-45.5 106.5q0 72 47.5 111.5t130.5 47.5l115 9v23q0 38 -24 62t-65 24q-77 0 -103 -77l-100 39
q24 61 77.5 97.5t125.5 36.5q56 0 98.5 -16.5t68.5 -46.5q68 63 166 63q65 0 118 -28.5t84 -85t31 -136.5v-38zM499 381q-31 -27 -41 -75h233q-6 45 -37 73.5t-76 28.5q-48 0 -79 -27zM334 218l-103 -9q-71 -5 -71 -63q0 -27 18.5 -44t48.5 -17q52 0 79.5 33.5t27.5 90.5v9z
" />
    <glyph glyph-name="ccedilla" unicode="&#xe7;" horiz-adv-x="531" 
d="M498 126q-27 -63 -79 -99t-126 -39l-8 -32q15 5 29 5q36 0 59 -22.5t23 -62.5q0 -43 -27 -67.5t-76 -24.5q-58 0 -84 16l23 57q23 -13 56 -13q18 0 28.5 9t10.5 26q0 15 -9.5 23.5t-26.5 8.5q-19 0 -35 -11l-37 18l13 74q-87 17 -141 85.5t-54 165.5v10q0 73 31.5 131
t87 91t125.5 33q80 0 134.5 -36.5t80.5 -101.5l-103 -54q-15 36 -43.5 57t-68.5 21q-54 0 -87 -39t-33 -101v-12q0 -62 33 -101t87 -39q40 0 68 21t44 57z" />
    <glyph glyph-name="egrave" unicode="&#xe8;" horiz-adv-x="551" 
d="M514 220h-356q5 -59 37.5 -94.5t85.5 -35.5q43 0 70 18.5t44 55.5l106 -43q-58 -133 -220 -133q-71 0 -126.5 33t-86.5 91t-31 131v10q0 73 31 131t87 91t126 33q65 0 118 -28.5t84 -85t31 -136.5v-38zM202.5 381q-30.5 -27 -40.5 -75h232q-6 45 -37 73.5t-76 28.5
q-48 0 -78.5 -27zM329 570h-96l-126 160h138z" />
    <glyph glyph-name="eacute" unicode="&#xe9;" horiz-adv-x="551" 
d="M514 220h-356q5 -59 37.5 -94.5t85.5 -35.5q43 0 70 18.5t44 55.5l106 -43q-58 -133 -220 -133q-71 0 -126.5 33t-86.5 91t-31 131v10q0 73 31 131t87 91t126 33q65 0 118 -28.5t84 -85t31 -136.5v-38zM202.5 381q-30.5 -27 -40.5 -75h232q-6 45 -37 73.5t-76 28.5
q-48 0 -78.5 -27zM329 570h-97l84 160h138z" />
    <glyph glyph-name="ecircumflex" unicode="&#xea;" horiz-adv-x="551" 
d="M514 220h-356q5 -59 37.5 -94.5t85.5 -35.5q43 0 70 18.5t44 55.5l106 -43q-58 -133 -220 -133q-71 0 -126.5 33t-86.5 91t-31 131v10q0 73 31 131t87 91t126 33q65 0 118 -28.5t84 -85t31 -136.5v-38zM202.5 381q-30.5 -27 -40.5 -75h232q-6 45 -37 73.5t-76 28.5
q-48 0 -78.5 -27zM213 570h-86l109 160h91l108 -160h-85l-69 78z" />
    <glyph glyph-name="edieresis" unicode="&#xeb;" horiz-adv-x="551" 
d="M514 220h-356q5 -59 37.5 -94.5t85.5 -35.5q43 0 70 18.5t44 55.5l106 -43q-58 -133 -220 -133q-71 0 -126.5 33t-86.5 91t-31 131v10q0 73 31 131t87 91t126 33q65 0 118 -28.5t84 -85t31 -136.5v-38zM202.5 381q-30.5 -27 -40.5 -75h232q-6 45 -37 73.5t-76 28.5
q-48 0 -78.5 -27zM114.5 593.5q-21.5 21.5 -21.5 50.5q0 30 21.5 51.5t51.5 21.5t51.5 -21.5t21.5 -51.5q0 -29 -21.5 -50.5t-51.5 -21.5t-51.5 21.5zM345.5 593.5q-21.5 21.5 -21.5 50.5q0 30 21.5 51.5t50.5 21.5q30 0 51.5 -21.5t21.5 -51.5q0 -29 -21.5 -50.5
t-51.5 -21.5q-29 0 -50.5 21.5z" />
    <glyph glyph-name="igrave" unicode="&#xec;" 
d="M180 0h-121v496h121v-496zM168 570h-96l-126 160h138z" />
    <glyph glyph-name="iacute" unicode="&#xed;" 
d="M180 0h-121v496h121v-496zM168 570h-97l84 160h138z" />
    <glyph glyph-name="icircumflex" unicode="&#xee;" 
d="M180 0h-121v496h121v-496zM51 570h-86l109 160h91l108 -160h-85l-69 78z" />
    <glyph glyph-name="idieresis" unicode="&#xef;" 
d="M180 0h-121v496h121v-496zM-47.5 593.5q-21.5 21.5 -21.5 50.5q0 30 21.5 51.5t51.5 21.5t51.5 -21.5t21.5 -51.5q0 -29 -21.5 -50.5t-51.5 -21.5t-51.5 21.5zM183.5 593.5q-21.5 21.5 -21.5 50.5q0 30 21.5 51.5t50.5 21.5q30 0 51.5 -21.5t21.5 -51.5
q0 -29 -21.5 -50.5t-51.5 -21.5q-29 0 -50.5 21.5z" />
    <glyph glyph-name="eth" unicode="&#xf0;" horiz-adv-x="535" 
d="M411 478q44 -63 65.5 -117t21.5 -120v-4q0 -79 -30.5 -135.5t-82.5 -85t-117 -28.5t-118 30.5t-83 85t-30 124.5v4q0 71 28 125.5t77.5 84t112.5 29.5q29 0 46 -11l-57 77l-81 -50l-41 73l72 45l-70 95h133l27 -39l75 46l41 -72l-68 -43zM383 232q0 62 -31 98.5t-83 36.5
q-53 0 -85 -36.5t-32 -98.5v-5q0 -61 32 -97.5t84 -36.5q51 0 83 36.5t32 97.5v5z" />
    <glyph glyph-name="ntilde" unicode="&#xf1;" horiz-adv-x="548" 
d="M59 0v496h121v-52q15 26 51.5 45t80.5 19q85 0 131 -50t46 -140v-318h-120v295q0 48 -26.5 75.5t-68.5 27.5t-68 -28t-26 -76v-294h-121zM115 624q10 43 36 63.5t63 20.5q23 0 38.5 -5.5t36.5 -16.5q9 -5 19 -9t19 -4q28 0 40 34l65 -27q-10 -42 -36 -62.5t-63 -20.5
q-22 0 -37.5 5.5t-36.5 15.5q-13 7 -21 10.5t-18 3.5q-28 0 -39 -35z" />
    <glyph glyph-name="ograve" unicode="&#xf2;" horiz-adv-x="565" 
d="M156 21q-56 33 -87.5 91t-31.5 131v10q0 73 31.5 131t87.5 91t126 33q71 0 127 -33t87.5 -91t31.5 -131v-10q0 -73 -31.5 -131t-87.5 -91t-127 -33q-70 0 -126 33zM371 141q33 39 33 101v12q0 62 -33 101t-89 39q-55 0 -88 -39t-33 -101v-12q0 -62 33 -101t88 -39
q56 0 89 39zM330 570h-96l-126 160h138z" />
    <glyph glyph-name="oacute" unicode="&#xf3;" horiz-adv-x="565" 
d="M156 21q-56 33 -87.5 91t-31.5 131v10q0 73 31.5 131t87.5 91t126 33q71 0 127 -33t87.5 -91t31.5 -131v-10q0 -73 -31.5 -131t-87.5 -91t-127 -33q-70 0 -126 33zM371 141q33 39 33 101v12q0 62 -33 101t-89 39q-55 0 -88 -39t-33 -101v-12q0 -62 33 -101t88 -39
q56 0 89 39zM331 570h-97l84 160h138z" />
    <glyph glyph-name="ocircumflex" unicode="&#xf4;" horiz-adv-x="565" 
d="M156 21q-56 33 -87.5 91t-31.5 131v10q0 73 31.5 131t87.5 91t126 33q71 0 127 -33t87.5 -91t31.5 -131v-10q0 -73 -31.5 -131t-87.5 -91t-127 -33q-70 0 -126 33zM371 141q33 39 33 101v12q0 62 -33 101t-89 39q-55 0 -88 -39t-33 -101v-12q0 -62 33 -101t88 -39
q56 0 89 39zM214 570h-86l109 160h91l108 -160h-85l-69 78z" />
    <glyph glyph-name="otilde" unicode="&#xf5;" horiz-adv-x="565" 
d="M156 21q-56 33 -87.5 91t-31.5 131v10q0 73 31.5 131t87.5 91t126 33q71 0 127 -33t87.5 -91t31.5 -131v-10q0 -73 -31.5 -131t-87.5 -91t-127 -33q-70 0 -126 33zM371 141q33 39 33 101v12q0 62 -33 101t-89 39q-55 0 -88 -39t-33 -101v-12q0 -62 33 -101t88 -39
q56 0 89 39zM124 624q10 43 36 63.5t63 20.5q23 0 38.5 -5.5t36.5 -16.5q9 -5 19 -9t19 -4q28 0 40 34l65 -27q-10 -42 -36 -62.5t-63 -20.5q-22 0 -37.5 5.5t-36.5 15.5q-13 7 -21 10.5t-18 3.5q-28 0 -39 -35z" />
    <glyph glyph-name="odieresis" unicode="&#xf6;" horiz-adv-x="565" 
d="M156 21q-56 33 -87.5 91t-31.5 131v10q0 73 31.5 131t87.5 91t126 33q71 0 127 -33t87.5 -91t31.5 -131v-10q0 -73 -31.5 -131t-87.5 -91t-127 -33q-70 0 -126 33zM371 141q33 39 33 101v12q0 62 -33 101t-89 39q-55 0 -88 -39t-33 -101v-12q0 -62 33 -101t88 -39
q56 0 89 39zM115.5 593.5q-21.5 21.5 -21.5 50.5q0 30 21.5 51.5t51.5 21.5t51.5 -21.5t21.5 -51.5q0 -29 -21.5 -50.5t-51.5 -21.5t-51.5 21.5zM346.5 593.5q-21.5 21.5 -21.5 50.5q0 30 21.5 51.5t50.5 21.5q30 0 51.5 -21.5t21.5 -51.5q0 -29 -21.5 -50.5t-51.5 -21.5
q-29 0 -50.5 21.5z" />
    <glyph glyph-name="divide" unicode="&#xf7;" horiz-adv-x="496" 
d="M466 261h-436v106h436v-106zM189.5 56q-24.5 24 -24.5 58t24.5 58.5t57.5 24.5q34 0 58.5 -24.5t24.5 -58.5t-24.5 -58t-58.5 -24q-33 0 -57.5 24zM189.5 455q-24.5 24 -24.5 58t24.5 58.5t57.5 24.5q34 0 58.5 -24.5t24.5 -58.5t-24.5 -58t-58.5 -24q-33 0 -57.5 24z
" />
    <glyph glyph-name="oslash" unicode="&#xf8;" horiz-adv-x="565" 
d="M438 455q43 -35 66.5 -87t23.5 -115v-10q0 -73 -31.5 -131t-87.5 -91t-127 -33q-38 0 -71 9l-32 -65h-107l54 109q-42 35 -65.5 87.5t-23.5 114.5v10q0 73 31.5 131t87.5 91t126 33q40 0 71 -10l33 66h106zM156 242q0 -54 24 -92l124 248q-14 2 -22 2q-57 0 -91.5 -40.5
t-34.5 -105.5v-12zM409 254q0 54 -25 93l-123 -249q14 -2 21 -2q59 0 93 40.5t34 105.5v12z" />
    <glyph glyph-name="ugrave" unicode="&#xf9;" horiz-adv-x="548" 
d="M105 38.5q-46 50.5 -46 139.5v318h121v-295q0 -48 26 -75.5t68 -27.5t68.5 28t26.5 76v294h120v-496h-120v52q-16 -26 -52 -45t-80 -19q-86 0 -132 50.5zM323 570h-96l-126 160h138z" />
    <glyph glyph-name="uacute" unicode="&#xfa;" horiz-adv-x="548" 
d="M105 38.5q-46 50.5 -46 139.5v318h121v-295q0 -48 26 -75.5t68 -27.5t68.5 28t26.5 76v294h120v-496h-120v52q-16 -26 -52 -45t-80 -19q-86 0 -132 50.5zM323 570h-97l84 160h138z" />
    <glyph glyph-name="ucircumflex" unicode="&#xfb;" horiz-adv-x="548" 
d="M105 38.5q-46 50.5 -46 139.5v318h121v-295q0 -48 26 -75.5t68 -27.5t68.5 28t26.5 76v294h120v-496h-120v52q-16 -26 -52 -45t-80 -19q-86 0 -132 50.5zM206 570h-86l109 160h91l108 -160h-85l-69 78z" />
    <glyph glyph-name="udieresis" unicode="&#xfc;" horiz-adv-x="548" 
d="M105 38.5q-46 50.5 -46 139.5v318h121v-295q0 -48 26 -75.5t68 -27.5t68.5 28t26.5 76v294h120v-496h-120v52q-16 -26 -52 -45t-80 -19q-86 0 -132 50.5zM107.5 593.5q-21.5 21.5 -21.5 50.5q0 30 21.5 51.5t51.5 21.5t51.5 -21.5t21.5 -51.5q0 -29 -21.5 -50.5
t-51.5 -21.5t-51.5 21.5zM338.5 593.5q-21.5 21.5 -21.5 50.5q0 30 21.5 51.5t50.5 21.5q30 0 51.5 -21.5t21.5 -51.5q0 -29 -21.5 -50.5t-51.5 -21.5q-29 0 -50.5 21.5z" />
    <glyph glyph-name="yacute" unicode="&#xfd;" horiz-adv-x="534" 
d="M389 496h130l-212 -559q-30 -79 -73.5 -114t-119.5 -35q-50 0 -82 15v120q40 -22 82 -22q34 0 55 18.5t36 59.5l8 23l-202 494h134l124 -338zM317 570h-97l84 160h138z" />
    <glyph glyph-name="thorn" unicode="&#xfe;" horiz-adv-x="573" 
d="M59 -203v903h121v-259q19 30 56.5 48.5t82.5 18.5q63 0 112 -31.5t77 -89.5t28 -134v-10q0 -76 -28 -134t-77.5 -89.5t-113.5 -31.5q-46 0 -81 17t-56 44v-252h-121zM379 140.5q33 38.5 33 101.5v12q0 63 -33 101.5t-86 38.5t-85.5 -38.5t-32.5 -101.5v-12
q0 -63 32.5 -101.5t85.5 -38.5t86 38.5z" />
    <glyph glyph-name="ydieresis" unicode="&#xff;" horiz-adv-x="534" 
d="M389 496h130l-212 -559q-30 -79 -73.5 -114t-119.5 -35q-50 0 -82 15v120q40 -22 82 -22q34 0 55 18.5t36 59.5l8 23l-202 494h134l124 -338zM102.5 593.5q-21.5 21.5 -21.5 50.5q0 30 21.5 51.5t51.5 21.5t51.5 -21.5t21.5 -51.5q0 -29 -21.5 -50.5t-51.5 -21.5
t-51.5 21.5zM333.5 593.5q-21.5 21.5 -21.5 50.5q0 30 21.5 51.5t50.5 21.5q30 0 51.5 -21.5t21.5 -51.5q0 -29 -21.5 -50.5t-51.5 -21.5q-29 0 -50.5 21.5z" />
    <glyph glyph-name="Amacron" unicode="&#x100;" horiz-adv-x="699" 
d="M683 0h-147l-49 140h-275l-49 -140h-147l261 700h144zM349 533l-97 -278h195zM471 813h-244v88h244v-88z" />
    <glyph glyph-name="amacron" unicode="&#x101;" horiz-adv-x="542" 
d="M84.5 28.5q-43.5 40.5 -43.5 106.5v2q0 132 176 161l117 20v9q0 38 -23.5 61.5t-64.5 23.5q-78 0 -104 -77l-100 39q24 61 77.5 97.5t126.5 36.5q98 0 151.5 -48.5t53.5 -128.5v-196q0 -46 38 -46q19 0 33 7v-93q-30 -15 -71 -15q-42 0 -69.5 22.5t-34.5 58.5
q-22 -38 -57.5 -59.5t-94.5 -21.5q-67 0 -110.5 40.5zM306 120.5q28 35.5 28 96.5v16l-105 -21q-69 -16 -69 -69q0 -27 18 -42.5t49 -15.5q51 0 79 35.5zM373 609h-244v88h244v-88z" />
    <glyph glyph-name="Abreve" unicode="&#x102;" horiz-adv-x="699" 
d="M683 0h-147l-49 140h-275l-49 -140h-147l261 700h144zM349 533l-97 -278h195zM264.5 806q-30.5 34 -30.5 86h76q0 -24 10 -37.5t29 -13.5t30 14t11 37h76q0 -52 -31 -86t-86 -34q-54 0 -84.5 34z" />
    <glyph glyph-name="abreve" unicode="&#x103;" horiz-adv-x="542" 
d="M84.5 28.5q-43.5 40.5 -43.5 106.5v2q0 132 176 161l117 20v9q0 38 -23.5 61.5t-64.5 23.5q-78 0 -104 -77l-100 39q24 61 77.5 97.5t126.5 36.5q98 0 151.5 -48.5t53.5 -128.5v-196q0 -46 38 -46q19 0 33 7v-93q-30 -15 -71 -15q-42 0 -69.5 22.5t-34.5 58.5
q-22 -38 -57.5 -59.5t-94.5 -21.5q-67 0 -110.5 40.5zM306 120.5q28 35.5 28 96.5v16l-105 -21q-69 -16 -69 -69q0 -27 18 -42.5t49 -15.5q51 0 79 35.5zM166.5 602q-30.5 34 -30.5 86h76q0 -24 10 -37.5t29 -13.5t30 14t11 37h76q0 -52 -31 -86t-86 -34q-54 0 -84.5 34z
" />
    <glyph glyph-name="Aogonek" unicode="&#x104;" horiz-adv-x="699" 
d="M690 -123v-72q-22 -11 -54 -11q-44 0 -72.5 25t-28.5 73q0 34 14.5 61.5t38.5 46.5h-52l-49 140h-275l-49 -140h-147l261 700h144l262 -700h-1q-30 -17 -48.5 -41.5t-18.5 -51.5q0 -18 11 -28.5t28 -10.5q18 0 36 9zM349 533l-97 -278h195z" />
    <glyph glyph-name="aogonek" unicode="&#x105;" horiz-adv-x="542" 
d="M530 -121v-71q-22 -11 -54 -11q-44 0 -72.5 25t-28.5 73q0 55 41 98q-27 7 -45.5 27.5t-23.5 48.5q-22 -38 -57.5 -59.5t-94.5 -21.5q-67 0 -110.5 40.5t-43.5 106.5v2q0 132 176 161l117 20v9q0 38 -23.5 61.5t-64.5 23.5q-78 0 -104 -77l-100 39q24 61 77.5 97.5
t126.5 36.5q98 0 151.5 -48.5t53.5 -128.5v-196q0 -46 38 -46q19 0 33 7v-93q-30 -17 -48.5 -41.5t-18.5 -51.5q0 -18 11 -28.5t28 -10.5q20 0 36 8zM334 239l-105 -22q-69 -13 -69 -71q0 -27 18.5 -44t48.5 -17q51 0 79 35.5t28 96.5v22z" />
    <glyph glyph-name="Cacute" unicode="&#x106;" horiz-adv-x="684" 
d="M200 31q-75 45 -116.5 125.5t-41.5 184.5v18q0 104 42 184.5t116.5 125.5t169.5 45t165.5 -41.5t112.5 -118.5l-102 -71q-30 51 -71.5 79t-100.5 28t-103.5 -29.5t-68.5 -81.5t-24 -118v-22q0 -66 24 -118t68.5 -81.5t103.5 -29.5q60 0 101 27.5t71 79.5l103 -71
q-93 -160 -279 -160q-95 0 -170 45zM422 774h-97l84 160h138z" />
    <glyph glyph-name="cacute" unicode="&#x107;" horiz-adv-x="531" 
d="M155.5 21q-55.5 33 -87 91t-31.5 131v10q0 73 31.5 131t87 91t125.5 33q80 0 134.5 -36.5t80.5 -101.5l-103 -54q-15 36 -43.5 57t-68.5 21q-54 0 -87 -39t-33 -101v-12q0 -62 33 -101t87 -39q40 0 68 21t44 57l105 -54q-28 -65 -83 -101.5t-134 -36.5q-70 0 -125.5 33z
M330 570h-97l84 160h138z" />
    <glyph glyph-name="Ccircumflex" unicode="&#x108;" horiz-adv-x="684" 
d="M200 31q-75 45 -116.5 125.5t-41.5 184.5v18q0 104 42 184.5t116.5 125.5t169.5 45t165.5 -41.5t112.5 -118.5l-102 -71q-30 51 -71.5 79t-100.5 28t-103.5 -29.5t-68.5 -81.5t-24 -118v-22q0 -66 24 -118t68.5 -81.5t103.5 -29.5q60 0 101 27.5t71 79.5l103 -71
q-93 -160 -279 -160q-95 0 -170 45zM306 774h-86l109 160h91l108 -160h-85l-69 78z" />
    <glyph glyph-name="ccircumflex" unicode="&#x109;" horiz-adv-x="531" 
d="M155.5 21q-55.5 33 -87 91t-31.5 131v10q0 73 31.5 131t87 91t125.5 33q80 0 134.5 -36.5t80.5 -101.5l-103 -54q-15 36 -43.5 57t-68.5 21q-54 0 -87 -39t-33 -101v-12q0 -62 33 -101t87 -39q40 0 68 21t44 57l105 -54q-28 -65 -83 -101.5t-134 -36.5q-70 0 -125.5 33z
M213 570h-86l109 160h91l108 -160h-85l-69 78z" />
    <glyph glyph-name="Cdotaccent" unicode="&#x10a;" horiz-adv-x="684" 
d="M200 31q-75 45 -116.5 125.5t-41.5 184.5v18q0 104 42 184.5t116.5 125.5t169.5 45t165.5 -41.5t112.5 -118.5l-102 -71q-30 51 -71.5 79t-100.5 28t-103.5 -29.5t-68.5 -81.5t-24 -118v-22q0 -66 24 -118t68.5 -81.5t103.5 -29.5q60 0 101 27.5t71 79.5l103 -71
q-93 -160 -279 -160q-95 0 -170 45zM317.5 792q-23.5 23 -23.5 56t23.5 56.5t56.5 23.5t56 -23.5t23 -56.5t-23 -56t-56 -23t-56.5 23z" />
    <glyph glyph-name="cdotaccent" unicode="&#x10b;" horiz-adv-x="531" 
d="M155.5 21q-55.5 33 -87 91t-31.5 131v10q0 73 31.5 131t87 91t125.5 33q80 0 134.5 -36.5t80.5 -101.5l-103 -54q-15 36 -43.5 57t-68.5 21q-54 0 -87 -39t-33 -101v-12q0 -62 33 -101t87 -39q40 0 68 21t44 57l105 -54q-28 -65 -83 -101.5t-134 -36.5q-70 0 -125.5 33z
M224.5 588q-23.5 23 -23.5 56t23.5 56.5t56.5 23.5t56 -23.5t23 -56.5t-23 -56t-56 -23t-56.5 23z" />
    <glyph glyph-name="Ccaron" unicode="&#x10c;" horiz-adv-x="684" 
d="M200 31q-75 45 -116.5 125.5t-41.5 184.5v18q0 104 42 184.5t116.5 125.5t169.5 45t165.5 -41.5t112.5 -118.5l-102 -71q-30 51 -71.5 79t-100.5 28t-103.5 -29.5t-68.5 -81.5t-24 -118v-22q0 -66 24 -118t68.5 -81.5t103.5 -29.5q60 0 101 27.5t71 79.5l103 -71
q-93 -160 -279 -160q-95 0 -170 45zM420 774h-91l-109 160h86l68 -73l69 73h85z" />
    <glyph glyph-name="ccaron" unicode="&#x10d;" horiz-adv-x="531" 
d="M155.5 21q-55.5 33 -87 91t-31.5 131v10q0 73 31.5 131t87 91t125.5 33q80 0 134.5 -36.5t80.5 -101.5l-103 -54q-15 36 -43.5 57t-68.5 21q-54 0 -87 -39t-33 -101v-12q0 -62 33 -101t87 -39q40 0 68 21t44 57l105 -54q-28 -65 -83 -101.5t-134 -36.5q-70 0 -125.5 33z
M327 570h-91l-109 160h86l68 -73l69 73h85z" />
    <glyph glyph-name="Dcaron" unicode="&#x10e;" horiz-adv-x="672" 
d="M65 0v700h227q100 0 176.5 -42t119 -119t42.5 -179v-20q0 -102 -42.5 -179t-119 -119t-176.5 -42h-227zM291 122q95 0 148.5 58.5t53.5 159.5v20q0 101 -53.5 159.5t-148.5 58.5h-93v-456h93zM342 774h-91l-109 160h86l68 -73l69 73h85z" />
    <glyph glyph-name="dcaron" unicode="&#x10f;" horiz-adv-x="736" 
d="M143 19.5q-50 31.5 -78 89.5t-28 134v10q0 76 28 134t78 89.5t114 31.5q46 0 80.5 -16t55.5 -44v252h121v-700h-121v55q-47 -67 -137 -67q-63 0 -113 31.5zM365.5 140.5q32.5 38.5 32.5 101.5v12q0 63 -32.5 101.5t-85.5 38.5t-86 -38.5t-33 -101.5v-12q0 -63 33 -101.5
t86 -38.5t85.5 38.5zM621 453l-28 21l29 45q22 36 24 51q-26 4 -43.5 22.5t-17.5 45.5q0 30 19.5 50t49.5 20q31 0 50.5 -20.5t19.5 -50.5q0 -34 -14.5 -64t-43.5 -65z" />
    <glyph glyph-name="Dcroat" unicode="&#x110;" horiz-adv-x="652" 
d="M292 700q100 0 176.5 -42t119 -119t42.5 -179v-20q0 -102 -42.5 -179t-119 -119t-176.5 -42h-227v291h-90v118h90v291h227zM493 360q0 101 -53.5 159.5t-148.5 58.5h-93v-169h144v-118h-144v-169h93q95 0 148.5 58.5t53.5 159.5v20z" />
    <glyph glyph-name="dcroat" unicode="&#x111;" horiz-adv-x="563" 
d="M567 650v-80h-53v-570h-121v55q-47 -67 -137 -67q-63 0 -113 31.5t-78 89.5t-28 134v10q0 76 28 134t78 89.5t114 31.5q46 0 80.5 -16t55.5 -44v122h-162v80h162v50h121v-50h53zM398 254q0 63 -32.5 101.5t-85.5 38.5t-86 -38.5t-33 -101.5v-12q0 -63 33 -101.5t86 -38.5
t85.5 38.5t32.5 101.5v12z" />
    <glyph glyph-name="Emacron" unicode="&#x112;" horiz-adv-x="596" 
d="M550 0h-485v700h484v-122h-351v-158h289v-119h-289v-179h352v-122zM429 813h-244v88h244v-88z" />
    <glyph glyph-name="emacron" unicode="&#x113;" horiz-adv-x="551" 
d="M514 220h-356q5 -59 37.5 -94.5t85.5 -35.5q43 0 70 18.5t44 55.5l106 -43q-58 -133 -220 -133q-71 0 -126.5 33t-86.5 91t-31 131v10q0 73 31 131t87 91t126 33q65 0 118 -28.5t84 -85t31 -136.5v-38zM202.5 381q-30.5 -27 -40.5 -75h232q-6 45 -37 73.5t-76 28.5
q-48 0 -78.5 -27zM402 609h-244v88h244v-88z" />
    <glyph glyph-name="Ebreve" unicode="&#x114;" horiz-adv-x="596" 
d="M550 0h-485v700h484v-122h-351v-158h289v-119h-289v-179h352v-122zM222.5 806q-30.5 34 -30.5 86h76q0 -24 10 -37.5t29 -13.5t30 14t11 37h76q0 -52 -31 -86t-86 -34q-54 0 -84.5 34z" />
    <glyph glyph-name="ebreve" unicode="&#x115;" horiz-adv-x="551" 
d="M514 220h-356q5 -59 37.5 -94.5t85.5 -35.5q43 0 70 18.5t44 55.5l106 -43q-58 -133 -220 -133q-71 0 -126.5 33t-86.5 91t-31 131v10q0 73 31 131t87 91t126 33q65 0 118 -28.5t84 -85t31 -136.5v-38zM202.5 381q-30.5 -27 -40.5 -75h232q-6 45 -37 73.5t-76 28.5
q-48 0 -78.5 -27zM195.5 602q-30.5 34 -30.5 86h76q0 -24 10 -37.5t29 -13.5t30 14t11 37h76q0 -52 -31 -86t-86 -34q-54 0 -84.5 34z" />
    <glyph glyph-name="Edotaccent" unicode="&#x116;" horiz-adv-x="596" 
d="M550 0h-485v700h484v-122h-351v-158h289v-119h-289v-179h352v-122zM251.5 792q-23.5 23 -23.5 56t23.5 56.5t56.5 23.5t56 -23.5t23 -56.5t-23 -56t-56 -23t-56.5 23z" />
    <glyph glyph-name="edotaccent" unicode="&#x117;" horiz-adv-x="551" 
d="M514 220h-356q5 -59 37.5 -94.5t85.5 -35.5q43 0 70 18.5t44 55.5l106 -43q-58 -133 -220 -133q-71 0 -126.5 33t-86.5 91t-31 131v10q0 73 31 131t87 91t126 33q65 0 118 -28.5t84 -85t31 -136.5v-38zM202.5 381q-30.5 -27 -40.5 -75h232q-6 45 -37 73.5t-76 28.5
q-48 0 -78.5 -27zM224.5 588q-23.5 23 -23.5 56t23.5 56.5t56.5 23.5t56 -23.5t23 -56.5t-23 -56t-56 -23t-56.5 23z" />
    <glyph glyph-name="Eogonek" unicode="&#x118;" horiz-adv-x="596" 
d="M558 -123v-72q-22 -11 -54 -11q-44 0 -72.5 25t-28.5 73q0 34 14.5 61.5t38.5 46.5h-391v700h484v-122h-351v-158h289v-119h-289v-179h352v-122q-30 -17 -48.5 -41.5t-18.5 -51.5q0 -18 11 -28.5t28 -10.5q18 0 36 9z" />
    <glyph glyph-name="eogonek" unicode="&#x119;" horiz-adv-x="551" 
d="M514 220h-356q5 -59 37.5 -94.5t85.5 -35.5q43 0 70 18.5t44 55.5l106 -43q-40 -95 -134 -121q-30 -18 -48 -42.5t-18 -50.5q0 -18 11 -28.5t28 -10.5q18 0 36 9v-72q-22 -11 -54 -11q-44 0 -72.5 25t-28.5 73q0 55 40 97q-66 4 -117 38t-79 90.5t-28 125.5v10
q0 73 31 131t87 91t126 33q65 0 118 -28.5t84 -85t31 -136.5v-38zM202.5 381q-30.5 -27 -40.5 -75h232q-6 45 -37 73.5t-76 28.5q-48 0 -78.5 -27z" />
    <glyph glyph-name="Ecaron" unicode="&#x11a;" horiz-adv-x="596" 
d="M550 0h-485v700h484v-122h-351v-158h289v-119h-289v-179h352v-122zM354 774h-91l-109 160h86l68 -73l69 73h85z" />
    <glyph glyph-name="ecaron" unicode="&#x11b;" horiz-adv-x="551" 
d="M514 220h-356q5 -59 37.5 -94.5t85.5 -35.5q43 0 70 18.5t44 55.5l106 -43q-58 -133 -220 -133q-71 0 -126.5 33t-86.5 91t-31 131v10q0 73 31 131t87 91t126 33q65 0 118 -28.5t84 -85t31 -136.5v-38zM202.5 381q-30.5 -27 -40.5 -75h232q-6 45 -37 73.5t-76 28.5
q-48 0 -78.5 -27zM327 570h-91l-109 160h86l68 -73l69 73h85z" />
    <glyph glyph-name="Gcircumflex" unicode="&#x11c;" horiz-adv-x="697" 
d="M200 31q-75 45 -116.5 125.5t-41.5 184.5v18q0 104 42 184.5t116.5 125.5t169.5 45t165.5 -41.5t112.5 -118.5l-102 -71q-30 51 -71.5 79t-100.5 28t-103.5 -29.5t-68.5 -81.5t-24 -118v-22q0 -66 24 -118t68.5 -81.5t103.5 -29.5q88 0 145 69v80h-160v111h291v-243
q-104 -141 -279 -141q-96 0 -171 45zM304 774h-86l109 160h91l108 -160h-85l-69 78z" />
    <glyph glyph-name="gcircumflex" unicode="&#x11d;" horiz-adv-x="571" 
d="M132 -183q-58 33 -87 89l105 63q39 -72 124 -72q56 0 86.5 36.5t30.5 98.5v40q-21 -30 -55.5 -48t-81.5 -18q-63 0 -112.5 30.5t-77 86.5t-27.5 130v8q0 74 28 130t77 86.5t111 30.5q46 0 82 -17t56 -44v49h121v-459q0 -119 -64.5 -186t-175.5 -67q-82 0 -140 33z
M363 157q33 37 33 96v8q0 59 -32.5 96t-85.5 37q-52 0 -84.5 -37t-32.5 -96v-8q0 -59 32.5 -96t84.5 -37t85 37zM211 570h-86l109 160h91l108 -160h-85l-69 78z" />
    <glyph glyph-name="Gbreve" unicode="&#x11e;" horiz-adv-x="697" 
d="M200 31q-75 45 -116.5 125.5t-41.5 184.5v18q0 104 42 184.5t116.5 125.5t169.5 45t165.5 -41.5t112.5 -118.5l-102 -71q-30 51 -71.5 79t-100.5 28t-103.5 -29.5t-68.5 -81.5t-24 -118v-22q0 -66 24 -118t68.5 -81.5t103.5 -29.5q88 0 145 69v80h-160v111h291v-243
q-104 -141 -279 -141q-96 0 -171 45zM286.5 806q-30.5 34 -30.5 86h76q0 -24 10 -37.5t29 -13.5t30 14t11 37h76q0 -52 -31 -86t-86 -34q-54 0 -84.5 34z" />
    <glyph glyph-name="gbreve" unicode="&#x11f;" horiz-adv-x="571" 
d="M132 -183q-58 33 -87 89l105 63q39 -72 124 -72q56 0 86.5 36.5t30.5 98.5v40q-21 -30 -55.5 -48t-81.5 -18q-63 0 -112.5 30.5t-77 86.5t-27.5 130v8q0 74 28 130t77 86.5t111 30.5q46 0 82 -17t56 -44v49h121v-459q0 -119 -64.5 -186t-175.5 -67q-82 0 -140 33z
M363 157q33 37 33 96v8q0 59 -32.5 96t-85.5 37q-52 0 -84.5 -37t-32.5 -96v-8q0 -59 32.5 -96t84.5 -37t85 37zM194.5 602q-30.5 34 -30.5 86h76q0 -24 10 -37.5t29 -13.5t30 14t11 37h76q0 -52 -31 -86t-86 -34q-54 0 -84.5 34z" />
    <glyph glyph-name="Gdotaccent" unicode="&#x120;" horiz-adv-x="697" 
d="M200 31q-75 45 -116.5 125.5t-41.5 184.5v18q0 104 42 184.5t116.5 125.5t169.5 45t165.5 -41.5t112.5 -118.5l-102 -71q-30 51 -71.5 79t-100.5 28t-103.5 -29.5t-68.5 -81.5t-24 -118v-22q0 -66 24 -118t68.5 -81.5t103.5 -29.5q88 0 145 69v80h-160v111h291v-243
q-104 -141 -279 -141q-96 0 -171 45zM315.5 792q-23.5 23 -23.5 56t23.5 56.5t56.5 23.5t56 -23.5t23 -56.5t-23 -56t-56 -23t-56.5 23z" />
    <glyph glyph-name="gdotaccent" unicode="&#x121;" horiz-adv-x="571" 
d="M132 -183q-58 33 -87 89l105 63q39 -72 124 -72q56 0 86.5 36.5t30.5 98.5v40q-21 -30 -55.5 -48t-81.5 -18q-63 0 -112.5 30.5t-77 86.5t-27.5 130v8q0 74 28 130t77 86.5t111 30.5q46 0 82 -17t56 -44v49h121v-459q0 -119 -64.5 -186t-175.5 -67q-82 0 -140 33z
M363 157q33 37 33 96v8q0 59 -32.5 96t-85.5 37q-52 0 -84.5 -37t-32.5 -96v-8q0 -59 32.5 -96t84.5 -37t85 37zM223.5 588q-23.5 23 -23.5 56t23.5 56.5t56.5 23.5t56 -23.5t23 -56.5t-23 -56t-56 -23t-56.5 23z" />
    <glyph glyph-name="uni0122" unicode="&#x122;" horiz-adv-x="697" 
d="M200 31q-75 45 -116.5 125.5t-41.5 184.5v18q0 104 42 184.5t116.5 125.5t169.5 45t165.5 -41.5t112.5 -118.5l-102 -71q-30 51 -71.5 79t-100.5 28t-103.5 -29.5t-68.5 -81.5t-24 -118v-22q0 -66 24 -118t68.5 -81.5t103.5 -29.5q88 0 145 69v80h-160v111h291v-243
q-104 -141 -279 -141q-96 0 -171 45zM349 -258l-20 13l18 30q13 21 16 40q-20 2 -34 16t-14 37t15.5 39.5t41.5 16.5q25 0 40 -16t15 -41q0 -51 -50 -105z" />
    <glyph glyph-name="uni0123" unicode="&#x123;" horiz-adv-x="571" 
d="M132 -183q-58 33 -87 89l105 63q39 -72 124 -72q56 0 86.5 36.5t30.5 98.5v40q-21 -30 -55.5 -48t-81.5 -18q-63 0 -112.5 30.5t-77 86.5t-27.5 130v8q0 74 28 130t77 86.5t111 30.5q46 0 82 -17t56 -44v49h121v-459q0 -119 -64.5 -186t-175.5 -67q-82 0 -140 33z
M363 157q33 37 33 96v8q0 59 -32.5 96t-85.5 37q-52 0 -84.5 -37t-32.5 -96v-8q0 -59 32.5 -96t84.5 -37t85 37zM240.5 582.5q-15.5 17.5 -15.5 41.5q0 52 49 103l30 29l20 -15l-18 -27q-12 -19 -16 -40q19 -2 33 -16.5t14 -36.5q0 -23 -15.5 -39.5t-41.5 -16.5
q-24 0 -39.5 17.5z" />
    <glyph glyph-name="Hcircumflex" unicode="&#x124;" horiz-adv-x="716" 
d="M198 0h-133v700h133v-269h320v269h133v-700h-133v307h-320v-307zM289 774h-86l109 160h91l108 -160h-85l-69 78z" />
    <glyph glyph-name="hcircumflex" unicode="&#x125;" horiz-adv-x="556" 
d="M59 0v700h121v-257q15 26 53 45.5t82 19.5q84 0 133 -51.5t49 -139.5v-317h-121v290q0 48 -27.5 78t-70.5 30t-70.5 -30t-27.5 -78v-290h-121zM51 774h-86l109 160h91l108 -160h-85l-69 78z" />
    <glyph glyph-name="Hbar" unicode="&#x126;" horiz-adv-x="716" 
d="M651 623h54v-108h-54v-515h-133v307h-320v-307h-133v515h-55v108h55v77h133v-77h320v77h133v-77zM198 431h320v84h-320v-84z" />
    <glyph glyph-name="hbar" unicode="&#x127;" horiz-adv-x="542" 
d="M448 456.5q49 -51.5 49 -139.5v-317h-121v290q0 48 -27.5 78t-70.5 30t-70.5 -30t-27.5 -78v-290h-121v570h-62v80h62v50h121v-50h152v-80h-152v-127q15 26 53 45.5t82 19.5q84 0 133 -51.5z" />
    <glyph glyph-name="Itilde" unicode="&#x128;" horiz-adv-x="263" 
d="M198 0h-133v700h133v-700zM-27 828q10 43 36 63.5t63 20.5q23 0 38.5 -5.5t36.5 -16.5q9 -5 19 -9t19 -4q28 0 40 34l65 -27q-10 -42 -36 -62.5t-63 -20.5q-22 0 -37.5 5.5t-36.5 15.5q-13 7 -21 10.5t-18 3.5q-28 0 -39 -35z" />
    <glyph glyph-name="itilde" unicode="&#x129;" 
d="M180 0h-121v496h121v-496zM-39 624q10 43 36 63.5t63 20.5q23 0 38.5 -5.5t36.5 -16.5q9 -5 19 -9t19 -4q28 0 40 34l65 -27q-10 -42 -36 -62.5t-63 -20.5q-22 0 -37.5 5.5t-36.5 15.5q-13 7 -21 10.5t-18 3.5q-28 0 -39 -35z" />
    <glyph glyph-name="Imacron" unicode="&#x12a;" horiz-adv-x="263" 
d="M198 0h-133v700h133v-700zM253 813h-244v88h244v-88z" />
    <glyph glyph-name="imacron" unicode="&#x12b;" 
d="M180 0h-121v496h121v-496zM241 609h-244v88h244v-88z" />
    <glyph glyph-name="Ibreve" unicode="&#x12c;" horiz-adv-x="263" 
d="M198 0h-133v700h133v-700zM46.5 806q-30.5 34 -30.5 86h76q0 -24 10 -37.5t29 -13.5t30 14t11 37h76q0 -52 -31 -86t-86 -34q-54 0 -84.5 34z" />
    <glyph glyph-name="ibreve" unicode="&#x12d;" 
d="M180 0h-121v496h121v-496zM34.5 602q-30.5 34 -30.5 86h76q0 -24 10 -37.5t29 -13.5t30 14t11 37h76q0 -52 -31 -86t-86 -34q-54 0 -84.5 34z" />
    <glyph glyph-name="Iogonek" unicode="&#x12e;" horiz-adv-x="263" 
d="M206 -123v-72q-22 -11 -54 -11q-44 0 -72.5 25t-28.5 73q0 34 14.5 61.5t38.5 46.5h-39v700h133v-700q-30 -17 -48.5 -41.5t-18.5 -51.5q0 -18 11 -28.5t28 -10.5q18 0 36 9z" />
    <glyph glyph-name="iogonek" unicode="&#x12f;" 
d="M63.5 588q-23.5 23 -23.5 56t23.5 56.5t56.5 23.5t56 -23.5t23 -56.5t-23 -56t-56 -23t-56.5 23zM124 -121.5q11 -10.5 28 -10.5q18 0 36 9v-72q-22 -11 -55 -11q-44 0 -72.5 25t-28.5 73q0 34 15 61.5t39 46.5h-27v496h121v-496q-30 -17 -48.5 -41.5t-18.5 -51.5
q0 -18 11 -28.5z" />
    <glyph glyph-name="Idotaccent" unicode="&#x130;" horiz-adv-x="263" 
d="M198 0h-133v700h133v-700zM74.5 792q-23.5 23 -23.5 56t23.5 56.5t56.5 23.5t56 -23.5t23 -56.5t-23 -56t-56 -23t-56.5 23z" />
    <glyph glyph-name="dotlessi" unicode="&#x131;" 
d="M180 0h-121v496h121v-496z" />
    <glyph glyph-name="IJ" unicode="&#x132;" horiz-adv-x="821" 
d="M198 0h-133v700h133v-700zM375.5 31q-59.5 45 -82.5 121l121 53q13 -45 41.5 -69.5t70.5 -24.5q103 0 103 134v455h132v-447q0 -128 -58.5 -197.5t-178.5 -69.5q-89 0 -148.5 45z" />
    <glyph glyph-name="ij" unicode="&#x133;" horiz-adv-x="479" 
d="M63.5 588.5q-23.5 23.5 -23.5 56.5t23.5 56.5t56.5 23.5t56 -23.5t23 -56.5t-23 -56.5t-56 -23.5t-56.5 23.5zM180 0h-121v496h121v-496zM302.5 588.5q-23.5 23.5 -23.5 56.5t23.5 56.5t56.5 23.5t56 -23.5t23 -56.5t-23 -56.5t-56 -23.5t-56.5 23.5zM203 -202v112
q29 -12 49 -12q21 0 33.5 16t12.5 46v536h121v-530q0 -178 -143 -178q-43 0 -73 10z" />
    <glyph glyph-name="Jcircumflex" unicode="&#x134;" horiz-adv-x="559" 
d="M112.5 31q-59.5 45 -82.5 121l121 53q13 -45 41.5 -69.5t70.5 -24.5q103 0 103 134v455h132v-447q0 -128 -58.5 -197.5t-178.5 -69.5q-89 0 -148.5 45zM364 774h-86l109 160h91l108 -160h-85l-69 78z" />
    <glyph glyph-name="jcircumflex" unicode="&#x135;" 
d="M-36 -202v112q29 -12 49 -12q21 0 33.5 16t12.5 46v536h121v-530q0 -178 -143 -178q-43 0 -73 10zM51 570h-86l109 160h91l108 -160h-85l-69 78z" />
    <glyph glyph-name="uni0136" unicode="&#x136;" horiz-adv-x="594" 
d="M417 700h152l-230 -350l230 -350h-150l-193 291h-28v-291h-133v700h133v-299h26zM271 -258l-20 13l18 30q13 21 16 40q-20 2 -34 16t-14 37t15.5 39.5t41.5 16.5q25 0 40 -16t15 -41q0 -51 -50 -105z" />
    <glyph glyph-name="uni0137" unicode="&#x137;" horiz-adv-x="498" 
d="M332 496h138l-160 -248l160 -248h-138l-131 209h-21v-209h-121v700h121v-413h21zM232 -258l-20 13l18 30q13 21 16 40q-20 2 -34 16t-14 37t15.5 39.5t41.5 16.5q25 0 40 -16t15 -41q0 -51 -50 -105z" />
    <glyph glyph-name="kgreenlandic" unicode="&#x138;" horiz-adv-x="499" 
d="M332 496h139l-161 -248l161 -248h-139l-131 209h-21v-209h-121v496h121v-209h21z" />
    <glyph glyph-name="Lacute" unicode="&#x139;" horiz-adv-x="559" 
d="M524 0h-459v700h133v-578h326v-122zM180 774h-97l84 160h138z" />
    <glyph glyph-name="lacute" unicode="&#x13a;" horiz-adv-x="280" 
d="M95 29.5q-36 41.5 -36 117.5v553h121v-550q0 -24 10.5 -37.5t31.5 -13.5q19 0 46 11v-111q-37 -11 -71 -11q-66 0 -102 41.5zM168 774h-97l84 160h138z" />
    <glyph glyph-name="uni013B" unicode="&#x13b;" horiz-adv-x="559" 
d="M524 0h-459v700h133v-578h326v-122zM272 -258l-20 13l18 30q13 21 16 40q-20 2 -34 16t-14 37t15.5 39.5t41.5 16.5q25 0 40 -16t15 -41q0 -51 -50 -105z" />
    <glyph glyph-name="uni013C" unicode="&#x13c;" horiz-adv-x="280" 
d="M95 29.5q-36 41.5 -36 117.5v553h121v-550q0 -24 10.5 -37.5t31.5 -13.5q19 0 46 11v-111q-37 -11 -71 -11q-66 0 -102 41.5zM170 -258l-20 13l18 30q13 21 16 40q-20 2 -34 16t-14 37t15.5 39.5t41.5 16.5q25 0 40 -16t15 -41q0 -51 -50 -105z" />
    <glyph glyph-name="Lcaron" unicode="&#x13d;" horiz-adv-x="559" 
d="M524 0h-459v700h133v-578h326v-122zM441 453l-28 21l29 45q22 36 24 51q-26 4 -43.5 22.5t-17.5 45.5q0 30 19.5 50t49.5 20q31 0 50.5 -20.5t19.5 -50.5q0 -34 -14.5 -64t-43.5 -65z" />
    <glyph glyph-name="lcaron" unicode="&#x13e;" horiz-adv-x="402" 
d="M95 29.5q-36 41.5 -36 117.5v553h121v-550q0 -24 10.5 -37.5t31.5 -13.5q19 0 46 11v-111q-37 -11 -71 -11q-66 0 -102 41.5zM288 453l-28 21l29 45q22 36 24 51q-26 4 -43.5 22.5t-17.5 45.5q0 30 19.5 50t49.5 20q31 0 50.5 -20.5t19.5 -50.5q0 -34 -14.5 -64
t-43.5 -65z" />
    <glyph glyph-name="Ldot" unicode="&#x13f;" horiz-adv-x="548" 
d="M524 0h-459v700h133v-578h326v-122zM342.5 292q-24.5 24 -24.5 58t24.5 58.5t57.5 24.5q34 0 58.5 -24.5t24.5 -58.5t-24.5 -58t-58.5 -24q-33 0 -57.5 24z" />
    <glyph glyph-name="ldot" unicode="&#x140;" horiz-adv-x="453" 
d="M95 29.5q-36 41.5 -36 117.5v553h121v-550q0 -24 10.5 -37.5t31.5 -13.5q19 0 46 11v-111q-37 -11 -71 -11q-66 0 -102 41.5zM287.5 292q-24.5 24 -24.5 58t24.5 58.5t57.5 24.5q34 0 58.5 -24.5t24.5 -58.5t-24.5 -58t-58.5 -24q-33 0 -57.5 24z" />
    <glyph glyph-name="Lslash" unicode="&#x141;" horiz-adv-x="598" 
d="M238 261v-139h326v-122h-459v160l-79 -60v128l79 60v412h133v-310l137 104v-129z" />
    <glyph glyph-name="lslash" unicode="&#x142;" horiz-adv-x="275" 
d="M268 110v-111q-37 -11 -71 -11q-66 0 -102 41.5t-36 117.5v63l-71 -57v120l71 57v370h121v-274l69 55v-119l-69 -55v-157q0 -24 10.5 -37.5t31.5 -13.5q19 0 46 11z" />
    <glyph glyph-name="Nacute" unicode="&#x143;" horiz-adv-x="682" 
d="M192 0h-127v700h137l288 -462v462h127v-700h-122l-303 485v-485zM389 774h-97l84 160h138z" />
    <glyph glyph-name="nacute" unicode="&#x144;" horiz-adv-x="548" 
d="M59 0v496h121v-52q15 26 51.5 45t80.5 19q85 0 131 -50t46 -140v-318h-120v295q0 48 -26.5 75.5t-68.5 27.5t-68 -28t-26 -76v-294h-121zM322 570h-97l84 160h138z" />
    <glyph glyph-name="uni0145" unicode="&#x145;" horiz-adv-x="682" 
d="M192 0h-127v700h137l288 -462v462h127v-700h-122l-303 485v-485zM318 -258l-20 13l18 30q13 21 16 40q-20 2 -34 16t-14 37t15.5 39.5t41.5 16.5q25 0 40 -16t15 -41q0 -51 -50 -105z" />
    <glyph glyph-name="uni0146" unicode="&#x146;" horiz-adv-x="548" 
d="M59 0v496h121v-52q15 26 51.5 45t80.5 19q85 0 131 -50t46 -140v-318h-120v295q0 48 -26.5 75.5t-68.5 27.5t-68 -28t-26 -76v-294h-121zM251 -258l-20 13l18 30q13 21 16 40q-20 2 -34 16t-14 37t15.5 39.5t41.5 16.5q25 0 40 -16t15 -41q0 -51 -50 -105z" />
    <glyph glyph-name="Ncaron" unicode="&#x147;" horiz-adv-x="682" 
d="M192 0h-127v700h137l288 -462v462h127v-700h-122l-303 485v-485zM386 774h-91l-109 160h86l68 -73l69 73h85z" />
    <glyph glyph-name="ncaron" unicode="&#x148;" horiz-adv-x="548" 
d="M59 0v496h121v-52q15 26 51.5 45t80.5 19q85 0 131 -50t46 -140v-318h-120v295q0 48 -26.5 75.5t-68.5 27.5t-68 -28t-26 -76v-294h-121zM320 570h-91l-109 160h86l68 -73l69 73h85z" />
    <glyph glyph-name="Eng" unicode="&#x14a;" horiz-adv-x="682" 
d="M333 -201.5q-38 14.5 -68 44.5l73 99q33 -38 81 -38q33 0 52 20.5t19 57.5v27l-298 470v-479h-127v700h137l288 -457v457h127v-705q0 -101 -48 -156t-146 -55q-52 0 -90 14.5z" />
    <glyph glyph-name="eng" unicode="&#x14b;" horiz-adv-x="534" 
d="M266 -202v112q29 -12 49 -12q21 0 33.5 16t12.5 46v335q0 48 -26 75.5t-68 27.5t-68 -28t-26 -76v-294h-120v496h120v-52q15 26 51 45t80 19q86 0 132 -50t46 -140v-352q0 -178 -143 -178q-43 0 -73 10z" />
    <glyph glyph-name="Omacron" unicode="&#x14c;" horiz-adv-x="751" 
d="M202 31.5q-76 45.5 -118 126.5t-42 183v18q0 102 42 183t118 126.5t174 45.5t173.5 -45.5t117.5 -126.5t42 -183v-18q0 -102 -42 -183t-117.5 -126.5t-173.5 -45.5t-174 45.5zM481.5 139.5q44.5 29.5 68 81.5t23.5 118v22q0 66 -23.5 118t-68 81.5t-105.5 29.5
t-106 -29.5t-68.5 -81.5t-23.5 -118v-22q0 -66 23.5 -118t68.5 -81.5t106 -29.5t105.5 29.5zM497 813h-244v88h244v-88z" />
    <glyph glyph-name="omacron" unicode="&#x14d;" horiz-adv-x="565" 
d="M156 21q-56 33 -87.5 91t-31.5 131v10q0 73 31.5 131t87.5 91t126 33q71 0 127 -33t87.5 -91t31.5 -131v-10q0 -73 -31.5 -131t-87.5 -91t-127 -33q-70 0 -126 33zM371 141q33 39 33 101v12q0 62 -33 101t-89 39q-55 0 -88 -39t-33 -101v-12q0 -62 33 -101t88 -39
q56 0 89 39zM404 609h-244v88h244v-88z" />
    <glyph glyph-name="Obreve" unicode="&#x14e;" horiz-adv-x="751" 
d="M202 31.5q-76 45.5 -118 126.5t-42 183v18q0 102 42 183t118 126.5t174 45.5t173.5 -45.5t117.5 -126.5t42 -183v-18q0 -102 -42 -183t-117.5 -126.5t-173.5 -45.5t-174 45.5zM481.5 139.5q44.5 29.5 68 81.5t23.5 118v22q0 66 -23.5 118t-68 81.5t-105.5 29.5
t-106 -29.5t-68.5 -81.5t-23.5 -118v-22q0 -66 23.5 -118t68.5 -81.5t106 -29.5t105.5 29.5zM290.5 806q-30.5 34 -30.5 86h76q0 -24 10 -37.5t29 -13.5t30 14t11 37h76q0 -52 -31 -86t-86 -34q-54 0 -84.5 34z" />
    <glyph glyph-name="obreve" unicode="&#x14f;" horiz-adv-x="565" 
d="M156 21q-56 33 -87.5 91t-31.5 131v10q0 73 31.5 131t87.5 91t126 33q71 0 127 -33t87.5 -91t31.5 -131v-10q0 -73 -31.5 -131t-87.5 -91t-127 -33q-70 0 -126 33zM371 141q33 39 33 101v12q0 62 -33 101t-89 39q-55 0 -88 -39t-33 -101v-12q0 -62 33 -101t88 -39
q56 0 89 39zM197.5 602q-30.5 34 -30.5 86h76q0 -24 10 -37.5t29 -13.5t30 14t11 37h76q0 -52 -31 -86t-86 -34q-54 0 -84.5 34z" />
    <glyph glyph-name="Ohungarumlaut" unicode="&#x150;" horiz-adv-x="751" 
d="M202 31.5q-76 45.5 -118 126.5t-42 183v18q0 102 42 183t118 126.5t174 45.5t173.5 -45.5t117.5 -126.5t42 -183v-18q0 -102 -42 -183t-117.5 -126.5t-173.5 -45.5t-174 45.5zM481.5 139.5q44.5 29.5 68 81.5t23.5 118v22q0 66 -23.5 118t-68 81.5t-105.5 29.5
t-106 -29.5t-68.5 -81.5t-23.5 -118v-22q0 -66 23.5 -118t68.5 -81.5t106 -29.5t105.5 29.5zM320 774h-83l51 160h121zM514 774h-83l51 160h120z" />
    <glyph glyph-name="ohungarumlaut" unicode="&#x151;" horiz-adv-x="565" 
d="M156 21q-56 33 -87.5 91t-31.5 131v10q0 73 31.5 131t87.5 91t126 33q71 0 127 -33t87.5 -91t31.5 -131v-10q0 -73 -31.5 -131t-87.5 -91t-127 -33q-70 0 -126 33zM371 141q33 39 33 101v12q0 62 -33 101t-89 39q-55 0 -88 -39t-33 -101v-12q0 -62 33 -101t88 -39
q56 0 89 39zM226 570h-83l51 160h121zM420 570h-83l51 160h120z" />
    <glyph glyph-name="OE" unicode="&#x152;" horiz-adv-x="1104" 
d="M201.5 31.5q-75.5 45.5 -117.5 126.5t-42 183v18q0 102 42 183t117.5 126.5t172.5 45.5q62 0 113.5 -22.5t86.5 -64.5v73h483v-122h-351v-158h289v-119h-289v-179h352v-122h-484v73q-35 -42 -86.5 -64.5t-113.5 -22.5q-97 0 -172.5 45.5zM481.5 139.5
q44.5 29.5 68.5 81.5t24 119v20q0 67 -24 119t-68.5 81.5t-105.5 29.5t-105.5 -29.5t-68.5 -81.5t-24 -119v-20q0 -67 24 -119t68.5 -81.5t105.5 -29.5t105.5 29.5z" />
    <glyph glyph-name="oe" unicode="&#x153;" horiz-adv-x="917" 
d="M880 220h-355q5 -59 37.5 -94.5t85.5 -35.5q43 0 70.5 18.5t43.5 55.5l106 -43q-57 -133 -220 -133q-57 0 -104.5 21.5t-80.5 60.5q-33 -39 -79.5 -60.5t-101.5 -21.5q-70 0 -126 33t-87.5 91t-31.5 131v10q0 73 31.5 131t87.5 91t126 33q56 0 102.5 -22t78.5 -61
q33 40 81 61.5t104 21.5q65 0 118 -28.5t83.5 -85t30.5 -136.5v-38zM570 381q-31 -27 -41 -75h232q-6 45 -37 73.5t-76 28.5q-47 0 -78 -27zM404 254q0 62 -33 101t-89 39q-55 0 -88 -39t-33 -101v-12q0 -62 33 -101t88 -39q56 0 89 39t33 101v12z" />
    <glyph glyph-name="Racute" unicode="&#x154;" horiz-adv-x="609" 
d="M65 0v700h287q89 0 146 -49.5t57 -137.5q0 -59 -32.5 -99.5t-82.5 -59.5q41 -8 62.5 -38.5t28.5 -84.5l31 -231h-133l-29 230q-5 38 -21 53.5t-50 15.5h-131v-299h-133zM332 413q41 0 65.5 22.5t24.5 64.5q0 41 -24.5 63.5t-65.5 22.5h-134v-173h134zM355 774h-97l84 160
h138z" />
    <glyph glyph-name="racute" unicode="&#x155;" horiz-adv-x="398" 
d="M59 0v496h121v-65q17 34 53 55.5t78 21.5q27 0 53 -8v-117q-32 15 -66 15q-53 0 -85.5 -36t-32.5 -94v-268h-121zM269 570h-97l84 160h138z" />
    <glyph glyph-name="uni0156" unicode="&#x156;" horiz-adv-x="609" 
d="M65 0v700h287q89 0 146 -49.5t57 -137.5q0 -59 -32.5 -99.5t-82.5 -59.5q41 -8 62.5 -38.5t28.5 -84.5l31 -231h-133l-29 230q-5 38 -21 53.5t-50 15.5h-131v-299h-133zM332 413q41 0 65.5 22.5t24.5 64.5q0 41 -24.5 63.5t-65.5 22.5h-134v-173h134zM286 -258l-20 13
l18 30q13 21 16 40q-20 2 -34 16t-14 37t15.5 39.5t41.5 16.5q25 0 40 -16t15 -41q0 -51 -50 -105z" />
    <glyph glyph-name="uni0157" unicode="&#x157;" horiz-adv-x="398" 
d="M59 0v496h121v-65q17 34 53 55.5t78 21.5q27 0 53 -8v-117q-32 15 -66 15q-53 0 -85.5 -36t-32.5 -94v-268h-121zM97 -258l-20 13l18 30q13 21 16 40q-20 2 -34 16t-14 37t15.5 39.5t41.5 16.5q25 0 40 -16t15 -41q0 -51 -50 -105z" />
    <glyph glyph-name="Rcaron" unicode="&#x158;" horiz-adv-x="609" 
d="M65 0v700h287q89 0 146 -49.5t57 -137.5q0 -59 -32.5 -99.5t-82.5 -59.5q41 -8 62.5 -38.5t28.5 -84.5l31 -231h-133l-29 230q-5 38 -21 53.5t-50 15.5h-131v-299h-133zM332 413q41 0 65.5 22.5t24.5 64.5q0 41 -24.5 63.5t-65.5 22.5h-134v-173h134zM353 774h-91
l-109 160h86l68 -73l69 73h85z" />
    <glyph glyph-name="rcaron" unicode="&#x159;" horiz-adv-x="398" 
d="M59 0v496h121v-65q17 34 53 55.5t78 21.5q27 0 53 -8v-117q-32 15 -66 15q-53 0 -85.5 -36t-32.5 -94v-268h-121zM266 570h-91l-109 160h86l68 -73l69 73h85z" />
    <glyph glyph-name="Sacute" unicode="&#x15a;" horiz-adv-x="602" 
d="M132.5 35q-68.5 49 -94.5 128l111 61q50 -116 155 -116q57 0 90.5 24.5t33.5 65.5v1q0 42 -38 66.5t-119 43.5q-101 23 -154 75.5t-53 134.5v1q0 57 31 100.5t85 67.5t120 24q90 0 149 -36t95 -107l-105 -67q-21 43 -57.5 66.5t-80.5 23.5q-47 0 -78 -20t-31 -52v-1
q0 -36 34 -58t120 -42q100 -25 156.5 -75.5t56.5 -137.5v-2q0 -65 -32.5 -114.5t-90.5 -76.5t-132 -27q-103 0 -171.5 49zM352 774h-97l84 160h138z" />
    <glyph glyph-name="sacute" unicode="&#x15b;" horiz-adv-x="485" 
d="M117.5 20q-54.5 34 -76.5 89l98 57q13 -34 43 -54.5t67 -20.5q36 0 56 14t20 38q0 25 -25 39t-84 28q-76 17 -113 54t-37 98q0 65 50.5 104.5t129.5 39.5q135 0 185 -107l-89 -51q-14 30 -40.5 46.5t-57.5 16.5q-32 0 -51.5 -13t-19.5 -34q0 -22 22 -37t78 -26
q82 -17 125 -52.5t43 -101.5q0 -47 -24 -83.5t-68 -57t-101 -20.5q-76 0 -130.5 34zM295 570h-97l84 160h138z" />
    <glyph glyph-name="Scircumflex" unicode="&#x15c;" horiz-adv-x="602" 
d="M132.5 35q-68.5 49 -94.5 128l111 61q50 -116 155 -116q57 0 90.5 24.5t33.5 65.5v1q0 42 -38 66.5t-119 43.5q-101 23 -154 75.5t-53 134.5v1q0 57 31 100.5t85 67.5t120 24q90 0 149 -36t95 -107l-105 -67q-21 43 -57.5 66.5t-80.5 23.5q-47 0 -78 -20t-31 -52v-1
q0 -36 34 -58t120 -42q100 -25 156.5 -75.5t56.5 -137.5v-2q0 -65 -32.5 -114.5t-90.5 -76.5t-132 -27q-103 0 -171.5 49zM236 774h-86l109 160h91l108 -160h-85l-69 78z" />
    <glyph glyph-name="scircumflex" unicode="&#x15d;" horiz-adv-x="485" 
d="M117.5 20q-54.5 34 -76.5 89l98 57q13 -34 43 -54.5t67 -20.5q36 0 56 14t20 38q0 25 -25 39t-84 28q-76 17 -113 54t-37 98q0 65 50.5 104.5t129.5 39.5q135 0 185 -107l-89 -51q-14 30 -40.5 46.5t-57.5 16.5q-32 0 -51.5 -13t-19.5 -34q0 -22 22 -37t78 -26
q82 -17 125 -52.5t43 -101.5q0 -47 -24 -83.5t-68 -57t-101 -20.5q-76 0 -130.5 34zM179 570h-86l109 160h91l108 -160h-85l-69 78z" />
    <glyph glyph-name="Scedilla" unicode="&#x15e;" horiz-adv-x="602" 
d="M502.5 343.5q56.5 -50.5 56.5 -137.5v-2q0 -63 -31 -112t-86.5 -76.5t-127.5 -29.5l-7 -30q15 5 29 5q36 0 59 -22.5t23 -62.5q0 -43 -27 -67.5t-76 -24.5q-58 0 -84 16l23 57q23 -13 56 -13q18 0 28.5 9t10.5 26q0 15 -9.5 23.5t-26.5 8.5q-19 0 -35 -11l-37 18l13 71
q-83 11 -138 58.5t-78 115.5l111 61q50 -116 155 -116q57 0 90.5 24.5t33.5 65.5v1q0 42 -38 66.5t-119 43.5q-101 23 -154 75.5t-53 134.5v1q0 57 31 100.5t85 67.5t120 24q90 0 149 -36t95 -107l-105 -67q-21 43 -57.5 66.5t-80.5 23.5q-47 0 -78 -20t-31 -52v-1
q0 -36 34 -58t120 -42q100 -25 156.5 -75.5z" />
    <glyph glyph-name="scedilla" unicode="&#x15f;" horiz-adv-x="485" 
d="M390.5 33.5q-50.5 -44.5 -133.5 -47.5l-7 -30q15 5 29 5q36 0 59 -22.5t23 -62.5q0 -43 -27 -67.5t-77 -24.5q-57 0 -83 16l23 57q23 -13 56 -13q18 0 28.5 9t10.5 26q0 15 -9.5 23.5t-26.5 8.5q-19 0 -35 -11l-37 18l13 72q-57 10 -97.5 42t-58.5 77l98 57
q13 -34 43 -54.5t67 -20.5q36 0 56 14t20 38q0 25 -25 39t-84 28q-76 17 -113 54t-37 98q0 65 50.5 104.5t129.5 39.5q135 0 185 -107l-89 -51q-14 30 -40.5 46.5t-57.5 16.5q-32 0 -51.5 -13t-19.5 -34q0 -22 22 -37t78 -26q82 -17 125 -52.5t43 -101.5q0 -69 -50.5 -113.5
z" />
    <glyph glyph-name="Scaron" unicode="&#x160;" horiz-adv-x="602" 
d="M132.5 35q-68.5 49 -94.5 128l111 61q50 -116 155 -116q57 0 90.5 24.5t33.5 65.5v1q0 42 -38 66.5t-119 43.5q-101 23 -154 75.5t-53 134.5v1q0 57 31 100.5t85 67.5t120 24q90 0 149 -36t95 -107l-105 -67q-21 43 -57.5 66.5t-80.5 23.5q-47 0 -78 -20t-31 -52v-1
q0 -36 34 -58t120 -42q100 -25 156.5 -75.5t56.5 -137.5v-2q0 -65 -32.5 -114.5t-90.5 -76.5t-132 -27q-103 0 -171.5 49zM350 774h-91l-109 160h86l68 -73l69 73h85z" />
    <glyph glyph-name="scaron" unicode="&#x161;" horiz-adv-x="485" 
d="M117.5 20q-54.5 34 -76.5 89l98 57q13 -34 43 -54.5t67 -20.5q36 0 56 14t20 38q0 25 -25 39t-84 28q-76 17 -113 54t-37 98q0 65 50.5 104.5t129.5 39.5q135 0 185 -107l-89 -51q-14 30 -40.5 46.5t-57.5 16.5q-32 0 -51.5 -13t-19.5 -34q0 -22 22 -37t78 -26
q82 -17 125 -52.5t43 -101.5q0 -47 -24 -83.5t-68 -57t-101 -20.5q-76 0 -130.5 34zM293 570h-91l-109 160h86l68 -73l69 73h85z" />
    <glyph glyph-name="uni0162" unicode="&#x162;" horiz-adv-x="568" 
d="M350 0h-46l-11 -44q15 5 29 5q36 0 59 -22.5t23 -62.5q0 -43 -27 -67.5t-77 -24.5q-57 0 -83 16l23 57q23 -13 56 -13q18 0 28.5 9t10.5 26q0 15 -9.5 23.5t-26.5 8.5q-19 0 -35 -11l-37 18l15 82h-24v578h-195v122h522v-122h-195v-578z" />
    <glyph glyph-name="uni0163" unicode="&#x163;" horiz-adv-x="411" 
d="M365.5 -61.5q22.5 -22.5 22.5 -62.5q0 -43 -27 -67.5t-76 -24.5q-56 0 -84 16l24 57q22 -13 56 -13q18 0 28 9t10 26q0 15 -9.5 23.5t-25.5 8.5q-21 0 -35 -11l-37 18l14 76q-106 26 -106 170v230h-97v102h97v100l121 50v-150h138v-102h-138v-229q0 -31 16.5 -48.5
t47.5 -17.5q35 0 74 20v-113q-46 -17 -94 -18l-8 -32q17 5 29 5q37 0 59.5 -22.5z" />
    <glyph glyph-name="Tcaron" unicode="&#x164;" horiz-adv-x="568" 
d="M545 700v-122h-195v-578h-132v578h-195v122h522zM329 774h-91l-109 160h86l68 -73l69 73h85z" />
    <glyph glyph-name="tcaron" unicode="&#x165;" horiz-adv-x="411" 
d="M379 394h-138v-229q0 -31 16.5 -48.5t47.5 -17.5q35 0 74 20v-113q-47 -18 -100 -18q-159 0 -159 176v230h-97v102h97v100l121 50v-150h138v-102zM346 521l-28 21l29 45q22 36 24 51q-26 4 -43.5 22.5t-17.5 45.5q0 30 19.5 50t49.5 20q31 0 50.5 -20.5t19.5 -50.5
q0 -34 -14.5 -64t-43.5 -65z" />
    <glyph glyph-name="Tbar" unicode="&#x166;" horiz-adv-x="562" 
d="M545 700v-122h-195v-187h117v-106h-117v-285h-132v285h-122v106h122v187h-195v122h522z" />
    <glyph glyph-name="tbar" unicode="&#x167;" horiz-adv-x="427" 
d="M379 394h-138v-104h111v-81h-111v-44q0 -31 16.5 -48.5t47.5 -17.5q35 0 74 20v-113q-47 -18 -100 -18q-159 0 -159 176v45h-78v81h78v104h-97v102h97v100l121 50v-150h138v-102z" />
    <glyph glyph-name="Utilde" unicode="&#x168;" horiz-adv-x="651" 
d="M128.5 65q-68.5 79 -68.5 210v425h133v-436q0 -69 35.5 -111t97.5 -42q61 0 96.5 42t35.5 111v436h133v-425q0 -131 -68 -210t-197 -79t-197.5 79zM168 828q10 43 36 63.5t63 20.5q23 0 38.5 -5.5t36.5 -16.5q9 -5 19 -9t19 -4q28 0 40 34l65 -27q-10 -42 -36 -62.5
t-63 -20.5q-22 0 -37.5 5.5t-36.5 15.5q-13 7 -21 10.5t-18 3.5q-28 0 -39 -35z" />
    <glyph glyph-name="utilde" unicode="&#x169;" horiz-adv-x="548" 
d="M105 38.5q-46 50.5 -46 139.5v318h121v-295q0 -48 26 -75.5t68 -27.5t68.5 28t26.5 76v294h120v-496h-120v52q-16 -26 -52 -45t-80 -19q-86 0 -132 50.5zM116 624q10 43 36 63.5t63 20.5q23 0 38.5 -5.5t36.5 -16.5q9 -5 19 -9t19 -4q28 0 40 34l65 -27
q-10 -42 -36 -62.5t-63 -20.5q-22 0 -37.5 5.5t-36.5 15.5q-13 7 -21 10.5t-18 3.5q-28 0 -39 -35z" />
    <glyph glyph-name="Umacron" unicode="&#x16a;" horiz-adv-x="651" 
d="M128.5 65q-68.5 79 -68.5 210v425h133v-436q0 -69 35.5 -111t97.5 -42q61 0 96.5 42t35.5 111v436h133v-425q0 -131 -68 -210t-197 -79t-197.5 79zM448 813h-244v88h244v-88z" />
    <glyph glyph-name="umacron" unicode="&#x16b;" horiz-adv-x="548" 
d="M105 38.5q-46 50.5 -46 139.5v318h121v-295q0 -48 26 -75.5t68 -27.5t68.5 28t26.5 76v294h120v-496h-120v52q-16 -26 -52 -45t-80 -19q-86 0 -132 50.5zM396 609h-244v88h244v-88z" />
    <glyph glyph-name="Ubreve" unicode="&#x16c;" horiz-adv-x="651" 
d="M128.5 65q-68.5 79 -68.5 210v425h133v-436q0 -69 35.5 -111t97.5 -42q61 0 96.5 42t35.5 111v436h133v-425q0 -131 -68 -210t-197 -79t-197.5 79zM241.5 806q-30.5 34 -30.5 86h76q0 -24 10 -37.5t29 -13.5t30 14t11 37h76q0 -52 -31 -86t-86 -34q-54 0 -84.5 34z" />
    <glyph glyph-name="ubreve" unicode="&#x16d;" horiz-adv-x="548" 
d="M105 38.5q-46 50.5 -46 139.5v318h121v-295q0 -48 26 -75.5t68 -27.5t68.5 28t26.5 76v294h120v-496h-120v52q-16 -26 -52 -45t-80 -19q-86 0 -132 50.5zM189.5 602q-30.5 34 -30.5 86h76q0 -24 10 -37.5t29 -13.5t30 14t11 37h76q0 -52 -31 -86t-86 -34q-54 0 -84.5 34z
" />
    <glyph glyph-name="Uring" unicode="&#x16e;" horiz-adv-x="651" 
d="M128.5 65q-68.5 79 -68.5 210v425h133v-436q0 -69 35.5 -111t97.5 -42q61 0 96.5 42t35.5 111v436h133v-425q0 -131 -68 -210t-197 -79t-197.5 79zM254.5 792q-28.5 30 -28.5 74t28.5 74t71.5 30t71.5 -30t28.5 -74t-28.5 -74t-71.5 -30t-71.5 30zM352.5 835.5
q10.5 11.5 10.5 29.5v2q0 18 -10.5 29.5t-26.5 11.5t-26.5 -11.5t-10.5 -29.5v-2q0 -18 10.5 -29.5t26.5 -11.5t26.5 11.5z" />
    <glyph glyph-name="uring" unicode="&#x16f;" horiz-adv-x="548" 
d="M105 38.5q-46 50.5 -46 139.5v318h121v-295q0 -48 26 -75.5t68 -27.5t68.5 28t26.5 76v294h120v-496h-120v52q-16 -26 -52 -45t-80 -19q-86 0 -132 50.5zM202.5 588q-28.5 30 -28.5 74t28.5 74t71.5 30t71.5 -30t28.5 -74t-28.5 -74t-71.5 -30t-71.5 30zM300.5 631.5
q10.5 11.5 10.5 29.5v2q0 18 -10.5 29.5t-26.5 11.5t-26.5 -11.5t-10.5 -29.5v-2q0 -18 10.5 -29.5t26.5 -11.5t26.5 11.5z" />
    <glyph glyph-name="Uhungarumlaut" unicode="&#x170;" horiz-adv-x="651" 
d="M128.5 65q-68.5 79 -68.5 210v425h133v-436q0 -69 35.5 -111t97.5 -42q61 0 96.5 42t35.5 111v436h133v-425q0 -131 -68 -210t-197 -79t-197.5 79zM270 774h-83l51 160h121zM464 774h-83l51 160h120z" />
    <glyph glyph-name="uhungarumlaut" unicode="&#x171;" horiz-adv-x="548" 
d="M105 38.5q-46 50.5 -46 139.5v318h121v-295q0 -48 26 -75.5t68 -27.5t68.5 28t26.5 76v294h120v-496h-120v52q-16 -26 -52 -45t-80 -19q-86 0 -132 50.5zM219 570h-83l51 160h121zM413 570h-83l51 160h120z" />
    <glyph glyph-name="Uogonek" unicode="&#x172;" horiz-adv-x="651" 
d="M458 700h133v-425q0 -104 -43.5 -177t-127.5 -99q-30 -17 -48 -41t-18 -51q0 -18 11 -28.5t28 -10.5q18 0 36 9v-72q-22 -11 -54 -11q-44 0 -72.5 25t-28.5 73q0 54 38 94q-123 4 -187.5 83t-64.5 206v425h133v-436q0 -69 35.5 -111t97.5 -42q61 0 96.5 42t35.5 111v436z
" />
    <glyph glyph-name="uogonek" unicode="&#x173;" horiz-adv-x="548" 
d="M497 -123v-72q-22 -11 -54 -11q-44 0 -72.5 25t-28.5 73q0 34 15.5 61.5t39.5 46.5h-28v52q-16 -26 -52 -45t-80 -19q-86 0 -132 50.5t-46 139.5v318h121v-295q0 -48 26 -75.5t68 -27.5t68.5 28t26.5 76v294h120v-496q-30 -17 -48.5 -41.5t-18.5 -51.5q0 -18 11 -28.5
t28 -10.5q18 0 36 9z" />
    <glyph glyph-name="Wcircumflex" unicode="&#x174;" horiz-adv-x="933" 
d="M340 0h-153l-166 700h137l110 -520l131 500h135l131 -500l109 520h138l-167 -700h-153l-125 495zM398 774h-86l109 160h91l108 -160h-85l-69 78z" />
    <glyph glyph-name="wcircumflex" unicode="&#x175;" horiz-adv-x="748" 
d="M284 0h-130l-139 496h126l81 -336l88 336h128l88 -336l81 336h126l-139 -496h-129l-91 354zM306 570h-86l109 160h91l108 -160h-85l-69 78z" />
    <glyph glyph-name="Ycircumflex" unicode="&#x176;" horiz-adv-x="622" 
d="M377 0h-133v283l-232 417h154l144 -280l145 280h155l-233 -417v-283zM242 774h-86l109 160h91l108 -160h-85l-69 78z" />
    <glyph glyph-name="ycircumflex" unicode="&#x177;" horiz-adv-x="534" 
d="M389 496h130l-212 -559q-30 -79 -73.5 -114t-119.5 -35q-50 0 -82 15v120q40 -22 82 -22q34 0 55 18.5t36 59.5l8 23l-202 494h134l124 -338zM201 570h-86l109 160h91l108 -160h-85l-69 78z" />
    <glyph glyph-name="Ydieresis" unicode="&#x178;" horiz-adv-x="622" 
d="M377 0h-133v283l-232 417h154l144 -280l145 280h155l-233 -417v-283zM143.5 797.5q-21.5 21.5 -21.5 50.5q0 30 21.5 51.5t51.5 21.5t51.5 -21.5t21.5 -51.5q0 -29 -21.5 -50.5t-51.5 -21.5t-51.5 21.5zM374.5 797.5q-21.5 21.5 -21.5 50.5q0 30 21.5 51.5t50.5 21.5
q30 0 51.5 -21.5t21.5 -51.5q0 -29 -21.5 -50.5t-51.5 -21.5q-29 0 -50.5 21.5z" />
    <glyph glyph-name="Zacute" unicode="&#x179;" horiz-adv-x="568" 
d="M529 0h-494v122l328 456h-315v122h464v-122l-328 -456h345v-122zM328 774h-97l84 160h138z" />
    <glyph glyph-name="zacute" unicode="&#x17a;" horiz-adv-x="452" 
d="M417 0h-388v102l242 292h-233v102h367v-102l-243 -292h255v-102zM272 570h-97l84 160h138z" />
    <glyph glyph-name="Zdotaccent" unicode="&#x17b;" horiz-adv-x="568" 
d="M529 0h-494v122l328 456h-315v122h464v-122l-328 -456h345v-122zM223.5 792q-23.5 23 -23.5 56t23.5 56.5t56.5 23.5t56 -23.5t23 -56.5t-23 -56t-56 -23t-56.5 23z" />
    <glyph glyph-name="zdotaccent" unicode="&#x17c;" horiz-adv-x="452" 
d="M417 0h-388v102l242 292h-233v102h367v-102l-243 -292h255v-102zM167.5 588q-23.5 23 -23.5 56t23.5 56.5t56.5 23.5t56 -23.5t23 -56.5t-23 -56t-56 -23t-56.5 23z" />
    <glyph glyph-name="Zcaron" unicode="&#x17d;" horiz-adv-x="568" 
d="M529 0h-494v122l328 456h-315v122h464v-122l-328 -456h345v-122zM325 774h-91l-109 160h86l68 -73l69 73h85z" />
    <glyph glyph-name="zcaron" unicode="&#x17e;" horiz-adv-x="452" 
d="M417 0h-388v102l242 292h-233v102h367v-102l-243 -292h255v-102zM269 570h-91l-109 160h86l68 -73l69 73h85z" />
    <glyph glyph-name="florin" unicode="&#x192;" horiz-adv-x="380" 
d="M288 585q-20 -17 -26 -48l-7 -41h131l-19 -102h-130l-79 -443q-28 -169 -195 -169q-31 0 -79 12l20 111q35 -13 62 -13q30 0 49 17t25 47l77 438h-92l19 102h91l8 45q16 87 64.5 129t134.5 42q47 0 80 -12l-21 -111q-19 7 -32.5 10t-30.5 3q-30 0 -50 -17z" />
    <glyph glyph-name="uni01B5" unicode="&#x1b5;" horiz-adv-x="568" 
d="M311 299l-127 -177h345v-122h-494v122l127 177h-74v106h151l124 173h-315v122h464v-122l-124 -173h88v-106h-165z" />
    <glyph glyph-name="uni01B6" unicode="&#x1b6;" horiz-adv-x="452" 
d="M251 209l-89 -107h255v-102h-388v102l89 107h-61v81h128l86 104h-233v102h367v-102l-87 -104h70v-81h-137z" />
    <glyph glyph-name="AEacute" unicode="&#x1fc;" horiz-adv-x="967" 
d="M569 301v-179h352v-122h-486v142h-205l-61 -142h-153l314 700h589v-122h-350v-158h288v-119h-288zM417 578l-137 -320h155v320h-18zM624 774h-97l84 160h138z" />
    <glyph glyph-name="aeacute" unicode="&#x1fd;" horiz-adv-x="848" 
d="M811 220h-357q5 -59 38 -94.5t86 -35.5q43 0 70 18.5t44 55.5l106 -43q-57 -133 -220 -133q-64 0 -115.5 27t-83.5 75q-26 -48 -68 -75t-110 -27q-69 0 -114.5 40.5t-45.5 106.5q0 72 47.5 111.5t130.5 47.5l115 9v23q0 38 -24 62t-65 24q-77 0 -103 -77l-100 39
q24 61 77.5 97.5t125.5 36.5q56 0 98.5 -16.5t68.5 -46.5q68 63 166 63q65 0 118 -28.5t84 -85t31 -136.5v-38zM499 381q-31 -27 -41 -75h233q-6 45 -37 73.5t-76 28.5q-48 0 -79 -27zM334 218l-103 -9q-71 -5 -71 -63q0 -27 18.5 -44t48.5 -17q52 0 79.5 33.5t27.5 90.5v9z
M442 570h-97l84 160h138z" />
    <glyph glyph-name="uni0218" unicode="&#x218;" horiz-adv-x="602" 
d="M132.5 35q-68.5 49 -94.5 128l111 61q50 -116 155 -116q57 0 90.5 24.5t33.5 65.5v1q0 42 -38 66.5t-119 43.5q-101 23 -154 75.5t-53 134.5v1q0 57 31 100.5t85 67.5t120 24q90 0 149 -36t95 -107l-105 -67q-21 43 -57.5 66.5t-80.5 23.5q-47 0 -78 -20t-31 -52v-1
q0 -36 34 -58t120 -42q100 -25 156.5 -75.5t56.5 -137.5v-2q0 -65 -32.5 -114.5t-90.5 -76.5t-132 -27q-103 0 -171.5 49zM281 -258l-20 13l18 30q13 21 16 40q-20 2 -34 16t-14 37t15.5 39.5t41.5 16.5q25 0 40 -16t15 -41q0 -51 -50 -105z" />
    <glyph glyph-name="uni0219" unicode="&#x219;" horiz-adv-x="485" 
d="M117.5 20q-54.5 34 -76.5 89l98 57q13 -34 43 -54.5t67 -20.5q36 0 56 14t20 38q0 25 -25 39t-84 28q-76 17 -113 54t-37 98q0 65 50.5 104.5t129.5 39.5q135 0 185 -107l-89 -51q-14 30 -40.5 46.5t-57.5 16.5q-32 0 -51.5 -13t-19.5 -34q0 -22 22 -37t78 -26
q82 -17 125 -52.5t43 -101.5q0 -47 -24 -83.5t-68 -57t-101 -20.5q-76 0 -130.5 34zM224 -258l-20 13l18 30q13 21 16 40q-20 2 -34 16t-14 37t15.5 39.5t41.5 16.5q25 0 40 -16t15 -41q0 -51 -50 -105z" />
    <glyph glyph-name="uni021A" unicode="&#x21a;" horiz-adv-x="568" 
d="M545 700v-122h-195v-578h-132v578h-195v122h522zM261 -258l-20 13l18 30q13 21 16 40q-20 2 -34 16t-14 37t15.5 39.5t41.5 16.5q25 0 40 -16t15 -41q0 -51 -50 -105z" />
    <glyph glyph-name="uni021B" unicode="&#x21b;" horiz-adv-x="411" 
d="M379 394h-138v-229q0 -31 16.5 -48.5t47.5 -17.5q35 0 74 20v-113q-47 -18 -100 -18q-159 0 -159 176v230h-97v102h97v100l121 50v-150h138v-102zM253 -258l-20 13l18 30q13 21 16 40q-20 2 -34 16t-14 37t15.5 39.5t41.5 16.5q25 0 40 -16t15 -41q0 -51 -50 -105z" />
    <glyph glyph-name="uni0237" unicode="&#x237;" 
d="M-36 -202v112q29 -12 49 -12q21 0 33.5 16t12.5 46v536h121v-530q0 -178 -143 -178q-43 0 -73 10z" />
    <glyph glyph-name="circumflex" unicode="&#x2c6;" horiz-adv-x="344" 
d="M104 570h-86l109 160h91l108 -160h-85l-69 78z" />
    <glyph glyph-name="caron" unicode="&#x2c7;" horiz-adv-x="344" 
d="M218 570h-91l-109 160h86l68 -73l69 73h85z" />
    <glyph glyph-name="uni02C9" unicode="&#x2c9;" horiz-adv-x="288" 
d="M266 609h-244v88h244v-88z" />
    <glyph glyph-name="breve" unicode="&#x2d8;" horiz-adv-x="249" 
d="M39.5 602q-30.5 34 -30.5 86h76q0 -24 10 -37.5t29 -13.5t30 14t11 37h76q0 -52 -31 -86t-86 -34q-54 0 -84.5 34z" />
    <glyph glyph-name="dotaccent" unicode="&#x2d9;" horiz-adv-x="225" 
d="M56.5 588q-23.5 23 -23.5 56t23.5 56.5t56.5 23.5t56 -23.5t23 -56.5t-23 -56t-56 -23t-56.5 23z" />
    <glyph glyph-name="ring" unicode="&#x2da;" horiz-adv-x="232" 
d="M44.5 588q-28.5 30 -28.5 74t28.5 74t71.5 30t71.5 -30t28.5 -74t-28.5 -74t-71.5 -30t-71.5 30zM142.5 631.5q10.5 11.5 10.5 29.5v2q0 18 -10.5 29.5t-26.5 11.5t-26.5 -11.5t-10.5 -29.5v-2q0 -18 10.5 -29.5t26.5 -11.5t26.5 11.5z" />
    <glyph glyph-name="ogonek" unicode="&#x2db;" horiz-adv-x="178" 
d="M37.5 -181q-28.5 25 -28.5 73q0 40 20 71t50 49l77 -12q-30 -17 -48.5 -41.5t-18.5 -51.5q0 -18 11 -28.5t28 -10.5q18 0 36 9v-72q-22 -11 -54 -11q-44 0 -72.5 25z" />
    <glyph glyph-name="tilde" unicode="&#x2dc;" horiz-adv-x="340" 
d="M11 624q10 43 36 63.5t63 20.5q23 0 38.5 -5.5t36.5 -16.5q9 -5 19 -9t19 -4q28 0 40 34l65 -27q-10 -42 -36 -62.5t-63 -20.5q-22 0 -37.5 5.5t-36.5 15.5q-13 7 -21 10.5t-18 3.5q-28 0 -39 -35z" />
    <glyph glyph-name="hungarumlaut" unicode="&#x2dd;" horiz-adv-x="352" 
d="M95 570h-83l51 160h121zM289 570h-83l51 160h120z" />
    <glyph glyph-name="gravecomb" unicode="&#x300;" horiz-adv-x="0" 
d="M-13 570h-96l-126 160h138z" />
    <glyph glyph-name="acutecomb" unicode="&#x301;" horiz-adv-x="0" 
d="M-138 570h-97l84 160h138z" />
    <glyph glyph-name="uni0302" unicode="&#x302;" horiz-adv-x="0" 
d="M-240 570h-86l109 160h91l108 -160h-85l-69 78z" />
    <glyph glyph-name="tildecomb" unicode="&#x303;" horiz-adv-x="0" 
d="M-329 624q10 43 36 63.5t63 20.5q23 0 38.5 -5.5t36.5 -16.5q9 -5 19 -9t19 -4q28 0 40 34l65 -27q-10 -42 -36 -62.5t-63 -20.5q-22 0 -37.5 5.5t-36.5 15.5q-13 7 -21 10.5t-18 3.5q-28 0 -39 -35z" />
    <glyph glyph-name="uni0304" unicode="&#x304;" horiz-adv-x="0" 
d="M-22 609h-244v88h244v-88z" />
    <glyph glyph-name="uni0306" unicode="&#x306;" horiz-adv-x="0" 
d="M-210.5 602q-30.5 34 -30.5 86h76q0 -24 10 -37.5t29 -13.5t30 14t11 37h76q0 -52 -31 -86t-86 -34q-54 0 -84.5 34z" />
    <glyph glyph-name="uni0307" unicode="&#x307;" horiz-adv-x="0" 
d="M-168.5 588q-23.5 23 -23.5 56t23.5 56.5t56.5 23.5t56 -23.5t23 -56.5t-23 -56t-56 -23t-56.5 23z" />
    <glyph glyph-name="uni0308" unicode="&#x308;" horiz-adv-x="0" 
d="M-366.5 593.5q-21.5 21.5 -21.5 50.5q0 30 21.5 51.5t51.5 21.5t51.5 -21.5t21.5 -51.5q0 -29 -21.5 -50.5t-51.5 -21.5t-51.5 21.5zM-135.5 593.5q-21.5 21.5 -21.5 50.5q0 30 21.5 51.5t50.5 21.5q30 0 51.5 -21.5t21.5 -51.5q0 -29 -21.5 -50.5t-51.5 -21.5
q-29 0 -50.5 21.5z" />
    <glyph glyph-name="uni030A" unicode="&#x30a;" horiz-adv-x="0" 
d="M-187.5 588q-28.5 30 -28.5 74t28.5 74t71.5 30t71.5 -30t28.5 -74t-28.5 -74t-71.5 -30t-71.5 30zM-89.5 631.5q10.5 11.5 10.5 29.5v2q0 18 -10.5 29.5t-26.5 11.5t-26.5 -11.5t-10.5 -29.5v-2q0 -18 10.5 -29.5t26.5 -11.5t26.5 11.5z" />
    <glyph glyph-name="uni030B" unicode="&#x30b;" horiz-adv-x="0" 
d="M-297 570h-83l51 160h121zM-103 570h-83l51 160h120z" />
    <glyph glyph-name="uni030C" unicode="&#x30c;" horiz-adv-x="0" 
d="M-126 570h-91l-109 160h86l68 -73l69 73h85z" />
    <glyph glyph-name="uni0312" unicode="&#x312;" horiz-adv-x="0" 
d="M-141.5 582.5q-15.5 17.5 -15.5 41.5q0 52 49 103l30 29l20 -15l-18 -27q-12 -19 -16 -40q19 -2 33 -16.5t14 -36.5q0 -23 -15.5 -39.5t-41.5 -16.5q-24 0 -39.5 17.5z" />
    <glyph glyph-name="uni0326" unicode="&#x326;" horiz-adv-x="0" 
d="M-114 -258l-20 13l18 30q13 21 16 40q-20 2 -34 16t-14 37t15.5 39.5t41.5 16.5q25 0 40 -16t15 -41q0 -51 -50 -105z" />
    <glyph glyph-name="uni0327" unicode="&#x327;" horiz-adv-x="0" 
d="M-29.5 -61.5q22.5 -22.5 22.5 -62.5q0 -43 -27 -67.5t-76 -24.5q-56 0 -84 16l24 57q22 -13 56 -13q18 0 28 9t10 26q0 15 -9.5 23.5t-25.5 8.5q-21 0 -35 -11l-37 18l17 94h62l-14 -56q17 5 29 5q37 0 59.5 -22.5z" />
    <glyph glyph-name="uni0328" unicode="&#x328;" horiz-adv-x="0" 
d="M-140.5 -181q-28.5 25 -28.5 73q0 40 20 71t50 49l77 -12q-30 -17 -48.5 -41.5t-18.5 -51.5q0 -18 11 -28.5t28 -10.5q18 0 36 9v-72q-22 -11 -54 -11q-44 0 -72.5 25z" />
    <glyph glyph-name="pi" unicode="&#x3c0;" horiz-adv-x="701" 
d="M669 394h-117v-237q0 -27 14.5 -42.5t41.5 -15.5q30 0 61 16v-113q-38 -14 -83 -14q-155 0 -155 169v237h-170v-394h-120v394h-118v102h646v-102z" />
    <glyph glyph-name="uni0400" unicode="&#x400;" horiz-adv-x="596" 
d="M550 0h-485v700h484v-122h-351v-158h289v-119h-289v-179h352v-122zM356 774h-96l-126 160h138z" />
    <glyph glyph-name="uni0401" unicode="&#x401;" horiz-adv-x="596" 
d="M550 0h-485v700h484v-122h-351v-158h289v-119h-289v-179h352v-122zM141.5 797.5q-21.5 21.5 -21.5 50.5q0 30 21.5 51.5t51.5 21.5t51.5 -21.5t21.5 -51.5q0 -29 -21.5 -50.5t-51.5 -21.5t-51.5 21.5zM372.5 797.5q-21.5 21.5 -21.5 50.5q0 30 21.5 51.5t50.5 21.5
q30 0 51.5 -21.5t21.5 -51.5q0 -29 -21.5 -50.5t-51.5 -21.5q-29 0 -50.5 21.5z" />
    <glyph glyph-name="uni0402" unicode="&#x402;" horiz-adv-x="737" 
d="M396 2v112q43 -17 85 -17q45 0 77 31.5t32 88.5t-32 89t-87 32q-34 0 -66.5 -9t-54.5 -24v-305h-132v578h-195v122h572v-122h-245v-167q27 16 68.5 26.5t83.5 10.5q95 0 151.5 -61.5t56.5 -169.5q0 -70 -28 -122t-78 -80t-115 -28q-52 0 -93 15z" />
    <glyph glyph-name="uni0403" unicode="&#x403;" horiz-adv-x="560" 
d="M198 0h-133v700h460v-122h-327v-578zM343 774h-97l84 160h138z" />
    <glyph glyph-name="uni0404" unicode="&#x404;" horiz-adv-x="684" 
d="M649 146q-93 -160 -279 -160q-95 0 -170 45t-116.5 125.5t-41.5 184.5v18q0 104 42 184.5t116.5 125.5t169.5 45t165.5 -41.5t112.5 -118.5l-102 -71q-30 51 -71.5 79t-100.5 28q-77 0 -128.5 -49.5t-63.5 -131.5h285v-118h-285q12 -82 63.5 -131.5t128.5 -49.5
q60 0 101 27.5t71 79.5z" />
    <glyph glyph-name="uni0405" unicode="&#x405;" horiz-adv-x="602" 
d="M132.5 35q-68.5 49 -94.5 128l111 61q50 -116 155 -116q57 0 90.5 24.5t33.5 65.5v1q0 42 -38 66.5t-119 43.5q-101 23 -154 75.5t-53 134.5v1q0 57 31 100.5t85 67.5t120 24q90 0 149 -36t95 -107l-105 -67q-21 43 -57.5 66.5t-80.5 23.5q-47 0 -78 -20t-31 -52v-1
q0 -36 34 -58t120 -42q100 -25 156.5 -75.5t56.5 -137.5v-2q0 -65 -32.5 -114.5t-90.5 -76.5t-132 -27q-103 0 -171.5 49z" />
    <glyph glyph-name="uni0406" unicode="&#x406;" horiz-adv-x="263" 
d="M198 0h-133v700h133v-700z" />
    <glyph glyph-name="uni0407" unicode="&#x407;" horiz-adv-x="263" 
d="M198 0h-133v700h133v-700zM-35.5 797.5q-21.5 21.5 -21.5 50.5q0 30 21.5 51.5t51.5 21.5t51.5 -21.5t21.5 -51.5q0 -29 -21.5 -50.5t-51.5 -21.5t-51.5 21.5zM195.5 797.5q-21.5 21.5 -21.5 50.5q0 30 21.5 51.5t50.5 21.5q30 0 51.5 -21.5t21.5 -51.5
q0 -29 -21.5 -50.5t-51.5 -21.5q-29 0 -50.5 21.5z" />
    <glyph glyph-name="uni0408" unicode="&#x408;" horiz-adv-x="559" 
d="M112.5 31q-59.5 45 -82.5 121l121 53q13 -45 41.5 -69.5t70.5 -24.5q103 0 103 134v455h132v-447q0 -128 -58.5 -197.5t-178.5 -69.5q-89 0 -148.5 45z" />
    <glyph glyph-name="uni0409" unicode="&#x409;" horiz-adv-x="1029" 
d="M58 -6.5q-22 6.5 -38 16.5v115q14 -12 30.5 -18t31.5 -6q38 0 54 32.5t21 113.5l30 453h445v-290h130q103 0 163.5 -53.5t60.5 -151.5t-60.5 -151.5t-163.5 -53.5h-263v575h-198l-23 -337q-7 -91 -26.5 -145.5t-55.5 -80t-94 -25.5q-22 0 -44 6.5zM757 114q46 0 71.5 23
t25.5 68q0 44 -25.5 67t-71.5 23h-125v-181h125z" />
    <glyph glyph-name="uni040A" unicode="&#x40a;" horiz-adv-x="1050" 
d="M65 0v700h133v-269h320v269h133v-269h122q108 0 171 -55.5t63 -159.5t-63 -160t-171 -56h-255v307h-320v-307h-133zM768 114q50 0 78 26t28 76t-28 75t-78 25h-117v-202h117z" />
    <glyph glyph-name="uni040B" unicode="&#x40b;" horiz-adv-x="745" 
d="M218 0v578h-195v122h572v-122h-245v-170q27 17 66.5 28.5t80.5 11.5q93 0 141 -50.5t48 -139.5v-258h-121v233q0 50 -24.5 77.5t-74.5 27.5q-33 0 -64 -9t-52 -24v-305h-132z" />
    <glyph glyph-name="uni040C" unicode="&#x40c;" horiz-adv-x="594" 
d="M417 700h152l-230 -350l230 -350h-150l-193 291h-28v-291h-133v700h133v-299h26zM343 774h-97l84 160h138z" />
    <glyph glyph-name="uni040D" unicode="&#x40d;" horiz-adv-x="682" 
d="M186 0h-121v700h127v-481l288 481h137v-700h-127v503zM389 774h-96l-126 160h138z" />
    <glyph glyph-name="uni040E" unicode="&#x40e;" horiz-adv-x="622" 
d="M441 700h147l-253 -573q-34 -76 -80 -108.5t-114 -32.5q-56 0 -100 21v124q17 -14 40 -22t45 -8q34 0 56.5 19t43.5 67l16 39l-215 474h149l134 -312zM213.5 808.5q-34.5 36.5 -34.5 93.5h80q0 -27 12.5 -42.5t36.5 -15.5t36.5 15.5t12.5 42.5h80q0 -57 -34.5 -93.5
t-94.5 -36.5t-94.5 36.5z" />
    <glyph glyph-name="uni040F" unicode="&#x40f;" horiz-adv-x="681" 
d="M402 -142h-122v142h-215v700h133v-575h285v575h133v-700h-214v-142z" />
    <glyph glyph-name="uni0410" unicode="&#x410;" horiz-adv-x="699" 
d="M683 0h-147l-49 140h-275l-49 -140h-147l261 700h144zM349 533l-97 -278h195z" />
    <glyph glyph-name="uni0411" unicode="&#x411;" horiz-adv-x="610" 
d="M65 0v700h457v-122h-324v-177h154q99 0 157 -52.5t58 -148.5t-58 -148t-157 -52h-287zM344 114q43 0 67 22t24 64q0 43 -24 64.5t-67 21.5h-146v-172h146z" />
    <glyph glyph-name="uni0412" unicode="&#x412;" horiz-adv-x="628" 
d="M65 0v700h288q96 0 150.5 -47.5t54.5 -127.5q0 -54 -25 -90.5t-65 -56.5q114 -51 114 -174v-1q0 -64 -29 -110t-79 -69.5t-112 -23.5h-297zM352 423q40 0 64 20.5t24 58.5v1q0 39 -24 59.5t-64 20.5h-154v-160h154zM352 122q47 0 74 25.5t27 69.5v1q0 44 -27 69.5
t-74 25.5h-154v-191h154z" />
    <glyph glyph-name="uni0413" unicode="&#x413;" horiz-adv-x="560" 
d="M198 0h-133v700h460v-122h-327v-578z" />
    <glyph glyph-name="uni0414" unicode="&#x414;" horiz-adv-x="743" 
d="M29 -142v267h83q17 55 27 106t15 126l21 343h452v-575h89v-267h-123v142h-442v-142h-122zM493 125v450h-202l-14 -224q-5 -78 -12.5 -126t-21.5 -100h250z" />
    <glyph glyph-name="uni0415" unicode="&#x415;" horiz-adv-x="596" 
d="M550 0h-485v700h484v-122h-351v-158h289v-119h-289v-179h352v-122z" />
    <glyph glyph-name="uni0416" unicode="&#x416;" horiz-adv-x="925" 
d="M174 0h-149l230 350l-230 350h152l194 -299h25v299h133v-299h25l193 299h153l-230 -350l230 -350h-150l-194 291h-27v-291h-133v291h-28z" />
    <glyph glyph-name="uni0417" unicode="&#x417;" horiz-adv-x="564" 
d="M114 43q-63 55 -74 150l116 24q7 -54 39 -85.5t83 -31.5q53 0 83 30t30 81v4q0 51 -30.5 79t-77.5 28h-56v94h54q45 0 72 26t27 71q0 42 -27 67t-75 25q-44 0 -71.5 -23.5t-37.5 -67.5l-113 24q15 80 73.5 128t151.5 48q105 0 164 -52t59 -142q0 -50 -24 -86t-62 -55
q44 -21 71.5 -63t27.5 -103v-4q0 -104 -64 -162.5t-173 -58.5q-103 0 -166 55z" />
    <glyph glyph-name="uni0418" unicode="&#x418;" horiz-adv-x="682" 
d="M186 0h-121v700h127v-481l288 481h137v-700h-127v503z" />
    <glyph glyph-name="uni0419" unicode="&#x419;" horiz-adv-x="682" 
d="M186 0h-121v700h127v-481l288 481h137v-700h-127v503zM246.5 808.5q-34.5 36.5 -34.5 93.5h80q0 -27 12.5 -42.5t36.5 -15.5t36.5 15.5t12.5 42.5h80q0 -57 -34.5 -93.5t-94.5 -36.5t-94.5 36.5z" />
    <glyph glyph-name="uni041A" unicode="&#x41a;" horiz-adv-x="594" 
d="M417 700h152l-230 -350l230 -350h-150l-193 291h-28v-291h-133v700h133v-299h26z" />
    <glyph glyph-name="uni041B" unicode="&#x41b;" horiz-adv-x="697" 
d="M58 -6.5q-22 6.5 -38 16.5v115q14 -12 30.5 -18t31.5 -6q38 0 54 32.5t21 113.5l30 453h445v-700h-133v575h-198l-23 -337q-7 -91 -26.5 -145.5t-55.5 -80t-94 -25.5q-22 0 -44 6.5z" />
    <glyph glyph-name="uni041C" unicode="&#x41c;" horiz-adv-x="778" 
d="M192 0h-127v700h143l181 -418l181 418h143v-700h-128v443l-135 -303h-122l-136 303v-443z" />
    <glyph glyph-name="uni041D" unicode="&#x41d;" horiz-adv-x="716" 
d="M198 0h-133v700h133v-269h320v269h133v-700h-133v307h-320v-307z" />
    <glyph glyph-name="uni041E" unicode="&#x41e;" horiz-adv-x="751" 
d="M202 31.5q-76 45.5 -118 126.5t-42 183v18q0 102 42 183t118 126.5t174 45.5t173.5 -45.5t117.5 -126.5t42 -183v-18q0 -102 -42 -183t-117.5 -126.5t-173.5 -45.5t-174 45.5zM481.5 139.5q44.5 29.5 68 81.5t23.5 118v22q0 66 -23.5 118t-68 81.5t-105.5 29.5
t-106 -29.5t-68.5 -81.5t-23.5 -118v-22q0 -66 23.5 -118t68.5 -81.5t106 -29.5t105.5 29.5z" />
    <glyph glyph-name="uni041F" unicode="&#x41f;" horiz-adv-x="681" 
d="M198 0h-133v700h551v-700h-133v575h-285v-575z" />
    <glyph glyph-name="uni0420" unicode="&#x420;" horiz-adv-x="590" 
d="M65 0v700h267q99 0 157 -52t58 -148t-58 -148.5t-157 -52.5h-134v-299h-133zM324 414q43 0 67 21.5t24 64.5q0 42 -24 64t-67 22h-126v-172h126z" />
    <glyph glyph-name="uni0421" unicode="&#x421;" horiz-adv-x="684" 
d="M200 31q-75 45 -116.5 125.5t-41.5 184.5v18q0 104 42 184.5t116.5 125.5t169.5 45t165.5 -41.5t112.5 -118.5l-102 -71q-30 51 -71.5 79t-100.5 28t-103.5 -29.5t-68.5 -81.5t-24 -118v-22q0 -66 24 -118t68.5 -81.5t103.5 -29.5q60 0 101 27.5t71 79.5l103 -71
q-93 -160 -279 -160q-95 0 -170 45z" />
    <glyph glyph-name="uni0422" unicode="&#x422;" horiz-adv-x="568" 
d="M545 700v-122h-195v-578h-132v578h-195v122h522z" />
    <glyph glyph-name="uni0423" unicode="&#x423;" horiz-adv-x="622" 
d="M441 700h147l-253 -573q-34 -76 -80 -108.5t-114 -32.5q-56 0 -100 21v124q17 -14 40 -22t45 -8q34 0 56.5 19t43.5 67l16 39l-215 474h149l134 -312z" />
    <glyph glyph-name="uni0424" unicode="&#x424;" horiz-adv-x="754" 
d="M444 630q125 -16 196.5 -90t71.5 -183v-14q0 -109 -71.5 -183t-196.5 -90v-84h-133v84q-125 16 -197 90t-72 183v14q0 109 72 183t197 90v84h133v-84zM178 342q0 -58 33 -96.5t100 -50.5v310q-67 -12 -100 -50.5t-33 -96.5v-16zM444 195q67 12 100 50.5t32 96.5v16
q0 58 -33 96.5t-99 50.5v-310z" />
    <glyph glyph-name="uni0425" unicode="&#x425;" horiz-adv-x="637" 
d="M181 0h-159l217 360l-206 340h159l128 -222l134 222h157l-213 -342l217 -358h-162l-138 239z" />
    <glyph glyph-name="uni0426" unicode="&#x426;" horiz-adv-x="732" 
d="M705 -142h-123v142h-517v700h133v-575h285v575h133v-575h89v-267z" />
    <glyph glyph-name="uni0427" unicode="&#x427;" horiz-adv-x="637" 
d="M439 295q-25 -26 -67 -41.5t-94 -15.5q-100 0 -159 60.5t-59 167.5v234h133v-223q0 -54 31 -84t87 -30q68 0 128 47v290h133v-700h-133v295z" />
    <glyph glyph-name="uni0428" unicode="&#x428;" horiz-adv-x="929" 
d="M864 0h-799v700h133v-575h200v575h133v-575h200v575h133v-700z" />
    <glyph glyph-name="uni0429" unicode="&#x429;" horiz-adv-x="980" 
d="M953 -142h-123v142h-765v700h133v-575h200v575h133v-575h200v575h133v-575h89v-267z" />
    <glyph glyph-name="uni042A" unicode="&#x42a;" horiz-adv-x="719" 
d="M189 0v585h-166v115h299v-290h130q103 0 163.5 -53.5t60.5 -151.5t-60.5 -151.5t-163.5 -53.5h-263zM447 114q46 0 71.5 23t25.5 68q0 44 -25.5 67t-71.5 23h-125v-181h125z" />
    <glyph glyph-name="uni042B" unicode="&#x42b;" horiz-adv-x="832" 
d="M65 0v700h133v-290h129q103 0 164 -53.5t61 -151.5t-61 -151.5t-164 -53.5h-262zM322 114q46 0 71.5 23t25.5 68q0 44 -25.5 67t-71.5 23h-124v-181h124zM768 0h-133v700h133v-700z" />
    <glyph glyph-name="uni042C" unicode="&#x42c;" horiz-adv-x="595" 
d="M65 0v700h133v-290h129q103 0 164 -53.5t61 -151.5t-61 -151.5t-164 -53.5h-262zM322 114q46 0 71.5 23t25.5 68q0 44 -25.5 67t-71.5 23h-124v-181h124z" />
    <glyph glyph-name="uni042D" unicode="&#x42d;" horiz-adv-x="684" 
d="M484 669q75 -45 117 -125.5t42 -184.5v-18q0 -104 -42 -184.5t-117 -125.5t-170 -45q-186 0 -279 160l103 71q30 -52 71 -79.5t101 -27.5q77 0 128.5 49.5t63.5 131.5h-284v118h284q-12 82 -63.5 131.5t-128.5 49.5q-59 0 -100.5 -28t-71.5 -79l-102 71
q42 77 112.5 118.5t165.5 41.5t170 -45z" />
    <glyph glyph-name="uni042E" unicode="&#x42e;" horiz-adv-x="993" 
d="M795.5 668.5q74.5 -45.5 115 -126.5t40.5 -183v-18q0 -102 -40.5 -183t-115 -126.5t-170.5 -45.5q-91 0 -162.5 41t-114 113.5t-49.5 166.5h-101v-307h-133v700h133v-269h106q13 84 56.5 148t111.5 99.5t153 35.5q96 0 170.5 -45.5zM815 361q0 102 -50.5 165.5
t-139.5 63.5t-140 -63.5t-51 -165.5v-22q0 -102 51 -165.5t140 -63.5t139.5 63.5t50.5 165.5v22z" />
    <glyph glyph-name="uni042F" unicode="&#x42f;" horiz-adv-x="609" 
d="M78 231q7 54 28.5 84.5t62.5 38.5q-51 19 -83 59.5t-32 99.5q0 88 57 137.5t146 49.5h287v-700h-133v299h-131q-34 0 -50.5 -16t-20.5 -53l-30 -230h-132zM411 413v173h-134q-41 0 -65.5 -22.5t-24.5 -63.5q0 -42 24.5 -64.5t65.5 -22.5h134z" />
    <glyph glyph-name="uni0430" unicode="&#x430;" horiz-adv-x="542" 
d="M84.5 28.5q-43.5 40.5 -43.5 106.5v2q0 132 176 161l117 20v9q0 38 -23.5 61.5t-64.5 23.5q-78 0 -104 -77l-100 39q24 61 77.5 97.5t126.5 36.5q98 0 151.5 -48.5t53.5 -128.5v-196q0 -46 38 -46q19 0 33 7v-93q-30 -15 -71 -15q-42 0 -69.5 22.5t-34.5 58.5
q-22 -38 -57.5 -59.5t-94.5 -21.5q-67 0 -110.5 40.5zM306 120.5q28 35.5 28 96.5v16l-105 -21q-69 -16 -69 -69q0 -27 18 -42.5t49 -15.5q51 0 79 35.5z" />
    <glyph glyph-name="uni0431" unicode="&#x431;" horiz-adv-x="558" 
d="M102.5 59.5q-65.5 71.5 -65.5 214.5v55q0 322 256 336q66 3 106.5 12.5t69.5 30.5v-101q-26 -19 -63 -30t-102 -16q-74 -5 -111.5 -46.5t-37.5 -127.5v-10q22 40 63 60.5t94 20.5q60 0 107.5 -29t74.5 -80.5t27 -117.5v-9q0 -68 -30 -121.5t-85 -83t-127 -29.5
q-111 0 -176.5 71.5zM366.5 133q30.5 31 30.5 88v9q0 53 -31 86.5t-87 33.5t-87 -33t-31 -86v-10q0 -57 30.5 -88t87.5 -31t87.5 31z" />
    <glyph glyph-name="uni0432" unicode="&#x432;" horiz-adv-x="520" 
d="M59 0v496h236q75 0 117.5 -33.5t42.5 -89.5v-1q0 -38 -19.5 -63.5t-50.5 -38.5q89 -39 89 -125q0 -68 -49.5 -106.5t-123.5 -38.5h-242zM283 305q29 0 45.5 12t16.5 36v1q0 24 -16.5 37t-45.5 13h-102v-99h102zM281 97q34 0 54 16t20 43v2q0 28 -20 44t-54 16h-100v-121
h100z" />
    <glyph glyph-name="uni0433" unicode="&#x433;" horiz-adv-x="451" 
d="M180 0h-121v496h354v-103h-233v-393z" />
    <glyph glyph-name="uni0434" unicode="&#x434;" horiz-adv-x="599" 
d="M21 -122v231h70q12 42 19.5 84.5t12.5 111.5l15 191h373v-386h67v-232h-114v122h-329v-122h-114zM391 109v277h-147l-7 -90q-4 -70 -11 -110.5t-19 -76.5h184z" />
    <glyph glyph-name="uni0435" unicode="&#x435;" horiz-adv-x="551" 
d="M514 220h-356q5 -59 37.5 -94.5t85.5 -35.5q43 0 70 18.5t44 55.5l106 -43q-58 -133 -220 -133q-71 0 -126.5 33t-86.5 91t-31 131v10q0 73 31 131t87 91t126 33q65 0 118 -28.5t84 -85t31 -136.5v-38zM202.5 381q-30.5 -27 -40.5 -75h232q-6 45 -37 73.5t-76 28.5
q-48 0 -78.5 -27z" />
    <glyph glyph-name="uni0436" unicode="&#x436;" horiz-adv-x="745" 
d="M166 0h-138l160 248l-160 248h138l128 -209h18v209h121v-209h18l128 209h138l-160 -248l160 -248h-138l-128 209h-18v-209h-121v209h-18z" />
    <glyph glyph-name="uni0437" unicode="&#x437;" horiz-adv-x="438" 
d="M85 28.5q-49 41.5 -57 110.5l106 19q5 -36 26 -55.5t54 -19.5q34 0 54.5 18.5t20.5 50.5v2q0 30 -21 46.5t-56 16.5h-33v83h35q29 0 47.5 15t18.5 42q0 26 -17.5 40.5t-50.5 14.5q-28 0 -47.5 -16.5t-25.5 -44.5l-102 24q12 57 58 94.5t117 37.5q84 0 131 -38t47 -103
q0 -37 -17.5 -62.5t-43.5 -39.5q74 -35 74 -116v-3q0 -74 -52 -116t-138 -42q-79 0 -128 41.5z" />
    <glyph glyph-name="uni0438" unicode="&#x438;" horiz-adv-x="557" 
d="M180 0h-121v496h121v-324l197 324h120v-496h-120v324z" />
    <glyph glyph-name="uni0439" unicode="&#x439;" horiz-adv-x="557" 
d="M180 0h-121v496h121v-324l197 324h120v-496h-120v324zM183.5 604.5q-34.5 36.5 -34.5 93.5h80q0 -27 12.5 -42.5t36.5 -15.5t36.5 15.5t12.5 42.5h80q0 -57 -34.5 -93.5t-94.5 -36.5t-94.5 36.5z" />
    <glyph glyph-name="uni043A" unicode="&#x43a;" horiz-adv-x="498" 
d="M180 0h-121v496h121v-209h20l132 209h138l-160 -248l160 -248h-138l-132 209h-20v-209z" />
    <glyph glyph-name="uni043B" unicode="&#x43b;" horiz-adv-x="565" 
d="M7 1v113q24 -15 46 -15q48 0 53 60l25 337h375v-496h-120v387h-150l-16 -243q-6 -84 -39.5 -120t-105.5 -36q-39 0 -68 13z" />
    <glyph glyph-name="uni043C" unicode="&#x43c;" horiz-adv-x="629" 
d="M167 0h-118v496h125l141 -278l140 278h125v-496h-117v290l-95 -191h-106l-95 191v-290z" />
    <glyph glyph-name="uni043D" unicode="&#x43d;" horiz-adv-x="563" 
d="M180 0h-121v496h121v-176h204v176h120v-496h-120v211h-204v-211z" />
    <glyph glyph-name="uni043E" unicode="&#x43e;" horiz-adv-x="565" 
d="M156 21q-56 33 -87.5 91t-31.5 131v10q0 73 31.5 131t87.5 91t126 33q71 0 127 -33t87.5 -91t31.5 -131v-10q0 -73 -31.5 -131t-87.5 -91t-127 -33q-70 0 -126 33zM371 141q33 39 33 101v12q0 62 -33 101t-89 39q-55 0 -88 -39t-33 -101v-12q0 -62 33 -101t88 -39
q56 0 89 39z" />
    <glyph glyph-name="uni043F" unicode="&#x43f;" horiz-adv-x="563" 
d="M180 0h-121v496h445v-496h-120v387h-204v-387z" />
    <glyph glyph-name="uni0440" unicode="&#x440;" horiz-adv-x="573" 
d="M59 -203v699h121v-55q19 30 56.5 48.5t82.5 18.5q63 0 112 -31.5t77 -89.5t28 -134v-10q0 -76 -28 -134t-77.5 -89.5t-113.5 -31.5q-46 0 -81 17t-56 44v-252h-121zM379 140.5q33 38.5 33 101.5v12q0 63 -33 101.5t-86 38.5t-85.5 -38.5t-32.5 -101.5v-12
q0 -63 32.5 -101.5t85.5 -38.5t86 38.5z" />
    <glyph glyph-name="uni0441" unicode="&#x441;" horiz-adv-x="531" 
d="M155.5 21q-55.5 33 -87 91t-31.5 131v10q0 73 31.5 131t87 91t125.5 33q80 0 134.5 -36.5t80.5 -101.5l-103 -54q-15 36 -43.5 57t-68.5 21q-54 0 -87 -39t-33 -101v-12q0 -62 33 -101t87 -39q40 0 68 21t44 57l105 -54q-28 -65 -83 -101.5t-134 -36.5q-70 0 -125.5 33z
" />
    <glyph glyph-name="uni0442" unicode="&#x442;" horiz-adv-x="435" 
d="M278 0h-120v387h-142v109h404v-109h-142v-387z" />
    <glyph glyph-name="uni0443" unicode="&#x443;" horiz-adv-x="534" 
d="M389 496h130l-212 -559q-30 -79 -73.5 -114t-119.5 -35q-50 0 -82 15v120q40 -22 82 -22q34 0 55 18.5t36 59.5l8 23l-202 494h134l124 -338z" />
    <glyph glyph-name="uni0444" unicode="&#x444;" horiz-adv-x="605" 
d="M363 502q93 -18 149 -85.5t56 -162.5v-12q0 -95 -56 -162.5t-149 -85.5v-198h-120v197q-93 18 -149.5 85.5t-56.5 163.5v12q0 96 56.5 163.5t149.5 85.5v197h120v-198zM158 241q0 -50 21.5 -86t63.5 -51v288q-42 -15 -63.5 -51t-21.5 -86v-14zM447 255q0 50 -21.5 85.5
t-62.5 50.5v-286q41 15 62.5 50.5t21.5 85.5v14z" />
    <glyph glyph-name="uni0445" unicode="&#x445;" horiz-adv-x="514" 
d="M164 0h-147l169 264l-158 232h146l84 -136l81 136h145l-158 -238l172 -258h-146l-95 157z" />
    <glyph glyph-name="uni0446" unicode="&#x446;" horiz-adv-x="592" 
d="M571 -122h-114v122h-398v496h121v-387h204v387h120v-387h67v-231z" />
    <glyph glyph-name="uni0447" unicode="&#x447;" horiz-adv-x="549" 
d="M370 215q-52 -44 -127 -44q-85 0 -136 51t-51 138v136h120v-110q0 -49 24.5 -77t70.5 -28q33 0 55.5 9.5t43.5 28.5v177h120v-496h-120v215z" />
    <glyph glyph-name="uni0448" unicode="&#x448;" horiz-adv-x="797" 
d="M737 0h-678v496h121v-387h158v387h121v-387h158v387h120v-496z" />
    <glyph glyph-name="uni0449" unicode="&#x449;" horiz-adv-x="826" 
d="M804 -122h-114v122h-631v496h121v-387h158v387h121v-387h158v387h120v-387h67v-231z" />
    <glyph glyph-name="uni044A" unicode="&#x44a;" horiz-adv-x="616" 
d="M153 0v393h-133v103h253v-181h128q75 0 123.5 -41.5t48.5 -114.5v-1q0 -74 -48.5 -116t-123.5 -42h-248zM388 97q35 0 54.5 16t19.5 44v2q0 28 -19.5 44t-54.5 16h-115v-122h115z" />
    <glyph glyph-name="uni044B" unicode="&#x44b;" horiz-adv-x="728" 
d="M59 0v496h121v-181h127q76 0 124.5 -41.5t48.5 -114.5v-1q0 -74 -49 -116t-124 -42h-248zM287 97q35 0 54.5 16t19.5 44v2q0 28 -19.5 44t-54.5 16h-107v-122h107zM669 0h-121v496h121v-496z" />
    <glyph glyph-name="uni044C" unicode="&#x44c;" horiz-adv-x="523" 
d="M59 0v496h121v-181h127q76 0 124.5 -41.5t48.5 -114.5v-1q0 -74 -49 -116t-124 -42h-248zM287 97q35 0 54.5 16t19.5 44v2q0 28 -19.5 44t-54.5 16h-107v-122h107z" />
    <glyph glyph-name="uni044D" unicode="&#x44d;" horiz-adv-x="531" 
d="M376 475q55 -33 86.5 -91t31.5 -131v-10q0 -73 -31.5 -131t-86.5 -91t-125 -33q-78 0 -133 36.5t-85 101.5l102 54q13 -36 42 -57t74 -21q46 0 76 27t39 74h-168v91h168q-9 46 -39 73t-76 27q-45 0 -74.5 -20.5t-41.5 -57.5l-100 54q29 66 83.5 102t132.5 36
q70 0 125 -33z" />
    <glyph glyph-name="uni044E" unicode="&#x44e;" horiz-adv-x="779" 
d="M624.5 475q55.5 -33 86.5 -91t31 -131v-10q0 -73 -31 -131t-86.5 -91t-126.5 -33q-65 0 -118 28.5t-85.5 79t-38.5 115.5h-76v-211h-121v496h121v-176h81q20 85 83.5 136.5t153.5 51.5q71 0 126.5 -33zM618 254q0 62 -32.5 101t-87.5 39t-87.5 -38.5t-32.5 -101.5v-12
q0 -63 32.5 -101.5t87.5 -38.5t87.5 39t32.5 101v12z" />
    <glyph glyph-name="uni044F" unicode="&#x44f;" horiz-adv-x="506" 
d="M66 159q10 77 75 89q-39 14 -64.5 44t-25.5 72q0 63 44.5 97.5t113.5 34.5h237v-496h-120v205h-88q-26 0 -38.5 -10.5t-15.5 -33.5l-18 -161h-121zM326 296v104h-90q-28 0 -46 -13t-18 -38t17.5 -39t46.5 -14h90z" />
    <glyph glyph-name="uni0450" unicode="&#x450;" horiz-adv-x="551" 
d="M514 220h-356q5 -59 37.5 -94.5t85.5 -35.5q43 0 70 18.5t44 55.5l106 -43q-58 -133 -220 -133q-71 0 -126.5 33t-86.5 91t-31 131v10q0 73 31 131t87 91t126 33q65 0 118 -28.5t84 -85t31 -136.5v-38zM202.5 381q-30.5 -27 -40.5 -75h232q-6 45 -37 73.5t-76 28.5
q-48 0 -78.5 -27zM329 570h-96l-126 160h138z" />
    <glyph glyph-name="uni0451" unicode="&#x451;" horiz-adv-x="551" 
d="M514 220h-356q5 -59 37.5 -94.5t85.5 -35.5q43 0 70 18.5t44 55.5l106 -43q-58 -133 -220 -133q-71 0 -126.5 33t-86.5 91t-31 131v10q0 73 31 131t87 91t126 33q65 0 118 -28.5t84 -85t31 -136.5v-38zM202.5 381q-30.5 -27 -40.5 -75h232q-6 45 -37 73.5t-76 28.5
q-48 0 -78.5 -27zM114.5 593.5q-21.5 21.5 -21.5 50.5q0 30 21.5 51.5t51.5 21.5t51.5 -21.5t21.5 -51.5q0 -29 -21.5 -50.5t-51.5 -21.5t-51.5 21.5zM345.5 593.5q-21.5 21.5 -21.5 50.5q0 30 21.5 51.5t50.5 21.5q30 0 51.5 -21.5t21.5 -51.5q0 -29 -21.5 -50.5
t-51.5 -21.5q-29 0 -50.5 21.5z" />
    <glyph glyph-name="uni0452" unicode="&#x452;" horiz-adv-x="542" 
d="M281 -202v112q29 -12 48 -12q22 0 34.5 16t12.5 46v330q0 48 -27.5 78t-70.5 30t-70.5 -30t-27.5 -78v-290h-121v570h-62v80h62v50h121v-50h152v-80h-152v-127q15 26 53 45.5t82 19.5q84 0 133 -51.5t49 -139.5v-351q0 -178 -144 -178q-42 0 -72 10z" />
    <glyph glyph-name="uni0453" unicode="&#x453;" horiz-adv-x="451" 
d="M180 0h-121v496h354v-103h-233v-393zM285 570h-97l84 160h138z" />
    <glyph glyph-name="uni0454" unicode="&#x454;" horiz-adv-x="531" 
d="M498 126q-28 -65 -83 -101.5t-134 -36.5q-70 0 -125.5 33t-87 91t-31.5 131v10q0 73 31.5 131t87 91t125.5 33q80 0 134.5 -36.5t80.5 -101.5l-100 -54q-12 37 -41 57.5t-74 20.5q-46 0 -76.5 -27t-39.5 -73h169v-91h-169q9 -47 39.5 -74t76.5 -27q45 0 74 21t42 57z" />
    <glyph glyph-name="uni0455" unicode="&#x455;" horiz-adv-x="485" 
d="M117.5 20q-54.5 34 -76.5 89l98 57q13 -34 43 -54.5t67 -20.5q36 0 56 14t20 38q0 25 -25 39t-84 28q-76 17 -113 54t-37 98q0 65 50.5 104.5t129.5 39.5q135 0 185 -107l-89 -51q-14 30 -40.5 46.5t-57.5 16.5q-32 0 -51.5 -13t-19.5 -34q0 -22 22 -37t78 -26
q82 -17 125 -52.5t43 -101.5q0 -47 -24 -83.5t-68 -57t-101 -20.5q-76 0 -130.5 34z" />
    <glyph glyph-name="uni0456" unicode="&#x456;" 
d="M63.5 588.5q-23.5 23.5 -23.5 56.5t23.5 56.5t56.5 23.5t56 -23.5t23 -56.5t-23 -56.5t-56 -23.5t-56.5 23.5zM180 0h-121v496h121v-496z" />
    <glyph glyph-name="uni0457" unicode="&#x457;" 
d="M-19.5 593.5q-21.5 21.5 -21.5 50.5q0 30 21.5 51.5t51.5 21.5t51.5 -21.5t21.5 -51.5q0 -29 -21.5 -50.5t-51.5 -21.5t-51.5 21.5zM156.5 593.5q-21.5 21.5 -21.5 50.5q0 30 21.5 51.5t50.5 21.5q31 0 52.5 -21.5t21.5 -51.5q0 -29 -21.5 -50.5t-52.5 -21.5
q-29 0 -50.5 21.5zM180 0h-121v496h121v-496z" />
    <glyph glyph-name="uni0458" unicode="&#x458;" 
d="M63.5 588.5q-23.5 23.5 -23.5 56.5t23.5 56.5t56.5 23.5t56 -23.5t23 -56.5t-23 -56.5t-56 -23.5t-56.5 23.5zM-36 -202v112q29 -12 49 -12q21 0 33.5 16t12.5 46v536h121v-530q0 -178 -143 -178q-43 0 -73 10z" />
    <glyph glyph-name="uni0459" unicode="&#x459;" horiz-adv-x="849" 
d="M7 1v113q24 -15 46 -15q48 0 53 60l25 337h375v-181h127q76 0 124.5 -41t48.5 -115v-1q0 -74 -48.5 -116t-124.5 -42h-247v387h-150l-16 -243q-6 -84 -39.5 -120t-105.5 -36q-39 0 -68 13zM613 97q35 0 54.5 16t19.5 44v2q0 28 -19.5 44t-54.5 16h-107v-122h107z" />
    <glyph glyph-name="uni045A" unicode="&#x45a;" horiz-adv-x="847" 
d="M59 0v496h121v-176h204v176h120v-180h127q76 0 124.5 -41.5t48.5 -115.5v-1q0 -74 -48.5 -116t-124.5 -42h-247v211h-204v-211h-121zM611 97q35 0 54.5 16t19.5 44v2q0 28 -19.5 44t-54.5 16h-107v-122h107z" />
    <glyph glyph-name="uni045B" unicode="&#x45b;" horiz-adv-x="542" 
d="M448 456.5q49 -51.5 49 -139.5v-317h-121v290q0 48 -27.5 78t-70.5 30t-70.5 -30t-27.5 -78v-290h-121v570h-62v80h62v50h121v-50h152v-80h-152v-127q15 26 53 45.5t82 19.5q84 0 133 -51.5z" />
    <glyph glyph-name="uni045C" unicode="&#x45c;" horiz-adv-x="498" 
d="M180 0h-121v496h121v-209h20l132 209h138l-160 -248l160 -248h-138l-132 209h-20v-209zM309 570h-97l84 160h138z" />
    <glyph glyph-name="uni045D" unicode="&#x45d;" horiz-adv-x="557" 
d="M180 0h-121v496h121v-324l197 324h120v-496h-120v324zM326 570h-96l-126 160h138z" />
    <glyph glyph-name="uni045E" unicode="&#x45e;" horiz-adv-x="534" 
d="M389 496h130l-212 -559q-30 -79 -73.5 -114t-119.5 -35q-50 0 -82 15v120q40 -22 82 -22q34 0 55 18.5t36 59.5l8 23l-202 494h134l124 -338zM174.5 604.5q-34.5 36.5 -34.5 93.5h80q0 -27 12.5 -42.5t36.5 -15.5t36.5 15.5t12.5 42.5h80q0 -57 -34.5 -93.5t-94.5 -36.5
t-94.5 36.5z" />
    <glyph glyph-name="uni045F" unicode="&#x45f;" horiz-adv-x="563" 
d="M339 -122h-114v122h-166v496h121v-387h204v387h120v-496h-165v-122z" />
    <glyph glyph-name="uni0462" unicode="&#x462;" horiz-adv-x="676" 
d="M409 410q103 0 163.5 -53.5t60.5 -151.5t-60.5 -151.5t-163.5 -53.5h-263v508h-132v104h132v88h134v-88h214v-104h-214v-98h129zM404 114q46 0 71.5 23t25.5 68q0 44 -25.5 67t-71.5 23h-124v-181h124z" />
    <glyph glyph-name="uni0463" unicode="&#x463;" horiz-adv-x="611" 
d="M396 315q75 0 123.5 -41.5t48.5 -114.5v-1q0 -74 -48.5 -116t-123.5 -42h-248v394h-122v102h122v204h120v-204h195v-102h-195v-79h128zM449 159q0 28 -19 44t-55 16h-107v-122h107q36 0 55 16t19 44v2z" />
    <glyph glyph-name="uni0472" unicode="&#x472;" horiz-adv-x="751" 
d="M549.5 668.5q75.5 -45.5 117.5 -126.5t42 -183v-18q0 -102 -42 -183t-117.5 -126.5t-173.5 -45.5t-174 45.5t-118 126.5t-42 183v18q0 102 42 183t118 126.5t174 45.5t173.5 -45.5zM249 544.5q-50 -45.5 -65 -123.5q37 14 84 14q35 0 62 -7t59 -19q31 -12 50.5 -17
t43.5 -5q49 0 88 14q-11 85 -62.5 137t-132.5 52q-77 0 -127 -45.5zM505 158q51 48 64 128q-39 -14 -86 -14q-35 0 -61.5 7t-59.5 20q-31 12 -50.5 17t-43.5 5q-46 0 -88 -14q8 -89 60 -143t136 -54q78 0 129 48z" />
    <glyph glyph-name="uni0473" unicode="&#x473;" horiz-adv-x="565" 
d="M409 475q56 -33 87.5 -91t31.5 -131v-10q0 -73 -31.5 -131t-87.5 -91t-127 -33q-70 0 -126 33t-87.5 91t-31.5 131v10q0 73 31.5 131t87.5 91t126 33q71 0 127 -33zM209 370q-30 -24 -41 -65q14 2 23 2q34 0 56 -5t48 -14q20 -8 35 -11.5t35 -3.5q22 0 38 5
q-7 53 -39 84.5t-82 31.5q-43 0 -73 -24zM356.5 126.5q30.5 24.5 41.5 67.5q-17 -5 -34 -5q-34 0 -56 5t-48 14q-20 8 -35 11.5t-35 3.5q-13 0 -28 -3q6 -53 38 -85.5t82 -32.5q44 0 74.5 24.5z" />
    <glyph glyph-name="uni0474" unicode="&#x474;" horiz-adv-x="775" 
d="M269 0l-253 700h150l175 -525l134 403q23 70 61.5 103t102.5 33q43 0 71.5 -10t53.5 -32l-60 -119q-26 22 -49 22q-21 0 -32.5 -11.5t-20.5 -36.5l-190 -527h-143z" />
    <glyph glyph-name="uni0475" unicode="&#x475;" horiz-adv-x="580" 
d="M191 0l-182 496h131l116 -343l83 246q20 59 52.5 84t84.5 25q59 0 95 -30l-43 -103q-19 19 -41 19q-27 0 -39 -34l-127 -360h-130z" />
    <glyph glyph-name="uni0490" unicode="&#x490;" horiz-adv-x="560" 
d="M198 0h-133v700h327v138h133v-260h-327v-578z" />
    <glyph glyph-name="uni0491" unicode="&#x491;" horiz-adv-x="451" 
d="M180 0h-121v496h234v129h120v-232h-233v-393z" />
    <glyph glyph-name="Wgrave" unicode="&#x1e80;" horiz-adv-x="933" 
d="M340 0h-153l-166 700h137l110 -520l131 500h135l131 -500l109 520h138l-167 -700h-153l-125 495zM515 774h-96l-126 160h138z" />
    <glyph glyph-name="wgrave" unicode="&#x1e81;" horiz-adv-x="748" 
d="M284 0h-130l-139 496h126l81 -336l88 336h128l88 -336l81 336h126l-139 -496h-129l-91 354zM422 570h-96l-126 160h138z" />
    <glyph glyph-name="Wacute" unicode="&#x1e82;" horiz-adv-x="933" 
d="M340 0h-153l-166 700h137l110 -520l131 500h135l131 -500l109 520h138l-167 -700h-153l-125 495zM515 774h-97l84 160h138z" />
    <glyph glyph-name="wacute" unicode="&#x1e83;" horiz-adv-x="748" 
d="M284 0h-130l-139 496h126l81 -336l88 336h128l88 -336l81 336h126l-139 -496h-129l-91 354zM423 570h-97l84 160h138z" />
    <glyph glyph-name="Wdieresis" unicode="&#x1e84;" horiz-adv-x="933" 
d="M340 0h-153l-166 700h137l110 -520l131 500h135l131 -500l109 520h138l-167 -700h-153l-125 495zM299.5 797.5q-21.5 21.5 -21.5 50.5q0 30 21.5 51.5t51.5 21.5t51.5 -21.5t21.5 -51.5q0 -29 -21.5 -50.5t-51.5 -21.5t-51.5 21.5zM530.5 797.5q-21.5 21.5 -21.5 50.5
q0 30 21.5 51.5t50.5 21.5q30 0 51.5 -21.5t21.5 -51.5q0 -29 -21.5 -50.5t-51.5 -21.5q-29 0 -50.5 21.5z" />
    <glyph glyph-name="wdieresis" unicode="&#x1e85;" horiz-adv-x="748" 
d="M284 0h-130l-139 496h126l81 -336l88 336h128l88 -336l81 336h126l-139 -496h-129l-91 354zM207.5 593.5q-21.5 21.5 -21.5 50.5q0 30 21.5 51.5t51.5 21.5t51.5 -21.5t21.5 -51.5q0 -29 -21.5 -50.5t-51.5 -21.5t-51.5 21.5zM438.5 593.5q-21.5 21.5 -21.5 50.5
q0 30 21.5 51.5t50.5 21.5q30 0 51.5 -21.5t21.5 -51.5q0 -29 -21.5 -50.5t-51.5 -21.5q-29 0 -50.5 21.5z" />
    <glyph glyph-name="uni1E9E" unicode="&#x1e9e;" horiz-adv-x="627" 
d="M264 0v125q35 -24 87 -24q49 0 76.5 29t27.5 81v7q0 59 -39 91.5t-107 32.5v97l111 147h-133q-42 0 -65.5 -23t-23.5 -67v-496h-133v496q0 99 53.5 151.5t153.5 52.5h287v-113l-129 -158q68 -16 110 -69t42 -141v-5q0 -107 -58 -166.5t-167 -59.5q-55 0 -93 12z" />
    <glyph glyph-name="Ygrave" unicode="&#x1ef2;" horiz-adv-x="622" 
d="M377 0h-133v283l-232 417h154l144 -280l145 280h155l-233 -417v-283zM358 774h-96l-126 160h138z" />
    <glyph glyph-name="ygrave" unicode="&#x1ef3;" horiz-adv-x="534" 
d="M389 496h130l-212 -559q-30 -79 -73.5 -114t-119.5 -35q-50 0 -82 15v120q40 -22 82 -22q34 0 55 18.5t36 59.5l8 23l-202 494h134l124 -338zM317 570h-96l-126 160h138z" />
    <glyph glyph-name="endash" unicode="&#x2013;" horiz-adv-x="497" 
d="M466 263h-435v102h435v-102z" />
    <glyph glyph-name="emdash" unicode="&#x2014;" horiz-adv-x="705" 
d="M674 263h-643v102h643v-102z" />
    <glyph glyph-name="quoteleft" unicode="&#x2018;" horiz-adv-x="267" 
d="M75.5 415q-22.5 25 -22.5 64q0 37 16.5 72.5t46.5 74.5l61 82l32 -21l-45 -84q-14 -26 -20 -49q30 -4 51.5 -27.5t21.5 -53.5q0 -35 -24 -59t-58 -24q-37 0 -59.5 25z" />
    <glyph glyph-name="quoteright" unicode="&#x2019;" horiz-adv-x="267" 
d="M90 390l-32 21l45 84q13 23 19 50q-30 3 -51 26.5t-21 54.5q0 34 24 58t58 24t58 -24.5t24 -59.5q0 -40 -14 -72.5t-44 -72.5z" />
    <glyph glyph-name="quotesinglbase" unicode="&#x201a;" horiz-adv-x="267" 
d="M90 -185l-32 21l45 84q13 23 19 50q-30 3 -51 26.5t-21 54.5q0 34 24 58t58 24t58 -24.5t24 -59.5q0 -40 -14 -72.5t-44 -72.5z" />
    <glyph glyph-name="quotedblleft" unicode="&#x201c;" horiz-adv-x="473" 
d="M281.5 415q-22.5 25 -22.5 64q0 37 16.5 72.5t46.5 74.5l61 82l32 -21l-45 -84q-14 -26 -20 -49q30 -4 51.5 -27.5t21.5 -53.5q0 -35 -24 -59t-58 -24q-37 0 -59.5 25zM75.5 415q-22.5 25 -22.5 64q0 37 16.5 72.5t46.5 74.5l61 82l32 -21l-45 -84q-14 -26 -20 -49
q30 -4 51.5 -27.5t21.5 -53.5q0 -35 -24 -59t-58 -24q-37 0 -59.5 25z" />
    <glyph glyph-name="quotedblright" unicode="&#x201d;" horiz-adv-x="473" 
d="M296 390l-32 21l45 84q13 23 19 50q-30 3 -51 26.5t-21 54.5q0 34 24 58t58 24t58 -24.5t24 -59.5q0 -40 -14 -72.5t-44 -72.5zM90 390l-32 21l45 84q13 23 19 50q-30 3 -51 26.5t-21 54.5q0 34 24 58t58 24t58 -24.5t24 -59.5q0 -40 -14 -72.5t-44 -72.5z" />
    <glyph glyph-name="quotedblbase" unicode="&#x201e;" horiz-adv-x="473" 
d="M90 -185l-32 21l45 84q13 23 19 50q-30 3 -51 26.5t-21 54.5q0 34 24 58t58 24t58 -24.5t24 -59.5q0 -40 -14 -72.5t-44 -72.5zM296 -185l-32 21l45 84q13 23 19 50q-30 3 -51 26.5t-21 54.5q0 34 24 58t58 24t58 -24.5t24 -59.5q0 -40 -14 -72.5t-44 -72.5z" />
    <glyph glyph-name="dagger" unicode="&#x2020;" horiz-adv-x="355" 
d="M228 610h96v-83h-96v-263h-100v263h-97v83h97v89l100 51v-140z" />
    <glyph glyph-name="daggerdbl" unicode="&#x2021;" horiz-adv-x="355" 
d="M324 610v-83h-96v-62h96v-83h-96v-118h-100v118h-97v83h97v62h-97v83h97v89l100 51v-140h96z" />
    <glyph glyph-name="bullet" unicode="&#x2022;" horiz-adv-x="420" 
d="M145 240.5q-30 17.5 -47.5 47.5t-17.5 65t17.5 65t47.5 47.5t65 17.5t65 -17.5t47.5 -47.5t17.5 -65t-17.5 -65t-47.5 -47.5t-65 -17.5t-65 17.5z" />
    <glyph glyph-name="ellipsis" unicode="&#x2026;" horiz-adv-x="744" 
d="M314.5 15q-24.5 24 -24.5 58t24.5 58.5t57.5 24.5q34 0 58.5 -24.5t24.5 -58.5t-24.5 -58t-58.5 -24q-33 0 -57.5 24zM566.5 15q-24.5 24 -24.5 58t24.5 58.5t57.5 24.5q34 0 58.5 -24.5t24.5 -58.5t-24.5 -58t-58.5 -24q-33 0 -57.5 24zM61.5 15q-24.5 24 -24.5 58
t24.5 58.5t57.5 24.5q34 0 58.5 -24.5t24.5 -58.5t-24.5 -58t-58.5 -24q-33 0 -57.5 24z" />
    <glyph glyph-name="perthousand" unicode="&#x2030;" horiz-adv-x="1207" 
d="M118 384q-38 22 -59 60.5t-21 86.5v12q0 48 21 86.5t59 60.5t85 22t84.5 -22t58.5 -60.5t21 -86.5v-12q0 -48 -21 -86.5t-58.5 -60.5t-84.5 -22t-85 22zM268 0h-115l413 700h115zM252.5 470.5q18.5 23.5 18.5 58.5v16q0 35 -18.5 58.5t-49.5 23.5t-49.5 -23.5
t-18.5 -58.5v-16q0 -35 18.5 -58.5t49.5 -23.5t49.5 23.5zM547 10q-38 22 -59.5 60.5t-21.5 86.5v12q0 48 21.5 86.5t59.5 60.5t85 22t84.5 -22t58.5 -60.5t21 -86.5v-12q0 -48 -21 -86.5t-58.5 -60.5t-84.5 -22t-85 22zM921.5 10q-37.5 22 -59 60.5t-21.5 86.5v12
q0 48 21.5 86.5t59 60.5t84.5 22t84.5 -22t59 -60.5t21.5 -86.5v-12q0 -48 -21.5 -86.5t-59 -60.5t-84.5 -22t-84.5 22zM681.5 96q18.5 23 18.5 59v16q0 35 -18.5 58.5t-49.5 23.5q-32 0 -51 -23.5t-19 -58.5v-16q0 -36 19 -59t51 -23q31 0 49.5 23zM1055.5 96
q18.5 23 18.5 59v16q0 35 -18.5 58.5t-49.5 23.5q-32 0 -50.5 -23.5t-18.5 -58.5v-16q0 -36 18.5 -59t50.5 -23q31 0 49.5 23z" />
    <glyph glyph-name="guilsinglleft" unicode="&#x2039;" horiz-adv-x="286" 
d="M256 106h-116l-105 190l105 190h116l-104 -190z" />
    <glyph glyph-name="guilsinglright" unicode="&#x203a;" horiz-adv-x="286" 
d="M146 106h-115l102 190l-102 190h115l105 -190z" />
    <glyph glyph-name="fraction" unicode="&#x2044;" horiz-adv-x="372" 
d="M37 0h-115l413 700h115z" />
    <glyph glyph-name="uni2070" unicode="&#x2070;" horiz-adv-x="335" 
d="M59 392.5q-41 49.5 -41 128.5v8q0 79 41 128.5t108 49.5t108.5 -49.5t41.5 -128.5v-8q0 -79 -41.5 -128.5t-108.5 -49.5t-108 49.5zM209.5 450.5q14.5 25.5 14.5 70.5v8q0 45 -14.5 70.5t-42.5 25.5q-27 0 -42 -25.5t-15 -70.5v-8q0 -45 15 -70.5t42 -25.5
q28 0 42.5 25.5z" />
    <glyph glyph-name="uni2074" unicode="&#x2074;" horiz-adv-x="302" 
d="M244 350h-83v66h-150v71l150 213h83v-213h48v-71h-48v-66zM161 589l-69 -102h69v102z" />
    <glyph glyph-name="uni2075" unicode="&#x2075;" horiz-adv-x="289" 
d="M61 372q-35 28 -43 73l81 17q3 -18 15.5 -29t30.5 -11q19 0 30.5 12t11.5 33v3q0 21 -11.5 33t-30.5 12q-14 0 -25 -6.5t-16 -16.5l-75 21l18 187h209v-71h-141l-9 -65q8 8 23 13t32 5q51 0 81.5 -30t30.5 -84v-2q0 -55 -34.5 -88.5t-90.5 -33.5q-52 0 -87 28z" />
    <glyph glyph-name="uni2076" unicode="&#x2076;" horiz-adv-x="276" 
d="M52 376.5q-35 32.5 -35 89.5q0 32 11 58.5t32 59.5l77 116h80l-84 -128q4 2 9 2q51 0 84 -31.5t33 -83.5q0 -50 -35 -82.5t-87 -32.5q-50 0 -85 32.5zM169.5 425.5q12.5 13.5 12.5 34.5q0 20 -12.5 33t-32.5 13q-19 0 -31 -13t-12 -33q0 -21 12.5 -34.5t30.5 -13.5
q20 0 32.5 13.5z" />
    <glyph glyph-name="uni2077" unicode="&#x2077;" horiz-adv-x="250" 
d="M126 350h-80l114 279h-147v71h224v-71z" />
    <glyph glyph-name="uni2078" unicode="&#x2078;" horiz-adv-x="282" 
d="M53 372q-34 28 -34 77v1q0 28 14 51t34 34q-16 12 -26 30t-10 39v1q0 41 30 70t80 29t80.5 -29t30.5 -70v-1q0 -21 -10 -39t-27 -30q20 -10 34 -33t14 -52v-1q0 -49 -33.5 -77t-88.5 -28q-54 0 -88 28zM168.5 572q10.5 11 10.5 28v1q0 17 -10.5 27.5t-27.5 10.5
q-16 0 -27 -10.5t-11 -27.5v-1q0 -17 10.5 -28t27.5 -11t27.5 11zM173 427q12 12 12 31t-12 30.5t-32 11.5q-19 0 -31 -11.5t-12 -30.5t12.5 -31t30.5 -12q20 0 32 12z" />
    <glyph glyph-name="uni2079" unicode="&#x2079;" horiz-adv-x="276" 
d="M144 479q-3 -3 -11 -3q-50 0 -83 31.5t-33 83.5v1q0 50 34.5 82t86.5 32q51 0 86 -32t35 -89v-1q0 -31 -11 -58t-32 -60l-77 -116h-79zM170 557q12 13 12 34v1q0 20 -12.5 33.5t-31.5 13.5t-31.5 -13.5t-12.5 -33.5v-1q0 -21 12.5 -34t31.5 -13q20 0 32 13z" />
    <glyph glyph-name="uni2080" unicode="&#x2080;" horiz-adv-x="335" 
d="M59 -67.5q-41 49.5 -41 128.5v8q0 79 41 128.5t108 49.5t108.5 -49.5t41.5 -128.5v-8q0 -79 -41.5 -128.5t-108.5 -49.5t-108 49.5zM209.5 -9.5q14.5 25.5 14.5 70.5v8q0 45 -14.5 70.5t-42.5 25.5q-27 0 -42 -25.5t-15 -70.5v-8q0 -45 15 -70.5t42 -25.5q28 0 42.5 25.5
z" />
    <glyph glyph-name="uni2081" unicode="&#x2081;" horiz-adv-x="210" 
d="M184 -110h-89v263l-84 -53v89l84 51h89v-350z" />
    <glyph glyph-name="uni2082" unicode="&#x2082;" horiz-adv-x="279" 
d="M30 -110v75l104 97q22 21 31 36t9 33t-10.5 29t-27.5 11q-38 0 -46 -45l-75 18q7 46 38.5 74t82.5 28q59 0 90.5 -29.5t31.5 -79.5q0 -36 -15 -62t-46 -55l-57 -55h122v-75h-232z" />
    <glyph glyph-name="uni2083" unicode="&#x2083;" horiz-adv-x="287" 
d="M51.5 -87q-33.5 29 -38.5 77l76 15q4 -21 16.5 -33.5t32.5 -12.5q21 0 33.5 13.5t12.5 34.5q0 27 -18.5 39.5t-56.5 12.5v54l52 57h-132v70h223v-70l-60 -63q35 -9 56 -35t21 -65q0 -56 -35.5 -89.5t-95.5 -33.5q-53 0 -86.5 29z" />
    <glyph glyph-name="uni2084" unicode="&#x2084;" horiz-adv-x="302" 
d="M244 -110h-83v66h-150v71l150 213h83v-213h48v-71h-48v-66zM161 129l-69 -102h69v102z" />
    <glyph glyph-name="uni2085" unicode="&#x2085;" horiz-adv-x="289" 
d="M61 -88q-35 28 -43 73l81 17q3 -18 15.5 -29t30.5 -11q19 0 30.5 12t11.5 33v3q0 21 -11.5 33t-30.5 12q-14 0 -25 -6.5t-16 -16.5l-75 21l18 187h209v-71h-141l-9 -65q8 8 23 13t32 5q51 0 81.5 -30t30.5 -84v-2q0 -55 -34.5 -88.5t-90.5 -33.5q-52 0 -87 28z" />
    <glyph glyph-name="uni2086" unicode="&#x2086;" horiz-adv-x="276" 
d="M52 -83.5q-35 32.5 -35 89.5q0 32 11 58.5t32 59.5l77 116h80l-84 -128q4 2 9 2q51 0 84 -31.5t33 -83.5q0 -50 -35 -82.5t-87 -32.5q-50 0 -85 32.5zM169.5 -34.5q12.5 13.5 12.5 34.5q0 20 -12.5 33t-32.5 13q-19 0 -31 -13t-12 -33q0 -21 12.5 -34.5t30.5 -13.5
q20 0 32.5 13.5z" />
    <glyph glyph-name="uni2087" unicode="&#x2087;" horiz-adv-x="250" 
d="M126 -110h-80l114 279h-147v71h224v-71z" />
    <glyph glyph-name="uni2088" unicode="&#x2088;" horiz-adv-x="282" 
d="M53 -88q-34 28 -34 77v1q0 28 14 51t34 34q-16 12 -26 30t-10 39v1q0 41 30 70t80 29t80.5 -29t30.5 -70v-1q0 -21 -10 -39t-27 -30q20 -10 34 -33t14 -52v-1q0 -49 -33.5 -77t-88.5 -28q-54 0 -88 28zM168.5 112q10.5 11 10.5 28v1q0 17 -10.5 27.5t-27.5 10.5
q-16 0 -27 -10.5t-11 -27.5v-1q0 -17 10.5 -28t27.5 -11t27.5 11zM173 -33q12 12 12 31t-12 30.5t-32 11.5q-19 0 -31 -11.5t-12 -30.5t12.5 -31t30.5 -12q20 0 32 12z" />
    <glyph glyph-name="uni2089" unicode="&#x2089;" horiz-adv-x="276" 
d="M144 19q-3 -3 -11 -3q-50 0 -83 31.5t-33 83.5v1q0 50 34.5 82t86.5 32q51 0 86 -32t35 -89v-1q0 -31 -11 -58t-32 -60l-77 -116h-79zM170 97q12 13 12 34v1q0 20 -12.5 33.5t-31.5 13.5t-31.5 -13.5t-12.5 -33.5v-1q0 -21 12.5 -34t31.5 -13q20 0 32 13z" />
    <glyph glyph-name="Euro" unicode="&#x20ac;" horiz-adv-x="706" 
d="M671 129q-90 -143 -263 -143q-118 0 -202.5 67t-112.5 181h-77l19 83h46q-1 8 -1 24v18q0 16 1 24h-65l19 83h58q28 114 112.5 181t202.5 67q92 0 156 -35t106 -103l-102 -70q-58 87 -157 87q-66 0 -112.5 -33.5t-68.5 -93.5h241l-19 -83h-238q-1 -7 -1 -22v-22
q0 -15 1 -22h218l-19 -83h-183q22 -60 68.5 -93.5t112.5 -33.5q54 0 91.5 24t66.5 68z" />
    <glyph glyph-name="uni20B4" unicode="&#x20b4;" horiz-adv-x="604" 
d="M573 466v-83h-547v83h362q24 21 24 53v1q0 33 -31 55.5t-77 22.5q-44 0 -80.5 -23t-57.5 -65l-105 59q35 71 94 107t149 36q104 0 170 -46.5t66 -130.5v-1q0 -42 -14 -68h47zM26 234v83h547v-83h-378q-6 -16 -6 -35v-1q0 -41 30.5 -68t80.5 -27q52 0 84.5 24t54.5 77
l120 -48q-26 -77 -92.5 -123.5t-166.5 -46.5q-112 0 -177.5 56t-65.5 154v2q0 14 4 36h-35z" />
    <glyph glyph-name="uni20BA" unicode="&#x20ba;" horiz-adv-x="627" 
d="M590 314q0 -142 -73 -228t-240 -86h-178v124l-72 -50v109l72 50v80l-72 -50v109l72 50v278h134v-185l140 98v-108l-140 -98v-81l140 98v-108l-140 -98v-96h45q179 0 179 192h133z" />
    <glyph glyph-name="uni20BD" unicode="&#x20bd;" horiz-adv-x="629" 
d="M237 299v-73h223v-92h-223v-134h-133v134h-78v92h78v474h266q99 0 157.5 -52.5t58.5 -147.5t-58.5 -148t-157.5 -53h-133zM237 586v-172h125q43 0 67.5 22t24.5 64t-24.5 64t-67.5 22h-125z" />
    <glyph glyph-name="uni2113" unicode="&#x2113;" horiz-adv-x="545" 
d="M343 112.5q24 17.5 39 44.5l82 -66q-34 -51 -78.5 -78t-110.5 -27q-59 0 -102.5 36.5t-60.5 104.5l-64 -23l-28 100q47 15 82 30q3 130 38 240t96.5 175t140.5 65q63 0 97.5 -37.5t34.5 -105.5q0 -110 -68.5 -211.5t-217.5 -181.5q5 -39 22.5 -61t43.5 -22q30 0 54 17.5z
M305 570.5q-29 -44.5 -51 -117.5t-30 -154q88 60 129.5 132t41.5 138q0 46 -32 46q-29 0 -58 -44.5z" />
    <glyph glyph-name="uni2116" unicode="&#x2116;" horiz-adv-x="1181" 
d="M810.5 281q-49.5 28 -77 79t-27.5 117v11q0 66 27.5 117t77 79.5t113.5 28.5q65 0 115 -28t77 -79.5t27 -117.5v-11q0 -66 -27 -117t-77 -79t-115 -28q-64 0 -113.5 28zM192 0h-127v700h137l288 -462v462h127v-700h-122l-303 485v-485zM999.5 391.5q28.5 32.5 28.5 85.5
v11q0 53 -28.5 85.5t-75.5 32.5q-46 0 -74.5 -33t-28.5 -85v-11q0 -52 28.5 -85t74.5 -33q47 0 75.5 32.5zM1130 108h-412v89h412v-89z" />
    <glyph glyph-name="trademark" unicode="&#x2122;" horiz-adv-x="544" 
d="M150 420h-68v218h-73v62h214v-62h-73v-218zM315 420h-65v280h75l63 -154l63 154h73v-280h-63v155l-42 -99h-63l-41 99v-155z" />
    <glyph glyph-name="uni2126" unicode="&#x2126;" horiz-adv-x="707" 
d="M58 0v111h119v21q-58 38 -96.5 108t-38.5 165v12q0 81 35.5 148.5t106 108t170.5 40.5q99 0 169.5 -40.5t106.5 -108t36 -148.5v-12q0 -95 -39 -165t-97 -108v-21h118v-111h-254v164q66 41 100.5 98t34.5 138v12q0 50 -20.5 92.5t-60 68.5t-94.5 26q-56 0 -95.5 -26
t-60 -68.5t-20.5 -92.5v-12q0 -82 34.5 -138.5t101.5 -97.5v-164h-256z" />
    <glyph glyph-name="estimated" unicode="&#x212e;" horiz-adv-x="820" 
d="M214 113q39 -35 89 -54t107 -19q89 0 159 45t106 120h65q-40 -99 -127.5 -159t-202.5 -60q-102 0 -184 48.5t-128 132t-46 183.5t46 183.5t128 132t184 48.5t184 -48.5t128 -132t46 -183.5h-554v-237zM605 588q-39 34 -88.5 53t-106.5 19t-107 -19t-89 -54v-189h391v190z
" />
    <glyph glyph-name="partialdiff" unicode="&#x2202;" horiz-adv-x="535" 
d="M408 467q30 -47 47.5 -79t29.5 -72.5t12 -88.5v-2q0 -75 -32 -128.5t-84 -81t-113 -27.5q-63 0 -116 29t-84 81t-31 117v4q0 67 28.5 118.5t79.5 79.5t116 28q16 0 33 -3l-170 258h133zM383 226q0 48 -12 85q-24 16 -48 23t-55 7q-49 0 -82.5 -34t-33.5 -88v-4
q0 -54 33.5 -88t82.5 -34q50 0 82.5 33.5t32.5 94.5v5z" />
    <glyph glyph-name="uni2206" unicode="&#x2206;" horiz-adv-x="700" 
d="M639 0h-579v114l217 586h144l218 -586v-114zM349 533l-145 -419h291z" />
    <glyph glyph-name="product" unicode="&#x220f;" horiz-adv-x="754" 
d="M272 -204h-132v782h-117v122h708v-122h-116v-782h-134v782h-209v-782z" />
    <glyph glyph-name="summation" unicode="&#x2211;" horiz-adv-x="537" 
d="M503 -128h-464v122l211 292l-211 292v122h455v-122h-305l211 -292l-211 -292h314v-122z" />
    <glyph glyph-name="minus" unicode="&#x2212;" horiz-adv-x="496" 
d="M466 261h-436v106h436v-106z" />
    <glyph glyph-name="uni2215" unicode="&#x2215;" horiz-adv-x="496" 
d="M191 0h-121l234 700h121z" />
    <glyph glyph-name="uni2219" unicode="&#x2219;" horiz-adv-x="496" 
d="M183 202.5q-30 17.5 -47.5 47.5t-17.5 65t17.5 65t47.5 47.5t65 17.5t65 -17.5t47.5 -47.5t17.5 -65t-17.5 -65t-47.5 -47.5t-65 -17.5t-65 17.5z" />
    <glyph glyph-name="radical" unicode="&#x221a;" horiz-adv-x="661" 
d="M391 0h-145l-104 293h-119v104h217l81 -250l188 553h136z" />
    <glyph glyph-name="infinity" unicode="&#x221e;" horiz-adv-x="824" 
d="M739 431.5q53 -49.5 53 -131.5t-53 -131.5t-137 -49.5q-59 0 -105 25.5t-85 74.5q-39 -49 -85.5 -74.5t-105.5 -25.5q-83 0 -136 49.5t-53 131.5t53 131.5t136 49.5q59 0 105.5 -25.5t85.5 -74.5q39 49 85 74.5t105 25.5q84 0 137 -49.5zM295 234q30 21 63 66
q-34 46 -64 67t-72 21q-38 0 -62.5 -23.5t-24.5 -64.5t24.5 -64t62.5 -23q43 0 73 21zM664.5 236q24.5 23 24.5 64t-24.5 64.5t-63.5 23.5q-42 0 -73 -21.5t-63 -66.5q32 -45 63 -66t73 -21q39 0 63.5 23z" />
    <glyph glyph-name="integral" unicode="&#x222b;" horiz-adv-x="380" 
d="M-116 -206l20 111q35 -13 62 -13q30 0 49 17t25 47l103 585q16 87 64.5 129t134.5 42q47 0 80 -12l-21 -111q-19 7 -32.5 10t-30.5 3q-30 0 -50 -17t-26 -48l-104 -586q-28 -169 -195 -169q-31 0 -79 12z" />
    <glyph glyph-name="approxequal" unicode="&#x2248;" horiz-adv-x="496" 
d="M20 360q13 57 49 89t90 32q33 0 57 -9.5t53 -26.5q20 -12 33 -18t27 -6q41 0 55 55l91 -28q-13 -57 -48.5 -89t-89.5 -32q-33 0 -56.5 9t-54.5 27q-20 12 -33 18t-27 6q-42 0 -54 -55zM20 169q13 57 49 89t90 32q33 0 57 -9.5t53 -26.5q20 -12 33 -18t27 -6q41 0 55 55
l91 -28q-13 -57 -48.5 -89t-89.5 -32q-33 0 -56.5 9t-54.5 27q-20 12 -33 18t-27 6q-42 0 -54 -55z" />
    <glyph glyph-name="notequal" unicode="&#x2260;" horiz-adv-x="495" 
d="M466 482v-106h-122l-71 -124h193v-105h-254l-87 -151l-91 53l57 98h-61v105h121l72 124h-193v106h254l87 150l91 -52l-57 -98h61z" />
    <glyph glyph-name="lessequal" unicode="&#x2264;" horiz-adv-x="495" 
d="M466 257v-107l-436 158v113l436 158v-107l-323 -107zM466 0h-436v106h436v-106z" />
    <glyph glyph-name="greaterequal" unicode="&#x2265;" horiz-adv-x="495" 
d="M466 308l-436 -158v107l323 108l-323 107v107l436 -158v-113zM466 0h-436v106h436v-106z" />
    <glyph glyph-name="lozenge" unicode="&#x25ca;" horiz-adv-x="571" 
d="M213 700h144l197 -350l-197 -350h-144l-197 350zM158 350l127 -233l128 233l-128 233z" />
    <glyph glyph-name="fi" unicode="&#xfb01;" horiz-adv-x="619" 
d="M247.5 585q-17.5 -17 -17.5 -48v-41h131v-102h-131v-394h-120v394h-91v102h91v45q0 82 46.5 126.5t125.5 44.5q29 0 79 -12v-111q-21 7 -35 10t-31 3q-30 0 -47.5 -17zM443.5 588.5q-23.5 23.5 -23.5 56.5t23.5 56.5t56.5 23.5t56 -23.5t23 -56.5t-23 -56.5t-56 -23.5
t-56.5 23.5zM560 0h-121v496h121v-496z" />
    <glyph glyph-name="fl" unicode="&#xfb02;" horiz-adv-x="660" 
d="M247.5 585q-17.5 -17 -17.5 -48v-41h131v-102h-131v-394h-120v394h-91v102h91v45q0 82 46.5 126.5t125.5 44.5q29 0 79 -12v-111q-21 7 -35 10t-31 3q-30 0 -47.5 -17zM475 29.5q-36 41.5 -36 117.5v553h121v-550q0 -24 10.5 -37.5t31.5 -13.5q19 0 46 11v-111
q-37 -11 -71 -11q-66 0 -102 41.5z" />
    <glyph glyph-name="NULL" horiz-adv-x="600" 
 />
    <glyph glyph-name="i.loclTRK" 
d="M180 0h-121v496h121v-496zM63.5 588q-23.5 23 -23.5 56t23.5 56.5t56.5 23.5t56 -23.5t23 -56.5t-23 -56t-56 -23t-56.5 23z" />
    <glyph glyph-name="a.ss01" horiz-adv-x="573" 
d="M143 19.5q-50 31.5 -78 89.5t-28 134v10q0 76 28 134t78 89.5t114 31.5q46 0 80.5 -16t55.5 -44v48h121v-496h-121v55q-47 -67 -137 -67q-63 0 -113 31.5zM365.5 140.5q32.5 38.5 32.5 101.5v12q0 63 -32.5 101.5t-85.5 38.5t-86 -38.5t-33 -101.5v-12q0 -63 33 -101.5
t86 -38.5t85.5 38.5z" />
    <glyph glyph-name="aacute.ss01" horiz-adv-x="573" 
d="M143 19.5q-50 31.5 -78 89.5t-28 134v10q0 76 28 134t78 89.5t114 31.5q46 0 80.5 -16t55.5 -44v48h121v-496h-121v55q-47 -67 -137 -67q-63 0 -113 31.5zM365.5 140.5q32.5 38.5 32.5 101.5v12q0 63 -32.5 101.5t-85.5 38.5t-86 -38.5t-33 -101.5v-12q0 -63 33 -101.5
t86 -38.5t85.5 38.5zM333 570h-97l84 160h138z" />
    <glyph glyph-name="abreve.ss01" horiz-adv-x="573" 
d="M143 19.5q-50 31.5 -78 89.5t-28 134v10q0 76 28 134t78 89.5t114 31.5q46 0 80.5 -16t55.5 -44v48h121v-496h-121v55q-47 -67 -137 -67q-63 0 -113 31.5zM365.5 140.5q32.5 38.5 32.5 101.5v12q0 63 -32.5 101.5t-85.5 38.5t-86 -38.5t-33 -101.5v-12q0 -63 33 -101.5
t86 -38.5t85.5 38.5zM199.5 602q-30.5 34 -30.5 86h76q0 -24 10 -37.5t29 -13.5t30 14t11 37h76q0 -52 -31 -86t-86 -34q-54 0 -84.5 34z" />
    <glyph glyph-name="acircumflex.ss01" horiz-adv-x="573" 
d="M143 19.5q-50 31.5 -78 89.5t-28 134v10q0 76 28 134t78 89.5t114 31.5q46 0 80.5 -16t55.5 -44v48h121v-496h-121v55q-47 -67 -137 -67q-63 0 -113 31.5zM365.5 140.5q32.5 38.5 32.5 101.5v12q0 63 -32.5 101.5t-85.5 38.5t-86 -38.5t-33 -101.5v-12q0 -63 33 -101.5
t86 -38.5t85.5 38.5zM216 570h-86l109 160h91l108 -160h-85l-69 78z" />
    <glyph glyph-name="adieresis.ss01" horiz-adv-x="573" 
d="M143 19.5q-50 31.5 -78 89.5t-28 134v10q0 76 28 134t78 89.5t114 31.5q46 0 80.5 -16t55.5 -44v48h121v-496h-121v55q-47 -67 -137 -67q-63 0 -113 31.5zM365.5 140.5q32.5 38.5 32.5 101.5v12q0 63 -32.5 101.5t-85.5 38.5t-86 -38.5t-33 -101.5v-12q0 -63 33 -101.5
t86 -38.5t85.5 38.5zM117.5 593.5q-21.5 21.5 -21.5 50.5q0 30 21.5 51.5t51.5 21.5t51.5 -21.5t21.5 -51.5q0 -29 -21.5 -50.5t-51.5 -21.5t-51.5 21.5zM348.5 593.5q-21.5 21.5 -21.5 50.5q0 30 21.5 51.5t50.5 21.5q30 0 51.5 -21.5t21.5 -51.5q0 -29 -21.5 -50.5
t-51.5 -21.5q-29 0 -50.5 21.5z" />
    <glyph glyph-name="agrave.ss01" horiz-adv-x="573" 
d="M143 19.5q-50 31.5 -78 89.5t-28 134v10q0 76 28 134t78 89.5t114 31.5q46 0 80.5 -16t55.5 -44v48h121v-496h-121v55q-47 -67 -137 -67q-63 0 -113 31.5zM365.5 140.5q32.5 38.5 32.5 101.5v12q0 63 -32.5 101.5t-85.5 38.5t-86 -38.5t-33 -101.5v-12q0 -63 33 -101.5
t86 -38.5t85.5 38.5zM333 570h-96l-126 160h138z" />
    <glyph glyph-name="amacron.ss01" horiz-adv-x="573" 
d="M143 19.5q-50 31.5 -78 89.5t-28 134v10q0 76 28 134t78 89.5t114 31.5q46 0 80.5 -16t55.5 -44v48h121v-496h-121v55q-47 -67 -137 -67q-63 0 -113 31.5zM365.5 140.5q32.5 38.5 32.5 101.5v12q0 63 -32.5 101.5t-85.5 38.5t-86 -38.5t-33 -101.5v-12q0 -63 33 -101.5
t86 -38.5t85.5 38.5zM406 609h-244v88h244v-88z" />
    <glyph glyph-name="aogonek.ss01" horiz-adv-x="573" 
d="M522 -123v-72q-24 -11 -55 -11q-44 0 -72.5 25t-28.5 73q0 34 15 61.5t39 46.5h-27v55q-47 -67 -137 -67q-63 0 -113 31.5t-78 89.5t-28 134v10q0 76 28 134t78 89.5t114 31.5q46 0 80.5 -16t55.5 -44v48h121v-496q-31 -17 -49.5 -41.5t-18.5 -51.5q0 -18 11 -28.5
t29 -10.5t36 9zM398 254q0 63 -32.5 101.5t-85.5 38.5t-86 -38.5t-33 -101.5v-12q0 -63 33 -101.5t86 -38.5t85.5 38.5t32.5 101.5v12z" />
    <glyph glyph-name="aring.ss01" horiz-adv-x="573" 
d="M143 19.5q-50 31.5 -78 89.5t-28 134v10q0 76 28 134t78 89.5t114 31.5q46 0 80.5 -16t55.5 -44v48h121v-496h-121v55q-47 -67 -137 -67q-63 0 -113 31.5zM365.5 140.5q32.5 38.5 32.5 101.5v12q0 63 -32.5 101.5t-85.5 38.5t-86 -38.5t-33 -101.5v-12q0 -63 33 -101.5
t86 -38.5t85.5 38.5zM212.5 588q-28.5 30 -28.5 74t28.5 74t71.5 30t71.5 -30t28.5 -74t-28.5 -74t-71.5 -30t-71.5 30zM310.5 631.5q10.5 11.5 10.5 29.5v2q0 18 -10.5 29.5t-26.5 11.5t-26.5 -11.5t-10.5 -29.5v-2q0 -18 10.5 -29.5t26.5 -11.5t26.5 11.5z" />
    <glyph glyph-name="atilde.ss01" horiz-adv-x="573" 
d="M143 19.5q-50 31.5 -78 89.5t-28 134v10q0 76 28 134t78 89.5t114 31.5q46 0 80.5 -16t55.5 -44v48h121v-496h-121v55q-47 -67 -137 -67q-63 0 -113 31.5zM365.5 140.5q32.5 38.5 32.5 101.5v12q0 63 -32.5 101.5t-85.5 38.5t-86 -38.5t-33 -101.5v-12q0 -63 33 -101.5
t86 -38.5t85.5 38.5zM126 624q10 43 36 63.5t63 20.5q23 0 38.5 -5.5t36.5 -16.5q9 -5 19 -9t19 -4q28 0 40 34l65 -27q-10 -42 -36 -62.5t-63 -20.5q-22 0 -37.5 5.5t-36.5 15.5q-13 7 -21 10.5t-18 3.5q-28 0 -39 -35z" />
    <glyph glyph-name="ae.ss01" horiz-adv-x="907" 
d="M870 220h-355q5 -59 37.5 -94.5t85.5 -35.5q43 0 70 18.5t43 55.5l106 -43q-27 -65 -80.5 -99t-131.5 -34t-131 53v-41h-121v55q-47 -67 -137 -67q-63 0 -113 31.5t-78 89.5t-28 134v10q0 76 28 134t78 89.5t114 31.5q46 0 80.5 -16t55.5 -44v48h121v-42q56 54 132 54
q62 0 113 -28.5t81 -85t30 -136.5v-38zM559.5 381q-30.5 -27 -40.5 -75h232q-6 45 -37 73.5t-76 28.5q-48 0 -78.5 -27zM398 254q0 63 -32.5 101.5t-85.5 38.5t-86 -38.5t-33 -101.5v-12q0 -63 33 -101.5t86 -38.5t85.5 38.5t32.5 101.5v12z" />
    <glyph glyph-name="aeacute.ss01" horiz-adv-x="907" 
d="M870 220h-355q5 -59 37.5 -94.5t85.5 -35.5q43 0 70 18.5t43 55.5l106 -43q-27 -65 -80.5 -99t-131.5 -34t-131 53v-41h-121v55q-47 -67 -137 -67q-63 0 -113 31.5t-78 89.5t-28 134v10q0 76 28 134t78 89.5t114 31.5q46 0 80.5 -16t55.5 -44v48h121v-42q56 54 132 54
q62 0 113 -28.5t81 -85t30 -136.5v-38zM559.5 381q-30.5 -27 -40.5 -75h232q-6 45 -37 73.5t-76 28.5q-48 0 -78.5 -27zM398 254q0 63 -32.5 101.5t-85.5 38.5t-86 -38.5t-33 -101.5v-12q0 -63 33 -101.5t86 -38.5t85.5 38.5t32.5 101.5v12zM502 570h-97l84 160h138z" />
    <glyph glyph-name="l.ss02" 
d="M180 0h-121v700h121v-700z" />
    <glyph glyph-name="lacute.ss02" 
d="M180 0h-121v700h121v-700zM168 774h-97l84 160h138z" />
    <glyph glyph-name="lcaron.ss02" horiz-adv-x="390" 
d="M180 0h-121v700h121v-700zM288 453l-28 21l29 45q22 36 24 51q-26 4 -43.5 22.5t-17.5 45.5q0 30 19.5 50t49.5 20q31 0 50.5 -20.5t19.5 -50.5q0 -34 -14.5 -64t-43.5 -65z" />
    <glyph glyph-name="uni013C.ss02" 
d="M180 0h-121v700h121v-700zM97 -258l-20 13l18 30q13 21 16 40q-20 2 -34 16t-14 37t15.5 39.5t41.5 16.5q25 0 40 -16t15 -41q0 -51 -50 -105z" />
    <glyph glyph-name="ldot.ss02" horiz-adv-x="453" 
d="M180 0h-121v700h121v-700zM287.5 292q-24.5 24 -24.5 58t24.5 58.5t57.5 24.5q34 0 58.5 -24.5t24.5 -58.5t-24.5 -58t-58.5 -24q-33 0 -57.5 24z" />
    <glyph glyph-name="lslash.ss02" 
d="M180 426l69 55v-119l-69 -56v-306h-121v209l-69 -56v120l69 55v372h121v-274z" />
    <glyph glyph-name="f_l.ss02" horiz-adv-x="619" 
d="M247.5 585q-17.5 -17 -17.5 -48v-41h131v-102h-131v-394h-120v394h-91v102h91v45q0 82 46.5 126.5t125.5 44.5q29 0 79 -12v-111q-21 7 -35 10t-31 3q-30 0 -47.5 -17zM560 0h-121v700h121v-700z" />
    <glyph glyph-name="fl.ss02" horiz-adv-x="619" 
d="M247.5 585q-17.5 -17 -17.5 -48v-41h131v-102h-131v-394h-120v394h-91v102h91v45q0 82 46.5 126.5t125.5 44.5q29 0 79 -12v-111q-21 7 -35 10t-31 3q-30 0 -47.5 -17zM560 0h-121v700h121v-700z" />
    <glyph glyph-name="ordfeminine.ss01" horiz-adv-x="366" 
d="M63.5 419.5q-39.5 45.5 -39.5 117.5v7q0 73 39.5 118t101.5 45q28 0 50.5 -10t36.5 -28v30h76v-317h-76v35q-31 -43 -88 -43q-61 0 -100.5 45.5zM234 471q21 25 21 66v8q0 40 -21 65.5t-55 25.5t-55.5 -25t-21.5 -66v-8q0 -42 21.5 -66.5t55.5 -24.5t55 25z" />
    <glyph glyph-name="uni0414.loclBGR" horiz-adv-x="743" 
d="M444 700l207 -575h65v-267h-123v142h-442v-142h-122v267h64l207 575h144zM372 540l-141 -415h282z" />
    <glyph glyph-name="uni041B.loclBGR" horiz-adv-x="682" 
d="M166 0h-150l253 700h143l253 -700h-149l-175 525z" />
    <glyph glyph-name="uni0432.loclBGR" horiz-adv-x="509" 
d="M108 37.5q-51 51.5 -51 153.5v327q0 57 25 101.5t70.5 69.5t103.5 25q97 0 145 -47.5t48 -130.5v-18q0 -47 -23 -83.5t-60 -54.5q97 -40 97 -160v-29q0 -99 -55 -152t-151 -53q-98 0 -149 51.5zM250 418q37 0 63 24t26 67v22q0 39 -20.5 60.5t-57.5 21.5q-38 0 -60 -23
t-22 -65v-107h71zM322.5 117q21.5 26 21.5 75v36q0 44 -24 68t-66 24h-75v-128q0 -49 20.5 -75t60.5 -26q41 0 62.5 26z" />
    <glyph glyph-name="uni0433.loclBGR" horiz-adv-x="485" 
d="M94.5 28.5q-50.5 42.5 -50.5 116.5q0 66 43.5 102.5t123.5 51.5q59 11 80 26t21 39q0 22 -19.5 34.5t-52.5 12.5q-30 0 -56.5 -16.5t-40.5 -46.5l-90 51q50 107 186 107q81 0 130.5 -38.5t49.5 -105.5q0 -61 -37.5 -97.5t-112.5 -52.5q-61 -13 -85 -28t-24 -41
q0 -24 20 -38t56 -14q40 0 68 20t42 55l98 -57q-23 -56 -77 -89.5t-134 -33.5q-88 0 -138.5 42.5z" />
    <glyph glyph-name="uni0434.loclBGR" horiz-adv-x="571" 
d="M132 -183q-58 33 -87 89l105 63q39 -72 124 -72q56 0 86.5 36.5t30.5 98.5v40q-21 -30 -55.5 -48t-81.5 -18q-63 0 -112.5 30.5t-77 86.5t-27.5 130v8q0 74 28 130t77 86.5t111 30.5q46 0 82 -17t56 -44v49h121v-459q0 -119 -64.5 -186t-175.5 -67q-82 0 -140 33z
M363 157q33 37 33 96v8q0 59 -32.5 96t-85.5 37q-52 0 -84.5 -37t-32.5 -96v-8q0 -59 32.5 -96t84.5 -37t85 37z" />
    <glyph glyph-name="uni0436.loclBGR" horiz-adv-x="745" 
d="M166 0h-138l160 248l-160 248h138l128 -209h18v413h121v-413h18l128 209h138l-160 -248l160 -248h-138l-128 209h-18v-209h-121v209h-18z" />
    <glyph glyph-name="uni0437.loclBGR" horiz-adv-x="507" 
d="M93 -164q-55 54 -65 147l109 19q12 -117 115 -117q49 0 75.5 31t26.5 84v20q0 50 -29.5 77t-76.5 27h-54v92h48q48 0 76 27t28 73q0 44 -25 69.5t-71 25.5q-40 0 -67.5 -26t-34.5 -72l-107 27q14 75 67.5 121.5t141.5 46.5q99 0 152.5 -49.5t53.5 -138.5q0 -102 -85 -145
q46 -18 73.5 -59t27.5 -98v-21q0 -95 -57.5 -155t-163.5 -60q-103 0 -158 54z" />
    <glyph glyph-name="uni0438.loclBGR" horiz-adv-x="548" 
d="M105 38.5q-46 50.5 -46 139.5v318h121v-295q0 -48 26 -75.5t68 -27.5t68.5 28t26.5 76v294h120v-496h-120v52q-16 -26 -52 -45t-80 -19q-86 0 -132 50.5z" />
    <glyph glyph-name="uni0439.loclBGR" horiz-adv-x="548" 
d="M105 38.5q-46 50.5 -46 139.5v318h121v-295q0 -48 26 -75.5t68 -27.5t68.5 28t26.5 76v294h120v-496h-120v52q-16 -26 -52 -45t-80 -19q-86 0 -132 50.5zM180.5 604.5q-34.5 36.5 -34.5 93.5h80q0 -27 12.5 -42.5t36.5 -15.5t36.5 15.5t12.5 42.5h80q0 -57 -34.5 -93.5
t-94.5 -36.5t-94.5 36.5z" />
    <glyph glyph-name="uni043A.loclBGR" horiz-adv-x="498" 
d="M332 496h138l-160 -248l160 -248h-138l-131 209h-21v-209h-121v700h121v-413h21z" />
    <glyph glyph-name="uni043B.loclBGR" horiz-adv-x="512" 
d="M140 0h-131l182 496h130l181 -496h-130l-116 343z" />
    <glyph glyph-name="uni043F.loclBGR" horiz-adv-x="548" 
d="M59 0v496h121v-52q15 26 51.5 45t80.5 19q85 0 131 -50t46 -140v-318h-120v295q0 48 -26.5 75.5t-68.5 27.5t-68 -28t-26 -76v-294h-121z" />
    <glyph glyph-name="uni0442.loclBGR" horiz-adv-x="799" 
d="M59 0v496h120v-51q15 26 49 44.5t75 18.5q46 0 80 -18t53 -52q19 30 56 50t85 20q78 0 120.5 -46.5t42.5 -127.5v-334h-120v310q0 40 -22.5 64t-58.5 24q-35 0 -57 -24.5t-22 -64.5v-309h-121v310q0 40 -22 64t-58 24t-58 -24.5t-22 -64.5v-309h-120z" />
    <glyph glyph-name="uni0446.loclBGR" horiz-adv-x="577" 
d="M442 -122v122h-73v52q-16 -26 -52 -45t-80 -19q-86 0 -132 50.5t-46 139.5v318h121v-295q0 -48 26 -75.5t68 -27.5t68.5 28t26.5 76v294h120v-387h67v-231h-114z" />
    <glyph glyph-name="uni0448.loclBGR" horiz-adv-x="799" 
d="M101.5 34.5q-42.5 46.5 -42.5 127.5v334h120v-310q0 -40 22.5 -64t58.5 -24q35 0 57 24.5t22 64.5v309h121v-310q0 -40 22 -64t58 -24t58 24.5t22 64.5v309h120v-496h-120v51q-15 -26 -49 -44.5t-75 -18.5q-47 0 -80.5 18t-51.5 52q-20 -31 -57 -50.5t-85 -19.5
q-78 0 -120.5 46.5z" />
    <glyph glyph-name="uni0449.loclBGR" horiz-adv-x="828" 
d="M693 -122v122h-73v51q-15 -26 -49 -44.5t-75 -18.5q-47 0 -80.5 18t-51.5 52q-20 -31 -57 -50.5t-85 -19.5q-78 0 -120.5 46.5t-42.5 127.5v334h120v-310q0 -40 22.5 -64t58.5 -24q35 0 57 24.5t22 64.5v309h121v-310q0 -40 22 -64t58 -24t58 24.5t22 64.5v309h120v-387
h67v-231h-114z" />
    <glyph glyph-name="uni044C.loclBGR" horiz-adv-x="514" 
d="M112.5 35.5q-53.5 49.5 -53.5 144.5v316h121v-181q19 12 47 19.5t61 7.5q85 0 134 -47t49 -130v-1q0 -83 -56.5 -130.5t-148.5 -47.5q-100 0 -153.5 49.5zM329 105q23 22 23 59v1q0 38 -22.5 59.5t-63.5 21.5q-25 0 -47.5 -8t-38.5 -19v-47q0 -42 23 -65.5t64 -23.5
q39 0 62 22z" />
    <glyph glyph-name="uni044A.loclBGR" horiz-adv-x="608" 
d="M206.5 35.5q-53.5 49.5 -53.5 144.5v213h-133v103h253v-181q46 27 109 27q85 0 134 -47t49 -130v-1q0 -83 -56.5 -130.5t-148.5 -47.5q-100 0 -153.5 49.5zM423 105q23 22 23 59v1q0 38 -22.5 59.5t-63.5 21.5q-25 0 -48.5 -8t-38.5 -19v-47q0 -42 23 -65.5t65 -23.5
q39 0 62 22z" />
    <glyph glyph-name="uni044E.loclBGR" horiz-adv-x="779" 
d="M624.5 475q55.5 -33 86.5 -91t31 -131v-10q0 -73 -31 -131t-86.5 -91t-126.5 -33q-65 0 -118 28.5t-85.5 79t-38.5 115.5h-76v-211h-121v700h121v-380h81q20 85 83.5 136.5t153.5 51.5q71 0 126.5 -33zM618 254q0 62 -32.5 101t-87.5 39t-87.5 -38.5t-32.5 -101.5v-12
q0 -63 32.5 -101.5t87.5 -38.5t87.5 39t32.5 101v12z" />
    <glyph glyph-name="zero.lf" horiz-adv-x="614" 
d="M164 30q-61 44 -94 124t-33 186v20q0 105 33 185.5t94.5 124.5t142.5 44t142.5 -44t94.5 -124.5t33 -185.5v-20q0 -106 -33 -186t-94 -124t-143 -44t-143 44zM410 166q37 63 37 173v22q0 110 -37 173t-103 63t-103 -62.5t-37 -173.5v-22q0 -111 37 -173.5t103 -62.5
t103 63z" />
    <glyph glyph-name="one.lf" horiz-adv-x="379" 
d="M314 0h-128v569l-162 -112v131l162 112h128v-700z" />
    <glyph glyph-name="two.lf" horiz-adv-x="530" 
d="M59 0v111l215 219q43 44 62.5 83t19.5 83q0 50 -26.5 78.5t-71.5 28.5q-90 0 -112 -115l-111 30q13 88 72.5 141t150.5 53q70 0 120.5 -26.5t76.5 -73.5t26 -107q0 -73 -27 -126t-88 -116l-145 -152h268v-111h-430z" />
    <glyph glyph-name="three.lf" horiz-adv-x="548" 
d="M333 437q79 -17 124.5 -71t45.5 -141v-4q0 -106 -62.5 -169.5t-171.5 -63.5q-101 0 -163.5 55t-73.5 150l113 23q9 -53 40.5 -84.5t81.5 -31.5t79.5 34t29.5 87v4q0 125 -161 125v96l127 149h-283v105h417v-104z" />
    <glyph glyph-name="four.lf" horiz-adv-x="557" 
d="M440 0h-121v151h-293v111l293 438h121v-439h95v-110h-95v-151zM319 521l-169 -260h169v260z" />
    <glyph glyph-name="five.lf" horiz-adv-x="553" 
d="M120 42q-64 54 -78 145l118 28q9 -50 41.5 -80t80.5 -30q51 0 81.5 32.5t30.5 88.5v6q0 57 -30.5 90.5t-84.5 33.5q-34 0 -62 -16.5t-45 -44.5l-110 36l31 369h396v-108h-296l-20 -174q24 22 57.5 34t72.5 12q99 0 157 -63t58 -171v-8q0 -65 -29.5 -118.5t-83 -84.5
t-122.5 -31q-99 0 -163 54z" />
    <glyph glyph-name="six.lf" horiz-adv-x="533" 
d="M152.5 15.5q-52.5 27.5 -84.5 81t-32 128.5v2q0 66 22.5 118t67.5 122l151 233h132l-180 -267q15 12 45 12q64 0 115 -28t79.5 -79.5t28.5 -118.5v-4q0 -65 -31 -117t-84 -81t-116 -29q-61 0 -113.5 27.5zM348.5 127q33.5 34 33.5 88v4q0 54 -33.5 88t-83.5 34
q-49 0 -81.5 -33.5t-32.5 -88.5v-4q0 -54 33.5 -88t81.5 -34q49 0 82.5 34z" />
    <glyph glyph-name="seven.lf" horiz-adv-x="478" 
d="M227 0h-123l228 592h-306v108h422v-108z" />
    <glyph glyph-name="eight.lf" horiz-adv-x="531" 
d="M149 13.5q-51 25.5 -80 73t-29 111.5v2q0 62 29.5 106t71.5 65q-34 22 -55.5 59.5t-21.5 87.5v3q0 52 25 95t71 67.5t106 24.5q59 0 105 -24.5t71 -67.5t25 -95v-3q0 -50 -21.5 -87.5t-54.5 -59.5q41 -21 70.5 -65t29.5 -106v-2q0 -64 -28.5 -111.5t-80 -73t-116.5 -25.5
q-66 0 -117 25.5zM332.5 437.5q26.5 26.5 26.5 70.5v3q0 43 -26.5 69.5t-66.5 26.5q-41 0 -68 -26.5t-27 -69.5v-3q0 -44 27 -70.5t68 -26.5q40 0 66.5 26.5zM343 124.5q30 29.5 30 78.5v4q0 49 -30.5 78.5t-76.5 29.5q-47 0 -77.5 -29.5t-30.5 -78.5v-4q0 -49 30.5 -78.5
t77.5 -29.5t77 29.5z" />
    <glyph glyph-name="nine.lf" horiz-adv-x="533" 
d="M305 267q-16 -12 -45 -12q-64 0 -114.5 28t-79.5 79.5t-29 118.5v4q0 65 31 117t83.5 81t115.5 29q62 0 114.5 -27t84 -81t31.5 -129v-2q0 -65 -22 -118.5t-67 -121.5l-151 -233h-132zM350.5 392.5q32.5 33.5 32.5 88.5v4q0 54 -33.5 88t-82.5 34q-48 0 -81.5 -34
t-33.5 -88v-4q0 -54 33.5 -88t83.5 -34q49 0 81.5 33.5z" />
    <glyph glyph-name="zero.tf" horiz-adv-x="560" 
d="M97 81q-63 95 -63 259v20q0 163 63.5 258.5t182.5 95.5q120 0 183.5 -95.5t63.5 -258.5v-20q0 -164 -63.5 -259t-183.5 -95t-183 95zM366.5 161.5q30.5 58.5 30.5 177.5v22q0 119 -30.5 177.5t-86.5 58.5t-86.5 -58.5t-30.5 -177.5v-22q0 -119 30.5 -177.5t86.5 -58.5
t86.5 58.5z" />
    <glyph glyph-name="one.tf" horiz-adv-x="560" 
d="M423 0h-128v569l-197 -102v129l197 104h128v-700z" />
    <glyph glyph-name="two.tf" horiz-adv-x="560" 
d="M76 0v111l215 219q43 44 62.5 83t19.5 83q0 50 -26.5 78.5t-71.5 28.5q-90 0 -112 -115l-111 30q13 88 72.5 141t150.5 53q70 0 120.5 -26.5t76.5 -73.5t26 -107q0 -73 -27 -126t-88 -116l-145 -152h268v-111h-430z" />
    <glyph glyph-name="three.tf" horiz-adv-x="560" 
d="M344 437q79 -17 124.5 -71t45.5 -141v-4q0 -106 -62.5 -169.5t-171.5 -63.5q-101 0 -163.5 55t-73.5 150l113 23q9 -53 40.5 -84.5t81.5 -31.5t79.5 34t29.5 87v4q0 125 -161 125v96l127 149h-283v105h417v-104z" />
    <glyph glyph-name="four.tf" horiz-adv-x="560" 
d="M443 0h-120v151h-282v111l282 438h120v-439h77v-110h-77v-151zM323 511l-163 -250h163v250z" />
    <glyph glyph-name="five.tf" horiz-adv-x="560" 
d="M119 42q-64 54 -78 145l118 28q9 -50 41.5 -80t80.5 -30q51 0 81.5 32.5t30.5 88.5v6q0 57 -30.5 90.5t-84.5 33.5q-34 0 -62 -16.5t-45 -44.5l-110 36l31 369h396v-108h-296l-20 -174q24 22 57.5 34t72.5 12q99 0 157 -63t58 -171v-8q0 -65 -29.5 -118.5t-83 -84.5
t-122.5 -31q-99 0 -163 54z" />
    <glyph glyph-name="six.tf" horiz-adv-x="560" 
d="M165.5 15.5q-52.5 27.5 -84.5 81t-32 128.5v2q0 66 22.5 118t67.5 122l151 233h132l-180 -267q15 12 45 12q64 0 115 -28t79.5 -79.5t28.5 -118.5v-4q0 -65 -31 -117t-84 -81t-116 -29q-61 0 -113.5 27.5zM361.5 127q33.5 34 33.5 88v4q0 54 -33.5 88t-83.5 34
q-49 0 -81.5 -33.5t-32.5 -88.5v-4q0 -54 33.5 -88t81.5 -34q49 0 82.5 34z" />
    <glyph glyph-name="seven.tf" horiz-adv-x="560" 
d="M270 0h-129l248 592h-335v108h455v-108z" />
    <glyph glyph-name="eight.tf" horiz-adv-x="560" 
d="M163 13.5q-51 25.5 -80 73t-29 111.5v2q0 62 29.5 106t71.5 65q-34 22 -55.5 59.5t-21.5 87.5v3q0 52 25 95t71 67.5t106 24.5q59 0 105 -24.5t71 -67.5t25 -95v-3q0 -50 -21.5 -87.5t-54.5 -59.5q41 -21 70.5 -65t29.5 -106v-2q0 -64 -28.5 -111.5t-80 -73t-116.5 -25.5
q-66 0 -117 25.5zM346.5 437.5q26.5 26.5 26.5 70.5v3q0 43 -26.5 69.5t-66.5 26.5q-41 0 -68 -26.5t-27 -69.5v-3q0 -44 27 -70.5t68 -26.5q40 0 66.5 26.5zM357 124.5q30 29.5 30 78.5v4q0 49 -30.5 78.5t-76.5 29.5q-47 0 -77.5 -29.5t-30.5 -78.5v-4q0 -49 30.5 -78.5
t77.5 -29.5t77 29.5z" />
    <glyph glyph-name="nine.tf" horiz-adv-x="560" 
d="M319 267q-16 -12 -45 -12q-64 0 -114.5 28t-79.5 79.5t-29 118.5v4q0 65 31 117t83.5 81t115.5 29q62 0 114.5 -27t84 -81t31.5 -129v-2q0 -65 -22 -118.5t-67 -121.5l-151 -233h-132zM364.5 392.5q32.5 33.5 32.5 88.5v4q0 54 -33.5 88t-82.5 34q-48 0 -81.5 -34
t-33.5 -88v-4q0 -54 33.5 -88t83.5 -34q49 0 81.5 33.5z" />
    <glyph glyph-name="zero.dnom" horiz-adv-x="335" 
d="M59 42.5q-41 49.5 -41 128.5v8q0 79 41 128.5t108 49.5t108.5 -49.5t41.5 -128.5v-8q0 -79 -41.5 -128.5t-108.5 -49.5t-108 49.5zM209.5 100.5q14.5 25.5 14.5 70.5v8q0 45 -14.5 70.5t-42.5 25.5q-27 0 -42 -25.5t-15 -70.5v-8q0 -45 15 -70.5t42 -25.5q28 0 42.5 25.5
z" />
    <glyph glyph-name="one.dnom" horiz-adv-x="210" 
d="M184 0h-89v263l-84 -53v89l84 51h89v-350z" />
    <glyph glyph-name="two.dnom" horiz-adv-x="279" 
d="M30 0v75l104 97q22 21 31 36t9 33t-10.5 29t-27.5 11q-38 0 -46 -45l-75 18q7 46 38.5 74t82.5 28q59 0 90.5 -29.5t31.5 -79.5q0 -36 -15 -62t-46 -55l-57 -55h122v-75h-232z" />
    <glyph glyph-name="three.dnom" horiz-adv-x="287" 
d="M51.5 23q-33.5 29 -38.5 77l76 15q4 -21 16.5 -33.5t32.5 -12.5q21 0 33.5 13.5t12.5 34.5q0 27 -18.5 39.5t-56.5 12.5v54l52 57h-132v70h223v-70l-60 -63q35 -9 56 -35t21 -65q0 -56 -35.5 -89.5t-95.5 -33.5q-53 0 -86.5 29z" />
    <glyph glyph-name="four.dnom" horiz-adv-x="302" 
d="M244 0h-83v66h-150v71l150 213h83v-213h48v-71h-48v-66zM161 239l-69 -102h69v102z" />
    <glyph glyph-name="five.dnom" horiz-adv-x="289" 
d="M61 22q-35 28 -43 73l81 17q3 -18 15.5 -29t30.5 -11q19 0 30.5 12t11.5 33v3q0 21 -11.5 33t-30.5 12q-14 0 -25 -6.5t-16 -16.5l-75 21l18 187h209v-71h-141l-9 -65q8 8 23 13t32 5q51 0 81.5 -30t30.5 -84v-2q0 -55 -34.5 -88.5t-90.5 -33.5q-52 0 -87 28z" />
    <glyph glyph-name="six.dnom" horiz-adv-x="276" 
d="M52 26.5q-35 32.5 -35 89.5q0 32 11 58.5t32 59.5l77 116h80l-84 -128q4 2 9 2q51 0 84 -31.5t33 -83.5q0 -50 -35 -82.5t-87 -32.5q-50 0 -85 32.5zM169.5 75.5q12.5 13.5 12.5 34.5q0 20 -12.5 33t-32.5 13q-19 0 -31 -13t-12 -33q0 -21 12.5 -34.5t30.5 -13.5
q20 0 32.5 13.5z" />
    <glyph glyph-name="seven.dnom" horiz-adv-x="250" 
d="M126 0h-80l114 279h-147v71h224v-71z" />
    <glyph glyph-name="eight.dnom" horiz-adv-x="282" 
d="M53 22q-34 28 -34 77v1q0 28 14 51t34 34q-16 12 -26 30t-10 39v1q0 41 30 70t80 29t80.5 -29t30.5 -70v-1q0 -21 -10 -39t-27 -30q20 -10 34 -33t14 -52v-1q0 -49 -33.5 -77t-88.5 -28q-54 0 -88 28zM168.5 222q10.5 11 10.5 28v1q0 17 -10.5 27.5t-27.5 10.5
q-16 0 -27 -10.5t-11 -27.5v-1q0 -17 10.5 -28t27.5 -11t27.5 11zM173 77q12 12 12 31t-12 30.5t-32 11.5q-19 0 -31 -11.5t-12 -30.5t12.5 -31t30.5 -12q20 0 32 12z" />
    <glyph glyph-name="nine.dnom" horiz-adv-x="276" 
d="M144 129q-3 -3 -11 -3q-50 0 -83 31.5t-33 83.5v1q0 50 34.5 82t86.5 32q51 0 86 -32t35 -89v-1q0 -31 -11 -58t-32 -60l-77 -116h-79zM170 207q12 13 12 34v1q0 20 -12.5 33.5t-31.5 13.5t-31.5 -13.5t-12.5 -33.5v-1q0 -21 12.5 -34t31.5 -13q20 0 32 13z" />
    <glyph glyph-name="zero.numr" horiz-adv-x="335" 
d="M59 392.5q-41 49.5 -41 128.5v8q0 79 41 128.5t108 49.5t108.5 -49.5t41.5 -128.5v-8q0 -79 -41.5 -128.5t-108.5 -49.5t-108 49.5zM209.5 450.5q14.5 25.5 14.5 70.5v8q0 45 -14.5 70.5t-42.5 25.5q-27 0 -42 -25.5t-15 -70.5v-8q0 -45 15 -70.5t42 -25.5
q28 0 42.5 25.5z" />
    <glyph glyph-name="one.numr" horiz-adv-x="210" 
d="M184 350h-89v263l-84 -53v89l84 51h89v-350z" />
    <glyph glyph-name="two.numr" horiz-adv-x="279" 
d="M30 350v75l104 97q22 21 31 36t9 33t-10.5 29t-27.5 11q-38 0 -46 -45l-75 18q7 46 38.5 74t82.5 28q59 0 90.5 -29.5t31.5 -79.5q0 -36 -15 -62t-46 -55l-57 -55h122v-75h-232z" />
    <glyph glyph-name="three.numr" horiz-adv-x="287" 
d="M51.5 373q-33.5 29 -38.5 77l76 15q4 -21 16.5 -33.5t32.5 -12.5q21 0 33.5 13.5t12.5 34.5q0 27 -18.5 39.5t-56.5 12.5v54l52 57h-132v70h223v-70l-60 -63q35 -9 56 -35t21 -65q0 -56 -35.5 -89.5t-95.5 -33.5q-53 0 -86.5 29z" />
    <glyph glyph-name="four.numr" horiz-adv-x="302" 
d="M244 350h-83v66h-150v71l150 213h83v-213h48v-71h-48v-66zM161 589l-69 -102h69v102z" />
    <glyph glyph-name="five.numr" horiz-adv-x="289" 
d="M61 372q-35 28 -43 73l81 17q3 -18 15.5 -29t30.5 -11q19 0 30.5 12t11.5 33v3q0 21 -11.5 33t-30.5 12q-14 0 -25 -6.5t-16 -16.5l-75 21l18 187h209v-71h-141l-9 -65q8 8 23 13t32 5q51 0 81.5 -30t30.5 -84v-2q0 -55 -34.5 -88.5t-90.5 -33.5q-52 0 -87 28z" />
    <glyph glyph-name="six.numr" horiz-adv-x="276" 
d="M52 376.5q-35 32.5 -35 89.5q0 32 11 58.5t32 59.5l77 116h80l-84 -128q4 2 9 2q51 0 84 -31.5t33 -83.5q0 -50 -35 -82.5t-87 -32.5q-50 0 -85 32.5zM169.5 425.5q12.5 13.5 12.5 34.5q0 20 -12.5 33t-32.5 13q-19 0 -31 -13t-12 -33q0 -21 12.5 -34.5t30.5 -13.5
q20 0 32.5 13.5z" />
    <glyph glyph-name="seven.numr" horiz-adv-x="250" 
d="M126 350h-80l114 279h-147v71h224v-71z" />
    <glyph glyph-name="eight.numr" horiz-adv-x="282" 
d="M53 372q-34 28 -34 77v1q0 28 14 51t34 34q-16 12 -26 30t-10 39v1q0 41 30 70t80 29t80.5 -29t30.5 -70v-1q0 -21 -10 -39t-27 -30q20 -10 34 -33t14 -52v-1q0 -49 -33.5 -77t-88.5 -28q-54 0 -88 28zM168.5 572q10.5 11 10.5 28v1q0 17 -10.5 27.5t-27.5 10.5
q-16 0 -27 -10.5t-11 -27.5v-1q0 -17 10.5 -28t27.5 -11t27.5 11zM173 427q12 12 12 31t-12 30.5t-32 11.5q-19 0 -31 -11.5t-12 -30.5t12.5 -31t30.5 -12q20 0 32 12z" />
    <glyph glyph-name="nine.numr" horiz-adv-x="276" 
d="M144 479q-3 -3 -11 -3q-50 0 -83 31.5t-33 83.5v1q0 50 34.5 82t86.5 32q51 0 86 -32t35 -89v-1q0 -31 -11 -58t-32 -60l-77 -116h-79zM170 557q12 13 12 34v1q0 20 -12.5 33.5t-31.5 13.5t-31.5 -13.5t-12.5 -33.5v-1q0 -21 12.5 -34t31.5 -13q20 0 32 13z" />
    <glyph glyph-name="uni030C.alt" horiz-adv-x="0" 
d="M-163 453l-28 21l29 45q22 36 24 51q-26 4 -43.5 22.5t-17.5 45.5q0 30 19.5 50t49.5 20q31 0 50.5 -20.5t19.5 -50.5q0 -34 -14.5 -64t-43.5 -65z" />
    <glyph glyph-name="brevecombcy" horiz-adv-x="0" 
d="M-223.5 604.5q-34.5 36.5 -34.5 93.5h80q0 -27 12.5 -42.5t36.5 -15.5t36.5 15.5t12.5 42.5h80q0 -57 -34.5 -93.5t-94.5 -36.5t-94.5 36.5z" />
    </font>
</defs>
</svg>
